<svg xmlns="http://www.w3.org/2000/svg" version="1.1" width="1024" height="1024">
<rect x="0" y="0" width="1024" height="1024" fill="#d5dcbd" />
<g transform="scale(4.000000) translate(0.5 0.5)">
<polygon fill="#004f00" fill-opacity="0.501961" points="124,47 42,176 137,187" />
<polygon fill="#ffffff" fill-opacity="0.501961" points="254,-16 35,5 271,157" />
<polygon fill="#ffffff" fill-opacity="0.501961" points="82,257 6,-16 -16,257" />
<polygon fill="#bebb59" fill-opacity="0.501961" points="271,192 113,246 127,47" />
<polygon fill="#dbc700" fill-opacity="0.501961" points="87,148 72,54 9,-16" />
<polygon fill="#297d40" fill-opacity="0.501961" points="99,64 160,111 63,194" />
<polygon fill="#ffffff" fill-opacity="0.501961" points="74,70 271,36 36,-16" />
<polygon fill="#e7d000" fill-opacity="0.501961" points="44,-7 12,-4 71,102" />
<polygon fill="#8ea8ee" fill-opacity="0.501961" points="56,211 141,271 178,198" />
<polygon fill="#006b00" fill-opacity="0.501961" points="147,63 107,99 98,66" />
<polygon fill="#ffffff" fill-opacity="0.501961" points="0,-15 1,271 58,82" />
<polygon fill="#7d9e97" fill-opacity="0.501961" points="118,238 36,158 35,90" />
<polygon fill="#13581a" fill-opacity="0.501961" points="121,183 80,97 75,183" />
<polygon fill="#fff6d8" fill-opacity="0.501961" points="110,158 165,114 131,174" />
<polygon fill="#ffffff" fill-opacity="0.501961" points="96,-7 267,185 267,-5" />
<polygon fill="#ffffff" fill-opacity="0.501961" points="-8,81 110,271 -16,262" />
<polygon fill="#e8d900" fill-opacity="0.501961" points="90,106 68,114 47,28" />
<polygon fill="#d3c577" fill-opacity="0.501961" points="120,84 268,219 214,271" />
<polygon fill="#ffda2a" fill-opacity="0.501961" points="66,183 172,185 140,207" />
<polygon fill="#91c87e" fill-opacity="0.501961" points="187,118 85,106 146,68" />
<polygon fill="#ffdc32" fill-opacity="0.501961" points="249,163 197,119 258,210" />
<polygon fill="#ffffff" fill-opacity="0.501961" points="209,-14 36,-16 77,83" />
<polygon fill="#ffffff" fill-opacity="0.501961" points="176,232 219,255 136,262" />
<polygon fill="#d8e7b8" fill-opacity="0.501961" points="78,160 75,111 60,172" />
<polygon fill="#ffeda7" fill-opacity="0.501961" points="189,108 234,146 120,141" />
<polygon fill="#ffffff" fill-opacity="0.501961" points="-16,128 57,92 8,-16" />
<polygon fill="#dcce00" fill-opacity="0.501961" points="61,87 39,-16 15,-2" />
<polygon fill="#aebcd4" fill-opacity="0.501961" points="75,233 197,232 47,175" />
<polygon fill="#829fbb" fill-opacity="0.501961" points="200,75 223,135 224,107" />
<polygon fill="#ffffff" fill-opacity="0.501961" points="205,73 258,186 255,-16" />
<polygon fill="#ffe56f" fill-opacity="0.501961" points="132,105 147,70 109,105" />
<polygon fill="#0e5e19" fill-opacity="0.501961" points="116,182 141,186 96,153" />
<polygon fill="#92c692" fill-opacity="0.501961" points="73,73 115,105 104,130" />
<polygon fill="#cecdc8" fill-opacity="0.501961" points="248,233 191,131 245,183" />
<polygon fill="#60a346" fill-opacity="0.501961" points="67,136 56,171 52,134" />
<polygon fill="#e4cf61" fill-opacity="0.501961" points="108,164 188,143 178,191" />
<polygon fill="#feffff" fill-opacity="0.501961" points="181,78 271,-16 61,34" />
<polygon fill="#ffffff" fill-opacity="0.501961" points="253,271 264,238 221,255" />
<polygon fill="#fcffff" fill-opacity="0.501961" points="-1,189 -16,271 149,271" />
<polygon fill="#309213" fill-opacity="0.501961" points="80,78 130,60 150,74" />
<polygon fill="#e3d700" fill-opacity="0.501961" points="76,120 87,98 59,49" />
<polygon fill="#d5dbe3" fill-opacity="0.501961" points="180,127 139,136 211,150" />
<polygon fill="#dece6b" fill-opacity="0.501961" points="238,229 175,232 224,180" />
<polygon fill="#80c29b" fill-opacity="0.501961" points="177,108 138,129 143,66" />
<polygon fill="#1c7219" fill-opacity="0.501961" points="104,129 139,128 120,104" />
<polygon fill="#ffe569" fill-opacity="0.501961" points="240,169 173,84 180,125" />
<polygon fill="#207025" fill-opacity="0.501961" points="132,81 84,118 104,67" />
<polygon fill="#7692a2" fill-opacity="0.501961" points="45,102 53,78 37,102" />
<polygon fill="#fbffff" fill-opacity="0.501961" points="58,127 76,114 75,131" />
<polygon fill="#a4b7c9" fill-opacity="0.501961" points="89,239 132,251 202,179" />
<polygon fill="#ffffff" fill-opacity="0.501961" points="-1,-16 -12,267 65,271" />
<polygon fill="#ffffff" fill-opacity="0.501961" points="43,100 60,92 41,127" />
<polygon fill="#8ac098" fill-opacity="0.501961" points="79,82 97,69 110,123" />
<polygon fill="#dfeaf9" fill-opacity="0.501961" points="182,61 134,37 66,63" />
<polygon fill="#095402" fill-opacity="0.501961" points="71,182 65,172 85,157" />
<polygon fill="#dedcb3" fill-opacity="0.501961" points="139,183 112,151 132,137" />
<polygon fill="#bbc6d2" fill-opacity="0.501961" points="171,240 61,204 169,202" />
<polygon fill="#88c09d" fill-opacity="0.501961" points="93,130 82,122 111,121" />
<polygon fill="#ecc100" fill-opacity="0.501961" points="137,204 141,187 157,200" />
<polygon fill="#ecf4ff" fill-opacity="0.501961" points="225,261 179,233 111,271" />
<polygon fill="#d0ac41" fill-opacity="0.501961" points="249,185 249,240 264,209" />
<polygon fill="#eae266" fill-opacity="0.501961" points="114,183 69,182 92,195" />
<polygon fill="#92a7bf" fill-opacity="0.501961" points="102,247 167,240 67,211" />
<polygon fill="#064f1a" fill-opacity="0.501961" points="87,158 105,177 113,145" />
<polygon fill="#84a2b3" fill-opacity="0.501961" points="59,174 36,108 33,137" />
<polygon fill="#7c8c90" fill-opacity="0.501961" points="90,162 80,171 101,180" />
<polygon fill="#dee4b5" fill-opacity="0.501961" points="197,97 206,132 141,62" />
<polygon fill="#b1c065" fill-opacity="0.501961" points="57,134 63,96 51,110" />
<polygon fill="#004f16" fill-opacity="0.501961" points="81,117 95,142 77,134" />
<polygon fill="#ffffff" fill-opacity="0.501961" points="72,60 34,-16 202,-1" />
<polygon fill="#e1d200" fill-opacity="0.501961" points="56,82 55,32 19,-16" />
<polygon fill="#92aeb7" fill-opacity="0.501961" points="115,213 162,206 78,196" />
<polygon fill="#dde7ff" fill-opacity="0.501961" points="39,168 97,214 57,205" />
<polygon fill="#b2c9e9" fill-opacity="0.501961" points="115,106 108,102 124,90" />
<polygon fill="#e1e1f4" fill-opacity="0.501961" points="92,101 95,84 82,84" />
<polygon fill="#79ac85" fill-opacity="0.501961" points="119,152 131,135 118,121" />
<polygon fill="#ffffff" fill-opacity="0.501961" points="51,72 5,-16 22,136" />
<polygon fill="#026b0b" fill-opacity="0.501961" points="126,73 99,93 98,68" />
<polygon fill="#6daf55" fill-opacity="0.501961" points="166,91 183,113 171,114" />
<polygon fill="#ffd23f" fill-opacity="0.501961" points="255,204 212,129 244,160" />
<polygon fill="#d3be51" fill-opacity="0.501961" points="186,145 226,184 149,142" />
<polygon fill="#bbc0c5" fill-opacity="0.501961" points="237,243 252,216 199,247" />
<polygon fill="#69b502" fill-opacity="0.501961" points="114,66 145,79 139,63" />
<polygon fill="#ffffff" fill-opacity="0.501961" points="256,173 255,27 224,134" />
<polygon fill="#ffe566" fill-opacity="0.501961" points="168,115 202,123 136,129" />
<polygon fill="#f9fdff" fill-opacity="0.501961" points="212,96 218,130 163,59" />
<polygon fill="#b1c6d9" fill-opacity="0.501961" points="128,46 96,46 71,62" />
<polygon fill="#d2c75f" fill-opacity="0.501961" points="167,208 212,234 193,194" />
<polygon fill="#c1d1dd" fill-opacity="0.501961" points="187,60 212,87 158,53" />
<polygon fill="#fafdff" fill-opacity="0.501961" points="231,271 268,209 257,259" />
<polygon fill="#8299aa" fill-opacity="0.501961" points="223,120 214,129 225,137" />
<polygon fill="#ecd948" fill-opacity="0.501961" points="124,106 143,88 130,79" />
<polygon fill="#d4e7e4" fill-opacity="0.501961" points="121,165 116,149 109,166" />
<polygon fill="#ffffff" fill-opacity="0.501961" points="99,51 154,52 78,71" />
<polygon fill="#7a8dab" fill-opacity="0.501961" points="126,235 142,239 162,220" />
<polygon fill="#ffffff" fill-opacity="0.501961" points="271,157 124,-16 271,-11" />
<polygon fill="#398e53" fill-opacity="0.501961" points="76,154 76,133 98,150" />
<polygon fill="#edd843" fill-opacity="0.501961" points="133,135 121,168 122,150" />
<polygon fill="#d5d8cd" fill-opacity="0.501961" points="127,172 166,122 130,143" />
<polygon fill="#a2bb92" fill-opacity="0.501961" points="59,192 77,127 59,141" />
</g>
</svg>