<svg xmlns="http://www.w3.org/2000/svg" version="1.1" width="1024" height="1024">
<rect x="0" y="0" width="1024" height="1024" fill="#8e9a9e" />
<g transform="scale(4.000000) translate(0.5 0.5)">
<polygon fill="#002b43" fill-opacity="0.501961" points="-16,268 195,81 271,253" />
<polygon fill="#ffffff" fill-opacity="0.501961" points="116,76 -7,271 1,-16" />
<polygon fill="#ffffff" fill-opacity="0.501961" points="251,-16 271,146 150,57" />
<polygon fill="#c48058" fill-opacity="0.501961" points="52,4 167,212 195,-16" />
<polygon fill="#fafbfc" fill-opacity="0.501961" points="33,271 71,-4 -16,-2" />
<polygon fill="#01567b" fill-opacity="0.501961" points="252,271 271,108 145,176" />
<polygon fill="#ffffff" fill-opacity="0.501961" points="177,-16 208,115 271,12" />
<polygon fill="#0e4056" fill-opacity="0.501961" points="169,270 116,120 46,201" />
<polygon fill="#e8c8ac" fill-opacity="0.501961" points="162,27 181,172 127,146" />
<polygon fill="#1d1c13" fill-opacity="0.501961" points="177,72 147,-16 183,3" />
<polygon fill="#000000" fill-opacity="0.501961" points="165,-4 78,-16 70,18" />
<polygon fill="#4ea7db" fill-opacity="0.501961" points="-8,271 49,246 87,125" />
<polygon fill="#200d00" fill-opacity="0.501961" points="141,264 119,137 154,172" />
<polygon fill="#a1e4ff" fill-opacity="0.501961" points="132,188 118,175 129,226" />
<polygon fill="#ebe8e6" fill-opacity="0.501961" points="122,128 16,20 -12,148" />
<polygon fill="#493123" fill-opacity="0.501961" points="145,36 150,59 79,57" />
<polygon fill="#0d4159" fill-opacity="0.501961" points="140,271 60,168 57,271" />
<polygon fill="#1d5a75" fill-opacity="0.501961" points="191,271 271,169 178,80" />
<polygon fill="#ebeced" fill-opacity="0.501961" points="174,26 255,-16 271,166" />
<polygon fill="#eab59a" fill-opacity="0.501961" points="110,64 155,5 89,19" />
<polygon fill="#74a1ae" fill-opacity="0.501961" points="189,203 178,271 146,201" />
<polygon fill="#222320" fill-opacity="0.501961" points="105,163 209,201 200,170" />
<polygon fill="#3081a6" fill-opacity="0.501961" points="224,118 252,231 206,238" />
<polygon fill="#308abe" fill-opacity="0.501961" points="65,151 94,126 96,222" />
<polygon fill="#2a0400" fill-opacity="0.501961" points="182,130 177,85 190,86" />
<polygon fill="#bc896e" fill-opacity="0.501961" points="110,135 165,122 68,55" />
<polygon fill="#f3f2f0" fill-opacity="0.501961" points="-2,1 60,-13 82,116" />
<polygon fill="#dde0e0" fill-opacity="0.501961" points="-13,86 -14,244 52,215" />
<polygon fill="#071921" fill-opacity="0.501961" points="200,237 197,268 271,256" />
<polygon fill="#004b73" fill-opacity="0.501961" points="33,222 8,244 42,230" />
<polygon fill="#291e15" fill-opacity="0.501961" points="101,66 83,44 102,44" />
<polygon fill="#b4e9ff" fill-opacity="0.501961" points="112,133 114,165 105,145" />
<polygon fill="#f3eae4" fill-opacity="0.501961" points="77,22 78,46 98,35" />
<polygon fill="#7c4b3d" fill-opacity="0.501961" points="94,104 142,101 122,77" />
<polygon fill="#5aa1cb" fill-opacity="0.501961" points="206,106 266,121 248,151" />
<polygon fill="#ebf9ff" fill-opacity="0.501961" points="4,256 25,237 36,240" />
<polygon fill="#0c2f43" fill-opacity="0.501961" points="90,184 101,135 118,248" />
<polygon fill="#8ac2e7" fill-opacity="0.501961" points="38,188 56,182 74,208" />
<polygon fill="#635647" fill-opacity="0.501961" points="63,-3 99,16 63,25" />
<polygon fill="#a55e4d" fill-opacity="0.501961" points="190,56 177,89 174,21" />
<polygon fill="#f3f2f2" fill-opacity="0.501961" points="227,-9 182,-14 193,82" />
<polygon fill="#d8ad90" fill-opacity="0.501961" points="156,6 96,6 160,44" />
<polygon fill="#0c1212" fill-opacity="0.501961" points="254,190 249,271 271,215" />
<polygon fill="#151010" fill-opacity="0.501961" points="200,197 198,232 213,257" />
<polygon fill="#cdb6a2" fill-opacity="0.501961" points="174,154 144,163 104,114" />
<polygon fill="#12140e" fill-opacity="0.501961" points="116,136 143,163 133,201" />
<polygon fill="#d9d9d8" fill-opacity="0.501961" points="18,231 -12,156 119,56" />
<polygon fill="#6e6553" fill-opacity="0.501961" points="146,172 143,271 170,225" />
<polygon fill="#49372a" fill-opacity="0.501961" points="121,42 149,35 128,69" />
<polygon fill="#151c1d" fill-opacity="0.501961" points="100,270 81,263 86,197" />
<polygon fill="#276988" fill-opacity="0.501961" points="68,144 65,238 81,198" />
<polygon fill="#c09f83" fill-opacity="0.501961" points="146,156 177,48 176,173" />
<polygon fill="#93a9aa" fill-opacity="0.501961" points="167,186 162,206 149,181" />
<polygon fill="#9ea39a" fill-opacity="0.501961" points="176,271 173,235 148,205" />
<polygon fill="#094f6a" fill-opacity="0.501961" points="35,245 19,264 106,269" />
<polygon fill="#337491" fill-opacity="0.501961" points="164,187 199,90 216,123" />
<polygon fill="#181d21" fill-opacity="0.501961" points="107,189 118,271 101,231" />
<polygon fill="#414137" fill-opacity="0.501961" points="185,10 159,6 172,53" />
<polygon fill="#c6a08f" fill-opacity="0.501961" points="72,48 96,100 128,97" />
<polygon fill="#161007" fill-opacity="0.501961" points="130,212 135,271 152,271" />
<polygon fill="#0d181d" fill-opacity="0.501961" points="193,206 186,236 195,258" />
<polygon fill="#3284ae" fill-opacity="0.501961" points="172,240 188,184 190,271" />
<polygon fill="#268ab9" fill-opacity="0.501961" points="123,193 115,221 125,251" />
<polygon fill="#28261d" fill-opacity="0.501961" points="79,-16 139,-16 72,23" />
<polygon fill="#87bad8" fill-opacity="0.501961" points="50,223 49,244 20,251" />
<polygon fill="#eae9e8" fill-opacity="0.501961" points="202,102 203,-12 271,123" />
<polygon fill="#1f6485" fill-opacity="0.501961" points="83,248 41,192 87,216" />
<polygon fill="#2677a5" fill-opacity="0.501961" points="105,186 91,137 107,128" />
<polygon fill="#4d8dab" fill-opacity="0.501961" points="87,170 94,235 101,204" />
<polygon fill="#18120d" fill-opacity="0.501961" points="88,204 64,194 91,220" />
<polygon fill="#1e211e" fill-opacity="0.501961" points="115,166 116,132 162,185" />
<polygon fill="#6faeda" fill-opacity="0.501961" points="71,219 41,201 35,211" />
<polygon fill="#afdaf6" fill-opacity="0.501961" points="94,128 95,153 103,118" />
<polygon fill="#e1e4e5" fill-opacity="0.501961" points="33,31 102,118 47,162" />
<polygon fill="#d6c1b6" fill-opacity="0.501961" points="161,109 152,27 176,64" />
<polygon fill="#2a7698" fill-opacity="0.501961" points="219,252 202,188 250,152" />
<polygon fill="#1c5a73" fill-opacity="0.501961" points="265,138 231,156 230,244" />
<polygon fill="#779ead" fill-opacity="0.501961" points="113,147 122,178 109,157" />
<polygon fill="#eaeaea" fill-opacity="0.501961" points="-16,132 73,42 47,-16" />
<polygon fill="#eaebe8" fill-opacity="0.501961" points="81,83 78,47 85,66" />
<polygon fill="#153241" fill-opacity="0.501961" points="91,166 98,207 104,148" />
<polygon fill="#c48a70" fill-opacity="0.501961" points="157,50 142,102 117,68" />
<polygon fill="#000100" fill-opacity="0.501961" points="186,98 186,84 179,82" />
<polygon fill="#2c81a6" fill-opacity="0.501961" points="237,210 256,178 244,260" />
<polygon fill="#27617b" fill-opacity="0.501961" points="195,118 242,127 172,175" />
<polygon fill="#f2efee" fill-opacity="0.501961" points="177,81 200,83 208,51" />
<polygon fill="#6cb4dc" fill-opacity="0.501961" points="73,182 75,196 63,170" />
<polygon fill="#d5a292" fill-opacity="0.501961" points="102,21 125,68 114,83" />
<polygon fill="#b2d4e9" fill-opacity="0.501961" points="123,202 129,213 128,185" />
<polygon fill="#a9784b" fill-opacity="0.501961" points="181,114 172,132 178,153" />
<polygon fill="#b3cde8" fill-opacity="0.501961" points="70,155 79,167 73,139" />
<polygon fill="#185978" fill-opacity="0.501961" points="167,182 183,191 171,220" />
<polygon fill="#181e20" fill-opacity="0.501961" points="208,121 212,153 215,135" />
<polygon fill="#32769a" fill-opacity="0.501961" points="194,84 202,92 184,96" />
<polygon fill="#141c21" fill-opacity="0.501961" points="170,182 213,172 177,168" />
<polygon fill="#e7e8e8" fill-opacity="0.501961" points="271,-2 185,1 182,44" />
<polygon fill="#80b8df" fill-opacity="0.501961" points="78,139 89,172 88,137" />
<polygon fill="#d3ac98" fill-opacity="0.501961" points="153,46 156,39 132,46" />
<polygon fill="#a67a68" fill-opacity="0.501961" points="102,65 90,55 87,85" />
<polygon fill="#000000" fill-opacity="0.501961" points="119,180 113,165 108,170" />
</g>
</svg>