<svg xmlns="http://www.w3.org/2000/svg" version="1.1" width="1024" height="1024">
<rect x="0" y="0" width="1024" height="1024" fill="#65757f" />
<g transform="scale(4.000000) translate(0.5 0.5)">
<polygon fill="#eaeef0" fill-opacity="0.501961" points="-16,250 6,-16 113,181" />
<polygon fill="#172d3a" fill-opacity="0.501961" points="66,-16 271,2 195,172" />
<polygon fill="#000000" fill-opacity="0.501961" points="216,205 216,271 89,221" />
<polygon fill="#e6e8e9" fill-opacity="0.501961" points="53,-16 -16,5 75,106" />
<polygon fill="#000917" fill-opacity="0.501961" points="271,165 226,147 251,-16" />
<polygon fill="#afbdcb" fill-opacity="0.501961" points="196,151 80,185 271,181" />
<polygon fill="#405564" fill-opacity="0.501961" points="61,22 268,112 92,175" />
<polygon fill="#d3dade" fill-opacity="0.501961" points="108,261 77,244 84,147" />
<polygon fill="#c7d1d5" fill-opacity="0.501961" points="226,2 180,58 200,66" />
<polygon fill="#ccd6dc" fill-opacity="0.501961" points="75,131 100,72 109,133" />
<polygon fill="#000003" fill-opacity="0.501961" points="183,61 109,51 104,86" />
<polygon fill="#0b1e2a" fill-opacity="0.501961" points="271,208 242,271 100,256" />
<polygon fill="#859aa7" fill-opacity="0.501961" points="244,85 228,53 125,143" />
<polygon fill="#6e7e85" fill-opacity="0.501961" points="32,165 71,140 35,-4" />
<polygon fill="#edebed" fill-opacity="0.501961" points="38,118 -16,131 3,-16" />
<polygon fill="#e0e8ec" fill-opacity="0.501961" points="220,256 228,193 236,223" />
<polygon fill="#b9c7cc" fill-opacity="0.501961" points="248,111 217,158 221,102" />
<polygon fill="#071724" fill-opacity="0.501961" points="166,2 209,44 114,52" />
<polygon fill="#ffffff" fill-opacity="0.501961" points="204,22 178,17 188,5" />
<polygon fill="#d8e1e5" fill-opacity="0.501961" points="120,79 126,110 147,83" />
<polygon fill="#021a2a" fill-opacity="0.501961" points="129,234 105,259 101,179" />
<polygon fill="#ffffff" fill-opacity="0.501961" points="130,17 111,48 124,47" />
<polygon fill="#092233" fill-opacity="0.501961" points="141,156 204,103 218,151" />
<polygon fill="#ffffff" fill-opacity="0.501961" points="180,220 179,234 193,220" />
<polygon fill="#000002" fill-opacity="0.501961" points="271,92 238,-13 231,59" />
<polygon fill="#ffffff" fill-opacity="0.501961" points="86,8 79,30 98,29" />
<polygon fill="#00030e" fill-opacity="0.501961" points="143,135 148,84 127,118" />
<polygon fill="#062131" fill-opacity="0.501961" points="23,160 23,118 35,161" />
<polygon fill="#84939c" fill-opacity="0.501961" points="-14,254 69,185 118,271" />
<polygon fill="#112735" fill-opacity="0.501961" points="74,59 90,110 101,18" />
<polygon fill="#011726" fill-opacity="0.501961" points="149,92 235,83 183,66" />
<polygon fill="#98aab8" fill-opacity="0.501961" points="180,91 146,97 176,131" />
<polygon fill="#aeb9c5" fill-opacity="0.501961" points="121,160 115,214 170,163" />
<polygon fill="#0c2536" fill-opacity="0.501961" points="84,125 89,160 129,150" />
<polygon fill="#001625" fill-opacity="0.501961" points="265,150 233,160 226,115" />
<polygon fill="#072032" fill-opacity="0.501961" points="181,266 147,250 175,161" />
<polygon fill="#ffffff" fill-opacity="0.501961" points="117,140 105,120 97,130" />
<polygon fill="#08263a" fill-opacity="0.501961" points="229,172 271,199 235,201" />
<polygon fill="#cfd3d8" fill-opacity="0.501961" points="-14,271 3,140 18,248" />
<polygon fill="#0a2231" fill-opacity="0.501961" points="109,68 103,118 119,136" />
<polygon fill="#ebeceb" fill-opacity="0.501961" points="235,74 218,78 227,52" />
<polygon fill="#c8cfd2" fill-opacity="0.501961" points="36,111 60,120 75,61" />
<polygon fill="#b5bec0" fill-opacity="0.501961" points="167,50 159,61 150,33" />
<polygon fill="#ffffff" fill-opacity="0.501961" points="98,55 103,46 112,56" />
<polygon fill="#00121e" fill-opacity="0.501961" points="121,70 137,88 167,38" />
<polygon fill="#001527" fill-opacity="0.501961" points="25,220 30,250 34,217" />
<polygon fill="#072031" fill-opacity="0.501961" points="55,-3 69,34 77,8" />
<polygon fill="#feffff" fill-opacity="0.501961" points="150,5 164,-16 157,12" />
<polygon fill="#c9d4d9" fill-opacity="0.501961" points="230,151 229,203 214,158" />
<polygon fill="#00121d" fill-opacity="0.501961" points="49,210 48,247 42,230" />
<polygon fill="#122a39" fill-opacity="0.501961" points="237,-16 202,60 271,39" />
<polygon fill="#ffffff" fill-opacity="0.501961" points="196,48 216,45 216,38" />
<polygon fill="#f0f2f4" fill-opacity="0.501961" points="56,220 38,271 53,259" />
<polygon fill="#5f717b" fill-opacity="0.501961" points="48,186 33,131 52,98" />
<polygon fill="#f7fcfe" fill-opacity="0.501961" points="230,126 249,116 244,106" />
<polygon fill="#274152" fill-opacity="0.501961" points="223,84 244,73 232,130" />
<polygon fill="#415f76" fill-opacity="0.501961" points="164,220 110,188 260,199" />
<polygon fill="#ffffff" fill-opacity="0.501961" points="173,160 177,149 187,164" />
<polygon fill="#000510" fill-opacity="0.501961" points="248,225 232,226 248,271" />
<polygon fill="#1c3443" fill-opacity="0.501961" points="198,86 195,44 171,113" />
<polygon fill="#d1d8d7" fill-opacity="0.501961" points="134,36 144,50 139,57" />
<polygon fill="#ffffff" fill-opacity="0.501961" points="213,208 226,224 233,219" />
<polygon fill="#fbffff" fill-opacity="0.501961" points="136,255 148,259 144,246" />
<polygon fill="#8fa0ac" fill-opacity="0.501961" points="180,123 180,91 118,145" />
<polygon fill="#e2e4e6" fill-opacity="0.501961" points="82,118 78,157 61,77" />
<polygon fill="#d9dbdf" fill-opacity="0.501961" points="27,79 34,-16 -13,29" />
<polygon fill="#f1f8f9" fill-opacity="0.501961" points="223,13 228,-11 208,27" />
<polygon fill="#ffffff" fill-opacity="0.501961" points="203,87 215,105 201,97" />
<polygon fill="#00000a" fill-opacity="0.501961" points="64,224 63,240 56,214" />
<polygon fill="#00020f" fill-opacity="0.501961" points="47,9 51,28 45,29" />
<polygon fill="#ffffff" fill-opacity="0.501961" points="121,12 126,6 128,16" />
<polygon fill="#ffffff" fill-opacity="0.501961" points="145,15 147,7 139,10" />
<polygon fill="#e8edf0" fill-opacity="0.501961" points="227,250 217,246 228,233" />
<polygon fill="#051624" fill-opacity="0.501961" points="184,79 149,8 178,14" />
<polygon fill="#cdd5d7" fill-opacity="0.501961" points="37,137 51,161 38,108" />
<polygon fill="#223949" fill-opacity="0.501961" points="215,160 213,120 125,142" />
<polygon fill="#485f71" fill-opacity="0.501961" points="117,240 113,174 93,174" />
<polygon fill="#e0e3e5" fill-opacity="0.501961" points="67,70 54,4 49,72" />
<polygon fill="#071f2c" fill-opacity="0.501961" points="80,248 74,212 71,232" />
<polygon fill="#11232b" fill-opacity="0.501961" points="34,61 34,89 41,68" />
<polygon fill="#ffffff" fill-opacity="0.501961" points="113,202 126,193 123,207" />
<polygon fill="#ffffff" fill-opacity="0.501961" points="141,147 140,154 131,156" />
<polygon fill="#f1f5f4" fill-opacity="0.501961" points="182,50 194,53 184,65" />
<polygon fill="#00060f" fill-opacity="0.501961" points="138,248 205,234 142,228" />
<polygon fill="#ffffff" fill-opacity="0.501961" points="202,226 198,231 195,227" />
<polygon fill="#ffffff" fill-opacity="0.501961" points="187,193 179,195 188,199" />
<polygon fill="#000817" fill-opacity="0.501961" points="220,219 178,209 220,241" />
<polygon fill="#ffffff" fill-opacity="0.501961" points="74,53 71,41 78,40" />
<polygon fill="#0b1e2b" fill-opacity="0.501961" points="179,13 132,53 172,-16" />
<polygon fill="#9aabb8" fill-opacity="0.501961" points="138,102 107,111 117,84" />
<polygon fill="#384a54" fill-opacity="0.501961" points="51,73 42,91 46,47" />
<polygon fill="#dfe4e5" fill-opacity="0.501961" points="33,136 49,193 33,169" />
<polygon fill="#132b39" fill-opacity="0.501961" points="47,143 49,116 41,117" />
<polygon fill="#142d3a" fill-opacity="0.501961" points="78,104 98,98 69,74" />
<polygon fill="#eef5f7" fill-opacity="0.501961" points="233,212 249,214 249,207" />
<polygon fill="#3e5360" fill-opacity="0.501961" points="19,127 11,151 17,162" />
<polygon fill="#e4eaea" fill-opacity="0.501961" points="215,130 222,150 228,125" />
<polygon fill="#193346" fill-opacity="0.501961" points="235,66 207,65 211,72" />
<polygon fill="#0d2330" fill-opacity="0.501961" points="182,18 207,28 193,54" />
<polygon fill="#e7eef0" fill-opacity="0.501961" points="196,46 205,46 200,73" />
</g>
</svg>