<svg xmlns="http://www.w3.org/2000/svg" version="1.1" width="1024" height="1024">
<rect x="0" y="0" width="1024" height="1024" fill="#74716c" />
<g transform="scale(4.000000) translate(0.5 0.5)">
<polygon fill="#000000" fill-opacity="0.501961" points="164,121 18,101 40,271" />
<polygon fill="#fff0cc" fill-opacity="0.501961" points="56,48 269,175 271,11" />
<polygon fill="#000002" fill-opacity="0.501961" points="61,-16 87,223 11,271" />
<polygon fill="#fefeff" fill-opacity="0.501961" points="137,141 184,146 168,195" />
<polygon fill="#000000" fill-opacity="0.501961" points="179,194 236,242 255,202" />
<polygon fill="#ffe0c2" fill-opacity="0.501961" points="103,129 68,81 91,11" />
<polygon fill="#e0cebc" fill-opacity="0.501961" points="77,36 161,-16 142,124" />
<polygon fill="#10141a" fill-opacity="0.501961" points="201,151 132,132 195,103" />
<polygon fill="#040000" fill-opacity="0.501961" points="119,-10 52,60 55,5" />
<polygon fill="#b3ac87" fill-opacity="0.501961" points="63,-13 -16,47 0,181" />
<polygon fill="#000000" fill-opacity="0.501961" points="20,118 49,270 123,164" />
<polygon fill="#7696c0" fill-opacity="0.501961" points="98,199 142,146 222,245" />
<polygon fill="#000000" fill-opacity="0.501961" points="115,130 118,88 87,73" />
<polygon fill="#272728" fill-opacity="0.501961" points="223,130 246,229 198,154" />
<polygon fill="#000000" fill-opacity="0.501961" points="124,9 94,-5 126,30" />
<polygon fill="#636a82" fill-opacity="0.501961" points="48,99 124,150 51,136" />
<polygon fill="#1e1719" fill-opacity="0.501961" points="194,172 208,231 163,154" />
<polygon fill="#fffffa" fill-opacity="0.501961" points="180,144 142,142 206,171" />
<polygon fill="#a49a76" fill-opacity="0.501961" points="173,-16 199,79 271,21" />
<polygon fill="#53739a" fill-opacity="0.501961" points="271,255 59,260 109,187" />
<polygon fill="#cbc3aa" fill-opacity="0.501961" points="271,233 238,49 225,156" />
<polygon fill="#010811" fill-opacity="0.501961" points="181,147 130,123 158,105" />
<polygon fill="#ccc6a2" fill-opacity="0.501961" points="53,84 28,88 48,50" />
<polygon fill="#d3c6b6" fill-opacity="0.501961" points="90,17 225,83 131,115" />
<polygon fill="#bbc7dc" fill-opacity="0.501961" points="271,239 232,271 218,238" />
<polygon fill="#ffffff" fill-opacity="0.501961" points="185,19 168,-16 196,-16" />
<polygon fill="#0d1315" fill-opacity="0.501961" points="4,230 74,252 -16,271" />
<polygon fill="#020916" fill-opacity="0.501961" points="30,89 21,174 61,83" />
<polygon fill="#deb8a5" fill-opacity="0.501961" points="107,48 93,118 63,44" />
<polygon fill="#e0d3c0" fill-opacity="0.501961" points="243,117 202,76 199,149" />
<polygon fill="#00000a" fill-opacity="0.501961" points="216,233 242,180 243,240" />
<polygon fill="#dadde5" fill-opacity="0.501961" points="138,151 157,139 193,217" />
<polygon fill="#5f6258" fill-opacity="0.501961" points="44,227 13,252 23,155" />
<polygon fill="#fbefd3" fill-opacity="0.501961" points="219,165 221,149 209,173" />
<polygon fill="#fff1d9" fill-opacity="0.501961" points="123,32 114,16 78,23" />
<polygon fill="#91886e" fill-opacity="0.501961" points="233,-16 157,38 271,41" />
<polygon fill="#fffae9" fill-opacity="0.501961" points="88,112 106,122 95,94" />
<polygon fill="#000000" fill-opacity="0.501961" points="111,79 124,106 95,98" />
<polygon fill="#ebd9c7" fill-opacity="0.501961" points="188,104 147,68 170,120" />
<polygon fill="#424556" fill-opacity="0.501961" points="84,153 117,97 143,144" />
<polygon fill="#bfbd9e" fill-opacity="0.501961" points="248,196 246,246 271,241" />
<polygon fill="#cfd1c1" fill-opacity="0.501961" points="188,114 176,123 176,138" />
<polygon fill="#221810" fill-opacity="0.501961" points="76,48 89,-2 44,22" />
<polygon fill="#9b7768" fill-opacity="0.501961" points="133,40 64,17 96,41" />
<polygon fill="#a4b7cf" fill-opacity="0.501961" points="149,225 176,254 143,242" />
<polygon fill="#1e2438" fill-opacity="0.501961" points="37,93 109,137 64,77" />
<polygon fill="#333426" fill-opacity="0.501961" points="183,15 143,0 164,-16" />
<polygon fill="#ffffee" fill-opacity="0.501961" points="197,154 187,156 208,182" />
<polygon fill="#201109" fill-opacity="0.501961" points="88,14 119,3 129,18" />
<polygon fill="#d8d2bd" fill-opacity="0.501961" points="112,-9 148,-15 135,27" />
<polygon fill="#524f4e" fill-opacity="0.501961" points="192,83 177,141 203,164" />
<polygon fill="#73533f" fill-opacity="0.501961" points="100,82 84,79 71,54" />
<polygon fill="#3e4d5c" fill-opacity="0.501961" points="225,271 168,248 176,214" />
<polygon fill="#242122" fill-opacity="0.501961" points="205,185 216,235 194,214" />
<polygon fill="#fffbe6" fill-opacity="0.501961" points="160,161 145,148 160,133" />
<polygon fill="#998f85" fill-opacity="0.501961" points="213,193 210,237 227,188" />
<polygon fill="#e4e1cb" fill-opacity="0.501961" points="130,118 158,103 122,90" />
<polygon fill="#ffefe2" fill-opacity="0.501961" points="69,56 61,49 67,42" />
<polygon fill="#c4c9bb" fill-opacity="0.501961" points="188,180 186,171 175,194" />
<polygon fill="#a9a79f" fill-opacity="0.501961" points="-13,141 21,72 21,127" />
<polygon fill="#000005" fill-opacity="0.501961" points="22,143 57,262 104,171" />
<polygon fill="#1a1f2c" fill-opacity="0.501961" points="39,88 20,110 76,160" />
<polygon fill="#000000" fill-opacity="0.501961" points="174,115 193,106 196,112" />
<polygon fill="#f0ebed" fill-opacity="0.501961" points="217,243 202,226 219,237" />
<polygon fill="#1c242b" fill-opacity="0.501961" points="225,157 210,135 226,138" />
<polygon fill="#8895af" fill-opacity="0.501961" points="129,160 187,212 151,153" />
<polygon fill="#1d212a" fill-opacity="0.501961" points="161,108 127,130 174,129" />
<polygon fill="#f7e4cb" fill-opacity="0.501961" points="203,142 215,147 196,111" />
<polygon fill="#8a8466" fill-opacity="0.501961" points="46,-16 -16,29 53,81" />
<polygon fill="#696d55" fill-opacity="0.501961" points="266,225 271,164 234,185" />
<polygon fill="#7b7c85" fill-opacity="0.501961" points="75,130 104,139 55,104" />
<polygon fill="#c0beb0" fill-opacity="0.501961" points="57,79 42,89 42,73" />
<polygon fill="#ebd3c0" fill-opacity="0.501961" points="97,87 100,120 67,79" />
<polygon fill="#000000" fill-opacity="0.501961" points="183,176 174,173 178,186" />
<polygon fill="#8a9fbc" fill-opacity="0.501961" points="69,239 80,225 68,260" />
<polygon fill="#6b4f3d" fill-opacity="0.501961" points="173,150 163,157 173,170" />
<polygon fill="#080600" fill-opacity="0.501961" points="48,33 59,69 66,1" />
<polygon fill="#8e8872" fill-opacity="0.501961" points="177,28 152,37 133,-16" />
<polygon fill="#040000" fill-opacity="0.501961" points="121,42 114,41 120,35" />
<polygon fill="#001a38" fill-opacity="0.501961" points="148,246 139,271 193,271" />
<polygon fill="#000000" fill-opacity="0.501961" points="181,115 162,128 171,136" />
<polygon fill="#0e1221" fill-opacity="0.501961" points="145,141 124,141 107,184" />
<polygon fill="#f5d8c9" fill-opacity="0.501961" points="117,21 92,63 105,80" />
<polygon fill="#161b24" fill-opacity="0.501961" points="236,174 219,211 248,216" />
<polygon fill="#372a20" fill-opacity="0.501961" points="65,70 40,63 76,58" />
<polygon fill="#111217" fill-opacity="0.501961" points="110,124 109,136 71,116" />
<polygon fill="#261d17" fill-opacity="0.501961" points="127,14 123,32 111,-6" />
<polygon fill="#d2cec1" fill-opacity="0.501961" points="115,86 142,116 181,80" />
<polygon fill="#fffefa" fill-opacity="0.501961" points="183,-13 164,-14 193,20" />
<polygon fill="#fff0dd" fill-opacity="0.501961" points="203,162 140,149 171,143" />
<polygon fill="#160900" fill-opacity="0.501961" points="206,173 199,158 202,143" />
<polygon fill="#97998d" fill-opacity="0.501961" points="164,113 159,133 169,115" />
<polygon fill="#525242" fill-opacity="0.501961" points="245,-16 271,21 247,21" />
<polygon fill="#ae8773" fill-opacity="0.501961" points="80,46 65,42 87,75" />
<polygon fill="#000000" fill-opacity="0.501961" points="245,204 244,232 226,221" />
<polygon fill="#3e3a3e" fill-opacity="0.501961" points="202,224 193,166 181,191" />
<polygon fill="#888872" fill-opacity="0.501961" points="-16,178 15,127 30,223" />
<polygon fill="#bdb7a5" fill-opacity="0.501961" points="130,9 112,84 190,66" />
<polygon fill="#000000" fill-opacity="0.501961" points="105,78 97,95 122,100" />
<polygon fill="#aa987f" fill-opacity="0.501961" points="183,13 209,13 197,94" />
</g>
</svg>