<svg xmlns="http://www.w3.org/2000/svg" version="1.1" width="1024" height="1024">
<rect x="0" y="0" width="1024" height="1024" fill="#324351" />
<g transform="scale(4.000000) translate(0.5 0.5)">
<polygon fill="#d4d1c3" fill-opacity="0.501961" points="271,55 -3,10 251,-16" />
<polygon fill="#000017" fill-opacity="0.501961" points="271,105 -16,99 269,264" />
<polygon fill="#85afd3" fill-opacity="0.501961" points="106,158 133,253 159,162" />
<polygon fill="#646367" fill-opacity="0.501961" points="17,-16 -16,56 271,51" />
<polygon fill="#000008" fill-opacity="0.501961" points="25,82 77,171 -16,162" />
<polygon fill="#00050c" fill-opacity="0.501961" points="271,199 187,116 126,271" />
<polygon fill="#02617f" fill-opacity="0.501961" points="-8,174 61,271 159,173" />
<polygon fill="#cad2c8" fill-opacity="0.501961" points="271,-1 97,-16 234,36" />
<polygon fill="#ffffff" fill-opacity="0.501961" points="139,234 114,223 137,214" />
<polygon fill="#b0979d" fill-opacity="0.501961" points="19,247 -16,188 34,218" />
<polygon fill="#ffffff" fill-opacity="0.501961" points="84,271 83,244 42,263" />
<polygon fill="#404f67" fill-opacity="0.501961" points="98,0 160,139 271,62" />
<polygon fill="#ffffff" fill-opacity="0.501961" points="115,228 104,247 104,230" />
<polygon fill="#908d7a" fill-opacity="0.501961" points="-16,12 9,55 104,-7" />
<polygon fill="#000000" fill-opacity="0.501961" points="129,227 129,271 57,271" />
<polygon fill="#80a243" fill-opacity="0.501961" points="187,236 230,271 232,235" />
<polygon fill="#1c2640" fill-opacity="0.501961" points="37,19 55,130 180,136" />
<polygon fill="#98886e" fill-opacity="0.501961" points="50,69 -4,104 36,57" />
<polygon fill="#97a8d3" fill-opacity="0.501961" points="73,168 100,172 124,162" />
<polygon fill="#000000" fill-opacity="0.501961" points="99,232 86,271 83,222" />
<polygon fill="#0078c5" fill-opacity="0.501961" points="146,70 133,106 159,87" />
<polygon fill="#ffffff" fill-opacity="0.501961" points="134,248 137,220 127,218" />
<polygon fill="#437a91" fill-opacity="0.501961" points="73,201 159,189 100,236" />
<polygon fill="#040d22" fill-opacity="0.501961" points="33,178 -13,102 117,149" />
<polygon fill="#001322" fill-opacity="0.501961" points="262,127 129,135 256,271" />
<polygon fill="#010006" fill-opacity="0.501961" points="35,251 13,222 41,239" />
<polygon fill="#004c66" fill-opacity="0.501961" points="-16,186 126,167 64,237" />
<polygon fill="#9d987f" fill-opacity="0.501961" points="38,-16 82,41 116,-5" />
<polygon fill="#a88e91" fill-opacity="0.501961" points="9,211 47,242 31,213" />
<polygon fill="#a2afbe" fill-opacity="0.501961" points="50,266 13,254 46,248" />
<polygon fill="#00161c" fill-opacity="0.501961" points="164,263 137,216 214,219" />
<polygon fill="#abbcef" fill-opacity="0.501961" points="138,161 134,172 157,166" />
<polygon fill="#ccbcd0" fill-opacity="0.501961" points="80,259 83,221 69,260" />
<polygon fill="#8689aa" fill-opacity="0.501961" points="27,169 -3,174 27,159" />
<polygon fill="#b39c74" fill-opacity="0.501961" points="214,75 230,84 191,81" />
<polygon fill="#1e304a" fill-opacity="0.501961" points="122,146 129,94 267,97" />
<polygon fill="#001737" fill-opacity="0.501961" points="2,22 31,17 -3,33" />
<polygon fill="#101b2a" fill-opacity="0.501961" points="32,72 -6,90 -16,40" />
<polygon fill="#00000a" fill-opacity="0.501961" points="-16,173 46,134 38,162" />
<polygon fill="#757f4b" fill-opacity="0.501961" points="239,236 194,236 164,271" />
<polygon fill="#444857" fill-opacity="0.501961" points="8,140 30,119 19,159" />
<polygon fill="#272b44" fill-opacity="0.501961" points="149,66 50,175 105,37" />
<polygon fill="#2c4666" fill-opacity="0.501961" points="164,184 116,161 80,199" />
<polygon fill="#c0b37c" fill-opacity="0.501961" points="22,56 33,73 50,73" />
<polygon fill="#826b71" fill-opacity="0.501961" points="96,56 86,83 82,48" />
<polygon fill="#e9e8e8" fill-opacity="0.501961" points="140,205 123,226 146,211" />
<polygon fill="#202e41" fill-opacity="0.501961" points="78,34 25,65 49,20" />
<polygon fill="#103555" fill-opacity="0.501961" points="271,193 226,251 271,128" />
<polygon fill="#ffffff" fill-opacity="0.501961" points="103,233 112,232 106,244" />
<polygon fill="#000002" fill-opacity="0.501961" points="108,271 112,233 125,227" />
<polygon fill="#faedec" fill-opacity="0.501961" points="-8,220 7,199 -8,200" />
<polygon fill="#06162f" fill-opacity="0.501961" points="85,97 -16,152 25,82" />
<polygon fill="#606678" fill-opacity="0.501961" points="256,66 253,33 162,42" />
<polygon fill="#003d52" fill-opacity="0.501961" points="-12,181 27,169 68,246" />
<polygon fill="#494d5e" fill-opacity="0.501961" points="98,41 135,-1 178,84" />
<polygon fill="#005168" fill-opacity="0.501961" points="41,247 84,248 47,178" />
<polygon fill="#bfb5b5" fill-opacity="0.501961" points="18,19 -16,3 -16,20" />
<polygon fill="#5f7098" fill-opacity="0.501961" points="108,156 87,160 76,177" />
<polygon fill="#393055" fill-opacity="0.501961" points="117,157 163,153 155,164" />
<polygon fill="#a2a084" fill-opacity="0.501961" points="30,31 22,44 -5,29" />
<polygon fill="#77736f" fill-opacity="0.501961" points="14,81 10,103 -16,109" />
<polygon fill="#000d22" fill-opacity="0.501961" points="132,130 69,170 97,114" />
<polygon fill="#536ba2" fill-opacity="0.501961" points="72,115 73,124 94,131" />
<polygon fill="#45442d" fill-opacity="0.501961" points="182,263 200,239 229,247" />
<polygon fill="#968d98" fill-opacity="0.501961" points="25,237 1,222 29,256" />
<polygon fill="#a1aba3" fill-opacity="0.501961" points="164,13 270,23 218,38" />
<polygon fill="#499bb4" fill-opacity="0.501961" points="100,218 112,233 126,212" />
<polygon fill="#03384e" fill-opacity="0.501961" points="109,206 137,203 86,224" />
<polygon fill="#282f41" fill-opacity="0.501961" points="174,61 136,117 211,68" />
<polygon fill="#081d27" fill-opacity="0.501961" points="138,225 247,236 162,177" />
<polygon fill="#ffffff" fill-opacity="0.501961" points="82,249 55,257 77,271" />
<polygon fill="#717c8d" fill-opacity="0.501961" points="226,26 148,22 214,44" />
<polygon fill="#d8c6d4" fill-opacity="0.501961" points="137,244 131,241 129,254" />
<polygon fill="#ece9eb" fill-opacity="0.501961" points="143,228 133,236 129,221" />
<polygon fill="#725266" fill-opacity="0.501961" points="103,234 79,221 93,211" />
<polygon fill="#29738e" fill-opacity="0.501961" points="63,221 96,184 134,192" />
<polygon fill="#292b38" fill-opacity="0.501961" points="26,220 41,242 19,231" />
<polygon fill="#161d2e" fill-opacity="0.501961" points="230,93 271,62 271,117" />
<polygon fill="#616978" fill-opacity="0.501961" points="230,90 254,70 187,88" />
<polygon fill="#0a2953" fill-opacity="0.501961" points="85,-16 38,5 -16,-2" />
<polygon fill="#00000c" fill-opacity="0.501961" points="112,269 89,271 82,227" />
<polygon fill="#6c8293" fill-opacity="0.501961" points="154,197 130,184 132,216" />
<polygon fill="#99a7c2" fill-opacity="0.501961" points="21,169 22,162 6,174" />
<polygon fill="#00364e" fill-opacity="0.501961" points="13,209 44,216 -12,165" />
<polygon fill="#192432" fill-opacity="0.501961" points="134,238 175,199 151,268" />
<polygon fill="#090f20" fill-opacity="0.501961" points="271,145 160,122 154,201" />
<polygon fill="#62708c" fill-opacity="0.501961" points="51,170 72,170 61,179" />
<polygon fill="#696a74" fill-opacity="0.501961" points="5,3 47,40 35,4" />
<polygon fill="#80a96b" fill-opacity="0.501961" points="216,243 230,238 194,233" />
<polygon fill="#2a2534" fill-opacity="0.501961" points="9,209 19,227 8,220" />
<polygon fill="#0078ae" fill-opacity="0.501961" points="158,76 139,76 147,101" />
<polygon fill="#056277" fill-opacity="0.501961" points="106,218 57,179 3,176" />
<polygon fill="#b6bcbb" fill-opacity="0.501961" points="271,-5 192,27 180,-1" />
<polygon fill="#80b06a" fill-opacity="0.501961" points="224,271 211,246 271,266" />
<polygon fill="#737d9b" fill-opacity="0.501961" points="7,242 -4,256 14,244" />
<polygon fill="#373949" fill-opacity="0.501961" points="67,141 85,154 41,151" />
<polygon fill="#40516a" fill-opacity="0.501961" points="184,108 203,80 142,122" />
<polygon fill="#000a1c" fill-opacity="0.501961" points="14,172 36,176 61,159" />
<polygon fill="#00071b" fill-opacity="0.501961" points="17,108 -10,112 0,167" />
<polygon fill="#f4f1f4" fill-opacity="0.501961" points="126,220 137,231 118,223" />
</g>
</svg>