<svg xmlns="http://www.w3.org/2000/svg" version="1.1" width="1024" height="1024">
<rect x="0" y="0" width="1024" height="1024" fill="#9fa5b0" />
<g transform="scale(4.000000) translate(0.5 0.5)">
<polygon fill="#000415" fill-opacity="0.501961" points="-16,218 91,149 75,-16" />
<polygon fill="#eff6ff" fill-opacity="0.501961" points="128,-16 47,262 175,271" />
<polygon fill="#242c3f" fill-opacity="0.501961" points="61,271 -16,268 18,76" />
<polygon fill="#ccdae5" fill-opacity="0.501961" points="172,147 262,-16 57,-8" />
<polygon fill="#f6faff" fill-opacity="0.501961" points="47,171 60,271 133,182" />
<polygon fill="#d6c7c7" fill-opacity="0.501961" points="53,85 14,-16 -16,98" />
<polygon fill="#737279" fill-opacity="0.501961" points="254,252 182,170 271,146" />
<polygon fill="#3c4655" fill-opacity="0.501961" points="87,158 91,58 8,106" />
<polygon fill="#b4bac6" fill-opacity="0.501961" points="260,31 79,29 147,269" />
<polygon fill="#482f26" fill-opacity="0.501961" points="28,-4 47,17 19,24" />
<polygon fill="#0a1727" fill-opacity="0.501961" points="85,33 42,13 80,13" />
<polygon fill="#1f242c" fill-opacity="0.501961" points="15,93 4,164 58,115" />
<polygon fill="#5d6679" fill-opacity="0.501961" points="-7,200 80,164 91,81" />
<polygon fill="#c9d8e3" fill-opacity="0.501961" points="249,-12 91,80 78,-16" />
<polygon fill="#effaff" fill-opacity="0.501961" points="85,10 67,-16 39,11" />
<polygon fill="#f6fcff" fill-opacity="0.501961" points="49,17 37,40 -16,44" />
<polygon fill="#dee3f1" fill-opacity="0.501961" points="138,271 47,243 96,129" />
<polygon fill="#2c3545" fill-opacity="0.501961" points="84,41 42,57 91,92" />
<polygon fill="#aeafb4" fill-opacity="0.501961" points="-13,23 52,73 32,101" />
<polygon fill="#9099a9" fill-opacity="0.501961" points="76,128 54,85 90,122" />
<polygon fill="#aaaeb9" fill-opacity="0.501961" points="124,77 168,271 207,60" />
<polygon fill="#616a80" fill-opacity="0.501961" points="42,157 56,240 15,227" />
<polygon fill="#230000" fill-opacity="0.501961" points="7,14 -14,-1 -8,29" />
<polygon fill="#82838c" fill-opacity="0.501961" points="175,211 271,178 180,140" />
<polygon fill="#edf4ff" fill-opacity="0.501961" points="55,228 48,172 73,181" />
<polygon fill="#333a46" fill-opacity="0.501961" points="53,78 70,142 -2,146" />
<polygon fill="#b0b3c1" fill-opacity="0.501961" points="207,197 150,271 245,199" />
<polygon fill="#a6aaae" fill-opacity="0.501961" points="-16,142 0,196 13,90" />
<polygon fill="#cbd5e2" fill-opacity="0.501961" points="86,169 96,46 132,145" />
<polygon fill="#e5f4fe" fill-opacity="0.501961" points="12,40 21,53 36,11" />
<polygon fill="#79635c" fill-opacity="0.501961" points="34,-16 13,35 46,5" />
<polygon fill="#aaafbb" fill-opacity="0.501961" points="73,35 54,26 7,58" />
<polygon fill="#c9cfda" fill-opacity="0.501961" points="220,74 263,110 251,123" />
<polygon fill="#fcc3bc" fill-opacity="0.501961" points="26,-4 16,24 -4,-6" />
<polygon fill="#97a0b3" fill-opacity="0.501961" points="39,163 45,175 31,195" />
<polygon fill="#becbd6" fill-opacity="0.501961" points="160,-16 77,35 138,109" />
<polygon fill="#7f8388" fill-opacity="0.501961" points="205,128 271,131 263,151" />
<polygon fill="#b5aca8" fill-opacity="0.501961" points="41,94 50,69 -16,78" />
<polygon fill="#51596c" fill-opacity="0.501961" points="82,83 85,156 60,174" />
<polygon fill="#232d3b" fill-opacity="0.501961" points="62,32 77,12 54,12" />
<polygon fill="#d7dce8" fill-opacity="0.501961" points="112,258 135,159 44,176" />
<polygon fill="#4a5161" fill-opacity="0.501961" points="-16,205 43,237 21,161" />
<polygon fill="#85818b" fill-opacity="0.501961" points="254,231 180,262 243,271" />
<polygon fill="#313743" fill-opacity="0.501961" points="12,147 58,154 14,88" />
<polygon fill="#8e939b" fill-opacity="0.501961" points="186,68 205,101 162,64" />
<polygon fill="#727278" fill-opacity="0.501961" points="271,163 183,201 196,174" />
<polygon fill="#b6bbc7" fill-opacity="0.501961" points="139,147 207,172 195,151" />
<polygon fill="#c3d0db" fill-opacity="0.501961" points="58,26 7,75 43,59" />
<polygon fill="#29303d" fill-opacity="0.501961" points="80,107 50,74 56,57" />
<polygon fill="#757485" fill-opacity="0.501961" points="38,40 28,40 18,64" />
<polygon fill="#b9bcc8" fill-opacity="0.501961" points="188,259 109,190 189,221" />
<polygon fill="#c0ced9" fill-opacity="0.501961" points="198,75 175,30 236,-8" />
<polygon fill="#e3e6f1" fill-opacity="0.501961" points="27,271 154,239 95,226" />
<polygon fill="#82889c" fill-opacity="0.501961" points="38,214 54,243 48,207" />
<polygon fill="#a9b0ba" fill-opacity="0.501961" points="181,117 255,-16 263,56" />
<polygon fill="#cdd6e2" fill-opacity="0.501961" points="106,2 46,14 45,-5" />
<polygon fill="#ecf4ff" fill-opacity="0.501961" points="75,113 67,106 70,113" />
<polygon fill="#758290" fill-opacity="0.501961" points="16,68 45,64 31,72" />
<polygon fill="#646473" fill-opacity="0.501961" points="51,17 58,28 48,22" />
<polygon fill="#303641" fill-opacity="0.501961" points="42,92 20,202 14,113" />
<polygon fill="#dbe6f4" fill-opacity="0.501961" points="17,60 24,76 5,66" />
<polygon fill="#9a9fa7" fill-opacity="0.501961" points="216,41 259,115 242,42" />
<polygon fill="#5c6471" fill-opacity="0.501961" points="-3,140 12,135 11,148" />
<polygon fill="#c8ceda" fill-opacity="0.501961" points="88,149 168,178 119,204" />
<polygon fill="#676e7e" fill-opacity="0.501961" points="66,86 60,100 48,79" />
<polygon fill="#927571" fill-opacity="0.501961" points="20,85 44,76 29,89" />
<polygon fill="#909ba1" fill-opacity="0.501961" points="-10,134 -12,68 14,68" />
<polygon fill="#9698a2" fill-opacity="0.501961" points="154,210 240,225 176,195" />
<polygon fill="#cbd2de" fill-opacity="0.501961" points="149,131 75,169 107,114" />
<polygon fill="#dce7f4" fill-opacity="0.501961" points="29,24 15,53 53,16" />
<polygon fill="#82879e" fill-opacity="0.501961" points="2,271 -16,271 16,217" />
<polygon fill="#979ca5" fill-opacity="0.501961" points="160,164 254,155 179,186" />
<polygon fill="#443f4f" fill-opacity="0.501961" points="51,32 43,29 47,26" />
<polygon fill="#d67375" fill-opacity="0.501961" points="7,15 -3,25 9,28" />
<polygon fill="#837d8b" fill-opacity="0.501961" points="2,39 15,46 21,62" />
<polygon fill="#d8d4d4" fill-opacity="0.501961" points="42,65 39,91 50,74" />
<polygon fill="#b0bac5" fill-opacity="0.501961" points="131,51 216,47 121,25" />
<polygon fill="#4e576b" fill-opacity="0.501961" points="47,173 45,208 31,202" />
<polygon fill="#262f3f" fill-opacity="0.501961" points="74,11 81,23 55,35" />
<polygon fill="#f9f5fb" fill-opacity="0.501961" points="-8,40 -8,24 11,34" />
<polygon fill="#b5bac5" fill-opacity="0.501961" points="220,99 85,161 157,160" />
<polygon fill="#333946" fill-opacity="0.501961" points="53,44 44,66 88,75" />
<polygon fill="#dee5f1" fill-opacity="0.501961" points="47,185 123,193 80,164" />
<polygon fill="#464c61" fill-opacity="0.501961" points="7,247 28,239 56,258" />
<polygon fill="#74747a" fill-opacity="0.501961" points="254,138 243,200 271,190" />
<polygon fill="#5a687a" fill-opacity="0.501961" points="52,59 55,33 84,29" />
<polygon fill="#71798e" fill-opacity="0.501961" points="51,210 53,235 27,256" />
<polygon fill="#5e6678" fill-opacity="0.501961" points="89,73 62,74 90,83" />
<polygon fill="#6d7389" fill-opacity="0.501961" points="58,146 44,176 75,157" />
<polygon fill="#3c4758" fill-opacity="0.501961" points="88,129 73,110 86,141" />
<polygon fill="#b3b8c3" fill-opacity="0.501961" points="250,152 224,89 196,85" />
<polygon fill="#aebccb" fill-opacity="0.501961" points="80,115 94,124 90,127" />
<polygon fill="#a8adb7" fill-opacity="0.501961" points="250,145 119,153 167,127" />
<polygon fill="#c7d3de" fill-opacity="0.501961" points="87,-13 168,4 81,41" />
<polygon fill="#474f5d" fill-opacity="0.501961" points="2,193 34,130 58,151" />
<polygon fill="#989eac" fill-opacity="0.501961" points="267,181 230,179 235,192" />
<polygon fill="#80858f" fill-opacity="0.501961" points="10,163 -11,136 -12,176" />
<polygon fill="#acb3c1" fill-opacity="0.501961" points="271,202 243,199 254,212" />
<polygon fill="#b8c3cf" fill-opacity="0.501961" points="204,-16 215,39 271,39" />
<polygon fill="#1a1e29" fill-opacity="0.501961" points="30,144 14,164 16,133" />
</g>
</svg>