<svg xmlns="http://www.w3.org/2000/svg" version="1.1" width="1024" height="1024">
<rect x="0" y="0" width="1024" height="1024" fill="#c4cb9d" />
<g transform="scale(4.000000) translate(0.5 0.5)">
<polygon fill="#6b8200" fill-opacity="0.501961" points="160,2 26,150 201,266" />
<polygon fill="#ffffff" fill-opacity="0.501961" points="3,-16 -16,256 82,271" />
<polygon fill="#f4f5ff" fill-opacity="0.501961" points="256,271 251,-16 187,217" />
<polygon fill="#ffffff" fill-opacity="0.501961" points="36,-16 238,55 62,42" />
<polygon fill="#ecd000" fill-opacity="0.501961" points="99,66 81,101 -4,-16" />
<polygon fill="#ffaf00" fill-opacity="0.501961" points="231,-16 101,2 183,32" />
<polygon fill="#216032" fill-opacity="0.501961" points="118,36 150,123 35,186" />
<polygon fill="#ffd338" fill-opacity="0.501961" points="79,190 153,135 221,269" />
<polygon fill="#faffff" fill-opacity="0.501961" points="1,183 163,252 -4,271" />
<polygon fill="#ffffff" fill-opacity="0.501961" points="-16,252 49,57 -6,-9" />
<polygon fill="#6d9685" fill-opacity="0.501961" points="63,217 18,139 53,56" />
<polygon fill="#fff6ca" fill-opacity="0.501961" points="252,-16 271,140 161,46" />
<polygon fill="#154309" fill-opacity="0.501961" points="58,155 78,101 116,191" />
<polygon fill="#7698b6" fill-opacity="0.501961" points="81,227 186,231 31,180" />
<polygon fill="#d8e3ff" fill-opacity="0.501961" points="271,230 211,67 207,271" />
<polygon fill="#dfd200" fill-opacity="0.501961" points="100,80 73,106 11,-16" />
<polygon fill="#ffffff" fill-opacity="0.501961" points="48,28 176,46 74,-16" />
<polygon fill="#ecb900" fill-opacity="0.501961" points="73,-16 214,4 161,32" />
<polygon fill="#004300" fill-opacity="0.501961" points="114,79 115,51 163,56" />
<polygon fill="#72a563" fill-opacity="0.501961" points="163,80 218,151 94,149" />
<polygon fill="#ffd400" fill-opacity="0.501961" points="118,134 185,191 211,271" />
<polygon fill="#d8cd9f" fill-opacity="0.501961" points="106,133 173,210 92,157" />
<polygon fill="#a6c0c7" fill-opacity="0.501961" points="199,214 221,117 162,162" />
<polygon fill="#f8fcff" fill-opacity="0.501961" points="-16,258 0,27 57,271" />
<polygon fill="#ffffff" fill-opacity="0.501961" points="-13,-16 56,68 -8,130" />
<polygon fill="#ebc603" fill-opacity="0.501961" points="136,200 94,203 46,155" />
<polygon fill="#ebf0ff" fill-opacity="0.501961" points="-9,243 143,227 165,271" />
<polygon fill="#bebc96" fill-opacity="0.501961" points="117,209 158,183 197,271" />
<polygon fill="#beca35" fill-opacity="0.501961" points="163,61 115,83 203,128" />
<polygon fill="#ffffff" fill-opacity="0.501961" points="115,-16 23,-16 79,56" />
<polygon fill="#739fa2" fill-opacity="0.501961" points="70,51 102,75 118,36" />
<polygon fill="#fbffff" fill-opacity="0.501961" points="207,6 252,-16 271,47" />
<polygon fill="#ede384" fill-opacity="0.501961" points="254,29 271,152 201,42" />
<polygon fill="#f9ffff" fill-opacity="0.501961" points="57,101 64,125 76,99" />
<polygon fill="#adbef6" fill-opacity="0.501961" points="109,37 187,65 191,27" />
<polygon fill="#2c6900" fill-opacity="0.501961" points="59,114 43,145 47,110" />
<polygon fill="#ffd900" fill-opacity="0.501961" points="139,145 105,157 178,177" />
<polygon fill="#6a9d5a" fill-opacity="0.501961" points="195,148 122,146 159,59" />
<polygon fill="#dbc400" fill-opacity="0.501961" points="64,70 -7,-14 24,-16" />
<polygon fill="#d8ddff" fill-opacity="0.501961" points="202,271 243,81 271,253" />
<polygon fill="#c2d3ff" fill-opacity="0.501961" points="121,88 120,73 139,71" />
<polygon fill="#ffffe1" fill-opacity="0.501961" points="159,170 193,163 185,146" />
<polygon fill="#88a3a1" fill-opacity="0.501961" points="50,201 23,153 133,222" />
<polygon fill="#e4bc00" fill-opacity="0.501961" points="192,27 107,4 229,-16" />
<polygon fill="#dbe2ff" fill-opacity="0.501961" points="185,197 224,271 271,131" />
<polygon fill="#edf1ff" fill-opacity="0.501961" points="-16,252 4,189 196,271" />
<polygon fill="#c4b400" fill-opacity="0.501961" points="152,54 153,84 119,97" />
<polygon fill="#769d86" fill-opacity="0.501961" points="108,83 80,110 122,141" />
<polygon fill="#ffe439" fill-opacity="0.501961" points="186,129 200,119 167,70" />
<polygon fill="#709e9c" fill-opacity="0.501961" points="83,45 179,56 131,37" />
<polygon fill="#a3bdcc" fill-opacity="0.501961" points="214,99 177,55 213,165" />
<polygon fill="#9fc4a9" fill-opacity="0.501961" points="169,131 149,94 168,83" />
<polygon fill="#265200" fill-opacity="0.501961" points="174,174 191,171 174,181" />
<polygon fill="#80a99a" fill-opacity="0.501961" points="72,91 32,93 54,64" />
<polygon fill="#c4a200" fill-opacity="0.501961" points="120,189 88,193 122,217" />
<polygon fill="#1f4800" fill-opacity="0.501961" points="43,149 101,164 76,142" />
<polygon fill="#ffe300" fill-opacity="0.501961" points="66,166 48,161 70,181" />
<polygon fill="#27640c" fill-opacity="0.501961" points="114,98 125,142 134,94" />
<polygon fill="#5d9423" fill-opacity="0.501961" points="148,154 183,111 168,161" />
<polygon fill="#f1f2fe" fill-opacity="0.501961" points="192,59 242,123 230,152" />
<polygon fill="#f8fcff" fill-opacity="0.501961" points="28,231 23,41 -16,146" />
<polygon fill="#a0b971" fill-opacity="0.501961" points="75,107 63,144 30,153" />
<polygon fill="#ded100" fill-opacity="0.501961" points="97,81 26,6 74,96" />
<polygon fill="#f3be00" fill-opacity="0.501961" points="180,192 192,266 206,241" />
<polygon fill="#83a198" fill-opacity="0.501961" points="209,172 182,194 215,115" />
<polygon fill="#bca75b" fill-opacity="0.501961" points="268,98 218,100 271,112" />
<polygon fill="#bfbd00" fill-opacity="0.501961" points="82,100 54,95 61,86" />
<polygon fill="#276600" fill-opacity="0.501961" points="146,61 94,90 115,49" />
<polygon fill="#bab147" fill-opacity="0.501961" points="175,232 91,177 134,171" />
<polygon fill="#4c7b00" fill-opacity="0.501961" points="44,132 54,97 57,126" />
<polygon fill="#fcfeff" fill-opacity="0.501961" points="52,62 -9,159 -16,-14" />
<polygon fill="#a6c3bb" fill-opacity="0.501961" points="162,151 160,134 140,143" />
<polygon fill="#f9fcff" fill-opacity="0.501961" points="26,-15 73,41 161,35" />
<polygon fill="#335d35" fill-opacity="0.501961" points="94,102 109,136 71,169" />
<polygon fill="#f9ef81" fill-opacity="0.501961" points="71,47 32,-13 30,12" />
<polygon fill="#7b9a9b" fill-opacity="0.501961" points="26,141 32,170 62,156" />
<polygon fill="#c4c9cc" fill-opacity="0.501961" points="111,168 147,178 115,156" />
<polygon fill="#edf1ff" fill-opacity="0.501961" points="212,-16 210,31 271,9" />
<polygon fill="#f0e2ae" fill-opacity="0.501961" points="70,182 84,189 86,176" />
<polygon fill="#95b7bf" fill-opacity="0.501961" points="45,135 45,77 26,111" />
<polygon fill="#eff3ff" fill-opacity="0.501961" points="-16,249 11,157 104,256" />
<polygon fill="#cdbe73" fill-opacity="0.501961" points="172,271 142,230 180,225" />
<polygon fill="#fde958" fill-opacity="0.501961" points="168,168 175,175 196,163" />
<polygon fill="#a7bd89" fill-opacity="0.501961" points="112,57 78,50 93,84" />
<polygon fill="#f6f8f6" fill-opacity="0.501961" points="157,38 204,80 203,55" />
<polygon fill="#89b38b" fill-opacity="0.501961" points="93,105 110,72 112,106" />
<polygon fill="#e6ecff" fill-opacity="0.501961" points="143,230 19,231 166,271" />
<polygon fill="#538639" fill-opacity="0.501961" points="153,134 136,93 150,84" />
<polygon fill="#99b5a2" fill-opacity="0.501961" points="180,89 145,41 178,59" />
<polygon fill="#8aa6a3" fill-opacity="0.501961" points="30,147 127,233 75,220" />
<polygon fill="#f1efad" fill-opacity="0.501961" points="219,108 245,27 198,41" />
<polygon fill="#e4bb65" fill-opacity="0.501961" points="151,31 128,2 126,17" />
<polygon fill="#b8c7c4" fill-opacity="0.501961" points="204,113 219,138 183,136" />
<polygon fill="#305200" fill-opacity="0.501961" points="70,167 108,175 93,154" />
<polygon fill="#ced5be" fill-opacity="0.501961" points="103,140 94,160 115,153" />
<polygon fill="#cabaae" fill-opacity="0.501961" points="178,30 211,14 190,49" />
<polygon fill="#eaf1ea" fill-opacity="0.501961" points="73,101 71,116 54,113" />
<polygon fill="#d1c200" fill-opacity="0.501961" points="138,72 163,73 125,97" />
<polygon fill="#ffd511" fill-opacity="0.501961" points="161,163 200,230 120,152" />
<polygon fill="#e0bb47" fill-opacity="0.501961" points="271,118 252,95 251,138" />
</g>
</svg>