<svg xmlns="http://www.w3.org/2000/svg" version="1.1" width="1024" height="1024">
<rect x="0" y="0" width="1024" height="1024" fill="#bbbcc0" />
<g transform="scale(4.000000) translate(0.5 0.5)">
<polygon fill="#625c5f" fill-opacity="0.501961" points="45,209 271,105 68,59" />
<polygon fill="#ffffff" fill-opacity="0.501961" points="1,-16 -16,127 271,14" />
<polygon fill="#000000" fill-opacity="0.501961" points="141,105 193,131 163,59" />
<polygon fill="#fffef2" fill-opacity="0.501961" points="234,94 271,-5 -16,5" />
<polygon fill="#e4f8fe" fill-opacity="0.501961" points="131,106 124,167 218,144" />
<polygon fill="#000000" fill-opacity="0.501961" points="271,45 225,121 271,119" />
<polygon fill="#7e6363" fill-opacity="0.501961" points="72,50 43,195 123,57" />
<polygon fill="#f9f0ec" fill-opacity="0.501961" points="198,-16 229,136 178,86" />
<polygon fill="#fff9f2" fill-opacity="0.501961" points="178,20 132,104 94,32" />
<polygon fill="#8b9cb5" fill-opacity="0.501961" points="251,271 271,194 -16,251" />
<polygon fill="#fffff9" fill-opacity="0.501961" points="-15,-16 9,128 117,-16" />
<polygon fill="#5a4a4b" fill-opacity="0.501961" points="95,110 117,66 125,199" />
<polygon fill="#cfd9e8" fill-opacity="0.501961" points="77,140 96,78 96,184" />
<polygon fill="#121d23" fill-opacity="0.501961" points="218,124 143,89 176,128" />
<polygon fill="#becedd" fill-opacity="0.501961" points="266,125 140,255 138,129" />
<polygon fill="#0f090f" fill-opacity="0.501961" points="68,132 68,87 84,116" />
<polygon fill="#d1dee5" fill-opacity="0.501961" points="44,62 50,229 -16,170" />
<polygon fill="#515363" fill-opacity="0.501961" points="87,192 58,214 72,117" />
<polygon fill="#9197a0" fill-opacity="0.501961" points="65,202 137,113 132,194" />
<polygon fill="#4f4e4c" fill-opacity="0.501961" points="137,102 190,117 163,54" />
<polygon fill="#291915" fill-opacity="0.501961" points="125,120 111,72 109,99" />
<polygon fill="#57535d" fill-opacity="0.501961" points="133,182 113,198 120,156" />
<polygon fill="#94a0b3" fill-opacity="0.501961" points="206,155 252,271 271,155" />
<polygon fill="#a99093" fill-opacity="0.501961" points="84,45 81,122 131,65" />
<polygon fill="#d8cec8" fill-opacity="0.501961" points="171,96 271,41 218,112" />
<polygon fill="#101316" fill-opacity="0.501961" points="271,116 231,120 223,106" />
<polygon fill="#1e2930" fill-opacity="0.501961" points="188,128 208,120 199,101" />
<polygon fill="#f2e4df" fill-opacity="0.501961" points="257,75 256,-3 -16,-10" />
<polygon fill="#bcc8cd" fill-opacity="0.501961" points="245,192 134,101 118,149" />
<polygon fill="#fffef8" fill-opacity="0.501961" points="-4,11 91,44 -16,103" />
<polygon fill="#bbc8d5" fill-opacity="0.501961" points="205,224 94,219 221,115" />
<polygon fill="#c6abb9" fill-opacity="0.501961" points="110,81 78,97 58,72" />
<polygon fill="#76695f" fill-opacity="0.501961" points="66,219 41,179 75,146" />
<polygon fill="#a1b7cb" fill-opacity="0.501961" points="-11,250 139,228 91,189" />
<polygon fill="#d6cfc6" fill-opacity="0.501961" points="51,83 63,128 -16,121" />
<polygon fill="#d5d8ce" fill-opacity="0.501961" points="82,35 159,78 130,87" />
<polygon fill="#918775" fill-opacity="0.501961" points="51,134 64,75 75,129" />
<polygon fill="#d4e6ee" fill-opacity="0.501961" points="101,135 80,148 84,116" />
<polygon fill="#63524f" fill-opacity="0.501961" points="90,115 113,82 130,128" />
<polygon fill="#fdf7f2" fill-opacity="0.501961" points="131,8 243,61 177,77" />
<polygon fill="#aa998e" fill-opacity="0.501961" points="241,98 268,51 225,94" />
<polygon fill="#000000" fill-opacity="0.501961" points="69,88 80,112 72,112" />
<polygon fill="#afb1aa" fill-opacity="0.501961" points="149,143 130,188 124,85" />
<polygon fill="#34373c" fill-opacity="0.501961" points="170,123 177,78 145,100" />
<polygon fill="#755b57" fill-opacity="0.501961" points="94,55 115,74 79,57" />
<polygon fill="#dfd3ce" fill-opacity="0.501961" points="197,7 261,-16 271,71" />
<polygon fill="#d4d9da" fill-opacity="0.501961" points="159,144 133,103 203,141" />
<polygon fill="#fffbf9" fill-opacity="0.501961" points="168,18 136,93 127,41" />
<polygon fill="#737b8e" fill-opacity="0.501961" points="242,179 271,182 247,159" />
<polygon fill="#dcdbdf" fill-opacity="0.501961" points="219,141 183,131 235,123" />
<polygon fill="#c7c4b3" fill-opacity="0.501961" points="67,49 94,41 61,74" />
<polygon fill="#b5bbb0" fill-opacity="0.501961" points="119,102 111,51 131,70" />
<polygon fill="#81716d" fill-opacity="0.501961" points="107,106 94,168 126,126" />
<polygon fill="#3e3027" fill-opacity="0.501961" points="240,83 271,101 250,99" />
<polygon fill="#54504f" fill-opacity="0.501961" points="162,58 184,113 156,78" />
<polygon fill="#c2c2c0" fill-opacity="0.501961" points="179,103 255,68 214,108" />
<polygon fill="#bbc8d8" fill-opacity="0.501961" points="32,233 52,189 -16,187" />
<polygon fill="#634d50" fill-opacity="0.501961" points="71,73 77,57 79,71" />
<polygon fill="#a6bbd0" fill-opacity="0.501961" points="96,194 82,230 88,157" />
<polygon fill="#cad4d8" fill-opacity="0.501961" points="53,120 41,200 -16,101" />
<polygon fill="#9499a9" fill-opacity="0.501961" points="270,271 182,250 271,215" />
<polygon fill="#b1b8c6" fill-opacity="0.501961" points="224,215 140,247 271,102" />
<polygon fill="#1f272c" fill-opacity="0.501961" points="199,114 163,117 186,129" />
<polygon fill="#271512" fill-opacity="0.501961" points="106,96 113,95 114,75" />
<polygon fill="#545668" fill-opacity="0.501961" points="92,167 64,184 68,149" />
<polygon fill="#c5c7bd" fill-opacity="0.501961" points="120,133 124,164 146,123" />
<polygon fill="#a09289" fill-opacity="0.501961" points="73,212 60,213 58,186" />
<polygon fill="#8fa2b3" fill-opacity="0.501961" points="161,251 92,232 29,271" />
<polygon fill="#9898a6" fill-opacity="0.501961" points="111,140 115,185 92,202" />
<polygon fill="#696969" fill-opacity="0.501961" points="178,106 179,80 166,87" />
<polygon fill="#a5c1d0" fill-opacity="0.501961" points="14,148 54,154 -16,173" />
<polygon fill="#d0d4de" fill-opacity="0.501961" points="157,157 154,190 225,179" />
<polygon fill="#332f2f" fill-opacity="0.501961" points="232,97 242,120 261,111" />
<polygon fill="#5c4946" fill-opacity="0.501961" points="70,84 72,117 63,110" />
<polygon fill="#4c4345" fill-opacity="0.501961" points="51,199 58,185 54,173" />
<polygon fill="#62789c" fill-opacity="0.501961" points="71,198 86,195 84,151" />
<polygon fill="#d2c7da" fill-opacity="0.501961" points="74,97 83,84 70,83" />
<polygon fill="#21262c" fill-opacity="0.501961" points="150,96 144,108 174,120" />
<polygon fill="#a4aab0" fill-opacity="0.501961" points="231,102 209,122 199,101" />
<polygon fill="#a0bac8" fill-opacity="0.501961" points="229,150 143,151 243,180" />
<polygon fill="#f4ede9" fill-opacity="0.501961" points="182,-16 168,73 239,75" />
<polygon fill="#d9d4d0" fill-opacity="0.501961" points="191,109 175,73 221,80" />
<polygon fill="#847777" fill-opacity="0.501961" points="154,159 156,170 151,182" />
<polygon fill="#988994" fill-opacity="0.501961" points="100,126 74,96 95,85" />
<polygon fill="#c8c1ad" fill-opacity="0.501961" points="52,109 65,99 65,64" />
<polygon fill="#d9aabd" fill-opacity="0.501961" points="91,67 106,83 105,67" />
<polygon fill="#dde3ea" fill-opacity="0.501961" points="151,152 151,191 142,162" />
<polygon fill="#f6e7df" fill-opacity="0.501961" points="29,108 69,58 -16,99" />
<polygon fill="#e2d6cf" fill-opacity="0.501961" points="131,87 153,76 162,53" />
<polygon fill="#3b3a39" fill-opacity="0.501961" points="157,100 143,85 172,79" />
<polygon fill="#a3a9b9" fill-opacity="0.501961" points="2,271 -1,225 45,237" />
<polygon fill="#b0bfce" fill-opacity="0.501961" points="147,235 72,211 141,187" />
<polygon fill="#373437" fill-opacity="0.501961" points="123,104 115,101 112,124" />
<polygon fill="#b9c3ce" fill-opacity="0.501961" points="101,134 89,115 87,171" />
<polygon fill="#c0d1db" fill-opacity="0.501961" points="93,152 80,121 79,144" />
<polygon fill="#746257" fill-opacity="0.501961" points="122,176 131,167 128,188" />
<polygon fill="#2a3338" fill-opacity="0.501961" points="200,127 209,124 197,104" />
<polygon fill="#766b6d" fill-opacity="0.501961" points="121,163 93,106 112,104" />
<polygon fill="#c9ccc9" fill-opacity="0.501961" points="140,84 142,100 112,65" />
<polygon fill="#797e89" fill-opacity="0.501961" points="99,201 105,181 94,188" />
</g>
</svg>