<svg xmlns="http://www.w3.org/2000/svg" version="1.1" width="1024" height="1024">
<rect x="0" y="0" width="1024" height="1024" fill="#c0bcb4" />
<g transform="scale(4.000000) translate(0.5 0.5)">
<polygon fill="#050400" fill-opacity="0.501961" points="251,4 271,226 129,209" />
<polygon fill="#ffffff" fill-opacity="0.501961" points="16,-16 -16,254 206,269" />
<polygon fill="#340d2a" fill-opacity="0.501961" points="271,182 121,69 117,-16" />
<polygon fill="#ffffff" fill-opacity="0.501961" points="-2,-16 1,271 186,100" />
<polygon fill="#020000" fill-opacity="0.501961" points="229,70 271,165 193,239" />
<polygon fill="#989731" fill-opacity="0.501961" points="124,200 236,-16 192,236" />
<polygon fill="#ffffff" fill-opacity="0.501961" points="79,-16 154,263 -16,15" />
<polygon fill="#bd0000" fill-opacity="0.501961" points="106,-16 84,14 111,51" />
<polygon fill="#000d87" fill-opacity="0.501961" points="170,50 114,64 132,88" />
<polygon fill="#eae5f2" fill-opacity="0.501961" points="230,271 271,195 131,263" />
<polygon fill="#8ca7b4" fill-opacity="0.501961" points="150,26 245,43 152,134" />
<polygon fill="#101205" fill-opacity="0.501961" points="248,196 177,108 268,105" />
<polygon fill="#e8f6df" fill-opacity="0.501961" points="217,86 145,0 210,-16" />
<polygon fill="#a0903b" fill-opacity="0.501961" points="144,215 204,234 153,87" />
<polygon fill="#fefeff" fill-opacity="0.501961" points="-1,-16 -9,269 181,271" />
<polygon fill="#ff0a0a" fill-opacity="0.501961" points="145,41 128,62 127,-4" />
<polygon fill="#5e4f10" fill-opacity="0.501961" points="216,226 172,225 220,122" />
<polygon fill="#feffff" fill-opacity="0.501961" points="32,-16 149,104 131,177" />
<polygon fill="#1e58d9" fill-opacity="0.501961" points="191,46 189,64 144,19" />
<polygon fill="#00114a" fill-opacity="0.501961" points="135,81 147,40 170,58" />
<polygon fill="#b20000" fill-opacity="0.501961" points="261,191 248,271 271,241" />
<polygon fill="#1e1f2f" fill-opacity="0.501961" points="172,77 203,119 189,79" />
<polygon fill="#ffe1f2" fill-opacity="0.501961" points="159,31 176,62 142,30" />
<polygon fill="#ffffff" fill-opacity="0.501961" points="188,88 173,114 156,99" />
<polygon fill="#adb360" fill-opacity="0.501961" points="137,215 141,136 204,129" />
<polygon fill="#bbd6ff" fill-opacity="0.501961" points="185,79 144,60 174,61" />
<polygon fill="#fdffff" fill-opacity="0.501961" points="115,89 75,-16 -16,4" />
<polygon fill="#95b17c" fill-opacity="0.501961" points="224,76 194,54 249,-3" />
<polygon fill="#606a3a" fill-opacity="0.501961" points="269,101 254,2 208,106" />
<polygon fill="#62512d" fill-opacity="0.501961" points="243,73 183,138 157,122" />
<polygon fill="#c7e8a9" fill-opacity="0.501961" points="271,15 261,39 227,55" />
<polygon fill="#0948bd" fill-opacity="0.501961" points="127,63 158,92 118,75" />
<polygon fill="#364e37" fill-opacity="0.501961" points="219,24 227,0 226,51" />
<polygon fill="#ad2634" fill-opacity="0.501961" points="118,-16 118,65 146,31" />
<polygon fill="#dbbf61" fill-opacity="0.501961" points="163,190 167,213 196,161" />
<polygon fill="#000000" fill-opacity="0.501961" points="135,71 160,73 143,59" />
<polygon fill="#ffdaf4" fill-opacity="0.501961" points="111,75 122,32 110,-7" />
<polygon fill="#9b7b31" fill-opacity="0.501961" points="155,218 222,154 183,227" />
<polygon fill="#040100" fill-opacity="0.501961" points="203,109 271,107 227,145" />
<polygon fill="#c01c34" fill-opacity="0.501961" points="106,-16 81,-12 109,48" />
<polygon fill="#20450f" fill-opacity="0.501961" points="177,173 177,186 155,157" />
<polygon fill="#f4f1ff" fill-opacity="0.501961" points="147,15 190,33 188,-16" />
<polygon fill="#e1e0e3" fill-opacity="0.501961" points="116,267 243,246 123,213" />
<polygon fill="#1f1d0b" fill-opacity="0.501961" points="209,224 192,200 188,223" />
<polygon fill="#c3bbc1" fill-opacity="0.501961" points="202,232 232,208 271,221" />
<polygon fill="#49601f" fill-opacity="0.501961" points="202,141 156,153 162,140" />
<polygon fill="#114ab7" fill-opacity="0.501961" points="184,64 198,67 172,34" />
<polygon fill="#e97c98" fill-opacity="0.501961" points="95,0 101,46 89,25" />
<polygon fill="#ff5d64" fill-opacity="0.501961" points="126,16 132,58 144,51" />
<polygon fill="#7b7963" fill-opacity="0.501961" points="206,92 162,75 144,91" />
<polygon fill="#00152e" fill-opacity="0.501961" points="125,54 129,35 123,18" />
<polygon fill="#ada07d" fill-opacity="0.501961" points="199,128 199,101 208,95" />
<polygon fill="#101610" fill-opacity="0.501961" points="227,71 235,52 251,58" />
<polygon fill="#b1cf8a" fill-opacity="0.501961" points="227,73 271,65 247,62" />
<polygon fill="#11263d" fill-opacity="0.501961" points="124,19 141,-16 123,-16" />
<polygon fill="#e4d993" fill-opacity="0.501961" points="160,164 171,132 170,162" />
<polygon fill="#edebea" fill-opacity="0.501961" points="147,220 61,203 70,92" />
<polygon fill="#414c99" fill-opacity="0.501961" points="93,-8 90,27 83,-7" />
<polygon fill="#384328" fill-opacity="0.501961" points="200,54 203,46 210,64" />
<polygon fill="#41511e" fill-opacity="0.501961" points="161,138 186,161 172,159" />
<polygon fill="#2c418b" fill-opacity="0.501961" points="192,72 172,64 193,81" />
<polygon fill="#062b81" fill-opacity="0.501961" points="271,183 246,167 251,192" />
<polygon fill="#162511" fill-opacity="0.501961" points="247,20 241,43 229,46" />
<polygon fill="#324212" fill-opacity="0.501961" points="236,144 200,156 192,175" />
<polygon fill="#6590ee" fill-opacity="0.501961" points="122,81 113,62 145,87" />
<polygon fill="#d6bdcf" fill-opacity="0.501961" points="168,36 149,39 186,65" />
<polygon fill="#ebd177" fill-opacity="0.501961" points="199,165 189,156 179,167" />
<polygon fill="#c6d9a6" fill-opacity="0.501961" points="239,-16 194,56 176,38" />
<polygon fill="#f6d97b" fill-opacity="0.501961" points="191,140 182,132 198,128" />
<polygon fill="#fee69b" fill-opacity="0.501961" points="151,181 166,180 162,168" />
<polygon fill="#ebe7a5" fill-opacity="0.501961" points="152,150 161,145 147,122" />
<polygon fill="#141a16" fill-opacity="0.501961" points="228,83 249,82 244,71" />
<polygon fill="#fbffff" fill-opacity="0.501961" points="-16,4 88,22 86,-7" />
<polygon fill="#e2f8d6" fill-opacity="0.501961" points="241,20 239,-10 228,41" />
<polygon fill="#333214" fill-opacity="0.501961" points="199,184 252,136 218,212" />
<polygon fill="#e5feff" fill-opacity="0.501961" points="142,72 154,80 145,82" />
<polygon fill="#c9d9b1" fill-opacity="0.501961" points="193,71 234,48 197,86" />
<polygon fill="#ffffff" fill-opacity="0.501961" points="6,271 -6,-16 58,151" />
<polygon fill="#617157" fill-opacity="0.501961" points="200,-3 207,16 197,2" />
<polygon fill="#1b58d5" fill-opacity="0.501961" points="149,30 172,33 144,20" />
<polygon fill="#2c1d17" fill-opacity="0.501961" points="184,128 188,82 196,125" />
<polygon fill="#fc96b3" fill-opacity="0.501961" points="144,51 134,59 144,36" />
<polygon fill="#ffffff" fill-opacity="0.501961" points="170,94 169,115 159,95" />
<polygon fill="#f4f4f6" fill-opacity="0.501961" points="151,114 76,24 92,271" />
<polygon fill="#bcbd6b" fill-opacity="0.501961" points="151,115 144,222 133,168" />
<polygon fill="#38541d" fill-opacity="0.501961" points="157,189 153,211 171,175" />
<polygon fill="#d0cdc6" fill-opacity="0.501961" points="130,215 117,249 123,177" />
<polygon fill="#e9d490" fill-opacity="0.501961" points="150,205 156,197 135,175" />
<polygon fill="#d2ced4" fill-opacity="0.501961" points="142,-13 217,51 137,16" />
<polygon fill="#837641" fill-opacity="0.501961" points="222,142 203,183 220,166" />
<polygon fill="#767630" fill-opacity="0.501961" points="193,129 204,115 212,141" />
<polygon fill="#1e1d0e" fill-opacity="0.501961" points="207,159 243,107 210,98" />
<polygon fill="#46652a" fill-opacity="0.501961" points="141,162 161,190 149,185" />
<polygon fill="#9b8842" fill-opacity="0.501961" points="233,100 178,89 212,81" />
<polygon fill="#bea246" fill-opacity="0.501961" points="162,112 158,121 191,123" />
<polygon fill="#041b4d" fill-opacity="0.501961" points="192,82 181,87 169,75" />
<polygon fill="#876b6b" fill-opacity="0.501961" points="234,198 218,214 271,206" />
<polygon fill="#0a1c70" fill-opacity="0.501961" points="164,63 159,44 143,56" />
<polygon fill="#c9ab4f" fill-opacity="0.501961" points="205,188 191,191 196,204" />
<polygon fill="#3a591c" fill-opacity="0.501961" points="161,164 153,172 157,150" />
</g>
</svg>