<svg xmlns="http://www.w3.org/2000/svg" version="1.1" width="1024" height="1024">
<rect x="0" y="0" width="1024" height="1024" fill="#70a2af" />
<g transform="scale(4.000000) translate(0.5 0.5)">
<polygon fill="#007ad4" fill-opacity="0.501961" points="-16,94 86,271 239,95" />
<polygon fill="#ffe4b8" fill-opacity="0.501961" points="-16,23 268,129 267,8" />
<polygon fill="#759400" fill-opacity="0.501961" points="194,12 89,-16 -16,13" />
<polygon fill="#ffe6c4" fill-opacity="0.501961" points="159,90 9,92 5,11" />
<polygon fill="#0086cd" fill-opacity="0.501961" points="212,83 -16,146 213,251" />
<polygon fill="#678500" fill-opacity="0.501961" points="204,-16 113,13 264,8" />
<polygon fill="#df9791" fill-opacity="0.501961" points="220,21 211,271 271,241" />
<polygon fill="#0087c0" fill-opacity="0.501961" points="222,94 -8,239 -16,93" />
<polygon fill="#f7a798" fill-opacity="0.501961" points="102,271 -12,234 224,242" />
<polygon fill="#003fac" fill-opacity="0.501961" points="68,236 214,241 206,200" />
<polygon fill="#72bbd6" fill-opacity="0.501961" points="67,166 271,181 -16,238" />
<polygon fill="#e9d1ba" fill-opacity="0.501961" points="265,10 -16,16 254,83" />
<polygon fill="#649100" fill-opacity="0.501961" points="131,11 20,-16 -16,15" />
<polygon fill="#156f65" fill-opacity="0.501961" points="217,92 49,95 172,127" />
<polygon fill="#6e9400" fill-opacity="0.501961" points="92,13 171,-16 271,9" />
<polygon fill="#008be0" fill-opacity="0.501961" points="-15,207 -16,105 220,118" />
<polygon fill="#005cb3" fill-opacity="0.501961" points="135,207 28,234 215,239" />
<polygon fill="#a7adae" fill-opacity="0.501961" points="249,106 46,55 228,52" />
<polygon fill="#376000" fill-opacity="0.501961" points="6,36 -16,-3 3,87" />
<polygon fill="#ba9fa0" fill-opacity="0.501961" points="271,124 214,44 217,271" />
<polygon fill="#709a00" fill-opacity="0.501961" points="50,-16 157,11 -16,14" />
<polygon fill="#0046b7" fill-opacity="0.501961" points="40,223 52,209 4,222" />
<polygon fill="#e5d5c2" fill-opacity="0.501961" points="118,92 10,60 230,61" />
<polygon fill="#78b7ce" fill-opacity="0.501961" points="215,201 87,212 214,161" />
<polygon fill="#f4afaa" fill-opacity="0.501961" points="93,271 10,269 -16,232" />
<polygon fill="#008cc9" fill-opacity="0.501961" points="213,162 65,177 213,99" />
<polygon fill="#5e8600" fill-opacity="0.501961" points="237,-16 153,9 270,10" />
<polygon fill="#4e828f" fill-opacity="0.501961" points="168,49 204,59 131,59" />
<polygon fill="#3c8ba1" fill-opacity="0.501961" points="50,59 81,50 110,58" />
<polygon fill="#f3dabc" fill-opacity="0.501961" points="195,53 72,19 7,52" />
<polygon fill="#27a9d0" fill-opacity="0.501961" points="167,157 57,185 209,187" />
<polygon fill="#967474" fill-opacity="0.501961" points="205,256 217,209 271,208" />
<polygon fill="#5eb7db" fill-opacity="0.501961" points="-1,187 -16,237 53,178" />
<polygon fill="#538b99" fill-opacity="0.501961" points="33,50 63,59 -2,60" />
<polygon fill="#bad8dc" fill-opacity="0.501961" points="19,234 54,213 96,214" />
<polygon fill="#e8cfac" fill-opacity="0.501961" points="93,54 4,53 6,29" />
<polygon fill="#228b71" fill-opacity="0.501961" points="92,93 46,108 -3,95" />
<polygon fill="#c5aeab" fill-opacity="0.501961" points="200,241 271,256 131,265" />
<polygon fill="#0056b4" fill-opacity="0.501961" points="41,218 64,203 92,204" />
<polygon fill="#e7ddcf" fill-opacity="0.501961" points="8,61 12,86 95,84" />
<polygon fill="#9bcfe1" fill-opacity="0.501961" points="26,237 49,216 -11,234" />
<polygon fill="#0470c4" fill-opacity="0.501961" points="-16,179 170,155 39,137" />
<polygon fill="#136b6b" fill-opacity="0.501961" points="213,113 213,94 146,101" />
<polygon fill="#92b100" fill-opacity="0.501961" points="54,5 130,-16 208,5" />
<polygon fill="#39788b" fill-opacity="0.501961" points="123,60 143,54 107,53" />
<polygon fill="#0043b5" fill-opacity="0.501961" points="-4,211 37,203 15,201" />
<polygon fill="#0054b3" fill-opacity="0.501961" points="91,237 58,225 29,235" />
<polygon fill="#01536f" fill-opacity="0.501961" points="174,92 156,129 177,127" />
<polygon fill="#92754a" fill-opacity="0.501961" points="247,41 246,12 253,19" />
<polygon fill="#0e6db6" fill-opacity="0.501961" points="149,207 213,205 213,243" />
<polygon fill="#b4ced4" fill-opacity="0.501961" points="187,194 159,204 219,201" />
<polygon fill="#667b6a" fill-opacity="0.501961" points="203,74 204,34 210,54" />
<polygon fill="#287eb9" fill-opacity="0.501961" points="173,186 213,195 144,198" />
<polygon fill="#d7d0c0" fill-opacity="0.501961" points="97,60 185,58 224,95" />
<polygon fill="#b5a9ab" fill-opacity="0.501961" points="271,174 212,21 216,209" />
<polygon fill="#0043af" fill-opacity="0.501961" points="-15,220 -2,230 23,223" />
<polygon fill="#00667f" fill-opacity="0.501961" points="-2,56 1,79 9,73" />
<polygon fill="#79bfd5" fill-opacity="0.501961" points="87,186 38,211 136,193" />
<polygon fill="#005eb9" fill-opacity="0.501961" points="55,195 95,191 74,199" />
<polygon fill="#0053b0" fill-opacity="0.501961" points="101,198 89,207 126,200" />
<polygon fill="#a2cad4" fill-opacity="0.501961" points="129,199 164,204 106,213" />
<polygon fill="#9fd6e1" fill-opacity="0.501961" points="23,217 50,202 -9,216" />
<polygon fill="#dbd2bd" fill-opacity="0.501961" points="207,13 111,12 174,53" />
<polygon fill="#59bcd1" fill-opacity="0.501961" points="180,194 210,163 148,164" />
<polygon fill="#ba9c95" fill-opacity="0.501961" points="27,266 87,234 157,271" />
<polygon fill="#e7dcd2" fill-opacity="0.501961" points="226,54 270,127 241,24" />
<polygon fill="#bdd7d9" fill-opacity="0.501961" points="73,212 110,213 98,206" />
<polygon fill="#004ab3" fill-opacity="0.501961" points="48,195 31,202 65,198" />
<polygon fill="#169dd0" fill-opacity="0.501961" points="106,160 191,175 31,190" />
<polygon fill="#796f00" fill-opacity="0.501961" points="8,40 -16,76 -16,0" />
<polygon fill="#006f7e" fill-opacity="0.501961" points="105,113 61,107 138,97" />
<polygon fill="#0498dd" fill-opacity="0.501961" points="2,104 166,117 -16,155" />
<polygon fill="#678f00" fill-opacity="0.501961" points="-3,-9 73,13 -3,14" />
<polygon fill="#59aea0" fill-opacity="0.501961" points="81,103 132,97 105,93" />
<polygon fill="#4eb8cc" fill-opacity="0.501961" points="141,229 126,216 155,224" />
<polygon fill="#50a0c9" fill-opacity="0.501961" points="-8,60 -16,51 21,57" />
<polygon fill="#e1d1b6" fill-opacity="0.501961" points="130,17 15,54 259,52" />
<polygon fill="#3f737d" fill-opacity="0.501961" points="212,53 203,59 186,53" />
<polygon fill="#677a5f" fill-opacity="0.501961" points="218,31 223,31 222,49" />
<polygon fill="#43aac6" fill-opacity="0.501961" points="198,227 161,236 184,221" />
<polygon fill="#79ced8" fill-opacity="0.501961" points="15,205 37,191 -8,201" />
<polygon fill="#5f8900" fill-opacity="0.501961" points="260,9 166,8 249,-16" />
<polygon fill="#dfe3d8" fill-opacity="0.501961" points="84,20 25,49 27,21" />
<polygon fill="#4a9da3" fill-opacity="0.501961" points="46,92 92,90 81,105" />
<polygon fill="#aec1bd" fill-opacity="0.501961" points="81,92 202,92 140,75" />
<polygon fill="#002c95" fill-opacity="0.501961" points="190,186 208,184 200,182" />
<polygon fill="#89d7e3" fill-opacity="0.501961" points="82,190 39,197 54,187" />
<polygon fill="#cec8b0" fill-opacity="0.501961" points="197,12 55,14 123,43" />
<polygon fill="#539cbb" fill-opacity="0.501961" points="104,223 144,240 117,238" />
<polygon fill="#c1c7b0" fill-opacity="0.501961" points="20,42 -14,15 32,14" />
<polygon fill="#3c9bcc" fill-opacity="0.501961" points="159,186 127,170 88,194" />
<polygon fill="#0c9cdc" fill-opacity="0.501961" points="152,115 133,104 118,166" />
<polygon fill="#b3b3b7" fill-opacity="0.501961" points="264,154 209,151 271,215" />
<polygon fill="#5fb9d6" fill-opacity="0.501961" points="92,184 166,178 130,192" />
<polygon fill="#ad8b8b" fill-opacity="0.501961" points="217,117 255,137 259,113" />
<polygon fill="#ece5d9" fill-opacity="0.501961" points="251,17 271,32 253,74" />
<polygon fill="#a5d2d7" fill-opacity="0.501961" points="195,187 162,187 179,193" />
<polygon fill="#0049b4" fill-opacity="0.501961" points="39,211 54,214 26,218" />
<polygon fill="#0042ae" fill-opacity="0.501961" points="30,192 20,189 8,193" />
<polygon fill="#0047a3" fill-opacity="0.501961" points="94,236 107,226 130,238" />
</g>
</svg>