<svg xmlns="http://www.w3.org/2000/svg" version="1.1" width="1024" height="1024">
<rect x="0" y="0" width="1024" height="1024" fill="#4c4e4d" />
<g transform="scale(4.000000) translate(0.5 0.5)">
<polygon fill="#e5ddce" fill-opacity="0.501961" points="-16,50 20,271 58,99" />
<polygon fill="#0d0000" fill-opacity="0.501961" points="168,39 193,271 271,246" />
<polygon fill="#d6ac9c" fill-opacity="0.501961" points="166,84 131,247 188,271" />
<polygon fill="#1c0003" fill-opacity="0.501961" points="102,-16 137,246 64,271" />
<polygon fill="#009789" fill-opacity="0.501961" points="189,125 271,138 232,-16" />
<polygon fill="#cd7e61" fill-opacity="0.501961" points="121,63 100,151 187,110" />
<polygon fill="#b1b6b3" fill-opacity="0.501961" points="62,205 45,271 -16,196" />
<polygon fill="#c6bdb1" fill-opacity="0.501961" points="53,52 58,-16 11,11" />
<polygon fill="#173e1e" fill-opacity="0.501961" points="51,-3 169,94 270,2" />
<polygon fill="#00253e" fill-opacity="0.501961" points="90,163 21,160 68,229" />
<polygon fill="#ded3cd" fill-opacity="0.501961" points="75,95 80,13 63,43" />
<polygon fill="#17111b" fill-opacity="0.501961" points="30,77 7,138 25,140" />
<polygon fill="#d5d1c0" fill-opacity="0.501961" points="51,88 54,155 -16,192" />
<polygon fill="#009b8e" fill-opacity="0.501961" points="249,32 216,133 185,58" />
<polygon fill="#2c0012" fill-opacity="0.501961" points="156,111 64,235 112,271" />
<polygon fill="#1e1324" fill-opacity="0.501961" points="67,90 16,89 66,22" />
<polygon fill="#e5deca" fill-opacity="0.501961" points="-16,126 17,125 23,51" />
<polygon fill="#001d34" fill-opacity="0.501961" points="127,48 271,227 206,76" />
<polygon fill="#120e20" fill-opacity="0.501961" points="83,101 80,-16 136,68" />
<polygon fill="#ffffff" fill-opacity="0.501961" points="177,32 165,24 192,25" />
<polygon fill="#aa6049" fill-opacity="0.501961" points="131,196 169,92 189,184" />
<polygon fill="#4b0017" fill-opacity="0.501961" points="185,147 271,201 188,271" />
<polygon fill="#db9c79" fill-opacity="0.501961" points="151,74 123,73 127,150" />
<polygon fill="#00a395" fill-opacity="0.501961" points="193,98 258,12 210,138" />
<polygon fill="#110517" fill-opacity="0.501961" points="-16,56 31,54 3,-16" />
<polygon fill="#000000" fill-opacity="0.501961" points="26,137 -16,137 21,123" />
<polygon fill="#26232a" fill-opacity="0.501961" points="6,190 16,226 30,228" />
<polygon fill="#000000" fill-opacity="0.501961" points="229,92 237,115 261,94" />
<polygon fill="#97a6a6" fill-opacity="0.501961" points="134,187 135,271 181,193" />
<polygon fill="#eaebda" fill-opacity="0.501961" points="34,52 60,37 33,38" />
<polygon fill="#010216" fill-opacity="0.501961" points="151,104 119,103 96,86" />
<polygon fill="#ffffff" fill-opacity="0.501961" points="9,75 27,63 -16,66" />
<polygon fill="#0e3f53" fill-opacity="0.501961" points="89,157 67,237 54,91" />
<polygon fill="#196a49" fill-opacity="0.501961" points="254,-16 190,33 267,78" />
<polygon fill="#040015" fill-opacity="0.501961" points="109,29 127,-16 171,7" />
<polygon fill="#4f833a" fill-opacity="0.501961" points="112,51 144,21 212,66" />
<polygon fill="#74908d" fill-opacity="0.501961" points="87,149 82,95 66,185" />
<polygon fill="#2a1018" fill-opacity="0.501961" points="25,161 67,161 50,201" />
<polygon fill="#009593" fill-opacity="0.501961" points="225,147 237,170 208,160" />
<polygon fill="#e1dfd2" fill-opacity="0.501961" points="44,193 36,204 61,218" />
<polygon fill="#fcfbf3" fill-opacity="0.501961" points="-16,142 -16,160 50,151" />
<polygon fill="#f7f9ea" fill-opacity="0.501961" points="-6,211 17,215 -8,182" />
<polygon fill="#d8a084" fill-opacity="0.501961" points="109,104 103,119 148,122" />
<polygon fill="#000f20" fill-opacity="0.501961" points="116,162 93,81 77,196" />
<polygon fill="#bcc0ba" fill-opacity="0.501961" points="54,233 -15,261 28,227" />
<polygon fill="#464246" fill-opacity="0.501961" points="9,202 -16,181 69,198" />
<polygon fill="#559b56" fill-opacity="0.501961" points="229,51 198,-16 195,39" />
<polygon fill="#605552" fill-opacity="0.501961" points="54,33 -16,46 43,16" />
<polygon fill="#c9c0b6" fill-opacity="0.501961" points="86,78 67,105 71,84" />
<polygon fill="#e2e6d7" fill-opacity="0.501961" points="58,10 48,22 22,13" />
<polygon fill="#0e0013" fill-opacity="0.501961" points="205,85 96,63 158,52" />
<polygon fill="#f7f9ee" fill-opacity="0.501961" points="59,95 30,105 32,90" />
<polygon fill="#110001" fill-opacity="0.501961" points="201,40 211,68 204,77" />
<polygon fill="#250015" fill-opacity="0.501961" points="212,260 271,257 236,154" />
<polygon fill="#f8f3d4" fill-opacity="0.501961" points="-16,177 26,172 36,186" />
<polygon fill="#1e1a25" fill-opacity="0.501961" points="53,168 59,71 79,153" />
<polygon fill="#000007" fill-opacity="0.501961" points="225,140 263,141 220,125" />
<polygon fill="#009fa4" fill-opacity="0.501961" points="239,135 222,115 271,106" />
<polygon fill="#382c31" fill-opacity="0.501961" points="89,18 71,73 116,26" />
<polygon fill="#434045" fill-opacity="0.501961" points="49,232 15,215 49,213" />
<polygon fill="#f6f2e0" fill-opacity="0.501961" points="80,67 74,82 64,82" />
<polygon fill="#00213e" fill-opacity="0.501961" points="271,95 235,57 262,27" />
<polygon fill="#1c0825" fill-opacity="0.501961" points="55,28 64,-16 145,-16" />
<polygon fill="#c37a59" fill-opacity="0.501961" points="107,150 133,143 154,96" />
<polygon fill="#13001b" fill-opacity="0.501961" points="148,64 194,43 191,24" />
<polygon fill="#9a0521" fill-opacity="0.501961" points="92,226 73,212 89,184" />
<polygon fill="#221d22" fill-opacity="0.501961" points="151,115 106,173 158,150" />
<polygon fill="#00081d" fill-opacity="0.501961" points="140,101 165,104 163,111" />
<polygon fill="#5c011c" fill-opacity="0.501961" points="180,186 241,207 183,222" />
<polygon fill="#090014" fill-opacity="0.501961" points="6,242 -16,223 16,225" />
<polygon fill="#85837e" fill-opacity="0.501961" points="50,241 -10,241 87,271" />
<polygon fill="#007b7d" fill-opacity="0.501961" points="269,215 240,166 255,164" />
<polygon fill="#1b0010" fill-opacity="0.501961" points="231,47 243,3 223,37" />
<polygon fill="#72624b" fill-opacity="0.501961" points="-16,74 -1,91 46,84" />
<polygon fill="#a88f17" fill-opacity="0.501961" points="270,149 244,158 232,140" />
<polygon fill="#18b193" fill-opacity="0.501961" points="204,61 181,46 198,84" />
<polygon fill="#fbfdf6" fill-opacity="0.501961" points="17,127 -16,127 16,116" />
<polygon fill="#c6c6bd" fill-opacity="0.501961" points="50,168 55,119 23,118" />
<polygon fill="#d1a383" fill-opacity="0.501961" points="160,103 140,69 114,89" />
<polygon fill="#007493" fill-opacity="0.501961" points="78,199 65,187 82,160" />
<polygon fill="#4e463c" fill-opacity="0.501961" points="99,65 72,90 107,16" />
<polygon fill="#009d9c" fill-opacity="0.501961" points="210,64 271,72 207,108" />
<polygon fill="#1d1827" fill-opacity="0.501961" points="20,116 23,64 38,71" />
<polygon fill="#0c0013" fill-opacity="0.501961" points="149,64 201,85 188,115" />
<polygon fill="#020518" fill-opacity="0.501961" points="129,70 102,95 108,35" />
<polygon fill="#006c71" fill-opacity="0.501961" points="188,153 181,138 195,107" />
<polygon fill="#837775" fill-opacity="0.501961" points="67,63 17,62 44,70" />
<polygon fill="#d20a28" fill-opacity="0.501961" points="247,183 225,189 220,181" />
<polygon fill="#ffe8fb" fill-opacity="0.501961" points="212,39 205,41 216,44" />
<polygon fill="#9a001e" fill-opacity="0.501961" points="131,237 98,231 125,249" />
<polygon fill="#211926" fill-opacity="0.501961" points="20,26 49,27 43,18" />
<polygon fill="#3b3036" fill-opacity="0.501961" points="44,7 -2,17 10,5" />
<polygon fill="#5ab636" fill-opacity="0.501961" points="139,41 180,32 166,49" />
<polygon fill="#000116" fill-opacity="0.501961" points="185,153 217,158 198,115" />
<polygon fill="#898377" fill-opacity="0.501961" points="-1,143 55,144 52,129" />
<polygon fill="#bfdbd5" fill-opacity="0.501961" points="66,231 63,243 61,224" />
<polygon fill="#2b1322" fill-opacity="0.501961" points="101,128 116,130 121,110" />
<polygon fill="#fcfaf1" fill-opacity="0.501961" points="78,38 79,15 74,22" />
<polygon fill="#1b0019" fill-opacity="0.501961" points="199,34 231,36 219,42" />
<polygon fill="#7b8b8e" fill-opacity="0.501961" points="132,250 196,271 178,214" />
</g>
</svg>