<svg xmlns="http://www.w3.org/2000/svg" version="1.1" width="1024" height="1024">
<rect x="0" y="0" width="1024" height="1024" fill="#7eac7f" />
<g transform="scale(4.000000) translate(0.5 0.5)">
<polygon fill="#ffffff" fill-opacity="0.501961" points="-16,7 251,-16 271,74" />
<polygon fill="#111d20" fill-opacity="0.501961" points="210,201 133,271 -16,218" />
<polygon fill="#ffffff" fill-opacity="0.501961" points="-16,-5 88,-16 51,77" />
<polygon fill="#025b00" fill-opacity="0.501961" points="226,42 169,233 242,140" />
<polygon fill="#3c9a16" fill-opacity="0.501961" points="158,153 86,58 -16,172" />
<polygon fill="#000000" fill-opacity="0.501961" points="220,271 262,187 271,238" />
<polygon fill="#009200" fill-opacity="0.501961" points="148,107 177,31 204,40" />
<polygon fill="#ffffff" fill-opacity="0.501961" points="15,-16 208,15 -16,40" />
<polygon fill="#e4e7ff" fill-opacity="0.501961" points="271,175 242,135 209,268" />
<polygon fill="#002e00" fill-opacity="0.501961" points="85,238 119,214 111,120" />
<polygon fill="#4ca028" fill-opacity="0.501961" points="71,221 -12,109 25,20" />
<polygon fill="#ffffff" fill-opacity="0.501961" points="118,47 90,63 90,-16" />
<polygon fill="#6fd654" fill-opacity="0.501961" points="139,28 -16,138 170,119" />
<polygon fill="#e9faff" fill-opacity="0.501961" points="271,-15 199,2 252,104" />
<polygon fill="#b4c5c3" fill-opacity="0.501961" points="228,209 156,144 159,215" />
<polygon fill="#295623" fill-opacity="0.501961" points="186,118 180,180 232,194" />
<polygon fill="#1d3d29" fill-opacity="0.501961" points="49,118 76,260 40,186" />
<polygon fill="#ffffff" fill-opacity="0.501961" points="0,94 -16,16 13,13" />
<polygon fill="#001a00" fill-opacity="0.501961" points="7,39 33,35 31,53" />
<polygon fill="#002e00" fill-opacity="0.501961" points="142,35 118,37 142,54" />
<polygon fill="#002607" fill-opacity="0.501961" points="154,171 119,225 152,219" />
<polygon fill="#f6ffff" fill-opacity="0.501961" points="66,51 34,-16 35,101" />
<polygon fill="#004b00" fill-opacity="0.501961" points="65,53 91,35 63,32" />
<polygon fill="#71687a" fill-opacity="0.501961" points="-12,255 229,271 146,220" />
<polygon fill="#140f26" fill-opacity="0.501961" points="-14,174 6,159 8,244" />
<polygon fill="#000000" fill-opacity="0.501961" points="271,232 271,169 223,271" />
<polygon fill="#00ac00" fill-opacity="0.501961" points="235,55 218,55 216,117" />
<polygon fill="#90e482" fill-opacity="0.501961" points="140,131 193,41 210,131" />
<polygon fill="#0a2900" fill-opacity="0.501961" points="207,188 239,138 212,111" />
<polygon fill="#d7ecfb" fill-opacity="0.501961" points="215,-11 154,62 109,-16" />
<polygon fill="#dad2e8" fill-opacity="0.501961" points="120,148 147,197 117,197" />
<polygon fill="#d0dbee" fill-opacity="0.501961" points="35,219 19,201 56,180" />
<polygon fill="#005d08" fill-opacity="0.501961" points="171,36 198,61 199,35" />
<polygon fill="#ffffff" fill-opacity="0.501961" points="75,211 65,191 91,196" />
<polygon fill="#ffffff" fill-opacity="0.501961" points="19,249 31,237 -16,244" />
<polygon fill="#ffffff" fill-opacity="0.501961" points="70,227 61,227 79,246" />
<polygon fill="#cfffb4" fill-opacity="0.501961" points="12,109 11,62 27,50" />
<polygon fill="#fbffff" fill-opacity="0.501961" points="106,64 139,-5 69,-12" />
<polygon fill="#4ad009" fill-opacity="0.501961" points="42,66 20,63 14,127" />
<polygon fill="#1aa023" fill-opacity="0.501961" points="172,63 155,125 144,55" />
<polygon fill="#b5d8d1" fill-opacity="0.501961" points="107,67 98,124 114,125" />
<polygon fill="#001800" fill-opacity="0.501961" points="164,215 194,255 134,208" />
<polygon fill="#265624" fill-opacity="0.501961" points="141,172 91,180 88,166" />
<polygon fill="#13421d" fill-opacity="0.501961" points="3,239 106,223 67,203" />
<polygon fill="#e4bfd3" fill-opacity="0.501961" points="21,168 45,178 1,197" />
<polygon fill="#ffd0e1" fill-opacity="0.501961" points="62,154 60,178 88,177" />
<polygon fill="#fcfdff" fill-opacity="0.501961" points="2,206 5,271 -8,246" />
<polygon fill="#6e6e85" fill-opacity="0.501961" points="165,230 232,223 207,252" />
<polygon fill="#ddeff9" fill-opacity="0.501961" points="271,-16 200,83 200,26" />
<polygon fill="#ffffff" fill-opacity="0.501961" points="56,247 -9,271 82,271" />
<polygon fill="#faffff" fill-opacity="0.501961" points="-16,26 70,-16 63,41" />
<polygon fill="#347005" fill-opacity="0.501961" points="62,123 -10,153 91,140" />
<polygon fill="#ffffff" fill-opacity="0.501961" points="164,244 143,227 153,242" />
<polygon fill="#3dc809" fill-opacity="0.501961" points="64,120 93,107 88,36" />
<polygon fill="#ffffff" fill-opacity="0.501961" points="131,246 135,258 115,237" />
<polygon fill="#a9ff81" fill-opacity="0.501961" points="66,98 64,45 86,46" />
<polygon fill="#032302" fill-opacity="0.501961" points="109,173 135,240 105,207" />
<polygon fill="#ffccd1" fill-opacity="0.501961" points="129,151 144,168 116,169" />
<polygon fill="#ffffff" fill-opacity="0.501961" points="178,192 165,204 154,186" />
<polygon fill="#4c8342" fill-opacity="0.501961" points="179,124 185,239 215,133" />
<polygon fill="#95c4c1" fill-opacity="0.501961" points="234,114 264,176 263,62" />
<polygon fill="#000000" fill-opacity="0.501961" points="189,263 164,241 180,248" />
<polygon fill="#27242b" fill-opacity="0.501961" points="5,250 55,243 1,269" />
<polygon fill="#ffffff" fill-opacity="0.501961" points="97,246 110,258 94,232" />
<polygon fill="#3f5459" fill-opacity="0.501961" points="12,241 27,186 10,185" />
<polygon fill="#000000" fill-opacity="0.501961" points="102,251 101,263 87,236" />
<polygon fill="#b7cec5" fill-opacity="0.501961" points="148,254 124,242 111,215" />
<polygon fill="#000000" fill-opacity="0.501961" points="110,236 125,263 140,266" />
<polygon fill="#ddf6ef" fill-opacity="0.501961" points="148,237 158,256 138,235" />
<polygon fill="#ffffff" fill-opacity="0.501961" points="117,247 101,232 109,245" />
<polygon fill="#2db300" fill-opacity="0.501961" points="110,87 138,104 127,113" />
<polygon fill="#000000" fill-opacity="0.501961" points="154,264 135,237 178,271" />
<polygon fill="#d4e8eb" fill-opacity="0.501961" points="150,-16 176,46 155,64" />
<polygon fill="#1e5617" fill-opacity="0.501961" points="157,138 154,170 139,173" />
<polygon fill="#d2e5c5" fill-opacity="0.501961" points="184,175 157,123 157,172" />
<polygon fill="#ffffff" fill-opacity="0.501961" points="231,232 185,271 206,271" />
<polygon fill="#c0e4be" fill-opacity="0.501961" points="180,123 157,133 182,52" />
<polygon fill="#001205" fill-opacity="0.501961" points="117,229 142,252 129,249" />
<polygon fill="#709c76" fill-opacity="0.501961" points="84,219 103,212 99,161" />
<polygon fill="#33de30" fill-opacity="0.501961" points="174,43 198,81 200,47" />
<polygon fill="#ffffff" fill-opacity="0.501961" points="82,257 74,242 83,245" />
<polygon fill="#005100" fill-opacity="0.501961" points="9,56 32,41 10,35" />
<polygon fill="#3f7b2e" fill-opacity="0.501961" points="157,137 55,165 113,122" />
<polygon fill="#004501" fill-opacity="0.501961" points="143,39 123,35 119,50" />
<polygon fill="#68a778" fill-opacity="0.501961" points="41,69 59,137 37,120" />
<polygon fill="#02a501" fill-opacity="0.501961" points="230,106 215,54 230,57" />
<polygon fill="#000800" fill-opacity="0.501961" points="159,251 158,242 139,232" />
<polygon fill="#becdd3" fill-opacity="0.501961" points="202,205 236,229 271,161" />
<polygon fill="#001300" fill-opacity="0.501961" points="218,191 232,181 205,185" />
<polygon fill="#ffffff" fill-opacity="0.501961" points="169,230 180,241 194,244" />
<polygon fill="#001e00" fill-opacity="0.501961" points="52,215 73,263 49,233" />
<polygon fill="#004012" fill-opacity="0.501961" points="88,47 67,32 88,31" />
<polygon fill="#cde9d6" fill-opacity="0.501961" points="203,118 211,125 210,146" />
<polygon fill="#ffffff" fill-opacity="0.501961" points="81,236 89,242 93,252" />
<polygon fill="#ffffff" fill-opacity="0.501961" points="160,241 177,254 163,250" />
<polygon fill="#ffffff" fill-opacity="0.501961" points="31,242 25,231 28,254" />
<polygon fill="#ceedc0" fill-opacity="0.501961" points="138,96 156,132 145,76" />
<polygon fill="#effeff" fill-opacity="0.501961" points="47,104 42,44 58,45" />
<polygon fill="#000000" fill-opacity="0.501961" points="78,271 67,235 82,257" />
<polygon fill="#ddebec" fill-opacity="0.501961" points="67,229 70,257 61,235" />
</g>
</svg>