<svg xmlns="http://www.w3.org/2000/svg" version="1.1" width="1024" height="1024">
<rect x="0" y="0" width="1024" height="1024" fill="#7d603e" />
<g transform="scale(4.000000) translate(0.5 0.5)">
<polygon fill="#ffeb63" fill-opacity="0.501961" points="112,-1 13,165 271,153" />
<polygon fill="#000013" fill-opacity="0.501961" points="80,-7 -16,-3 15,227" />
<polygon fill="#000420" fill-opacity="0.501961" points="243,264 214,156 18,208" />
<polygon fill="#000000" fill-opacity="0.501961" points="62,-3 260,-1 271,64" />
<polygon fill="#ffc725" fill-opacity="0.501961" points="52,50 163,205 189,9" />
<polygon fill="#fff0cf" fill-opacity="0.501961" points="201,70 249,150 271,60" />
<polygon fill="#c5e2ff" fill-opacity="0.501961" points="53,87 99,166 15,154" />
<polygon fill="#000000" fill-opacity="0.501961" points="193,95 180,-16 271,7" />
<polygon fill="#ff1600" fill-opacity="0.501961" points="250,199 268,143 180,137" />
<polygon fill="#7b9ae9" fill-opacity="0.501961" points="139,162 225,77 158,200" />
<polygon fill="#000000" fill-opacity="0.501961" points="232,199 185,116 172,239" />
<polygon fill="#000013" fill-opacity="0.501961" points="70,195 -4,106 50,246" />
<polygon fill="#ff9d00" fill-opacity="0.501961" points="119,168 191,101 56,89" />
<polygon fill="#ff62d9" fill-opacity="0.501961" points="-9,213 -5,172 46,199" />
<polygon fill="#00070f" fill-opacity="0.501961" points="-16,207 90,-16 -10,-11" />
<polygon fill="#ffceab" fill-opacity="0.501961" points="72,26 137,16 112,104" />
<polygon fill="#aac6d0" fill-opacity="0.501961" points="163,207 122,260 170,245" />
<polygon fill="#ffb400" fill-opacity="0.501961" points="196,52 147,14 121,176" />
<polygon fill="#2a3e4c" fill-opacity="0.501961" points="154,247 104,154 -9,257" />
<polygon fill="#d7e3f4" fill-opacity="0.501961" points="39,106 72,201 88,134" />
<polygon fill="#000000" fill-opacity="0.501961" points="271,24 175,-16 68,12" />
<polygon fill="#becfd7" fill-opacity="0.501961" points="79,237 36,271 74,211" />
<polygon fill="#ffab84" fill-opacity="0.501961" points="203,68 271,59 233,165" />
<polygon fill="#eff9ff" fill-opacity="0.501961" points="171,140 130,157 193,162" />
<polygon fill="#b4abc3" fill-opacity="0.501961" points="212,212 271,213 248,237" />
<polygon fill="#00080c" fill-opacity="0.501961" points="160,200 139,158 127,250" />
<polygon fill="#000001" fill-opacity="0.501961" points="189,69 271,51 249,-16" />
<polygon fill="#000003" fill-opacity="0.501961" points="64,94 -16,63 62,57" />
<polygon fill="#ff9800" fill-opacity="0.501961" points="192,94 186,31 118,164" />
<polygon fill="#767977" fill-opacity="0.501961" points="43,168 21,116 43,100" />
<polygon fill="#c1a496" fill-opacity="0.501961" points="132,214 108,146 134,180" />
<polygon fill="#ff2400" fill-opacity="0.501961" points="261,150 200,158 269,202" />
<polygon fill="#2554ac" fill-opacity="0.501961" points="183,122 191,85 209,89" />
<polygon fill="#03030d" fill-opacity="0.501961" points="15,187 -16,143 101,209" />
<polygon fill="#00080a" fill-opacity="0.501961" points="173,161 160,210 256,203" />
<polygon fill="#000406" fill-opacity="0.501961" points="30,271 -16,250 48,231" />
<polygon fill="#d49813" fill-opacity="0.501961" points="64,44 70,105 94,-16" />
<polygon fill="#0b0d07" fill-opacity="0.501961" points="228,271 180,271 195,125" />
<polygon fill="#000000" fill-opacity="0.501961" points="123,190 109,224 105,148" />
<polygon fill="#8a928f" fill-opacity="0.501961" points="111,146 -16,150 79,173" />
<polygon fill="#ffc20f" fill-opacity="0.501961" points="187,35 155,15 102,147" />
<polygon fill="#ffa200" fill-opacity="0.501961" points="61,95 196,128 88,138" />
<polygon fill="#de0000" fill-opacity="0.501961" points="271,58 242,55 252,71" />
<polygon fill="#e7ecef" fill-opacity="0.501961" points="45,160 61,89 87,158" />
<polygon fill="#969fa1" fill-opacity="0.501961" points="103,206 78,179 100,221" />
<polygon fill="#ffbd5c" fill-opacity="0.501961" points="68,91 147,99 130,31" />
<polygon fill="#e1ffff" fill-opacity="0.501961" points="88,271 162,262 124,249" />
<polygon fill="#c9afc6" fill-opacity="0.501961" points="225,181 257,190 250,198" />
<polygon fill="#fffffb" fill-opacity="0.501961" points="119,235 118,223 110,231" />
<polygon fill="#cfe0ec" fill-opacity="0.501961" points="68,249 42,271 45,243" />
<polygon fill="#fc865a" fill-opacity="0.501961" points="271,106 206,158 205,119" />
<polygon fill="#d3e1e8" fill-opacity="0.501961" points="151,185 159,145 168,188" />
<polygon fill="#d1cee5" fill-opacity="0.501961" points="99,18 115,33 146,17" />
<polygon fill="#fa71b9" fill-opacity="0.501961" points="12,191 -16,155 3,245" />
<polygon fill="#c86ea3" fill-opacity="0.501961" points="23,224 33,191 37,235" />
<polygon fill="#45001c" fill-opacity="0.501961" points="-16,225 18,202 48,207" />
<polygon fill="#6d666d" fill-opacity="0.501961" points="189,112 193,162 166,137" />
<polygon fill="#0f0b13" fill-opacity="0.501961" points="171,-16 201,84 229,-3" />
<polygon fill="#0a0000" fill-opacity="0.501961" points="43,172 40,234 72,207" />
<polygon fill="#adabbc" fill-opacity="0.501961" points="243,199 226,202 230,222" />
<polygon fill="#abb5b9" fill-opacity="0.501961" points="161,202 152,243 168,271" />
<polygon fill="#656a79" fill-opacity="0.501961" points="107,151 84,133 106,203" />
<polygon fill="#0a040a" fill-opacity="0.501961" points="96,-16 94,17 201,16" />
<polygon fill="#000000" fill-opacity="0.501961" points="97,166 96,199 83,164" />
<polygon fill="#141c1d" fill-opacity="0.501961" points="115,271 90,271 112,181" />
<polygon fill="#dec09f" fill-opacity="0.501961" points="202,130 271,72 214,64" />
<polygon fill="#39292c" fill-opacity="0.501961" points="218,227 242,219 247,271" />
<polygon fill="#8f9997" fill-opacity="0.501961" points="61,142 64,191 90,187" />
<polygon fill="#616889" fill-opacity="0.501961" points="65,46 45,45 59,65" />
<polygon fill="#ff9400" fill-opacity="0.501961" points="140,153 191,59 185,118" />
<polygon fill="#ffcc51" fill-opacity="0.501961" points="139,26 184,33 167,17" />
<polygon fill="#274c7b" fill-opacity="0.501961" points="15,101 -16,132 3,78" />
<polygon fill="#171c39" fill-opacity="0.501961" points="133,19 133,28 147,21" />
<polygon fill="#6d985c" fill-opacity="0.501961" points="76,26 84,-10 97,25" />
<polygon fill="#353743" fill-opacity="0.501961" points="157,164 128,179 121,165" />
<polygon fill="#ffa900" fill-opacity="0.501961" points="185,109 109,152 64,104" />
<polygon fill="#560133" fill-opacity="0.501961" points="27,236 16,181 9,241" />
<polygon fill="#542b13" fill-opacity="0.501961" points="204,131 183,126 194,162" />
<polygon fill="#8a8680" fill-opacity="0.501961" points="51,138 26,107 24,156" />
<polygon fill="#d8fdff" fill-opacity="0.501961" points="120,155 107,160 110,152" />
<polygon fill="#75829c" fill-opacity="0.501961" points="69,110 62,88 37,99" />
<polygon fill="#9dacc7" fill-opacity="0.501961" points="192,94 186,130 212,125" />
<polygon fill="#d20000" fill-opacity="0.501961" points="210,165 224,181 271,173" />
<polygon fill="#ff731f" fill-opacity="0.501961" points="269,132 254,166 205,159" />
<polygon fill="#434e50" fill-opacity="0.501961" points="150,211 164,214 174,166" />
<polygon fill="#ffb800" fill-opacity="0.501961" points="179,122 154,22 132,59" />
<polygon fill="#4b4750" fill-opacity="0.501961" points="-16,156 13,144 69,173" />
<polygon fill="#010a19" fill-opacity="0.501961" points="196,48 192,83 208,99" />
<polygon fill="#060100" fill-opacity="0.501961" points="7,-16 -16,41 70,4" />
<polygon fill="#7f746b" fill-opacity="0.501961" points="132,209 134,228 117,208" />
<polygon fill="#1e2b41" fill-opacity="0.501961" points="238,212 236,192 271,204" />
<polygon fill="#646d6f" fill-opacity="0.501961" points="56,240 73,209 106,271" />
<polygon fill="#fec586" fill-opacity="0.501961" points="82,33 135,101 111,14" />
<polygon fill="#fe9a00" fill-opacity="0.501961" points="79,129 139,164 62,68" />
<polygon fill="#121209" fill-opacity="0.501961" points="77,194 83,241 94,210" />
<polygon fill="#969eb3" fill-opacity="0.501961" points="239,230 250,259 251,209" />
<polygon fill="#000000" fill-opacity="0.501961" points="228,-16 231,62 271,39" />
<polygon fill="#4e454d" fill-opacity="0.501961" points="219,252 264,226 270,265" />
<polygon fill="#40586c" fill-opacity="0.501961" points="187,248 142,249 132,271" />
<polygon fill="#fab683" fill-opacity="0.501961" points="271,167 258,88 208,89" />
</g>
</svg>