<svg xmlns="http://www.w3.org/2000/svg" version="1.1" width="1024" height="1024">
<rect x="0" y="0" width="1024" height="1024" fill="#c5c6d3" />
<g transform="scale(4.000000) translate(0.5 0.5)">
<polygon fill="#492f33" fill-opacity="0.501961" points="271,129 153,139 90,-16" />
<polygon fill="#ffffff" fill-opacity="0.501961" points="-1,271 271,247 -16,143" />
<polygon fill="#514f55" fill-opacity="0.501961" points="95,203 24,113 83,90" />
<polygon fill="#feffff" fill-opacity="0.501961" points="271,256 225,127 -15,255" />
<polygon fill="#633e41" fill-opacity="0.501961" points="250,81 167,74 271,184" />
<polygon fill="#ffffff" fill-opacity="0.501961" points="263,86 140,60 262,23" />
<polygon fill="#ffffff" fill-opacity="0.501961" points="-16,38 105,33 -15,202" />
<polygon fill="#131528" fill-opacity="0.501961" points="60,36 30,30 30,-16" />
<polygon fill="#464c5e" fill-opacity="0.501961" points="124,-5 183,32 98,52" />
<polygon fill="#828187" fill-opacity="0.501961" points="50,175 20,95 121,146" />
<polygon fill="#f2f7ff" fill-opacity="0.501961" points="195,161 73,34 -16,36" />
<polygon fill="#000000" fill-opacity="0.501961" points="54,108 68,132 80,93" />
<polygon fill="#ffffff" fill-opacity="0.501961" points="139,111 39,152 99,105" />
<polygon fill="#593f46" fill-opacity="0.501961" points="122,9 124,115 148,95" />
<polygon fill="#fbffff" fill-opacity="0.501961" points="120,96 236,33 189,26" />
<polygon fill="#9f9ea7" fill-opacity="0.501961" points="129,196 21,195 133,108" />
<polygon fill="#3c476c" fill-opacity="0.501961" points="251,33 194,1 207,29" />
<polygon fill="#ffffff" fill-opacity="0.501961" points="129,174 79,166 84,141" />
<polygon fill="#24252d" fill-opacity="0.501961" points="105,130 77,138 113,156" />
<polygon fill="#eff8ff" fill-opacity="0.501961" points="271,226 94,271 149,138" />
<polygon fill="#a2abd1" fill-opacity="0.501961" points="37,20 101,-11 125,33" />
<polygon fill="#19202e" fill-opacity="0.501961" points="81,142 39,181 76,162" />
<polygon fill="#1e2632" fill-opacity="0.501961" points="102,194 111,185 71,163" />
<polygon fill="#242a34" fill-opacity="0.501961" points="145,93 171,64 169,104" />
<polygon fill="#e25a4c" fill-opacity="0.501961" points="215,130 178,145 245,74" />
<polygon fill="#b1bdcc" fill-opacity="0.501961" points="211,165 202,133 271,106" />
<polygon fill="#1f2f3a" fill-opacity="0.501961" points="271,96 210,133 241,89" />
<polygon fill="#e3eefa" fill-opacity="0.501961" points="168,91 170,122 186,86" />
<polygon fill="#f4fdff" fill-opacity="0.501961" points="0,245 41,161 -3,22" />
<polygon fill="#36363d" fill-opacity="0.501961" points="137,134 134,122 103,126" />
<polygon fill="#f9ffff" fill-opacity="0.501961" points="271,80 177,69 154,30" />
<polygon fill="#eaebf1" fill-opacity="0.501961" points="65,163 41,191 102,189" />
<polygon fill="#fdffff" fill-opacity="0.501961" points="49,171 43,159 72,146" />
<polygon fill="#152227" fill-opacity="0.501961" points="136,63 127,10 120,82" />
<polygon fill="#514c59" fill-opacity="0.501961" points="23,98 30,118 59,112" />
<polygon fill="#061116" fill-opacity="0.501961" points="188,85 179,110 207,93" />
<polygon fill="#321226" fill-opacity="0.501961" points="107,81 110,65 115,82" />
<polygon fill="#fdffff" fill-opacity="0.501961" points="133,89 90,134 89,75" />
<polygon fill="#f8ffff" fill-opacity="0.501961" points="120,72 124,49 112,43" />
<polygon fill="#5d5352" fill-opacity="0.501961" points="138,161 126,189 125,158" />
<polygon fill="#000005" fill-opacity="0.501961" points="105,34 107,47 130,38" />
<polygon fill="#ced1d8" fill-opacity="0.501961" points="165,127 154,155 211,107" />
<polygon fill="#8c92af" fill-opacity="0.501961" points="48,36 121,21 40,9" />
<polygon fill="#343546" fill-opacity="0.501961" points="54,132 79,91 85,122" />
<polygon fill="#edeef8" fill-opacity="0.501961" points="-2,161 26,126 79,138" />
<polygon fill="#f3f9ff" fill-opacity="0.501961" points="271,28 271,104 184,38" />
<polygon fill="#ff3c2c" fill-opacity="0.501961" points="136,86 153,81 125,108" />
<polygon fill="#32323d" fill-opacity="0.501961" points="146,73 154,34 164,47" />
<polygon fill="#505661" fill-opacity="0.501961" points="262,150 238,159 228,130" />
<polygon fill="#eff6ff" fill-opacity="0.501961" points="74,18 -11,98 70,97" />
<polygon fill="#000b1d" fill-opacity="0.501961" points="63,145 41,151 52,155" />
<polygon fill="#1d233f" fill-opacity="0.501961" points="156,169 146,181 155,177" />
<polygon fill="#f3faff" fill-opacity="0.501961" points="11,271 271,212 -16,199" />
<polygon fill="#e8e8f0" fill-opacity="0.501961" points="178,150 108,149 110,130" />
<polygon fill="#022e39" fill-opacity="0.501961" points="210,120 195,122 188,137" />
<polygon fill="#e1e7ff" fill-opacity="0.501961" points="64,20 108,1 45,-13" />
<polygon fill="#140d17" fill-opacity="0.501961" points="267,38 246,-11 268,4" />
<polygon fill="#aeadb2" fill-opacity="0.501961" points="155,43 126,58 141,31" />
<polygon fill="#2d2a2e" fill-opacity="0.501961" points="39,35 42,-16 31,15" />
<polygon fill="#f9feff" fill-opacity="0.501961" points="146,108 92,111 147,127" />
<polygon fill="#947582" fill-opacity="0.501961" points="17,202 43,199 29,189" />
<polygon fill="#ffb9af" fill-opacity="0.501961" points="217,73 207,91 203,85" />
<polygon fill="#ff877b" fill-opacity="0.501961" points="209,106 210,127 235,98" />
<polygon fill="#033344" fill-opacity="0.501961" points="217,79 224,101 216,114" />
<polygon fill="#f8fcff" fill-opacity="0.501961" points="51,15 46,27 42,5" />
<polygon fill="#f2f2fd" fill-opacity="0.501961" points="99,179 74,156 126,176" />
<polygon fill="#dbe1fb" fill-opacity="0.501961" points="64,210 231,148 271,207" />
<polygon fill="#181c28" fill-opacity="0.501961" points="95,177 74,169 68,155" />
<polygon fill="#fbffff" fill-opacity="0.501961" points="135,170 171,138 225,170" />
<polygon fill="#000e1e" fill-opacity="0.501961" points="183,72 200,87 207,80" />
<polygon fill="#b2b5d8" fill-opacity="0.501961" points="186,35 267,-15 140,12" />
<polygon fill="#161d22" fill-opacity="0.501961" points="156,105 171,72 181,76" />
<polygon fill="#cccad3" fill-opacity="0.501961" points="253,210 227,123 203,142" />
<polygon fill="#565666" fill-opacity="0.501961" points="62,23 52,30 50,1" />
<polygon fill="#161b2c" fill-opacity="0.501961" points="220,81 234,82 233,93" />
<polygon fill="#eef4ff" fill-opacity="0.501961" points="66,99 111,25 -16,72" />
<polygon fill="#c996a8" fill-opacity="0.501961" points="190,80 171,61 143,56" />
<polygon fill="#4b4d6b" fill-opacity="0.501961" points="95,73 83,66 89,62" />
<polygon fill="#d2c5bf" fill-opacity="0.501961" points="58,109 60,120 32,137" />
<polygon fill="#90929d" fill-opacity="0.501961" points="148,137 169,137 149,92" />
<polygon fill="#4e5467" fill-opacity="0.501961" points="196,11 216,30 243,30" />
<polygon fill="#6b6c80" fill-opacity="0.501961" points="90,29 114,21 78,16" />
<polygon fill="#f46a61" fill-opacity="0.501961" points="229,108 223,93 247,74" />
<polygon fill="#f1f7ff" fill-opacity="0.501961" points="121,121 128,92 37,53" />
<polygon fill="#323643" fill-opacity="0.501961" points="80,146 44,174 66,166" />
<polygon fill="#35343d" fill-opacity="0.501961" points="113,55 102,49 99,54" />
<polygon fill="#d1d2d9" fill-opacity="0.501961" points="119,17 127,37 109,26" />
<polygon fill="#171920" fill-opacity="0.501961" points="116,16 127,28 148,30" />
<polygon fill="#cfd9ff" fill-opacity="0.501961" points="6,72 -6,-11 34,-16" />
<polygon fill="#1f3041" fill-opacity="0.501961" points="271,123 236,145 256,122" />
<polygon fill="#e6eeff" fill-opacity="0.501961" points="247,89 242,-15 271,62" />
<polygon fill="#884851" fill-opacity="0.501961" points="190,142 175,144 180,132" />
<polygon fill="#3c3f4a" fill-opacity="0.501961" points="105,196 90,194 85,187" />
<polygon fill="#d0d5dd" fill-opacity="0.501961" points="168,91 181,102 184,81" />
<polygon fill="#272a35" fill-opacity="0.501961" points="57,101 76,100 72,130" />
<polygon fill="#979cbd" fill-opacity="0.501961" points="202,14 252,31 187,-16" />
<polygon fill="#ecf1ff" fill-opacity="0.501961" points="3,37 45,186 -16,179" />
<polygon fill="#707a8d" fill-opacity="0.501961" points="87,143 78,150 83,119" />
<polygon fill="#f1f7ff" fill-opacity="0.501961" points="16,201 250,271 268,208" />
<polygon fill="#13161a" fill-opacity="0.501961" points="137,46 127,75 140,57" />
</g>
</svg>