<svg xmlns="http://www.w3.org/2000/svg" version="1.1" width="1024" height="1024">
<rect x="0" y="0" width="1024" height="1024" fill="#d3d3d7" />
<g transform="scale(4.000000) translate(0.5 0.5)">
<polygon fill="#8a655d" fill-opacity="0.501961" points="145,97 110,229 107,60" />
<polygon fill="#78000d" fill-opacity="0.501961" points="216,218 195,215 208,137" />
<polygon fill="#555a47" fill-opacity="0.501961" points="203,101 230,132 238,56" />
<polygon fill="#faffff" fill-opacity="0.501961" points="271,-14 161,72 -16,6" />
<polygon fill="#696c5e" fill-opacity="0.501961" points="84,53 78,104 39,72" />
<polygon fill="#f5f9ff" fill-opacity="0.501961" points="93,175 4,-16 -16,141" />
<polygon fill="#f5f2eb" fill-opacity="0.501961" points="205,121 95,130 200,204" />
<polygon fill="#000b00" fill-opacity="0.501961" points="130,78 137,96 107,95" />
<polygon fill="#982934" fill-opacity="0.501961" points="112,150 105,225 123,210" />
<polygon fill="#ccccc0" fill-opacity="0.501961" points="115,210 123,103 186,271" />
<polygon fill="#fdf8ff" fill-opacity="0.501961" points="158,255 255,271 271,196" />
<polygon fill="#ffffff" fill-opacity="0.501961" points="271,6 229,-16 254,153" />
<polygon fill="#9d0311" fill-opacity="0.501961" points="207,175 213,137 202,138" />
<polygon fill="#bdc5cd" fill-opacity="0.501961" points="75,135 149,46 90,13" />
<polygon fill="#631500" fill-opacity="0.501961" points="216,88 235,77 235,100" />
<polygon fill="#b7b9bf" fill-opacity="0.501961" points="91,120 233,36 244,78" />
<polygon fill="#eff2f4" fill-opacity="0.501961" points="209,206 260,88 211,149" />
<polygon fill="#61030e" fill-opacity="0.501961" points="207,191 213,215 189,213" />
<polygon fill="#f4f5ff" fill-opacity="0.501961" points="127,218 59,271 -12,242" />
<polygon fill="#a70004" fill-opacity="0.501961" points="112,183 106,149 119,143" />
<polygon fill="#afbdd0" fill-opacity="0.501961" points="108,209 -1,152 -5,239" />
<polygon fill="#f6f8ff" fill-opacity="0.501961" points="-16,-8 34,66 126,-7" />
<polygon fill="#683513" fill-opacity="0.501961" points="112,128 140,120 114,116" />
<polygon fill="#969b96" fill-opacity="0.501961" points="85,108 72,49 28,82" />
<polygon fill="#f7f6fa" fill-opacity="0.501961" points="94,138 26,200 67,107" />
<polygon fill="#fbfaff" fill-opacity="0.501961" points="141,-4 202,-9 141,110" />
<polygon fill="#207164" fill-opacity="0.501961" points="213,110 233,110 211,126" />
<polygon fill="#737670" fill-opacity="0.501961" points="167,93 148,95 160,109" />
<polygon fill="#9da5b1" fill-opacity="0.501961" points="106,222 75,211 110,184" />
<polygon fill="#175a1b" fill-opacity="0.501961" points="106,91 120,101 131,80" />
<polygon fill="#c2c6d0" fill-opacity="0.501961" points="183,18 236,31 193,135" />
<polygon fill="#dedcd8" fill-opacity="0.501961" points="119,141 115,202 198,70" />
<polygon fill="#871d11" fill-opacity="0.501961" points="138,117 140,125 144,110" />
<polygon fill="#faf7fc" fill-opacity="0.501961" points="203,130 202,188 164,203" />
<polygon fill="#c6d1d6" fill-opacity="0.501961" points="116,101 103,147 70,41" />
<polygon fill="#c4c5c1" fill-opacity="0.501961" points="208,176 218,240 271,144" />
<polygon fill="#a7797f" fill-opacity="0.501961" points="195,59 240,87 220,59" />
<polygon fill="#b1b3b0" fill-opacity="0.501961" points="177,119 164,129 216,139" />
<polygon fill="#bfc7c4" fill-opacity="0.501961" points="271,111 197,88 215,109" />
<polygon fill="#bebaad" fill-opacity="0.501961" points="46,187 -16,200 9,147" />
<polygon fill="#f5f2f5" fill-opacity="0.501961" points="174,197 209,229 188,265" />
<polygon fill="#74000a" fill-opacity="0.501961" points="101,218 115,207 111,220" />
<polygon fill="#f1eff2" fill-opacity="0.501961" points="198,135 271,157 271,113" />
<polygon fill="#c9c6c0" fill-opacity="0.501961" points="187,228 116,271 120,138" />
<polygon fill="#b46587" fill-opacity="0.501961" points="93,72 112,66 95,59" />
<polygon fill="#75807d" fill-opacity="0.501961" points="175,72 164,73 177,90" />
<polygon fill="#cac9d1" fill-opacity="0.501961" points="129,18 93,86 137,78" />
<polygon fill="#f8f4f3" fill-opacity="0.501961" points="190,155 134,78 160,150" />
<polygon fill="#cadce6" fill-opacity="0.501961" points="213,23 244,33 235,82" />
<polygon fill="#c1c7cf" fill-opacity="0.501961" points="63,88 26,66 67,137" />
<polygon fill="#e4e6ee" fill-opacity="0.501961" points="186,49 152,59 197,90" />
<polygon fill="#dadad9" fill-opacity="0.501961" points="175,118 75,163 120,126" />
<polygon fill="#cbd4e5" fill-opacity="0.501961" points="3,205 62,248 97,153" />
<polygon fill="#7e2b2b" fill-opacity="0.501961" points="224,71 241,93 227,90" />
<polygon fill="#ded6c9" fill-opacity="0.501961" points="167,142 130,203 190,177" />
<polygon fill="#260908" fill-opacity="0.501961" points="122,84 130,95 119,100" />
<polygon fill="#96b1b4" fill-opacity="0.501961" points="214,226 193,215 237,220" />
<polygon fill="#e4e6f1" fill-opacity="0.501961" points="209,196 242,228 209,160" />
<polygon fill="#706557" fill-opacity="0.501961" points="74,80 72,62 59,83" />
<polygon fill="#9b1015" fill-opacity="0.501961" points="208,187 201,201 205,169" />
<polygon fill="#c0cbcc" fill-opacity="0.501961" points="196,132 227,119 248,137" />
<polygon fill="#a0a3ad" fill-opacity="0.501961" points="200,200 185,199 185,217" />
<polygon fill="#f6f3fb" fill-opacity="0.501961" points="55,125 45,170 -16,111" />
<polygon fill="#fbf9fd" fill-opacity="0.501961" points="140,23 52,-16 247,3" />
<polygon fill="#941018" fill-opacity="0.501961" points="113,196 117,216 109,207" />
<polygon fill="#c8c4bc" fill-opacity="0.501961" points="209,201 231,146 271,191" />
<polygon fill="#edebed" fill-opacity="0.501961" points="204,171 161,200 203,143" />
<polygon fill="#c4d7dc" fill-opacity="0.501961" points="121,118 139,102 132,119" />
<polygon fill="#b22330" fill-opacity="0.501961" points="115,159 106,146 119,147" />
<polygon fill="#b4c0d8" fill-opacity="0.501961" points="38,271 110,240 171,253" />
<polygon fill="#a81021" fill-opacity="0.501961" points="205,139 204,163 213,139" />
<polygon fill="#eaeaf1" fill-opacity="0.501961" points="33,224 110,243 126,220" />
<polygon fill="#6e2c36" fill-opacity="0.501961" points="207,204 222,216 190,209" />
<polygon fill="#fefafe" fill-opacity="0.501961" points="244,26 271,87 243,113" />
<polygon fill="#dadedf" fill-opacity="0.501961" points="191,129 167,110 219,114" />
<polygon fill="#604e3a" fill-opacity="0.501961" points="71,92 79,104 77,93" />
<polygon fill="#b0c0dc" fill-opacity="0.501961" points="-16,211 20,240 61,201" />
<polygon fill="#cad3da" fill-opacity="0.501961" points="73,72 148,31 100,14" />
<polygon fill="#faf9fe" fill-opacity="0.501961" points="185,160 157,134 200,133" />
<polygon fill="#ccd8df" fill-opacity="0.501961" points="63,27 65,68 44,62" />
<polygon fill="#48b73b" fill-opacity="0.501961" points="108,97 110,87 125,99" />
<polygon fill="#e0dacf" fill-opacity="0.501961" points="110,193 73,163 104,126" />
<polygon fill="#000c11" fill-opacity="0.501961" points="214,109 210,104 207,104" />
<polygon fill="#ebedf6" fill-opacity="0.501961" points="95,51 -16,29 19,-16" />
<polygon fill="#c284a2" fill-opacity="0.501961" points="196,57 232,66 188,67" />
<polygon fill="#939798" fill-opacity="0.501961" points="148,102 150,80 163,97" />
<polygon fill="#c6ccd2" fill-opacity="0.501961" points="110,78 75,85 108,143" />
<polygon fill="#efeef7" fill-opacity="0.501961" points="251,235 223,204 263,201" />
<polygon fill="#faf6fb" fill-opacity="0.501961" points="271,151 212,147 271,120" />
<polygon fill="#b5c1c9" fill-opacity="0.501961" points="242,68 225,48 243,108" />
<polygon fill="#f0ecf4" fill-opacity="0.501961" points="183,225 242,226 162,271" />
<polygon fill="#c0ccc9" fill-opacity="0.501961" points="228,66 201,108 190,71" />
<polygon fill="#23a321" fill-opacity="0.501961" points="229,90 230,95 217,91" />
<polygon fill="#785839" fill-opacity="0.501961" points="111,127 135,122 113,117" />
<polygon fill="#3e7b73" fill-opacity="0.501961" points="226,126 231,110 232,123" />
<polygon fill="#9e9c95" fill-opacity="0.501961" points="253,115 252,104 271,107" />
<polygon fill="#e1e8f3" fill-opacity="0.501961" points="71,30 -4,122 -16,28" />
<polygon fill="#acb2af" fill-opacity="0.501961" points="51,92 29,74 57,76" />
<polygon fill="#b4b0bd" fill-opacity="0.501961" points="131,89 135,69 139,89" />
<polygon fill="#e3ebf3" fill-opacity="0.501961" points="216,28 248,-16 271,54" />
</g>
</svg>