<svg xmlns="http://www.w3.org/2000/svg" version="1.1" width="1024" height="1024">
<rect x="0" y="0" width="1024" height="1024" fill="#a78052" />
<g transform="scale(4.000000) translate(0.5 0.5)">
<polygon fill="#ac0000" fill-opacity="0.501961" points="264,161 253,271 -16,244" />
<polygon fill="#a0c0e5" fill-opacity="0.501961" points="98,-16 91,135 271,181" />
<polygon fill="#f6e100" fill-opacity="0.501961" points="4,36 119,108 -16,240" />
<polygon fill="#0a0000" fill-opacity="0.501961" points="55,193 93,175 116,271" />
<polygon fill="#ffb900" fill-opacity="0.501961" points="102,209 174,165 170,271" />
<polygon fill="#838a9e" fill-opacity="0.501961" points="-16,0 271,-1 197,123" />
<polygon fill="#001e36" fill-opacity="0.501961" points="214,70 227,-16 248,81" />
<polygon fill="#d2e7ff" fill-opacity="0.501961" points="68,131 32,222 40,128" />
<polygon fill="#9e0000" fill-opacity="0.501961" points="166,271 193,146 271,249" />
<polygon fill="#cdffff" fill-opacity="0.501961" points="150,85 174,176 199,127" />
<polygon fill="#000018" fill-opacity="0.501961" points="-15,-16 22,36 4,44" />
<polygon fill="#d8ffff" fill-opacity="0.501961" points="92,161 110,222 109,173" />
<polygon fill="#ceab64" fill-opacity="0.501961" points="259,93 82,-16 208,137" />
<polygon fill="#43304f" fill-opacity="0.501961" points="271,240 225,194 245,86" />
<polygon fill="#d3a700" fill-opacity="0.501961" points="72,51 51,192 95,176" />
<polygon fill="#e98c00" fill-opacity="0.501961" points="114,264 144,143 176,247" />
<polygon fill="#98aedf" fill-opacity="0.501961" points="218,198 207,132 256,143" />
<polygon fill="#5d877c" fill-opacity="0.501961" points="102,75 103,156 162,122" />
<polygon fill="#a22e00" fill-opacity="0.501961" points="104,151 129,143 118,230" />
<polygon fill="#efff92" fill-opacity="0.501961" points="100,96 26,49 76,64" />
<polygon fill="#b75936" fill-opacity="0.501961" points="96,220 -8,193 6,271" />
<polygon fill="#2c0400" fill-opacity="0.501961" points="75,177 126,242 55,207" />
<polygon fill="#f7ffff" fill-opacity="0.501961" points="134,177 130,209 124,173" />
<polygon fill="#940000" fill-opacity="0.501961" points="271,167 240,271 166,247" />
<polygon fill="#ffb200" fill-opacity="0.501961" points="245,119 201,128 228,82" />
<polygon fill="#003352" fill-opacity="0.501961" points="241,6 233,85 214,16" />
<polygon fill="#d1a700" fill-opacity="0.501961" points="-2,191 -10,62 54,180" />
<polygon fill="#fa7300" fill-opacity="0.501961" points="86,61 -5,47 37,38" />
<polygon fill="#ebf3d7" fill-opacity="0.501961" points="25,193 51,215 54,182" />
<polygon fill="#7a8ba0" fill-opacity="0.501961" points="252,158 271,34 234,-4" />
<polygon fill="#defaff" fill-opacity="0.501961" points="49,125 58,154 34,171" />
<polygon fill="#c0f7ff" fill-opacity="0.501961" points="177,103 195,151 143,143" />
<polygon fill="#788095" fill-opacity="0.501961" points="16,36 155,53 -7,-16" />
<polygon fill="#b6948a" fill-opacity="0.501961" points="96,-16 88,152 193,13" />
<polygon fill="#bacdd6" fill-opacity="0.501961" points="82,61 112,52 174,115" />
<polygon fill="#d4b000" fill-opacity="0.501961" points="75,72 17,59 7,212" />
<polygon fill="#a85600" fill-opacity="0.501961" points="133,182 168,190 130,134" />
<polygon fill="#bd6000" fill-opacity="0.501961" points="57,155 94,204 92,158" />
<polygon fill="#000008" fill-opacity="0.501961" points="16,39 -7,-1 2,42" />
<polygon fill="#a4a7b9" fill-opacity="0.501961" points="57,243 31,271 45,231" />
<polygon fill="#ffd86e" fill-opacity="0.501961" points="234,104 205,84 199,120" />
<polygon fill="#ba4508" fill-opacity="0.501961" points="61,271 92,217 52,204" />
<polygon fill="#99416d" fill-opacity="0.501961" points="203,138 180,156 228,203" />
<polygon fill="#bbe4c8" fill-opacity="0.501961" points="46,53 -4,73 17,56" />
<polygon fill="#320000" fill-opacity="0.501961" points="235,222 271,230 249,177" />
<polygon fill="#aebef6" fill-opacity="0.501961" points="13,217 18,229 25,198" />
<polygon fill="#77a43f" fill-opacity="0.501961" points="166,55 217,57 248,95" />
<polygon fill="#9f7f7f" fill-opacity="0.501961" points="85,37 221,138 101,-16" />
<polygon fill="#b11200" fill-opacity="0.501961" points="7,220 14,271 50,271" />
<polygon fill="#e37a00" fill-opacity="0.501961" points="86,267 175,186 173,262" />
<polygon fill="#b8f3ff" fill-opacity="0.501961" points="232,144 214,169 211,136" />
<polygon fill="#e6fc99" fill-opacity="0.501961" points="102,115 92,149 88,81" />
<polygon fill="#d1f5ff" fill-opacity="0.501961" points="104,161 112,197 97,189" />
<polygon fill="#2a4e60" fill-opacity="0.501961" points="261,152 228,138 243,114" />
<polygon fill="#8b92d2" fill-opacity="0.501961" points="208,122 173,187 169,160" />
<polygon fill="#180000" fill-opacity="0.501961" points="117,218 119,238 81,241" />
<polygon fill="#d69600" fill-opacity="0.501961" points="40,159 65,188 43,186" />
<polygon fill="#c97a00" fill-opacity="0.501961" points="87,153 118,171 156,155" />
<polygon fill="#b00000" fill-opacity="0.501961" points="199,197 271,254 160,271" />
<polygon fill="#9ea5d5" fill-opacity="0.501961" points="0,243 12,264 6,229" />
<polygon fill="#b1a79b" fill-opacity="0.501961" points="146,116 150,42 221,82" />
<polygon fill="#717d60" fill-opacity="0.501961" points="97,195 112,207 110,229" />
<polygon fill="#e3f4ff" fill-opacity="0.501961" points="42,199 33,191 38,160" />
<polygon fill="#c54f00" fill-opacity="0.501961" points="75,55 94,80 41,44" />
<polygon fill="#90919e" fill-opacity="0.501961" points="167,51 211,-16 221,58" />
<polygon fill="#e6b500" fill-opacity="0.501961" points="153,235 124,194 121,271" />
<polygon fill="#80b5d6" fill-opacity="0.501961" points="104,113 170,151 156,121" />
<polygon fill="#a16870" fill-opacity="0.501961" points="225,201 271,138 229,157" />
<polygon fill="#738373" fill-opacity="0.501961" points="154,150 118,156 137,118" />
<polygon fill="#d8b900" fill-opacity="0.501961" points="71,72 -8,126 97,129" />
<polygon fill="#bd5500" fill-opacity="0.501961" points="25,258 32,193 41,249" />
<polygon fill="#b53400" fill-opacity="0.501961" points="54,265 90,262 56,193" />
<polygon fill="#963059" fill-opacity="0.501961" points="183,228 191,159 173,183" />
<polygon fill="#e2f8ff" fill-opacity="0.501961" points="41,151 55,170 55,129" />
<polygon fill="#818993" fill-opacity="0.501961" points="90,-16 103,77 18,15" />
<polygon fill="#f48700" fill-opacity="0.501961" points="-12,46 -16,71 53,42" />
<polygon fill="#efffff" fill-opacity="0.501961" points="163,108 173,151 192,129" />
<polygon fill="#caedbb" fill-opacity="0.501961" points="84,75 31,58 55,56" />
<polygon fill="#e59f00" fill-opacity="0.501961" points="59,164 93,168 53,193" />
<polygon fill="#11c3ff" fill-opacity="0.501961" points="-16,57 4,42 -16,2" />
<polygon fill="#9f6b4d" fill-opacity="0.501961" points="62,230 72,208 100,226" />
<polygon fill="#cb8500" fill-opacity="0.501961" points="21,209 41,144 0,186" />
<polygon fill="#270100" fill-opacity="0.501961" points="65,184 67,212 108,211" />
<polygon fill="#82836e" fill-opacity="0.501961" points="163,117 90,68 104,116" />
<polygon fill="#002b36" fill-opacity="0.501961" points="228,14 241,68 223,75" />
<polygon fill="#ad2e37" fill-opacity="0.501961" points="189,166 212,208 242,192" />
<polygon fill="#bf4200" fill-opacity="0.501961" points="122,166 107,206 123,234" />
<polygon fill="#d7df82" fill-opacity="0.501961" points="80,153 97,146 101,116" />
<polygon fill="#513317" fill-opacity="0.501961" points="140,147 113,156 93,149" />
<polygon fill="#abcdf1" fill-opacity="0.501961" points="94,167 100,201 105,162" />
<polygon fill="#cf7b00" fill-opacity="0.501961" points="241,122 216,130 244,94" />
<polygon fill="#d2dfb2" fill-opacity="0.501961" points="38,92 24,101 38,83" />
<polygon fill="#733a00" fill-opacity="0.501961" points="74,153 54,160 98,161" />
<polygon fill="#c1fcff" fill-opacity="0.501961" points="125,169 127,194 131,175" />
<polygon fill="#cce3c0" fill-opacity="0.501961" points="17,141 -1,134 14,135" />
<polygon fill="#d4956e" fill-opacity="0.501961" points="157,151 179,178 155,183" />
<polygon fill="#ea4700" fill-opacity="0.501961" points="172,215 173,270 127,271" />
<polygon fill="#9b5104" fill-opacity="0.501961" points="162,149 142,172 111,169" />
<polygon fill="#99988e" fill-opacity="0.501961" points="271,115 251,11 236,93" />
<polygon fill="#c0e5a0" fill-opacity="0.501961" points="-9,186 13,200 -16,206" />
</g>
</svg>