<svg xmlns="http://www.w3.org/2000/svg" version="1.1" width="1024" height="1024">
<rect x="0" y="0" width="1024" height="1024" fill="#6b8797" />
<g transform="scale(4.000000) translate(0.5 0.5)">
<polygon fill="#99c4e3" fill-opacity="0.501961" points="2,-12 -16,249 167,271" />
<polygon fill="#484f42" fill-opacity="0.501961" points="245,-16 110,217 271,264" />
<polygon fill="#001231" fill-opacity="0.501961" points="61,150 127,88 48,93" />
<polygon fill="#adcfe5" fill-opacity="0.501961" points="93,128 -16,247 140,207" />
<polygon fill="#81b3d9" fill-opacity="0.501961" points="193,-16 108,82 -16,-6" />
<polygon fill="#180a00" fill-opacity="0.501961" points="174,199 148,146 136,229" />
<polygon fill="#384141" fill-opacity="0.501961" points="154,59 187,115 271,13" />
<polygon fill="#395771" fill-opacity="0.501961" points="86,135 27,160 -15,130" />
<polygon fill="#7399ba" fill-opacity="0.501961" points="114,243 271,224 189,210" />
<polygon fill="#bbbca6" fill-opacity="0.501961" points="200,179 227,194 238,148" />
<polygon fill="#5a5d4f" fill-opacity="0.501961" points="105,132 154,94 141,185" />
<polygon fill="#1a3c57" fill-opacity="0.501961" points="149,45 69,122 96,136" />
<polygon fill="#a1c5db" fill-opacity="0.501961" points="133,180 5,249 -16,150" />
<polygon fill="#245075" fill-opacity="0.501961" points="71,65 48,25 45,89" />
<polygon fill="#b8dbec" fill-opacity="0.501961" points="184,85 110,96 148,79" />
<polygon fill="#79888d" fill-opacity="0.501961" points="185,198 107,124 207,125" />
<polygon fill="#4b6c8c" fill-opacity="0.501961" points="79,242 12,225 38,256" />
<polygon fill="#435971" fill-opacity="0.501961" points="271,-14 170,10 271,60" />
<polygon fill="#355c7c" fill-opacity="0.501961" points="156,16 101,77 115,33" />
<polygon fill="#68869e" fill-opacity="0.501961" points="129,264 93,167 136,212" />
<polygon fill="#9ca399" fill-opacity="0.501961" points="225,84 269,113 248,60" />
<polygon fill="#0f2828" fill-opacity="0.501961" points="271,215 256,243 211,254" />
<polygon fill="#001423" fill-opacity="0.501961" points="59,93 85,87 44,112" />
<polygon fill="#334a62" fill-opacity="0.501961" points="105,239 132,269 86,254" />
<polygon fill="#1b1e0d" fill-opacity="0.501961" points="179,76 170,56 156,85" />
<polygon fill="#a0b9c4" fill-opacity="0.501961" points="233,24 239,44 213,27" />
<polygon fill="#81a1b4" fill-opacity="0.501961" points="49,187 64,133 135,118" />
<polygon fill="#fbffff" fill-opacity="0.501961" points="192,201 173,195 183,193" />
<polygon fill="#8ca4bf" fill-opacity="0.501961" points="230,53 219,40 191,52" />
<polygon fill="#9cc7de" fill-opacity="0.501961" points="86,85 130,58 97,97" />
<polygon fill="#171f14" fill-opacity="0.501961" points="159,201 118,159 168,180" />
<polygon fill="#1c1b0e" fill-opacity="0.501961" points="203,60 210,75 248,50" />
<polygon fill="#414638" fill-opacity="0.501961" points="211,145 197,200 173,178" />
<polygon fill="#2c2d1c" fill-opacity="0.501961" points="142,120 125,114 156,92" />
<polygon fill="#b9d8e6" fill-opacity="0.501961" points="107,141 126,194 75,145" />
<polygon fill="#91b9d5" fill-opacity="0.501961" points="-16,25 -16,87 91,-16" />
<polygon fill="#6f94b1" fill-opacity="0.501961" points="223,15 152,11 155,65" />
<polygon fill="#2f4b62" fill-opacity="0.501961" points="-14,110 -12,149 23,147" />
<polygon fill="#0d1b24" fill-opacity="0.501961" points="122,231 122,239 138,240" />
<polygon fill="#bee5f3" fill-opacity="0.501961" points="88,41 113,42 98,56" />
<polygon fill="#97a385" fill-opacity="0.501961" points="219,149 220,199 253,189" />
<polygon fill="#171c11" fill-opacity="0.501961" points="233,22 239,40 257,14" />
<polygon fill="#9bbed5" fill-opacity="0.501961" points="62,271 121,220 46,147" />
<polygon fill="#34331c" fill-opacity="0.501961" points="144,236 139,175 167,207" />
<polygon fill="#080600" fill-opacity="0.501961" points="230,56 225,32 236,46" />
<polygon fill="#021931" fill-opacity="0.501961" points="21,158 43,149 27,147" />
<polygon fill="#aed2e6" fill-opacity="0.501961" points="193,81 173,81 195,75" />
<polygon fill="#b6d3ea" fill-opacity="0.501961" points="169,175 157,160 176,166" />
<polygon fill="#3b4946" fill-opacity="0.501961" points="181,155 172,121 160,173" />
<polygon fill="#7ca9c6" fill-opacity="0.501961" points="53,-6 113,-16 67,104" />
<polygon fill="#1c304b" fill-opacity="0.501961" points="148,24 143,16 171,25" />
<polygon fill="#6b9ab7" fill-opacity="0.501961" points="30,51 5,128 51,151" />
<polygon fill="#325f83" fill-opacity="0.501961" points="108,54 82,91 78,72" />
<polygon fill="#385972" fill-opacity="0.501961" points="153,144 109,164 148,172" />
<polygon fill="#304f6c" fill-opacity="0.501961" points="55,134 45,139 64,167" />
<polygon fill="#94abb7" fill-opacity="0.501961" points="175,148 151,115 152,147" />
<polygon fill="#263e59" fill-opacity="0.501961" points="47,232 27,239 67,239" />
<polygon fill="#618aab" fill-opacity="0.501961" points="214,234 143,271 263,265" />
<polygon fill="#243139" fill-opacity="0.501961" points="181,233 186,250 199,237" />
<polygon fill="#c8e1ee" fill-opacity="0.501961" points="163,101 161,116 155,86" />
<polygon fill="#d2faff" fill-opacity="0.501961" points="66,85 51,95 59,95" />
<polygon fill="#3c709b" fill-opacity="0.501961" points="60,103 104,87 69,123" />
<polygon fill="#12283a" fill-opacity="0.501961" points="93,133 110,87 74,123" />
<polygon fill="#7c9e9c" fill-opacity="0.501961" points="222,150 188,138 214,116" />
<polygon fill="#222800" fill-opacity="0.501961" points="255,180 246,168 262,157" />
<polygon fill="#8eabc8" fill-opacity="0.501961" points="139,217 139,196 121,224" />
<polygon fill="#3a5160" fill-opacity="0.501961" points="210,77 265,127 176,85" />
<polygon fill="#a1c4dd" fill-opacity="0.501961" points="137,11 203,1 190,-16" />
<polygon fill="#97bcd5" fill-opacity="0.501961" points="22,271 51,146 -14,203" />
<polygon fill="#05161e" fill-opacity="0.501961" points="48,95 58,122 60,96" />
<polygon fill="#151a15" fill-opacity="0.501961" points="158,57 163,58 164,47" />
<polygon fill="#354547" fill-opacity="0.501961" points="206,215 233,213 212,182" />
<polygon fill="#93bed8" fill-opacity="0.501961" points="109,261 179,244 197,271" />
<polygon fill="#6d6f36" fill-opacity="0.501961" points="245,131 247,166 224,194" />
<polygon fill="#254053" fill-opacity="0.501961" points="51,71 49,84 78,59" />
<polygon fill="#0c130d" fill-opacity="0.501961" points="242,45 271,43 271,25" />
<polygon fill="#575a49" fill-opacity="0.501961" points="157,119 164,104 190,136" />
<polygon fill="#9ebfd2" fill-opacity="0.501961" points="127,84 159,90 111,99" />
<polygon fill="#644f22" fill-opacity="0.501961" points="158,183 172,187 181,223" />
<polygon fill="#3d5a74" fill-opacity="0.501961" points="167,246 146,247 146,223" />
<polygon fill="#b0cbd8" fill-opacity="0.501961" points="134,177 123,168 99,209" />
<polygon fill="#6a86a1" fill-opacity="0.501961" points="203,90 235,80 193,80" />
<polygon fill="#8e9a99" fill-opacity="0.501961" points="221,156 269,145 205,188" />
<polygon fill="#516166" fill-opacity="0.501961" points="114,167 115,143 125,183" />
<polygon fill="#345573" fill-opacity="0.501961" points="158,55 115,82 143,43" />
<polygon fill="#000c1d" fill-opacity="0.501961" points="42,112 46,111 40,119" />
<polygon fill="#2c3532" fill-opacity="0.501961" points="162,64 196,46 172,49" />
<polygon fill="#294568" fill-opacity="0.501961" points="83,227 85,234 70,227" />
<polygon fill="#3d4854" fill-opacity="0.501961" points="265,-1 218,25 226,2" />
<polygon fill="#93b4cf" fill-opacity="0.501961" points="244,13 233,23 226,18" />
<polygon fill="#89a9bf" fill-opacity="0.501961" points="166,219 155,239 192,231" />
<polygon fill="#a5cbdc" fill-opacity="0.501961" points="122,51 146,38 120,71" />
<polygon fill="#bcdaef" fill-opacity="0.501961" points="29,230 72,221 67,235" />
<polygon fill="#243938" fill-opacity="0.501961" points="195,166 219,168 208,145" />
<polygon fill="#7ca4bd" fill-opacity="0.501961" points="235,225 210,218 252,209" />
<polygon fill="#88bee8" fill-opacity="0.501961" points="253,62 253,70 233,72" />
<polygon fill="#264a51" fill-opacity="0.501961" points="218,210 230,193 242,218" />
<polygon fill="#142608" fill-opacity="0.501961" points="271,227 271,182 248,209" />
<polygon fill="#b2d4e7" fill-opacity="0.501961" points="64,245 46,247 49,237" />
<polygon fill="#4d7799" fill-opacity="0.501961" points="101,18 118,27 133,-3" />
</g>
</svg>