<svg xmlns="http://www.w3.org/2000/svg" version="1.1" width="1024" height="1024">
<rect x="0" y="0" width="1024" height="1024" fill="#7e725a" />
<g transform="scale(4.000000) translate(0.5 0.5)">
<polygon fill="#e6ddb1" fill-opacity="0.501961" points="121,111 76,-16 271,48" />
<polygon fill="#000000" fill-opacity="0.501961" points="195,195 -15,104 13,177" />
<polygon fill="#e1f7ff" fill-opacity="0.501961" points="32,266 69,180 122,262" />
<polygon fill="#0a0000" fill-opacity="0.501961" points="2,-9 124,28 -12,54" />
<polygon fill="#0a0000" fill-opacity="0.501961" points="53,238 -4,271 -16,178" />
<polygon fill="#fcfff3" fill-opacity="0.501961" points="164,231 219,218 218,271" />
<polygon fill="#2e2f1a" fill-opacity="0.501961" points="215,218 128,212 129,92" />
<polygon fill="#e3afa0" fill-opacity="0.501961" points="72,156 82,71 9,52" />
<polygon fill="#bdbb8b" fill-opacity="0.501961" points="65,23 270,50 253,133" />
<polygon fill="#000000" fill-opacity="0.501961" points="95,201 -16,134 130,172" />
<polygon fill="#ffffff" fill-opacity="0.501961" points="182,161 172,134 152,128" />
<polygon fill="#ffffff" fill-opacity="0.501961" points="117,73 149,64 123,19" />
<polygon fill="#434427" fill-opacity="0.501961" points="201,96 203,220 266,166" />
<polygon fill="#fffff5" fill-opacity="0.501961" points="123,162 127,118 111,115" />
<polygon fill="#ffffff" fill-opacity="0.501961" points="107,27 125,7 75,-16" />
<polygon fill="#2c1115" fill-opacity="0.501961" points="73,120 124,70 104,124" />
<polygon fill="#000000" fill-opacity="0.501961" points="101,38 121,18 114,45" />
<polygon fill="#fffff6" fill-opacity="0.501961" points="123,215 111,237 150,213" />
<polygon fill="#bbb77b" fill-opacity="0.501961" points="159,191 119,175 168,225" />
<polygon fill="#ffffff" fill-opacity="0.501961" points="113,271 142,241 161,249" />
<polygon fill="#0b0405" fill-opacity="0.501961" points="82,56 -16,37 83,30" />
<polygon fill="#1a0b0b" fill-opacity="0.501961" points="-16,145 46,173 -8,57" />
<polygon fill="#989262" fill-opacity="0.501961" points="271,17 225,128 112,100" />
<polygon fill="#ffffff" fill-opacity="0.501961" points="231,164 212,145 234,156" />
<polygon fill="#feffff" fill-opacity="0.501961" points="88,208 65,181 62,238" />
<polygon fill="#333324" fill-opacity="0.501961" points="193,154 104,226 77,191" />
<polygon fill="#9f7362" fill-opacity="0.501961" points="147,167 52,147 -7,72" />
<polygon fill="#7f4f3f" fill-opacity="0.501961" points="54,178 -16,155 49,255" />
<polygon fill="#1f1c18" fill-opacity="0.501961" points="158,139 198,229 117,133" />
<polygon fill="#9f976a" fill-opacity="0.501961" points="179,176 200,135 195,248" />
<polygon fill="#fffee0" fill-opacity="0.501961" points="123,138 99,144 121,156" />
<polygon fill="#c6c08a" fill-opacity="0.501961" points="142,-4 219,19 170,88" />
<polygon fill="#48500f" fill-opacity="0.501961" points="218,271 226,206 271,181" />
<polygon fill="#423f25" fill-opacity="0.501961" points="267,-6 214,-16 224,45" />
<polygon fill="#d0d489" fill-opacity="0.501961" points="242,166 241,69 258,105" />
<polygon fill="#f6dfce" fill-opacity="0.501961" points="92,57 103,35 85,30" />
<polygon fill="#131700" fill-opacity="0.501961" points="146,226 163,234 143,188" />
<polygon fill="#000000" fill-opacity="0.501961" points="196,266 204,259 205,239" />
<polygon fill="#6a5e40" fill-opacity="0.501961" points="179,105 145,93 143,56" />
<polygon fill="#4c2819" fill-opacity="0.501961" points="63,202 5,252 58,173" />
<polygon fill="#ffffff" fill-opacity="0.501961" points="197,102 191,76 202,82" />
<polygon fill="#757a24" fill-opacity="0.501961" points="152,26 127,27 136,-16" />
<polygon fill="#e6ece0" fill-opacity="0.501961" points="176,220 190,271 193,222" />
<polygon fill="#657e90" fill-opacity="0.501961" points="23,268 88,226 95,260" />
<polygon fill="#9e956c" fill-opacity="0.501961" points="92,193 85,212 142,189" />
<polygon fill="#1f0f14" fill-opacity="0.501961" points="102,66 111,34 96,59" />
<polygon fill="#af8f7b" fill-opacity="0.501961" points="46,177 -2,171 25,200" />
<polygon fill="#ffffff" fill-opacity="0.501961" points="167,148 176,143 148,121" />
<polygon fill="#724c3e" fill-opacity="0.501961" points="84,-4 24,35 27,-6" />
<polygon fill="#1d1b1d" fill-opacity="0.501961" points="223,147 241,105 239,158" />
<polygon fill="#f6fbfd" fill-opacity="0.501961" points="92,215 91,241 124,271" />
<polygon fill="#fffffa" fill-opacity="0.501961" points="217,229 215,257 196,228" />
<polygon fill="#353908" fill-opacity="0.501961" points="134,246 125,271 108,241" />
<polygon fill="#cbd6c1" fill-opacity="0.501961" points="244,220 265,235 248,249" />
<polygon fill="#fff9ec" fill-opacity="0.501961" points="74,10 109,-16 124,17" />
<polygon fill="#676633" fill-opacity="0.501961" points="168,135 229,70 185,155" />
<polygon fill="#a67a6a" fill-opacity="0.501961" points="74,107 128,80 62,44" />
<polygon fill="#010003" fill-opacity="0.501961" points="52,30 102,19 52,15" />
<polygon fill="#000000" fill-opacity="0.501961" points="203,191 206,148 213,174" />
<polygon fill="#2d220e" fill-opacity="0.501961" points="193,260 194,234 203,271" />
<polygon fill="#000000" fill-opacity="0.501961" points="59,30 63,64 49,40" />
<polygon fill="#141310" fill-opacity="0.501961" points="186,165 146,128 128,141" />
<polygon fill="#c6a593" fill-opacity="0.501961" points="76,74 27,42 45,115" />
<polygon fill="#18150a" fill-opacity="0.501961" points="210,229 213,186 220,208" />
<polygon fill="#1a1d08" fill-opacity="0.501961" points="159,202 174,222 194,199" />
<polygon fill="#fffffb" fill-opacity="0.501961" points="134,73 145,46 112,50" />
<polygon fill="#885e4f" fill-opacity="0.501961" points="57,159 105,111 123,137" />
<polygon fill="#11130a" fill-opacity="0.501961" points="88,206 113,229 121,211" />
<polygon fill="#959a4d" fill-opacity="0.501961" points="186,227 148,271 165,218" />
<polygon fill="#322e1a" fill-opacity="0.501961" points="271,185 210,152 224,182" />
<polygon fill="#a09573" fill-opacity="0.501961" points="140,203 127,176 171,198" />
<polygon fill="#313410" fill-opacity="0.501961" points="170,137 142,111 157,108" />
<polygon fill="#4e5d67" fill-opacity="0.501961" points="56,239 71,267 58,211" />
<polygon fill="#fcfff4" fill-opacity="0.501961" points="225,147 231,166 214,147" />
<polygon fill="#000003" fill-opacity="0.501961" points="180,180 131,189 154,165" />
<polygon fill="#190d0d" fill-opacity="0.501961" points="44,271 7,212 -12,253" />
<polygon fill="#554a47" fill-opacity="0.501961" points="271,52 269,18 232,96" />
<polygon fill="#a29680" fill-opacity="0.501961" points="206,36 162,103 175,146" />
<polygon fill="#f6f7cf" fill-opacity="0.501961" points="266,182 236,189 271,192" />
<polygon fill="#fff7da" fill-opacity="0.501961" points="115,210 113,201 120,205" />
<polygon fill="#cbbf9b" fill-opacity="0.501961" points="218,165 208,153 220,184" />
<polygon fill="#976c5c" fill-opacity="0.501961" points="17,44 -16,92 55,44" />
<polygon fill="#fffff2" fill-opacity="0.501961" points="121,117 102,112 131,132" />
<polygon fill="#3a4402" fill-opacity="0.501961" points="271,253 226,243 207,271" />
<polygon fill="#273303" fill-opacity="0.501961" points="151,216 134,235 114,237" />
<polygon fill="#fefffa" fill-opacity="0.501961" points="72,242 68,259 63,223" />
<polygon fill="#e6dfbc" fill-opacity="0.501961" points="226,214 212,233 223,199" />
<polygon fill="#687f87" fill-opacity="0.501961" points="82,245 74,271 67,208" />
<polygon fill="#684636" fill-opacity="0.501961" points="71,134 12,109 53,158" />
<polygon fill="#91896b" fill-opacity="0.501961" points="174,177 170,157 156,158" />
<polygon fill="#ada382" fill-opacity="0.501961" points="180,15 260,100 210,2" />
<polygon fill="#efe5d0" fill-opacity="0.501961" points="134,27 112,31 132,80" />
<polygon fill="#c7998b" fill-opacity="0.501961" points="111,50 129,73 98,83" />
<polygon fill="#294555" fill-opacity="0.501961" points="100,241 97,271 107,258" />
<polygon fill="#eff1ed" fill-opacity="0.501961" points="75,191 93,213 55,215" />
<polygon fill="#b2a978" fill-opacity="0.501961" points="202,215 236,240 236,228" />
<polygon fill="#0a0b00" fill-opacity="0.501961" points="242,-16 165,-16 191,6" />
<polygon fill="#ffffff" fill-opacity="0.501961" points="165,136 177,155 182,151" />
<polygon fill="#060000" fill-opacity="0.501961" points="115,32 116,47 100,33" />
<polygon fill="#c1bb9e" fill-opacity="0.501961" points="197,105 173,99 197,121" />
</g>
</svg>