<svg xmlns="http://www.w3.org/2000/svg" version="1.1" width="1024" height="1024">
<rect x="0" y="0" width="1024" height="1024" fill="#5c5c5c" />
<g transform="scale(4.000000) translate(0.5 0.5)">
<polygon fill="#000000" fill-opacity="0.501961" points="21,223 271,206 79,164" />
<polygon fill="#ffffff" fill-opacity="0.501961" points="-16,161 7,248 40,183" />
<polygon fill="#fefefe" fill-opacity="0.501961" points="119,233 80,210 26,271" />
<polygon fill="#ffffff" fill-opacity="0.501961" points="178,21 196,94 203,-16" />
<polygon fill="#b5b5b5" fill-opacity="0.501961" points="155,-8 111,39 193,141" />
<polygon fill="#ffffff" fill-opacity="0.501961" points="244,56 256,102 227,103" />
<polygon fill="#000000" fill-opacity="0.501961" points="210,136 262,145 181,271" />
<polygon fill="#ffffff" fill-opacity="0.501961" points="73,43 43,-16 49,62" />
<polygon fill="#ffffff" fill-opacity="0.501961" points="30,135 25,95 62,96" />
<polygon fill="#ffffff" fill-opacity="0.501961" points="221,204 256,228 224,245" />
<polygon fill="#000000" fill-opacity="0.501961" points="15,-14 64,104 4,80" />
<polygon fill="#f9f9f9" fill-opacity="0.501961" points="147,175 120,182 85,132" />
<polygon fill="#ffffff" fill-opacity="0.501961" points="126,121 110,90 79,104" />
<polygon fill="#ffffff" fill-opacity="0.501961" points="148,237 160,205 189,241" />
<polygon fill="#ffffff" fill-opacity="0.501961" points="26,191 72,176 58,153" />
<polygon fill="#ffffff" fill-opacity="0.501961" points="187,182 177,150 213,162" />
<polygon fill="#000000" fill-opacity="0.501961" points="56,239 256,247 150,271" />
<polygon fill="#000000" fill-opacity="0.501961" points="36,133 118,162 -16,164" />
<polygon fill="#121212" fill-opacity="0.501961" points="182,168 128,265 151,60" />
<polygon fill="#f8f8f8" fill-opacity="0.501961" points="174,110 221,94 141,87" />
<polygon fill="#060606" fill-opacity="0.501961" points="157,103 204,36 154,65" />
<polygon fill="#cbcbcb" fill-opacity="0.501961" points="206,58 239,1 271,18" />
<polygon fill="#000000" fill-opacity="0.501961" points="245,55 247,17 201,89" />
<polygon fill="#e8e8e8" fill-opacity="0.501961" points="150,159 153,135 128,140" />
<polygon fill="#f5f5f5" fill-opacity="0.501961" points="118,51 80,12 139,41" />
<polygon fill="#dedede" fill-opacity="0.501961" points="76,258 -16,226 9,211" />
<polygon fill="#030303" fill-opacity="0.501961" points="49,240 128,146 39,192" />
<polygon fill="#151515" fill-opacity="0.501961" points="63,218 235,166 271,213" />
<polygon fill="#e1e1e1" fill-opacity="0.501961" points="24,38 7,42 -16,-5" />
<polygon fill="#f6f6f6" fill-opacity="0.501961" points="263,35 231,76 234,105" />
<polygon fill="#232323" fill-opacity="0.501961" points="27,68 67,8 -16,57" />
<polygon fill="#000000" fill-opacity="0.501961" points="124,-16 132,21 100,41" />
<polygon fill="#000000" fill-opacity="0.501961" points="243,135 210,81 271,135" />
<polygon fill="#212121" fill-opacity="0.501961" points="148,116 116,144 28,116" />
<polygon fill="#151515" fill-opacity="0.501961" points="146,32 69,102 126,80" />
<polygon fill="#ffffff" fill-opacity="0.501961" points="235,111 224,134 214,123" />
<polygon fill="#fefefe" fill-opacity="0.501961" points="210,9 134,-6 236,-16" />
<polygon fill="#000000" fill-opacity="0.501961" points="-16,242 10,261 49,247" />
<polygon fill="#010101" fill-opacity="0.501961" points="-8,90 50,160 31,181" />
<polygon fill="#ececec" fill-opacity="0.501961" points="73,161 55,189 47,158" />
<polygon fill="#000000" fill-opacity="0.501961" points="101,-4 50,-16 71,31" />
<polygon fill="#b6b6b6" fill-opacity="0.501961" points="99,2 116,21 64,52" />
<polygon fill="#ffffff" fill-opacity="0.501961" points="-13,69 13,89 -16,112" />
<polygon fill="#000000" fill-opacity="0.501961" points="241,-8 224,23 193,20" />
<polygon fill="#fbfbfb" fill-opacity="0.501961" points="64,230 93,246 104,217" />
<polygon fill="#ffffff" fill-opacity="0.501961" points="175,31 204,57 190,15" />
<polygon fill="#1e1e1e" fill-opacity="0.501961" points="108,240 45,114 136,197" />
<polygon fill="#252525" fill-opacity="0.501961" points="181,62 141,34 176,2" />
<polygon fill="#080808" fill-opacity="0.501961" points="72,78 55,54 99,42" />
<polygon fill="#f6f6f6" fill-opacity="0.501961" points="111,42 126,28 149,73" />
<polygon fill="#e8e8e8" fill-opacity="0.501961" points="31,95 76,99 30,121" />
<polygon fill="#ffffff" fill-opacity="0.501961" points="271,56 244,27 261,12" />
<polygon fill="#ffffff" fill-opacity="0.501961" points="262,187 250,161 264,137" />
<polygon fill="#ffffff" fill-opacity="0.501961" points="-3,153 9,219 26,210" />
<polygon fill="#ffffff" fill-opacity="0.501961" points="228,211 245,215 226,252" />
<polygon fill="#000000" fill-opacity="0.501961" points="50,92 -9,23 15,95" />
<polygon fill="#ffffff" fill-opacity="0.501961" points="178,172 205,178 194,149" />
<polygon fill="#e0e0e0" fill-opacity="0.501961" points="126,208 123,230 139,239" />
<polygon fill="#ffffff" fill-opacity="0.501961" points="112,160 135,158 127,187" />
<polygon fill="#ffffff" fill-opacity="0.501961" points="262,138 233,131 246,142" />
<polygon fill="#f9f9f9" fill-opacity="0.501961" points="134,14 164,16 145,-3" />
<polygon fill="#ffffff" fill-opacity="0.501961" points="55,31 41,56 74,45" />
<polygon fill="#ffffff" fill-opacity="0.501961" points="100,51 78,59 96,63" />
<polygon fill="#111111" fill-opacity="0.501961" points="246,265 182,271 185,209" />
<polygon fill="#ffffff" fill-opacity="0.501961" points="231,89 241,111 259,92" />
<polygon fill="#f7f7f7" fill-opacity="0.501961" points="43,131 38,120 9,139" />
<polygon fill="#101010" fill-opacity="0.501961" points="252,171 243,271 271,220" />
<polygon fill="#f7f7f7" fill-opacity="0.501961" points="33,11 53,20 57,-6" />
<polygon fill="#131313" fill-opacity="0.501961" points="99,136 177,163 211,215" />
<polygon fill="#ffffff" fill-opacity="0.501961" points="96,91 122,102 101,119" />
<polygon fill="#f7f7f7" fill-opacity="0.501961" points="157,243 183,234 148,220" />
<polygon fill="#f0f0f0" fill-opacity="0.501961" points="226,186 219,189 228,202" />
<polygon fill="#ffffff" fill-opacity="0.501961" points="188,89 215,102 194,80" />
<polygon fill="#e1e1e1" fill-opacity="0.501961" points="60,233 33,235 94,270" />
<polygon fill="#d7d7d7" fill-opacity="0.501961" points="112,154 89,129 76,143" />
<polygon fill="#000000" fill-opacity="0.501961" points="31,17 17,37 -9,-16" />
<polygon fill="#000000" fill-opacity="0.501961" points="195,75 211,89 196,61" />
<polygon fill="#121212" fill-opacity="0.501961" points="213,181 181,109 243,168" />
<polygon fill="#141414" fill-opacity="0.501961" points="157,248 68,258 145,224" />
<polygon fill="#ffffff" fill-opacity="0.501961" points="222,47 192,48 191,58" />
<polygon fill="#000000" fill-opacity="0.501961" points="226,117 229,91 206,113" />
<polygon fill="#000000" fill-opacity="0.501961" points="171,45 190,42 175,85" />
<polygon fill="#1e1e1e" fill-opacity="0.501961" points="191,120 154,141 121,83" />
<polygon fill="#010101" fill-opacity="0.501961" points="16,271 33,216 32,271" />
<polygon fill="#000000" fill-opacity="0.501961" points="143,49 140,61 155,66" />
<polygon fill="#838383" fill-opacity="0.501961" points="44,122 76,83 59,67" />
<polygon fill="#ffffff" fill-opacity="0.501961" points="147,39 147,59 161,55" />
<polygon fill="#0a0a0a" fill-opacity="0.501961" points="44,175 26,181 15,110" />
<polygon fill="#ececec" fill-opacity="0.501961" points="78,8 91,32 94,19" />
<polygon fill="#5b5b5b" fill-opacity="0.501961" points="5,55 35,3 56,30" />
<polygon fill="#ffffff" fill-opacity="0.501961" points="15,180 68,178 29,192" />
<polygon fill="#787878" fill-opacity="0.501961" points="114,111 122,144 149,91" />
<polygon fill="#050505" fill-opacity="0.501961" points="115,23 146,38 97,-15" />
<polygon fill="#d6d6d6" fill-opacity="0.501961" points="136,230 129,250 143,230" />
<polygon fill="#2a2a2a" fill-opacity="0.501961" points="200,110 191,112 184,81" />
<polygon fill="#fdfdfd" fill-opacity="0.501961" points="15,137 -16,137 9,146" />
<polygon fill="#fbfbfb" fill-opacity="0.501961" points="251,230 213,238 232,213" />
<polygon fill="#010101" fill-opacity="0.501961" points="203,35 223,44 195,46" />
<polygon fill="#383838" fill-opacity="0.501961" points="193,148 179,161 133,135" />
<polygon fill="#000000" fill-opacity="0.501961" points="249,67 270,43 257,108" />
</g>
</svg>