<svg xmlns="http://www.w3.org/2000/svg" version="1.1" width="1024" height="1024">
<rect x="0" y="0" width="1024" height="1024" fill="#7a9fc9" />
<g transform="scale(4.000000) translate(0.5 0.5)">
<polygon fill="#ffffff" fill-opacity="0.501961" points="252,271 269,122 -16,234" />
<polygon fill="#004bad" fill-opacity="0.501961" points="271,0 77,205 -16,-2" />
<polygon fill="#6d0200" fill-opacity="0.501961" points="-16,170 51,105 271,140" />
<polygon fill="#ffffff" fill-opacity="0.501961" points="10,157 271,250 -16,271" />
<polygon fill="#007be0" fill-opacity="0.501961" points="255,-16 271,157 -16,7" />
<polygon fill="#fffffd" fill-opacity="0.501961" points="271,147 100,150 226,271" />
<polygon fill="#64adfa" fill-opacity="0.501961" points="-11,121 271,109 73,34" />
<polygon fill="#6d2b29" fill-opacity="0.501961" points="180,108 -16,132 81,196" />
<polygon fill="#322824" fill-opacity="0.501961" points="135,145 237,118 271,149" />
<polygon fill="#fafff7" fill-opacity="0.501961" points="29,157 -16,219 85,162" />
<polygon fill="#fffbf9" fill-opacity="0.501961" points="151,151 -16,252 271,263" />
<polygon fill="#ff081c" fill-opacity="0.501961" points="53,149 128,159 117,122" />
<polygon fill="#0071ce" fill-opacity="0.501961" points="3,-16 271,7 -13,76" />
<polygon fill="#000a48" fill-opacity="0.501961" points="33,200 55,177 97,170" />
<polygon fill="#0064b8" fill-opacity="0.501961" points="271,87 112,-3 255,-16" />
<polygon fill="#f8f6f6" fill-opacity="0.501961" points="-6,178 143,211 2,271" />
<polygon fill="#4d96e1" fill-opacity="0.501961" points="-16,53 216,50 206,132" />
<polygon fill="#182a2e" fill-opacity="0.501961" points="107,129 49,112 -16,156" />
<polygon fill="#222f38" fill-opacity="0.501961" points="129,146 135,106 197,127" />
<polygon fill="#f7f6f7" fill-opacity="0.501961" points="254,148 260,271 113,159" />
<polygon fill="#67a6eb" fill-opacity="0.501961" points="127,71 118,124 11,96" />
<polygon fill="#c60000" fill-opacity="0.501961" points="117,161 86,163 86,129" />
<polygon fill="#707a7e" fill-opacity="0.501961" points="-16,196 9,72 16,171" />
<polygon fill="#00135f" fill-opacity="0.501961" points="111,169 82,161 88,191" />
<polygon fill="#ffdb6f" fill-opacity="0.501961" points="205,63 214,55 199,52" />
<polygon fill="#382330" fill-opacity="0.501961" points="222,118 271,133 213,144" />
<polygon fill="#323335" fill-opacity="0.501961" points="46,172 83,105 36,130" />
<polygon fill="#678783" fill-opacity="0.501961" points="23,162 78,166 92,147" />
<polygon fill="#edeef5" fill-opacity="0.501961" points="116,158 271,250 84,271" />
<polygon fill="#ffffff" fill-opacity="0.501961" points="52,168 74,170 34,188" />
<polygon fill="#fdfcfb" fill-opacity="0.501961" points="25,213 59,209 85,176" />
<polygon fill="#002883" fill-opacity="0.501961" points="87,170 44,183 54,192" />
<polygon fill="#0077d4" fill-opacity="0.501961" points="196,15 -16,57 -3,-16" />
<polygon fill="#27243e" fill-opacity="0.501961" points="-16,118 8,116 2,165" />
<polygon fill="#5c7898" fill-opacity="0.501961" points="76,191 99,181 121,186" />
<polygon fill="#012036" fill-opacity="0.501961" points="100,157 105,121 90,118" />
<polygon fill="#51713c" fill-opacity="0.501961" points="50,184 32,194 38,200" />
<polygon fill="#2f8bdd" fill-opacity="0.501961" points="60,28 212,62 -3,74" />
<polygon fill="#ff1038" fill-opacity="0.501961" points="110,121 103,150 128,152" />
<polygon fill="#9ca4a6" fill-opacity="0.501961" points="141,162 110,151 169,147" />
<polygon fill="#f3b667" fill-opacity="0.501961" points="84,89 84,76 95,81" />
<polygon fill="#60a1ed" fill-opacity="0.501961" points="82,123 82,85 180,94" />
<polygon fill="#729dc9" fill-opacity="0.501961" points="-16,58 12,139 29,58" />
<polygon fill="#59637f" fill-opacity="0.501961" points="193,149 152,106 232,148" />
<polygon fill="#ff1c37" fill-opacity="0.501961" points="97,132 66,155 70,142" />
<polygon fill="#14a3f8" fill-opacity="0.501961" points="109,154 120,156 115,148" />
<polygon fill="#001c5b" fill-opacity="0.501961" points="73,168 103,181 111,172" />
<polygon fill="#353432" fill-opacity="0.501961" points="16,126 61,149 12,161" />
<polygon fill="#f0f4f4" fill-opacity="0.501961" points="92,185 271,173 177,147" />
<polygon fill="#ffc477" fill-opacity="0.501961" points="234,58 237,54 250,59" />
<polygon fill="#68a7f6" fill-opacity="0.501961" points="179,130 158,94 191,105" />
<polygon fill="#308de7" fill-opacity="0.501961" points="191,61 246,133 259,66" />
<polygon fill="#373534" fill-opacity="0.501961" points="169,114 128,148 113,122" />
<polygon fill="#007ed1" fill-opacity="0.501961" points="131,45 229,15 271,57" />
<polygon fill="#5a9ee9" fill-opacity="0.501961" points="16,78 81,81 30,127" />
<polygon fill="#0059ad" fill-opacity="0.501961" points="196,-3 245,48 271,-1" />
<polygon fill="#eef0f6" fill-opacity="0.501961" points="-12,264 -16,185 254,263" />
<polygon fill="#b5c0cd" fill-opacity="0.501961" points="11,164 7,147 12,132" />
<polygon fill="#e9d0a9" fill-opacity="0.501961" points="7,85 12,112 15,83" />
<polygon fill="#0063be" fill-opacity="0.501961" points="1,-16 -16,27 152,3" />
<polygon fill="#0039b6" fill-opacity="0.501961" points="82,163 60,182 95,166" />
<polygon fill="#43271e" fill-opacity="0.501961" points="70,151 65,166 88,146" />
<polygon fill="#cefdbb" fill-opacity="0.501961" points="93,196 81,178 80,193" />
<polygon fill="#406fbd" fill-opacity="0.501961" points="47,109 59,123 84,106" />
<polygon fill="#bf0000" fill-opacity="0.501961" points="90,138 115,160 89,162" />
<polygon fill="#ff112d" fill-opacity="0.501961" points="107,140 125,156 116,127" />
<polygon fill="#333635" fill-opacity="0.501961" points="-16,44 -14,64 11,79" />
<polygon fill="#edf0f5" fill-opacity="0.501961" points="139,159 271,253 217,145" />
<polygon fill="#00238e" fill-opacity="0.501961" points="93,186 102,160 112,163" />
<polygon fill="#f4f4f9" fill-opacity="0.501961" points="66,171 15,204 -16,189" />
<polygon fill="#ffc88f" fill-opacity="0.501961" points="212,60 215,52 196,60" />
<polygon fill="#133343" fill-opacity="0.501961" points="82,82 90,85 84,88" />
<polygon fill="#0e2450" fill-opacity="0.501961" points="52,192 79,180 54,182" />
<polygon fill="#392524" fill-opacity="0.501961" points="169,128 148,141 158,106" />
<polygon fill="#64b4ef" fill-opacity="0.501961" points="49,166 59,153 64,156" />
<polygon fill="#fe1933" fill-opacity="0.501961" points="64,158 96,130 66,142" />
<polygon fill="#34201c" fill-opacity="0.501961" points="68,114 55,150 85,131" />
<polygon fill="#bac9c1" fill-opacity="0.501961" points="52,171 18,157 8,179" />
<polygon fill="#458ddc" fill-opacity="0.501961" points="-16,112 9,60 3,124" />
<polygon fill="#6699e0" fill-opacity="0.501961" points="177,113 271,121 235,100" />
<polygon fill="#4c5d96" fill-opacity="0.501961" points="266,119 242,126 239,149" />
<polygon fill="#0e85dd" fill-opacity="0.501961" points="203,46 249,89 265,69" />
<polygon fill="#1c0a00" fill-opacity="0.501961" points="94,78 90,73 87,78" />
<polygon fill="#ff1038" fill-opacity="0.501961" points="111,162 111,171 117,157" />
<polygon fill="#413534" fill-opacity="0.501961" points="232,116 239,148 206,144" />
<polygon fill="#4a6cac" fill-opacity="0.501961" points="97,121 125,107 141,119" />
<polygon fill="#412e35" fill-opacity="0.501961" points="179,137 190,144 189,117" />
<polygon fill="#2e1f07" fill-opacity="0.501961" points="85,187 102,161 85,173" />
<polygon fill="#362a35" fill-opacity="0.501961" points="8,143 31,158 29,121" />
<polygon fill="#f1f2f8" fill-opacity="0.501961" points="62,271 183,178 80,192" />
<polygon fill="#ffffff" fill-opacity="0.501961" points="132,163 112,179 115,161" />
<polygon fill="#375156" fill-opacity="0.501961" points="5,91 18,97 7,96" />
<polygon fill="#2591e8" fill-opacity="0.501961" points="-16,59 32,36 66,49" />
<polygon fill="#6c5f3f" fill-opacity="0.501961" points="104,145 106,132 92,132" />
<polygon fill="#b7f3c2" fill-opacity="0.501961" points="179,173 165,177 140,161" />
<polygon fill="#007fd8" fill-opacity="0.501961" points="-16,43 56,7 168,30" />
<polygon fill="#aca2a3" fill-opacity="0.501961" points="91,151 70,173 77,157" />
<polygon fill="#6e6562" fill-opacity="0.501961" points="4,156 2,175 12,180" />
<polygon fill="#462a27" fill-opacity="0.501961" points="246,145 267,150 271,108" />
<polygon fill="#620001" fill-opacity="0.501961" points="100,144 104,163 88,152" />
</g>
</svg>