<svg xmlns="http://www.w3.org/2000/svg" version="1.1" width="1024" height="1024">
<rect x="0" y="0" width="1024" height="1024" fill="#9b938f" />
<g transform="scale(4.000000) translate(0.5 0.5)">
<polygon fill="#ffebc3" fill-opacity="0.501961" points="130,112 177,271 -16,250" />
<polygon fill="#001439" fill-opacity="0.501961" points="36,48 254,-2 39,-16" />
<polygon fill="#09102c" fill-opacity="0.501961" points="243,194 212,271 153,182" />
<polygon fill="#f4f8e5" fill-opacity="0.501961" points="-16,262 52,271 22,8" />
<polygon fill="#142f4d" fill-opacity="0.501961" points="51,30 72,182 30,197" />
<polygon fill="#8d1d32" fill-opacity="0.501961" points="45,221 98,252 98,208" />
<polygon fill="#57687e" fill-opacity="0.501961" points="167,11 271,-6 182,179" />
<polygon fill="#ffecc5" fill-opacity="0.501961" points="67,90 116,257 177,236" />
<polygon fill="#e2c6b1" fill-opacity="0.501961" points="63,110 76,32 172,80" />
<polygon fill="#243851" fill-opacity="0.501961" points="49,154 72,16 34,11" />
<polygon fill="#96b4af" fill-opacity="0.501961" points="253,236 190,61 271,58" />
<polygon fill="#c0d0c0" fill-opacity="0.501961" points="29,-3 45,212 -16,38" />
<polygon fill="#582d3b" fill-opacity="0.501961" points="176,106 161,139 115,141" />
<polygon fill="#6c3947" fill-opacity="0.501961" points="111,88 83,134 141,111" />
<polygon fill="#3d3642" fill-opacity="0.501961" points="221,222 133,268 232,261" />
<polygon fill="#5e7c88" fill-opacity="0.501961" points="143,184 271,204 267,147" />
<polygon fill="#ffedd3" fill-opacity="0.501961" points="-16,224 50,271 62,187" />
<polygon fill="#1a3357" fill-opacity="0.501961" points="15,122 10,96 -16,117" />
<polygon fill="#a0aea8" fill-opacity="0.501961" points="97,185 66,39 58,188" />
<polygon fill="#6b7080" fill-opacity="0.501961" points="271,59 247,-3 47,37" />
<polygon fill="#dd9782" fill-opacity="0.501961" points="163,152 168,255 111,126" />
<polygon fill="#eeab97" fill-opacity="0.501961" points="170,90 139,138 116,52" />
<polygon fill="#2c354a" fill-opacity="0.501961" points="163,222 232,222 171,194" />
<polygon fill="#ffffe2" fill-opacity="0.501961" points="108,229 94,169 153,190" />
<polygon fill="#00b6d1" fill-opacity="0.501961" points="243,179 271,224 255,161" />
<polygon fill="#9ba19c" fill-opacity="0.501961" points="-16,-16 129,-10 -16,24" />
<polygon fill="#9fab9e" fill-opacity="0.501961" points="42,192 -5,219 -16,128" />
<polygon fill="#1e3348" fill-opacity="0.501961" points="38,32 122,-13 232,-3" />
<polygon fill="#fe9982" fill-opacity="0.501961" points="79,189 106,216 29,218" />
<polygon fill="#2b3750" fill-opacity="0.501961" points="65,185 55,119 38,194" />
<polygon fill="#ffcda6" fill-opacity="0.501961" points="59,271 192,234 147,211" />
<polygon fill="#4e5567" fill-opacity="0.501961" points="205,176 195,60 178,120" />
<polygon fill="#ffffff" fill-opacity="0.501961" points="47,271 -16,248 14,209" />
<polygon fill="#954d57" fill-opacity="0.501961" points="72,203 111,246 66,244" />
<polygon fill="#c28360" fill-opacity="0.501961" points="271,250 220,271 238,192" />
<polygon fill="#95a4a1" fill-opacity="0.501961" points="64,36 59,104 145,23" />
<polygon fill="#fdc29d" fill-opacity="0.501961" points="27,184 54,271 84,255" />
<polygon fill="#a8aca2" fill-opacity="0.501961" points="202,61 271,77 216,188" />
<polygon fill="#cf8077" fill-opacity="0.501961" points="187,242 163,233 145,271" />
<polygon fill="#614a58" fill-opacity="0.501961" points="149,110 87,117 101,99" />
<polygon fill="#e8b39f" fill-opacity="0.501961" points="75,121 93,70 150,60" />
<polygon fill="#a66f69" fill-opacity="0.501961" points="106,90 131,71 81,84" />
<polygon fill="#c1756a" fill-opacity="0.501961" points="101,173 123,167 137,177" />
<polygon fill="#b2b4a8" fill-opacity="0.501961" points="61,175 98,203 80,48" />
<polygon fill="#776a6f" fill-opacity="0.501961" points="167,157 161,204 241,190" />
<polygon fill="#394255" fill-opacity="0.501961" points="186,271 188,200 238,205" />
<polygon fill="#816e66" fill-opacity="0.501961" points="20,204 -16,193 -16,225" />
<polygon fill="#ffdab8" fill-opacity="0.501961" points="12,207 111,197 62,188" />
<polygon fill="#cacfbf" fill-opacity="0.501961" points="26,19 -16,9 36,123" />
<polygon fill="#bbc4b6" fill-opacity="0.501961" points="-16,132 35,204 42,104" />
<polygon fill="#929493" fill-opacity="0.501961" points="146,44 179,135 181,55" />
<polygon fill="#39343d" fill-opacity="0.501961" points="186,224 169,209 159,220" />
<polygon fill="#a07372" fill-opacity="0.501961" points="134,153 139,128 107,140" />
<polygon fill="#5a6077" fill-opacity="0.501961" points="187,43 271,11 255,54" />
<polygon fill="#eeb6a5" fill-opacity="0.501961" points="154,119 133,109 89,149" />
<polygon fill="#2d3b50" fill-opacity="0.501961" points="41,53 48,112 65,5" />
<polygon fill="#c67b77" fill-opacity="0.501961" points="76,232 99,216 115,244" />
<polygon fill="#79848b" fill-opacity="0.501961" points="38,64 43,-16 21,-16" />
<polygon fill="#6b4c54" fill-opacity="0.501961" points="157,140 132,140 172,99" />
<polygon fill="#ffdeb4" fill-opacity="0.501961" points="184,228 99,205 111,254" />
<polygon fill="#e2ad76" fill-opacity="0.501961" points="144,220 152,174 164,222" />
<polygon fill="#fcddc2" fill-opacity="0.501961" points="109,63 136,61 85,83" />
<polygon fill="#debdb0" fill-opacity="0.501961" points="168,146 145,140 121,178" />
<polygon fill="#ffe7b6" fill-opacity="0.501961" points="126,175 117,238 160,195" />
<polygon fill="#7c6760" fill-opacity="0.501961" points="244,201 221,226 224,254" />
<polygon fill="#888c8d" fill-opacity="0.501961" points="99,193 63,165 62,186" />
<polygon fill="#fbcba9" fill-opacity="0.501961" points="106,271 163,246 77,247" />
<polygon fill="#889393" fill-opacity="0.501961" points="240,142 250,201 168,154" />
<polygon fill="#f4d1be" fill-opacity="0.501961" points="89,99 121,79 123,92" />
<polygon fill="#bb7168" fill-opacity="0.501961" points="176,109 163,78 160,112" />
<polygon fill="#ffffe6" fill-opacity="0.501961" points="129,187 95,168 102,216" />
<polygon fill="#9ba9a4" fill-opacity="0.501961" points="85,35 96,70 154,45" />
<polygon fill="#d9b49d" fill-opacity="0.501961" points="244,222 265,254 252,200" />
<polygon fill="#869a9b" fill-opacity="0.501961" points="-6,89 17,116 17,95" />
<polygon fill="#8d5154" fill-opacity="0.501961" points="66,227 53,211 102,223" />
<polygon fill="#00a3b3" fill-opacity="0.501961" points="250,161 271,194 252,193" />
<polygon fill="#797c87" fill-opacity="0.501961" points="211,8 119,26 201,86" />
<polygon fill="#617283" fill-opacity="0.501961" points="47,98 38,66 38,126" />
<polygon fill="#45526c" fill-opacity="0.501961" points="12,106 5,125 -3,96" />
<polygon fill="#ffdcd4" fill-opacity="0.501961" points="116,171 85,140 127,158" />
<polygon fill="#dbb6ad" fill-opacity="0.501961" points="169,229 187,238 180,249" />
<polygon fill="#724f50" fill-opacity="0.501961" points="124,86 128,90 129,80" />
<polygon fill="#865c63" fill-opacity="0.501961" points="112,89 101,133 124,119" />
<polygon fill="#ffe9d3" fill-opacity="0.501961" points="70,271 31,202 -3,219" />
<polygon fill="#493c48" fill-opacity="0.501961" points="156,136 166,108 172,121" />
<polygon fill="#f5c4ac" fill-opacity="0.501961" points="89,94 85,123 101,86" />
<polygon fill="#474953" fill-opacity="0.501961" points="210,233 234,264 164,256" />
<polygon fill="#95666a" fill-opacity="0.501961" points="120,177 133,154 123,164" />
<polygon fill="#7e585b" fill-opacity="0.501961" points="136,118 143,108 157,108" />
<polygon fill="#72454d" fill-opacity="0.501961" points="66,220 95,246 66,236" />
<polygon fill="#905751" fill-opacity="0.501961" points="154,185 165,206 175,174" />
<polygon fill="#575a6b" fill-opacity="0.501961" points="191,147 203,84 179,75" />
<polygon fill="#8f605f" fill-opacity="0.501961" points="110,84 122,75 96,79" />
<polygon fill="#eec5b0" fill-opacity="0.501961" points="123,92 134,85 143,110" />
<polygon fill="#a87771" fill-opacity="0.501961" points="139,86 133,102 152,82" />
<polygon fill="#7b7980" fill-opacity="0.501961" points="65,64 66,124 56,90" />
<polygon fill="#ac7e79" fill-opacity="0.501961" points="145,134 120,133 157,123" />
<polygon fill="#69abbf" fill-opacity="0.501961" points="239,182 245,167 257,208" />
<polygon fill="#8c9698" fill-opacity="0.501961" points="170,76 244,61 130,53" />
<polygon fill="#daa895" fill-opacity="0.501961" points="93,137 103,118 95,159" />
</g>
</svg>