<svg xmlns="http://www.w3.org/2000/svg" version="1.1" width="1024" height="1024">
<rect x="0" y="0" width="1024" height="1024" fill="#a2c8ec" />
<g transform="scale(4.000000) translate(0.5 0.5)">
<polygon fill="#4f92ce" fill-opacity="0.501961" points="16,144 -16,241 271,240" />
<polygon fill="#e1f5ff" fill-opacity="0.501961" points="9,-16 -16,137 271,92" />
<polygon fill="#67a1d7" fill-opacity="0.501961" points="271,156 -16,225 271,253" />
<polygon fill="#b4d3f4" fill-opacity="0.501961" points="271,128 226,7 -16,176" />
<polygon fill="#96c0e9" fill-opacity="0.501961" points="270,184 1,116 -16,189" />
<polygon fill="#cddcf7" fill-opacity="0.501961" points="-16,231 151,252 14,271" />
<polygon fill="#d0eafd" fill-opacity="0.501961" points="-16,115 71,-15 164,35" />
<polygon fill="#659cd4" fill-opacity="0.501961" points="263,-16 191,3 250,16" />
<polygon fill="#629dd4" fill-opacity="0.501961" points="84,231 249,201 271,248" />
<polygon fill="#8dbae5" fill-opacity="0.501961" points="143,215 271,160 -16,161" />
<polygon fill="#c5e6f3" fill-opacity="0.501961" points="53,224 79,230 57,211" />
<polygon fill="#bad8f4" fill-opacity="0.501961" points="-9,88 257,105 18,153" />
<polygon fill="#d4edfd" fill-opacity="0.501961" points="-16,7 20,101 128,64" />
<polygon fill="#67a1d6" fill-opacity="0.501961" points="62,234 -16,239 -9,155" />
<polygon fill="#eeffff" fill-opacity="0.501961" points="182,231 178,239 176,225" />
<polygon fill="#b4d4f3" fill-opacity="0.501961" points="260,46 -7,-16 271,137" />
<polygon fill="#90bce7" fill-opacity="0.501961" points="271,20 184,24 107,-16" />
<polygon fill="#a3c5ea" fill-opacity="0.501961" points="85,249 92,234 31,238" />
<polygon fill="#a1cbed" fill-opacity="0.501961" points="4,14 80,2 -9,-16" />
<polygon fill="#79afdf" fill-opacity="0.501961" points="122,221 263,218 129,179" />
<polygon fill="#c8daf7" fill-opacity="0.501961" points="132,248 232,254 153,271" />
<polygon fill="#9ec5eb" fill-opacity="0.501961" points="271,119 137,148 249,192" />
<polygon fill="#65a2d4" fill-opacity="0.501961" points="78,213 62,184 65,231" />
<polygon fill="#ffffff" fill-opacity="0.501961" points="192,2 206,-16 128,-16" />
<polygon fill="#cfe2fa" fill-opacity="0.501961" points="-16,247 121,253 40,271" />
<polygon fill="#5f98cf" fill-opacity="0.501961" points="269,-14 215,-5 271,15" />
<polygon fill="#e5ffff" fill-opacity="0.501961" points="85,212 80,214 87,216" />
<polygon fill="#ffffff" fill-opacity="0.501961" points="55,15 53,7 64,8" />
<polygon fill="#4a8fc9" fill-opacity="0.501961" points="181,214 172,211 171,243" />
<polygon fill="#b2d5f3" fill-opacity="0.501961" points="34,221 25,221 25,231" />
<polygon fill="#5997d2" fill-opacity="0.501961" points="182,237 194,216 263,228" />
<polygon fill="#93b7e4" fill-opacity="0.501961" points="111,249 72,233 153,241" />
<polygon fill="#cde7fb" fill-opacity="0.501961" points="57,104 163,48 69,32" />
<polygon fill="#8db4df" fill-opacity="0.501961" points="72,33 86,34 86,26" />
<polygon fill="#a0c7ec" fill-opacity="0.501961" points="76,177 60,131 8,152" />
<polygon fill="#cae3f9" fill-opacity="0.501961" points="190,198 183,207 187,190" />
<polygon fill="#4183b7" fill-opacity="0.501961" points="55,214 68,214 53,209" />
<polygon fill="#ffffff" fill-opacity="0.501961" points="252,13 268,28 270,1" />
<polygon fill="#a6cbf1" fill-opacity="0.501961" points="235,239 231,233 241,231" />
<polygon fill="#83b4e1" fill-opacity="0.501961" points="4,193 -2,150 57,188" />
<polygon fill="#bde4f2" fill-opacity="0.501961" points="67,232 74,222 79,227" />
<polygon fill="#5c9ad2" fill-opacity="0.501961" points="79,233 144,231 76,215" />
<polygon fill="#8badda" fill-opacity="0.501961" points="54,90 45,95 54,98" />
<polygon fill="#7ba3d5" fill-opacity="0.501961" points="81,61 77,57 71,60" />
<polygon fill="#a9c3eb" fill-opacity="0.501961" points="265,271 271,249 188,245" />
<polygon fill="#5a9acf" fill-opacity="0.501961" points="32,217 35,233 79,233" />
<polygon fill="#abcff1" fill-opacity="0.501961" points="81,-10 193,29 271,122" />
<polygon fill="#ffffff" fill-opacity="0.501961" points="64,-16 100,-14 84,3" />
<polygon fill="#bcdcf6" fill-opacity="0.501961" points="-16,1 -8,38 66,15" />
<polygon fill="#bfe4f0" fill-opacity="0.501961" points="137,211 147,210 139,215" />
<polygon fill="#6e9ed5" fill-opacity="0.501961" points="55,136 52,129 65,136" />
<polygon fill="#d4eff6" fill-opacity="0.501961" points="59,228 64,224 51,220" />
<polygon fill="#c1def8" fill-opacity="0.501961" points="130,37 188,74 58,118" />
<polygon fill="#95bbe4" fill-opacity="0.501961" points="63,237 36,246 11,234" />
<polygon fill="#c7e7fa" fill-opacity="0.501961" points="185,215 188,219 183,222" />
<polygon fill="#fffffd" fill-opacity="0.501961" points="153,44 161,50 153,51" />
<polygon fill="#ffffff" fill-opacity="0.501961" points="48,137 50,133 41,133" />
<polygon fill="#458cc5" fill-opacity="0.501961" points="180,218 186,237 196,236" />
<polygon fill="#7baedf" fill-opacity="0.501961" points="189,196 101,212 12,177" />
<polygon fill="#a3c9ee" fill-opacity="0.501961" points="142,19 234,10 147,49" />
<polygon fill="#c3dcfb" fill-opacity="0.501961" points="225,219 232,216 233,220" />
<polygon fill="#d5edfc" fill-opacity="0.501961" points="101,32 5,40 54,74" />
<polygon fill="#ffffff" fill-opacity="0.501961" points="216,151 221,155 222,153" />
<polygon fill="#b5d4f2" fill-opacity="0.501961" points="210,12 182,123 237,122" />
<polygon fill="#77a6d8" fill-opacity="0.501961" points="181,250 165,240 192,241" />
<polygon fill="#deebfc" fill-opacity="0.501961" points="192,143 192,149 185,150" />
<polygon fill="#f7fcfc" fill-opacity="0.501961" points="51,105 54,100 43,98" />
<polygon fill="#8cb8e5" fill-opacity="0.501961" points="117,199 43,166 215,177" />
<polygon fill="#faffff" fill-opacity="0.501961" points="234,181 233,184 236,186" />
<polygon fill="#8fbbe6" fill-opacity="0.501961" points="168,16 98,-8 191,-11" />
<polygon fill="#97c0e8" fill-opacity="0.501961" points="224,29 264,20 188,-7" />
<polygon fill="#abceef" fill-opacity="0.501961" points="32,138 120,130 115,153" />
<polygon fill="#73aadc" fill-opacity="0.501961" points="116,203 198,218 208,195" />
<polygon fill="#b8d8f3" fill-opacity="0.501961" points="193,165 186,160 188,180" />
<polygon fill="#8ab9e2" fill-opacity="0.501961" points="204,94 204,82 199,86" />
<polygon fill="#b0d2f0" fill-opacity="0.501961" points="7,140 -16,101 56,122" />
<polygon fill="#effcff" fill-opacity="0.501961" points="206,58 204,47 200,47" />
<polygon fill="#87b6e3" fill-opacity="0.501961" points="195,201 271,212 268,174" />
<polygon fill="#5d9ad3" fill-opacity="0.501961" points="240,241 271,246 256,207" />
<polygon fill="#fffffd" fill-opacity="0.501961" points="83,37 74,33 81,41" />
<polygon fill="#c7e4f9" fill-opacity="0.501961" points="-16,32 56,110 -16,91" />
<polygon fill="#feffff" fill-opacity="0.501961" points="215,37 208,38 209,41" />
<polygon fill="#c1dbf4" fill-opacity="0.501961" points="240,172 247,171 244,179" />
<polygon fill="#4b8fc5" fill-opacity="0.501961" points="55,236 60,228 52,224" />
<polygon fill="#c4e9f7" fill-opacity="0.501961" points="52,244 54,236 60,242" />
<polygon fill="#cae0f5" fill-opacity="0.501961" points="180,239 181,228 177,230" />
<polygon fill="#5695d0" fill-opacity="0.501961" points="153,236 180,234 162,225" />
<polygon fill="#6693c9" fill-opacity="0.501961" points="53,128 51,131 48,127" />
<polygon fill="#91bce7" fill-opacity="0.501961" points="192,170 263,142 214,206" />
<polygon fill="#87acdb" fill-opacity="0.501961" points="55,4 65,6 61,-2" />
<polygon fill="#86afd6" fill-opacity="0.501961" points="-16,117 -5,109 9,128" />
<polygon fill="#cbedff" fill-opacity="0.501961" points="15,226 19,226 19,223" />
<polygon fill="#68a3d7" fill-opacity="0.501961" points="48,218 31,201 81,200" />
<polygon fill="#cce8f9" fill-opacity="0.501961" points="85,15 120,44 71,22" />
<polygon fill="#a0caed" fill-opacity="0.501961" points="106,4 117,-16 77,7" />
<polygon fill="#66a3d5" fill-opacity="0.501961" points="23,216 35,224 62,218" />
<polygon fill="#b0d0f2" fill-opacity="0.501961" points="233,26 271,48 262,159" />
<polygon fill="#88b0dc" fill-opacity="0.501961" points="186,148 196,143 188,140" />
<polygon fill="#7baedf" fill-opacity="0.501961" points="134,220 194,176 166,222" />
<polygon fill="#faffff" fill-opacity="0.501961" points="28,16 34,21 36,17" />
</g>
</svg>