<svg xmlns="http://www.w3.org/2000/svg" version="1.1" width="1024" height="1024">
<rect x="0" y="0" width="1024" height="1024" fill="#849586" />
<g transform="scale(4.000000) translate(0.5 0.5)">
<polygon fill="#003335" fill-opacity="0.501961" points="-16,258 30,80 164,8" />
<polygon fill="#e6d4b9" fill-opacity="0.501961" points="3,229 154,75 271,223" />
<polygon fill="#00343c" fill-opacity="0.501961" points="142,84 238,-16 271,6" />
<polygon fill="#c1bda8" fill-opacity="0.501961" points="250,29 47,141 271,204" />
<polygon fill="#004047" fill-opacity="0.501961" points="139,-16 50,80 136,60" />
<polygon fill="#3d6f6f" fill-opacity="0.501961" points="202,65 164,136 222,136" />
<polygon fill="#003944" fill-opacity="0.501961" points="194,-16 161,13 271,6" />
<polygon fill="#0c4f4f" fill-opacity="0.501961" points="6,124 69,163 -16,237" />
<polygon fill="#00143a" fill-opacity="0.501961" points="-6,0 0,45 20,-16" />
<polygon fill="#003634" fill-opacity="0.501961" points="147,63 197,46 112,107" />
<polygon fill="#d1caaf" fill-opacity="0.501961" points="55,89 49,66 -11,116" />
<polygon fill="#adb59b" fill-opacity="0.501961" points="218,26 153,56 238,-16" />
<polygon fill="#00353e" fill-opacity="0.501961" points="-16,97 31,84 35,63" />
<polygon fill="#bdbba3" fill-opacity="0.501961" points="16,167 144,59 95,130" />
<polygon fill="#a3a790" fill-opacity="0.501961" points="-16,218 271,203 161,265" />
<polygon fill="#638375" fill-opacity="0.501961" points="41,184 33,271 -16,245" />
<polygon fill="#d0c4ab" fill-opacity="0.501961" points="271,230 271,50 208,95" />
<polygon fill="#24564e" fill-opacity="0.501961" points="148,49 55,143 -16,140" />
<polygon fill="#003c53" fill-opacity="0.501961" points="222,133 189,129 220,118" />
<polygon fill="#b4b59a" fill-opacity="0.501961" points="189,33 129,80 153,8" />
<polygon fill="#ddccaf" fill-opacity="0.501961" points="179,113 179,145 206,94" />
<polygon fill="#457571" fill-opacity="0.501961" points="255,211 271,271 206,255" />
<polygon fill="#cec6ac" fill-opacity="0.501961" points="17,174 -6,179 32,156" />
<polygon fill="#00515d" fill-opacity="0.501961" points="178,109 221,82 199,86" />
<polygon fill="#d0c7b0" fill-opacity="0.501961" points="180,62 69,136 107,223" />
<polygon fill="#002a36" fill-opacity="0.501961" points="80,216 76,205 86,207" />
<polygon fill="#1c4b44" fill-opacity="0.501961" points="37,155 40,193 76,143" />
<polygon fill="#003b46" fill-opacity="0.501961" points="239,24 189,53 257,-16" />
<polygon fill="#00343f" fill-opacity="0.501961" points="171,17 205,4 176,-16" />
<polygon fill="#618a82" fill-opacity="0.501961" points="179,98 150,181 184,132" />
<polygon fill="#778f7f" fill-opacity="0.501961" points="186,80 262,0 271,59" />
<polygon fill="#063e37" fill-opacity="0.501961" points="110,107 121,87 133,89" />
<polygon fill="#306d69" fill-opacity="0.501961" points="-9,2 57,-16 26,30" />
<polygon fill="#b8b89c" fill-opacity="0.501961" points="136,27 141,8 124,17" />
<polygon fill="#115151" fill-opacity="0.501961" points="110,16 56,89 147,54" />
<polygon fill="#235550" fill-opacity="0.501961" points="79,117 41,148 31,78" />
<polygon fill="#c9c0ab" fill-opacity="0.501961" points="188,131 248,169 120,247" />
<polygon fill="#004156" fill-opacity="0.501961" points="-16,11 15,-10 0,43" />
<polygon fill="#255c5a" fill-opacity="0.501961" points="16,39 37,52 20,60" />
<polygon fill="#00484b" fill-opacity="0.501961" points="183,40 220,36 148,72" />
<polygon fill="#00313f" fill-opacity="0.501961" points="118,16 174,-16 141,-10" />
<polygon fill="#ccc5a8" fill-opacity="0.501961" points="41,87 38,60 62,91" />
<polygon fill="#a9af9b" fill-opacity="0.501961" points="21,132 19,93 34,79" />
<polygon fill="#074d51" fill-opacity="0.501961" points="67,237 59,221 60,239" />
<polygon fill="#9fa790" fill-opacity="0.501961" points="50,67 83,53 25,4" />
<polygon fill="#90a08e" fill-opacity="0.501961" points="86,103 115,87 83,129" />
<polygon fill="#9ea48f" fill-opacity="0.501961" points="61,173 81,229 -6,229" />
<polygon fill="#0a4c4d" fill-opacity="0.501961" points="65,144 -16,240 15,171" />
<polygon fill="#507c73" fill-opacity="0.501961" points="214,-14 236,1 186,25" />
<polygon fill="#034a58" fill-opacity="0.501961" points="193,134 213,119 191,122" />
<polygon fill="#909b88" fill-opacity="0.501961" points="195,247 252,233 271,166" />
<polygon fill="#125051" fill-opacity="0.501961" points="147,38 79,41 98,87" />
<polygon fill="#c9c2ac" fill-opacity="0.501961" points="77,206 71,125 184,129" />
<polygon fill="#003a3f" fill-opacity="0.501961" points="-13,186 22,157 -16,163" />
<polygon fill="#c0baa2" fill-opacity="0.501961" points="163,146 204,109 195,95" />
<polygon fill="#bbb79e" fill-opacity="0.501961" points="33,87 -1,99 4,129" />
<polygon fill="#cec6ad" fill-opacity="0.501961" points="134,59 153,58 109,98" />
<polygon fill="#005056" fill-opacity="0.501961" points="204,117 210,102 207,85" />
<polygon fill="#136770" fill-opacity="0.501961" points="171,136 184,106 175,108" />
<polygon fill="#b5b49d" fill-opacity="0.501961" points="146,86 163,140 210,42" />
<polygon fill="#004449" fill-opacity="0.501961" points="15,70 21,89 33,74" />
<polygon fill="#b9b9a3" fill-opacity="0.501961" points="98,166 59,171 124,95" />
<polygon fill="#d4c9b2" fill-opacity="0.501961" points="162,174 192,138 253,136" />
<polygon fill="#e7d5ba" fill-opacity="0.501961" points="63,142 54,139 37,153" />
<polygon fill="#00383a" fill-opacity="0.501961" points="151,233 161,231 153,238" />
<polygon fill="#d0c2a7" fill-opacity="0.501961" points="15,145 5,159 -3,159" />
<polygon fill="#c9c1ab" fill-opacity="0.501961" points="235,74 236,133 208,110" />
<polygon fill="#003f46" fill-opacity="0.501961" points="-16,104 -16,69 8,95" />
<polygon fill="#003e37" fill-opacity="0.501961" points="213,161 213,154 210,154" />
<polygon fill="#104d4e" fill-opacity="0.501961" points="59,136 16,163 8,136" />
<polygon fill="#00393b" fill-opacity="0.501961" points="224,151 234,150 227,154" />
<polygon fill="#638478" fill-opacity="0.501961" points="109,-16 60,61 82,-16" />
<polygon fill="#a5a992" fill-opacity="0.501961" points="106,19 8,33 73,46" />
<polygon fill="#406c63" fill-opacity="0.501961" points="78,128 99,102 93,119" />
<polygon fill="#9da48f" fill-opacity="0.501961" points="202,37 162,33 221,13" />
<polygon fill="#00454f" fill-opacity="0.501961" points="223,8 271,-13 224,32" />
<polygon fill="#afae98" fill-opacity="0.501961" points="214,233 141,246 271,150" />
<polygon fill="#024a4f" fill-opacity="0.501961" points="114,33 128,66 146,20" />
<polygon fill="#1a5454" fill-opacity="0.501961" points="14,132 30,106 -5,139" />
<polygon fill="#004f51" fill-opacity="0.501961" points="73,215 86,213 78,206" />
<polygon fill="#c6bea1" fill-opacity="0.501961" points="-6,70 15,49 20,61" />
<polygon fill="#17514c" fill-opacity="0.501961" points="190,55 160,55 129,89" />
<polygon fill="#d0cab3" fill-opacity="0.501961" points="95,101 88,125 84,116" />
<polygon fill="#b78d78" fill-opacity="0.501961" points="207,138 181,131 228,131" />
<polygon fill="#24554b" fill-opacity="0.501961" points="188,178 188,187 193,189" />
<polygon fill="#8f9c8b" fill-opacity="0.501961" points="232,26 239,74 182,94" />
<polygon fill="#b9b6a0" fill-opacity="0.501961" points="6,175 -16,182 6,184" />
<polygon fill="#00525e" fill-opacity="0.501961" points="5,46 -13,-12 8,-12" />
<polygon fill="#7e9385" fill-opacity="0.501961" points="31,119 0,139 24,132" />
<polygon fill="#1e5556" fill-opacity="0.501961" points="39,17 27,17 23,32" />
<polygon fill="#98a48e" fill-opacity="0.501961" points="170,7 145,45 143,25" />
<polygon fill="#4b7468" fill-opacity="0.501961" points="114,126 123,120 108,121" />
<polygon fill="#628278" fill-opacity="0.501961" points="14,211 -16,234 35,271" />
<polygon fill="#315a51" fill-opacity="0.501961" points="28,196 74,151 47,149" />
<polygon fill="#6a867c" fill-opacity="0.501961" points="92,47 109,29 132,23" />
<polygon fill="#00454b" fill-opacity="0.501961" points="168,6 221,-16 189,14" />
<polygon fill="#417572" fill-opacity="0.501961" points="271,242 271,271 173,255" />
<polygon fill="#adaf98" fill-opacity="0.501961" points="153,243 121,181 66,231" />
<polygon fill="#aaab90" fill-opacity="0.501961" points="75,91 52,91 66,86" />
<polygon fill="#054b4e" fill-opacity="0.501961" points="37,193 3,182 -16,230" />
</g>
</svg>