<svg xmlns="http://www.w3.org/2000/svg" version="1.1" width="1024" height="1024">
<rect x="0" y="0" width="1024" height="1024" fill="#2d415f" />
<g transform="scale(4.000000) translate(0.5 0.5)">
<polygon fill="#93f8ff" fill-opacity="0.501961" points="130,51 40,221 208,205" />
<polygon fill="#ee27ff" fill-opacity="0.501961" points="154,209 206,206 172,19" />
<polygon fill="#050000" fill-opacity="0.501961" points="149,-16 253,271 271,-1" />
<polygon fill="#040000" fill-opacity="0.501961" points="-16,-15 10,271 97,-6" />
<polygon fill="#24ffe3" fill-opacity="0.501961" points="161,228 96,227 128,-13" />
<polygon fill="#6178ff" fill-opacity="0.501961" points="49,221 76,25 112,210" />
<polygon fill="#ffffff" fill-opacity="0.501961" points="154,202 59,172 56,205" />
<polygon fill="#00000d" fill-opacity="0.501961" points="86,104 111,34 102,182" />
<polygon fill="#06000d" fill-opacity="0.501961" points="-16,249 58,128 55,271" />
<polygon fill="#020000" fill-opacity="0.501961" points="197,119 200,262 252,271" />
<polygon fill="#070000" fill-opacity="0.501961" points="227,-16 53,59 105,-16" />
<polygon fill="#090005" fill-opacity="0.501961" points="171,35 155,151 136,4" />
<polygon fill="#c2ffff" fill-opacity="0.501961" points="112,206 153,212 150,103" />
<polygon fill="#2758dc" fill-opacity="0.501961" points="106,209 56,132 85,39" />
<polygon fill="#a12af3" fill-opacity="0.501961" points="156,57 181,47 199,143" />
<polygon fill="#000000" fill-opacity="0.501961" points="151,180 157,148 161,195" />
<polygon fill="#00afc4" fill-opacity="0.501961" points="141,18 128,197 105,113" />
<polygon fill="#00292b" fill-opacity="0.501961" points="178,271 -16,243 242,211" />
<polygon fill="#00bd82" fill-opacity="0.501961" points="67,216 145,248 165,205" />
<polygon fill="#fffcff" fill-opacity="0.501961" points="204,194 161,202 159,176" />
<polygon fill="#a52dff" fill-opacity="0.501961" points="157,125 202,201 171,70" />
<polygon fill="#000000" fill-opacity="0.501961" points="106,166 96,145 99,196" />
<polygon fill="#0018dc" fill-opacity="0.501961" points="50,213 68,235 108,209" />
<polygon fill="#00ef6c" fill-opacity="0.501961" points="95,206 103,187 120,236" />
<polygon fill="#dab1ff" fill-opacity="0.501961" points="57,188 68,157 60,123" />
<polygon fill="#0c1116" fill-opacity="0.501961" points="118,53 83,-5 99,139" />
<polygon fill="#44f9e4" fill-opacity="0.501961" points="117,29 139,28 118,77" />
<polygon fill="#004a2c" fill-opacity="0.501961" points="162,230 158,169 151,199" />
<polygon fill="#f2f5ff" fill-opacity="0.501961" points="93,209 45,195 96,182" />
<polygon fill="#00576b" fill-opacity="0.501961" points="112,109 131,90 121,148" />
<polygon fill="#161822" fill-opacity="0.501961" points="80,0 259,89 271,-3" />
<polygon fill="#6500bb" fill-opacity="0.501961" points="205,201 161,207 186,221" />
<polygon fill="#0a1118" fill-opacity="0.501961" points="156,127 139,62 167,46" />
<polygon fill="#d966ff" fill-opacity="0.501961" points="199,205 181,172 194,114" />
<polygon fill="#000000" fill-opacity="0.501961" points="152,116 152,164 160,141" />
<polygon fill="#161928" fill-opacity="0.501961" points="83,271 -16,260 2,95" />
<polygon fill="#4776ee" fill-opacity="0.501961" points="62,183 97,183 95,103" />
<polygon fill="#89f2ff" fill-opacity="0.501961" points="152,188 149,96 123,154" />
<polygon fill="#004398" fill-opacity="0.501961" points="64,147 82,94 97,147" />
<polygon fill="#7f09db" fill-opacity="0.501961" points="177,187 196,120 173,57" />
<polygon fill="#fffeff" fill-opacity="0.501961" points="152,191 104,195 135,209" />
<polygon fill="#ece2ff" fill-opacity="0.501961" points="78,61 73,52 88,55" />
<polygon fill="#191325" fill-opacity="0.501961" points="271,263 140,266 258,146" />
<polygon fill="#00ff93" fill-opacity="0.501961" points="94,208 156,209 151,226" />
<polygon fill="#01cbdd" fill-opacity="0.501961" points="112,88 138,32 140,143" />
<polygon fill="#e06dfe" fill-opacity="0.501961" points="186,50 167,50 166,71" />
<polygon fill="#fffcff" fill-opacity="0.501961" points="164,193 198,186 195,200" />
<polygon fill="#001a2c" fill-opacity="0.501961" points="97,184 105,195 104,159" />
<polygon fill="#b051ff" fill-opacity="0.501961" points="160,184 198,182 159,103" />
<polygon fill="#003d56" fill-opacity="0.501961" points="176,260 45,235 97,220" />
<polygon fill="#00e7cf" fill-opacity="0.501961" points="112,145 131,191 111,191" />
<polygon fill="#0c1118" fill-opacity="0.501961" points="106,152 96,185 96,119" />
<polygon fill="#d0ffff" fill-opacity="0.501961" points="106,160 105,209 118,206" />
<polygon fill="#50fef0" fill-opacity="0.501961" points="106,99 106,158 117,123" />
<polygon fill="#db88ff" fill-opacity="0.501961" points="183,104 194,118 184,83" />
<polygon fill="#ffdfff" fill-opacity="0.501961" points="95,143 90,157 96,165" />
<polygon fill="#0b11be" fill-opacity="0.501961" points="42,192 64,235 55,189" />
<polygon fill="#181a26" fill-opacity="0.501961" points="-16,-16 -16,104 157,4" />
<polygon fill="#aa78ff" fill-opacity="0.501961" points="63,132 68,100 59,115" />
<polygon fill="#566bff" fill-opacity="0.501961" points="85,71 70,53 74,122" />
<polygon fill="#171a25" fill-opacity="0.501961" points="194,76 271,178 203,236" />
<polygon fill="#640aaa" fill-opacity="0.501961" points="174,111 187,53 171,63" />
<polygon fill="#dfb1ff" fill-opacity="0.501961" points="160,108 169,80 168,104" />
<polygon fill="#75ffff" fill-opacity="0.501961" points="149,99 138,74 144,130" />
<polygon fill="#1936f0" fill-opacity="0.501961" points="64,142 72,170 63,180" />
<polygon fill="#191b25" fill-opacity="0.501961" points="53,184 -16,228 64,80" />
<polygon fill="#00b963" fill-opacity="0.501961" points="104,216 164,216 103,240" />
<polygon fill="#004386" fill-opacity="0.501961" points="160,206 146,245 180,219" />
<polygon fill="#746eff" fill-opacity="0.501961" points="97,129 94,105 82,96" />
<polygon fill="#132026" fill-opacity="0.501961" points="88,81 101,135 122,7" />
<polygon fill="#100013" fill-opacity="0.501961" points="159,180 158,144 151,169" />
<polygon fill="#005762" fill-opacity="0.501961" points="124,146 117,102 113,134" />
<polygon fill="#a9ffff" fill-opacity="0.501961" points="105,178 113,153 106,141" />
<polygon fill="#0055e9" fill-opacity="0.501961" points="96,225 63,221 99,202" />
<polygon fill="#005a5e" fill-opacity="0.501961" points="114,53 129,49 143,55" />
<polygon fill="#fff7ff" fill-opacity="0.501961" points="74,155 77,147 78,160" />
<polygon fill="#e9e4ff" fill-opacity="0.501961" points="95,198 82,204 95,168" />
<polygon fill="#0971eb" fill-opacity="0.501961" points="86,188 93,144 80,148" />
<polygon fill="#1effde" fill-opacity="0.501961" points="107,101 112,119 117,80" />
<polygon fill="#e1a3ff" fill-opacity="0.501961" points="161,169 158,129 165,148" />
<polygon fill="#181b27" fill-opacity="0.501961" points="70,82 -16,-16 9,271" />
<polygon fill="#171d2a" fill-opacity="0.501961" points="191,55 271,5 43,-16" />
<polygon fill="#0089a9" fill-opacity="0.501961" points="98,220 105,191 97,181" />
<polygon fill="#6e0fcd" fill-opacity="0.501961" points="170,89 190,110 162,130" />
<polygon fill="#02b2bd" fill-opacity="0.501961" points="127,115 111,173 130,178" />
<polygon fill="#e5dfff" fill-opacity="0.501961" points="59,216 82,191 60,177" />
<polygon fill="#d8cfff" fill-opacity="0.501961" points="61,142 67,153 58,167" />
<polygon fill="#ffffff" fill-opacity="0.501961" points="173,78 170,85 169,79" />
<polygon fill="#171925" fill-opacity="0.501961" points="182,24 187,93 271,151" />
<polygon fill="#161a28" fill-opacity="0.501961" points="164,63 157,127 140,62" />
<polygon fill="#d4f9f8" fill-opacity="0.501961" points="136,211 152,194 151,158" />
<polygon fill="#ff56f8" fill-opacity="0.501961" points="188,205 160,198 205,195" />
<polygon fill="#9900ce" fill-opacity="0.501961" points="179,211 190,199 201,212" />
<polygon fill="#6b74f8" fill-opacity="0.501961" points="67,93 87,92 87,66" />
<polygon fill="#07112e" fill-opacity="0.501961" points="30,232 113,271 93,235" />
<polygon fill="#c0ebde" fill-opacity="0.501961" points="130,37 121,30 134,28" />
<polygon fill="#00df7e" fill-opacity="0.501961" points="150,199 160,200 158,216" />
<polygon fill="#005ba4" fill-opacity="0.501961" points="168,44 177,47 164,52" />
<polygon fill="#50deef" fill-opacity="0.501961" points="131,113 140,150 120,165" />
<polygon fill="#ca83ff" fill-opacity="0.501961" points="198,184 185,144 196,144" />
</g>
</svg>