<svg xmlns="http://www.w3.org/2000/svg" version="1.1" width="1024" height="1024">
<rect x="0" y="0" width="1024" height="1024" fill="#efd0ea" />
<g transform="scale(4.000000) translate(0.5 0.5)">
<polygon fill="#cf8bc9" fill-opacity="0.501961" points="251,271 -5,252 271,197" />
<polygon fill="#9f619a" fill-opacity="0.501961" points="100,104 159,106 132,151" />
<polygon fill="#ffffff" fill-opacity="0.501961" points="271,-1 155,-12 247,215" />
<polygon fill="#fbedfa" fill-opacity="0.501961" points="13,48 181,189 -16,201" />
<polygon fill="#eab6e2" fill-opacity="0.501961" points="203,47 134,128 47,49" />
<polygon fill="#bd74b6" fill-opacity="0.501961" points="271,224 181,248 250,271" />
<polygon fill="#ffeaf7" fill-opacity="0.501961" points="135,168 271,197 234,-16" />
<polygon fill="#552d52" fill-opacity="0.501961" points="125,146 108,112 124,126" />
<polygon fill="#e1bede" fill-opacity="0.501961" points="-16,216 207,217 8,271" />
<polygon fill="#784d75" fill-opacity="0.501961" points="132,131 140,140 155,109" />
<polygon fill="#e3aede" fill-opacity="0.501961" points="115,2 -16,45 2,-16" />
<polygon fill="#efc4ea" fill-opacity="0.501961" points="247,168 264,215 74,237" />
<polygon fill="#e4b6e0" fill-opacity="0.501961" points="69,67 128,124 178,91" />
<polygon fill="#f3d7f1" fill-opacity="0.501961" points="257,190 29,215 133,137" />
<polygon fill="#ffddef" fill-opacity="0.501961" points="224,9 141,79 118,-16" />
<polygon fill="#fff5f8" fill-opacity="0.501961" points="193,3 255,156 271,-12" />
<polygon fill="#f3d8f1" fill-opacity="0.501961" points="-16,55 66,54 167,204" />
<polygon fill="#d3b1d0" fill-opacity="0.501961" points="56,236 5,271 -8,227" />
<polygon fill="#bf7eba" fill-opacity="0.501961" points="80,81 85,65 96,81" />
<polygon fill="#c68bc0" fill-opacity="0.501961" points="140,149 136,126 118,127" />
<polygon fill="#e0a8d5" fill-opacity="0.501961" points="135,81 156,114 180,69" />
<polygon fill="#da9cd4" fill-opacity="0.501961" points="189,233 271,222 160,271" />
<polygon fill="#f2d3ef" fill-opacity="0.501961" points="90,135 119,127 86,104" />
<polygon fill="#eec8ea" fill-opacity="0.501961" points="146,116 125,127 98,40" />
<polygon fill="#f8ebf6" fill-opacity="0.501961" points="92,184 -4,83 -16,179" />
<polygon fill="#dfafdb" fill-opacity="0.501961" points="129,246 128,164 140,203" />
<polygon fill="#000000" fill-opacity="0.501961" points="146,123 143,121 145,119" />
<polygon fill="#f2ccef" fill-opacity="0.501961" points="178,101 177,115 138,128" />
<polygon fill="#b877b1" fill-opacity="0.501961" points="214,254 247,271 271,235" />
<polygon fill="#693b68" fill-opacity="0.501961" points="122,127 136,129 131,132" />
<polygon fill="#f1c8eb" fill-opacity="0.501961" points="-16,39 151,-16 116,52" />
<polygon fill="#3c1b3a" fill-opacity="0.501961" points="142,129 137,139 145,132" />
<polygon fill="#b56fb0" fill-opacity="0.501961" points="112,106 102,100 110,117" />
<polygon fill="#dbaad7" fill-opacity="0.501961" points="-16,28 68,-16 -6,-2" />
<polygon fill="#e3b7de" fill-opacity="0.501961" points="141,152 135,128 120,155" />
<polygon fill="#f3d4ed" fill-opacity="0.501961" points="203,39 144,133 173,148" />
<polygon fill="#e6b9e0" fill-opacity="0.501961" points="149,121 122,91 135,69" />
<polygon fill="#000000" fill-opacity="0.501961" points="121,133 122,137 125,140" />
<polygon fill="#fae2f4" fill-opacity="0.501961" points="255,181 186,175 192,30" />
<polygon fill="#f2cce9" fill-opacity="0.501961" points="141,80 109,40 204,43" />
<polygon fill="#d8acd6" fill-opacity="0.501961" points="82,58 52,48 75,44" />
<polygon fill="#edd8eb" fill-opacity="0.501961" points="92,222 -8,167 6,220" />
<polygon fill="#e5c0e1" fill-opacity="0.501961" points="94,231 0,227 123,269" />
<polygon fill="#f1cfef" fill-opacity="0.501961" points="93,80 123,79 91,105" />
<polygon fill="#edc4e6" fill-opacity="0.501961" points="165,216 245,188 267,211" />
<polygon fill="#f7dbf0" fill-opacity="0.501961" points="190,132 213,85 157,81" />
<polygon fill="#522b4e" fill-opacity="0.501961" points="120,124 111,116 117,126" />
<polygon fill="#f4d7f1" fill-opacity="0.501961" points="118,124 73,124 86,162" />
<polygon fill="#f2d8f0" fill-opacity="0.501961" points="9,48 89,65 -16,124" />
<polygon fill="#eccce8" fill-opacity="0.501961" points="137,137 122,154 137,206" />
<polygon fill="#bd83b7" fill-opacity="0.501961" points="79,76 87,81 88,86" />
<polygon fill="#cd8ec6" fill-opacity="0.501961" points="164,101 149,113 148,104" />
<polygon fill="#f5dcf2" fill-opacity="0.501961" points="42,33 82,194 93,97" />
<polygon fill="#e1b3dd" fill-opacity="0.501961" points="147,114 134,129 136,116" />
<polygon fill="#f0ceec" fill-opacity="0.501961" points="170,91 179,127 140,140" />
<polygon fill="#d9a1d4" fill-opacity="0.501961" points="124,141 140,127 127,152" />
<polygon fill="#f8e5f5" fill-opacity="0.501961" points="123,182 75,176 125,147" />
<polygon fill="#e7b3da" fill-opacity="0.501961" points="145,108 164,70 193,63" />
<polygon fill="#edc8e9" fill-opacity="0.501961" points="127,2 9,26 -16,78" />
<polygon fill="#7e4677" fill-opacity="0.501961" points="110,114 117,118 113,120" />
<polygon fill="#ce98c8" fill-opacity="0.501961" points="143,148 137,135 116,126" />
<polygon fill="#ce91c8" fill-opacity="0.501961" points="98,104 118,113 103,97" />
<polygon fill="#f7ddf4" fill-opacity="0.501961" points="201,143 139,143 141,199" />
<polygon fill="#fff7fa" fill-opacity="0.501961" points="231,16 262,130 262,-16" />
<polygon fill="#e5b9e0" fill-opacity="0.501961" points="134,112 119,120 128,130" />
<polygon fill="#e7bbe2" fill-opacity="0.501961" points="118,126 108,119 108,127" />
<polygon fill="#fee5f3" fill-opacity="0.501961" points="221,-16 144,38 215,44" />
<polygon fill="#f8d9ee" fill-opacity="0.501961" points="183,-16 94,40 172,43" />
<polygon fill="#f5d9f0" fill-opacity="0.501961" points="136,189 250,156 258,187" />
<polygon fill="#d9a3d3" fill-opacity="0.501961" points="127,269 130,213 141,261" />
<polygon fill="#d99ed3" fill-opacity="0.501961" points="218,225 271,229 165,256" />
<polygon fill="#e4b0de" fill-opacity="0.501961" points="205,212 271,208 149,250" />
<polygon fill="#c191bc" fill-opacity="0.501961" points="139,143 138,151 136,141" />
<polygon fill="#dba1d4" fill-opacity="0.501961" points="152,81 163,104 139,80" />
<polygon fill="#eecaeb" fill-opacity="0.501961" points="134,151 121,146 139,140" />
<polygon fill="#d4b2d2" fill-opacity="0.501961" points="5,271 -16,234 29,243" />
<polygon fill="#e9bfe5" fill-opacity="0.501961" points="134,215 171,235 235,203" />
<polygon fill="#bd95ba" fill-opacity="0.501961" points="56,51 66,50 55,48" />
<polygon fill="#f0d4ee" fill-opacity="0.501961" points="-16,83 26,38 67,54" />
<polygon fill="#f4c8e4" fill-opacity="0.501961" points="183,76 143,51 188,48" />
<polygon fill="#e3b7e0" fill-opacity="0.501961" points="65,52 83,44 84,69" />
<polygon fill="#efcfec" fill-opacity="0.501961" points="121,139 105,113 110,142" />
<polygon fill="#dfafdb" fill-opacity="0.501961" points="107,61 108,81 98,74" />
<polygon fill="#f4d6f1" fill-opacity="0.501961" points="136,113 129,117 116,114" />
<polygon fill="#c288bd" fill-opacity="0.501961" points="124,140 130,134 124,146" />
<polygon fill="#7a4a78" fill-opacity="0.501961" points="133,132 124,127 127,131" />
<polygon fill="#7a4775" fill-opacity="0.501961" points="112,114 113,122 110,115" />
<polygon fill="#f4e0f1" fill-opacity="0.501961" points="90,181 72,210 -16,174" />
<polygon fill="#5f365d" fill-opacity="0.501961" points="116,127 125,133 126,140" />
<polygon fill="#fbe7f6" fill-opacity="0.501961" points="265,118 179,132 271,179" />
<polygon fill="#f0ceed" fill-opacity="0.501961" points="16,43 132,22 75,50" />
<polygon fill="#523252" fill-opacity="0.501961" points="121,124 125,128 114,123" />
<polygon fill="#c486bf" fill-opacity="0.501961" points="83,68 81,72 89,80" />
<polygon fill="#ce87ba" fill-opacity="0.501961" points="178,75 173,83 174,78" />
<polygon fill="#cc8fc4" fill-opacity="0.501961" points="122,130 135,135 125,136" />
<polygon fill="#eccdea" fill-opacity="0.501961" points="128,208 -10,212 72,232" />
<polygon fill="#eeceeb" fill-opacity="0.501961" points="93,121 124,128 96,113" />
<polygon fill="#edc8e9" fill-opacity="0.501961" points="108,49 122,74 66,64" />
<polygon fill="#f1d1ef" fill-opacity="0.501961" points="229,198 130,177 133,205" />
<polygon fill="#dda4d9" fill-opacity="0.501961" points="150,244 202,271 189,234" />
</g>
</svg>