<svg xmlns="http://www.w3.org/2000/svg" version="1.1" width="1024" height="1024">
<rect x="0" y="0" width="1024" height="1024" fill="#929aa7" />
<g transform="scale(4.000000) translate(0.5 0.5)">
<polygon fill="#141215" fill-opacity="0.501961" points="271,252 2,271 -16,170" />
<polygon fill="#ffffff" fill-opacity="0.501961" points="238,46 -16,59 133,-16" />
<polygon fill="#dbdad3" fill-opacity="0.501961" points="271,136 -16,173 13,90" />
<polygon fill="#00143b" fill-opacity="0.501961" points="160,253 258,267 263,194" />
<polygon fill="#ece2db" fill-opacity="0.501961" points="245,84 191,210 271,182" />
<polygon fill="#000400" fill-opacity="0.501961" points="124,232 -16,252 141,271" />
<polygon fill="#999aa5" fill-opacity="0.501961" points="58,250 -16,204 271,85" />
<polygon fill="#4c7cb6" fill-opacity="0.501961" points="258,5 66,98 271,59" />
<polygon fill="#f8f3e6" fill-opacity="0.501961" points="84,200 137,142 66,132" />
<polygon fill="#e6e5e8" fill-opacity="0.501961" points="89,72 112,-16 251,19" />
<polygon fill="#647282" fill-opacity="0.501961" points="60,191 41,117 77,122" />
<polygon fill="#4e6e90" fill-opacity="0.501961" points="67,104 188,81 56,57" />
<polygon fill="#000b00" fill-opacity="0.501961" points="37,230 -16,241 29,271" />
<polygon fill="#fffaef" fill-opacity="0.501961" points="60,152 -13,175 11,130" />
<polygon fill="#00419d" fill-opacity="0.501961" points="204,-7 251,20 266,-16" />
<polygon fill="#6d6e88" fill-opacity="0.501961" points="232,233 113,237 39,185" />
<polygon fill="#adbbd0" fill-opacity="0.501961" points="10,5 122,64 -16,66" />
<polygon fill="#585f6e" fill-opacity="0.501961" points="192,141 182,119 256,83" />
<polygon fill="#d9d6d1" fill-opacity="0.501961" points="235,166 231,113 165,157" />
<polygon fill="#dcddd7" fill-opacity="0.501961" points="214,49 177,123 134,138" />
<polygon fill="#f0eade" fill-opacity="0.501961" points="179,197 161,200 150,144" />
<polygon fill="#000700" fill-opacity="0.501961" points="145,270 249,237 271,266" />
<polygon fill="#35669d" fill-opacity="0.501961" points="58,-16 -16,5 58,14" />
<polygon fill="#556676" fill-opacity="0.501961" points="149,174 117,189 147,131" />
<polygon fill="#3f5e84" fill-opacity="0.501961" points="-15,69 43,71 0,97" />
<polygon fill="#4e6887" fill-opacity="0.501961" points="18,131 32,110 57,125" />
<polygon fill="#fdf4ea" fill-opacity="0.501961" points="208,213 204,156 224,180" />
<polygon fill="#4e5e79" fill-opacity="0.501961" points="91,221 48,196 58,149" />
<polygon fill="#d5d3ce" fill-opacity="0.501961" points="75,189 93,101 129,209" />
<polygon fill="#061600" fill-opacity="0.501961" points="97,226 64,271 152,267" />
<polygon fill="#94aed2" fill-opacity="0.501961" points="142,43 258,45 271,82" />
<polygon fill="#627891" fill-opacity="0.501961" points="57,85 185,58 180,106" />
<polygon fill="#6e6a7c" fill-opacity="0.501961" points="143,245 198,190 105,222" />
<polygon fill="#e2e0e0" fill-opacity="0.501961" points="83,56 209,-2 69,-16" />
<polygon fill="#45587b" fill-opacity="0.501961" points="163,250 244,243 207,208" />
<polygon fill="#f6f5ea" fill-opacity="0.501961" points="175,228 152,216 176,221" />
<polygon fill="#1465be" fill-opacity="0.501961" points="271,14 271,50 221,36" />
<polygon fill="#4c5b6f" fill-opacity="0.501961" points="61,132 41,145 22,144" />
<polygon fill="#c5c7ce" fill-opacity="0.501961" points="42,5 -16,26 52,48" />
<polygon fill="#5b6574" fill-opacity="0.501961" points="203,160 152,173 203,174" />
<polygon fill="#a0aab3" fill-opacity="0.501961" points="111,143 125,77 90,101" />
<polygon fill="#f1e8dc" fill-opacity="0.501961" points="178,172 188,187 156,181" />
<polygon fill="#eee9e1" fill-opacity="0.501961" points="239,70 207,94 223,72" />
<polygon fill="#a7b3c8" fill-opacity="0.501961" points="215,1 251,19 130,68" />
<polygon fill="#194372" fill-opacity="0.501961" points="38,194 24,176 -16,182" />
<polygon fill="#6a6d7b" fill-opacity="0.501961" points="253,84 240,69 198,117" />
<polygon fill="#f0ebe1" fill-opacity="0.501961" points="55,137 61,150 11,170" />
<polygon fill="#f6f2eb" fill-opacity="0.501961" points="93,123 114,147 62,160" />
<polygon fill="#3f586d" fill-opacity="0.501961" points="174,129 168,140 151,133" />
<polygon fill="#adbac6" fill-opacity="0.501961" points="106,131 -4,104 40,71" />
<polygon fill="#a0a4ad" fill-opacity="0.501961" points="208,165 271,121 204,138" />
<polygon fill="#001700" fill-opacity="0.501961" points="9,260 16,232 89,271" />
<polygon fill="#fffff6" fill-opacity="0.501961" points="105,100 83,123 78,115" />
<polygon fill="#828890" fill-opacity="0.501961" points="120,157 89,169 82,161" />
<polygon fill="#777186" fill-opacity="0.501961" points="-14,192 76,190 8,239" />
<polygon fill="#758da8" fill-opacity="0.501961" points="58,56 13,119 56,86" />
<polygon fill="#f3efe7" fill-opacity="0.501961" points="149,113 192,103 161,125" />
<polygon fill="#83a0c2" fill-opacity="0.501961" points="-16,72 -10,43 97,62" />
<polygon fill="#868c98" fill-opacity="0.501961" points="138,193 114,176 76,184" />
<polygon fill="#e3e0df" fill-opacity="0.501961" points="271,119 257,95 229,120" />
<polygon fill="#fbf9f2" fill-opacity="0.501961" points="21,138 48,135 54,125" />
<polygon fill="#f8f1e7" fill-opacity="0.501961" points="196,80 211,62 179,80" />
<polygon fill="#636e7c" fill-opacity="0.501961" points="103,115 120,121 97,129" />
<polygon fill="#324c69" fill-opacity="0.501961" points="82,102 98,81 131,72" />
<polygon fill="#fdfcf0" fill-opacity="0.501961" points="160,176 157,145 150,158" />
<polygon fill="#958185" fill-opacity="0.501961" points="90,208 79,243 113,215" />
<polygon fill="#204c84" fill-opacity="0.501961" points="198,240 227,212 271,240" />
<polygon fill="#bcc0c8" fill-opacity="0.501961" points="-6,51 116,-16 60,61" />
<polygon fill="#7980a4" fill-opacity="0.501961" points="266,166 271,214 231,230" />
<polygon fill="#7492bb" fill-opacity="0.501961" points="194,68 250,18 229,1" />
<polygon fill="#456080" fill-opacity="0.501961" points="115,101 137,67 180,63" />
<polygon fill="#8e9eb1" fill-opacity="0.501961" points="179,65 193,92 132,99" />
<polygon fill="#f1ece2" fill-opacity="0.501961" points="63,143 100,184 76,175" />
<polygon fill="#d6d1c8" fill-opacity="0.501961" points="40,187 56,172 27,181" />
<polygon fill="#fffff8" fill-opacity="0.501961" points="207,104 196,108 196,114" />
<polygon fill="#707d89" fill-opacity="0.501961" points="76,118 30,146 88,131" />
<polygon fill="#858b9a" fill-opacity="0.501961" points="217,203 221,183 239,174" />
<polygon fill="#4e6383" fill-opacity="0.501961" points="189,186 167,210 198,201" />
<polygon fill="#e1dcd6" fill-opacity="0.501961" points="19,131 48,160 8,176" />
<polygon fill="#e0ddd9" fill-opacity="0.501961" points="246,109 184,163 205,128" />
<polygon fill="#365070" fill-opacity="0.501961" points="72,192 66,209 111,208" />
<polygon fill="#374b63" fill-opacity="0.501961" points="130,158 136,182 122,164" />
<polygon fill="#5b4a4c" fill-opacity="0.501961" points="180,229 106,264 212,249" />
<polygon fill="#737d8a" fill-opacity="0.501961" points="184,154 158,168 166,179" />
<polygon fill="#6d798c" fill-opacity="0.501961" points="239,59 191,100 198,77" />
<polygon fill="#6886a6" fill-opacity="0.501961" points="37,66 83,58 86,113" />
<polygon fill="#000a00" fill-opacity="0.501961" points="223,271 248,234 261,269" />
<polygon fill="#646f7f" fill-opacity="0.501961" points="25,175 67,149 60,169" />
<polygon fill="#6d6872" fill-opacity="0.501961" points="68,246 33,245 86,224" />
<polygon fill="#7f868f" fill-opacity="0.501961" points="124,124 140,175 160,177" />
<polygon fill="#f2ebdf" fill-opacity="0.501961" points="112,191 77,190 110,201" />
<polygon fill="#fef7f2" fill-opacity="0.501961" points="115,144 118,132 140,153" />
<polygon fill="#3a689b" fill-opacity="0.501961" points="64,-16 26,-16 51,23" />
<polygon fill="#072011" fill-opacity="0.501961" points="79,238 84,235 69,231" />
<polygon fill="#eae7e6" fill-opacity="0.501961" points="162,45 49,46 135,6" />
<polygon fill="#fffaf4" fill-opacity="0.501961" points="218,148 225,164 238,151" />
<polygon fill="#f9f4ee" fill-opacity="0.501961" points="13,115 -12,125 6,129" />
<polygon fill="#bcb5ba" fill-opacity="0.501961" points="225,187 218,213 262,197" />
<polygon fill="#115298" fill-opacity="0.501961" points="271,4 219,-16 243,15" />
<polygon fill="#e3e1da" fill-opacity="0.501961" points="229,77 213,94 195,97" />
</g>
</svg>