<svg xmlns="http://www.w3.org/2000/svg" version="1.1" width="1024" height="1024">
<rect x="0" y="0" width="1024" height="1024" fill="#956b6b" />
<g transform="scale(4.000000) translate(0.5 0.5)">
<polygon fill="#271700" fill-opacity="0.501961" points="271,263 -16,82 -14,262" />
<polygon fill="#ffe5f3" fill-opacity="0.501961" points="271,-12 22,-9 254,119" />
<polygon fill="#f3ec3f" fill-opacity="0.501961" points="151,223 40,142 205,125" />
<polygon fill="#c10003" fill-opacity="0.501961" points="38,35 223,38 188,87" />
<polygon fill="#ffffff" fill-opacity="0.501961" points="27,118 5,37 76,-16" />
<polygon fill="#010203" fill-opacity="0.501961" points="271,231 255,116 162,238" />
<polygon fill="#000027" fill-opacity="0.501961" points="66,187 -16,242 -2,59" />
<polygon fill="#b283ff" fill-opacity="0.501961" points="20,108 4,47 232,100" />
<polygon fill="#1f20a9" fill-opacity="0.501961" points="30,215 115,193 105,127" />
<polygon fill="#ff0000" fill-opacity="0.501961" points="134,108 75,103 100,147" />
<polygon fill="#ffff8e" fill-opacity="0.501961" points="60,227 8,224 36,250" />
<polygon fill="#d6dde5" fill-opacity="0.501961" points="271,10 224,174 185,153" />
<polygon fill="#ccffff" fill-opacity="0.501961" points="140,100 105,148 166,125" />
<polygon fill="#faedea" fill-opacity="0.501961" points="271,49 10,3 218,-16" />
<polygon fill="#fa0000" fill-opacity="0.501961" points="213,107 212,139 141,105" />
<polygon fill="#f0af00" fill-opacity="0.501961" points="100,208 162,115 161,237" />
<polygon fill="#0046d0" fill-opacity="0.501961" points="15,106 77,143 82,102" />
<polygon fill="#000000" fill-opacity="0.501961" points="236,115 271,156 224,140" />
<polygon fill="#73a3ff" fill-opacity="0.501961" points="172,140 192,186 161,200" />
<polygon fill="#5d1900" fill-opacity="0.501961" points="87,205 271,228 9,270" />
<polygon fill="#c62d5b" fill-opacity="0.501961" points="67,17 40,70 210,90" />
<polygon fill="#a9d6ff" fill-opacity="0.501961" points="109,146 116,206 98,168" />
<polygon fill="#f1e2f7" fill-opacity="0.501961" points="190,64 245,124 271,46" />
<polygon fill="#02041e" fill-opacity="0.501961" points="75,161 82,251 101,150" />
<polygon fill="#4f0012" fill-opacity="0.501961" points="-3,107 18,-16 -16,53" />
<polygon fill="#79c9ff" fill-opacity="0.501961" points="62,137 70,102 95,139" />
<polygon fill="#3a6a4c" fill-opacity="0.501961" points="173,213 181,155 271,165" />
<polygon fill="#f5c7cb" fill-opacity="0.501961" points="15,102 71,14 16,-16" />
<polygon fill="#ffff23" fill-opacity="0.501961" points="45,140 96,144 56,165" />
<polygon fill="#f1cd08" fill-opacity="0.501961" points="113,129 167,160 115,217" />
<polygon fill="#de0200" fill-opacity="0.501961" points="133,104 74,106 105,148" />
<polygon fill="#00213f" fill-opacity="0.501961" points="58,138 63,101 -2,121" />
<polygon fill="#dc0000" fill-opacity="0.501961" points="174,138 210,107 156,104" />
<polygon fill="#b02437" fill-opacity="0.501961" points="46,46 201,84 179,32" />
<polygon fill="#1b3499" fill-opacity="0.501961" points="93,217 42,143 56,215" />
<polygon fill="#9456aa" fill-opacity="0.501961" points="55,71 157,114 160,58" />
<polygon fill="#c3d8a3" fill-opacity="0.501961" points="208,179 241,154 191,125" />
<polygon fill="#cff5ff" fill-opacity="0.501961" points="37,40 37,109 9,88" />
<polygon fill="#ffff71" fill-opacity="0.501961" points="46,245 58,224 14,234" />
<polygon fill="#180111" fill-opacity="0.501961" points="5,271 -16,74 32,114" />
<polygon fill="#95baff" fill-opacity="0.501961" points="146,86 118,133 153,136" />
<polygon fill="#da9b08" fill-opacity="0.501961" points="222,244 227,222 269,249" />
<polygon fill="#74ff88" fill-opacity="0.501961" points="44,148 49,124 41,117" />
<polygon fill="#ff3a00" fill-opacity="0.501961" points="61,214 19,214 38,229" />
<polygon fill="#d45800" fill-opacity="0.501961" points="180,236 119,235 140,197" />
<polygon fill="#6cbf00" fill-opacity="0.501961" points="178,148 203,127 162,130" />
<polygon fill="#290f15" fill-opacity="0.501961" points="154,251 54,205 56,247" />
<polygon fill="#9bbfff" fill-opacity="0.501961" points="159,143 159,129 182,154" />
<polygon fill="#111917" fill-opacity="0.501961" points="178,215 193,187 271,230" />
<polygon fill="#bbd2ff" fill-opacity="0.501961" points="271,112 225,120 197,78" />
<polygon fill="#dbff3c" fill-opacity="0.501961" points="79,248 111,271 61,253" />
<polygon fill="#4c2f84" fill-opacity="0.501961" points="200,230 160,194 161,216" />
<polygon fill="#00001c" fill-opacity="0.501961" points="234,118 227,144 271,134" />
<polygon fill="#5e4bb3" fill-opacity="0.501961" points="2,271 22,250 15,223" />
<polygon fill="#3a0300" fill-opacity="0.501961" points="249,196 266,257 230,207" />
<polygon fill="#cd2f24" fill-opacity="0.501961" points="103,68 82,21 42,40" />
<polygon fill="#a855b1" fill-opacity="0.501961" points="200,105 123,104 207,62" />
<polygon fill="#fff400" fill-opacity="0.501961" points="157,113 148,154 166,120" />
<polygon fill="#b5b8ff" fill-opacity="0.501961" points="177,146 162,193 181,179" />
<polygon fill="#d438bf" fill-opacity="0.501961" points="46,193 37,204 51,217" />
<polygon fill="#c12800" fill-opacity="0.501961" points="224,234 244,224 191,222" />
<polygon fill="#eae4af" fill-opacity="0.501961" points="135,199 144,181 138,155" />
<polygon fill="#000a00" fill-opacity="0.501961" points="10,271 59,251 29,245" />
<polygon fill="#372e67" fill-opacity="0.501961" points="241,148 271,178 205,218" />
<polygon fill="#000000" fill-opacity="0.501961" points="129,209 100,229 119,234" />
<polygon fill="#8c98ff" fill-opacity="0.501961" points="98,178 117,196 102,138" />
<polygon fill="#9fc1ff" fill-opacity="0.501961" points="32,108 8,61 13,96" />
<polygon fill="#540c00" fill-opacity="0.501961" points="240,271 261,251 187,232" />
<polygon fill="#8e7de6" fill-opacity="0.501961" points="144,100 54,80 28,106" />
<polygon fill="#fd8e00" fill-opacity="0.501961" points="123,119 101,104 92,117" />
<polygon fill="#e4b600" fill-opacity="0.501961" points="129,209 162,200 167,147" />
<polygon fill="#cdd3e5" fill-opacity="0.501961" points="204,121 206,152 187,147" />
<polygon fill="#ead8d7" fill-opacity="0.501961" points="59,-16 92,35 271,6" />
<polygon fill="#a5480b" fill-opacity="0.501961" points="204,242 142,271 143,243" />
<polygon fill="#390500" fill-opacity="0.501961" points="-16,198 38,182 39,215" />
<polygon fill="#c63021" fill-opacity="0.501961" points="163,33 94,51 230,53" />
<polygon fill="#ece876" fill-opacity="0.501961" points="17,223 54,236 17,244" />
<polygon fill="#93c412" fill-opacity="0.501961" points="96,147 80,127 79,152" />
<polygon fill="#749949" fill-opacity="0.501961" points="185,177 238,169 177,145" />
<polygon fill="#a1712f" fill-opacity="0.501961" points="98,188 136,205 101,223" />
<polygon fill="#040329" fill-opacity="0.501961" points="13,108 2,42 -13,62" />
<polygon fill="#052100" fill-opacity="0.501961" points="51,213 60,211 49,179" />
<polygon fill="#d9b7b9" fill-opacity="0.501961" points="117,32 258,2 263,40" />
<polygon fill="#f81a4e" fill-opacity="0.501961" points="215,135 216,111 203,139" />
<polygon fill="#6f246f" fill-opacity="0.501961" points="179,258 190,218 151,270" />
<polygon fill="#910b3b" fill-opacity="0.501961" points="195,77 187,58 146,79" />
<polygon fill="#3d2b6a" fill-opacity="0.501961" points="62,242 115,262 87,235" />
<polygon fill="#6986ff" fill-opacity="0.501961" points="87,127 64,90 63,139" />
<polygon fill="#f1dbd3" fill-opacity="0.501961" points="236,158 189,143 233,143" />
<polygon fill="#3843bb" fill-opacity="0.501961" points="78,214 60,215 62,167" />
<polygon fill="#d17897" fill-opacity="0.501961" points="19,-7 36,23 5,52" />
<polygon fill="#e10000" fill-opacity="0.501961" points="164,107 165,128 209,109" />
<polygon fill="#12265b" fill-opacity="0.501961" points="35,107 19,127 54,186" />
<polygon fill="#c90000" fill-opacity="0.501961" points="105,144 120,128 72,102" />
<polygon fill="#9779c0" fill-opacity="0.501961" points="234,125 225,142 203,93" />
<polygon fill="#abd1ff" fill-opacity="0.501961" points="154,108 148,139 128,117" />
<polygon fill="#2a2029" fill-opacity="0.501961" points="79,150 89,228 101,148" />
<polygon fill="#455300" fill-opacity="0.501961" points="198,137 189,137 199,130" />
<polygon fill="#ffe042" fill-opacity="0.501961" points="42,147 65,137 84,160" />
<polygon fill="#2ec9e6" fill-opacity="0.501961" points="189,179 191,204 182,183" />
</g>
</svg>