<svg xmlns="http://www.w3.org/2000/svg" version="1.1" width="1024" height="1024">
<rect x="0" y="0" width="1024" height="1024" fill="#a39f93" />
<g transform="scale(4.000000) translate(0.5 0.5)">
<polygon fill="#3d372a" fill-opacity="0.501961" points="111,121 268,126 257,271" />
<polygon fill="#ffffff" fill-opacity="0.501961" points="89,271 105,130 201,245" />
<polygon fill="#060000" fill-opacity="0.501961" points="84,214 50,89 111,145" />
<polygon fill="#ffffff" fill-opacity="0.501961" points="-10,69 -4,210 106,44" />
<polygon fill="#331200" fill-opacity="0.501961" points="88,83 169,129 173,93" />
<polygon fill="#ffe9c4" fill-opacity="0.501961" points="174,40 245,102 171,146" />
<polygon fill="#3e4541" fill-opacity="0.501961" points="263,-15 226,69 161,-16" />
<polygon fill="#100000" fill-opacity="0.501961" points="179,145 231,118 199,209" />
<polygon fill="#651700" fill-opacity="0.501961" points="56,119 49,97 117,79" />
<polygon fill="#ebe7d7" fill-opacity="0.501961" points="89,-15 144,67 -16,120" />
<polygon fill="#ffffff" fill-opacity="0.501961" points="51,76 -16,69 54,188" />
<polygon fill="#ffffff" fill-opacity="0.501961" points="103,127 156,263 99,271" />
<polygon fill="#545c56" fill-opacity="0.501961" points="28,72 -16,6 56,-16" />
<polygon fill="#afb6a8" fill-opacity="0.501961" points="193,235 271,118 239,95" />
<polygon fill="#382d1a" fill-opacity="0.501961" points="66,227 70,94 110,156" />
<polygon fill="#593515" fill-opacity="0.501961" points="129,162 112,91 175,166" />
<polygon fill="#caced5" fill-opacity="0.501961" points="98,154 188,181 201,271" />
<polygon fill="#919790" fill-opacity="0.501961" points="170,37 23,71 -16,27" />
<polygon fill="#dc690e" fill-opacity="0.501961" points="211,135 225,124 173,83" />
<polygon fill="#d7d7ca" fill-opacity="0.501961" points="110,90 137,210 79,100" />
<polygon fill="#ffa85a" fill-opacity="0.501961" points="115,72 138,134 156,128" />
<polygon fill="#ffc887" fill-opacity="0.501961" points="127,89 202,87 126,42" />
<polygon fill="#ffffff" fill-opacity="0.501961" points="51,13 63,56 68,-14" />
<polygon fill="#2d2414" fill-opacity="0.501961" points="176,99 155,160 157,73" />
<polygon fill="#ffffff" fill-opacity="0.501961" points="80,247 66,259 51,222" />
<polygon fill="#ff982d" fill-opacity="0.501961" points="66,82 114,74 48,108" />
<polygon fill="#393c38" fill-opacity="0.501961" points="190,-16 192,74 207,34" />
<polygon fill="#f9fff9" fill-opacity="0.501961" points="192,4 169,2 168,40" />
<polygon fill="#575d5a" fill-opacity="0.501961" points="166,-11 131,-6 167,61" />
<polygon fill="#60665c" fill-opacity="0.501961" points="223,109 258,84 233,35" />
<polygon fill="#d2d5ce" fill-opacity="0.501961" points="211,22 197,72 232,35" />
<polygon fill="#585c58" fill-opacity="0.501961" points="184,249 242,182 236,257" />
<polygon fill="#b4b8ab" fill-opacity="0.501961" points="-16,117 7,270 26,132" />
<polygon fill="#fbfdff" fill-opacity="0.501961" points="212,271 93,193 99,271" />
<polygon fill="#c6d2d4" fill-opacity="0.501961" points="201,124 165,158 173,91" />
<polygon fill="#373932" fill-opacity="0.501961" points="254,45 211,12 240,-16" />
<polygon fill="#fffcbf" fill-opacity="0.501961" points="143,118 159,103 152,98" />
<polygon fill="#f0e4c9" fill-opacity="0.501961" points="213,119 160,62 230,65" />
<polygon fill="#85510e" fill-opacity="0.501961" points="50,103 80,100 81,158" />
<polygon fill="#ffffff" fill-opacity="0.501961" points="68,-16 105,40 108,12" />
<polygon fill="#561e05" fill-opacity="0.501961" points="181,87 158,70 138,71" />
<polygon fill="#81847f" fill-opacity="0.501961" points="67,153 94,213 5,208" />
<polygon fill="#24241b" fill-opacity="0.501961" points="103,82 117,110 126,81" />
<polygon fill="#e5e9de" fill-opacity="0.501961" points="54,116 15,164 68,162" />
<polygon fill="#d6d5cf" fill-opacity="0.501961" points="205,187 211,237 217,209" />
<polygon fill="#edefe6" fill-opacity="0.501961" points="36,33 51,58 27,52" />
<polygon fill="#ffffff" fill-opacity="0.501961" points="111,77 69,50 55,75" />
<polygon fill="#070e13" fill-opacity="0.501961" points="102,154 86,116 75,192" />
<polygon fill="#111711" fill-opacity="0.501961" points="49,19 51,41 57,33" />
<polygon fill="#000707" fill-opacity="0.501961" points="207,176 196,129 184,182" />
<polygon fill="#ffffff" fill-opacity="0.501961" points="6,231 -3,239 24,271" />
<polygon fill="#797f86" fill-opacity="0.501961" points="155,167 195,127 164,191" />
<polygon fill="#7b4d1a" fill-opacity="0.501961" points="200,119 203,162 224,142" />
<polygon fill="#c1c5bd" fill-opacity="0.501961" points="247,256 254,228 237,239" />
<polygon fill="#5f6969" fill-opacity="0.501961" points="184,43 193,75 204,66" />
<polygon fill="#ebe8e0" fill-opacity="0.501961" points="61,156 57,204 51,179" />
<polygon fill="#a1aaa7" fill-opacity="0.501961" points="161,-2 103,65 154,55" />
<polygon fill="#00060a" fill-opacity="0.501961" points="138,108 134,90 155,93" />
<polygon fill="#f29f62" fill-opacity="0.501961" points="118,125 108,107 136,105" />
<polygon fill="#41443b" fill-opacity="0.501961" points="72,34 82,27 78,54" />
<polygon fill="#606157" fill-opacity="0.501961" points="148,39 119,49 120,27" />
<polygon fill="#464c34" fill-opacity="0.501961" points="271,151 244,111 239,126" />
<polygon fill="#ffffff" fill-opacity="0.501961" points="247,60 271,95 271,24" />
<polygon fill="#f7fff6" fill-opacity="0.501961" points="250,-16 255,19 238,-13" />
<polygon fill="#969886" fill-opacity="0.501961" points="31,157 -6,158 6,120" />
<polygon fill="#474747" fill-opacity="0.501961" points="63,224 77,218 59,180" />
<polygon fill="#645340" fill-opacity="0.501961" points="155,141 149,166 112,154" />
<polygon fill="#141410" fill-opacity="0.501961" points="165,133 118,130 157,147" />
<polygon fill="#ffc57f" fill-opacity="0.501961" points="178,76 216,133 224,107" />
<polygon fill="#fff6c8" fill-opacity="0.501961" points="174,70 152,56 100,71" />
<polygon fill="#edede5" fill-opacity="0.501961" points="12,181 33,176 41,194" />
<polygon fill="#5f635d" fill-opacity="0.501961" points="35,242 31,200 19,271" />
<polygon fill="#dfe2de" fill-opacity="0.501961" points="3,229 41,232 59,217" />
<polygon fill="#fffff5" fill-opacity="0.501961" points="210,3 198,14 202,0" />
<polygon fill="#f5f9f2" fill-opacity="0.501961" points="97,117 88,96 112,93" />
<polygon fill="#4c4d46" fill-opacity="0.501961" points="-6,5 23,52 18,3" />
<polygon fill="#595952" fill-opacity="0.501961" points="219,47 219,70 199,28" />
<polygon fill="#fff3bb" fill-opacity="0.501961" points="137,76 125,90 163,87" />
<polygon fill="#484a44" fill-opacity="0.501961" points="39,-8 25,24 39,40" />
<polygon fill="#dee2de" fill-opacity="0.501961" points="234,38 238,47 255,30" />
<polygon fill="#ffe3a4" fill-opacity="0.501961" points="144,123 162,129 142,133" />
<polygon fill="#d6e3e4" fill-opacity="0.501961" points="238,124 207,47 196,83" />
<polygon fill="#f2f6ee" fill-opacity="0.501961" points="-14,74 39,174 18,53" />
<polygon fill="#787b70" fill-opacity="0.501961" points="52,71 29,66 35,49" />
<polygon fill="#9c9e9b" fill-opacity="0.501961" points="67,235 100,271 89,190" />
<polygon fill="#b2b4b6" fill-opacity="0.501961" points="183,172 200,220 175,271" />
<polygon fill="#4f320e" fill-opacity="0.501961" points="56,109 60,128 99,81" />
<polygon fill="#25231c" fill-opacity="0.501961" points="247,46 248,59 231,53" />
<polygon fill="#e8e7e2" fill-opacity="0.501961" points="6,149 -16,185 10,237" />
<polygon fill="#50524a" fill-opacity="0.501961" points="218,173 224,255 262,208" />
<polygon fill="#ffffff" fill-opacity="0.501961" points="19,10 25,20 21,0" />
<polygon fill="#232929" fill-opacity="0.501961" points="89,34 85,23 92,24" />
<polygon fill="#2c2c25" fill-opacity="0.501961" points="182,18 203,30 183,8" />
<polygon fill="#7c5b3d" fill-opacity="0.501961" points="140,121 152,106 188,111" />
<polygon fill="#d7d8cf" fill-opacity="0.501961" points="138,20 136,59 153,25" />
<polygon fill="#dcddde" fill-opacity="0.501961" points="180,271 154,172 95,190" />
<polygon fill="#e0e6e2" fill-opacity="0.501961" points="43,20 120,-16 80,28" />
<polygon fill="#ffb164" fill-opacity="0.501961" points="123,82 94,78 148,66" />
<polygon fill="#0c0c05" fill-opacity="0.501961" points="165,17 165,-1 159,3" />
<polygon fill="#3f403b" fill-opacity="0.501961" points="144,22 152,4 130,-8" />
</g>
</svg>