<svg xmlns="http://www.w3.org/2000/svg" version="1.1" width="1024" height="1024">
<rect x="0" y="0" width="1024" height="1024" fill="#4f8488" />
<g transform="scale(4.000000) translate(0.5 0.5)">
<polygon fill="#00cdff" fill-opacity="0.501961" points="251,271 271,101 -16,165" />
<polygon fill="#7a3100" fill-opacity="0.501961" points="35,159 271,5 -13,-16" />
<polygon fill="#fff7a3" fill-opacity="0.501961" points="188,68 -16,125 -16,70" />
<polygon fill="#ffd78f" fill-opacity="0.501961" points="230,257 -13,202 -5,271" />
<polygon fill="#af5007" fill-opacity="0.501961" points="271,118 259,14 123,103" />
<polygon fill="#05d5ff" fill-opacity="0.501961" points="253,260 271,139 -14,209" />
<polygon fill="#0a0400" fill-opacity="0.501961" points="-16,160 171,104 17,108" />
<polygon fill="#007ee4" fill-opacity="0.501961" points="102,235 191,105 -16,160" />
<polygon fill="#0f1000" fill-opacity="0.501961" points="47,43 -16,-15 248,5" />
<polygon fill="#ffe3a8" fill-opacity="0.501961" points="127,76 271,86 238,52" />
<polygon fill="#ffffff" fill-opacity="0.501961" points="7,238 69,215 -16,205" />
<polygon fill="#fff9ff" fill-opacity="0.501961" points="240,135 166,109 271,117" />
<polygon fill="#010906" fill-opacity="0.501961" points="188,107 173,76 57,109" />
<polygon fill="#ffb680" fill-opacity="0.501961" points="-16,70 177,75 6,118" />
<polygon fill="#f79548" fill-opacity="0.501961" points="205,253 -16,269 57,224" />
<polygon fill="#006ec9" fill-opacity="0.501961" points="-16,211 233,144 27,144" />
<polygon fill="#272700" fill-opacity="0.501961" points="271,2 105,-11 254,42" />
<polygon fill="#623c11" fill-opacity="0.501961" points="0,69 27,-16 68,74" />
<polygon fill="#ffffff" fill-opacity="0.501961" points="15,215 29,193 45,190" />
<polygon fill="#10c7f5" fill-opacity="0.501961" points="241,121 271,257 55,225" />
<polygon fill="#ffee9c" fill-opacity="0.501961" points="34,42 35,51 66,41" />
<polygon fill="#ffcf3d" fill-opacity="0.501961" points="-16,23 42,27 16,34" />
<polygon fill="#15c1e5" fill-opacity="0.501961" points="-4,157 175,108 90,158" />
<polygon fill="#523c1e" fill-opacity="0.501961" points="247,85 271,118 140,104" />
<polygon fill="#d9e7f1" fill-opacity="0.501961" points="190,125 146,110 228,113" />
<polygon fill="#362730" fill-opacity="0.501961" points="14,240 70,229 46,224" />
<polygon fill="#ffdcce" fill-opacity="0.501961" points="55,197 39,188 57,214" />
<polygon fill="#557155" fill-opacity="0.501961" points="185,8 71,36 271,60" />
<polygon fill="#fffdff" fill-opacity="0.501961" points="1,234 59,216 -10,205" />
<polygon fill="#0088d3" fill-opacity="0.501961" points="138,117 57,209 271,133" />
<polygon fill="#fec59c" fill-opacity="0.501961" points="190,77 270,55 260,87" />
<polygon fill="#321d00" fill-opacity="0.501961" points="6,-16 98,26 -7,23" />
<polygon fill="#0065c1" fill-opacity="0.501961" points="-16,177 6,207 122,141" />
<polygon fill="#cddcfe" fill-opacity="0.501961" points="-16,55 9,44 14,52" />
<polygon fill="#7f8a6d" fill-opacity="0.501961" points="82,63 105,-10 105,50" />
<polygon fill="#030900" fill-opacity="0.501961" points="123,-16 166,10 96,25" />
<polygon fill="#f39656" fill-opacity="0.501961" points="236,255 164,244 225,271" />
<polygon fill="#292f26" fill-opacity="0.501961" points="-16,118 134,115 1,156" />
<polygon fill="#280f00" fill-opacity="0.501961" points="31,73 10,32 32,33" />
<polygon fill="#8d8d80" fill-opacity="0.501961" points="233,29 155,20 208,43" />
<polygon fill="#d47a33" fill-opacity="0.501961" points="28,240 -16,271 -16,231" />
<polygon fill="#006bbb" fill-opacity="0.501961" points="192,131 60,205 30,167" />
<polygon fill="#754f19" fill-opacity="0.501961" points="266,89 171,78 180,102" />
<polygon fill="#00000d" fill-opacity="0.501961" points="243,108 221,113 248,116" />
<polygon fill="#ddd9e1" fill-opacity="0.501961" points="227,126 253,129 224,107" />
<polygon fill="#25cced" fill-opacity="0.501961" points="197,166 207,243 56,212" />
<polygon fill="#110b03" fill-opacity="0.501961" points="252,24 239,54 239,-5" />
<polygon fill="#393c31" fill-opacity="0.501961" points="52,139 176,105 49,104" />
<polygon fill="#201e1d" fill-opacity="0.501961" points="22,46 -6,64 65,58" />
<polygon fill="#e8b684" fill-opacity="0.501961" points="-16,123 159,69 -4,74" />
<polygon fill="#56411f" fill-opacity="0.501961" points="177,35 134,69 80,69" />
<polygon fill="#3d2500" fill-opacity="0.501961" points="66,47 30,9 105,24" />
<polygon fill="#61a9bf" fill-opacity="0.501961" points="93,146 95,129 42,143" />
<polygon fill="#6c6a60" fill-opacity="0.501961" points="81,71 88,32 33,74" />
<polygon fill="#f6bb88" fill-opacity="0.501961" points="167,76 207,53 236,58" />
<polygon fill="#00c1ec" fill-opacity="0.501961" points="271,171 253,271 179,209" />
<polygon fill="#8cc8d1" fill-opacity="0.501961" points="178,117 166,102 164,123" />
<polygon fill="#23b9e9" fill-opacity="0.501961" points="271,134 177,121 228,192" />
<polygon fill="#fdf0f2" fill-opacity="0.501961" points="18,224 39,189 -16,242" />
<polygon fill="#5d8086" fill-opacity="0.501961" points="61,-10 71,18 79,-16" />
<polygon fill="#e7b880" fill-opacity="0.501961" points="34,245 124,237 62,226" />
<polygon fill="#e4e8eb" fill-opacity="0.501961" points="186,123 198,120 190,101" />
<polygon fill="#005abe" fill-opacity="0.501961" points="27,208 50,213 41,193" />
<polygon fill="#e8aa6f" fill-opacity="0.501961" points="176,66 182,80 131,69" />
<polygon fill="#faa643" fill-opacity="0.501961" points="33,33 16,31 28,19" />
<polygon fill="#d1d8e5" fill-opacity="0.501961" points="105,14 100,16 100,-1" />
<polygon fill="#dbe1e3" fill-opacity="0.501961" points="215,105 204,122 217,122" />
<polygon fill="#aa5d20" fill-opacity="0.501961" points="214,-16 157,-2 271,3" />
<polygon fill="#3b3913" fill-opacity="0.501961" points="159,14 255,-5 202,26" />
<polygon fill="#ada59a" fill-opacity="0.501961" points="142,108 136,121 131,113" />
<polygon fill="#e5e0ec" fill-opacity="0.501961" points="57,220 24,208 17,236" />
<polygon fill="#02b6e7" fill-opacity="0.501961" points="70,201 143,237 59,225" />
<polygon fill="#847a6f" fill-opacity="0.501961" points="21,43 18,52 -8,44" />
<polygon fill="#009dd7" fill-opacity="0.501961" points="13,151 75,139 -16,197" />
<polygon fill="#626c73" fill-opacity="0.501961" points="-16,151 6,115 25,114" />
<polygon fill="#141710" fill-opacity="0.501961" points="143,90 167,78 183,109" />
<polygon fill="#00b7ea" fill-opacity="0.501961" points="139,117 97,139 184,121" />
<polygon fill="#1b1a0d" fill-opacity="0.501961" points="15,125 49,138 -16,160" />
<polygon fill="#4e6146" fill-opacity="0.501961" points="271,28 186,36 245,60" />
<polygon fill="#3a4443" fill-opacity="0.501961" points="95,46 124,14 171,17" />
<polygon fill="#0064be" fill-opacity="0.501961" points="20,209 -16,186 33,164" />
<polygon fill="#fff4ee" fill-opacity="0.501961" points="51,201 51,220 57,219" />
<polygon fill="#51631f" fill-opacity="0.501961" points="171,34 121,48 222,53" />
<polygon fill="#f6ae6f" fill-opacity="0.501961" points="45,40 65,45 29,50" />
<polygon fill="#d2cfba" fill-opacity="0.501961" points="101,121 99,124 111,128" />
<polygon fill="#3c2804" fill-opacity="0.501961" points="18,71 39,71 29,40" />
<polygon fill="#3accec" fill-opacity="0.501961" points="192,159 158,194 235,185" />
<polygon fill="#8b8c8c" fill-opacity="0.501961" points="25,230 24,211 19,232" />
<polygon fill="#ede9dc" fill-opacity="0.501961" points="51,200 41,189 34,193" />
<polygon fill="#846231" fill-opacity="0.501961" points="245,109 229,86 174,101" />
<polygon fill="#000d00" fill-opacity="0.501961" points="83,15 99,14 98,-16" />
<polygon fill="#9fa9a9" fill-opacity="0.501961" points="158,105 145,119 135,119" />
<polygon fill="#009fdb" fill-opacity="0.501961" points="131,198 178,160 108,161" />
<polygon fill="#e3a459" fill-opacity="0.501961" points="-16,68 42,73 -6,98" />
<polygon fill="#d1b99e" fill-opacity="0.501961" points="54,99 -9,120 38,73" />
<polygon fill="#3d1f00" fill-opacity="0.501961" points="19,46 -2,32 55,35" />
<polygon fill="#000000" fill-opacity="0.501961" points="239,33 260,36 241,40" />
<polygon fill="#fffbf2" fill-opacity="0.501961" points="250,116 263,125 234,116" />
<polygon fill="#728269" fill-opacity="0.501961" points="132,17 116,40 133,56" />
<polygon fill="#7f896c" fill-opacity="0.501961" points="168,51 172,18 197,36" />
</g>
</svg>