<svg xmlns="http://www.w3.org/2000/svg" version="1.1" width="1024" height="1024">
<rect x="0" y="0" width="1024" height="1024" fill="#e9e4d3" />
<g transform="scale(4.000000) translate(0.5 0.5)">
<polygon fill="#633900" fill-opacity="0.501961" points="229,137 54,109 53,204" />
<polygon fill="#d9a600" fill-opacity="0.501961" points="43,214 208,193 196,244" />
<polygon fill="#ffffff" fill-opacity="0.501961" points="271,171 271,0 -16,-1" />
<polygon fill="#140100" fill-opacity="0.501961" points="182,115 204,216 212,126" />
<polygon fill="#ffffff" fill-opacity="0.501961" points="-14,175 1,-16 271,3" />
<polygon fill="#401100" fill-opacity="0.501961" points="54,164 53,127 151,172" />
<polygon fill="#ffffff" fill-opacity="0.501961" points="71,154 73,196 108,189" />
<polygon fill="#000000" fill-opacity="0.501961" points="79,271 78,238 63,231" />
<polygon fill="#ffffff" fill-opacity="0.501961" points="25,-8 68,271 -16,253" />
<polygon fill="#000000" fill-opacity="0.501961" points="173,271 195,254 204,208" />
<polygon fill="#bab088" fill-opacity="0.501961" points="204,120 108,96 140,185" />
<polygon fill="#ffffff" fill-opacity="0.501961" points="227,-12 271,250 199,271" />
<polygon fill="#efbf00" fill-opacity="0.501961" points="70,238 197,210 71,204" />
<polygon fill="#ffc700" fill-opacity="0.501961" points="125,129 97,140 146,180" />
<polygon fill="#171306" fill-opacity="0.501961" points="53,161 59,207 83,121" />
<polygon fill="#ffffd2" fill-opacity="0.501961" points="190,225 58,228 182,263" />
<polygon fill="#f6f9fb" fill-opacity="0.501961" points="170,142 203,222 131,153" />
<polygon fill="#040000" fill-opacity="0.501961" points="192,197 210,155 206,202" />
<polygon fill="#ffffff" fill-opacity="0.501961" points="74,192 70,155 106,188" />
<polygon fill="#292316" fill-opacity="0.501961" points="155,142 171,100 168,141" />
<polygon fill="#000000" fill-opacity="0.501961" points="142,269 79,271 67,245" />
<polygon fill="#ffffff" fill-opacity="0.501961" points="2,-16 -15,166 271,17" />
<polygon fill="#ffffff" fill-opacity="0.501961" points="59,256 44,-9 -16,254" />
<polygon fill="#000000" fill-opacity="0.501961" points="160,96 158,89 175,97" />
<polygon fill="#ffffff" fill-opacity="0.501961" points="244,265 271,-16 181,30" />
<polygon fill="#7d6443" fill-opacity="0.501961" points="145,162 206,138 213,163" />
<polygon fill="#ffffff" fill-opacity="0.501961" points="119,205 195,198 197,157" />
<polygon fill="#a05f00" fill-opacity="0.501961" points="125,102 116,188 77,160" />
<polygon fill="#ffffff" fill-opacity="0.501961" points="94,119 81,136 103,139" />
<polygon fill="#ffd400" fill-opacity="0.501961" points="98,144 118,128 143,166" />
<polygon fill="#a09c99" fill-opacity="0.501961" points="136,150 129,72 107,106" />
<polygon fill="#271200" fill-opacity="0.501961" points="90,254 130,271 179,255" />
<polygon fill="#fffa59" fill-opacity="0.501961" points="85,241 122,217 152,240" />
<polygon fill="#f2bb00" fill-opacity="0.501961" points="125,203 170,229 189,205" />
<polygon fill="#170000" fill-opacity="0.501961" points="200,230 189,227 189,270" />
<polygon fill="#090000" fill-opacity="0.501961" points="77,235 66,237 79,271" />
<polygon fill="#6b5831" fill-opacity="0.501961" points="117,115 197,141 145,139" />
<polygon fill="#ffffff" fill-opacity="0.501961" points="177,120 162,137 193,129" />
<polygon fill="#c7b052" fill-opacity="0.501961" points="59,203 102,196 57,190" />
<polygon fill="#ffffff" fill-opacity="0.501961" points="271,267 196,267 232,42" />
<polygon fill="#ffffff" fill-opacity="0.501961" points="114,197 201,189 129,175" />
<polygon fill="#ffffff" fill-opacity="0.501961" points="159,131 168,106 117,65" />
<polygon fill="#fefff5" fill-opacity="0.501961" points="79,253 178,252 196,218" />
<polygon fill="#653602" fill-opacity="0.501961" points="117,182 133,164 53,130" />
<polygon fill="#35210e" fill-opacity="0.501961" points="88,112 71,128 101,118" />
<polygon fill="#ffffff" fill-opacity="0.501961" points="129,141 139,142 123,118" />
<polygon fill="#240a00" fill-opacity="0.501961" points="174,113 191,117 183,121" />
<polygon fill="#f3f7f9" fill-opacity="0.501961" points="154,136 148,152 178,147" />
<polygon fill="#221507" fill-opacity="0.501961" points="71,178 55,184 56,124" />
<polygon fill="#ffffff" fill-opacity="0.501961" points="19,83 -16,252 75,270" />
<polygon fill="#c9cab3" fill-opacity="0.501961" points="70,123 81,143 52,124" />
<polygon fill="#d1960f" fill-opacity="0.501961" points="121,222 178,203 69,208" />
<polygon fill="#ffffff" fill-opacity="0.501961" points="58,126 -16,-16 112,107" />
<polygon fill="#433721" fill-opacity="0.501961" points="209,157 171,136 209,134" />
<polygon fill="#170c00" fill-opacity="0.501961" points="161,127 168,115 173,127" />
<polygon fill="#210a00" fill-opacity="0.501961" points="195,186 204,199 188,186" />
<polygon fill="#ffffff" fill-opacity="0.501961" points="271,191 271,-1 71,-14" />
<polygon fill="#755223" fill-opacity="0.501961" points="190,157 198,165 168,158" />
<polygon fill="#ffffff" fill-opacity="0.501961" points="105,191 81,192 73,156" />
<polygon fill="#ffffff" fill-opacity="0.501961" points="115,113 104,120 100,116" />
<polygon fill="#9f9c97" fill-opacity="0.501961" points="118,63 127,68 118,46" />
<polygon fill="#e0c200" fill-opacity="0.501961" points="189,230 173,230 163,237" />
<polygon fill="#311804" fill-opacity="0.501961" points="57,127 70,140 54,180" />
<polygon fill="#1a0300" fill-opacity="0.501961" points="199,167 211,183 197,182" />
<polygon fill="#e26d00" fill-opacity="0.501961" points="109,148 72,146 113,134" />
<polygon fill="#33210b" fill-opacity="0.501961" points="131,102 128,121 133,120" />
<polygon fill="#ffcf00" fill-opacity="0.501961" points="133,143 144,180 110,136" />
<polygon fill="#ffee36" fill-opacity="0.501961" points="194,216 122,218 166,229" />
<polygon fill="#290000" fill-opacity="0.501961" points="147,118 151,112 146,114" />
<polygon fill="#e2dfac" fill-opacity="0.501961" points="60,230 75,194 61,200" />
<polygon fill="#3d2111" fill-opacity="0.501961" points="102,130 96,120 111,127" />
<polygon fill="#7c6a4d" fill-opacity="0.501961" points="148,163 148,154 164,166" />
<polygon fill="#000000" fill-opacity="0.501961" points="156,141 162,137 164,140" />
<polygon fill="#000000" fill-opacity="0.501961" points="75,180 77,183 76,187" />
<polygon fill="#ddb316" fill-opacity="0.501961" points="185,230 200,217 203,223" />
<polygon fill="#f0e266" fill-opacity="0.501961" points="170,234 125,237 150,242" />
<polygon fill="#95661c" fill-opacity="0.501961" points="118,168 148,180 118,152" />
<polygon fill="#271f13" fill-opacity="0.501961" points="60,190 72,191 57,175" />
<polygon fill="#ffffff" fill-opacity="0.501961" points="199,160 180,200 111,193" />
<polygon fill="#fffff0" fill-opacity="0.501961" points="181,229 196,205 196,218" />
<polygon fill="#d6be72" fill-opacity="0.501961" points="122,206 102,192 134,202" />
<polygon fill="#554b4a" fill-opacity="0.501961" points="170,265 133,267 191,247" />
<polygon fill="#fafdff" fill-opacity="0.501961" points="134,243 185,251 188,235" />
<polygon fill="#ffffff" fill-opacity="0.501961" points="164,113 134,110 133,13" />
<polygon fill="#c9ad4d" fill-opacity="0.501961" points="92,177 76,157 118,186" />
<polygon fill="#ffffff" fill-opacity="0.501961" points="271,244 188,271 227,161" />
<polygon fill="#8d6444" fill-opacity="0.501961" points="123,130 122,113 88,132" />
<polygon fill="#ffffff" fill-opacity="0.501961" points="83,252 130,249 78,237" />
<polygon fill="#e0d674" fill-opacity="0.501961" points="91,240 63,231 58,204" />
<polygon fill="#bdb9b0" fill-opacity="0.501961" points="213,122 194,116 174,124" />
<polygon fill="#d8d6cf" fill-opacity="0.501961" points="161,172 156,154 173,155" />
<polygon fill="#6a563a" fill-opacity="0.501961" points="209,124 211,188 193,137" />
<polygon fill="#ffffff" fill-opacity="0.501961" points="154,172 141,165 135,148" />
<polygon fill="#241c1a" fill-opacity="0.501961" points="162,86 157,92 165,97" />
<polygon fill="#3e1f00" fill-opacity="0.501961" points="151,138 161,131 136,138" />
<polygon fill="#ffffff" fill-opacity="0.501961" points="73,233 95,235 69,225" />
<polygon fill="#fff538" fill-opacity="0.501961" points="93,215 73,228 141,229" />
<polygon fill="#3a3a2e" fill-opacity="0.501961" points="177,131 174,141 206,139" />
<polygon fill="#000000" fill-opacity="0.501961" points="195,198 195,190 206,195" />
<polygon fill="#ffffff" fill-opacity="0.501961" points="83,132 89,127 97,140" />
</g>
</svg>