<svg xmlns="http://www.w3.org/2000/svg" version="1.1" width="1024" height="1024">
<rect x="0" y="0" width="1024" height="1024" fill="#6f6c6b" />
<g transform="scale(4.000000) translate(0.5 0.5)">
<polygon fill="#ffece6" fill-opacity="0.501961" points="222,181 -10,15 254,-5" />
<polygon fill="#000000" fill-opacity="0.501961" points="43,73 271,254 -16,255" />
<polygon fill="#fff4eb" fill-opacity="0.501961" points="54,57 -16,23 9,134" />
<polygon fill="#966962" fill-opacity="0.501961" points="93,172 190,213 128,-12" />
<polygon fill="#ffffff" fill-opacity="0.501961" points="120,-10 219,64 227,168" />
<polygon fill="#000b11" fill-opacity="0.501961" points="-16,258 62,66 146,271" />
<polygon fill="#031c1c" fill-opacity="0.501961" points="224,271 271,238 230,76" />
<polygon fill="#000000" fill-opacity="0.501961" points="196,19 156,3 223,59" />
<polygon fill="#001123" fill-opacity="0.501961" points="189,150 235,266 135,256" />
<polygon fill="#000100" fill-opacity="0.501961" points="153,64 94,118 117,72" />
<polygon fill="#ffffff" fill-opacity="0.501961" points="-16,128 45,125 21,98" />
<polygon fill="#e79b97" fill-opacity="0.501961" points="122,191 110,105 163,199" />
<polygon fill="#000000" fill-opacity="0.501961" points="235,76 205,39 239,117" />
<polygon fill="#f6daca" fill-opacity="0.501961" points="100,-16 84,134 123,61" />
<polygon fill="#001812" fill-opacity="0.501961" points="108,129 24,266 4,128" />
<polygon fill="#ffffff" fill-opacity="0.501961" points="219,65 164,128 233,129" />
<polygon fill="#000000" fill-opacity="0.501961" points="169,137 158,160 119,127" />
<polygon fill="#ebbcac" fill-opacity="0.501961" points="244,145 229,51 256,39" />
<polygon fill="#fff3e4" fill-opacity="0.501961" points="148,57 24,55 104,82" />
<polygon fill="#e1e8ff" fill-opacity="0.501961" points="115,38 123,-13 40,35" />
<polygon fill="#001713" fill-opacity="0.501961" points="21,94 63,63 105,187" />
<polygon fill="#9f7785" fill-opacity="0.501961" points="88,-11 -16,-13 -9,88" />
<polygon fill="#000000" fill-opacity="0.501961" points="128,-16 99,-7 176,11" />
<polygon fill="#ffede3" fill-opacity="0.501961" points="220,71 113,100 195,33" />
<polygon fill="#a08f88" fill-opacity="0.501961" points="231,132 156,131 224,188" />
<polygon fill="#061817" fill-opacity="0.501961" points="160,89 132,97 180,98" />
<polygon fill="#0e2833" fill-opacity="0.501961" points="111,271 -16,190 271,203" />
<polygon fill="#b97d80" fill-opacity="0.501961" points="151,147 86,154 134,198" />
<polygon fill="#ffebe5" fill-opacity="0.501961" points="206,167 210,205 222,180" />
<polygon fill="#f5e3d7" fill-opacity="0.501961" points="203,41 121,36 169,12" />
<polygon fill="#c8808a" fill-opacity="0.501961" points="179,139 138,201 170,192" />
<polygon fill="#ffffff" fill-opacity="0.501961" points="28,45 30,92 13,86" />
<polygon fill="#001e1f" fill-opacity="0.501961" points="103,99 124,118 119,77" />
<polygon fill="#ffc1a8" fill-opacity="0.501961" points="123,106 154,99 146,139" />
<polygon fill="#8a796d" fill-opacity="0.501961" points="166,56 66,52 125,35" />
<polygon fill="#0d1c24" fill-opacity="0.501961" points="220,236 201,168 164,150" />
<polygon fill="#000000" fill-opacity="0.501961" points="159,161 138,167 156,177" />
<polygon fill="#000508" fill-opacity="0.501961" points="155,69 131,66 108,89" />
<polygon fill="#283b3a" fill-opacity="0.501961" points="205,230 271,269 228,164" />
<polygon fill="#2e3325" fill-opacity="0.501961" points="85,125 85,78 65,68" />
<polygon fill="#bd9693" fill-opacity="0.501961" points="254,-16 171,-1 247,76" />
<polygon fill="#f7f2f0" fill-opacity="0.501961" points="222,75 133,53 231,135" />
<polygon fill="#e0b99f" fill-opacity="0.501961" points="123,24 84,88 92,134" />
<polygon fill="#4c2e24" fill-opacity="0.501961" points="164,108 152,119 168,144" />
<polygon fill="#e8b394" fill-opacity="0.501961" points="104,110 146,158 130,165" />
<polygon fill="#000000" fill-opacity="0.501961" points="224,60 227,79 206,45" />
<polygon fill="#000307" fill-opacity="0.501961" points="100,107 106,143 115,139" />
<polygon fill="#daab9b" fill-opacity="0.501961" points="109,100 167,88 123,83" />
<polygon fill="#000603" fill-opacity="0.501961" points="220,50 186,18 201,43" />
<polygon fill="#cdb1a6" fill-opacity="0.501961" points="250,47 205,17 252,124" />
<polygon fill="#ffffff" fill-opacity="0.501961" points="33,55 38,80 51,65" />
<polygon fill="#cac3c7" fill-opacity="0.501961" points="131,63 175,19 129,-1" />
<polygon fill="#000a0d" fill-opacity="0.501961" points="158,154 169,133 135,139" />
<polygon fill="#001814" fill-opacity="0.501961" points="95,155 5,128 20,198" />
<polygon fill="#64554f" fill-opacity="0.501961" points="271,150 245,125 224,206" />
<polygon fill="#001b21" fill-opacity="0.501961" points="143,2 186,19 170,3" />
<polygon fill="#8a7b8a" fill-opacity="0.501961" points="114,-3 -16,43 5,-13" />
<polygon fill="#ffffff" fill-opacity="0.501961" points="13,124 28,127 27,99" />
<polygon fill="#616758" fill-opacity="0.501961" points="39,197 42,228 19,199" />
<polygon fill="#515253" fill-opacity="0.501961" points="130,25 120,-3 122,46" />
<polygon fill="#82535c" fill-opacity="0.501961" points="160,184 137,200 114,156" />
<polygon fill="#2f4b45" fill-opacity="0.501961" points="13,147 -16,207 9,271" />
<polygon fill="#fffaf1" fill-opacity="0.501961" points="43,33 64,44 71,13" />
<polygon fill="#eedcd2" fill-opacity="0.501961" points="132,57 43,58 110,86" />
<polygon fill="#b5958e" fill-opacity="0.501961" points="15,7 -16,116 16,122" />
<polygon fill="#001110" fill-opacity="0.501961" points="120,113 153,148 126,133" />
<polygon fill="#fff7f5" fill-opacity="0.501961" points="159,104 206,125 176,131" />
<polygon fill="#b29298" fill-opacity="0.501961" points="150,-3 214,30 201,-16" />
<polygon fill="#8b6d67" fill-opacity="0.501961" points="254,68 231,-14 271,8" />
<polygon fill="#000f10" fill-opacity="0.501961" points="103,105 117,107 133,97" />
<polygon fill="#0c202c" fill-opacity="0.501961" points="211,261 86,159 27,265" />
<polygon fill="#001615" fill-opacity="0.501961" points="65,188 88,102 31,88" />
<polygon fill="#e8a48a" fill-opacity="0.501961" points="158,137 163,121 137,131" />
<polygon fill="#bc9b85" fill-opacity="0.501961" points="83,126 98,108 101,130" />
<polygon fill="#00090b" fill-opacity="0.501961" points="225,78 234,119 237,101" />
<polygon fill="#182d2e" fill-opacity="0.501961" points="227,271 271,249 259,115" />
<polygon fill="#b18e83" fill-opacity="0.501961" points="-16,21 63,65 52,38" />
<polygon fill="#8a7e73" fill-opacity="0.501961" points="172,165 166,130 191,132" />
<polygon fill="#000003" fill-opacity="0.501961" points="93,2 105,-16 133,-4" />
<polygon fill="#112822" fill-opacity="0.501961" points="98,124 77,143 122,127" />
<polygon fill="#e0d5d0" fill-opacity="0.501961" points="217,96 232,118 229,158" />
<polygon fill="#163729" fill-opacity="0.501961" points="78,95 51,68 32,87" />
<polygon fill="#f6efea" fill-opacity="0.501961" points="202,41 165,11 207,129" />
<polygon fill="#fdeee7" fill-opacity="0.501961" points="11,89 26,77 33,91" />
<polygon fill="#8c6c61" fill-opacity="0.501961" points="142,107 165,65 156,112" />
<polygon fill="#765f4f" fill-opacity="0.501961" points="28,86 37,82 28,66" />
<polygon fill="#051b25" fill-opacity="0.501961" points="174,157 175,207 197,164" />
<polygon fill="#b3737e" fill-opacity="0.501961" points="98,140 94,162 142,199" />
<polygon fill="#ffffff" fill-opacity="0.501961" points="39,126 41,120 21,124" />
<polygon fill="#efe1de" fill-opacity="0.501961" points="136,89 177,92 215,70" />
<polygon fill="#212f3b" fill-opacity="0.501961" points="50,200 123,230 94,157" />
<polygon fill="#323e34" fill-opacity="0.501961" points="33,93 22,99 10,93" />
<polygon fill="#b08c82" fill-opacity="0.501961" points="239,154 245,44 262,96" />
<polygon fill="#3c4f42" fill-opacity="0.501961" points="27,120 31,95 36,119" />
<polygon fill="#bda094" fill-opacity="0.501961" points="8,153 -14,154 -5,106" />
<polygon fill="#726a64" fill-opacity="0.501961" points="141,53 92,53 136,40" />
<polygon fill="#c18187" fill-opacity="0.501961" points="173,185 146,185 174,152" />
<polygon fill="#000c0e" fill-opacity="0.501961" points="238,110 231,132 239,148" />
<polygon fill="#00060b" fill-opacity="0.501961" points="20,205 59,251 10,270" />
<polygon fill="#00060a" fill-opacity="0.501961" points="87,128 37,198 94,161" />
</g>
</svg>