<svg xmlns="http://www.w3.org/2000/svg" version="1.1" width="1024" height="1024">
<rect x="0" y="0" width="1024" height="1024" fill="#817961" />
<g transform="scale(4.000000) translate(0.5 0.5)">
<polygon fill="#000000" fill-opacity="0.501961" points="65,-16 205,55 109,217" />
<polygon fill="#ffffff" fill-opacity="0.501961" points="241,271 193,-16 271,3" />
<polygon fill="#d7e1cf" fill-opacity="0.501961" points="247,-16 271,271 126,213" />
<polygon fill="#0b0000" fill-opacity="0.501961" points="189,52 134,148 -16,-11" />
<polygon fill="#d8dab6" fill-opacity="0.501961" points="101,173 -16,127 100,94" />
<polygon fill="#330000" fill-opacity="0.501961" points="93,268 140,255 118,84" />
<polygon fill="#ffffff" fill-opacity="0.501961" points="271,3 235,123 190,-16" />
<polygon fill="#e3e8e5" fill-opacity="0.501961" points="128,148 136,198 167,127" />
<polygon fill="#949d7a" fill-opacity="0.501961" points="176,27 241,271 256,149" />
<polygon fill="#682f00" fill-opacity="0.501961" points="139,3 -12,131 17,-16" />
<polygon fill="#ffffff" fill-opacity="0.501961" points="168,-16 170,29 132,4" />
<polygon fill="#000000" fill-opacity="0.501961" points="109,14 189,87 102,186" />
<polygon fill="#5f8507" fill-opacity="0.501961" points="107,147 16,271 -16,181" />
<polygon fill="#c9d87f" fill-opacity="0.501961" points="97,177 26,229 99,261" />
<polygon fill="#000000" fill-opacity="0.501961" points="174,-16 152,148 188,85" />
<polygon fill="#d5e4ff" fill-opacity="0.501961" points="215,134 185,35 187,113" />
<polygon fill="#000006" fill-opacity="0.501961" points="205,76 188,30 197,-15" />
<polygon fill="#beb8b0" fill-opacity="0.501961" points="60,174 -16,151 75,88" />
<polygon fill="#617204" fill-opacity="0.501961" points="271,170 197,159 233,190" />
<polygon fill="#ffffff" fill-opacity="0.501961" points="195,-16 271,83 212,98" />
<polygon fill="#9c0000" fill-opacity="0.501961" points="138,271 133,179 93,241" />
<polygon fill="#000006" fill-opacity="0.501961" points="213,98 199,96 196,53" />
<polygon fill="#c6ecff" fill-opacity="0.501961" points="189,-8 192,61 176,12" />
<polygon fill="#207d00" fill-opacity="0.501961" points="43,77 -16,89 16,122" />
<polygon fill="#576b8c" fill-opacity="0.501961" points="271,94 270,124 200,103" />
<polygon fill="#000000" fill-opacity="0.501961" points="101,196 124,88 134,206" />
<polygon fill="#a2cb79" fill-opacity="0.501961" points="6,46 42,65 54,132" />
<polygon fill="#b7b5a8" fill-opacity="0.501961" points="215,112 187,271 128,144" />
<polygon fill="#ffffff" fill-opacity="0.501961" points="163,-16 139,5 173,25" />
<polygon fill="#1a0000" fill-opacity="0.501961" points="6,26 33,-16 33,63" />
<polygon fill="#872516" fill-opacity="0.501961" points="137,-16 137,41 26,16" />
<polygon fill="#335400" fill-opacity="0.501961" points="76,167 71,202 5,177" />
<polygon fill="#a7b552" fill-opacity="0.501961" points="72,213 16,183 51,271" />
<polygon fill="#ffffff" fill-opacity="0.501961" points="235,112 197,-16 271,4" />
<polygon fill="#b2afa5" fill-opacity="0.501961" points="89,93 31,104 -16,201" />
<polygon fill="#0d0000" fill-opacity="0.501961" points="164,126 92,11 80,92" />
<polygon fill="#294700" fill-opacity="0.501961" points="173,247 136,271 147,234" />
<polygon fill="#acac69" fill-opacity="0.501961" points="231,220 207,271 132,222" />
<polygon fill="#00000b" fill-opacity="0.501961" points="170,28 182,27 174,-16" />
<polygon fill="#834534" fill-opacity="0.501961" points="123,-16 48,-16 39,80" />
<polygon fill="#b1b258" fill-opacity="0.501961" points="68,155 96,185 106,108" />
<polygon fill="#0a0000" fill-opacity="0.501961" points="103,141 126,18 185,106" />
<polygon fill="#273900" fill-opacity="0.501961" points="-11,184 13,226 26,203" />
<polygon fill="#c4c4ba" fill-opacity="0.501961" points="134,165 258,191 271,246" />
<polygon fill="#000002" fill-opacity="0.501961" points="204,62 189,33 192,-2" />
<polygon fill="#c1c060" fill-opacity="0.501961" points="202,143 271,133 271,188" />
<polygon fill="#b2b1a4" fill-opacity="0.501961" points="132,174 180,108 139,251" />
<polygon fill="#991c00" fill-opacity="0.501961" points="101,191 102,271 135,219" />
<polygon fill="#fcffff" fill-opacity="0.501961" points="80,94 73,106 63,92" />
<polygon fill="#574e60" fill-opacity="0.501961" points="10,92 -16,23 17,-16" />
<polygon fill="#1d1a1f" fill-opacity="0.501961" points="223,108 211,93 228,101" />
<polygon fill="#120000" fill-opacity="0.501961" points="97,27 189,93 185,60" />
<polygon fill="#ebf8ff" fill-opacity="0.501961" points="184,60 189,31 196,88" />
<polygon fill="#796b8c" fill-opacity="0.501961" points="175,44 171,20 132,24" />
<polygon fill="#4a5778" fill-opacity="0.501961" points="175,128 205,123 176,113" />
<polygon fill="#120000" fill-opacity="0.501961" points="179,31 119,131 166,132" />
<polygon fill="#aea892" fill-opacity="0.501961" points="-16,103 -16,178 77,149" />
<polygon fill="#3b6300" fill-opacity="0.501961" points="-16,94 24,119 36,77" />
<polygon fill="#d9e9f1" fill-opacity="0.501961" points="206,72 181,98 189,107" />
<polygon fill="#b7b99f" fill-opacity="0.501961" points="75,223 100,246 87,162" />
<polygon fill="#0d3d7e" fill-opacity="0.501961" points="271,107 239,104 265,86" />
<polygon fill="#5b5e00" fill-opacity="0.501961" points="237,170 204,157 205,169" />
<polygon fill="#00000b" fill-opacity="0.501961" points="197,77 207,76 195,40" />
<polygon fill="#d1d3ff" fill-opacity="0.501961" points="144,19 172,24 135,-13" />
<polygon fill="#c3c2cc" fill-opacity="0.501961" points="271,106 177,129 208,148" />
<polygon fill="#f2f8fe" fill-opacity="0.501961" points="209,88 198,14 271,94" />
<polygon fill="#cbd9ff" fill-opacity="0.501961" points="190,-16 187,37 178,-2" />
<polygon fill="#a8a4a0" fill-opacity="0.501961" points="94,99 -9,122 100,141" />
<polygon fill="#632f1c" fill-opacity="0.501961" points="25,53 92,100 78,33" />
<polygon fill="#000000" fill-opacity="0.501961" points="132,210 126,72 102,168" />
<polygon fill="#000004" fill-opacity="0.501961" points="197,8 190,12 189,-16" />
<polygon fill="#acab82" fill-opacity="0.501961" points="35,191 -6,181 42,210" />
<polygon fill="#4f6c00" fill-opacity="0.501961" points="62,180 30,164 0,181" />
<polygon fill="#f5ffff" fill-opacity="0.501961" points="177,110 170,120 170,135" />
<polygon fill="#354822" fill-opacity="0.501961" points="19,232 42,246 10,253" />
<polygon fill="#639e2e" fill-opacity="0.501961" points="79,87 54,100 43,77" />
<polygon fill="#681300" fill-opacity="0.501961" points="126,0 83,23 142,40" />
<polygon fill="#99be33" fill-opacity="0.501961" points="19,49 37,77 15,82" />
<polygon fill="#8b9b1e" fill-opacity="0.501961" points="26,216 36,245 66,235" />
<polygon fill="#eae9f8" fill-opacity="0.501961" points="231,125 192,115 206,106" />
<polygon fill="#380300" fill-opacity="0.501961" points="9,-16 24,51 50,-16" />
<polygon fill="#6f9fcc" fill-opacity="0.501961" points="201,22 191,-16 202,-16" />
<polygon fill="#b0b1a6" fill-opacity="0.501961" points="160,131 129,148 146,217" />
<polygon fill="#bcbbb3" fill-opacity="0.501961" points="58,121 38,84 30,118" />
<polygon fill="#0e0000" fill-opacity="0.501961" points="107,25 186,107 84,93" />
<polygon fill="#a4a463" fill-opacity="0.501961" points="221,271 224,220 138,271" />
<polygon fill="#000004" fill-opacity="0.501961" points="177,32 177,-3 168,0" />
<polygon fill="#363f48" fill-opacity="0.501961" points="198,88 207,87 193,109" />
<polygon fill="#95734d" fill-opacity="0.501961" points="91,228 101,195 100,261" />
<polygon fill="#93918c" fill-opacity="0.501961" points="181,160 145,136 191,135" />
<polygon fill="#89986b" fill-opacity="0.501961" points="271,163 244,194 208,175" />
<polygon fill="#f6f9fa" fill-opacity="0.501961" points="201,19 213,95 250,99" />
<polygon fill="#8c1e00" fill-opacity="0.501961" points="100,220 132,199 140,271" />
<polygon fill="#3e0d00" fill-opacity="0.501961" points="70,75 103,104 84,37" />
<polygon fill="#000000" fill-opacity="0.501961" points="142,118 105,119 104,207" />
<polygon fill="#655f7b" fill-opacity="0.501961" points="101,142 97,97 107,113" />
<polygon fill="#ffffff" fill-opacity="0.501961" points="167,-11 168,15 109,-16" />
<polygon fill="#7e8d58" fill-opacity="0.501961" points="103,158 101,181 54,186" />
<polygon fill="#415d1c" fill-opacity="0.501961" points="72,161 34,194 78,198" />
<polygon fill="#b6bf3e" fill-opacity="0.501961" points="92,179 94,139 68,148" />
</g>
</svg>