<svg xmlns="http://www.w3.org/2000/svg" version="1.1" width="1024" height="1024">
<rect x="0" y="0" width="1024" height="1024" fill="#958b94" />
<g transform="scale(4.000000) translate(0.5 0.5)">
<polygon fill="#000000" fill-opacity="0.501961" points="271,132 137,25 117,271" />
<polygon fill="#ffffff" fill-opacity="0.501961" points="14,271 136,-16 -16,2" />
<polygon fill="#050014" fill-opacity="0.501961" points="88,79 64,271 250,226" />
<polygon fill="#ffffff" fill-opacity="0.501961" points="254,-16 271,113 127,27" />
<polygon fill="#ffffff" fill-opacity="0.501961" points="58,271 106,-16 -16,23" />
<polygon fill="#ffffff" fill-opacity="0.501961" points="-16,43 97,236 2,271" />
<polygon fill="#000010" fill-opacity="0.501961" points="271,131 176,51 119,194" />
<polygon fill="#ffffff" fill-opacity="0.501961" points="247,168 204,244 220,145" />
<polygon fill="#ae4d84" fill-opacity="0.501961" points="106,211 105,-7 185,-16" />
<polygon fill="#000000" fill-opacity="0.501961" points="271,196 249,117 231,242" />
<polygon fill="#ffffff" fill-opacity="0.501961" points="271,5 154,-16 256,122" />
<polygon fill="#000000" fill-opacity="0.501961" points="101,203 103,77 67,203" />
<polygon fill="#00000e" fill-opacity="0.501961" points="233,94 103,250 187,246" />
<polygon fill="#000000" fill-opacity="0.501961" points="139,-16 189,-16 155,23" />
<polygon fill="#fffff6" fill-opacity="0.501961" points="63,271 -16,-2 92,-3" />
<polygon fill="#000019" fill-opacity="0.501961" points="82,99 85,174 109,81" />
<polygon fill="#d69d6e" fill-opacity="0.501961" points="201,215 205,271 253,197" />
<polygon fill="#bf4eb6" fill-opacity="0.501961" points="118,233 136,75 98,168" />
<polygon fill="#ca59c8" fill-opacity="0.501961" points="116,91 165,38 192,62" />
<polygon fill="#ffffbd" fill-opacity="0.501961" points="135,39 94,14 148,11" />
<polygon fill="#000a22" fill-opacity="0.501961" points="179,247 212,74 131,102" />
<polygon fill="#ac6837" fill-opacity="0.501961" points="70,199 100,210 69,271" />
<polygon fill="#000002" fill-opacity="0.501961" points="113,51 108,70 153,44" />
<polygon fill="#00000c" fill-opacity="0.501961" points="253,220 229,103 271,172" />
<polygon fill="#fffef5" fill-opacity="0.501961" points="-7,56 65,271 0,261" />
<polygon fill="#fffcf3" fill-opacity="0.501961" points="219,149 210,232 244,164" />
<polygon fill="#f6fff7" fill-opacity="0.501961" points="92,238 107,250 84,258" />
<polygon fill="#fffffa" fill-opacity="0.501961" points="271,105 172,51 177,-16" />
<polygon fill="#fffffa" fill-opacity="0.501961" points="25,138 105,73 109,19" />
<polygon fill="#f3eedb" fill-opacity="0.501961" points="215,263 271,251 271,201" />
<polygon fill="#030e22" fill-opacity="0.501961" points="213,206 214,97 126,196" />
<polygon fill="#a66d4a" fill-opacity="0.501961" points="176,247 245,212 212,271" />
<polygon fill="#897442" fill-opacity="0.501961" points="109,48 130,50 102,-16" />
<polygon fill="#00041b" fill-opacity="0.501961" points="97,119 70,184 105,215" />
<polygon fill="#000005" fill-opacity="0.501961" points="105,194 94,219 105,247" />
<polygon fill="#06280e" fill-opacity="0.501961" points="159,35 167,40 172,15" />
<polygon fill="#fee1c4" fill-opacity="0.501961" points="87,217 72,202 96,207" />
<polygon fill="#000015" fill-opacity="0.501961" points="271,77 271,205 236,194" />
<polygon fill="#faf6f2" fill-opacity="0.501961" points="-16,132 77,170 82,125" />
<polygon fill="#9f47a2" fill-opacity="0.501961" points="108,159 107,70 156,46" />
<polygon fill="#021427" fill-opacity="0.501961" points="90,83 111,137 81,112" />
<polygon fill="#070e22" fill-opacity="0.501961" points="104,252 212,75 252,120" />
<polygon fill="#b4d8e0" fill-opacity="0.501961" points="117,253 176,271 177,248" />
<polygon fill="#000000" fill-opacity="0.501961" points="169,9 140,-16 155,19" />
<polygon fill="#381805" fill-opacity="0.501961" points="92,242 91,219 74,267" />
<polygon fill="#081128" fill-opacity="0.501961" points="186,73 121,186 139,96" />
<polygon fill="#993f87" fill-opacity="0.501961" points="113,247 99,173 126,180" />
<polygon fill="#d8dfe4" fill-opacity="0.501961" points="200,219 208,232 234,195" />
<polygon fill="#fffef7" fill-opacity="0.501961" points="97,-16 110,47 78,107" />
<polygon fill="#ffdabc" fill-opacity="0.501961" points="208,234 182,250 188,239" />
<polygon fill="#071123" fill-opacity="0.501961" points="138,104 114,258 204,232" />
<polygon fill="#635820" fill-opacity="0.501961" points="138,3 103,5 135,13" />
<polygon fill="#270700" fill-opacity="0.501961" points="243,224 221,255 228,234" />
<polygon fill="#bd64b4" fill-opacity="0.501961" points="160,83 102,103 105,122" />
<polygon fill="#3d1447" fill-opacity="0.501961" points="87,100 130,72 93,84" />
<polygon fill="#ffddba" fill-opacity="0.501961" points="120,23 106,27 122,-16" />
<polygon fill="#c4a96b" fill-opacity="0.501961" points="170,13 158,43 114,41" />
<polygon fill="#f0eceb" fill-opacity="0.501961" points="213,168 242,166 222,145" />
<polygon fill="#050e24" fill-opacity="0.501961" points="261,182 187,106 261,121" />
<polygon fill="#f8f1ea" fill-opacity="0.501961" points="255,117 261,-5 169,-13" />
<polygon fill="#c99065" fill-opacity="0.501961" points="229,226 252,201 233,194" />
<polygon fill="#602e4c" fill-opacity="0.501961" points="120,49 108,72 112,23" />
<polygon fill="#b64dad" fill-opacity="0.501961" points="105,63 99,91 114,71" />
<polygon fill="#010a1a" fill-opacity="0.501961" points="105,192 70,206 77,170" />
<polygon fill="#4a709f" fill-opacity="0.501961" points="177,218 211,204 205,216" />
<polygon fill="#010918" fill-opacity="0.501961" points="108,126 74,174 93,205" />
<polygon fill="#ffe8d1" fill-opacity="0.501961" points="119,18 130,34 148,9" />
<polygon fill="#0a0b07" fill-opacity="0.501961" points="150,39 148,50 117,58" />
<polygon fill="#000002" fill-opacity="0.501961" points="102,245 95,244 106,222" />
<polygon fill="#ba62b2" fill-opacity="0.501961" points="100,181 109,133 131,145" />
<polygon fill="#fffffd" fill-opacity="0.501961" points="96,233 91,244 95,245" />
<polygon fill="#f5f0ee" fill-opacity="0.501961" points="77,-16 -16,212 70,205" />
<polygon fill="#8b3e82" fill-opacity="0.501961" points="184,48 122,76 174,72" />
<polygon fill="#06060d" fill-opacity="0.501961" points="105,10 104,1 116,11" />
<polygon fill="#0d1325" fill-opacity="0.501961" points="212,200 122,129 219,138" />
<polygon fill="#3d1247" fill-opacity="0.501961" points="136,83 152,84 116,98" />
<polygon fill="#94a89d" fill-opacity="0.501961" points="183,-16 168,-16 169,19" />
<polygon fill="#d0b66d" fill-opacity="0.501961" points="154,23 138,-16 114,-9" />
<polygon fill="#8f3f80" fill-opacity="0.501961" points="109,249 105,178 123,213" />
<polygon fill="#6d422f" fill-opacity="0.501961" points="71,218 75,243 65,257" />
<polygon fill="#f4f1ee" fill-opacity="0.501961" points="-11,140 83,75 79,162" />
<polygon fill="#010813" fill-opacity="0.501961" points="183,245 205,214 101,246" />
<polygon fill="#d7a88a" fill-opacity="0.501961" points="183,246 202,236 216,264" />
<polygon fill="#5e79a6" fill-opacity="0.501961" points="189,226 187,232 201,229" />
<polygon fill="#fcf3f5" fill-opacity="0.501961" points="171,10 214,77 171,38" />
<polygon fill="#78513f" fill-opacity="0.501961" points="220,241 237,195 207,237" />
<polygon fill="#ca77c1" fill-opacity="0.501961" points="114,121 128,130 135,110" />
<polygon fill="#85a2b3" fill-opacity="0.501961" points="122,248 120,259 145,264" />
<polygon fill="#6b85b4" fill-opacity="0.501961" points="249,117 239,102 265,122" />
<polygon fill="#0f182d" fill-opacity="0.501961" points="132,106 188,63 256,124" />
<polygon fill="#0e1a29" fill-opacity="0.501961" points="88,88 103,148 81,116" />
<polygon fill="#c279b2" fill-opacity="0.501961" points="133,58 165,49 176,32" />
<polygon fill="#425d85" fill-opacity="0.501961" points="215,177 216,160 201,190" />
<polygon fill="#02050c" fill-opacity="0.501961" points="179,142 226,131 218,154" />
<polygon fill="#a78156" fill-opacity="0.501961" points="154,19 143,46 115,52" />
<polygon fill="#311106" fill-opacity="0.501961" points="252,200 234,238 271,198" />
<polygon fill="#1e1a17" fill-opacity="0.501961" points="136,3 124,2 118,7" />
<polygon fill="#d7a1d7" fill-opacity="0.501961" points="195,61 183,58 171,65" />
<polygon fill="#000b22" fill-opacity="0.501961" points="94,227 108,242 104,193" />
<polygon fill="#cec8c5" fill-opacity="0.501961" points="202,217 229,203 209,232" />
</g>
</svg>