<svg xmlns="http://www.w3.org/2000/svg" version="1.1" width="1024" height="1024">
<rect x="0" y="0" width="1024" height="1024" fill="#c4878e" />
<g transform="scale(4.000000) translate(0.5 0.5)">
<polygon fill="#001a00" fill-opacity="0.501961" points="-16,2 261,57 256,-16" />
<polygon fill="#ffffff" fill-opacity="0.501961" points="271,194 84,271 237,54" />
<polygon fill="#ffffff" fill-opacity="0.501961" points="181,23 271,106 95,23" />
<polygon fill="#000a00" fill-opacity="0.501961" points="-16,-5 -16,43 134,17" />
<polygon fill="#f4404c" fill-opacity="0.501961" points="115,35 -16,58 20,231" />
<polygon fill="#740e28" fill-opacity="0.501961" points="271,271 271,179 136,271" />
<polygon fill="#e4fbf7" fill-opacity="0.501961" points="-16,242 117,271 249,186" />
<polygon fill="#f8809f" fill-opacity="0.501961" points="-16,132 203,201 178,23" />
<polygon fill="#232610" fill-opacity="0.501961" points="260,77 258,-12 105,-16" />
<polygon fill="#edfef8" fill-opacity="0.501961" points="212,41 271,121 208,228" />
<polygon fill="#003300" fill-opacity="0.501961" points="217,226 137,256 178,271" />
<polygon fill="#ec89a5" fill-opacity="0.501961" points="224,69 178,210 -16,242" />
<polygon fill="#ab3e4d" fill-opacity="0.501961" points="27,187 196,127 105,133" />
<polygon fill="#da4880" fill-opacity="0.501961" points="264,245 210,240 259,159" />
<polygon fill="#ece3db" fill-opacity="0.501961" points="232,55 154,20 59,34" />
<polygon fill="#b7201d" fill-opacity="0.501961" points="-6,100 97,42 -1,56" />
<polygon fill="#e3f1e9" fill-opacity="0.501961" points="205,228 271,99 109,265" />
<polygon fill="#f3a4c1" fill-opacity="0.501961" points="129,142 45,92 227,82" />
<polygon fill="#1e2911" fill-opacity="0.501961" points="258,92 227,49 271,43" />
<polygon fill="#921c22" fill-opacity="0.501961" points="52,159 76,179 -16,174" />
<polygon fill="#3e3725" fill-opacity="0.501961" points="181,14 -16,-16 11,33" />
<polygon fill="#da6781" fill-opacity="0.501961" points="151,34 192,91 69,38" />
<polygon fill="#a73732" fill-opacity="0.501961" points="145,151 197,122 162,119" />
<polygon fill="#c7dacd" fill-opacity="0.501961" points="160,248 -16,224 17,271" />
<polygon fill="#c8fbd6" fill-opacity="0.501961" points="97,25 62,43 25,40" />
<polygon fill="#e689aa" fill-opacity="0.501961" points="84,232 -16,186 211,161" />
<polygon fill="#f6b0bf" fill-opacity="0.501961" points="232,117 196,186 191,48" />
<polygon fill="#5a4a35" fill-opacity="0.501961" points="229,13 223,50 109,-1" />
<polygon fill="#754b54" fill-opacity="0.501961" points="142,69 191,76 184,88" />
<polygon fill="#f07995" fill-opacity="0.501961" points="151,32 108,150 24,166" />
<polygon fill="#e1f5e9" fill-opacity="0.501961" points="205,40 142,24 252,89" />
<polygon fill="#d35a86" fill-opacity="0.501961" points="83,197 -1,175 0,224" />
<polygon fill="#ef231a" fill-opacity="0.501961" points="118,137 101,148 145,152" />
<polygon fill="#ca587a" fill-opacity="0.501961" points="228,208 271,146 241,245" />
<polygon fill="#cc3a31" fill-opacity="0.501961" points="28,35 -3,44 -16,20" />
<polygon fill="#3a3631" fill-opacity="0.501961" points="156,131 148,143 163,153" />
<polygon fill="#47350d" fill-opacity="0.501961" points="231,208 147,271 182,271" />
<polygon fill="#bcdd93" fill-opacity="0.501961" points="19,53 56,31 -15,48" />
<polygon fill="#dfb1b2" fill-opacity="0.501961" points="141,141 66,192 172,158" />
<polygon fill="#f6a2b7" fill-opacity="0.501961" points="153,31 220,84 139,59" />
<polygon fill="#7b9929" fill-opacity="0.501961" points="113,257 125,271 175,243" />
<polygon fill="#e3f1e9" fill-opacity="0.501961" points="271,113 236,197 224,52" />
<polygon fill="#313527" fill-opacity="0.501961" points="170,22 243,64 266,47" />
<polygon fill="#6b5878" fill-opacity="0.501961" points="48,172 88,172 101,153" />
<polygon fill="#e5f2e5" fill-opacity="0.501961" points="222,214 180,240 200,180" />
<polygon fill="#9f2321" fill-opacity="0.501961" points="82,64 68,50 55,67" />
<polygon fill="#1e2a1f" fill-opacity="0.501961" points="9,8 23,29 88,24" />
<polygon fill="#ea7174" fill-opacity="0.501961" points="-16,170 88,134 27,70" />
<polygon fill="#e81714" fill-opacity="0.501961" points="135,129 128,132 147,144" />
<polygon fill="#e13230" fill-opacity="0.501961" points="144,174 138,164 154,166" />
<polygon fill="#40222b" fill-opacity="0.501961" points="10,166 13,178 -11,171" />
<polygon fill="#e8e5c4" fill-opacity="0.501961" points="45,106 92,96 71,92" />
<polygon fill="#1a1c1d" fill-opacity="0.501961" points="265,-2 271,25 173,-4" />
<polygon fill="#eaa7c1" fill-opacity="0.501961" points="136,223 94,193 31,242" />
<polygon fill="#f1ffff" fill-opacity="0.501961" points="158,144 157,140 169,142" />
<polygon fill="#ebae9a" fill-opacity="0.501961" points="41,103 14,131 8,112" />
<polygon fill="#f08fac" fill-opacity="0.501961" points="195,161 205,142 172,120" />
<polygon fill="#e4dfe2" fill-opacity="0.501961" points="243,181 170,244 37,250" />
<polygon fill="#4e4034" fill-opacity="0.501961" points="99,26 -16,1 218,-16" />
<polygon fill="#e896bb" fill-opacity="0.501961" points="215,94 98,145 131,75" />
<polygon fill="#cd90b3" fill-opacity="0.501961" points="13,194 46,203 62,174" />
<polygon fill="#dcded9" fill-opacity="0.501961" points="177,37 128,21 78,33" />
<polygon fill="#542e2a" fill-opacity="0.501961" points="172,132 151,133 182,140" />
<polygon fill="#e70b00" fill-opacity="0.501961" points="171,79 170,72 159,70" />
<polygon fill="#16394b" fill-opacity="0.501961" points="103,162 88,160 88,152" />
<polygon fill="#ead3d3" fill-opacity="0.501961" points="241,90 186,101 212,61" />
<polygon fill="#282e16" fill-opacity="0.501961" points="190,271 191,239 116,265" />
<polygon fill="#cc5c85" fill-opacity="0.501961" points="260,159 271,225 215,232" />
<polygon fill="#fe1416" fill-opacity="0.501961" points="180,117 193,127 179,127" />
<polygon fill="#113a57" fill-opacity="0.501961" points="187,75 183,86 178,80" />
<polygon fill="#e68a9b" fill-opacity="0.501961" points="184,197 152,157 208,109" />
<polygon fill="#e66579" fill-opacity="0.501961" points="109,75 142,39 80,38" />
<polygon fill="#044747" fill-opacity="0.501961" points="55,167 64,165 66,175" />
<polygon fill="#8a740c" fill-opacity="0.501961" points="226,217 211,222 233,201" />
<polygon fill="#e59cb6" fill-opacity="0.501961" points="180,133 177,69 160,93" />
<polygon fill="#d33533" fill-opacity="0.501961" points="4,165 29,183 55,162" />
<polygon fill="#e06356" fill-opacity="0.501961" points="-16,147 -16,103 68,56" />
<polygon fill="#ea7fa0" fill-opacity="0.501961" points="94,176 76,151 85,137" />
<polygon fill="#d64671" fill-opacity="0.501961" points="-16,215 14,214 1,168" />
<polygon fill="#dfa2b8" fill-opacity="0.501961" points="98,178 149,177 101,150" />
<polygon fill="#e77ca0" fill-opacity="0.501961" points="75,149 52,144 75,177" />
<polygon fill="#e2444c" fill-opacity="0.501961" points="93,142 141,150 107,155" />
<polygon fill="#5c5430" fill-opacity="0.501961" points="271,135 246,70 271,49" />
<polygon fill="#eb92a6" fill-opacity="0.501961" points="72,94 90,67 146,154" />
<polygon fill="#e55472" fill-opacity="0.501961" points="74,135 13,160 -2,133" />
<polygon fill="#e25151" fill-opacity="0.501961" points="48,63 71,90 52,98" />
<polygon fill="#825268" fill-opacity="0.501961" points="143,72 148,64 163,83" />
<polygon fill="#cbdbc5" fill-opacity="0.501961" points="85,268 180,240 93,239" />
<polygon fill="#e9ffe9" fill-opacity="0.501961" points="152,169 154,158 146,158" />
<polygon fill="#e8847d" fill-opacity="0.501961" points="1,103 53,82 57,108" />
<polygon fill="#cbd5c6" fill-opacity="0.501961" points="76,40 103,25 44,36" />
<polygon fill="#fb2529" fill-opacity="0.501961" points="164,117 171,118 165,130" />
<polygon fill="#f44850" fill-opacity="0.501961" points="191,80 180,72 192,69" />
<polygon fill="#574534" fill-opacity="0.501961" points="194,5 271,49 119,13" />
<polygon fill="#99c9a2" fill-opacity="0.501961" points="-16,266 -5,243 55,257" />
<polygon fill="#eac6cc" fill-opacity="0.501961" points="206,176 158,222 86,237" />
<polygon fill="#abdc97" fill-opacity="0.501961" points="236,62 254,85 241,77" />
<polygon fill="#e397ba" fill-opacity="0.501961" points="156,70 132,105 148,151" />
<polygon fill="#ea89a2" fill-opacity="0.501961" points="162,96 148,129 162,128" />
<polygon fill="#ee96b8" fill-opacity="0.501961" points="207,102 214,136 124,85" />
</g>
</svg>