<svg xmlns="http://www.w3.org/2000/svg" version="1.1" width="1024" height="1024">
<rect x="0" y="0" width="1024" height="1024" fill="#d9dfe6" />
<g transform="scale(4.000000) translate(0.5 0.5)">
<polygon fill="#5393b3" fill-opacity="0.501961" points="105,271 -16,251 77,109" />
<polygon fill="#fffaf9" fill-opacity="0.501961" points="-12,29 252,186 268,-16" />
<polygon fill="#3a6f9b" fill-opacity="0.501961" points="24,271 18,223 92,242" />
<polygon fill="#b9c9ce" fill-opacity="0.501961" points="83,-16 106,234 2,171" />
<polygon fill="#f3c2ce" fill-opacity="0.501961" points="139,46 54,157 91,19" />
<polygon fill="#f0eef2" fill-opacity="0.501961" points="108,124 95,266 271,199" />
<polygon fill="#8bc4dc" fill-opacity="0.501961" points="106,166 16,135 19,230" />
<polygon fill="#f8fdf7" fill-opacity="0.501961" points="89,66 24,-16 -16,97" />
<polygon fill="#fdfbfc" fill-opacity="0.501961" points="123,-16 271,12 216,147" />
<polygon fill="#d4def0" fill-opacity="0.501961" points="8,116 21,213 -13,271" />
<polygon fill="#d3ceca" fill-opacity="0.501961" points="68,63 103,161 4,104" />
<polygon fill="#d4e9ef" fill-opacity="0.501961" points="98,72 236,138 109,151" />
<polygon fill="#c4cac4" fill-opacity="0.501961" points="83,46 75,-16 50,40" />
<polygon fill="#6890b5" fill-opacity="0.501961" points="27,214 -5,271 118,271" />
<polygon fill="#9dc8d7" fill-opacity="0.501961" points="104,238 94,142 15,182" />
<polygon fill="#c9c8c3" fill-opacity="0.501961" points="49,0 138,-16 128,13" />
<polygon fill="#fdfdf6" fill-opacity="0.501961" points="154,193 107,161 101,202" />
<polygon fill="#518ea2" fill-opacity="0.501961" points="61,251 21,234 92,235" />
<polygon fill="#eeebee" fill-opacity="0.501961" points="271,169 142,165 210,87" />
<polygon fill="#90c1d7" fill-opacity="0.501961" points="17,127 76,238 36,234" />
<polygon fill="#f9bedb" fill-opacity="0.501961" points="84,81 85,30 137,44" />
<polygon fill="#bcb399" fill-opacity="0.501961" points="31,106 15,96 23,117" />
<polygon fill="#d0cccb" fill-opacity="0.501961" points="101,145 90,71 37,150" />
<polygon fill="#f7fdf7" fill-opacity="0.501961" points="19,37 82,48 87,77" />
<polygon fill="#cfd1de" fill-opacity="0.501961" points="168,240 93,239 105,257" />
<polygon fill="#d2dbea" fill-opacity="0.501961" points="129,176 205,182 108,140" />
<polygon fill="#dbf8f8" fill-opacity="0.501961" points="10,81 -16,98 20,133" />
<polygon fill="#adb7d5" fill-opacity="0.501961" points="2,269 -16,197 21,217" />
<polygon fill="#cfcede" fill-opacity="0.501961" points="192,246 233,271 264,207" />
<polygon fill="#f0e7ee" fill-opacity="0.501961" points="103,-16 80,18 102,61" />
<polygon fill="#f4fbf5" fill-opacity="0.501961" points="125,65 84,86 201,85" />
<polygon fill="#daf2f1" fill-opacity="0.501961" points="105,80 176,87 99,145" />
<polygon fill="#da94a4" fill-opacity="0.501961" points="90,68 99,66 81,86" />
<polygon fill="#dbdae5" fill-opacity="0.501961" points="253,163 271,208 203,206" />
<polygon fill="#e9f4f1" fill-opacity="0.501961" points="-16,77 41,92 75,33" />
<polygon fill="#dfd6d1" fill-opacity="0.501961" points="13,96 106,114 71,58" />
<polygon fill="#fdf9f7" fill-opacity="0.501961" points="188,62 271,75 248,128" />
<polygon fill="#ebe7e8" fill-opacity="0.501961" points="-16,18 54,39 64,6" />
<polygon fill="#d5dcea" fill-opacity="0.501961" points="93,152 206,139 118,113" />
<polygon fill="#b6d3dd" fill-opacity="0.501961" points="95,128 104,178 83,226" />
<polygon fill="#f7f3f2" fill-opacity="0.501961" points="259,178 164,183 207,195" />
<polygon fill="#8eabbf" fill-opacity="0.501961" points="99,229 83,271 79,226" />
<polygon fill="#417e9e" fill-opacity="0.501961" points="64,244 26,228 36,244" />
<polygon fill="#8799c5" fill-opacity="0.501961" points="23,227 32,271 -13,271" />
<polygon fill="#edebee" fill-opacity="0.501961" points="122,220 145,178 219,248" />
<polygon fill="#d7c1b2" fill-opacity="0.501961" points="67,101 51,93 91,83" />
<polygon fill="#75acc0" fill-opacity="0.501961" points="86,227 59,242 15,223" />
<polygon fill="#99c3d6" fill-opacity="0.501961" points="22,141 23,214 99,169" />
<polygon fill="#edeef2" fill-opacity="0.501961" points="176,14 199,62 119,94" />
<polygon fill="#b5bed4" fill-opacity="0.501961" points="207,236 234,226 217,242" />
<polygon fill="#b9bcb8" fill-opacity="0.501961" points="86,-16 55,2 82,9" />
<polygon fill="#c8d2e5" fill-opacity="0.501961" points="192,204 154,190 181,191" />
<polygon fill="#f9f4f3" fill-opacity="0.501961" points="234,166 177,165 232,141" />
<polygon fill="#cfc8bf" fill-opacity="0.501961" points="51,125 101,119 97,96" />
<polygon fill="#dce7ef" fill-opacity="0.501961" points="12,132 0,198 19,211" />
<polygon fill="#f7faf4" fill-opacity="0.501961" points="105,160 111,135 101,125" />
<polygon fill="#cdccd8" fill-opacity="0.501961" points="20,114 33,147 97,133" />
<polygon fill="#f0ebee" fill-opacity="0.501961" points="262,231 233,203 178,208" />
<polygon fill="#f4f2f1" fill-opacity="0.501961" points="118,235 103,213 171,236" />
<polygon fill="#f4c6de" fill-opacity="0.501961" points="105,23 114,73 134,59" />
<polygon fill="#b2b8b5" fill-opacity="0.501961" points="79,33 68,31 68,17" />
<polygon fill="#c3c7db" fill-opacity="0.501961" points="179,237 153,238 172,246" />
<polygon fill="#dedfe2" fill-opacity="0.501961" points="99,29 101,4 132,13" />
<polygon fill="#d2d5e2" fill-opacity="0.501961" points="193,204 218,208 245,186" />
<polygon fill="#cedde5" fill-opacity="0.501961" points="100,218 131,200 142,207" />
<polygon fill="#f2f0f5" fill-opacity="0.501961" points="18,10 36,-13 64,24" />
<polygon fill="#a1c8dd" fill-opacity="0.501961" points="42,223 19,133 47,157" />
<polygon fill="#dcf1f1" fill-opacity="0.501961" points="10,70 50,51 81,61" />
<polygon fill="#f6f9f8" fill-opacity="0.501961" points="-16,54 82,53 17,26" />
<polygon fill="#b7bab7" fill-opacity="0.501961" points="164,-16 91,-15 116,5" />
<polygon fill="#c2d3e4" fill-opacity="0.501961" points="16,222 -16,238 23,192" />
<polygon fill="#e0dfe2" fill-opacity="0.501961" points="8,-16 31,25 -16,32" />
<polygon fill="#c5a3a2" fill-opacity="0.501961" points="78,93 87,81 75,89" />
<polygon fill="#f0e6dc" fill-opacity="0.501961" points="71,63 74,94 89,73" />
<polygon fill="#efeee2" fill-opacity="0.501961" points="104,102 96,74 85,84" />
<polygon fill="#f7f4f3" fill-opacity="0.501961" points="217,249 240,249 220,243" />
<polygon fill="#bbc1d7" fill-opacity="0.501961" points="210,261 214,249 197,240" />
<polygon fill="#f5f5f9" fill-opacity="0.501961" points="174,35 164,-16 114,37" />
<polygon fill="#acb2cc" fill-opacity="0.501961" points="88,241 107,257 85,266" />
<polygon fill="#e8bcd6" fill-opacity="0.501961" points="113,37 135,60 134,41" />
<polygon fill="#fbfaf6" fill-opacity="0.501961" points="136,57 115,83 129,96" />
<polygon fill="#eae8ed" fill-opacity="0.501961" points="128,246 100,271 195,247" />
<polygon fill="#d9d9e5" fill-opacity="0.501961" points="228,181 271,168 198,168" />
<polygon fill="#b8d3dd" fill-opacity="0.501961" points="98,162 102,214 84,229" />
<polygon fill="#e5e7ed" fill-opacity="0.501961" points="196,175 131,160 197,120" />
<polygon fill="#bbc5d3" fill-opacity="0.501961" points="34,107 21,116 62,126" />
<polygon fill="#9bc4d1" fill-opacity="0.501961" points="53,226 89,227 87,145" />
<polygon fill="#e6f6f2" fill-opacity="0.501961" points="152,126 201,123 171,84" />
<polygon fill="#f3b7d3" fill-opacity="0.501961" points="83,56 112,67 92,76" />
<polygon fill="#f9fafc" fill-opacity="0.501961" points="251,54 210,-16 151,-4" />
<polygon fill="#d8d9d9" fill-opacity="0.501961" points="88,12 43,-2 89,32" />
<polygon fill="#718bb5" fill-opacity="0.501961" points="96,271 76,246 14,250" />
<polygon fill="#f6f8f6" fill-opacity="0.501961" points="6,73 6,92 55,67" />
<polygon fill="#d5ebee" fill-opacity="0.501961" points="158,81 92,121 166,116" />
<polygon fill="#f1edee" fill-opacity="0.501961" points="255,137 258,98 199,93" />
<polygon fill="#fbfbf7" fill-opacity="0.501961" points="184,97 156,71 271,78" />
<polygon fill="#d4d5df" fill-opacity="0.501961" points="74,115 31,105 87,97" />
<polygon fill="#b58a87" fill-opacity="0.501961" points="86,83 88,76 80,88" />
<polygon fill="#f9d1e7" fill-opacity="0.501961" points="115,32 85,62 94,25" />
<polygon fill="#cdddec" fill-opacity="0.501961" points="-16,169 10,186 2,85" />
</g>
</svg>