<svg xmlns="http://www.w3.org/2000/svg" version="1.1" width="1024" height="1024">
<rect x="0" y="0" width="1024" height="1024" fill="#0cb2cc" />
<g transform="scale(4.000000) translate(0.5 0.5)">
<polygon fill="#ffffff" fill-opacity="0.501961" points="181,20 245,89 268,-16" />
<polygon fill="#00ac86" fill-opacity="0.501961" points="-16,-4 116,217 116,-16" />
<polygon fill="#e4ffff" fill-opacity="0.501961" points="271,10 222,88 203,-16" />
<polygon fill="#0092fd" fill-opacity="0.501961" points="-16,107 2,271 213,271" />
<polygon fill="#02f3ff" fill-opacity="0.501961" points="158,83 271,104 149,-16" />
<polygon fill="#009aae" fill-opacity="0.501961" points="271,101 264,239 -16,103" />
<polygon fill="#02c0ff" fill-opacity="0.501961" points="84,245 228,250 205,176" />
<polygon fill="#07d286" fill-opacity="0.501961" points="131,140 109,226 70,179" />
<polygon fill="#7ce3ff" fill-opacity="0.501961" points="83,69 25,63 42,52" />
<polygon fill="#caffff" fill-opacity="0.501961" points="271,65 251,-16 211,75" />
<polygon fill="#00d3ff" fill-opacity="0.501961" points="176,36 216,-2 81,-16" />
<polygon fill="#0091e5" fill-opacity="0.501961" points="28,54 46,187 88,79" />
<polygon fill="#006877" fill-opacity="0.501961" points="44,122 -16,64 1,122" />
<polygon fill="#a6ffff" fill-opacity="0.501961" points="231,40 172,40 229,-16" />
<polygon fill="#30dcff" fill-opacity="0.501961" points="152,89 163,117 105,94" />
<polygon fill="#006b7f" fill-opacity="0.501961" points="4,-16 16,55 -16,74" />
<polygon fill="#0c02b2" fill-opacity="0.501961" points="125,139 95,128 108,148" />
<polygon fill="#0000ad" fill-opacity="0.501961" points="218,221 234,213 218,205" />
<polygon fill="#00b78a" fill-opacity="0.501961" points="143,57 90,-16 1,55" />
<polygon fill="#38bcff" fill-opacity="0.501961" points="158,138 90,130 120,119" />
<polygon fill="#02fdff" fill-opacity="0.501961" points="234,86 267,90 252,55" />
<polygon fill="#00cfb2" fill-opacity="0.501961" points="142,20 64,78 169,93" />
<polygon fill="#0200a9" fill-opacity="0.501961" points="31,77 34,62 55,77" />
<polygon fill="#00a89d" fill-opacity="0.501961" points="163,78 190,185 271,174" />
<polygon fill="#06eaff" fill-opacity="0.501961" points="64,207 24,222 103,233" />
<polygon fill="#0065cc" fill-opacity="0.501961" points="-4,160 1,248 25,179" />
<polygon fill="#37bcff" fill-opacity="0.501961" points="158,208 205,182 239,203" />
<polygon fill="#e9ffff" fill-opacity="0.501961" points="123,101 118,96 143,92" />
<polygon fill="#00face" fill-opacity="0.501961" points="2,80 44,95 21,54" />
<polygon fill="#1ee78b" fill-opacity="0.501961" points="91,115 121,196 89,172" />
<polygon fill="#008fb3" fill-opacity="0.501961" points="57,175 85,143 103,236" />
<polygon fill="#008b9d" fill-opacity="0.501961" points="142,223 127,156 165,179" />
<polygon fill="#008ae8" fill-opacity="0.501961" points="253,271 101,261 271,223" />
<polygon fill="#00caff" fill-opacity="0.501961" points="92,240 228,242 202,210" />
<polygon fill="#003acf" fill-opacity="0.501961" points="75,232 86,243 53,271" />
<polygon fill="#00b5ff" fill-opacity="0.501961" points="-8,162 77,158 21,128" />
<polygon fill="#008c8b" fill-opacity="0.501961" points="80,132 107,119 45,63" />
<polygon fill="#0058ad" fill-opacity="0.501961" points="190,211 204,198 223,206" />
<polygon fill="#008f84" fill-opacity="0.501961" points="52,-5 120,-14 72,48" />
<polygon fill="#73efff" fill-opacity="0.501961" points="78,66 36,52 69,74" />
<polygon fill="#09f0ff" fill-opacity="0.501961" points="211,7 163,49 195,-16" />
<polygon fill="#ffff06" fill-opacity="0.501961" points="116,127 121,130 118,132" />
<polygon fill="#d1fffb" fill-opacity="0.501961" points="210,192 198,192 203,185" />
<polygon fill="#00daba" fill-opacity="0.501961" points="114,139 111,218 136,189" />
<polygon fill="#00a3f5" fill-opacity="0.501961" points="220,58 200,40 181,66" />
<polygon fill="#00e79d" fill-opacity="0.501961" points="47,33 94,74 26,44" />
<polygon fill="#004eef" fill-opacity="0.501961" points="49,69 45,62 64,61" />
<polygon fill="#00e6ee" fill-opacity="0.501961" points="261,83 188,70 181,100" />
<polygon fill="#c6ffff" fill-opacity="0.501961" points="240,66 196,32 265,-16" />
<polygon fill="#efffd8" fill-opacity="0.501961" points="38,57 52,58 42,62" />
<polygon fill="#00b3df" fill-opacity="0.501961" points="155,47 106,6 181,-5" />
<polygon fill="#0265cd" fill-opacity="0.501961" points="127,100 137,148 141,108" />
<polygon fill="#00bdc4" fill-opacity="0.501961" points="113,148 245,202 166,133" />
<polygon fill="#0d90ff" fill-opacity="0.501961" points="84,94 92,84 66,75" />
<polygon fill="#00b2d8" fill-opacity="0.501961" points="43,63 35,139 77,133" />
<polygon fill="#00bbcf" fill-opacity="0.501961" points="138,104 266,102 144,70" />
<polygon fill="#00a8a5" fill-opacity="0.501961" points="227,93 129,128 271,127" />
<polygon fill="#50f4c8" fill-opacity="0.501961" points="97,148 104,138 81,134" />
<polygon fill="#e2ffff" fill-opacity="0.501961" points="180,203 177,207 174,200" />
<polygon fill="#008898" fill-opacity="0.501961" points="261,144 265,208 225,154" />
<polygon fill="#06a0f5" fill-opacity="0.501961" points="257,224 220,186 208,200" />
<polygon fill="#86fcff" fill-opacity="0.501961" points="234,80 204,71 271,49" />
<polygon fill="#eff542" fill-opacity="0.501961" points="221,203 227,202 225,197" />
<polygon fill="#0092dd" fill-opacity="0.501961" points="1,218 100,204 31,153" />
<polygon fill="#00b9ff" fill-opacity="0.501961" points="114,103 162,117 154,93" />
<polygon fill="#00a6fe" fill-opacity="0.501961" points="271,150 232,139 256,124" />
<polygon fill="#00c4ff" fill-opacity="0.501961" points="185,248 112,210 100,238" />
<polygon fill="#0010b7" fill-opacity="0.501961" points="75,83 71,94 82,85" />
<polygon fill="#0096cd" fill-opacity="0.501961" points="116,211 169,224 161,190" />
<polygon fill="#00b89c" fill-opacity="0.501961" points="132,72 78,145 99,50" />
<polygon fill="#005bd8" fill-opacity="0.501961" points="194,240 166,271 217,271" />
<polygon fill="#00a6ff" fill-opacity="0.501961" points="86,228 52,256 6,237" />
<polygon fill="#04a472" fill-opacity="0.501961" points="95,183 75,181 97,154" />
<polygon fill="#00daff" fill-opacity="0.501961" points="205,45 166,72 169,30" />
<polygon fill="#00cfb3" fill-opacity="0.501961" points="61,87 3,93 50,75" />
<polygon fill="#0073d2" fill-opacity="0.501961" points="-6,235 14,256 55,257" />
<polygon fill="#00009a" fill-opacity="0.501961" points="231,208 217,215 226,220" />
<polygon fill="#00b4f3" fill-opacity="0.501961" points="176,185 205,204 146,195" />
<polygon fill="#00a5b3" fill-opacity="0.501961" points="108,209 91,271 90,177" />
<polygon fill="#0088db" fill-opacity="0.501961" points="44,131 -16,112 -3,149" />
<polygon fill="#0097a0" fill-opacity="0.501961" points="48,143 -16,67 29,96" />
<polygon fill="#0cd9ff" fill-opacity="0.501961" points="31,214 76,212 28,232" />
<polygon fill="#47dbff" fill-opacity="0.501961" points="112,127 92,129 116,119" />
<polygon fill="#00a9a6" fill-opacity="0.501961" points="222,185 151,186 251,106" />
<polygon fill="#004592" fill-opacity="0.501961" points="119,143 127,159 131,155" />
<polygon fill="#00ddc4" fill-opacity="0.501961" points="8,56 5,92 39,52" />
<polygon fill="#c5ffff" fill-opacity="0.501961" points="63,62 62,69 74,62" />
<polygon fill="#0eaffc" fill-opacity="0.501961" points="112,124 159,144 136,124" />
<polygon fill="#0049d3" fill-opacity="0.501961" points="117,167 108,167 113,160" />
<polygon fill="#003083" fill-opacity="0.501961" points="133,131 128,130 124,139" />
<polygon fill="#00b2d4" fill-opacity="0.501961" points="271,214 204,271 234,210" />
<polygon fill="#6defff" fill-opacity="0.501961" points="224,-16 183,31 214,12" />
<polygon fill="#051384" fill-opacity="0.501961" points="51,71 61,80 41,71" />
<polygon fill="#0067d3" fill-opacity="0.501961" points="51,159 46,175 24,158" />
<polygon fill="#005ae9" fill-opacity="0.501961" points="-15,207 19,181 0,159" />
<polygon fill="#2de278" fill-opacity="0.501961" points="123,175 92,182 96,161" />
<polygon fill="#00e6f6" fill-opacity="0.501961" points="191,89 255,88 189,62" />
<polygon fill="#b3f9ff" fill-opacity="0.501961" points="118,95 132,93 120,102" />
<polygon fill="#00aafc" fill-opacity="0.501961" points="34,196 -15,136 74,199" />
<polygon fill="#42f2ff" fill-opacity="0.501961" points="28,60 41,53 46,64" />
</g>
</svg>