<svg xmlns="http://www.w3.org/2000/svg" version="1.1" width="1024" height="1024">
<rect x="0" y="0" width="1024" height="1024" fill="#b3adad" />
<g transform="scale(4.000000) translate(0.5 0.5)">
<polygon fill="#030000" fill-opacity="0.501961" points="38,237 238,84 61,89" />
<polygon fill="#ffffff" fill-opacity="0.501961" points="-12,4 197,-14 -15,200" />
<polygon fill="#271415" fill-opacity="0.501961" points="43,175 207,31 200,149" />
<polygon fill="#ffffff" fill-opacity="0.501961" points="136,152 18,271 220,248" />
<polygon fill="#4a1005" fill-opacity="0.501961" points="212,252 229,98 264,271" />
<polygon fill="#fffffc" fill-opacity="0.501961" points="-6,115 78,193 -16,255" />
<polygon fill="#f2f6fd" fill-opacity="0.501961" points="271,137 183,95 251,-16" />
<polygon fill="#feffff" fill-opacity="0.501961" points="-16,85 157,-16 184,77" />
<polygon fill="#000000" fill-opacity="0.501961" points="244,169 213,96 271,169" />
<polygon fill="#1e0000" fill-opacity="0.501961" points="42,151 118,180 70,81" />
<polygon fill="#f6ffff" fill-opacity="0.501961" points="202,143 46,254 219,271" />
<polygon fill="#512830" fill-opacity="0.501961" points="204,-16 163,-13 204,98" />
<polygon fill="#4b0000" fill-opacity="0.501961" points="21,230 69,218 5,271" />
<polygon fill="#111619" fill-opacity="0.501961" points="193,159 77,91 179,75" />
<polygon fill="#b4adbb" fill-opacity="0.501961" points="115,187 85,85 131,149" />
<polygon fill="#ffd2b3" fill-opacity="0.501961" points="192,82 271,214 215,176" />
<polygon fill="#0b0000" fill-opacity="0.501961" points="198,108 197,147 120,165" />
<polygon fill="#e8fcff" fill-opacity="0.501961" points="212,-16 207,93 271,11" />
<polygon fill="#f3feff" fill-opacity="0.501961" points="73,55 -2,271 -16,-15" />
<polygon fill="#ffecd3" fill-opacity="0.501961" points="193,78 156,54 214,123" />
<polygon fill="#ce6d59" fill-opacity="0.501961" points="68,77 42,145 70,147" />
<polygon fill="#3d1c1c" fill-opacity="0.501961" points="209,176 235,271 252,218" />
<polygon fill="#695057" fill-opacity="0.501961" points="250,41 206,103 236,81" />
<polygon fill="#000108" fill-opacity="0.501961" points="67,117 87,197 97,112" />
<polygon fill="#f1ffff" fill-opacity="0.501961" points="170,77 170,6 12,-5" />
<polygon fill="#d1856b" fill-opacity="0.501961" points="36,238 44,166 96,193" />
<polygon fill="#ca896d" fill-opacity="0.501961" points="132,161 230,144 271,181" />
<polygon fill="#747087" fill-opacity="0.501961" points="24,-3 6,3 59,34" />
<polygon fill="#351108" fill-opacity="0.501961" points="265,166 224,107 231,161" />
<polygon fill="#969bb2" fill-opacity="0.501961" points="160,127 152,139 139,109" />
<polygon fill="#dceaf3" fill-opacity="0.501961" points="69,22 69,91 169,75" />
<polygon fill="#020d14" fill-opacity="0.501961" points="146,162 144,103 114,150" />
<polygon fill="#75251a" fill-opacity="0.501961" points="120,170 44,173 105,188" />
<polygon fill="#4e2116" fill-opacity="0.501961" points="-15,271 37,253 49,219" />
<polygon fill="#b4c0ce" fill-opacity="0.501961" points="106,161 95,114 113,112" />
<polygon fill="#ffffff" fill-opacity="0.501961" points="61,145 67,142 68,126" />
<polygon fill="#e9e9eb" fill-opacity="0.501961" points="207,156 217,235 112,167" />
<polygon fill="#946b68" fill-opacity="0.501961" points="174,-3 174,60 222,118" />
<polygon fill="#93a3a9" fill-opacity="0.501961" points="175,115 162,107 159,79" />
<polygon fill="#00020a" fill-opacity="0.501961" points="97,112 155,83 94,93" />
<polygon fill="#f6ffff" fill-opacity="0.501961" points="85,196 70,219 116,183" />
<polygon fill="#0c0403" fill-opacity="0.501961" points="205,128 172,154 182,88" />
<polygon fill="#e4f4fd" fill-opacity="0.501961" points="268,169 255,55 222,99" />
<polygon fill="#461915" fill-opacity="0.501961" points="120,163 79,182 78,203" />
<polygon fill="#ffd3c0" fill-opacity="0.501961" points="173,64 219,109 218,142" />
<polygon fill="#a6705e" fill-opacity="0.501961" points="225,126 252,169 210,164" />
<polygon fill="#634244" fill-opacity="0.501961" points="212,50 195,-16 193,89" />
<polygon fill="#e0a083" fill-opacity="0.501961" points="205,140 188,169 148,174" />
<polygon fill="#a2959e" fill-opacity="0.501961" points="219,204 202,236 214,269" />
<polygon fill="#691e16" fill-opacity="0.501961" points="63,105 59,185 45,150" />
<polygon fill="#59251d" fill-opacity="0.501961" points="90,88 65,94 75,118" />
<polygon fill="#effafe" fill-opacity="0.501961" points="201,85 227,39 214,96" />
<polygon fill="#e9cdb4" fill-opacity="0.501961" points="-16,266 27,193 82,178" />
<polygon fill="#f0e6d7" fill-opacity="0.501961" points="271,236 236,185 264,170" />
<polygon fill="#400b00" fill-opacity="0.501961" points="196,79 205,98 223,108" />
<polygon fill="#826462" fill-opacity="0.501961" points="128,153 109,127 118,90" />
<polygon fill="#f6ebe0" fill-opacity="0.501961" points="54,102 5,199 32,221" />
<polygon fill="#b0bacc" fill-opacity="0.501961" points="98,41 117,71 38,26" />
<polygon fill="#ffffff" fill-opacity="0.501961" points="144,92 150,93 143,98" />
<polygon fill="#5f535b" fill-opacity="0.501961" points="123,144 134,163 168,155" />
<polygon fill="#857c87" fill-opacity="0.501961" points="271,38 225,84 253,35" />
<polygon fill="#520000" fill-opacity="0.501961" points="118,146 109,130 115,118" />
<polygon fill="#000f16" fill-opacity="0.501961" points="95,112 108,174 68,150" />
<polygon fill="#000105" fill-opacity="0.501961" points="121,133 163,156 128,114" />
<polygon fill="#d5e1ef" fill-opacity="0.501961" points="271,-6 242,61 188,-16" />
<polygon fill="#682b26" fill-opacity="0.501961" points="62,209 63,224 84,192" />
<polygon fill="#f3e4d8" fill-opacity="0.501961" points="222,141 207,99 200,159" />
<polygon fill="#9faabe" fill-opacity="0.501961" points="120,158 104,156 94,109" />
<polygon fill="#aaafbb" fill-opacity="0.501961" points="177,215 191,271 174,247" />
<polygon fill="#ec8a75" fill-opacity="0.501961" points="178,96 178,63 173,79" />
<polygon fill="#f2f7f9" fill-opacity="0.501961" points="70,90 164,74 170,19" />
<polygon fill="#ce9074" fill-opacity="0.501961" points="45,188 43,143 61,186" />
<polygon fill="#672c26" fill-opacity="0.501961" points="204,131 197,147 182,104" />
<polygon fill="#ece1d1" fill-opacity="0.501961" points="230,184 228,170 200,174" />
<polygon fill="#fffdf2" fill-opacity="0.501961" points="68,107 68,116 62,118" />
<polygon fill="#f2fdff" fill-opacity="0.501961" points="122,141 117,137 119,126" />
<polygon fill="#0f0907" fill-opacity="0.501961" points="237,148 271,174 221,107" />
<polygon fill="#5f3d3c" fill-opacity="0.501961" points="242,192 208,177 249,271" />
<polygon fill="#00070a" fill-opacity="0.501961" points="186,91 169,101 174,152" />
<polygon fill="#706364" fill-opacity="0.501961" points="157,120 98,110 126,104" />
<polygon fill="#c0bbc2" fill-opacity="0.501961" points="97,112 92,91 85,109" />
<polygon fill="#e7f2f8" fill-opacity="0.501961" points="203,178 84,253 121,167" />
<polygon fill="#d8d7e1" fill-opacity="0.501961" points="91,174 78,174 83,171" />
<polygon fill="#fff1ff" fill-opacity="0.501961" points="152,121 156,129 155,137" />
<polygon fill="#eef7fb" fill-opacity="0.501961" points="82,88 2,-7 -13,41" />
<polygon fill="#9c98a5" fill-opacity="0.501961" points="172,45 186,10 185,68" />
<polygon fill="#774d44" fill-opacity="0.501961" points="174,154 161,151 166,123" />
<polygon fill="#d5ffff" fill-opacity="0.501961" points="68,126 69,139 62,143" />
<polygon fill="#3e1c13" fill-opacity="0.501961" points="224,105 214,106 238,129" />
<polygon fill="#bacadb" fill-opacity="0.501961" points="117,9 133,-16 147,19" />
<polygon fill="#be8e78" fill-opacity="0.501961" points="41,228 15,232 55,200" />
<polygon fill="#7e564e" fill-opacity="0.501961" points="64,118 93,113 84,100" />
<polygon fill="#8e2317" fill-opacity="0.501961" points="67,79 58,112 70,93" />
<polygon fill="#d07f6b" fill-opacity="0.501961" points="161,77 148,80 152,70" />
<polygon fill="#f3f8f9" fill-opacity="0.501961" points="-12,5 77,90 85,58" />
<polygon fill="#743325" fill-opacity="0.501961" points="202,84 168,59 194,69" />
<polygon fill="#000002" fill-opacity="0.501961" points="97,108 123,104 96,95" />
<polygon fill="#0d0a06" fill-opacity="0.501961" points="139,92 158,110 162,136" />
<polygon fill="#a29faf" fill-opacity="0.501961" points="257,136 255,147 231,118" />
<polygon fill="#62342e" fill-opacity="0.501961" points="80,202 75,178 118,163" />
</g>
</svg>