<svg xmlns="http://www.w3.org/2000/svg" version="1.1" width="1024" height="1024">
<rect x="0" y="0" width="1024" height="1024" fill="#636363" />
<g transform="scale(4.000000) translate(0.5 0.5)">
<polygon fill="#171717" fill-opacity="0.501961" points="25,133 77,-16 271,79" />
<polygon fill="#989898" fill-opacity="0.501961" points="175,271 271,108 -16,147" />
<polygon fill="#d2d2d2" fill-opacity="0.501961" points="271,-11 269,45 96,-10" />
<polygon fill="#2d2d2d" fill-opacity="0.501961" points="-16,238 100,160 38,271" />
<polygon fill="#9c9c9c" fill-opacity="0.501961" points="115,200 57,271 263,253" />
<polygon fill="#2c2c2c" fill-opacity="0.501961" points="86,67 271,102 86,128" />
<polygon fill="#929292" fill-opacity="0.501961" points="100,152 72,102 -16,210" />
<polygon fill="#161616" fill-opacity="0.501961" points="271,228 243,247 168,210" />
<polygon fill="#a6a6a6" fill-opacity="0.501961" points="236,212 267,165 234,83" />
<polygon fill="#1a1a1a" fill-opacity="0.501961" points="221,198 218,169 184,176" />
<polygon fill="#191919" fill-opacity="0.501961" points="208,51 224,27 271,76" />
<polygon fill="#d7d7d7" fill-opacity="0.501961" points="49,56 30,61 35,92" />
<polygon fill="#acacac" fill-opacity="0.501961" points="38,40 -16,56 5,20" />
<polygon fill="#303030" fill-opacity="0.501961" points="-8,126 1,54 31,153" />
<polygon fill="#070707" fill-opacity="0.501961" points="88,146 67,122 75,146" />
<polygon fill="#232323" fill-opacity="0.501961" points="154,205 180,211 142,224" />
<polygon fill="#a8a8a8" fill-opacity="0.501961" points="198,217 146,144 236,218" />
<polygon fill="#303030" fill-opacity="0.501961" points="110,31 58,25 -16,81" />
<polygon fill="#373737" fill-opacity="0.501961" points="145,111 243,115 187,11" />
<polygon fill="#a5a5a5" fill-opacity="0.501961" points="110,268 127,237 46,232" />
<polygon fill="#ababab" fill-opacity="0.501961" points="33,123 16,70 7,87" />
<polygon fill="#242424" fill-opacity="0.501961" points="67,230 113,198 79,240" />
<polygon fill="#7d7d7d" fill-opacity="0.501961" points="132,14 164,-16 26,-8" />
<polygon fill="#bfbfbf" fill-opacity="0.501961" points="182,28 176,-16 167,30" />
<polygon fill="#999999" fill-opacity="0.501961" points="62,128 23,134 48,204" />
<polygon fill="#353535" fill-opacity="0.501961" points="-16,27 11,-16 58,6" />
<polygon fill="#383838" fill-opacity="0.501961" points="55,43 169,12 125,148" />
<polygon fill="#a8a8a8" fill-opacity="0.501961" points="2,105 -16,209 8,163" />
<polygon fill="#414141" fill-opacity="0.501961" points="178,246 203,247 162,223" />
<polygon fill="#4c4c4c" fill-opacity="0.501961" points="203,165 124,145 169,141" />
<polygon fill="#2e2e2e" fill-opacity="0.501961" points="229,271 271,139 270,215" />
<polygon fill="#282828" fill-opacity="0.501961" points="26,232 101,261 10,271" />
<polygon fill="#454545" fill-opacity="0.501961" points="106,161 50,177 51,230" />
<polygon fill="#9b9b9b" fill-opacity="0.501961" points="185,248 236,245 189,219" />
<polygon fill="#b7b7b7" fill-opacity="0.501961" points="179,115 152,113 182,128" />
<polygon fill="#a5a5a5" fill-opacity="0.501961" points="112,172 67,214 84,219" />
<polygon fill="#363636" fill-opacity="0.501961" points="126,240 122,258 146,223" />
<polygon fill="#afafaf" fill-opacity="0.501961" points="63,114 85,109 47,139" />
<polygon fill="#646464" fill-opacity="0.501961" points="44,158 16,163 41,232" />
<polygon fill="#888888" fill-opacity="0.501961" points="71,27 64,-1 35,29" />
<polygon fill="#a8a8a8" fill-opacity="0.501961" points="158,185 82,259 122,251" />
<polygon fill="#fafafa" fill-opacity="0.501961" points="64,160 73,167 65,174" />
<polygon fill="#0e0e0e" fill-opacity="0.501961" points="109,143 93,129 96,143" />
<polygon fill="#b1b1b1" fill-opacity="0.501961" points="160,212 150,248 111,271" />
<polygon fill="#a8a8a8" fill-opacity="0.501961" points="162,-16 216,40 253,-2" />
<polygon fill="#a6a6a6" fill-opacity="0.501961" points="259,100 198,170 247,140" />
<polygon fill="#3c3c3c" fill-opacity="0.501961" points="141,93 236,21 203,123" />
<polygon fill="#292929" fill-opacity="0.501961" points="234,196 204,187 226,209" />
<polygon fill="#2b2b2b" fill-opacity="0.501961" points="-3,131 24,113 27,138" />
<polygon fill="#707070" fill-opacity="0.501961" points="129,157 73,271 151,182" />
<polygon fill="#bbbbbb" fill-opacity="0.501961" points="84,148 55,155 29,144" />
<polygon fill="#adadad" fill-opacity="0.501961" points="231,183 233,151 214,188" />
<polygon fill="#bcbcbc" fill-opacity="0.501961" points="32,117 35,104 20,102" />
<polygon fill="#343434" fill-opacity="0.501961" points="166,169 185,178 186,172" />
<polygon fill="#595959" fill-opacity="0.501961" points="96,150 60,159 118,160" />
<polygon fill="#a0a0a0" fill-opacity="0.501961" points="157,148 169,133 121,133" />
<polygon fill="#d8d8d8" fill-opacity="0.501961" points="45,165 51,181 45,202" />
<polygon fill="#ffffff" fill-opacity="0.501961" points="188,145 185,137 192,143" />
<polygon fill="#3c3c3c" fill-opacity="0.501961" points="210,169 205,190 234,151" />
<polygon fill="#484848" fill-opacity="0.501961" points="159,140 170,157 184,128" />
<polygon fill="#525252" fill-opacity="0.501961" points="244,25 262,25 232,46" />
<polygon fill="#c8c8c8" fill-opacity="0.501961" points="165,223 155,207 159,225" />
<polygon fill="#292929" fill-opacity="0.501961" points="3,105 -3,79 17,57" />
<polygon fill="#272727" fill-opacity="0.501961" points="75,233 66,206 46,213" />
<polygon fill="#797979" fill-opacity="0.501961" points="270,80 251,95 217,85" />
<polygon fill="#090909" fill-opacity="0.501961" points="179,253 172,247 181,266" />
<polygon fill="#a7a7a7" fill-opacity="0.501961" points="32,210 20,201 31,195" />
<polygon fill="#6a6a6a" fill-opacity="0.501961" points="69,207 49,157 50,204" />
<polygon fill="#b7b7b7" fill-opacity="0.501961" points="180,176 174,196 208,192" />
<polygon fill="#838383" fill-opacity="0.501961" points="16,238 -9,254 -16,226" />
<polygon fill="#383838" fill-opacity="0.501961" points="103,90 72,120 149,133" />
<polygon fill="#2f2f2f" fill-opacity="0.501961" points="62,9 96,35 120,6" />
<polygon fill="#1d1d1d" fill-opacity="0.501961" points="67,125 78,137 62,133" />
<polygon fill="#111111" fill-opacity="0.501961" points="208,239 217,238 208,244" />
<polygon fill="#8e8e8e" fill-opacity="0.501961" points="215,176 151,148 109,160" />
<polygon fill="#3b3b3b" fill-opacity="0.501961" points="206,34 185,10 173,71" />
<polygon fill="#a1a1a1" fill-opacity="0.501961" points="-10,136 33,151 -16,170" />
<polygon fill="#333333" fill-opacity="0.501961" points="202,160 194,181 195,159" />
<polygon fill="#c9c9c9" fill-opacity="0.501961" points="237,271 257,264 206,243" />
<polygon fill="#3a3a3a" fill-opacity="0.501961" points="35,154 23,142 47,155" />
<polygon fill="#aaaaaa" fill-opacity="0.501961" points="245,166 259,166 231,206" />
<polygon fill="#9a9a9a" fill-opacity="0.501961" points="106,148 96,170 76,126" />
<polygon fill="#a5a5a5" fill-opacity="0.501961" points="44,227 70,250 82,244" />
<polygon fill="#363636" fill-opacity="0.501961" points="221,204 235,186 224,216" />
<polygon fill="#464646" fill-opacity="0.501961" points="271,96 201,125 240,95" />
<polygon fill="#595959" fill-opacity="0.501961" points="224,3 231,10 215,13" />
<polygon fill="#c3c3c3" fill-opacity="0.501961" points="224,205 203,197 212,207" />
<polygon fill="#696969" fill-opacity="0.501961" points="86,149 77,175 158,171" />
<polygon fill="#2a2a2a" fill-opacity="0.501961" points="65,175 79,196 65,218" />
<polygon fill="#282828" fill-opacity="0.501961" points="65,31 57,22 35,53" />
<polygon fill="#a0a0a0" fill-opacity="0.501961" points="52,51 30,95 31,59" />
<polygon fill="#828282" fill-opacity="0.501961" points="85,-16 88,9 144,-3" />
<polygon fill="#262626" fill-opacity="0.501961" points="108,264 116,271 136,236" />
<polygon fill="#bcbcbc" fill-opacity="0.501961" points="13,177 6,195 8,174" />
<polygon fill="#3c3c3c" fill-opacity="0.501961" points="247,160 240,169 258,163" />
<polygon fill="#363636" fill-opacity="0.501961" points="252,220 185,217 271,251" />
<polygon fill="#7b7b7b" fill-opacity="0.501961" points="237,98 222,123 241,163" />
<polygon fill="#989898" fill-opacity="0.501961" points="257,42 233,27 266,67" />
<polygon fill="#4e4e4e" fill-opacity="0.501961" points="161,226 192,240 197,256" />
<polygon fill="#eaeaea" fill-opacity="0.501961" points="115,188 110,177 110,188" />
</g>
</svg>