<svg xmlns="http://www.w3.org/2000/svg" version="1.1" width="1024" height="1024">
<rect x="0" y="0" width="1024" height="1024" fill="#70595c" />
<g transform="scale(4.000000) translate(0.5 0.5)">
<polygon fill="#83c7c6" fill-opacity="0.501961" points="271,254 -16,255 40,169" />
<polygon fill="#00000b" fill-opacity="0.501961" points="128,221 207,55 101,73" />
<polygon fill="#a53f3c" fill-opacity="0.501961" points="5,187 166,25 -14,-16" />
<polygon fill="#3f96a3" fill-opacity="0.501961" points="48,182 257,181 271,252" />
<polygon fill="#a8ffff" fill-opacity="0.501961" points="170,62 150,17 172,-16" />
<polygon fill="#ffffff" fill-opacity="0.501961" points="70,271 -16,246 149,248" />
<polygon fill="#962f2d" fill-opacity="0.501961" points="271,9 208,186 171,-6" />
<polygon fill="#00080e" fill-opacity="0.501961" points="211,150 176,170 147,26" />
<polygon fill="#224b51" fill-opacity="0.501961" points="-16,193 101,196 96,227" />
<polygon fill="#fbfde4" fill-opacity="0.501961" points="259,252 118,247 184,271" />
<polygon fill="#225b62" fill-opacity="0.501961" points="172,225 123,226 183,99" />
<polygon fill="#833633" fill-opacity="0.501961" points="91,166 -6,113 121,71" />
<polygon fill="#cacabc" fill-opacity="0.501961" points="133,33 139,66 164,42" />
<polygon fill="#91cdd0" fill-opacity="0.501961" points="101,238 125,232 104,145" />
<polygon fill="#aad5e1" fill-opacity="0.501961" points="53,138 39,191 38,135" />
<polygon fill="#751815" fill-opacity="0.501961" points="271,191 249,53 236,173" />
<polygon fill="#88a1a6" fill-opacity="0.501961" points="199,249 235,239 238,126" />
<polygon fill="#000d17" fill-opacity="0.501961" points="196,94 126,205 168,56" />
<polygon fill="#5b1c19" fill-opacity="0.501961" points="-16,180 40,180 -15,55" />
<polygon fill="#1c2729" fill-opacity="0.501961" points="138,233 99,242 165,245" />
<polygon fill="#904a3e" fill-opacity="0.501961" points="134,93 135,181 108,159" />
<polygon fill="#000004" fill-opacity="0.501961" points="128,110 136,55 92,144" />
<polygon fill="#c678bc" fill-opacity="0.501961" points="137,96 157,92 142,73" />
<polygon fill="#31bfb2" fill-opacity="0.501961" points="108,144 166,147 134,154" />
<polygon fill="#70302b" fill-opacity="0.501961" points="180,162 223,182 225,39" />
<polygon fill="#46b7da" fill-opacity="0.501961" points="40,181 17,195 -16,180" />
<polygon fill="#9be0ff" fill-opacity="0.501961" points="173,18 154,-16 159,51" />
<polygon fill="#58c3bd" fill-opacity="0.501961" points="174,179 171,157 129,200" />
<polygon fill="#00081c" fill-opacity="0.501961" points="168,179 157,218 170,233" />
<polygon fill="#b5c7b6" fill-opacity="0.501961" points="206,172 182,166 219,196" />
<polygon fill="#000a13" fill-opacity="0.501961" points="147,42 144,83 183,78" />
<polygon fill="#a74547" fill-opacity="0.501961" points="154,-5 38,-7 155,27" />
<polygon fill="#7f3e3e" fill-opacity="0.501961" points="180,49 271,65 203,177" />
<polygon fill="#704241" fill-opacity="0.501961" points="42,185 80,175 45,80" />
<polygon fill="#c9c7c1" fill-opacity="0.501961" points="156,194 159,233 148,206" />
<polygon fill="#020103" fill-opacity="0.501961" points="237,195 239,206 271,197" />
<polygon fill="#a5beb8" fill-opacity="0.501961" points="185,200 212,223 176,223" />
<polygon fill="#829a9d" fill-opacity="0.501961" points="-16,253 63,206 -16,205" />
<polygon fill="#21b1a2" fill-opacity="0.501961" points="117,145 82,181 103,142" />
<polygon fill="#172426" fill-opacity="0.501961" points="-16,198 31,194 35,208" />
<polygon fill="#5d1919" fill-opacity="0.501961" points="110,147 114,182 146,150" />
<polygon fill="#264247" fill-opacity="0.501961" points="151,218 109,194 154,197" />
<polygon fill="#a1bfb1" fill-opacity="0.501961" points="68,161 88,164 47,172" />
<polygon fill="#002336" fill-opacity="0.501961" points="156,172 123,206 136,151" />
<polygon fill="#4f6062" fill-opacity="0.501961" points="235,251 212,250 230,193" />
<polygon fill="#abe2f5" fill-opacity="0.501961" points="231,146 225,167 225,136" />
<polygon fill="#97b8c4" fill-opacity="0.501961" points="53,208 38,211 38,158" />
<polygon fill="#8e4a4d" fill-opacity="0.501961" points="271,-16 193,113 170,11" />
<polygon fill="#ffffff" fill-opacity="0.501961" points="134,46 151,36 135,40" />
<polygon fill="#88413f" fill-opacity="0.501961" points="2,70 121,71 84,164" />
<polygon fill="#697c81" fill-opacity="0.501961" points="-16,218 129,231 47,200" />
<polygon fill="#5f2b29" fill-opacity="0.501961" points="51,135 51,169 124,133" />
<polygon fill="#edf7e0" fill-opacity="0.501961" points="-16,250 62,271 114,250" />
<polygon fill="#e4eedf" fill-opacity="0.501961" points="172,255 175,247 157,230" />
<polygon fill="#333c35" fill-opacity="0.501961" points="98,234 115,244 79,243" />
<polygon fill="#41575f" fill-opacity="0.501961" points="168,239 212,237 188,250" />
<polygon fill="#567a78" fill-opacity="0.501961" points="150,177 165,132 183,132" />
<polygon fill="#83c2e6" fill-opacity="0.501961" points="155,47 169,59 170,4" />
<polygon fill="#9ae4fb" fill-opacity="0.501961" points="45,147 49,160 49,134" />
<polygon fill="#eef7db" fill-opacity="0.501961" points="181,166 177,172 194,171" />
<polygon fill="#b3e3f6" fill-opacity="0.501961" points="234,147 238,163 232,178" />
<polygon fill="#e2ffff" fill-opacity="0.501961" points="238,143 233,133 234,153" />
<polygon fill="#ffffff" fill-opacity="0.501961" points="110,209 112,192 117,216" />
<polygon fill="#1d1f19" fill-opacity="0.501961" points="211,195 187,196 194,204" />
<polygon fill="#9da39a" fill-opacity="0.501961" points="189,227 271,228 227,240" />
<polygon fill="#000000" fill-opacity="0.501961" points="176,132 152,135 168,64" />
<polygon fill="#155f5c" fill-opacity="0.501961" points="104,211 45,195 100,194" />
<polygon fill="#361e1c" fill-opacity="0.501961" points="178,181 197,174 205,182" />
<polygon fill="#239b9c" fill-opacity="0.501961" points="182,209 156,158 186,186" />
<polygon fill="#fac4ac" fill-opacity="0.501961" points="156,49 143,60 134,49" />
<polygon fill="#39ced1" fill-opacity="0.501961" points="80,201 78,209 108,209" />
<polygon fill="#4d2e2a" fill-opacity="0.501961" points="50,181 99,181 69,166" />
<polygon fill="#62322f" fill-opacity="0.501961" points="222,166 226,109 177,168" />
<polygon fill="#7f3b3a" fill-opacity="0.501961" points="244,144 271,72 171,55" />
<polygon fill="#96a3a1" fill-opacity="0.501961" points="-16,250 -16,211 85,239" />
<polygon fill="#506670" fill-opacity="0.501961" points="133,69 143,113 145,61" />
<polygon fill="#d9eed2" fill-opacity="0.501961" points="124,205 128,214 123,224" />
<polygon fill="#ffffec" fill-opacity="0.501961" points="192,252 207,248 215,237" />
<polygon fill="#000e1d" fill-opacity="0.501961" points="129,206 125,227 144,190" />
<polygon fill="#3bdce6" fill-opacity="0.501961" points="115,184 105,145 104,170" />
<polygon fill="#b80698" fill-opacity="0.501961" points="159,82 151,84 160,94" />
<polygon fill="#000003" fill-opacity="0.501961" points="118,86 113,130 141,78" />
<polygon fill="#0a2032" fill-opacity="0.501961" points="169,180 161,211 175,208" />
<polygon fill="#570000" fill-opacity="0.501961" points="233,150 229,141 230,163" />
<polygon fill="#38141a" fill-opacity="0.501961" points="157,41 136,47 147,51" />
<polygon fill="#d7d4bb" fill-opacity="0.501961" points="218,196 216,234 224,213" />
<polygon fill="#a0bcd0" fill-opacity="0.501961" points="162,210 136,209 155,204" />
<polygon fill="#316880" fill-opacity="0.501961" points="233,173 219,182 224,228" />
<polygon fill="#264c57" fill-opacity="0.501961" points="134,200 149,208 171,163" />
<polygon fill="#06353c" fill-opacity="0.501961" points="126,132 89,135 99,145" />
<polygon fill="#bccabd" fill-opacity="0.501961" points="112,271 177,249 35,243" />
<polygon fill="#4c2221" fill-opacity="0.501961" points="237,157 237,183 271,179" />
<polygon fill="#a3aba0" fill-opacity="0.501961" points="176,172 154,198 161,178" />
<polygon fill="#02101c" fill-opacity="0.501961" points="186,82 157,54 191,142" />
<polygon fill="#ff97df" fill-opacity="0.501961" points="148,85 141,94 150,93" />
<polygon fill="#672f2c" fill-opacity="0.501961" points="-16,175 37,124 36,181" />
<polygon fill="#4d616c" fill-opacity="0.501961" points="175,101 177,128 183,106" />
<polygon fill="#9ccccb" fill-opacity="0.501961" points="174,213 209,209 178,204" />
<polygon fill="#c3ffff" fill-opacity="0.501961" points="41,132 41,150 37,140" />
<polygon fill="#543e44" fill-opacity="0.501961" points="154,0 146,34 156,43" />
</g>
</svg>