<svg xmlns="http://www.w3.org/2000/svg" version="1.1" width="1024" height="1024">
<rect x="0" y="0" width="1024" height="1024" fill="#361707" />
<g transform="scale(4.000000) translate(0.5 0.5)">
<polygon fill="#ff8608" fill-opacity="0.501961" points="247,103 61,109 149,221" />
<polygon fill="#ff8308" fill-opacity="0.501961" points="198,192 193,92 64,153" />
<polygon fill="#000001" fill-opacity="0.501961" points="262,138 257,-16 -16,2" />
<polygon fill="#00030d" fill-opacity="0.501961" points="-16,247 132,239 13,-16" />
<polygon fill="#000000" fill-opacity="0.501961" points="267,265 260,169 -6,228" />
<polygon fill="#ff4c06" fill-opacity="0.501961" points="135,198 153,94 66,134" />
<polygon fill="#ff4d05" fill-opacity="0.501961" points="222,108 201,177 117,100" />
<polygon fill="#ffcc0c" fill-opacity="0.501961" points="104,146 167,180 194,123" />
<polygon fill="#fb0e01" fill-opacity="0.501961" points="137,187 178,195 226,136" />
<polygon fill="#090f0f" fill-opacity="0.501961" points="1,271 160,-9 -16,-3" />
<polygon fill="#7a7960" fill-opacity="0.501961" points="80,65 110,38 78,29" />
<polygon fill="#000000" fill-opacity="0.501961" points="271,267 253,-16 198,252" />
<polygon fill="#3c2c20" fill-opacity="0.501961" points="-4,189 96,130 -16,99" />
<polygon fill="#dd1906" fill-opacity="0.501961" points="71,127 103,103 107,181" />
<polygon fill="#040000" fill-opacity="0.501961" points="5,91 182,97 -16,22" />
<polygon fill="#000000" fill-opacity="0.501961" points="271,-2 -6,0 232,80" />
<polygon fill="#bd0906" fill-opacity="0.501961" points="232,127 204,165 208,103" />
<polygon fill="#992502" fill-opacity="0.501961" points="155,74 197,68 219,82" />
<polygon fill="#3b1c17" fill-opacity="0.501961" points="66,83 112,114 153,71" />
<polygon fill="#646a46" fill-opacity="0.501961" points="98,257 51,241 109,243" />
<polygon fill="#100301" fill-opacity="0.501961" points="198,271 270,110 187,184" />
<polygon fill="#ffb10a" fill-opacity="0.501961" points="136,176 198,165 119,130" />
<polygon fill="#516765" fill-opacity="0.501961" points="-9,119 30,103 30,89" />
<polygon fill="#040300" fill-opacity="0.501961" points="-16,176 118,179 142,266" />
<polygon fill="#d41e07" fill-opacity="0.501961" points="168,235 170,256 177,218" />
<polygon fill="#cf0303" fill-opacity="0.501961" points="202,173 128,197 115,177" />
<polygon fill="#899e96" fill-opacity="0.501961" points="94,105 94,91 108,105" />
<polygon fill="#ff240b" fill-opacity="0.501961" points="140,253 134,225 142,239" />
<polygon fill="#0c0602" fill-opacity="0.501961" points="255,27 216,79 72,48" />
<polygon fill="#bd9f79" fill-opacity="0.501961" points="79,50 77,60 100,58" />
<polygon fill="#ff5106" fill-opacity="0.501961" points="94,127 148,96 104,180" />
<polygon fill="#8f9c86" fill-opacity="0.501961" points="103,46 81,37 98,33" />
<polygon fill="#0f0006" fill-opacity="0.501961" points="175,197 169,243 137,197" />
<polygon fill="#3e1c13" fill-opacity="0.501961" points="59,87 88,155 41,123" />
<polygon fill="#000000" fill-opacity="0.501961" points="22,12 -11,54 100,50" />
<polygon fill="#100603" fill-opacity="0.501961" points="111,114 152,75 94,82" />
<polygon fill="#180000" fill-opacity="0.501961" points="161,75 259,88 239,120" />
<polygon fill="#832e14" fill-opacity="0.501961" points="101,86 127,72 74,84" />
<polygon fill="#6d6446" fill-opacity="0.501961" points="49,164 27,162 50,153" />
<polygon fill="#fe3705" fill-opacity="0.501961" points="177,99 215,139 201,163" />
<polygon fill="#5a0007" fill-opacity="0.501961" points="200,106 224,122 222,133" />
<polygon fill="#ff8d1a" fill-opacity="0.501961" points="144,96 157,101 137,102" />
<polygon fill="#9a1206" fill-opacity="0.501961" points="234,84 217,81 246,97" />
<polygon fill="#000001" fill-opacity="0.501961" points="27,254 -16,215 108,178" />
<polygon fill="#030505" fill-opacity="0.501961" points="12,94 16,135 51,113" />
<polygon fill="#000000" fill-opacity="0.501961" points="58,54 -7,98 133,70" />
<polygon fill="#ff4601" fill-opacity="0.501961" points="145,72 136,75 152,75" />
<polygon fill="#f02305" fill-opacity="0.501961" points="156,193 98,169 96,144" />
<polygon fill="#ffad03" fill-opacity="0.501961" points="121,109 124,102 136,107" />
<polygon fill="#74040d" fill-opacity="0.501961" points="149,110 159,101 133,104" />
<polygon fill="#3c0001" fill-opacity="0.501961" points="71,137 80,122 92,132" />
<polygon fill="#9e8c57" fill-opacity="0.501961" points="57,129 59,135 71,136" />
<polygon fill="#6d0f11" fill-opacity="0.501961" points="138,204 129,192 181,189" />
<polygon fill="#f03d09" fill-opacity="0.501961" points="202,103 229,123 221,110" />
<polygon fill="#f76008" fill-opacity="0.501961" points="175,146 191,102 165,101" />
<polygon fill="#260301" fill-opacity="0.501961" points="174,108 208,88 179,95" />
<polygon fill="#fd9006" fill-opacity="0.501961" points="192,155 167,174 175,106" />
<polygon fill="#170f0d" fill-opacity="0.501961" points="93,109 26,145 97,78" />
<polygon fill="#1d281f" fill-opacity="0.501961" points="43,241 113,258 -16,262" />
<polygon fill="#fcb50e" fill-opacity="0.501961" points="172,172 123,166 147,126" />
<polygon fill="#4a313a" fill-opacity="0.501961" points="151,203 141,210 154,246" />
<polygon fill="#516c73" fill-opacity="0.501961" points="10,105 9,127 2,108" />
<polygon fill="#120803" fill-opacity="0.501961" points="231,-16 131,66 230,80" />
<polygon fill="#292c29" fill-opacity="0.501961" points="43,21 61,9 86,20" />
<polygon fill="#050100" fill-opacity="0.501961" points="201,80 265,176 237,92" />
<polygon fill="#f33903" fill-opacity="0.501961" points="163,177 197,175 210,145" />
<polygon fill="#170903" fill-opacity="0.501961" points="235,121 243,271 187,196" />
<polygon fill="#474a3c" fill-opacity="0.501961" points="123,54 115,61 121,73" />
<polygon fill="#c93600" fill-opacity="0.501961" points="115,77 122,73 134,75" />
<polygon fill="#1b0d08" fill-opacity="0.501961" points="138,103 126,76 68,87" />
<polygon fill="#fb4e06" fill-opacity="0.501961" points="160,104 183,119 106,150" />
<polygon fill="#ff540a" fill-opacity="0.501961" points="182,77 189,75 196,77" />
<polygon fill="#040000" fill-opacity="0.501961" points="65,136 82,147 35,150" />
<polygon fill="#080503" fill-opacity="0.501961" points="69,154 -3,255 135,202" />
<polygon fill="#7e7147" fill-opacity="0.501961" points="108,250 73,249 95,243" />
<polygon fill="#000506" fill-opacity="0.501961" points="143,271 136,235 62,271" />
<polygon fill="#9b8363" fill-opacity="0.501961" points="94,53 98,62 77,55" />
<polygon fill="#f97405" fill-opacity="0.501961" points="133,129 148,164 100,111" />
<polygon fill="#403f32" fill-opacity="0.501961" points="93,163 81,148 47,148" />
<polygon fill="#2a3a49" fill-opacity="0.501961" points="-8,-1 7,27 15,20" />
<polygon fill="#788577" fill-opacity="0.501961" points="37,94 23,96 28,100" />
<polygon fill="#fceb3d" fill-opacity="0.501961" points="158,155 154,128 151,154" />
<polygon fill="#010101" fill-opacity="0.501961" points="166,-16 117,74 152,72" />
<polygon fill="#020202" fill-opacity="0.501961" points="-4,26 -13,80 99,22" />
<polygon fill="#c51c05" fill-opacity="0.501961" points="212,76 193,76 225,85" />
<polygon fill="#2d0000" fill-opacity="0.501961" points="215,117 224,119 220,112" />
<polygon fill="#939388" fill-opacity="0.501961" points="93,96 99,95 99,107" />
<polygon fill="#1d0304" fill-opacity="0.501961" points="121,110 106,112 106,76" />
<polygon fill="#ea3508" fill-opacity="0.501961" points="202,129 174,99 215,122" />
<polygon fill="#130902" fill-opacity="0.501961" points="170,66 241,87 210,-16" />
<polygon fill="#fadf1e" fill-opacity="0.501961" points="186,137 178,124 189,125" />
<polygon fill="#1c100a" fill-opacity="0.501961" points="154,198 98,244 77,207" />
<polygon fill="#250c03" fill-opacity="0.501961" points="214,83 208,105 136,90" />
<polygon fill="#de1f06" fill-opacity="0.501961" points="145,113 127,128 171,114" />
<polygon fill="#fd7003" fill-opacity="0.501961" points="173,121 148,117 163,157" />
<polygon fill="#ff6f03" fill-opacity="0.501961" points="176,73 170,76 184,75" />
<polygon fill="#000000" fill-opacity="0.501961" points="13,165 -16,179 -16,116" />
<polygon fill="#f9a807" fill-opacity="0.501961" points="130,170 122,129 157,176" />
<polygon fill="#717864" fill-opacity="0.501961" points="77,41 104,40 87,30" />
<polygon fill="#fd4510" fill-opacity="0.501961" points="88,115 98,107 114,118" />
</g>
</svg>