<svg xmlns="http://www.w3.org/2000/svg" version="1.1" width="1024" height="1024">
<rect x="0" y="0" width="1024" height="1024" fill="#577ea7" />
<g transform="scale(4.000000) translate(0.5 0.5)">
<polygon fill="#001a3c" fill-opacity="0.501961" points="7,271 271,185 -16,108" />
<polygon fill="#b6deff" fill-opacity="0.501961" points="271,-1 -16,0 154,157" />
<polygon fill="#0f385f" fill-opacity="0.501961" points="271,271 -16,253 253,113" />
<polygon fill="#98bfef" fill-opacity="0.501961" points="253,126 264,-16 -16,117" />
<polygon fill="#9ec8f9" fill-opacity="0.501961" points="133,139 -16,112 -1,15" />
<polygon fill="#002a59" fill-opacity="0.501961" points="67,161 245,172 271,119" />
<polygon fill="#a1c4ea" fill-opacity="0.501961" points="271,115 260,17 165,141" />
<polygon fill="#0c2436" fill-opacity="0.501961" points="271,262 136,230 14,271" />
<polygon fill="#35608d" fill-opacity="0.501961" points="257,172 205,250 -16,209" />
<polygon fill="#000b13" fill-opacity="0.501961" points="36,125 25,169 61,161" />
<polygon fill="#17334e" fill-opacity="0.501961" points="74,130 135,195 161,148" />
<polygon fill="#7ea6d3" fill-opacity="0.501961" points="-16,113 270,-16 190,135" />
<polygon fill="#0e0200" fill-opacity="0.501961" points="224,271 267,247 143,253" />
<polygon fill="#5884af" fill-opacity="0.501961" points="176,250 230,245 262,200" />
<polygon fill="#413a2c" fill-opacity="0.501961" points="260,208 271,247 220,256" />
<polygon fill="#30597d" fill-opacity="0.501961" points="-16,249 109,258 106,126" />
<polygon fill="#194575" fill-opacity="0.501961" points="129,148 219,237 266,119" />
<polygon fill="#8ab3e6" fill-opacity="0.501961" points="-5,-12 0,106 259,-9" />
<polygon fill="#090c12" fill-opacity="0.501961" points="152,172 109,173 131,148" />
<polygon fill="#1a3c5c" fill-opacity="0.501961" points="66,236 207,224 114,268" />
<polygon fill="#012746" fill-opacity="0.501961" points="27,178 54,164 -6,141" />
<polygon fill="#2d6090" fill-opacity="0.501961" points="137,136 115,165 97,147" />
<polygon fill="#4f82b3" fill-opacity="0.501961" points="219,196 254,167 239,193" />
<polygon fill="#325b85" fill-opacity="0.501961" points="125,178 237,224 14,228" />
<polygon fill="#3a6992" fill-opacity="0.501961" points="18,149 44,118 29,120" />
<polygon fill="#000000" fill-opacity="0.501961" points="-16,253 44,255 36,271" />
<polygon fill="#040200" fill-opacity="0.501961" points="240,193 271,185 256,178" />
<polygon fill="#102e51" fill-opacity="0.501961" points="185,199 209,196 150,147" />
<polygon fill="#97b8dd" fill-opacity="0.501961" points="230,126 178,105 137,144" />
<polygon fill="#2b5787" fill-opacity="0.501961" points="257,196 142,216 223,236" />
<polygon fill="#3b6184" fill-opacity="0.501961" points="45,155 16,149 23,131" />
<polygon fill="#070d16" fill-opacity="0.501961" points="135,175 130,140 149,174" />
<polygon fill="#87afd9" fill-opacity="0.501961" points="61,127 104,135 93,41" />
<polygon fill="#2c3e5c" fill-opacity="0.501961" points="105,131 106,110 109,120" />
<polygon fill="#87add8" fill-opacity="0.501961" points="126,137 268,119 -16,9" />
<polygon fill="#193753" fill-opacity="0.501961" points="-16,226 58,230 -16,246" />
<polygon fill="#000000" fill-opacity="0.501961" points="168,271 208,251 101,257" />
<polygon fill="#174677" fill-opacity="0.501961" points="220,197 269,119 145,146" />
<polygon fill="#5b83ac" fill-opacity="0.501961" points="222,246 183,232 188,249" />
<polygon fill="#0f0d0d" fill-opacity="0.501961" points="268,198 248,223 271,248" />
<polygon fill="#7e97a4" fill-opacity="0.501961" points="243,244 248,247 248,232" />
<polygon fill="#2e5a84" fill-opacity="0.501961" points="-16,225 116,231 28,163" />
<polygon fill="#284b6d" fill-opacity="0.501961" points="133,137 167,207 192,197" />
<polygon fill="#1e4467" fill-opacity="0.501961" points="44,126 27,125 37,115" />
<polygon fill="#608abb" fill-opacity="0.501961" points="254,196 271,196 232,234" />
<polygon fill="#173859" fill-opacity="0.501961" points="138,184 77,164 136,158" />
<polygon fill="#264e75" fill-opacity="0.501961" points="136,142 55,127 63,183" />
<polygon fill="#0d0f14" fill-opacity="0.501961" points="28,139 40,130 55,151" />
<polygon fill="#000a1b" fill-opacity="0.501961" points="11,156 5,147 32,157" />
<polygon fill="#184064" fill-opacity="0.501961" points="57,162 51,189 -16,163" />
<polygon fill="#11212c" fill-opacity="0.501961" points="223,232 210,234 205,230" />
<polygon fill="#3d6a94" fill-opacity="0.501961" points="112,149 133,141 114,166" />
<polygon fill="#1b3957" fill-opacity="0.501961" points="121,233 172,227 186,247" />
<polygon fill="#8ab0da" fill-opacity="0.501961" points="103,111 136,136 115,139" />
<polygon fill="#7fa9d7" fill-opacity="0.501961" points="68,115 -16,-16 19,121" />
<polygon fill="#36434c" fill-opacity="0.501961" points="218,249 214,271 271,240" />
<polygon fill="#194777" fill-opacity="0.501961" points="156,145 269,150 212,202" />
<polygon fill="#5078a3" fill-opacity="0.501961" points="240,233 207,249 194,234" />
<polygon fill="#2e5876" fill-opacity="0.501961" points="66,260 115,243 16,237" />
<polygon fill="#17416a" fill-opacity="0.501961" points="32,123 -16,186 -9,114" />
<polygon fill="#1a4167" fill-opacity="0.501961" points="217,201 265,186 253,200" />
<polygon fill="#1b4163" fill-opacity="0.501961" points="124,140 132,135 135,142" />
<polygon fill="#1f496f" fill-opacity="0.501961" points="196,244 145,254 108,237" />
<polygon fill="#356697" fill-opacity="0.501961" points="252,184 226,196 265,150" />
<polygon fill="#273e54" fill-opacity="0.501961" points="44,146 39,133 16,151" />
<polygon fill="#000000" fill-opacity="0.501961" points="57,156 48,161 54,151" />
<polygon fill="#254a72" fill-opacity="0.501961" points="109,160 106,118 99,153" />
<polygon fill="#83acd8" fill-opacity="0.501961" points="105,132 -16,98 104,75" />
<polygon fill="#8bafd9" fill-opacity="0.501961" points="109,138 256,16 264,119" />
<polygon fill="#07131f" fill-opacity="0.501961" points="134,148 132,174 154,177" />
<polygon fill="#5b8aba" fill-opacity="0.501961" points="232,225 226,246 248,219" />
<polygon fill="#2f5c8a" fill-opacity="0.501961" points="251,198 157,211 205,234" />
<polygon fill="#345c7e" fill-opacity="0.501961" points="148,153 152,172 130,139" />
<polygon fill="#021c35" fill-opacity="0.501961" points="129,172 109,169 97,158" />
<polygon fill="#87afd9" fill-opacity="0.501961" points="53,124 104,135 102,102" />
<polygon fill="#000d15" fill-opacity="0.501961" points="1,271 65,255 10,253" />
<polygon fill="#0f2c4f" fill-opacity="0.501961" points="141,233 157,224 182,227" />
<polygon fill="#254c71" fill-opacity="0.501961" points="74,156 175,197 118,200" />
<polygon fill="#717472" fill-opacity="0.501961" points="240,240 243,247 256,248" />
<polygon fill="#163b62" fill-opacity="0.501961" points="191,138 140,148 152,165" />
<polygon fill="#355d87" fill-opacity="0.501961" points="-2,186 95,233 78,192" />
<polygon fill="#2c5d8c" fill-opacity="0.501961" points="187,225 145,228 171,209" />
<polygon fill="#18426a" fill-opacity="0.501961" points="125,145 112,161 104,135" />
<polygon fill="#000007" fill-opacity="0.501961" points="244,237 243,230 242,234" />
<polygon fill="#1f3143" fill-opacity="0.501961" points="131,151 145,171 129,170" />
<polygon fill="#527ea9" fill-opacity="0.501961" points="24,142 25,134 36,125" />
<polygon fill="#234c77" fill-opacity="0.501961" points="225,233 232,210 248,205" />
<polygon fill="#0c2a47" fill-opacity="0.501961" points="123,236 118,265 85,271" />
<polygon fill="#84add8" fill-opacity="0.501961" points="47,96 42,123 55,126" />
<polygon fill="#85acd9" fill-opacity="0.501961" points="76,72 140,144 271,28" />
<polygon fill="#1d4b7b" fill-opacity="0.501961" points="153,147 194,184 210,143" />
<polygon fill="#2b5376" fill-opacity="0.501961" points="164,230 186,240 157,240" />
<polygon fill="#28516f" fill-opacity="0.501961" points="19,253 4,222 -6,253" />
<polygon fill="#0a2643" fill-opacity="0.501961" points="4,149 12,142 35,172" />
<polygon fill="#172a45" fill-opacity="0.501961" points="101,232 98,240 82,232" />
<polygon fill="#132944" fill-opacity="0.501961" points="54,232 71,231 56,227" />
<polygon fill="#577fa5" fill-opacity="0.501961" points="184,234 213,234 184,247" />
<polygon fill="#335980" fill-opacity="0.501961" points="51,228 118,233 155,181" />
<polygon fill="#1c4671" fill-opacity="0.501961" points="15,144 10,128 38,119" />
<polygon fill="#436f95" fill-opacity="0.501961" points="68,156 59,156 50,143" />
</g>
</svg>