<svg xmlns="http://www.w3.org/2000/svg" version="1.1" width="1024" height="1024">
<rect x="0" y="0" width="1024" height="1024" fill="#8f4f40" />
<g transform="scale(4.000000) translate(0.5 0.5)">
<polygon fill="#94d2e1" fill-opacity="0.501961" points="271,240 23,150 -16,271" />
<polygon fill="#750000" fill-opacity="0.501961" points="271,175 -16,158 6,-16" />
<polygon fill="#ffda5e" fill-opacity="0.501961" points="140,132 227,57 139,22" />
<polygon fill="#570000" fill-opacity="0.501961" points="271,-16 14,-1 265,52" />
<polygon fill="#8fb5c1" fill-opacity="0.501961" points="257,258 262,154 154,267" />
<polygon fill="#9ea8ad" fill-opacity="0.501961" points="-16,170 132,160 214,271" />
<polygon fill="#ba3500" fill-opacity="0.501961" points="95,113 271,93 193,231" />
<polygon fill="#6d0000" fill-opacity="0.501961" points="-16,156 134,-16 88,161" />
<polygon fill="#fff110" fill-opacity="0.501961" points="225,196 156,194 188,219" />
<polygon fill="#ffe15d" fill-opacity="0.501961" points="191,78 167,18 111,53" />
<polygon fill="#6b0000" fill-opacity="0.501961" points="138,177 212,115 241,186" />
<polygon fill="#fdaf63" fill-opacity="0.501961" points="246,123 243,93 153,92" />
<polygon fill="#600000" fill-opacity="0.501961" points="255,152 226,-12 269,-3" />
<polygon fill="#720000" fill-opacity="0.501961" points="-16,75 22,170 168,68" />
<polygon fill="#7c7397" fill-opacity="0.501961" points="200,96 217,7 174,94" />
<polygon fill="#69090d" fill-opacity="0.501961" points="7,-16 207,22 -16,41" />
<polygon fill="#ffffff" fill-opacity="0.501961" points="176,72 175,46 152,94" />
<polygon fill="#889195" fill-opacity="0.501961" points="4,263 267,257 -6,158" />
<polygon fill="#cc6a00" fill-opacity="0.501961" points="131,146 139,89 250,117" />
<polygon fill="#cd8300" fill-opacity="0.501961" points="162,79 167,51 120,29" />
<polygon fill="#843133" fill-opacity="0.501961" points="-16,56 110,82 128,3" />
<polygon fill="#75504b" fill-opacity="0.501961" points="190,34 201,87 177,143" />
<polygon fill="#771518" fill-opacity="0.501961" points="125,163 146,59 62,89" />
<polygon fill="#ba797b" fill-opacity="0.501961" points="236,47 244,95 192,44" />
<polygon fill="#a4b7be" fill-opacity="0.501961" points="158,198 131,167 72,166" />
<polygon fill="#ffff70" fill-opacity="0.501961" points="147,25 122,63 122,42" />
<polygon fill="#740000" fill-opacity="0.501961" points="229,191 243,139 138,150" />
<polygon fill="#959598" fill-opacity="0.501961" points="248,271 193,220 271,154" />
<polygon fill="#f7f09d" fill-opacity="0.501961" points="139,35 189,61 175,30" />
<polygon fill="#750002" fill-opacity="0.501961" points="217,-6 101,-1 202,43" />
<polygon fill="#ffe613" fill-opacity="0.501961" points="140,95 136,115 184,75" />
<polygon fill="#ff9e12" fill-opacity="0.501961" points="145,184 133,167 134,137" />
<polygon fill="#8e2219" fill-opacity="0.501961" points="235,91 216,23 207,90" />
<polygon fill="#feae81" fill-opacity="0.501961" points="243,106 239,143 250,141" />
<polygon fill="#b4bfb5" fill-opacity="0.501961" points="192,80 210,66 212,18" />
<polygon fill="#871c22" fill-opacity="0.501961" points="162,76 103,53 146,94" />
<polygon fill="#8d8a8d" fill-opacity="0.501961" points="0,265 -2,164 78,161" />
<polygon fill="#670000" fill-opacity="0.501961" points="228,-16 248,43 208,44" />
<polygon fill="#b34100" fill-opacity="0.501961" points="233,103 190,127 246,145" />
<polygon fill="#ff9c16" fill-opacity="0.501961" points="225,198 190,214 154,191" />
<polygon fill="#f9ccb3" fill-opacity="0.501961" points="194,92 213,100 237,94" />
<polygon fill="#701e16" fill-opacity="0.501961" points="184,230 197,234 186,215" />
<polygon fill="#7b2120" fill-opacity="0.501961" points="170,90 197,65 190,91" />
<polygon fill="#780d0b" fill-opacity="0.501961" points="132,27 100,75 96,32" />
<polygon fill="#700000" fill-opacity="0.501961" points="115,158 1,73 -16,160" />
<polygon fill="#760000" fill-opacity="0.501961" points="271,46 250,144 243,80" />
<polygon fill="#a89d9c" fill-opacity="0.501961" points="271,169 249,157 223,223" />
<polygon fill="#85888a" fill-opacity="0.501961" points="271,248 226,211 125,271" />
<polygon fill="#f1eeed" fill-opacity="0.501961" points="173,44 150,37 172,56" />
<polygon fill="#c47e00" fill-opacity="0.501961" points="131,46 166,69 158,41" />
<polygon fill="#efe7ea" fill-opacity="0.501961" points="185,97 187,91 170,93" />
<polygon fill="#ffffee" fill-opacity="0.501961" points="174,73 154,91 175,52" />
<polygon fill="#945050" fill-opacity="0.501961" points="44,55 -16,70 33,32" />
<polygon fill="#e5d247" fill-opacity="0.501961" points="179,50 141,26 166,28" />
<polygon fill="#67100f" fill-opacity="0.501961" points="-16,3 61,55 73,-16" />
<polygon fill="#ffd539" fill-opacity="0.501961" points="185,43 160,98 187,69" />
<polygon fill="#c89e57" fill-opacity="0.501961" points="181,111 183,136 172,140" />
<polygon fill="#d69484" fill-opacity="0.501961" points="234,55 232,108 245,103" />
<polygon fill="#fecd3a" fill-opacity="0.501961" points="116,57 152,52 143,64" />
<polygon fill="#8b0c00" fill-opacity="0.501961" points="143,179 162,122 211,187" />
<polygon fill="#830f1a" fill-opacity="0.501961" points="161,8 203,44 184,42" />
<polygon fill="#d25400" fill-opacity="0.501961" points="187,199 151,179 200,186" />
<polygon fill="#ff7400" fill-opacity="0.501961" points="210,107 202,96 239,101" />
<polygon fill="#6f0000" fill-opacity="0.501961" points="184,172 250,151 190,124" />
<polygon fill="#a2ddd4" fill-opacity="0.501961" points="216,19 213,10 208,34" />
<polygon fill="#a6360a" fill-opacity="0.501961" points="232,190 228,166 248,169" />
<polygon fill="#f0e3e4" fill-opacity="0.501961" points="134,38 122,64 122,51" />
<polygon fill="#ffd317" fill-opacity="0.501961" points="206,199 168,198 180,217" />
<polygon fill="#791b18" fill-opacity="0.501961" points="127,163 145,61 76,159" />
<polygon fill="#630000" fill-opacity="0.501961" points="154,-16 258,-2 190,16" />
<polygon fill="#a46257" fill-opacity="0.501961" points="211,41 199,75 235,58" />
<polygon fill="#7b8689" fill-opacity="0.501961" points="1,271 -4,170 53,251" />
<polygon fill="#b7cbca" fill-opacity="0.501961" points="192,89 204,49 204,70" />
<polygon fill="#efc800" fill-opacity="0.501961" points="130,33 149,26 118,49" />
<polygon fill="#ed9549" fill-opacity="0.501961" points="185,95 182,110 167,109" />
<polygon fill="#7e302d" fill-opacity="0.501961" points="124,5 67,-4 74,81" />
<polygon fill="#96999d" fill-opacity="0.501961" points="270,159 194,220 243,225" />
<polygon fill="#832019" fill-opacity="0.501961" points="95,160 129,55 86,95" />
<polygon fill="#ffffdd" fill-opacity="0.501961" points="157,85 143,97 151,95" />
<polygon fill="#2c2516" fill-opacity="0.501961" points="179,118 190,106 187,122" />
<polygon fill="#f1f0e5" fill-opacity="0.501961" points="131,40 144,35 161,40" />
<polygon fill="#999a9c" fill-opacity="0.501961" points="133,165 181,271 -16,183" />
<polygon fill="#f38e27" fill-opacity="0.501961" points="182,208 230,190 188,222" />
<polygon fill="#ad4100" fill-opacity="0.501961" points="144,108 175,124 142,152" />
<polygon fill="#8b4746" fill-opacity="0.501961" points="30,164 69,167 55,159" />
<polygon fill="#ffb200" fill-opacity="0.501961" points="161,102 171,78 145,101" />
<polygon fill="#c79d93" fill-opacity="0.501961" points="236,50 228,45 233,73" />
<polygon fill="#e19b00" fill-opacity="0.501961" points="168,66 135,41 160,74" />
<polygon fill="#c17a6a" fill-opacity="0.501961" points="205,91 199,71 211,49" />
<polygon fill="#bd8400" fill-opacity="0.501961" points="155,44 125,60 136,40" />
<polygon fill="#ff7c06" fill-opacity="0.501961" points="142,174 132,160 137,130" />
<polygon fill="#0c2a0c" fill-opacity="0.501961" points="181,137 172,150 177,152" />
<polygon fill="#781914" fill-opacity="0.501961" points="109,-16 121,36 160,19" />
<polygon fill="#ffa704" fill-opacity="0.501961" points="152,139 148,150 146,146" />
<polygon fill="#844f48" fill-opacity="0.501961" points="198,215 185,217 185,247" />
<polygon fill="#9d2900" fill-opacity="0.501961" points="177,153 212,122 193,113" />
<polygon fill="#ffe0c8" fill-opacity="0.501961" points="182,228 177,213 182,219" />
<polygon fill="#f9d969" fill-opacity="0.501961" points="185,44 177,75 174,32" />
<polygon fill="#7f2e2a" fill-opacity="0.501961" points="28,-16 23,35 48,48" />
<polygon fill="#88261b" fill-opacity="0.501961" points="196,89 228,75 236,94" />
</g>
</svg>