<svg xmlns="http://www.w3.org/2000/svg" version="1.1" width="1024" height="1024">
<rect x="0" y="0" width="1024" height="1024" fill="#855152" />
<g transform="scale(4.000000) translate(0.5 0.5)">
<polygon fill="#ff7a85" fill-opacity="0.501961" points="-16,79 96,208 255,57" />
<polygon fill="#000000" fill-opacity="0.501961" points="216,183 -16,219 82,271" />
<polygon fill="#d10008" fill-opacity="0.501961" points="-12,119 -1,214 186,110" />
<polygon fill="#ffeced" fill-opacity="0.501961" points="8,75 159,115 157,74" />
<polygon fill="#003729" fill-opacity="0.501961" points="145,69 -8,-1 -5,75" />
<polygon fill="#000000" fill-opacity="0.501961" points="-16,214 8,271 203,193" />
<polygon fill="#357f83" fill-opacity="0.501961" points="146,265 271,73 270,254" />
<polygon fill="#779b87" fill-opacity="0.501961" points="195,83 -7,-2 242,-16" />
<polygon fill="#ff141f" fill-opacity="0.501961" points="199,181 205,110 98,206" />
<polygon fill="#000000" fill-opacity="0.501961" points="197,98 211,132 271,99" />
<polygon fill="#000000" fill-opacity="0.501961" points="238,-15 148,1 166,24" />
<polygon fill="#67dcd6" fill-opacity="0.501961" points="150,172 62,187 63,161" />
<polygon fill="#ffb6bd" fill-opacity="0.501961" points="129,58 257,83 210,52" />
<polygon fill="#6d0000" fill-opacity="0.501961" points="210,104 206,71 154,75" />
<polygon fill="#11221a" fill-opacity="0.501961" points="-16,253 197,181 191,264" />
<polygon fill="#ff7478" fill-opacity="0.501961" points="216,139 115,123 20,163" />
<polygon fill="#ffd9d6" fill-opacity="0.501961" points="199,106 172,83 83,113" />
<polygon fill="#ff6a85" fill-opacity="0.501961" points="9,124 -16,75 165,98" />
<polygon fill="#000800" fill-opacity="0.501961" points="217,52 225,13 271,5" />
<polygon fill="#c4000e" fill-opacity="0.501961" points="-12,174 150,196 -16,218" />
<polygon fill="#e9fffa" fill-opacity="0.501961" points="203,23 216,-11 270,-3" />
<polygon fill="#fffffb" fill-opacity="0.501961" points="121,23 153,21 111,-16" />
<polygon fill="#beebd7" fill-opacity="0.501961" points="71,-16 109,42 76,42" />
<polygon fill="#620000" fill-opacity="0.501961" points="169,110 49,121 118,133" />
<polygon fill="#000000" fill-opacity="0.501961" points="101,13 110,-7 127,42" />
<polygon fill="#000304" fill-opacity="0.501961" points="176,36 190,56 138,40" />
<polygon fill="#242b20" fill-opacity="0.501961" points="40,40 41,-16 82,27" />
<polygon fill="#faa989" fill-opacity="0.501961" points="37,43 12,36 42,18" />
<polygon fill="#0b1f1b" fill-opacity="0.501961" points="138,40 133,70 25,47" />
<polygon fill="#f2ffff" fill-opacity="0.501961" points="213,90 220,100 246,87" />
<polygon fill="#5f9fc1" fill-opacity="0.501961" points="243,231 270,186 201,181" />
<polygon fill="#dce7dc" fill-opacity="0.501961" points="47,14 -4,4 25,-16" />
<polygon fill="#a1c2b5" fill-opacity="0.501961" points="59,169 130,185 149,158" />
<polygon fill="#d90006" fill-opacity="0.501961" points="134,109 171,179 146,182" />
<polygon fill="#7ec4e7" fill-opacity="0.501961" points="246,62 238,34 257,22" />
<polygon fill="#630000" fill-opacity="0.501961" points="39,172 117,160 76,155" />
<polygon fill="#ff8fa4" fill-opacity="0.501961" points="133,62 146,43 196,73" />
<polygon fill="#fc3442" fill-opacity="0.501961" points="135,157 28,133 -16,164" />
<polygon fill="#530f11" fill-opacity="0.501961" points="201,126 176,133 175,97" />
<polygon fill="#122824" fill-opacity="0.501961" points="200,45 230,40 271,71" />
<polygon fill="#000000" fill-opacity="0.501961" points="202,104 271,97 206,126" />
<polygon fill="#000000" fill-opacity="0.501961" points="197,82 209,69 168,79" />
<polygon fill="#ff8083" fill-opacity="0.501961" points="104,157 144,126 59,135" />
<polygon fill="#800002" fill-opacity="0.501961" points="103,121 1,120 0,148" />
<polygon fill="#71a8a2" fill-opacity="0.501961" points="69,77 16,53 41,49" />
<polygon fill="#ffdfd7" fill-opacity="0.501961" points="137,71 85,80 205,109" />
<polygon fill="#000000" fill-opacity="0.501961" points="152,-16 152,19 183,15" />
<polygon fill="#eec6c2" fill-opacity="0.501961" points="41,93 85,70 -16,79" />
<polygon fill="#fefff4" fill-opacity="0.501961" points="59,5 65,-16 65,19" />
<polygon fill="#ffcbbd" fill-opacity="0.501961" points="195,138 205,126 200,106" />
<polygon fill="#bdcdb0" fill-opacity="0.501961" points="116,48 97,40 137,31" />
<polygon fill="#000100" fill-opacity="0.501961" points="-1,213 144,207 -4,254" />
<polygon fill="#f7eae1" fill-opacity="0.501961" points="191,55 188,70 243,61" />
<polygon fill="#c2f9e2" fill-opacity="0.501961" points="260,19 230,19 248,14" />
<polygon fill="#000000" fill-opacity="0.501961" points="76,30 65,33 68,0" />
<polygon fill="#ffcccd" fill-opacity="0.501961" points="203,163 204,173 183,180" />
<polygon fill="#6f6e62" fill-opacity="0.501961" points="202,129 236,219 271,112" />
<polygon fill="#000900" fill-opacity="0.501961" points="177,-9 206,9 197,22" />
<polygon fill="#bc0a0e" fill-opacity="0.501961" points="197,170 202,140 116,156" />
<polygon fill="#e5c8b5" fill-opacity="0.501961" points="90,39 60,41 91,20" />
<polygon fill="#d3272c" fill-opacity="0.501961" points="137,68 171,90 185,70" />
<polygon fill="#f95b61" fill-opacity="0.501961" points="180,87 242,84 252,61" />
<polygon fill="#530306" fill-opacity="0.501961" points="-10,202 41,197 -13,171" />
<polygon fill="#f2e7e3" fill-opacity="0.501961" points="94,13 81,-15 71,15" />
<polygon fill="#3d8cbb" fill-opacity="0.501961" points="206,262 236,256 259,175" />
<polygon fill="#ff807a" fill-opacity="0.501961" points="156,170 148,123 178,133" />
<polygon fill="#031413" fill-opacity="0.501961" points="197,26 241,24 236,44" />
<polygon fill="#d6e1df" fill-opacity="0.501961" points="226,11 207,18 218,32" />
<polygon fill="#010000" fill-opacity="0.501961" points="20,28 14,7 39,17" />
<polygon fill="#de2732" fill-opacity="0.501961" points="93,205 5,206 43,177" />
<polygon fill="#000000" fill-opacity="0.501961" points="201,197 202,180 148,202" />
<polygon fill="#b70000" fill-opacity="0.501961" points="271,78 239,85 266,118" />
<polygon fill="#fe3d56" fill-opacity="0.501961" points="97,93 -16,101 11,123" />
<polygon fill="#000000" fill-opacity="0.501961" points="11,137 -16,134 4,152" />
<polygon fill="#8a5f39" fill-opacity="0.501961" points="83,18 105,10 112,36" />
<polygon fill="#4e4e46" fill-opacity="0.501961" points="193,198 222,271 87,262" />
<polygon fill="#e4ecd8" fill-opacity="0.501961" points="151,-16 149,4 118,9" />
<polygon fill="#c10000" fill-opacity="0.501961" points="177,84 197,100 218,85" />
<polygon fill="#36c5ff" fill-opacity="0.501961" points="64,187 59,170 75,166" />
<polygon fill="#e1161f" fill-opacity="0.501961" points="115,125 11,124 12,152" />
<polygon fill="#000000" fill-opacity="0.501961" points="231,25 261,26 252,17" />
<polygon fill="#ff6075" fill-opacity="0.501961" points="224,58 188,56 195,44" />
<polygon fill="#2d322f" fill-opacity="0.501961" points="150,72 42,63 111,44" />
<polygon fill="#ffa1a9" fill-opacity="0.501961" points="173,109 153,83 59,115" />
<polygon fill="#c7f2e6" fill-opacity="0.501961" points="144,171 103,164 140,159" />
<polygon fill="#000208" fill-opacity="0.501961" points="-4,76 32,74 24,59" />
<polygon fill="#000000" fill-opacity="0.501961" points="-1,48 37,43 -14,65" />
<polygon fill="#77a49a" fill-opacity="0.501961" points="109,70 101,52 85,48" />
<polygon fill="#7a3940" fill-opacity="0.501961" points="62,185 116,193 129,177" />
<polygon fill="#480000" fill-opacity="0.501961" points="63,187 38,164 60,164" />
<polygon fill="#000000" fill-opacity="0.501961" points="251,79 271,67 243,72" />
<polygon fill="#02070a" fill-opacity="0.501961" points="99,43 35,42 62,62" />
<polygon fill="#7e9f9e" fill-opacity="0.501961" points="51,26 52,40 68,28" />
<polygon fill="#020300" fill-opacity="0.501961" points="255,116 196,98 209,123" />
<polygon fill="#000000" fill-opacity="0.501961" points="118,32 124,25 102,7" />
<polygon fill="#f33634" fill-opacity="0.501961" points="214,96 243,97 213,104" />
<polygon fill="#000000" fill-opacity="0.501961" points="232,9 253,10 227,17" />
<polygon fill="#fd8d99" fill-opacity="0.501961" points="182,58 132,47 158,75" />
<polygon fill="#eeffff" fill-opacity="0.501961" points="188,39 183,34 196,28" />
<polygon fill="#d2020a" fill-opacity="0.501961" points="185,119 155,109 108,131" />
</g>
</svg>