<svg xmlns="http://www.w3.org/2000/svg" version="1.1" width="1024" height="1024">
<rect x="0" y="0" width="1024" height="1024" fill="#787e82" />
<g transform="scale(4.000000) translate(0.5 0.5)">
<polygon fill="#eaedfe" fill-opacity="0.501961" points="-16,121 252,63 131,222" />
<polygon fill="#011109" fill-opacity="0.501961" points="145,228 228,111 271,250" />
<polygon fill="#000000" fill-opacity="0.501961" points="197,25 116,87 245,61" />
<polygon fill="#031713" fill-opacity="0.501961" points="79,271 -16,191 87,176" />
<polygon fill="#060000" fill-opacity="0.501961" points="123,120 146,136 156,61" />
<polygon fill="#effcff" fill-opacity="0.501961" points="159,79 271,142 250,77" />
<polygon fill="#efe4ed" fill-opacity="0.501961" points="-13,179 93,177 121,54" />
<polygon fill="#ffd2ab" fill-opacity="0.501961" points="235,-16 162,6 250,58" />
<polygon fill="#3a3620" fill-opacity="0.501961" points="-16,8 54,-16 120,105" />
<polygon fill="#202c26" fill-opacity="0.501961" points="201,271 271,146 191,117" />
<polygon fill="#000000" fill-opacity="0.501961" points="148,24 184,-11 113,-16" />
<polygon fill="#000000" fill-opacity="0.501961" points="257,91 271,-4 241,-16" />
<polygon fill="#415e6f" fill-opacity="0.501961" points="61,271 102,154 140,171" />
<polygon fill="#bfc4d3" fill-opacity="0.501961" points="-15,191 132,79 32,93" />
<polygon fill="#e5c4c8" fill-opacity="0.501961" points="95,178 116,232 173,198" />
<polygon fill="#294650" fill-opacity="0.501961" points="176,253 -16,204 12,271" />
<polygon fill="#2c8bc2" fill-opacity="0.501961" points="251,144 174,110 271,117" />
<polygon fill="#00090b" fill-opacity="0.501961" points="152,106 132,46 117,65" />
<polygon fill="#efccbc" fill-opacity="0.501961" points="111,4 24,23 98,-16" />
<polygon fill="#fff5ee" fill-opacity="0.501961" points="157,36 189,26 132,67" />
<polygon fill="#0c0600" fill-opacity="0.501961" points="194,3 192,20 149,37" />
<polygon fill="#5c839e" fill-opacity="0.501961" points="13,40 -16,180 69,37" />
<polygon fill="#fec1ba" fill-opacity="0.501961" points="158,24 103,49 107,67" />
<polygon fill="#e1e4ee" fill-opacity="0.501961" points="200,69 139,206 156,83" />
<polygon fill="#020100" fill-opacity="0.501961" points="21,-16 60,6 -16,13" />
<polygon fill="#dec2c1" fill-opacity="0.501961" points="144,97 81,186 108,62" />
<polygon fill="#355059" fill-opacity="0.501961" points="2,54 89,98 108,59" />
<polygon fill="#466371" fill-opacity="0.501961" points="158,168 165,252 232,213" />
<polygon fill="#ffeae6" fill-opacity="0.501961" points="187,-9 139,34 175,16" />
<polygon fill="#363633" fill-opacity="0.501961" points="133,81 113,106 102,101" />
<polygon fill="#dad5dd" fill-opacity="0.501961" points="24,76 80,182 122,118" />
<polygon fill="#48a7d9" fill-opacity="0.501961" points="145,183 168,187 198,137" />
<polygon fill="#c96635" fill-opacity="0.501961" points="219,21 239,-12 175,40" />
<polygon fill="#3b3b29" fill-opacity="0.501961" points="1,21 -16,51 82,18" />
<polygon fill="#ca9665" fill-opacity="0.501961" points="35,8 -1,18 53,30" />
<polygon fill="#ffd1d1" fill-opacity="0.501961" points="212,-4 205,21 164,41" />
<polygon fill="#000507" fill-opacity="0.501961" points="158,28 138,50 174,28" />
<polygon fill="#313f3b" fill-opacity="0.501961" points="140,144 152,102 118,118" />
<polygon fill="#141c17" fill-opacity="0.501961" points="153,72 237,65 203,28" />
<polygon fill="#8e421d" fill-opacity="0.501961" points="115,17 134,8 124,56" />
<polygon fill="#25332f" fill-opacity="0.501961" points="192,267 201,205 235,271" />
<polygon fill="#d8cddc" fill-opacity="0.501961" points="228,104 250,122 243,42" />
<polygon fill="#ffe4ce" fill-opacity="0.501961" points="242,10 241,50 207,31" />
<polygon fill="#4f616b" fill-opacity="0.501961" points="88,179 131,269 40,175" />
<polygon fill="#444c40" fill-opacity="0.501961" points="54,21 99,89 108,11" />
<polygon fill="#232821" fill-opacity="0.501961" points="271,138 175,205 196,139" />
<polygon fill="#aeb8c8" fill-opacity="0.501961" points="76,43 -3,45 37,55" />
<polygon fill="#e3e5f1" fill-opacity="0.501961" points="73,165 -16,171 27,182" />
<polygon fill="#40697f" fill-opacity="0.501961" points="148,167 98,168 127,191" />
<polygon fill="#d9dff2" fill-opacity="0.501961" points="2,84 0,101 21,92" />
<polygon fill="#e5e0e7" fill-opacity="0.501961" points="136,172 118,123 70,126" />
<polygon fill="#233438" fill-opacity="0.501961" points="214,39 128,68 142,93" />
<polygon fill="#95a8bb" fill-opacity="0.501961" points="40,136 47,175 -3,135" />
<polygon fill="#140b00" fill-opacity="0.501961" points="238,2 260,40 255,-10" />
<polygon fill="#ffefed" fill-opacity="0.501961" points="151,46 165,36 151,64" />
<polygon fill="#535549" fill-opacity="0.501961" points="229,271 210,216 271,153" />
<polygon fill="#a3776d" fill-opacity="0.501961" points="255,71 238,81 245,20" />
<polygon fill="#87b2d5" fill-opacity="0.501961" points="191,98 271,114 228,128" />
<polygon fill="#3d5964" fill-opacity="0.501961" points="6,104 18,126 -1,135" />
<polygon fill="#323a33" fill-opacity="0.501961" points="3,186 36,252 60,177" />
<polygon fill="#6f8ba1" fill-opacity="0.501961" points="201,193 195,223 175,221" />
<polygon fill="#627f92" fill-opacity="0.501961" points="-7,263 19,233 70,243" />
<polygon fill="#acc4e1" fill-opacity="0.501961" points="159,230 173,244 139,232" />
<polygon fill="#0f0900" fill-opacity="0.501961" points="240,51 219,43 232,64" />
<polygon fill="#9d949d" fill-opacity="0.501961" points="137,199 166,206 120,252" />
<polygon fill="#5f7e95" fill-opacity="0.501961" points="-16,60 0,88 75,66" />
<polygon fill="#85b5d6" fill-opacity="0.501961" points="194,152 143,167 195,122" />
<polygon fill="#154552" fill-opacity="0.501961" points="212,142 210,119 187,115" />
<polygon fill="#ffdfe1" fill-opacity="0.501961" points="150,32 129,34 144,42" />
<polygon fill="#456f88" fill-opacity="0.501961" points="28,113 44,110 7,71" />
<polygon fill="#f0cdcc" fill-opacity="0.501961" points="117,32 117,85 107,49" />
<polygon fill="#1f2b31" fill-opacity="0.501961" points="117,59 137,57 138,40" />
<polygon fill="#ffffff" fill-opacity="0.501961" points="195,17 215,-16 194,-5" />
<polygon fill="#212e2e" fill-opacity="0.501961" points="132,88 152,97 126,49" />
<polygon fill="#323628" fill-opacity="0.501961" points="100,55 104,81 48,49" />
<polygon fill="#2f332a" fill-opacity="0.501961" points="41,207 13,228 115,249" />
<polygon fill="#17211b" fill-opacity="0.501961" points="170,3 101,-16 151,22" />
<polygon fill="#dcdfee" fill-opacity="0.501961" points="265,89 252,110 186,73" />
<polygon fill="#7899b5" fill-opacity="0.501961" points="123,143 145,144 129,116" />
<polygon fill="#759dbe" fill-opacity="0.501961" points="196,230 190,271 154,265" />
<polygon fill="#344649" fill-opacity="0.501961" points="171,249 207,141 166,189" />
<polygon fill="#eddcdb" fill-opacity="0.501961" points="150,87 189,73 193,113" />
<polygon fill="#342a14" fill-opacity="0.501961" points="17,-11 1,33 17,31" />
<polygon fill="#b09b90" fill-opacity="0.501961" points="208,67 235,76 184,73" />
<polygon fill="#335462" fill-opacity="0.501961" points="44,69 0,81 58,82" />
<polygon fill="#1d190a" fill-opacity="0.501961" points="152,109 150,80 137,128" />
<polygon fill="#bab7c3" fill-opacity="0.501961" points="114,109 88,79 77,120" />
<polygon fill="#7f92a3" fill-opacity="0.501961" points="64,205 89,210 52,188" />
<polygon fill="#dedee6" fill-opacity="0.501961" points="80,160 122,196 51,165" />
<polygon fill="#485c64" fill-opacity="0.501961" points="104,193 83,197 76,264" />
<polygon fill="#757778" fill-opacity="0.501961" points="100,61 77,13 133,-5" />
<polygon fill="#e9d4d7" fill-opacity="0.501961" points="135,12 133,23 145,25" />
<polygon fill="#f0ccc9" fill-opacity="0.501961" points="80,106 119,69 129,82" />
<polygon fill="#ffe7e8" fill-opacity="0.501961" points="134,62 147,46 159,45" />
<polygon fill="#474d48" fill-opacity="0.501961" points="-3,66 51,60 19,50" />
<polygon fill="#d0a37c" fill-opacity="0.501961" points="69,3 69,17 23,17" />
<polygon fill="#c0d1e2" fill-opacity="0.501961" points="139,157 184,154 159,86" />
<polygon fill="#316077" fill-opacity="0.501961" points="98,176 110,154 124,169" />
<polygon fill="#8197ab" fill-opacity="0.501961" points="27,78 57,65 5,62" />
<polygon fill="#262718" fill-opacity="0.501961" points="43,12 -11,-1 82,-15" />
</g>
</svg>