<svg xmlns="http://www.w3.org/2000/svg" version="1.1" width="1024" height="1024">
<rect x="0" y="0" width="1024" height="1024" fill="#5b6365" />
<g transform="scale(4.000000) translate(0.5 0.5)">
<polygon fill="#deeff4" fill-opacity="0.501961" points="271,60 -16,59 11,219" />
<polygon fill="#000000" fill-opacity="0.501961" points="-16,69 271,21 6,-16" />
<polygon fill="#000000" fill-opacity="0.501961" points="-16,260 262,157 271,256" />
<polygon fill="#000000" fill-opacity="0.501961" points="-16,40 249,-16 271,56" />
<polygon fill="#cae0e9" fill-opacity="0.501961" points="271,128 249,47 103,198" />
<polygon fill="#000000" fill-opacity="0.501961" points="271,4 -16,62 3,-16" />
<polygon fill="#000000" fill-opacity="0.501961" points="85,193 271,254 24,261" />
<polygon fill="#8a9ba1" fill-opacity="0.501961" points="-16,173 185,83 182,208" />
<polygon fill="#000000" fill-opacity="0.501961" points="271,50 251,-16 35,56" />
<polygon fill="#adbabc" fill-opacity="0.501961" points="217,232 158,229 176,216" />
<polygon fill="#b5c1c2" fill-opacity="0.501961" points="243,153 -16,59 256,55" />
<polygon fill="#a6c2cf" fill-opacity="0.501961" points="228,212 261,195 185,205" />
<polygon fill="#000000" fill-opacity="0.501961" points="27,151 -16,137 37,139" />
<polygon fill="#869aa6" fill-opacity="0.501961" points="13,232 -8,194 109,218" />
<polygon fill="#000000" fill-opacity="0.501961" points="263,271 63,255 271,215" />
<polygon fill="#535a56" fill-opacity="0.501961" points="96,129 154,147 89,91" />
<polygon fill="#000000" fill-opacity="0.501961" points="2,55 -16,-16 262,0" />
<polygon fill="#151816" fill-opacity="0.501961" points="115,193 152,227 26,202" />
<polygon fill="#000000" fill-opacity="0.501961" points="271,199 188,181 257,163" />
<polygon fill="#8699a1" fill-opacity="0.501961" points="190,91 151,163 271,159" />
<polygon fill="#121715" fill-opacity="0.501961" points="70,130 50,131 48,142" />
<polygon fill="#748388" fill-opacity="0.501961" points="-3,199 82,201 72,154" />
<polygon fill="#3f423c" fill-opacity="0.501961" points="24,75 62,79 29,87" />
<polygon fill="#d4eef7" fill-opacity="0.501961" points="234,219 217,216 201,223" />
<polygon fill="#1b1c1f" fill-opacity="0.501961" points="-14,219 15,226 49,213" />
<polygon fill="#99aeba" fill-opacity="0.501961" points="162,202 164,162 128,209" />
<polygon fill="#d3effe" fill-opacity="0.501961" points="42,217 34,237 56,223" />
<polygon fill="#c0d6df" fill-opacity="0.501961" points="168,151 94,158 124,143" />
<polygon fill="#454b4a" fill-opacity="0.501961" points="144,161 61,229 90,173" />
<polygon fill="#000000" fill-opacity="0.501961" points="151,205 137,226 218,210" />
<polygon fill="#10130e" fill-opacity="0.501961" points="128,147 165,143 136,138" />
<polygon fill="#7e807d" fill-opacity="0.501961" points="83,235 100,236 107,214" />
<polygon fill="#ceecfd" fill-opacity="0.501961" points="-16,191 47,211 12,211" />
<polygon fill="#7f8989" fill-opacity="0.501961" points="210,236 208,221 170,218" />
<polygon fill="#b7c8cf" fill-opacity="0.501961" points="61,69 102,64 75,199" />
<polygon fill="#31393c" fill-opacity="0.501961" points="218,143 271,127 247,144" />
<polygon fill="#222b2d" fill-opacity="0.501961" points="222,132 208,129 235,118" />
<polygon fill="#2b322f" fill-opacity="0.501961" points="221,166 166,156 194,177" />
<polygon fill="#bad1da" fill-opacity="0.501961" points="134,125 185,136 144,141" />
<polygon fill="#000000" fill-opacity="0.501961" points="253,-16 271,42 132,45" />
<polygon fill="#050908" fill-opacity="0.501961" points="270,201 260,266 230,204" />
<polygon fill="#171714" fill-opacity="0.501961" points="93,213 47,221 68,201" />
<polygon fill="#c0e0ed" fill-opacity="0.501961" points="194,207 200,200 173,205" />
<polygon fill="#050c0b" fill-opacity="0.501961" points="185,187 235,200 169,203" />
<polygon fill="#474734" fill-opacity="0.501961" points="77,14 64,62 92,60" />
<polygon fill="#dbf7ff" fill-opacity="0.501961" points="166,165 147,180 119,182" />
<polygon fill="#6b797e" fill-opacity="0.501961" points="138,231 122,234 120,253" />
<polygon fill="#191b17" fill-opacity="0.501961" points="11,181 8,170 -9,198" />
<polygon fill="#b7bfbf" fill-opacity="0.501961" points="22,124 -16,58 28,57" />
<polygon fill="#050605" fill-opacity="0.501961" points="39,190 55,198 73,196" />
<polygon fill="#c0c7c3" fill-opacity="0.501961" points="271,51 91,69 207,89" />
<polygon fill="#858e91" fill-opacity="0.501961" points="178,214 186,232 155,226" />
<polygon fill="#95a7af" fill-opacity="0.501961" points="112,182 78,197 59,188" />
<polygon fill="#282a2b" fill-opacity="0.501961" points="145,183 115,185 137,190" />
<polygon fill="#000000" fill-opacity="0.501961" points="-9,251 52,271 120,243" />
<polygon fill="#000000" fill-opacity="0.501961" points="211,207 230,216 181,220" />
<polygon fill="#829ea5" fill-opacity="0.501961" points="197,183 192,189 219,191" />
<polygon fill="#383216" fill-opacity="0.501961" points="104,55 139,57 142,10" />
<polygon fill="#1b201c" fill-opacity="0.501961" points="166,173 194,194 188,177" />
<polygon fill="#000000" fill-opacity="0.501961" points="95,203 116,194 163,248" />
<polygon fill="#b7d6e3" fill-opacity="0.501961" points="164,176 173,190 189,190" />
<polygon fill="#161407" fill-opacity="0.501961" points="109,115 96,124 109,125" />
<polygon fill="#b6d1de" fill-opacity="0.501961" points="53,211 42,206 67,208" />
<polygon fill="#bcd1db" fill-opacity="0.501961" points="218,159 179,161 204,147" />
<polygon fill="#484c4d" fill-opacity="0.501961" points="170,151 147,167 188,156" />
<polygon fill="#77838c" fill-opacity="0.501961" points="42,239 26,251 2,248" />
<polygon fill="#000000" fill-opacity="0.501961" points="51,204 40,199 33,206" />
<polygon fill="#060800" fill-opacity="0.501961" points="176,132 178,126 166,130" />
<polygon fill="#becbcf" fill-opacity="0.501961" points="68,65 149,68 30,120" />
<polygon fill="#6c6e62" fill-opacity="0.501961" points="208,49 270,51 237,59" />
<polygon fill="#000000" fill-opacity="0.501961" points="229,226 271,255 111,271" />
<polygon fill="#212722" fill-opacity="0.501961" points="159,136 167,144 152,145" />
<polygon fill="#737c7b" fill-opacity="0.501961" points="113,109 152,123 103,137" />
<polygon fill="#5c615e" fill-opacity="0.501961" points="151,83 152,105 161,99" />
<polygon fill="#3d4341" fill-opacity="0.501961" points="4,196 35,189 23,184" />
<polygon fill="#afc3ce" fill-opacity="0.501961" points="60,135 57,159 123,124" />
<polygon fill="#030703" fill-opacity="0.501961" points="124,142 136,145 148,136" />
<polygon fill="#363329" fill-opacity="0.501961" points="11,141 -4,149 8,126" />
<polygon fill="#9eb1b8" fill-opacity="0.501961" points="222,143 222,168 233,170" />
<polygon fill="#586a6f" fill-opacity="0.501961" points="29,232 63,252 45,250" />
<polygon fill="#cbe2ec" fill-opacity="0.501961" points="124,146 135,131 124,131" />
<polygon fill="#000000" fill-opacity="0.501961" points="-5,55 0,-16 211,-1" />
<polygon fill="#0a0c01" fill-opacity="0.501961" points="124,129 121,137 112,129" />
<polygon fill="#b4c8d1" fill-opacity="0.501961" points="213,126 113,91 151,126" />
<polygon fill="#768a95" fill-opacity="0.501961" points="193,203 210,196 190,196" />
<polygon fill="#303839" fill-opacity="0.501961" points="143,191 160,183 175,186" />
<polygon fill="#98a8ad" fill-opacity="0.501961" points="25,144 -16,195 -9,143" />
<polygon fill="#96a6ad" fill-opacity="0.501961" points="99,199 110,180 120,185" />
<polygon fill="#000000" fill-opacity="0.501961" points="101,202 91,194 74,201" />
<polygon fill="#3e3c36" fill-opacity="0.501961" points="74,157 62,170 61,157" />
<polygon fill="#000000" fill-opacity="0.501961" points="250,198 230,181 271,146" />
<polygon fill="#acc6d5" fill-opacity="0.501961" points="228,211 210,206 232,200" />
<polygon fill="#9aaeba" fill-opacity="0.501961" points="15,175 15,216 -14,213" />
<polygon fill="#000000" fill-opacity="0.501961" points="155,200 144,228 180,211" />
<polygon fill="#a5b8c0" fill-opacity="0.501961" points="187,132 153,181 168,131" />
<polygon fill="#000000" fill-opacity="0.501961" points="42,235 77,233 79,260" />
<polygon fill="#10110a" fill-opacity="0.501961" points="96,177 120,182 120,175" />
<polygon fill="#596365" fill-opacity="0.501961" points="93,142 106,156 82,152" />
<polygon fill="#788285" fill-opacity="0.501961" points="102,211 88,202 71,205" />
<polygon fill="#030605" fill-opacity="0.501961" points="222,201 216,161 239,184" />
</g>
</svg>