<svg xmlns="http://www.w3.org/2000/svg" version="1.1" width="1024" height="1024">
<rect x="0" y="0" width="1024" height="1024" fill="#b8b7c3" />
<g transform="scale(4.000000) translate(0.5 0.5)">
<polygon fill="#040004" fill-opacity="0.501961" points="57,271 145,246 62,28" />
<polygon fill="#ffffff" fill-opacity="0.501961" points="271,271 124,246 243,58" />
<polygon fill="#ffffff" fill-opacity="0.501961" points="113,83 -7,-16 271,2" />
<polygon fill="#6d617f" fill-opacity="0.501961" points="6,128 240,103 -16,33" />
<polygon fill="#fcffff" fill-opacity="0.501961" points="271,114 107,115 156,271" />
<polygon fill="#ffffff" fill-opacity="0.501961" points="-16,251 74,271 7,110" />
<polygon fill="#554564" fill-opacity="0.501961" points="233,97 175,88 208,17" />
<polygon fill="#482943" fill-opacity="0.501961" points="114,140 136,271 14,104" />
<polygon fill="#513a50" fill-opacity="0.501961" points="48,40 90,72 -16,68" />
<polygon fill="#48366b" fill-opacity="0.501961" points="-2,23 -16,0 66,26" />
<polygon fill="#ffffff" fill-opacity="0.501961" points="267,-16 241,47 38,5" />
<polygon fill="#f4f9fa" fill-opacity="0.501961" points="-16,127 56,146 57,242" />
<polygon fill="#d9eeff" fill-opacity="0.501961" points="4,108 64,79 19,67" />
<polygon fill="#f0f2f9" fill-opacity="0.501961" points="202,67 56,53 110,-10" />
<polygon fill="#3b312e" fill-opacity="0.501961" points="8,127 45,69 36,119" />
<polygon fill="#c1dfff" fill-opacity="0.501961" points="81,114 61,102 50,134" />
<polygon fill="#60403a" fill-opacity="0.501961" points="153,71 119,114 170,103" />
<polygon fill="#ebf3f8" fill-opacity="0.501961" points="89,75 178,81 206,-16" />
<polygon fill="#aab0dc" fill-opacity="0.501961" points="-16,47 48,11 141,33" />
<polygon fill="#f6eeef" fill-opacity="0.501961" points="55,58 62,86 31,129" />
<polygon fill="#725564" fill-opacity="0.501961" points="122,162 94,97 35,148" />
<polygon fill="#f7fcfc" fill-opacity="0.501961" points="201,118 151,205 99,112" />
<polygon fill="#392a48" fill-opacity="0.501961" points="64,247 141,271 86,107" />
<polygon fill="#635164" fill-opacity="0.501961" points="191,47 210,15 208,107" />
<polygon fill="#56282f" fill-opacity="0.501961" points="92,69 81,50 46,115" />
<polygon fill="#f7ffff" fill-opacity="0.501961" points="243,58 210,86 234,35" />
<polygon fill="#c5b0d6" fill-opacity="0.501961" points="131,62 85,106 72,87" />
<polygon fill="#e1eaf0" fill-opacity="0.501961" points="259,254 173,78 129,264" />
<polygon fill="#764948" fill-opacity="0.501961" points="7,29 25,-8 -16,0" />
<polygon fill="#39212c" fill-opacity="0.501961" points="56,95 43,147 42,113" />
<polygon fill="#7784b0" fill-opacity="0.501961" points="251,75 221,108 145,114" />
<polygon fill="#c4d7e9" fill-opacity="0.501961" points="204,155 268,142 240,45" />
<polygon fill="#c4daff" fill-opacity="0.501961" points="124,94 97,89 125,116" />
<polygon fill="#5f5164" fill-opacity="0.501961" points="46,97 37,33 22,51" />
<polygon fill="#d7efff" fill-opacity="0.501961" points="12,58 -6,35 24,32" />
<polygon fill="#a5595d" fill-opacity="0.501961" points="139,224 122,239 115,169" />
<polygon fill="#ecf7ff" fill-opacity="0.501961" points="34,79 61,72 60,96" />
<polygon fill="#e8f2f8" fill-opacity="0.501961" points="147,56 60,30 63,56" />
<polygon fill="#e3e7ec" fill-opacity="0.501961" points="65,269 -16,134 35,125" />
<polygon fill="#f0eefc" fill-opacity="0.501961" points="90,125 98,125 90,108" />
<polygon fill="#453b55" fill-opacity="0.501961" points="69,124 56,205 139,261" />
<polygon fill="#f2faff" fill-opacity="0.501961" points="128,230 139,255 151,224" />
<polygon fill="#4e0000" fill-opacity="0.501961" points="97,93 91,107 98,117" />
<polygon fill="#ffffff" fill-opacity="0.501961" points="8,-16 235,-2 112,23" />
<polygon fill="#787b9e" fill-opacity="0.501961" points="32,141 57,151 90,111" />
<polygon fill="#efb38a" fill-opacity="0.501961" points="30,10 -3,4 62,-5" />
<polygon fill="#784d74" fill-opacity="0.501961" points="60,25 47,28 53,7" />
<polygon fill="#eaeaed" fill-opacity="0.501961" points="122,147 121,194 177,257" />
<polygon fill="#d1e6ff" fill-opacity="0.501961" points="14,83 38,80 -2,125" />
<polygon fill="#514b50" fill-opacity="0.501961" points="27,127 9,110 48,90" />
<polygon fill="#594a56" fill-opacity="0.501961" points="214,93 179,92 233,78" />
<polygon fill="#512b3b" fill-opacity="0.501961" points="56,45 65,91 89,75" />
<polygon fill="#ddedf6" fill-opacity="0.501961" points="243,16 236,85 207,13" />
<polygon fill="#9698bb" fill-opacity="0.501961" points="174,80 220,55 228,77" />
<polygon fill="#6d575f" fill-opacity="0.501961" points="130,112 158,113 156,67" />
<polygon fill="#474a75" fill-opacity="0.501961" points="271,13 240,52 270,36" />
<polygon fill="#b3c4d5" fill-opacity="0.501961" points="185,30 231,17 134,15" />
<polygon fill="#b37260" fill-opacity="0.501961" points="115,173 123,156 103,122" />
<polygon fill="#cf93a3" fill-opacity="0.501961" points="116,19 130,36 90,31" />
<polygon fill="#edf0f5" fill-opacity="0.501961" points="184,79 165,88 150,15" />
<polygon fill="#a2a9d5" fill-opacity="0.501961" points="65,44 27,92 55,72" />
<polygon fill="#cde4ff" fill-opacity="0.501961" points="99,105 104,119 117,107" />
<polygon fill="#414a81" fill-opacity="0.501961" points="86,271 56,207 59,242" />
<polygon fill="#ffffff" fill-opacity="0.501961" points="270,16 241,-16 129,12" />
<polygon fill="#62576c" fill-opacity="0.501961" points="-16,85 33,38 60,44" />
<polygon fill="#acc0eb" fill-opacity="0.501961" points="49,127 80,115 60,104" />
<polygon fill="#f4ffff" fill-opacity="0.501961" points="7,85 -2,75 -16,99" />
<polygon fill="#514758" fill-opacity="0.501961" points="232,83 218,60 213,66" />
<polygon fill="#e5ecf0" fill-opacity="0.501961" points="271,243 255,137 131,234" />
<polygon fill="#e9f8ff" fill-opacity="0.501961" points="214,72 208,85 220,81" />
<polygon fill="#e7ebee" fill-opacity="0.501961" points="131,92 177,23 132,15" />
<polygon fill="#572228" fill-opacity="0.501961" points="66,81 65,104 87,115" />
<polygon fill="#655870" fill-opacity="0.501961" points="219,107 209,98 174,110" />
<polygon fill="#dfe5ec" fill-opacity="0.501961" points="57,149 -14,180 53,271" />
<polygon fill="#502a35" fill-opacity="0.501961" points="107,222 141,219 134,227" />
<polygon fill="#e3eef7" fill-opacity="0.501961" points="85,66 115,79 113,61" />
<polygon fill="#86b2ee" fill-opacity="0.501961" points="12,125 -16,135 9,97" />
<polygon fill="#546bac" fill-opacity="0.501961" points="269,85 236,86 259,93" />
<polygon fill="#aec4ec" fill-opacity="0.501961" points="91,31 18,43 21,23" />
<polygon fill="#5d6aaa" fill-opacity="0.501961" points="243,65 243,56 271,69" />
<polygon fill="#341817" fill-opacity="0.501961" points="115,213 94,179 98,147" />
<polygon fill="#4c3138" fill-opacity="0.501961" points="-5,2 23,1 42,-16" />
<polygon fill="#fcf9f6" fill-opacity="0.501961" points="17,13 41,16 64,4" />
<polygon fill="#684e4e" fill-opacity="0.501961" points="187,53 207,42 208,71" />
<polygon fill="#9c97a8" fill-opacity="0.501961" points="83,51 104,78 76,59" />
<polygon fill="#9f585f" fill-opacity="0.501961" points="136,219 118,205 119,172" />
<polygon fill="#2d0200" fill-opacity="0.501961" points="50,120 46,117 56,104" />
<polygon fill="#807694" fill-opacity="0.501961" points="209,17 200,28 217,46" />
<polygon fill="#648ce9" fill-opacity="0.501961" points="-16,40 -3,24 22,25" />
<polygon fill="#a2acd5" fill-opacity="0.501961" points="178,103 201,91 232,95" />
<polygon fill="#683c4a" fill-opacity="0.501961" points="183,83 173,82 194,99" />
<polygon fill="#7f7ca2" fill-opacity="0.501961" points="145,86 116,71 109,91" />
<polygon fill="#9db2e3" fill-opacity="0.501961" points="27,63 5,80 37,80" />
<polygon fill="#ffffff" fill-opacity="0.501961" points="31,-16 162,2 63,15" />
<polygon fill="#e2ebf4" fill-opacity="0.501961" points="63,38 84,58 63,54" />
<polygon fill="#5a4743" fill-opacity="0.501961" points="19,126 47,93 38,84" />
<polygon fill="#e9e9ec" fill-opacity="0.501961" points="45,191 -16,130 33,126" />
<polygon fill="#c5d7e6" fill-opacity="0.501961" points="221,17 263,16 210,49" />
<polygon fill="#445c91" fill-opacity="0.501961" points="5,104 -16,119 10,81" />
<polygon fill="#e9eef0" fill-opacity="0.501961" points="48,85 63,95 60,72" />
</g>
</svg>