<svg xmlns="http://www.w3.org/2000/svg" version="1.1" width="1024" height="1024">
<rect x="0" y="0" width="1024" height="1024" fill="#938c82" />
<g transform="scale(4.000000) translate(0.5 0.5)">
<polygon fill="#000000" fill-opacity="0.501961" points="261,-16 262,80 204,60" />
<polygon fill="#ffe3d6" fill-opacity="0.501961" points="268,78 151,70 264,195" />
<polygon fill="#4b1d08" fill-opacity="0.501961" points="120,233 187,81 198,167" />
<polygon fill="#54653a" fill-opacity="0.501961" points="237,32 160,80 55,-16" />
<polygon fill="#d7d5da" fill-opacity="0.501961" points="201,177 179,270 101,254" />
<polygon fill="#e8e2da" fill-opacity="0.501961" points="160,73 139,158 230,65" />
<polygon fill="#24140b" fill-opacity="0.501961" points="268,59 223,98 253,-16" />
<polygon fill="#fbf7fd" fill-opacity="0.501961" points="206,183 193,261 224,208" />
<polygon fill="#5f3820" fill-opacity="0.501961" points="154,153 135,247 112,195" />
<polygon fill="#979ea2" fill-opacity="0.501961" points="110,247 -16,45 168,53" />
<polygon fill="#ffffff" fill-opacity="0.501961" points="139,255 116,222 99,266" />
<polygon fill="#f1ffff" fill-opacity="0.501961" points="196,134 194,71 233,67" />
<polygon fill="#cf8969" fill-opacity="0.501961" points="271,188 234,271 200,123" />
<polygon fill="#000002" fill-opacity="0.501961" points="232,181 208,192 260,187" />
<polygon fill="#5d4233" fill-opacity="0.501961" points="158,219 184,68 196,137" />
<polygon fill="#646c6e" fill-opacity="0.501961" points="106,254 -16,271 -11,166" />
<polygon fill="#000b09" fill-opacity="0.501961" points="192,203 184,198 168,226" />
<polygon fill="#0d191f" fill-opacity="0.501961" points="208,220 187,252 186,239" />
<polygon fill="#d3a96b" fill-opacity="0.501961" points="247,6 227,33 131,-3" />
<polygon fill="#517516" fill-opacity="0.501961" points="195,14 217,55 115,7" />
<polygon fill="#74757b" fill-opacity="0.501961" points="188,45 153,100 26,-16" />
<polygon fill="#463327" fill-opacity="0.501961" points="169,234 140,206 122,209" />
<polygon fill="#342a25" fill-opacity="0.501961" points="194,143 207,178 202,123" />
<polygon fill="#e0b59d" fill-opacity="0.501961" points="217,183 222,85 271,181" />
<polygon fill="#fdfbfc" fill-opacity="0.501961" points="175,189 198,186 161,222" />
<polygon fill="#000000" fill-opacity="0.501961" points="206,242 215,236 218,222" />
<polygon fill="#efeff1" fill-opacity="0.501961" points="210,177 192,229 216,210" />
<polygon fill="#000003" fill-opacity="0.501961" points="204,167 197,201 207,182" />
<polygon fill="#ede7e3" fill-opacity="0.501961" points="160,82 176,99 143,148" />
<polygon fill="#9e5945" fill-opacity="0.501961" points="224,268 271,247 225,218" />
<polygon fill="#d9dadb" fill-opacity="0.501961" points="187,271 189,239 158,213" />
<polygon fill="#000000" fill-opacity="0.501961" points="168,232 178,242 164,234" />
<polygon fill="#c6c4c1" fill-opacity="0.501961" points="175,183 187,181 197,159" />
<polygon fill="#9a8579" fill-opacity="0.501961" points="206,53 180,49 168,142" />
<polygon fill="#3e2c24" fill-opacity="0.501961" points="221,28 207,67 271,67" />
<polygon fill="#000000" fill-opacity="0.501961" points="173,226 172,221 185,228" />
<polygon fill="#000000" fill-opacity="0.501961" points="190,242 200,260 190,257" />
<polygon fill="#77533d" fill-opacity="0.501961" points="119,187 172,201 189,107" />
<polygon fill="#000000" fill-opacity="0.501961" points="207,247 263,270 230,271" />
<polygon fill="#e8c1a3" fill-opacity="0.501961" points="271,233 271,186 226,195" />
<polygon fill="#394140" fill-opacity="0.501961" points="155,260 162,244 193,271" />
<polygon fill="#ece7e8" fill-opacity="0.501961" points="171,239 152,251 152,224" />
<polygon fill="#121717" fill-opacity="0.501961" points="224,91 241,70 237,91" />
<polygon fill="#000700" fill-opacity="0.501961" points="146,251 150,251 149,239" />
<polygon fill="#828784" fill-opacity="0.501961" points="101,266 127,177 -16,170" />
<polygon fill="#493a2d" fill-opacity="0.501961" points="206,4 240,-16 172,0" />
<polygon fill="#553d2f" fill-opacity="0.501961" points="193,77 183,94 185,115" />
<polygon fill="#f2f0f7" fill-opacity="0.501961" points="211,255 196,238 200,266" />
<polygon fill="#ffffff" fill-opacity="0.501961" points="190,215 187,205 182,210" />
<polygon fill="#000000" fill-opacity="0.501961" points="190,229 196,215 192,213" />
<polygon fill="#f6f5fe" fill-opacity="0.501961" points="223,244 219,252 211,240" />
<polygon fill="#382d27" fill-opacity="0.501961" points="198,165 167,164 193,132" />
<polygon fill="#100905" fill-opacity="0.501961" points="224,242 212,235 229,239" />
<polygon fill="#9b9d9a" fill-opacity="0.501961" points="-16,158 164,145 14,58" />
<polygon fill="#d5d1cc" fill-opacity="0.501961" points="195,172 196,143 203,169" />
<polygon fill="#000000" fill-opacity="0.501961" points="211,218 200,227 206,218" />
<polygon fill="#92a945" fill-opacity="0.501961" points="96,-16 171,12 83,6" />
<polygon fill="#443026" fill-opacity="0.501961" points="141,195 133,242 121,224" />
<polygon fill="#ddc4ba" fill-opacity="0.501961" points="203,151 208,105 269,70" />
<polygon fill="#000000" fill-opacity="0.501961" points="180,216 188,216 177,210" />
<polygon fill="#eae8e6" fill-opacity="0.501961" points="181,198 202,171 193,203" />
<polygon fill="#dee9ad" fill-opacity="0.501961" points="144,2 170,11 168,-16" />
<polygon fill="#d6957d" fill-opacity="0.501961" points="202,34 253,-6 203,3" />
<polygon fill="#7e8a8a" fill-opacity="0.501961" points="-15,-16 107,4 10,63" />
<polygon fill="#000000" fill-opacity="0.501961" points="179,244 182,243 174,239" />
<polygon fill="#0a1618" fill-opacity="0.501961" points="212,194 238,184 214,186" />
<polygon fill="#e8eff2" fill-opacity="0.501961" points="230,80 191,119 193,82" />
<polygon fill="#a97758" fill-opacity="0.501961" points="130,196 174,157 154,158" />
<polygon fill="#904d41" fill-opacity="0.501961" points="253,-11 235,37 208,40" />
<polygon fill="#eee6e3" fill-opacity="0.501961" points="150,206 167,232 189,239" />
<polygon fill="#c29a85" fill-opacity="0.501961" points="203,194 238,152 215,124" />
<polygon fill="#332518" fill-opacity="0.501961" points="126,196 124,185 145,172" />
<polygon fill="#000000" fill-opacity="0.501961" points="163,204 160,211 163,214" />
<polygon fill="#e9e7ea" fill-opacity="0.501961" points="102,263 123,240 120,214" />
<polygon fill="#e8d5ce" fill-opacity="0.501961" points="243,134 271,71 239,84" />
<polygon fill="#e5e8e8" fill-opacity="0.501961" points="180,214 184,243 192,230" />
<polygon fill="#a37669" fill-opacity="0.501961" points="231,115 235,90 226,101" />
<polygon fill="#6d4634" fill-opacity="0.501961" points="198,175 197,163 184,185" />
<polygon fill="#e2e1e4" fill-opacity="0.501961" points="201,255 213,219 193,241" />
<polygon fill="#c8956b" fill-opacity="0.501961" points="179,109 137,160 168,140" />
<polygon fill="#020908" fill-opacity="0.501961" points="197,237 185,248 194,230" />
<polygon fill="#000000" fill-opacity="0.501961" points="206,245 209,252 210,239" />
<polygon fill="#ad9381" fill-opacity="0.501961" points="151,243 160,196 131,243" />
<polygon fill="#ffffff" fill-opacity="0.501961" points="164,250 151,270 169,260" />
<polygon fill="#ccbfb1" fill-opacity="0.501961" points="200,66 171,71 186,87" />
<polygon fill="#3f342a" fill-opacity="0.501961" points="271,21 241,82 206,36" />
<polygon fill="#191f1c" fill-opacity="0.501961" points="187,195 182,211 171,220" />
<polygon fill="#656768" fill-opacity="0.501961" points="164,48 94,36 64,0" />
<polygon fill="#f0edee" fill-opacity="0.501961" points="169,223 181,197 165,202" />
<polygon fill="#a6b2af" fill-opacity="0.501961" points="199,127 205,94 208,130" />
<polygon fill="#e5e2e4" fill-opacity="0.501961" points="157,237 199,271 185,246" />
<polygon fill="#d6cbb1" fill-opacity="0.501961" points="202,12 200,29 219,19" />
<polygon fill="#5a443a" fill-opacity="0.501961" points="190,124 172,197 146,201" />
<polygon fill="#e5ded5" fill-opacity="0.501961" points="172,114 152,107 144,149" />
<polygon fill="#dadadd" fill-opacity="0.501961" points="223,237 214,232 222,227" />
<polygon fill="#0a181b" fill-opacity="0.501961" points="235,186 269,190 269,181" />
<polygon fill="#b27e68" fill-opacity="0.501961" points="217,194 225,245 271,244" />
<polygon fill="#000000" fill-opacity="0.501961" points="218,221 216,228 220,225" />
<polygon fill="#9d9e9a" fill-opacity="0.501961" points="134,118 45,10 119,207" />
<polygon fill="#d8e1d8" fill-opacity="0.501961" points="193,134 196,134 196,144" />
</g>
</svg>