<svg xmlns="http://www.w3.org/2000/svg" version="1.1" width="1024" height="1024">
<rect x="0" y="0" width="1024" height="1024" fill="#e2ddd2" />
<g transform="scale(4.000000) translate(0.5 0.5)">
<polygon fill="#2d4c00" fill-opacity="0.501961" points="193,119 271,122 235,76" />
<polygon fill="#c98138" fill-opacity="0.501961" points="271,211 31,210 45,271" />
<polygon fill="#f8ffff" fill-opacity="0.501961" points="-16,-2 73,210 271,0" />
<polygon fill="#c57b2f" fill-opacity="0.501961" points="271,247 271,200 147,246" />
<polygon fill="#707e0a" fill-opacity="0.501961" points="221,78 220,141 271,101" />
<polygon fill="#933200" fill-opacity="0.501961" points="253,169 250,271 271,204" />
<polygon fill="#a78b75" fill-opacity="0.501961" points="135,139 191,156 75,155" />
<polygon fill="#f0ffff" fill-opacity="0.501961" points="60,248 152,246 68,271" />
<polygon fill="#f3fbff" fill-opacity="0.501961" points="210,211 46,158 255,157" />
<polygon fill="#a99b85" fill-opacity="0.501961" points="271,104 201,155 252,156" />
<polygon fill="#b4c57f" fill-opacity="0.501961" points="232,83 221,123 161,106" />
<polygon fill="#f1f4f7" fill-opacity="0.501961" points="271,62 -16,174 11,-16" />
<polygon fill="#dab58a" fill-opacity="0.501961" points="33,159 35,271 66,176" />
<polygon fill="#d6d1c8" fill-opacity="0.501961" points="251,221 111,220 183,241" />
<polygon fill="#0f1400" fill-opacity="0.501961" points="232,103 233,118 271,115" />
<polygon fill="#b85c0c" fill-opacity="0.501961" points="205,222 176,212 236,211" />
<polygon fill="#cb6604" fill-opacity="0.501961" points="77,221 109,213 55,211" />
<polygon fill="#ecf3f3" fill-opacity="0.501961" points="222,112 215,147 118,142" />
<polygon fill="#e5f4fe" fill-opacity="0.501961" points="54,233 38,231 51,175" />
<polygon fill="#c8752a" fill-opacity="0.501961" points="142,223 95,214 161,209" />
<polygon fill="#849d3e" fill-opacity="0.501961" points="221,97 190,134 208,87" />
<polygon fill="#d8d1c5" fill-opacity="0.501961" points="180,220 62,219 122,236" />
<polygon fill="#f5f8fb" fill-opacity="0.501961" points="137,11 269,19 271,100" />
<polygon fill="#e8ecf1" fill-opacity="0.501961" points="242,208 76,210 103,139" />
<polygon fill="#df953c" fill-opacity="0.501961" points="32,250 55,232 112,240" />
<polygon fill="#fdffff" fill-opacity="0.501961" points="207,86 237,104 212,77" />
<polygon fill="#b25f1c" fill-opacity="0.501961" points="143,147 135,156 171,153" />
<polygon fill="#c9853e" fill-opacity="0.501961" points="54,183 64,224 53,220" />
<polygon fill="#e2e9f1" fill-opacity="0.501961" points="32,142 34,259 -16,204" />
<polygon fill="#c76b1a" fill-opacity="0.501961" points="171,220 201,211 142,211" />
<polygon fill="#849a00" fill-opacity="0.501961" points="268,132 239,78 221,84" />
<polygon fill="#e39c4e" fill-opacity="0.501961" points="141,246 233,244 188,232" />
<polygon fill="#bfc3c4" fill-opacity="0.501961" points="114,137 48,153 132,157" />
<polygon fill="#93a73e" fill-opacity="0.501961" points="202,82 184,82 208,89" />
<polygon fill="#e8ffff" fill-opacity="0.501961" points="66,238 74,221 61,232" />
<polygon fill="#c6c1bc" fill-opacity="0.501961" points="214,150 271,122 231,118" />
<polygon fill="#e0e0dc" fill-opacity="0.501961" points="211,98 110,145 170,148" />
<polygon fill="#92a452" fill-opacity="0.501961" points="168,119 183,99 205,93" />
<polygon fill="#cfab89" fill-opacity="0.501961" points="162,146 197,159 244,147" />
<polygon fill="#e4ad70" fill-opacity="0.501961" points="44,231 40,160 32,197" />
<polygon fill="#f0f2f2" fill-opacity="0.501961" points="250,98 196,-3 249,13" />
<polygon fill="#e6f7ff" fill-opacity="0.501961" points="204,219 221,238 214,220" />
<polygon fill="#a25b15" fill-opacity="0.501961" points="271,148 251,214 252,177" />
<polygon fill="#e5eef7" fill-opacity="0.501961" points="153,271 171,246 62,250" />
<polygon fill="#f2ffff" fill-opacity="0.501961" points="249,225 238,220 249,233" />
<polygon fill="#d78f3f" fill-opacity="0.501961" points="271,253 260,236 208,236" />
<polygon fill="#e7ffff" fill-opacity="0.501961" points="78,234 86,219 87,236" />
<polygon fill="#dd984a" fill-opacity="0.501961" points="119,247 161,235 76,235" />
<polygon fill="#c0b9ad" fill-opacity="0.501961" points="169,129 169,151 140,131" />
<polygon fill="#f9fefd" fill-opacity="0.501961" points="171,146 170,118 228,143" />
<polygon fill="#e8ebec" fill-opacity="0.501961" points="251,152 61,207 250,210" />
<polygon fill="#eaf5fd" fill-opacity="0.501961" points="57,150 43,154 45,194" />
<polygon fill="#658b11" fill-opacity="0.501961" points="194,130 199,110 210,105" />
<polygon fill="#eeffff" fill-opacity="0.501961" points="95,235 101,219 104,234" />
<polygon fill="#eafeff" fill-opacity="0.501961" points="176,219 180,235 188,233" />
<polygon fill="#edffff" fill-opacity="0.501961" points="237,232 235,238 226,221" />
<polygon fill="#d19d66" fill-opacity="0.501961" points="59,169 59,203 49,174" />
<polygon fill="#d5a570" fill-opacity="0.501961" points="45,235 34,271 34,196" />
<polygon fill="#435500" fill-opacity="0.501961" points="271,102 220,126 235,104" />
<polygon fill="#79644b" fill-opacity="0.501961" points="222,149 250,151 236,146" />
<polygon fill="#b86d24" fill-opacity="0.501961" points="211,215 271,224 246,211" />
<polygon fill="#f0ffff" fill-opacity="0.501961" points="148,219 153,233 145,235" />
<polygon fill="#fdffff" fill-opacity="0.501961" points="216,95 196,85 179,90" />
<polygon fill="#f0ffff" fill-opacity="0.501961" points="198,220 191,219 201,235" />
<polygon fill="#5f730f" fill-opacity="0.501961" points="237,109 211,88 223,107" />
<polygon fill="#f7f7f7" fill-opacity="0.501961" points="152,56 74,106 179,110" />
<polygon fill="#ce7b2b" fill-opacity="0.501961" points="128,212 76,211 93,221" />
<polygon fill="#e8e8e6" fill-opacity="0.501961" points="-12,-6 -16,106 145,-16" />
<polygon fill="#ca935a" fill-opacity="0.501961" points="186,245 168,208 171,238" />
<polygon fill="#ca9155" fill-opacity="0.501961" points="163,238 156,211 152,243" />
<polygon fill="#b87f49" fill-opacity="0.501961" points="211,218 224,223 233,242" />
<polygon fill="#aab76c" fill-opacity="0.501961" points="171,93 187,83 177,85" />
<polygon fill="#e5feff" fill-opacity="0.501961" points="46,256 44,248 51,246" />
<polygon fill="#8da224" fill-opacity="0.501961" points="271,101 271,80 230,105" />
<polygon fill="#d29a5b" fill-opacity="0.501961" points="139,209 149,247 137,245" />
<polygon fill="#e6e7e7" fill-opacity="0.501961" points="61,168 166,173 63,210" />
<polygon fill="#ecfcff" fill-opacity="0.501961" points="138,219 130,219 133,235" />
<polygon fill="#c8925a" fill-opacity="0.501961" points="125,213 118,241 129,231" />
<polygon fill="#acb788" fill-opacity="0.501961" points="204,92 197,100 232,111" />
<polygon fill="#c39261" fill-opacity="0.501961" points="212,229 197,211 210,245" />
<polygon fill="#efffff" fill-opacity="0.501961" points="119,220 120,235 112,232" />
<polygon fill="#000000" fill-opacity="0.501961" points="241,112 248,117 237,118" />
<polygon fill="#b97943" fill-opacity="0.501961" points="144,156 159,148 181,154" />
<polygon fill="#c2c8ab" fill-opacity="0.501961" points="166,121 168,109 197,118" />
<polygon fill="#eeffff" fill-opacity="0.501961" points="168,224 168,235 160,222" />
<polygon fill="#fffffb" fill-opacity="0.501961" points="226,127 222,147 229,145" />
<polygon fill="#cc9256" fill-opacity="0.501961" points="110,213 99,246 112,236" />
<polygon fill="#ffffff" fill-opacity="0.501961" points="197,125 220,145 217,121" />
<polygon fill="#c69059" fill-opacity="0.501961" points="198,238 191,244 184,213" />
<polygon fill="#d5a975" fill-opacity="0.501961" points="43,157 35,183 34,157" />
<polygon fill="#c68c4e" fill-opacity="0.501961" points="55,212 66,218 51,255" />
<polygon fill="#f7fafc" fill-opacity="0.501961" points="211,156 164,172 108,158" />
<polygon fill="#dce9ee" fill-opacity="0.501961" points="54,235 44,234 47,197" />
<polygon fill="#ecedee" fill-opacity="0.501961" points="-16,167 -16,64 176,121" />
<polygon fill="#f5f8f8" fill-opacity="0.501961" points="271,74 204,81 165,57" />
<polygon fill="#799d2a" fill-opacity="0.501961" points="219,122 221,142 225,120" />
<polygon fill="#e6edf2" fill-opacity="0.501961" points="230,271 239,247 144,247" />
<polygon fill="#aea293" fill-opacity="0.501961" points="229,147 249,119 229,120" />
<polygon fill="#ffffff" fill-opacity="0.501961" points="191,109 195,102 209,103" />
<polygon fill="#a8b280" fill-opacity="0.501961" points="197,142 192,128 193,141" />
</g>
</svg>