<svg xmlns="http://www.w3.org/2000/svg" version="1.1" width="1024" height="1024">
<rect x="0" y="0" width="1024" height="1024" fill="#bfbfbf" />
<g transform="scale(4.000000) translate(0.5 0.5)">
<polygon fill="#000000" fill-opacity="0.501961" points="16,132 238,189 -16,192" />
<polygon fill="#000000" fill-opacity="0.501961" points="186,115 164,271 147,142" />
<polygon fill="#ffffff" fill-opacity="0.501961" points="19,164 -16,-16 271,19" />
<polygon fill="#fefefe" fill-opacity="0.501961" points="18,-16 271,195 263,0" />
<polygon fill="#090909" fill-opacity="0.501961" points="38,192 -16,151 183,158" />
<polygon fill="#ebebeb" fill-opacity="0.501961" points="-15,147 264,-16 142,158" />
<polygon fill="#000000" fill-opacity="0.501961" points="130,224 173,210 140,243" />
<polygon fill="#040404" fill-opacity="0.501961" points="-16,222 35,226 20,247" />
<polygon fill="#0a0a0a" fill-opacity="0.501961" points="148,155 171,128 188,204" />
<polygon fill="#2f2f2f" fill-opacity="0.501961" points="222,177 271,190 177,191" />
<polygon fill="#1e1e1e" fill-opacity="0.501961" points="166,188 32,150 -16,189" />
<polygon fill="#000000" fill-opacity="0.501961" points="159,249 164,196 175,214" />
<polygon fill="#c3c3c3" fill-opacity="0.501961" points="6,191 10,253 45,189" />
<polygon fill="#010101" fill-opacity="0.501961" points="-4,238 11,212 6,242" />
<polygon fill="#f4f4f4" fill-opacity="0.501961" points="169,243 157,244 163,270" />
<polygon fill="#e7e7e7" fill-opacity="0.501961" points="235,182 240,-16 179,165" />
<polygon fill="#e5e5e5" fill-opacity="0.501961" points="45,156 271,93 31,-16" />
<polygon fill="#000000" fill-opacity="0.501961" points="152,153 122,184 140,179" />
<polygon fill="#000000" fill-opacity="0.501961" points="13,231 21,245 34,228" />
<polygon fill="#010101" fill-opacity="0.501961" points="135,241 170,211 135,227" />
<polygon fill="#bcbcbc" fill-opacity="0.501961" points="149,187 165,211 94,238" />
<polygon fill="#252525" fill-opacity="0.501961" points="166,126 187,139 189,123" />
<polygon fill="#e8e8e8" fill-opacity="0.501961" points="-3,137 271,2 -1,-16" />
<polygon fill="#555555" fill-opacity="0.501961" points="100,171 162,169 118,153" />
<polygon fill="#0f0f0f" fill-opacity="0.501961" points="165,146 165,210 147,185" />
<polygon fill="#c8c8c8" fill-opacity="0.501961" points="177,185 191,224 169,198" />
<polygon fill="#b1b1b1" fill-opacity="0.501961" points="158,271 143,232 158,226" />
<polygon fill="#afafaf" fill-opacity="0.501961" points="136,183 156,158 146,185" />
<polygon fill="#151515" fill-opacity="0.501961" points="-16,187 2,154 31,188" />
<polygon fill="#808080" fill-opacity="0.501961" points="59,226 25,229 89,201" />
<polygon fill="#cbcbcb" fill-opacity="0.501961" points="172,139 271,139 208,179" />
<polygon fill="#cfcfcf" fill-opacity="0.501961" points="6,151 5,97 155,150" />
<polygon fill="#3b3b3b" fill-opacity="0.501961" points="109,236 116,244 95,237" />
<polygon fill="#4a4a4a" fill-opacity="0.501961" points="51,172 96,154 -16,150" />
<polygon fill="#666666" fill-opacity="0.501961" points="185,227 189,220 214,226" />
<polygon fill="#000000" fill-opacity="0.501961" points="187,193 183,182 181,200" />
<polygon fill="#161616" fill-opacity="0.501961" points="200,177 188,184 212,183" />
<polygon fill="#e2e2e2" fill-opacity="0.501961" points="152,148 159,64 -16,104" />
<polygon fill="#cbcbcb" fill-opacity="0.501961" points="28,229 101,191 -10,192" />
<polygon fill="#cccccc" fill-opacity="0.501961" points="7,237 12,258 18,234" />
<polygon fill="#d4d4d4" fill-opacity="0.501961" points="241,140 207,133 215,188" />
<polygon fill="#2e2e2e" fill-opacity="0.501961" points="180,189 173,127 152,140" />
<polygon fill="#ebebeb" fill-opacity="0.501961" points="197,144 120,-16 271,13" />
<polygon fill="#0a0a0a" fill-opacity="0.501961" points="156,244 167,240 167,207" />
<polygon fill="#d3d3d3" fill-opacity="0.501961" points="96,191 161,208 150,190" />
<polygon fill="#d5d5d5" fill-opacity="0.501961" points="172,206 201,191 253,205" />
<polygon fill="#545454" fill-opacity="0.501961" points="244,179 271,193 211,185" />
<polygon fill="#bababa" fill-opacity="0.501961" points="109,236 77,208 5,253" />
<polygon fill="#9b9b9b" fill-opacity="0.501961" points="197,178 176,161 185,179" />
<polygon fill="#010101" fill-opacity="0.501961" points="153,157 137,182 127,179" />
<polygon fill="#232323" fill-opacity="0.501961" points="150,153 187,127 176,120" />
<polygon fill="#858585" fill-opacity="0.501961" points="-8,215 27,212 -16,228" />
<polygon fill="#000000" fill-opacity="0.501961" points="131,224 141,245 142,235" />
<polygon fill="#2b2b2b" fill-opacity="0.501961" points="119,189 -13,187 12,148" />
<polygon fill="#9a9a9a" fill-opacity="0.501961" points="257,223 249,235 208,223" />
<polygon fill="#555555" fill-opacity="0.501961" points="178,181 180,147 171,151" />
<polygon fill="#e8e8e8" fill-opacity="0.501961" points="228,23 165,130 97,125" />
<polygon fill="#b3b3b3" fill-opacity="0.501961" points="153,194 163,212 118,229" />
<polygon fill="#3f3f3f" fill-opacity="0.501961" points="139,161 96,154 104,194" />
<polygon fill="#a9a9a9" fill-opacity="0.501961" points="167,253 202,218 172,217" />
<polygon fill="#cacaca" fill-opacity="0.501961" points="26,136 91,154 128,135" />
<polygon fill="#cecece" fill-opacity="0.501961" points="262,131 269,172 181,178" />
<polygon fill="#676767" fill-opacity="0.501961" points="131,176 138,166 120,155" />
<polygon fill="#0b0b0b" fill-opacity="0.501961" points="143,222 155,215 157,226" />
<polygon fill="#a0a0a0" fill-opacity="0.501961" points="159,223 159,247 138,248" />
<polygon fill="#000000" fill-opacity="0.501961" points="12,244 22,244 23,238" />
<polygon fill="#bfbfbf" fill-opacity="0.501961" points="-16,132 11,140 8,153" />
<polygon fill="#515151" fill-opacity="0.501961" points="25,234 52,219 32,224" />
<polygon fill="#000000" fill-opacity="0.501961" points="22,233 8,233 15,231" />
<polygon fill="#2d2d2d" fill-opacity="0.501961" points="120,187 76,151 30,189" />
<polygon fill="#979797" fill-opacity="0.501961" points="120,224 140,248 131,224" />
<polygon fill="#666666" fill-opacity="0.501961" points="80,203 100,195 88,204" />
<polygon fill="#cacaca" fill-opacity="0.501961" points="107,193 57,218 133,224" />
<polygon fill="#ececec" fill-opacity="0.501961" points="97,-2 259,0 266,93" />
<polygon fill="#8b8b8b" fill-opacity="0.501961" points="170,145 188,139 184,130" />
<polygon fill="#232323" fill-opacity="0.501961" points="153,155 174,121 171,195" />
<polygon fill="#d0d0d0" fill-opacity="0.501961" points="154,145 142,160 92,131" />
<polygon fill="#949494" fill-opacity="0.501961" points="137,229 137,223 150,235" />
<polygon fill="#000000" fill-opacity="0.501961" points="210,227 213,225 206,225" />
<polygon fill="#464646" fill-opacity="0.501961" points="176,208 157,225 175,218" />
<polygon fill="#101010" fill-opacity="0.501961" points="71,248 75,250 70,249" />
<polygon fill="#efefef" fill-opacity="0.501961" points="153,166 153,163 148,170" />
<polygon fill="#1d1d1d" fill-opacity="0.501961" points="4,242 -3,227 7,221" />
<polygon fill="#bebebe" fill-opacity="0.501961" points="35,226 10,215 8,229" />
<polygon fill="#949494" fill-opacity="0.501961" points="81,230 62,235 91,217" />
<polygon fill="#a2a2a2" fill-opacity="0.501961" points="261,175 228,182 256,184" />
<polygon fill="#ececec" fill-opacity="0.501961" points="175,200 179,191 173,192" />
<polygon fill="#565656" fill-opacity="0.501961" points="125,189 150,189 141,177" />
<polygon fill="#3b3b3b" fill-opacity="0.501961" points="219,178 246,190 222,189" />
<polygon fill="#2e2e2e" fill-opacity="0.501961" points="174,147 130,176 160,137" />
<polygon fill="#c4c4c4" fill-opacity="0.501961" points="158,271 69,241 175,244" />
<polygon fill="#c1c1c1" fill-opacity="0.501961" points="-16,130 19,152 62,153" />
<polygon fill="#dfdfdf" fill-opacity="0.501961" points="3,133 -16,32 143,132" />
<polygon fill="#3a3a3a" fill-opacity="0.501961" points="64,172 36,150 14,170" />
<polygon fill="#000000" fill-opacity="0.501961" points="185,197 183,181 174,177" />
<polygon fill="#535353" fill-opacity="0.501961" points="-16,230 12,230 1,238" />
<polygon fill="#b5b5b5" fill-opacity="0.501961" points="145,234 141,267 162,223" />
<polygon fill="#bdbdbd" fill-opacity="0.501961" points="186,198 254,224 173,223" />
<polygon fill="#bfbfbf" fill-opacity="0.501961" points="7,237 51,271 7,259" />
<polygon fill="#dadada" fill-opacity="0.501961" points="181,146 180,168 199,165" />
</g>
</svg>