<svg xmlns="http://www.w3.org/2000/svg" version="1.1" width="1024" height="1024">
<rect x="0" y="0" width="1024" height="1024" fill="#322e66" />
<g transform="scale(4.000000) translate(0.5 0.5)">
<polygon fill="#dbc8ff" fill-opacity="0.501961" points="-16,109 104,33 271,123" />
<polygon fill="#000001" fill-opacity="0.501961" points="271,213 89,89 -16,227" />
<polygon fill="#99d0ff" fill-opacity="0.501961" points="143,69 212,154 271,85" />
<polygon fill="#000014" fill-opacity="0.501961" points="271,67 252,-16 -16,3" />
<polygon fill="#00002d" fill-opacity="0.501961" points="136,-10 125,141 173,7" />
<polygon fill="#000007" fill-opacity="0.501961" points="186,169 -16,230 -5,124" />
<polygon fill="#c66fff" fill-opacity="0.501961" points="83,126 -16,115 71,59" />
<polygon fill="#000013" fill-opacity="0.501961" points="148,188 187,156 199,72" />
<polygon fill="#000000" fill-opacity="0.501961" points="10,79 -16,-1 101,-16" />
<polygon fill="#205fff" fill-opacity="0.501961" points="203,65 244,155 271,62" />
<polygon fill="#eaffff" fill-opacity="0.501961" points="198,84 190,148 236,90" />
<polygon fill="#0a1c95" fill-opacity="0.501961" points="222,28 29,15 241,92" />
<polygon fill="#00004c" fill-opacity="0.501961" points="271,141 158,136 251,236" />
<polygon fill="#7288b5" fill-opacity="0.501961" points="187,271 184,212 252,245" />
<polygon fill="#c0b8ff" fill-opacity="0.501961" points="118,104 67,39 129,51" />
<polygon fill="#ffffff" fill-opacity="0.501961" points="73,69 35,87 78,101" />
<polygon fill="#f3f1e9" fill-opacity="0.501961" points="150,61 144,107 186,108" />
<polygon fill="#4f1ba4" fill-opacity="0.501961" points="-16,81 82,113 88,165" />
<polygon fill="#5334d3" fill-opacity="0.501961" points="77,33 129,40 -4,97" />
<polygon fill="#34216c" fill-opacity="0.501961" points="76,71 198,158 79,120" />
<polygon fill="#3e3698" fill-opacity="0.501961" points="98,180 174,200 118,212" />
<polygon fill="#6484ff" fill-opacity="0.501961" points="186,148 271,129 271,59" />
<polygon fill="#000023" fill-opacity="0.501961" points="108,-16 271,-7 248,62" />
<polygon fill="#abbdff" fill-opacity="0.501961" points="182,24 187,38 168,34" />
<polygon fill="#fff8ff" fill-opacity="0.501961" points="228,127 190,134 197,101" />
<polygon fill="#b44ce8" fill-opacity="0.501961" points="-16,56 33,94 10,125" />
<polygon fill="#b7a1d9" fill-opacity="0.501961" points="132,73 83,46 95,111" />
<polygon fill="#00045d" fill-opacity="0.501961" points="189,140 183,95 200,61" />
<polygon fill="#2e3251" fill-opacity="0.501961" points="126,85 127,154 154,113" />
<polygon fill="#ffffff" fill-opacity="0.501961" points="251,94 271,76 242,86" />
<polygon fill="#241eb1" fill-opacity="0.501961" points="271,133 187,168 191,136" />
<polygon fill="#000000" fill-opacity="0.501961" points="145,214 176,202 182,245" />
<polygon fill="#0d002b" fill-opacity="0.501961" points="117,240 61,120 -16,150" />
<polygon fill="#080f38" fill-opacity="0.501961" points="129,107 177,2 135,13" />
<polygon fill="#ccd0e6" fill-opacity="0.501961" points="148,71 189,71 173,126" />
<polygon fill="#0a002b" fill-opacity="0.501961" points="-16,56 18,-16 79,63" />
<polygon fill="#664a76" fill-opacity="0.501961" points="85,271 95,210 7,271" />
<polygon fill="#07032b" fill-opacity="0.501961" points="271,155 271,216 113,187" />
<polygon fill="#e5e7ff" fill-opacity="0.501961" points="116,66 76,72 122,42" />
<polygon fill="#060211" fill-opacity="0.501961" points="118,174 88,164 77,76" />
<polygon fill="#000862" fill-opacity="0.501961" points="259,51 161,6 242,84" />
<polygon fill="#486fea" fill-opacity="0.501961" points="194,85 179,128 182,72" />
<polygon fill="#020012" fill-opacity="0.501961" points="-16,126 -4,200 125,215" />
<polygon fill="#012de5" fill-opacity="0.501961" points="246,98 252,151 271,85" />
<polygon fill="#000325" fill-opacity="0.501961" points="132,34 271,2 17,-16" />
<polygon fill="#d08fff" fill-opacity="0.501961" points="85,68 6,109 51,66" />
<polygon fill="#0d0032" fill-opacity="0.501961" points="81,83 104,81 76,76" />
<polygon fill="#364cc7" fill-opacity="0.501961" points="151,68 150,50 208,73" />
<polygon fill="#696780" fill-opacity="0.501961" points="115,242 117,222 170,222" />
<polygon fill="#7e75bf" fill-opacity="0.501961" points="145,121 173,124 137,88" />
<polygon fill="#264693" fill-opacity="0.501961" points="211,208 271,250 232,271" />
<polygon fill="#5196ff" fill-opacity="0.501961" points="202,72 200,84 243,93" />
<polygon fill="#bec7ff" fill-opacity="0.501961" points="131,151 130,140 125,150" />
<polygon fill="#00000b" fill-opacity="0.501961" points="110,220 103,172 92,253" />
<polygon fill="#582ba5" fill-opacity="0.501961" points="118,113 85,109 81,76" />
<polygon fill="#2e1965" fill-opacity="0.501961" points="98,16 11,89 -2,61" />
<polygon fill="#665deb" fill-opacity="0.501961" points="98,25 63,73 106,60" />
<polygon fill="#421953" fill-opacity="0.501961" points="97,208 16,271 -16,232" />
<polygon fill="#000000" fill-opacity="0.501961" points="187,149 180,184 110,165" />
<polygon fill="#200c4e" fill-opacity="0.501961" points="86,137 -6,119 93,191" />
<polygon fill="#0b0c14" fill-opacity="0.501961" points="97,167 132,137 144,96" />
<polygon fill="#c9cad7" fill-opacity="0.501961" points="170,71 144,86 160,121" />
<polygon fill="#0927cb" fill-opacity="0.501961" points="271,65 191,69 236,88" />
<polygon fill="#6f7497" fill-opacity="0.501961" points="200,271 234,217 183,230" />
<polygon fill="#000000" fill-opacity="0.501961" points="76,76 78,86 85,72" />
<polygon fill="#5018a1" fill-opacity="0.501961" points="-16,115 57,110 11,132" />
<polygon fill="#4b4495" fill-opacity="0.501961" points="145,108 178,127 128,130" />
<polygon fill="#050214" fill-opacity="0.501961" points="-10,50 3,-16 64,21" />
<polygon fill="#9fbbff" fill-opacity="0.501961" points="230,128 200,139 213,89" />
<polygon fill="#f9feff" fill-opacity="0.501961" points="150,70 186,73 153,81" />
<polygon fill="#1a102f" fill-opacity="0.501961" points="75,77 81,70 101,70" />
<polygon fill="#ebdde4" fill-opacity="0.501961" points="108,96 129,84 97,85" />
<polygon fill="#4c446f" fill-opacity="0.501961" points="144,80 99,80 123,87" />
<polygon fill="#40374b" fill-opacity="0.501961" points="89,253 161,222 205,271" />
<polygon fill="#fffcfe" fill-opacity="0.501961" points="83,74 101,80 111,72" />
<polygon fill="#fef7ff" fill-opacity="0.501961" points="50,84 78,99 74,79" />
<polygon fill="#3d329a" fill-opacity="0.501961" points="68,30 52,63 84,65" />
<polygon fill="#523593" fill-opacity="0.501961" points="159,179 171,184 142,188" />
<polygon fill="#6b668a" fill-opacity="0.501961" points="163,79 172,79 160,93" />
<polygon fill="#29285f" fill-opacity="0.501961" points="242,213 179,226 180,208" />
<polygon fill="#52496a" fill-opacity="0.501961" points="98,70 112,74 122,68" />
<polygon fill="#030007" fill-opacity="0.501961" points="176,144 186,156 193,108" />
<polygon fill="#614979" fill-opacity="0.501961" points="175,195 147,209 124,202" />
<polygon fill="#231f81" fill-opacity="0.501961" points="150,143 163,150 168,101" />
<polygon fill="#2d64f0" fill-opacity="0.501961" points="222,113 238,85 262,113" />
<polygon fill="#d7d0f3" fill-opacity="0.501961" points="129,70 101,72 118,80" />
<polygon fill="#2a3aa9" fill-opacity="0.501961" points="141,73 143,42 111,37" />
<polygon fill="#7e8cfa" fill-opacity="0.501961" points="169,30 187,28 177,39" />
<polygon fill="#0e1453" fill-opacity="0.501961" points="176,9 170,37 100,34" />
<polygon fill="#8748c0" fill-opacity="0.501961" points="24,70 42,70 38,91" />
<polygon fill="#00094b" fill-opacity="0.501961" points="245,28 204,69 184,37" />
<polygon fill="#bdb9e0" fill-opacity="0.501961" points="116,101 130,56 130,80" />
<polygon fill="#6470b7" fill-opacity="0.501961" points="138,96 135,116 131,101" />
<polygon fill="#dcdafa" fill-opacity="0.501961" points="122,47 120,63 76,73" />
<polygon fill="#0f0d18" fill-opacity="0.501961" points="129,151 138,126 166,160" />
<polygon fill="#13115b" fill-opacity="0.501961" points="185,152 185,192 271,144" />
<polygon fill="#5c568c" fill-opacity="0.501961" points="160,79 166,83 148,82" />
<polygon fill="#030710" fill-opacity="0.501961" points="259,183 243,232 236,185" />
<polygon fill="#daffff" fill-opacity="0.501961" points="245,83 245,93 271,82" />
<polygon fill="#1c1a94" fill-opacity="0.501961" points="183,134 163,133 187,111" />
</g>
</svg>