<svg xmlns="http://www.w3.org/2000/svg" version="1.1" width="1024" height="1024">
<rect x="0" y="0" width="1024" height="1024" fill="#9ca7b6" />
<g transform="scale(4.000000) translate(0.5 0.5)">
<polygon fill="#220000" fill-opacity="0.501961" points="60,271 80,99 271,222" />
<polygon fill="#f9ffff" fill-opacity="0.501961" points="-16,6 255,-16 271,185" />
<polygon fill="#610000" fill-opacity="0.501961" points="40,149 187,271 206,130" />
<polygon fill="#cbffff" fill-opacity="0.501961" points="5,-16 -16,148 271,97" />
<polygon fill="#a80000" fill-opacity="0.501961" points="75,126 201,146 117,249" />
<polygon fill="#24acf1" fill-opacity="0.501961" points="120,59 57,13 41,202" />
<polygon fill="#68cef5" fill-opacity="0.501961" points="210,245 196,70 271,227" />
<polygon fill="#00235b" fill-opacity="0.501961" points="271,258 111,215 -16,258" />
<polygon fill="#ffffff" fill-opacity="0.501961" points="71,72 -7,147 3,-16" />
<polygon fill="#ffffff" fill-opacity="0.501961" points="-16,160 24,238 80,195" />
<polygon fill="#ffffff" fill-opacity="0.501961" points="263,-16 251,125 69,11" />
<polygon fill="#007aaf" fill-opacity="0.501961" points="153,109 237,108 202,155" />
<polygon fill="#0068dc" fill-opacity="0.501961" points="79,154 77,200 -16,134" />
<polygon fill="#4c0000" fill-opacity="0.501961" points="204,130 76,227 183,248" />
<polygon fill="#f90000" fill-opacity="0.501961" points="183,145 84,129 143,194" />
<polygon fill="#003dac" fill-opacity="0.501961" points="51,38 65,1 77,83" />
<polygon fill="#ffffff" fill-opacity="0.501961" points="-16,127 55,148 23,-16" />
<polygon fill="#096fa0" fill-opacity="0.501961" points="-16,223 12,271 178,250" />
<polygon fill="#160a2a" fill-opacity="0.501961" points="118,250 78,107 69,186" />
<polygon fill="#a1f0ff" fill-opacity="0.501961" points="63,-14 143,133 97,130" />
<polygon fill="#fffff5" fill-opacity="0.501961" points="271,235 239,162 239,206" />
<polygon fill="#79def1" fill-opacity="0.501961" points="72,186 75,233 22,241" />
<polygon fill="#005893" fill-opacity="0.501961" points="208,197 145,271 224,250" />
<polygon fill="#89c2d6" fill-opacity="0.501961" points="255,102 219,68 210,234" />
<polygon fill="#6ceafb" fill-opacity="0.501961" points="90,128 198,139 194,111" />
<polygon fill="#fffffe" fill-opacity="0.501961" points="65,72 -16,151 36,-16" />
<polygon fill="#048ae6" fill-opacity="0.501961" points="15,175 77,158 -16,131" />
<polygon fill="#ffffff" fill-opacity="0.501961" points="271,81 68,33 251,-16" />
<polygon fill="#f9f9f2" fill-opacity="0.501961" points="68,186 -16,160 -6,230" />
<polygon fill="#00a6e5" fill-opacity="0.501961" points="136,73 82,48 111,48" />
<polygon fill="#d8fffd" fill-opacity="0.501961" points="71,152 77,79 52,147" />
<polygon fill="#0087d4" fill-opacity="0.501961" points="51,125 44,105 74,63" />
<polygon fill="#004696" fill-opacity="0.501961" points="99,112 85,111 74,68" />
<polygon fill="#600000" fill-opacity="0.501961" points="206,171 81,165 138,249" />
<polygon fill="#004f9d" fill-opacity="0.501961" points="230,112 193,109 193,135" />
<polygon fill="#fcffff" fill-opacity="0.501961" points="214,94 92,106 109,70" />
<polygon fill="#d0f0ec" fill-opacity="0.501961" points="236,210 204,148 208,202" />
<polygon fill="#00447c" fill-opacity="0.501961" points="20,271 81,206 114,258" />
<polygon fill="#11242e" fill-opacity="0.501961" points="50,245 2,250 -16,234" />
<polygon fill="#00418d" fill-opacity="0.501961" points="226,160 215,135 236,151" />
<polygon fill="#11071e" fill-opacity="0.501961" points="201,137 205,204 170,138" />
<polygon fill="#ccffff" fill-opacity="0.501961" points="66,177 43,161 14,161" />
<polygon fill="#000d3d" fill-opacity="0.501961" points="86,166 69,153 83,103" />
<polygon fill="#fffefc" fill-opacity="0.501961" points="25,134 -16,2 65,-12" />
<polygon fill="#95edff" fill-opacity="0.501961" points="85,-16 83,81 61,22" />
<polygon fill="#208caf" fill-opacity="0.501961" points="106,102 142,110 90,114" />
<polygon fill="#085b92" fill-opacity="0.501961" points="235,204 239,164 225,186" />
<polygon fill="#dfd6d3" fill-opacity="0.501961" points="14,239 57,238 54,199" />
<polygon fill="#acd1d0" fill-opacity="0.501961" points="215,251 271,222 223,222" />
<polygon fill="#005fad" fill-opacity="0.501961" points="192,234 251,218 205,208" />
<polygon fill="#002b95" fill-opacity="0.501961" points="62,14 69,70 55,37" />
<polygon fill="#f70000" fill-opacity="0.501961" points="118,168 179,146 100,131" />
<polygon fill="#970507" fill-opacity="0.501961" points="139,245 94,226 101,206" />
<polygon fill="#fffff8" fill-opacity="0.501961" points="252,125 271,189 231,160" />
<polygon fill="#0043a2" fill-opacity="0.501961" points="52,147 -16,134 10,153" />
<polygon fill="#21bfe4" fill-opacity="0.501961" points="45,108 48,132 72,152" />
<polygon fill="#710000" fill-opacity="0.501961" points="135,134 191,174 192,142" />
<polygon fill="#cffeff" fill-opacity="0.501961" points="74,79 55,119 85,105" />
<polygon fill="#ffffff" fill-opacity="0.501961" points="271,116 227,131 235,104" />
<polygon fill="#00669d" fill-opacity="0.501961" points="45,223 35,229 34,245" />
<polygon fill="#00516a" fill-opacity="0.501961" points="234,243 264,252 247,271" />
<polygon fill="#81f4ff" fill-opacity="0.501961" points="12,248 32,254 -15,269" />
<polygon fill="#2d021e" fill-opacity="0.501961" points="199,177 152,249 200,223" />
<polygon fill="#fff8eb" fill-opacity="0.501961" points="271,245 237,196 271,167" />
<polygon fill="#005f9a" fill-opacity="0.501961" points="11,164 36,178 64,177" />
<polygon fill="#0081cc" fill-opacity="0.501961" points="85,117 78,79 95,85" />
<polygon fill="#a30000" fill-opacity="0.501961" points="142,161 181,219 145,218" />
<polygon fill="#1ba7d7" fill-opacity="0.501961" points="138,3 154,9 123,6" />
<polygon fill="#2890d5" fill-opacity="0.501961" points="143,268 157,241 113,251" />
<polygon fill="#41a5c8" fill-opacity="0.501961" points="270,105 236,107 227,93" />
<polygon fill="#0088c6" fill-opacity="0.501961" points="3,223 22,244 20,225" />
<polygon fill="#7cf8ff" fill-opacity="0.501961" points="-16,144 -16,162 46,166" />
<polygon fill="#23b9d7" fill-opacity="0.501961" points="76,227 57,199 56,239" />
<polygon fill="#c3f6ff" fill-opacity="0.501961" points="133,129 85,114 177,112" />
<polygon fill="#0e0007" fill-opacity="0.501961" points="186,245 125,199 136,225" />
<polygon fill="#e9feff" fill-opacity="0.501961" points="217,108 95,-14 80,32" />
<polygon fill="#91c4c3" fill-opacity="0.501961" points="201,243 204,231 237,251" />
<polygon fill="#0054b9" fill-opacity="0.501961" points="59,20 77,-9 69,-16" />
<polygon fill="#3c91ef" fill-opacity="0.501961" points="77,162 65,174 16,148" />
<polygon fill="#00449e" fill-opacity="0.501961" points="74,115 74,137 91,96" />
<polygon fill="#a5e7f0" fill-opacity="0.501961" points="59,181 65,224 75,202" />
<polygon fill="#f9f4f2" fill-opacity="0.501961" points="-2,10 -10,131 55,148" />
<polygon fill="#1ea3cc" fill-opacity="0.501961" points="246,134 231,130 267,125" />
<polygon fill="#003d89" fill-opacity="0.501961" points="58,177 74,178 74,194" />
<polygon fill="#efe7e2" fill-opacity="0.501961" points="-16,200 63,186 31,236" />
<polygon fill="#9cd3dd" fill-opacity="0.501961" points="233,181 229,214 215,210" />
<polygon fill="#17312f" fill-opacity="0.501961" points="232,248 204,246 183,262" />
<polygon fill="#5fd1fc" fill-opacity="0.501961" points="61,28 97,-16 68,49" />
<polygon fill="#feffff" fill-opacity="0.501961" points="125,-12 264,100 222,-16" />
<polygon fill="#c2e6eb" fill-opacity="0.501961" points="265,57 169,105 212,111" />
<polygon fill="#a1ecfb" fill-opacity="0.501961" points="88,111 83,128 139,111" />
<polygon fill="#fffffc" fill-opacity="0.501961" points="38,-16 35,117 63,77" />
<polygon fill="#00567b" fill-opacity="0.501961" points="197,111 180,106 162,111" />
<polygon fill="#0a7198" fill-opacity="0.501961" points="257,237 251,228 228,229" />
<polygon fill="#0057aa" fill-opacity="0.501961" points="67,72 62,36 80,76" />
<polygon fill="#ecf3ea" fill-opacity="0.501961" points="244,233 271,247 229,242" />
<polygon fill="#59323a" fill-opacity="0.501961" points="73,202 89,145 94,223" />
<polygon fill="#d0ffff" fill-opacity="0.501961" points="71,176 53,174 53,167" />
<polygon fill="#080d2a" fill-opacity="0.501961" points="73,134 105,131 85,127" />
<polygon fill="#1b8ac5" fill-opacity="0.501961" points="232,133 203,140 189,128" />
</g>
</svg>