<svg xmlns="http://www.w3.org/2000/svg" version="1.1" width="1024" height="1024">
<rect x="0" y="0" width="1024" height="1024" fill="#507db9" />
<g transform="scale(4.000000) translate(0.5 0.5)">
<polygon fill="#ccd4e4" fill-opacity="0.501961" points="262,250 -16,259 57,177" />
<polygon fill="#24549b" fill-opacity="0.501961" points="271,158 7,184 250,-16" />
<polygon fill="#a3c6ea" fill-opacity="0.501961" points="143,207 271,182 250,240" />
<polygon fill="#0f0700" fill-opacity="0.501961" points="78,167 16,178 114,187" />
<polygon fill="#3070c6" fill-opacity="0.501961" points="261,-16 94,184 -16,2" />
<polygon fill="#9fc4d6" fill-opacity="0.501961" points="74,176 -1,228 -1,188" />
<polygon fill="#678ebb" fill-opacity="0.501961" points="271,255 42,105 165,265" />
<polygon fill="#000000" fill-opacity="0.501961" points="12,103 -4,118 42,105" />
<polygon fill="#000000" fill-opacity="0.501961" points="17,187 34,171 -16,187" />
<polygon fill="#1c2b36" fill-opacity="0.501961" points="166,147 187,159 108,186" />
<polygon fill="#070100" fill-opacity="0.501961" points="36,158 59,151 87,161" />
<polygon fill="#90ccf0" fill-opacity="0.501961" points="85,165 -10,179 -15,152" />
<polygon fill="#000000" fill-opacity="0.501961" points="46,162 -12,147 18,146" />
<polygon fill="#63a9ea" fill-opacity="0.501961" points="22,108 -16,139 90,160" />
<polygon fill="#c7bcce" fill-opacity="0.501961" points="-16,251 94,217 167,271" />
<polygon fill="#7db3e7" fill-opacity="0.501961" points="198,193 164,161 105,191" />
<polygon fill="#000000" fill-opacity="0.501961" points="92,183 133,198 108,196" />
<polygon fill="#000000" fill-opacity="0.501961" points="217,189 199,188 186,198" />
<polygon fill="#0f181e" fill-opacity="0.501961" points="52,173 23,200 49,188" />
<polygon fill="#17252f" fill-opacity="0.501961" points="144,155 104,148 75,162" />
<polygon fill="#0b0c09" fill-opacity="0.501961" points="218,166 191,159 244,156" />
<polygon fill="#8dc9fb" fill-opacity="0.501961" points="71,173 110,226 51,179" />
<polygon fill="#242117" fill-opacity="0.501961" points="28,212 1,233 24,202" />
<polygon fill="#000000" fill-opacity="0.501961" points="63,169 110,184 87,187" />
<polygon fill="#1f56a9" fill-opacity="0.501961" points="271,-4 126,-12 271,115" />
<polygon fill="#18324f" fill-opacity="0.501961" points="80,48 65,89 35,111" />
<polygon fill="#14150f" fill-opacity="0.501961" points="232,189 211,188 253,175" />
<polygon fill="#8cc5f2" fill-opacity="0.501961" points="123,176 82,161 89,180" />
<polygon fill="#91bbe1" fill-opacity="0.501961" points="-14,191 44,179 11,223" />
<polygon fill="#000000" fill-opacity="0.501961" points="47,176 27,171 0,186" />
<polygon fill="#4994e3" fill-opacity="0.501961" points="85,-16 151,47 92,72" />
<polygon fill="#000000" fill-opacity="0.501961" points="137,195 128,196 147,204" />
<polygon fill="#000000" fill-opacity="0.501961" points="235,159 249,155 252,145" />
<polygon fill="#97bfe5" fill-opacity="0.501961" points="31,189 118,229 172,207" />
<polygon fill="#000000" fill-opacity="0.501961" points="-15,268 6,225 -16,237" />
<polygon fill="#091118" fill-opacity="0.501961" points="33,194 30,186 20,206" />
<polygon fill="#000000" fill-opacity="0.501961" points="190,197 200,191 176,196" />
<polygon fill="#5781c2" fill-opacity="0.501961" points="152,218 127,271 226,214" />
<polygon fill="#5a8bca" fill-opacity="0.501961" points="255,159 158,165 196,192" />
<polygon fill="#4779bf" fill-opacity="0.501961" points="226,71 127,154 11,113" />
<polygon fill="#000000" fill-opacity="0.501961" points="154,158 136,172 168,160" />
<polygon fill="#68a2e0" fill-opacity="0.501961" points="109,181 161,158 86,163" />
<polygon fill="#9ac6f1" fill-opacity="0.501961" points="148,200 181,192 117,189" />
<polygon fill="#0b0400" fill-opacity="0.501961" points="164,204 145,203 181,195" />
<polygon fill="#336dc0" fill-opacity="0.501961" points="10,-16 -16,116 56,92" />
<polygon fill="#2c3c45" fill-opacity="0.501961" points="45,222 72,230 63,222" />
<polygon fill="#000000" fill-opacity="0.501961" points="164,136 162,162 167,151" />
<polygon fill="#86b0dd" fill-opacity="0.501961" points="261,215 271,177 131,213" />
<polygon fill="#030703" fill-opacity="0.501961" points="29,155 62,151 54,159" />
<polygon fill="#091623" fill-opacity="0.501961" points="82,40 77,51 99,33" />
<polygon fill="#000000" fill-opacity="0.501961" points="108,183 120,179 114,184" />
<polygon fill="#3a6bb4" fill-opacity="0.501961" points="167,-12 238,152 165,160" />
<polygon fill="#5c94d3" fill-opacity="0.501961" points="19,151 38,107 97,158" />
<polygon fill="#79a9d9" fill-opacity="0.501961" points="151,201 172,178 234,182" />
<polygon fill="#000000" fill-opacity="0.501961" points="92,189 69,169 83,167" />
<polygon fill="#497ec3" fill-opacity="0.501961" points="123,154 41,127 78,53" />
<polygon fill="#000000" fill-opacity="0.501961" points="245,180 260,172 252,172" />
<polygon fill="#96bfe6" fill-opacity="0.501961" points="180,198 207,208 157,204" />
<polygon fill="#000000" fill-opacity="0.501961" points="-1,147 -4,153 21,153" />
<polygon fill="#8eb8de" fill-opacity="0.501961" points="133,212 97,188 50,227" />
<polygon fill="#02090b" fill-opacity="0.501961" points="24,216 24,204 19,221" />
<polygon fill="#78b1e3" fill-opacity="0.501961" points="84,164 53,158 32,174" />
<polygon fill="#a9c0dc" fill-opacity="0.501961" points="5,229 62,226 -2,259" />
<polygon fill="#000000" fill-opacity="0.501961" points="115,183 135,175 128,173" />
<polygon fill="#000000" fill-opacity="0.501961" points="93,162 92,156 73,161" />
<polygon fill="#000000" fill-opacity="0.501961" points="33,165 28,186 25,178" />
<polygon fill="#000000" fill-opacity="0.501961" points="0,119 9,108 20,105" />
<polygon fill="#13202e" fill-opacity="0.501961" points="161,156 147,154 178,146" />
<polygon fill="#87b5dc" fill-opacity="0.501961" points="73,173 28,203 78,232" />
<polygon fill="#000003" fill-opacity="0.501961" points="48,181 53,185 42,190" />
<polygon fill="#000000" fill-opacity="0.501961" points="25,179 -7,191 -16,182" />
<polygon fill="#0c1521" fill-opacity="0.501961" points="30,107 51,104 58,93" />
<polygon fill="#2e485a" fill-opacity="0.501961" points="26,212 46,222 36,222" />
<polygon fill="#96bfe6" fill-opacity="0.501961" points="30,191 -4,230 -16,193" />
<polygon fill="#524a53" fill-opacity="0.501961" points="70,228 88,229 76,232" />
<polygon fill="#070f18" fill-opacity="0.501961" points="158,246 160,271 150,271" />
<polygon fill="#000000" fill-opacity="0.501961" points="192,160 163,159 177,164" />
<polygon fill="#83b5dd" fill-opacity="0.501961" points="46,179 25,181 45,189" />
<polygon fill="#6b8ac1" fill-opacity="0.501961" points="185,264 248,219 271,256" />
<polygon fill="#a0bada" fill-opacity="0.501961" points="2,238 25,214 78,247" />
<polygon fill="#09141a" fill-opacity="0.501961" points="55,88 64,77 55,99" />
<polygon fill="#000000" fill-opacity="0.501961" points="193,197 207,189 182,195" />
<polygon fill="#7fb4e3" fill-opacity="0.501961" points="31,172 -8,153 -16,185" />
<polygon fill="#4781cb" fill-opacity="0.501961" points="29,105 69,58 51,97" />
<polygon fill="#000000" fill-opacity="0.501961" points="82,171 63,169 47,177" />
<polygon fill="#0f2039" fill-opacity="0.501961" points="249,147 251,130 257,129" />
<polygon fill="#000000" fill-opacity="0.501961" points="110,180 126,180 100,187" />
<polygon fill="#000000" fill-opacity="0.501961" points="18,106 40,104 29,109" />
<polygon fill="#000000" fill-opacity="0.501961" points="59,171 51,178 30,176" />
<polygon fill="#5f7c95" fill-opacity="0.501961" points="61,211 40,194 79,211" />
<polygon fill="#8eb8e2" fill-opacity="0.501961" points="124,194 109,191 126,180" />
<polygon fill="#a2c4e6" fill-opacity="0.501961" points="104,229 42,198 36,219" />
<polygon fill="#000000" fill-opacity="0.501961" points="24,210 24,204 20,199" />
<polygon fill="#000000" fill-opacity="0.501961" points="75,169 96,184 88,189" />
<polygon fill="#000000" fill-opacity="0.501961" points="34,160 51,157 18,153" />
<polygon fill="#588fce" fill-opacity="0.501961" points="159,158 107,173 108,157" />
<polygon fill="#94bce1" fill-opacity="0.501961" points="8,223 18,184 22,213" />
<polygon fill="#437fcb" fill-opacity="0.501961" points="48,109 87,40 145,58" />
<polygon fill="#64a3df" fill-opacity="0.501961" points="15,124 48,155 22,152" />
<polygon fill="#000000" fill-opacity="0.501961" points="139,200 155,202 146,204" />
</g>
</svg>