<svg xmlns="http://www.w3.org/2000/svg" version="1.1" width="1024" height="1024">
<rect x="0" y="0" width="1024" height="1024" fill="#686c73" />
<g transform="scale(4.000000) translate(0.5 0.5)">
<polygon fill="#ffffff" fill-opacity="0.501961" points="271,271 230,201 -16,246" />
<polygon fill="#ffffff" fill-opacity="0.501961" points="10,271 -16,212 227,226" />
<polygon fill="#2b3138" fill-opacity="0.501961" points="-16,212 258,102 252,221" />
<polygon fill="#ffffff" fill-opacity="0.501961" points="132,146 42,170 14,145" />
<polygon fill="#3c414a" fill-opacity="0.501961" points="-6,153 2,-16 271,93" />
<polygon fill="#ffffff" fill-opacity="0.501961" points="255,217 91,256 255,267" />
<polygon fill="#000000" fill-opacity="0.501961" points="-16,203 35,214 30,158" />
<polygon fill="#ffffff" fill-opacity="0.501961" points="106,144 132,169 141,146" />
<polygon fill="#d3d7e1" fill-opacity="0.501961" points="37,187 85,175 130,189" />
<polygon fill="#0e1013" fill-opacity="0.501961" points="31,178 96,182 124,154" />
<polygon fill="#ffffff" fill-opacity="0.501961" points="93,167 103,146 20,148" />
<polygon fill="#ebf0fa" fill-opacity="0.501961" points="130,218 9,271 -14,224" />
<polygon fill="#000000" fill-opacity="0.501961" points="115,209 155,187 41,193" />
<polygon fill="#dde4ef" fill-opacity="0.501961" points="180,271 184,200 271,241" />
<polygon fill="#4b5058" fill-opacity="0.501961" points="226,222 -16,3 270,6" />
<polygon fill="#5e6571" fill-opacity="0.501961" points="166,137 136,222 175,223" />
<polygon fill="#fbffff" fill-opacity="0.501961" points="57,185 37,165 42,188" />
<polygon fill="#000000" fill-opacity="0.501961" points="124,168 91,171 111,148" />
<polygon fill="#191c1f" fill-opacity="0.501961" points="170,197 197,202 200,104" />
<polygon fill="#f9ffff" fill-opacity="0.501961" points="20,140 10,174 25,155" />
<polygon fill="#000000" fill-opacity="0.501961" points="-6,28 14,48 29,23" />
<polygon fill="#6f7481" fill-opacity="0.501961" points="-16,32 61,138 123,121" />
<polygon fill="#000000" fill-opacity="0.501961" points="54,178 48,163 69,167" />
<polygon fill="#090a0d" fill-opacity="0.501961" points="70,211 22,188 98,191" />
<polygon fill="#e0e5f3" fill-opacity="0.501961" points="93,183 122,190 132,182" />
<polygon fill="#343a40" fill-opacity="0.501961" points="-12,244 26,114 -16,57" />
<polygon fill="#848994" fill-opacity="0.501961" points="163,126 225,111 235,132" />
<polygon fill="#282b32" fill-opacity="0.501961" points="262,67 213,50 179,70" />
<polygon fill="#0d0e12" fill-opacity="0.501961" points="1,201 22,159 42,179" />
<polygon fill="#282d33" fill-opacity="0.501961" points="263,192 225,148 271,56" />
<polygon fill="#a6afbd" fill-opacity="0.501961" points="209,204 201,196 230,184" />
<polygon fill="#eaeff8" fill-opacity="0.501961" points="53,181 36,181 22,191" />
<polygon fill="#252628" fill-opacity="0.501961" points="175,223 165,212 137,220" />
<polygon fill="#7b7e85" fill-opacity="0.501961" points="143,213 94,201 59,215" />
<polygon fill="#e0e5ef" fill-opacity="0.501961" points="16,144 55,165 98,146" />
<polygon fill="#d3def1" fill-opacity="0.501961" points="135,168 109,144 138,144" />
<polygon fill="#8c93a0" fill-opacity="0.501961" points="228,149 232,164 197,172" />
<polygon fill="#16191e" fill-opacity="0.501961" points="111,145 84,143 101,131" />
<polygon fill="#33383f" fill-opacity="0.501961" points="173,131 203,86 114,133" />
<polygon fill="#b1c5d2" fill-opacity="0.501961" points="117,169 107,178 125,179" />
<polygon fill="#838c9a" fill-opacity="0.501961" points="151,191 166,171 140,151" />
<polygon fill="#181d22" fill-opacity="0.501961" points="123,165 146,165 140,212" />
<polygon fill="#26292f" fill-opacity="0.501961" points="169,150 213,108 173,178" />
<polygon fill="#9aa3ac" fill-opacity="0.501961" points="95,187 83,169 96,169" />
<polygon fill="#747781" fill-opacity="0.501961" points="87,79 25,77 139,49" />
<polygon fill="#797d86" fill-opacity="0.501961" points="170,80 189,91 209,30" />
<polygon fill="#bfcada" fill-opacity="0.501961" points="224,181 238,176 221,174" />
<polygon fill="#e0e4ea" fill-opacity="0.501961" points="74,212 109,271 -16,252" />
<polygon fill="#a1a7b4" fill-opacity="0.501961" points="85,229 155,230 118,217" />
<polygon fill="#c0c8d5" fill-opacity="0.501961" points="172,135 186,133 187,118" />
<polygon fill="#a8b3c7" fill-opacity="0.501961" points="43,179 15,145 52,162" />
<polygon fill="#cad4e3" fill-opacity="0.501961" points="195,181 214,177 199,185" />
<polygon fill="#bfc8d6" fill-opacity="0.501961" points="168,224 235,216 205,208" />
<polygon fill="#666b73" fill-opacity="0.501961" points="152,55 121,65 170,171" />
<polygon fill="#e1e5ec" fill-opacity="0.501961" points="253,210 271,254 227,257" />
<polygon fill="#010002" fill-opacity="0.501961" points="76,182 68,165 90,166" />
<polygon fill="#777b85" fill-opacity="0.501961" points="131,23 141,49 217,38" />
<polygon fill="#0b0d0b" fill-opacity="0.501961" points="108,104 116,90 121,122" />
<polygon fill="#3d4247" fill-opacity="0.501961" points="61,94 15,144 62,144" />
<polygon fill="#4e535b" fill-opacity="0.501961" points="192,-8 32,31 13,95" />
<polygon fill="#818a92" fill-opacity="0.501961" points="52,194 33,208 56,207" />
<polygon fill="#050204" fill-opacity="0.501961" points="28,210 68,207 54,216" />
<polygon fill="#070a0d" fill-opacity="0.501961" points="223,172 226,160 201,176" />
<polygon fill="#7b7e86" fill-opacity="0.501961" points="196,94 211,62 230,77" />
<polygon fill="#adb3bc" fill-opacity="0.501961" points="198,134 222,110 211,131" />
<polygon fill="#7f889b" fill-opacity="0.501961" points="191,200 212,216 157,201" />
<polygon fill="#7e838e" fill-opacity="0.501961" points="28,92 86,111 25,113" />
<polygon fill="#8f939e" fill-opacity="0.501961" points="118,51 88,25 103,27" />
<polygon fill="#787d86" fill-opacity="0.501961" points="42,38 52,53 -13,65" />
<polygon fill="#e5e8ef" fill-opacity="0.501961" points="251,231 113,271 -16,234" />
<polygon fill="#d3d9e4" fill-opacity="0.501961" points="74,185 46,178 33,189" />
<polygon fill="#000000" fill-opacity="0.501961" points="106,180 96,181 96,172" />
<polygon fill="#2c2e34" fill-opacity="0.501961" points="132,209 69,192 52,210" />
<polygon fill="#767a84" fill-opacity="0.501961" points="33,177 24,169 18,178" />
<polygon fill="#a7adb8" fill-opacity="0.501961" points="204,109 223,106 204,102" />
<polygon fill="#e7edf8" fill-opacity="0.501961" points="94,164 76,155 102,156" />
<polygon fill="#1f2227" fill-opacity="0.501961" points="193,131 169,141 233,152" />
<polygon fill="#6c727d" fill-opacity="0.501961" points="195,162 179,147 192,141" />
<polygon fill="#020505" fill-opacity="0.501961" points="168,57 152,53 154,63" />
<polygon fill="#7d8797" fill-opacity="0.501961" points="135,168 126,189 141,177" />
<polygon fill="#868e97" fill-opacity="0.501961" points="117,169 104,183 104,169" />
<polygon fill="#a5abba" fill-opacity="0.501961" points="148,155 147,148 162,144" />
<polygon fill="#04070a" fill-opacity="0.501961" points="200,80 205,64 189,79" />
<polygon fill="#070b0b" fill-opacity="0.501961" points="150,186 124,172 146,198" />
<polygon fill="#000000" fill-opacity="0.501961" points="138,165 140,154 145,176" />
<polygon fill="#acafba" fill-opacity="0.501961" points="142,6 139,14 126,-9" />
<polygon fill="#adb4c1" fill-opacity="0.501961" points="214,136 213,147 222,136" />
<polygon fill="#2a2e36" fill-opacity="0.501961" points="266,18 237,11 231,-6" />
<polygon fill="#9c9fad" fill-opacity="0.501961" points="58,35 80,34 69,41" />
<polygon fill="#000000" fill-opacity="0.501961" points="103,159 127,167 110,150" />
<polygon fill="#393c43" fill-opacity="0.501961" points="140,17 145,41 175,-16" />
<polygon fill="#25282b" fill-opacity="0.501961" points="159,103 182,84 145,96" />
<polygon fill="#a9b0bd" fill-opacity="0.501961" points="114,117 99,106 109,124" />
<polygon fill="#5e626c" fill-opacity="0.501961" points="237,149 218,199 242,221" />
<polygon fill="#eef2fc" fill-opacity="0.501961" points="97,185 70,187 84,182" />
<polygon fill="#040a11" fill-opacity="0.501961" points="125,143 138,131 127,133" />
<polygon fill="#2c3237" fill-opacity="0.501961" points="169,206 155,169 153,189" />
<polygon fill="#8a909f" fill-opacity="0.501961" points="60,104 78,126 63,135" />
<polygon fill="#c8ced8" fill-opacity="0.501961" points="201,113 214,119 216,114" />
<polygon fill="#d2d7de" fill-opacity="0.501961" points="228,245 221,215 173,219" />
</g>
</svg>