<svg xmlns="http://www.w3.org/2000/svg" version="1.1" width="1024" height="1024">
<rect x="0" y="0" width="1024" height="1024" fill="#dadce7" />
<g transform="scale(4.000000) translate(0.5 0.5)">
<polygon fill="#130000" fill-opacity="0.501961" points="110,264 162,163 74,151" />
<polygon fill="#5b254f" fill-opacity="0.501961" points="130,60 162,84 100,144" />
<polygon fill="#370000" fill-opacity="0.501961" points="81,172 88,227 157,196" />
<polygon fill="#fcffff" fill-opacity="0.501961" points="119,263 8,-16 -16,258" />
<polygon fill="#ffffff" fill-opacity="0.501961" points="1,115 -1,-16 229,6" />
<polygon fill="#f1ffff" fill-opacity="0.501961" points="258,271 148,181 252,-16" />
<polygon fill="#000000" fill-opacity="0.501961" points="102,229 129,231 154,217" />
<polygon fill="#720328" fill-opacity="0.501961" points="158,147 151,197 77,213" />
<polygon fill="#050012" fill-opacity="0.501961" points="157,75 115,88 130,67" />
<polygon fill="#fff6ff" fill-opacity="0.501961" points="148,204 99,220 128,224" />
<polygon fill="#d5bed5" fill-opacity="0.501961" points="73,171 143,119 95,46" />
<polygon fill="#930000" fill-opacity="0.501961" points="105,138 122,127 95,130" />
<polygon fill="#5a4e69" fill-opacity="0.501961" points="106,236 82,162 81,218" />
<polygon fill="#c6dcf2" fill-opacity="0.501961" points="178,238 110,271 64,227" />
<polygon fill="#280000" fill-opacity="0.501961" points="85,182 111,219 148,199" />
<polygon fill="#e3f0ff" fill-opacity="0.501961" points="225,235 271,6 112,-16" />
<polygon fill="#f6feff" fill-opacity="0.501961" points="98,138 -16,268 32,-16" />
<polygon fill="#102545" fill-opacity="0.501961" points="134,227 144,228 157,206" />
<polygon fill="#000000" fill-opacity="0.501961" points="135,177 110,157 120,156" />
<polygon fill="#d1dcea" fill-opacity="0.501961" points="69,209 119,225 74,196" />
<polygon fill="#30000a" fill-opacity="0.501961" points="82,212 113,227 97,228" />
<polygon fill="#ebf5ff" fill-opacity="0.501961" points="151,203 229,271 176,-16" />
<polygon fill="#9b98b2" fill-opacity="0.501961" points="124,61 70,73 113,89" />
<polygon fill="#fcdff3" fill-opacity="0.501961" points="155,113 148,166 99,142" />
<polygon fill="#f5feff" fill-opacity="0.501961" points="161,68 -16,50 77,-16" />
<polygon fill="#a797b8" fill-opacity="0.501961" points="167,61 157,114 129,122" />
<polygon fill="#000000" fill-opacity="0.501961" points="125,72 143,83 119,84" />
<polygon fill="#000d28" fill-opacity="0.501961" points="102,155 109,177 87,155" />
<polygon fill="#8880a5" fill-opacity="0.501961" points="159,145 154,200 145,180" />
<polygon fill="#e5d4e9" fill-opacity="0.501961" points="156,106 106,130 75,110" />
<polygon fill="#660000" fill-opacity="0.501961" points="105,137 114,130 96,132" />
<polygon fill="#c8d8e9" fill-opacity="0.501961" points="192,271 150,221 47,270" />
<polygon fill="#fff9ff" fill-opacity="0.501961" points="143,205 134,222 115,224" />
<polygon fill="#752956" fill-opacity="0.501961" points="148,100 125,107 140,85" />
<polygon fill="#e6eefb" fill-opacity="0.501961" points="64,148 96,162 23,174" />
<polygon fill="#540008" fill-opacity="0.501961" points="117,219 87,195 138,186" />
<polygon fill="#142840" fill-opacity="0.501961" points="79,163 85,188 115,199" />
<polygon fill="#96809f" fill-opacity="0.501961" points="121,178 110,194 102,149" />
<polygon fill="#b4c2d2" fill-opacity="0.501961" points="94,247 125,243 81,217" />
<polygon fill="#eedfef" fill-opacity="0.501961" points="128,162 134,126 98,144" />
<polygon fill="#000006" fill-opacity="0.501961" points="133,229 117,226 143,223" />
<polygon fill="#8d9ac0" fill-opacity="0.501961" points="137,85 117,105 119,83" />
<polygon fill="#371e2d" fill-opacity="0.501961" points="129,184 94,164 111,182" />
<polygon fill="#d52a54" fill-opacity="0.501961" points="145,187 135,180 133,202" />
<polygon fill="#5c607e" fill-opacity="0.501961" points="105,65 115,79 119,70" />
<polygon fill="#f4f9ff" fill-opacity="0.501961" points="149,9 -1,-16 1,161" />
<polygon fill="#7a8a97" fill-opacity="0.501961" points="72,67 80,74 73,52" />
<polygon fill="#e7f0fc" fill-opacity="0.501961" points="255,82 271,254 153,271" />
<polygon fill="#000000" fill-opacity="0.501961" points="132,162 127,167 116,162" />
<polygon fill="#e0ebf6" fill-opacity="0.501961" points="240,92 271,-10 45,43" />
<polygon fill="#938faa" fill-opacity="0.501961" points="114,182 118,163 94,185" />
<polygon fill="#eae6ff" fill-opacity="0.501961" points="135,71 136,76 130,74" />
<polygon fill="#2e0029" fill-opacity="0.501961" points="103,154 116,161 118,157" />
<polygon fill="#001b28" fill-opacity="0.501961" points="146,203 125,207 153,191" />
<polygon fill="#c0b4db" fill-opacity="0.501961" points="129,167 125,177 120,176" />
<polygon fill="#b44a6e" fill-opacity="0.501961" points="120,218 131,218 123,204" />
<polygon fill="#dbdeec" fill-opacity="0.501961" points="79,119 73,138 112,162" />
<polygon fill="#b8cfe6" fill-opacity="0.501961" points="141,233 160,198 163,231" />
<polygon fill="#a9527b" fill-opacity="0.501961" points="156,151 147,186 143,157" />
<polygon fill="#e5e7f2" fill-opacity="0.501961" points="118,96 112,120 98,64" />
<polygon fill="#000000" fill-opacity="0.501961" points="136,227 114,231 109,224" />
<polygon fill="#e9ebf7" fill-opacity="0.501961" points="152,152 119,126 239,99" />
<polygon fill="#980000" fill-opacity="0.501961" points="96,136 103,129 119,131" />
<polygon fill="#850925" fill-opacity="0.501961" points="136,187 140,171 103,188" />
<polygon fill="#af7d94" fill-opacity="0.501961" points="152,200 134,217 147,210" />
<polygon fill="#d4d5e7" fill-opacity="0.501961" points="107,166 100,168 105,162" />
<polygon fill="#d0e2f1" fill-opacity="0.501961" points="141,84 165,85 167,74" />
<polygon fill="#b6b1cc" fill-opacity="0.501961" points="83,81 121,66 86,99" />
<polygon fill="#000011" fill-opacity="0.501961" points="128,226 148,216 140,226" />
<polygon fill="#667d94" fill-opacity="0.501961" points="79,159 87,162 81,188" />
<polygon fill="#f1e8f6" fill-opacity="0.501961" points="64,136 77,120 125,125" />
<polygon fill="#eda9cd" fill-opacity="0.501961" points="128,164 145,162 143,157" />
<polygon fill="#00000e" fill-opacity="0.501961" points="101,156 86,156 111,164" />
<polygon fill="#a9bbd0" fill-opacity="0.501961" points="130,240 145,226 94,238" />
<polygon fill="#edf3fb" fill-opacity="0.501961" points="194,212 199,154 145,204" />
<polygon fill="#000000" fill-opacity="0.501961" points="139,72 137,84 132,85" />
<polygon fill="#dbe1ee" fill-opacity="0.501961" points="67,183 60,194 94,203" />
<polygon fill="#000002" fill-opacity="0.501961" points="118,177 116,181 109,178" />
<polygon fill="#e93160" fill-opacity="0.501961" points="133,181 143,186 118,186" />
<polygon fill="#7b4c67" fill-opacity="0.501961" points="94,66 114,69 104,64" />
<polygon fill="#e0f2fd" fill-opacity="0.501961" points="83,203 108,223 92,216" />
<polygon fill="#22001a" fill-opacity="0.501961" points="111,158 112,167 117,157" />
<polygon fill="#02111c" fill-opacity="0.501961" points="95,165 102,176 109,173" />
<polygon fill="#200001" fill-opacity="0.501961" points="104,179 116,210 105,212" />
<polygon fill="#7f1a54" fill-opacity="0.501961" points="87,75 98,81 89,79" />
<polygon fill="#8894b4" fill-opacity="0.501961" points="90,175 110,181 79,157" />
<polygon fill="#d9e1ec" fill-opacity="0.501961" points="87,226 76,191 47,235" />
<polygon fill="#72537b" fill-opacity="0.501961" points="145,69 153,76 131,95" />
<polygon fill="#726a94" fill-opacity="0.501961" points="128,95 119,84 119,105" />
<polygon fill="#f3f8ff" fill-opacity="0.501961" points="69,7 -16,160 78,173" />
<polygon fill="#f4feff" fill-opacity="0.501961" points="100,68 110,73 84,73" />
<polygon fill="#000000" fill-opacity="0.501961" points="132,181 127,171 133,170" />
<polygon fill="#d9e8f3" fill-opacity="0.501961" points="121,225 142,219 103,218" />
<polygon fill="#9f1c32" fill-opacity="0.501961" points="110,194 118,201 120,181" />
<polygon fill="#161627" fill-opacity="0.501961" points="99,196 91,183 102,174" />
<polygon fill="#e7edf5" fill-opacity="0.501961" points="146,-16 93,65 158,64" />
<polygon fill="#9f94b6" fill-opacity="0.501961" points="158,74 143,92 155,114" />
<polygon fill="#000000" fill-opacity="0.501961" points="121,196 135,188 121,187" />
<polygon fill="#555579" fill-opacity="0.501961" points="118,74 104,84 114,81" />
<polygon fill="#291f38" fill-opacity="0.501961" points="123,174 120,167 112,170" />
</g>
</svg>