<svg xmlns="http://www.w3.org/2000/svg" version="1.1" width="1024" height="1024">
<rect x="0" y="0" width="1024" height="1024" fill="#616a82" />
<g transform="scale(4.000000) translate(0.5 0.5)">
<polygon fill="#000000" fill-opacity="0.501961" points="271,253 226,128 120,264" />
<polygon fill="#eeffff" fill-opacity="0.501961" points="267,97 259,-7 74,-16" />
<polygon fill="#ffffff" fill-opacity="0.501961" points="40,175 0,271 -16,124" />
<polygon fill="#fffdff" fill-opacity="0.501961" points="147,229 181,143 75,165" />
<polygon fill="#ffffff" fill-opacity="0.501961" points="-16,-14 -16,89 82,-11" />
<polygon fill="#000005" fill-opacity="0.501961" points="20,108 87,52 56,271" />
<polygon fill="#001845" fill-opacity="0.501961" points="5,271 174,271 50,151" />
<polygon fill="#221a2d" fill-opacity="0.501961" points="237,171 194,43 36,24" />
<polygon fill="#c87a7b" fill-opacity="0.501961" points="179,144 92,194 73,40" />
<polygon fill="#feffff" fill-opacity="0.501961" points="-16,162 -1,260 51,159" />
<polygon fill="#e3fcff" fill-opacity="0.501961" points="240,171 271,180 251,66" />
<polygon fill="#c8e0ff" fill-opacity="0.501961" points="236,-16 29,2 238,39" />
<polygon fill="#000024" fill-opacity="0.501961" points="271,271 148,217 219,142" />
<polygon fill="#638dc0" fill-opacity="0.501961" points="55,218 140,170 9,154" />
<polygon fill="#c5e9ff" fill-opacity="0.501961" points="212,149 123,219 166,135" />
<polygon fill="#000000" fill-opacity="0.501961" points="8,123 56,81 91,159" />
<polygon fill="#000000" fill-opacity="0.501961" points="220,137 146,72 162,132" />
<polygon fill="#000012" fill-opacity="0.501961" points="130,214 51,271 25,213" />
<polygon fill="#bfdcff" fill-opacity="0.501961" points="-16,-9 1,172 35,-16" />
<polygon fill="#475d86" fill-opacity="0.501961" points="167,19 271,147 52,13" />
<polygon fill="#cee6ff" fill-opacity="0.501961" points="130,181 137,248 178,147" />
<polygon fill="#a0bded" fill-opacity="0.501961" points="188,42 269,136 264,-16" />
<polygon fill="#5f0000" fill-opacity="0.501961" points="87,58 26,96 128,65" />
<polygon fill="#001c38" fill-opacity="0.501961" points="165,180 198,271 271,178" />
<polygon fill="#c8858c" fill-opacity="0.501961" points="146,174 71,119 152,96" />
<polygon fill="#3d4e7a" fill-opacity="0.501961" points="118,9 25,35 -7,107" />
<polygon fill="#000000" fill-opacity="0.501961" points="194,129 254,114 229,136" />
<polygon fill="#000d31" fill-opacity="0.501961" points="184,131 175,171 198,132" />
<polygon fill="#092e52" fill-opacity="0.501961" points="25,191 49,172 124,207" />
<polygon fill="#d1e4ff" fill-opacity="0.501961" points="-13,-10 -16,39 133,-4" />
<polygon fill="#fdffff" fill-opacity="0.501961" points="-2,271 31,195 -16,117" />
<polygon fill="#9fbdec" fill-opacity="0.501961" points="88,154 155,215 55,179" />
<polygon fill="#91b1dc" fill-opacity="0.501961" points="88,48 10,97 46,58" />
<polygon fill="#ffffff" fill-opacity="0.501961" points="267,144 236,168 265,179" />
<polygon fill="#693d2b" fill-opacity="0.501961" points="151,164 170,127 116,183" />
<polygon fill="#9d7170" fill-opacity="0.501961" points="75,132 68,82 146,62" />
<polygon fill="#639dd4" fill-opacity="0.501961" points="82,217 109,202 42,205" />
<polygon fill="#a7b9e4" fill-opacity="0.501961" points="271,167 225,143 264,115" />
<polygon fill="#cae0ff" fill-opacity="0.501961" points="175,181 216,140 196,143" />
<polygon fill="#00122a" fill-opacity="0.501961" points="14,271 33,197 108,256" />
<polygon fill="#010615" fill-opacity="0.501961" points="51,50 93,18 91,45" />
<polygon fill="#5a6e92" fill-opacity="0.501961" points="200,45 238,116 184,118" />
<polygon fill="#4177ba" fill-opacity="0.501961" points="146,196 152,210 195,185" />
<polygon fill="#001c3c" fill-opacity="0.501961" points="245,271 271,174 127,250" />
<polygon fill="#000000" fill-opacity="0.501961" points="166,132 184,99 152,71" />
<polygon fill="#01182e" fill-opacity="0.501961" points="69,107 98,106 85,92" />
<polygon fill="#375382" fill-opacity="0.501961" points="12,147 92,207 99,181" />
<polygon fill="#120000" fill-opacity="0.501961" points="36,125 78,159 65,69" />
<polygon fill="#cfe0f7" fill-opacity="0.501961" points="221,-16 202,36 234,105" />
<polygon fill="#f3ffff" fill-opacity="0.501961" points="-16,222 45,172 -13,169" />
<polygon fill="#000f2c" fill-opacity="0.501961" points="95,193 136,259 121,208" />
<polygon fill="#714444" fill-opacity="0.501961" points="121,53 105,116 154,100" />
<polygon fill="#001224" fill-opacity="0.501961" points="213,144 248,154 166,234" />
<polygon fill="#ceabb2" fill-opacity="0.501961" points="71,87 99,94 124,73" />
<polygon fill="#8096c6" fill-opacity="0.501961" points="62,38 59,6 89,11" />
<polygon fill="#3d0014" fill-opacity="0.501961" points="127,150 139,145 142,130" />
<polygon fill="#084e85" fill-opacity="0.501961" points="235,168 271,187 203,181" />
<polygon fill="#2e3652" fill-opacity="0.501961" points="4,119 11,107 36,151" />
<polygon fill="#d8e6f8" fill-opacity="0.501961" points="92,191 138,211 158,169" />
<polygon fill="#151a39" fill-opacity="0.501961" points="110,25 141,30 103,9" />
<polygon fill="#bcd2ff" fill-opacity="0.501961" points="199,163 163,187 193,146" />
<polygon fill="#1b2041" fill-opacity="0.501961" points="202,56 179,61 157,29" />
<polygon fill="#164d7b" fill-opacity="0.501961" points="106,222 148,266 65,235" />
<polygon fill="#e1a5ad" fill-opacity="0.501961" points="79,136 76,118 123,129" />
<polygon fill="#829cc9" fill-opacity="0.501961" points="25,111 -9,102 21,68" />
<polygon fill="#a7bfe7" fill-opacity="0.501961" points="92,-12 111,40 92,17" />
<polygon fill="#72273b" fill-opacity="0.501961" points="91,130 107,171 111,153" />
<polygon fill="#000017" fill-opacity="0.501961" points="168,185 193,171 162,204" />
<polygon fill="#94abd9" fill-opacity="0.501961" points="25,39 40,57 44,-16" />
<polygon fill="#1f2446" fill-opacity="0.501961" points="41,67 12,56 10,67" />
<polygon fill="#12141f" fill-opacity="0.501961" points="201,93 157,57 185,68" />
<polygon fill="#014272" fill-opacity="0.501961" points="48,184 3,257 30,248" />
<polygon fill="#000010" fill-opacity="0.501961" points="153,214 143,240 192,193" />
<polygon fill="#ffffff" fill-opacity="0.501961" points="40,-1 -16,29 -13,0" />
<polygon fill="#88aad9" fill-opacity="0.501961" points="130,233 128,200 107,172" />
<polygon fill="#c0c8f6" fill-opacity="0.501961" points="63,171 109,178 75,159" />
<polygon fill="#202b47" fill-opacity="0.501961" points="19,120 85,59 33,86" />
<polygon fill="#63a0da" fill-opacity="0.501961" points="68,190 33,184 47,194" />
<polygon fill="#c3839b" fill-opacity="0.501961" points="112,181 96,83 142,170" />
<polygon fill="#e7faff" fill-opacity="0.501961" points="25,218 -11,271 7,147" />
<polygon fill="#16436f" fill-opacity="0.501961" points="172,252 127,253 177,215" />
<polygon fill="#171d3e" fill-opacity="0.501961" points="60,28 42,18 49,46" />
<polygon fill="#000000" fill-opacity="0.501961" points="37,182 45,174 76,190" />
<polygon fill="#7392b5" fill-opacity="0.501961" points="237,84 240,-2 255,54" />
<polygon fill="#3a4662" fill-opacity="0.501961" points="18,161 69,163 22,130" />
<polygon fill="#5f050d" fill-opacity="0.501961" points="159,87 83,60 120,59" />
<polygon fill="#660005" fill-opacity="0.501961" points="58,83 89,60 60,109" />
<polygon fill="#89aacd" fill-opacity="0.501961" points="184,141 179,159 168,127" />
<polygon fill="#8498c5" fill-opacity="0.501961" points="169,52 110,6 150,15" />
<polygon fill="#dbe3fe" fill-opacity="0.501961" points="97,-14 192,-16 166,25" />
<polygon fill="#a6bfec" fill-opacity="0.501961" points="135,211 168,172 138,249" />
<polygon fill="#000208" fill-opacity="0.501961" points="175,197 205,187 216,271" />
<polygon fill="#00010d" fill-opacity="0.501961" points="122,209 99,227 63,219" />
<polygon fill="#19233c" fill-opacity="0.501961" points="21,83 29,50 30,87" />
<polygon fill="#bff6ff" fill-opacity="0.501961" points="106,145 134,140 117,149" />
<polygon fill="#657999" fill-opacity="0.501961" points="255,118 233,81 204,114" />
<polygon fill="#8fb2db" fill-opacity="0.501961" points="82,57 57,66 76,44" />
<polygon fill="#537eac" fill-opacity="0.501961" points="55,215 115,209 84,196" />
<polygon fill="#100b20" fill-opacity="0.501961" points="197,75 212,81 210,68" />
<polygon fill="#627491" fill-opacity="0.501961" points="115,23 142,73 94,37" />
</g>
</svg>