<svg xmlns="http://www.w3.org/2000/svg" version="1.1" width="1024" height="1024">
<rect x="0" y="0" width="1024" height="1024" fill="#5f8c93" />
<g transform="scale(4.000000) translate(0.5 0.5)">
<polygon fill="#000000" fill-opacity="0.501961" points="-16,68 249,-16 271,69" />
<polygon fill="#6af5ff" fill-opacity="0.501961" points="6,271 271,203 -16,123" />
<polygon fill="#ffffff" fill-opacity="0.501961" points="271,69 109,70 215,99" />
<polygon fill="#694c2c" fill-opacity="0.501961" points="47,104 240,88 271,145" />
<polygon fill="#2f2416" fill-opacity="0.501961" points="99,-6 133,70 -16,61" />
<polygon fill="#ae937c" fill-opacity="0.501961" points="215,131 13,66 -16,156" />
<polygon fill="#28b3da" fill-opacity="0.501961" points="10,155 231,138 271,204" />
<polygon fill="#0d0100" fill-opacity="0.501961" points="122,62 271,-13 265,70" />
<polygon fill="#7b9edb" fill-opacity="0.501961" points="122,50 184,16 119,9" />
<polygon fill="#86e5ff" fill-opacity="0.501961" points="60,271 217,227 -16,184" />
<polygon fill="#563100" fill-opacity="0.501961" points="210,261 253,194 271,252" />
<polygon fill="#d5ebf4" fill-opacity="0.501961" points="95,92 164,72 19,70" />
<polygon fill="#b8d8e8" fill-opacity="0.501961" points="137,84 271,66 258,100" />
<polygon fill="#536059" fill-opacity="0.501961" points="5,127 170,117 20,86" />
<polygon fill="#090800" fill-opacity="0.501961" points="233,114 238,96 171,98" />
<polygon fill="#b39d8b" fill-opacity="0.501961" points="223,209 99,259 238,247" />
<polygon fill="#000000" fill-opacity="0.501961" points="18,35 -16,44 8,71" />
<polygon fill="#d4c0a5" fill-opacity="0.501961" points="152,134 62,117 5,150" />
<polygon fill="#cba982" fill-opacity="0.501961" points="244,123 162,138 257,146" />
<polygon fill="#146c8e" fill-opacity="0.501961" points="97,145 17,172 -14,152" />
<polygon fill="#a4ebff" fill-opacity="0.501961" points="-16,88 10,70 64,84" />
<polygon fill="#32302a" fill-opacity="0.501961" points="203,-16 271,16 128,7" />
<polygon fill="#5c4f4d" fill-opacity="0.501961" points="152,256 245,212 177,271" />
<polygon fill="#66685c" fill-opacity="0.501961" points="193,94 65,129 80,82" />
<polygon fill="#4969b4" fill-opacity="0.501961" points="-2,-16 -15,43 146,3" />
<polygon fill="#ffd99f" fill-opacity="0.501961" points="213,263 191,254 224,238" />
<polygon fill="#53b7d8" fill-opacity="0.501961" points="128,211 159,143 -16,169" />
<polygon fill="#cedae0" fill-opacity="0.501961" points="33,100 43,90 38,132" />
<polygon fill="#6ed3f2" fill-opacity="0.501961" points="227,196 -16,192 5,271" />
<polygon fill="#0b1e00" fill-opacity="0.501961" points="256,239 215,252 271,261" />
<polygon fill="#383a22" fill-opacity="0.501961" points="94,19 -6,68 173,69" />
<polygon fill="#c1dae3" fill-opacity="0.501961" points="139,91 68,71 198,70" />
<polygon fill="#44492b" fill-opacity="0.501961" points="129,109 230,114 163,90" />
<polygon fill="#2f3321" fill-opacity="0.501961" points="235,128 235,97 200,136" />
<polygon fill="#2a331d" fill-opacity="0.501961" points="34,104 10,102 15,130" />
<polygon fill="#36b4d0" fill-opacity="0.501961" points="151,167 251,203 271,143" />
<polygon fill="#c7d4db" fill-opacity="0.501961" points="91,121 78,135 92,90" />
<polygon fill="#121400" fill-opacity="0.501961" points="234,18 271,64 149,68" />
<polygon fill="#b2bdbe" fill-opacity="0.501961" points="122,80 106,137 102,113" />
<polygon fill="#c1c7c6" fill-opacity="0.501961" points="124,112 133,137 132,89" />
<polygon fill="#50606f" fill-opacity="0.501961" points="31,-16 126,12 129,56" />
<polygon fill="#938a89" fill-opacity="0.501961" points="222,208 253,230 271,190" />
<polygon fill="#d7eeff" fill-opacity="0.501961" points="240,120 249,129 234,135" />
<polygon fill="#ccd9e0" fill-opacity="0.501961" points="59,112 69,88 66,118" />
<polygon fill="#5e87be" fill-opacity="0.501961" points="25,-1 14,51 32,52" />
<polygon fill="#272613" fill-opacity="0.501961" points="66,71 1,42 -6,69" />
<polygon fill="#bac7c6" fill-opacity="0.501961" points="158,132 210,132 166,119" />
<polygon fill="#abc4cc" fill-opacity="0.501961" points="210,85 206,115 201,77" />
<polygon fill="#608ec5" fill-opacity="0.501961" points="146,46 112,8 163,20" />
<polygon fill="#1c2106" fill-opacity="0.501961" points="145,52 215,69 170,23" />
<polygon fill="#bbbeba" fill-opacity="0.501961" points="142,114 150,135 149,98" />
<polygon fill="#3c4733" fill-opacity="0.501961" points="131,128 178,115 136,113" />
<polygon fill="#16211b" fill-opacity="0.501961" points="84,101 85,124 70,103" />
<polygon fill="#3e5061" fill-opacity="0.501961" points="220,14 191,37 109,-16" />
<polygon fill="#b89f86" fill-opacity="0.501961" points="-16,157 7,129 70,146" />
<polygon fill="#0a1100" fill-opacity="0.501961" points="61,107 42,111 41,103" />
<polygon fill="#1a240a" fill-opacity="0.501961" points="227,227 271,232 244,244" />
<polygon fill="#313d2b" fill-opacity="0.501961" points="127,99 113,101 124,130" />
<polygon fill="#a0c8cc" fill-opacity="0.501961" points="231,218 167,227 130,261" />
<polygon fill="#232817" fill-opacity="0.501961" points="243,97 259,113 240,113" />
<polygon fill="#23291d" fill-opacity="0.501961" points="90,70 122,66 64,8" />
<polygon fill="#eee0af" fill-opacity="0.501961" points="232,240 219,246 245,246" />
<polygon fill="#000000" fill-opacity="0.501961" points="105,100 93,104 107,108" />
<polygon fill="#46aac6" fill-opacity="0.501961" points="-2,198 46,154 153,164" />
<polygon fill="#a3afb6" fill-opacity="0.501961" points="1,112 31,113 2,121" />
<polygon fill="#777e6b" fill-opacity="0.501961" points="168,130 197,123 189,95" />
<polygon fill="#000000" fill-opacity="0.501961" points="235,115 208,97 236,98" />
<polygon fill="#ffedb4" fill-opacity="0.501961" points="243,228 269,229 271,213" />
<polygon fill="#13708c" fill-opacity="0.501961" points="216,155 184,141 255,148" />
<polygon fill="#6095c9" fill-opacity="0.501961" points="248,18 248,7 240,14" />
<polygon fill="#54c2e1" fill-opacity="0.501961" points="190,182 86,263 228,203" />
<polygon fill="#d8d1c1" fill-opacity="0.501961" points="150,129 142,137 148,110" />
<polygon fill="#1b8daa" fill-opacity="0.501961" points="68,161 93,141 144,142" />
<polygon fill="#b7cbd2" fill-opacity="0.501961" points="271,65 238,102 232,84" />
<polygon fill="#7b6449" fill-opacity="0.501961" points="120,55 148,44 119,34" />
<polygon fill="#9ec9d9" fill-opacity="0.501961" points="62,71 45,75 42,102" />
<polygon fill="#414841" fill-opacity="0.501961" points="70,46 85,63 99,-10" />
<polygon fill="#4d381c" fill-opacity="0.501961" points="-16,82 9,89 -12,116" />
<polygon fill="#595d4d" fill-opacity="0.501961" points="50,88 54,126 68,84" />
<polygon fill="#4d4f49" fill-opacity="0.501961" points="242,209 242,228 211,241" />
<polygon fill="#bfd1d8" fill-opacity="0.501961" points="96,98 83,100 104,80" />
<polygon fill="#61c0d8" fill-opacity="0.501961" points="62,196 148,144 150,211" />
<polygon fill="#cbd1d1" fill-opacity="0.501961" points="271,90 255,137 254,97" />
<polygon fill="#9a9990" fill-opacity="0.501961" points="150,97 99,100 127,86" />
<polygon fill="#a8b2af" fill-opacity="0.501961" points="64,94 84,101 41,101" />
<polygon fill="#bcb9a8" fill-opacity="0.501961" points="168,128 45,126 101,145" />
<polygon fill="#7ddcf1" fill-opacity="0.501961" points="80,201 178,216 74,260" />
<polygon fill="#9ac6d7" fill-opacity="0.501961" points="1,104 41,72 22,69" />
<polygon fill="#659fb0" fill-opacity="0.501961" points="163,85 222,89 195,96" />
<polygon fill="#00577b" fill-opacity="0.501961" points="-6,165 -16,155 30,155" />
<polygon fill="#0b1104" fill-opacity="0.501961" points="-16,40 17,38 9,52" />
<polygon fill="#131b0c" fill-opacity="0.501961" points="132,101 143,99 138,111" />
<polygon fill="#c4aa86" fill-opacity="0.501961" points="188,142 186,127 240,142" />
<polygon fill="#83c2cd" fill-opacity="0.501961" points="164,145 194,154 142,154" />
<polygon fill="#137b99" fill-opacity="0.501961" points="136,139 189,142 156,149" />
<polygon fill="#323e25" fill-opacity="0.501961" points="155,112 149,125 162,127" />
<polygon fill="#9accdc" fill-opacity="0.501961" points="74,69 28,84 117,84" />
<polygon fill="#4d4f3f" fill-opacity="0.501961" points="81,86 96,85 83,98" />
<polygon fill="#1592ae" fill-opacity="0.501961" points="252,163 206,156 208,176" />
<polygon fill="#94978d" fill-opacity="0.501961" points="252,126 238,114 218,115" />
</g>
</svg>