<svg xmlns="http://www.w3.org/2000/svg" version="1.1" width="1024" height="1024">
<rect x="0" y="0" width="1024" height="1024" fill="#b1b1b1" />
<g transform="scale(4.000000) translate(0.5 0.5)">
<polygon fill="#000000" fill-opacity="0.501961" points="142,271 177,86 271,252" />
<polygon fill="#ffffff" fill-opacity="0.501961" points="152,-16 -16,198 151,271" />
<polygon fill="#000000" fill-opacity="0.501961" points="245,269 229,70 271,129" />
<polygon fill="#ebebeb" fill-opacity="0.501961" points="154,190 1,-16 -1,271" />
<polygon fill="#2c2c2c" fill-opacity="0.501961" points="203,56 192,271 152,163" />
<polygon fill="#f6f6f6" fill-opacity="0.501961" points="105,216 156,48 214,44" />
<polygon fill="#ffffff" fill-opacity="0.501961" points="201,174 236,155 228,195" />
<polygon fill="#252525" fill-opacity="0.501961" points="168,271 267,271 268,143" />
<polygon fill="#000000" fill-opacity="0.501961" points="234,136 218,155 259,157" />
<polygon fill="#c4c4c4" fill-opacity="0.501961" points="82,131 25,13 196,-6" />
<polygon fill="#ffffff" fill-opacity="0.501961" points="41,80 -16,57 121,59" />
<polygon fill="#343434" fill-opacity="0.501961" points="201,66 234,71 180,98" />
<polygon fill="#dcdcdc" fill-opacity="0.501961" points="169,253 -16,111 31,268" />
<polygon fill="#afafaf" fill-opacity="0.501961" points="15,73 -16,131 203,76" />
<polygon fill="#efefef" fill-opacity="0.501961" points="198,33 81,66 271,64" />
<polygon fill="#414141" fill-opacity="0.501961" points="158,140 271,233 149,225" />
<polygon fill="#cfcfcf" fill-opacity="0.501961" points="219,162 235,94 198,131" />
<polygon fill="#aeaeae" fill-opacity="0.501961" points="44,61 165,-16 264,42" />
<polygon fill="#e2e2e2" fill-opacity="0.501961" points="271,40 265,151 235,48" />
<polygon fill="#4c4c4c" fill-opacity="0.501961" points="156,143 209,97 186,89" />
<polygon fill="#eaeaea" fill-opacity="0.501961" points="161,109 145,223 -16,133" />
<polygon fill="#c8c8c8" fill-opacity="0.501961" points="241,178 224,196 213,149" />
<polygon fill="#1f1f1f" fill-opacity="0.501961" points="183,178 204,156 238,150" />
<polygon fill="#ababab" fill-opacity="0.501961" points="197,102 239,131 197,136" />
<polygon fill="#e2e2e2" fill-opacity="0.501961" points="109,7 -7,27 -13,87" />
<polygon fill="#3f3f3f" fill-opacity="0.501961" points="233,78 246,271 271,159" />
<polygon fill="#505050" fill-opacity="0.501961" points="227,66 222,83 268,115" />
<polygon fill="#333333" fill-opacity="0.501961" points="148,226 170,264 250,232" />
<polygon fill="#ffffff" fill-opacity="0.501961" points="95,52 38,70 153,65" />
<polygon fill="#d8d8d8" fill-opacity="0.501961" points="232,93 219,78 233,121" />
<polygon fill="#c8c8c8" fill-opacity="0.501961" points="172,116 92,74 200,56" />
<polygon fill="#ffffff" fill-opacity="0.501961" points="-16,78 -10,54 69,66" />
<polygon fill="#d2d2d2" fill-opacity="0.501961" points="-16,237 171,271 143,222" />
<polygon fill="#2a2a2a" fill-opacity="0.501961" points="220,134 248,120 232,123" />
<polygon fill="#232323" fill-opacity="0.501961" points="180,128 215,165 191,115" />
<polygon fill="#525252" fill-opacity="0.501961" points="199,243 151,209 153,169" />
<polygon fill="#999999" fill-opacity="0.501961" points="242,141 255,106 242,124" />
<polygon fill="#070707" fill-opacity="0.501961" points="220,156 233,154 238,131" />
<polygon fill="#2d2d2d" fill-opacity="0.501961" points="220,93 229,101 219,101" />
<polygon fill="#969696" fill-opacity="0.501961" points="-16,9 104,0 25,-16" />
<polygon fill="#cecece" fill-opacity="0.501961" points="219,248 225,247 215,242" />
<polygon fill="#5c5c5c" fill-opacity="0.501961" points="202,165 150,142 192,129" />
<polygon fill="#f3f3f3" fill-opacity="0.501961" points="202,94 228,91 213,80" />
<polygon fill="#979797" fill-opacity="0.501961" points="215,43 271,44 247,4" />
<polygon fill="#c4c4c4" fill-opacity="0.501961" points="195,107 208,102 208,148" />
<polygon fill="#e7e7e7" fill-opacity="0.501961" points="117,221 180,92 -16,169" />
<polygon fill="#d5d5d5" fill-opacity="0.501961" points="191,18 225,70 269,83" />
<polygon fill="#cdcdcd" fill-opacity="0.501961" points="240,180 232,156 198,179" />
<polygon fill="#ffffff" fill-opacity="0.501961" points="253,115 258,77 271,134" />
<polygon fill="#ffffff" fill-opacity="0.501961" points="117,65 193,56 155,49" />
<polygon fill="#383838" fill-opacity="0.501961" points="222,118 213,122 206,119" />
<polygon fill="#4d4d4d" fill-opacity="0.501961" points="219,74 167,122 193,75" />
<polygon fill="#c2c2c2" fill-opacity="0.501961" points="19,5 15,62 79,10" />
<polygon fill="#202020" fill-opacity="0.501961" points="205,271 178,258 232,206" />
<polygon fill="#ffffff" fill-opacity="0.501961" points="193,54 218,46 232,55" />
<polygon fill="#b8b8b8" fill-opacity="0.501961" points="129,-16 49,64 192,40" />
<polygon fill="#b0b0b0" fill-opacity="0.501961" points="204,57 255,53 191,76" />
<polygon fill="#dddddd" fill-opacity="0.501961" points="19,221 149,236 150,176" />
<polygon fill="#181818" fill-opacity="0.501961" points="198,123 192,102 182,130" />
<polygon fill="#727272" fill-opacity="0.501961" points="216,221 231,188 212,211" />
<polygon fill="#525252" fill-opacity="0.501961" points="271,228 233,195 244,246" />
<polygon fill="#e5e5e5" fill-opacity="0.501961" points="215,153 207,141 235,130" />
<polygon fill="#262626" fill-opacity="0.501961" points="196,130 215,162 207,174" />
<polygon fill="#727272" fill-opacity="0.501961" points="194,124 209,135 224,134" />
<polygon fill="#939393" fill-opacity="0.501961" points="51,38 75,53 51,60" />
<polygon fill="#868686" fill-opacity="0.501961" points="183,124 167,130 162,143" />
<polygon fill="#494949" fill-opacity="0.501961" points="152,271 188,187 228,199" />
<polygon fill="#2e2e2e" fill-opacity="0.501961" points="171,143 199,175 175,215" />
<polygon fill="#212121" fill-opacity="0.501961" points="267,265 224,270 220,228" />
<polygon fill="#ffffff" fill-opacity="0.501961" points="6,19 -16,66 9,74" />
<polygon fill="#ececec" fill-opacity="0.501961" points="103,149 158,149 137,203" />
<polygon fill="#454545" fill-opacity="0.501961" points="210,104 194,84 185,103" />
<polygon fill="#3d3d3d" fill-opacity="0.501961" points="249,96 235,96 218,65" />
<polygon fill="#383838" fill-opacity="0.501961" points="203,176 212,221 223,195" />
<polygon fill="#383838" fill-opacity="0.501961" points="271,93 248,210 236,156" />
<polygon fill="#ffffff" fill-opacity="0.501961" points="-11,73 51,71 45,52" />
<polygon fill="#a3a3a3" fill-opacity="0.501961" points="197,99 236,90 217,101" />
<polygon fill="#d1d1d1" fill-opacity="0.501961" points="161,249 -16,187 37,271" />
<polygon fill="#e4e4e4" fill-opacity="0.501961" points="216,133 230,120 207,129" />
<polygon fill="#c8c8c8" fill-opacity="0.501961" points="33,123 148,64 181,92" />
<polygon fill="#8c8c8c" fill-opacity="0.501961" points="243,153 245,127 239,142" />
<polygon fill="#bababa" fill-opacity="0.501961" points="-16,76 16,119 90,70" />
<polygon fill="#d5d5d5" fill-opacity="0.501961" points="203,83 216,83 215,108" />
<polygon fill="#d8d8d8" fill-opacity="0.501961" points="52,106 -16,157 51,164" />
<polygon fill="#c5c5c5" fill-opacity="0.501961" points="100,58 229,29 159,26" />
<polygon fill="#c7c7c7" fill-opacity="0.501961" points="228,131 240,124 225,144" />
<polygon fill="#e9e9e9" fill-opacity="0.501961" points="216,139 198,129 205,140" />
<polygon fill="#c8c8c8" fill-opacity="0.501961" points="218,190 239,184 216,157" />
<polygon fill="#202020" fill-opacity="0.501961" points="240,113 232,126 235,90" />
<polygon fill="#4e4e4e" fill-opacity="0.501961" points="239,134 254,109 235,73" />
<polygon fill="#cbcbcb" fill-opacity="0.501961" points="226,89 234,108 234,96" />
<polygon fill="#d0d0d0" fill-opacity="0.501961" points="76,60 111,57 70,38" />
<polygon fill="#ababab" fill-opacity="0.501961" points="155,32 129,15 93,52" />
<polygon fill="#e5e5e5" fill-opacity="0.501961" points="238,75 267,118 267,89" />
<polygon fill="#8e8e8e" fill-opacity="0.501961" points="227,202 227,191 221,211" />
<polygon fill="#292929" fill-opacity="0.501961" points="246,179 223,219 230,190" />
<polygon fill="#ffffff" fill-opacity="0.501961" points="76,58 67,70 118,67" />
<polygon fill="#cccccc" fill-opacity="0.501961" points="232,164 201,176 239,178" />
<polygon fill="#cccccc" fill-opacity="0.501961" points="217,108 233,97 233,117" />
<polygon fill="#565656" fill-opacity="0.501961" points="204,182 165,253 151,237" />
</g>
</svg>