<svg xmlns="http://www.w3.org/2000/svg" version="1.1" width="1024" height="1024">
<rect x="0" y="0" width="1024" height="1024" fill="#6a5b3f" />
<g transform="scale(4.000000) translate(0.5 0.5)">
<polygon fill="#c4a67f" fill-opacity="0.501961" points="53,258 109,-16 202,151" />
<polygon fill="#2e251c" fill-opacity="0.501961" points="148,267 271,252 254,-16" />
<polygon fill="#ffffff" fill-opacity="0.501961" points="118,3 96,90 89,52" />
<polygon fill="#3a3513" fill-opacity="0.501961" points="-16,252 83,271 3,-16" />
<polygon fill="#f7b191" fill-opacity="0.501961" points="215,171 213,136 85,151" />
<polygon fill="#392f15" fill-opacity="0.501961" points="128,-16 40,104 -16,2" />
<polygon fill="#371000" fill-opacity="0.501961" points="155,147 216,134 195,85" />
<polygon fill="#9f966d" fill-opacity="0.501961" points="167,199 57,192 122,271" />
<polygon fill="#2e1300" fill-opacity="0.501961" points="101,190 95,155 78,214" />
<polygon fill="#1d1405" fill-opacity="0.501961" points="217,-1 262,-10 219,62" />
<polygon fill="#383115" fill-opacity="0.501961" points="139,-16 115,88 111,31" />
<polygon fill="#ffffff" fill-opacity="0.501961" points="201,-16 217,2 212,15" />
<polygon fill="#713a07" fill-opacity="0.501961" points="164,156 228,155 151,208" />
<polygon fill="#ffffff" fill-opacity="0.501961" points="118,-16 132,-16 110,31" />
<polygon fill="#c6c7cd" fill-opacity="0.501961" points="203,78 165,72 161,89" />
<polygon fill="#897b59" fill-opacity="0.501961" points="38,26 11,97 28,172" />
<polygon fill="#efddd6" fill-opacity="0.501961" points="86,136 166,148 111,156" />
<polygon fill="#1b1d2c" fill-opacity="0.501961" points="223,155 149,244 206,270" />
<polygon fill="#050000" fill-opacity="0.501961" points="89,111 87,87 102,92" />
<polygon fill="#a1916e" fill-opacity="0.501961" points="208,117 211,74 233,162" />
<polygon fill="#86724d" fill-opacity="0.501961" points="100,35 59,144 58,25" />
<polygon fill="#f7e9fb" fill-opacity="0.501961" points="198,136 161,150 213,147" />
<polygon fill="#e8ffff" fill-opacity="0.501961" points="98,94 88,75 106,34" />
<polygon fill="#a08862" fill-opacity="0.501961" points="155,29 66,135 184,129" />
<polygon fill="#bd7e4d" fill-opacity="0.501961" points="185,150 193,195 214,162" />
<polygon fill="#32230c" fill-opacity="0.501961" points="194,85 227,159 162,94" />
<polygon fill="#ffffff" fill-opacity="0.501961" points="90,250 31,271 110,269" />
<polygon fill="#e3e7a5" fill-opacity="0.501961" points="26,77 23,100 13,94" />
<polygon fill="#231d06" fill-opacity="0.501961" points="6,143 16,249 -16,251" />
<polygon fill="#735325" fill-opacity="0.501961" points="67,152 108,207 121,160" />
<polygon fill="#5f5338" fill-opacity="0.501961" points="149,-2 97,95 107,40" />
<polygon fill="#49516e" fill-opacity="0.501961" points="189,261 198,226 104,259" />
<polygon fill="#241a01" fill-opacity="0.501961" points="38,70 38,-16 61,7" />
<polygon fill="#000000" fill-opacity="0.501961" points="229,172 218,142 216,186" />
<polygon fill="#83714c" fill-opacity="0.501961" points="57,99 75,182 96,35" />
<polygon fill="#6c6238" fill-opacity="0.501961" points="84,206 76,244 -9,170" />
<polygon fill="#000000" fill-opacity="0.501961" points="195,180 180,174 176,188" />
<polygon fill="#000000" fill-opacity="0.501961" points="94,198 89,180 103,186" />
<polygon fill="#746745" fill-opacity="0.501961" points="217,226 210,175 252,223" />
<polygon fill="#3b2e1b" fill-opacity="0.501961" points="120,-16 97,-6 90,56" />
<polygon fill="#000000" fill-opacity="0.501961" points="165,146 174,143 168,129" />
<polygon fill="#f7ffff" fill-opacity="0.501961" points="121,5 95,66 100,30" />
<polygon fill="#cdbb9b" fill-opacity="0.501961" points="109,241 87,196 102,198" />
<polygon fill="#c37751" fill-opacity="0.501961" points="184,104 183,143 158,101" />
<polygon fill="#d4b7a8" fill-opacity="0.501961" points="165,107 154,94 146,151" />
<polygon fill="#5b4e35" fill-opacity="0.501961" points="178,-13 225,135 233,31" />
<polygon fill="#bba05c" fill-opacity="0.501961" points="59,207 58,184 112,165" />
<polygon fill="#2f2812" fill-opacity="0.501961" points="271,241 253,65 234,174" />
<polygon fill="#a1977a" fill-opacity="0.501961" points="137,70 143,147 95,141" />
<polygon fill="#978358" fill-opacity="0.501961" points="95,170 156,158 149,259" />
<polygon fill="#0b0e0e" fill-opacity="0.501961" points="192,235 167,259 151,251" />
<polygon fill="#665635" fill-opacity="0.501961" points="130,6 151,52 140,84" />
<polygon fill="#1b1907" fill-opacity="0.501961" points="-16,16 -1,-16 21,87" />
<polygon fill="#edfeff" fill-opacity="0.501961" points="88,86 97,45 99,84" />
<polygon fill="#534420" fill-opacity="0.501961" points="57,187 23,122 57,31" />
<polygon fill="#fff1c5" fill-opacity="0.501961" points="127,200 121,185 129,188" />
<polygon fill="#100e08" fill-opacity="0.501961" points="218,191 162,216 171,234" />
<polygon fill="#9e3121" fill-opacity="0.501961" points="156,147 153,126 168,113" />
<polygon fill="#b3a7bd" fill-opacity="0.501961" points="176,243 175,233 184,232" />
<polygon fill="#da945c" fill-opacity="0.501961" points="103,183 85,131 100,101" />
<polygon fill="#ffffff" fill-opacity="0.501961" points="207,13 215,11 213,-15" />
<polygon fill="#acb7f3" fill-opacity="0.501961" points="158,268 118,271 154,247" />
<polygon fill="#e4c2c9" fill-opacity="0.501961" points="190,224 190,214 195,221" />
<polygon fill="#b5a085" fill-opacity="0.501961" points="230,142 217,143 214,122" />
<polygon fill="#652300" fill-opacity="0.501961" points="88,98 88,121 104,86" />
<polygon fill="#d1824c" fill-opacity="0.501961" points="104,156 160,169 198,152" />
<polygon fill="#392916" fill-opacity="0.501961" points="194,19 205,45 208,-12" />
<polygon fill="#887957" fill-opacity="0.501961" points="185,36 184,75 106,51" />
<polygon fill="#b9c5f5" fill-opacity="0.501961" points="200,253 187,244 185,248" />
<polygon fill="#a69a5e" fill-opacity="0.501961" points="38,192 51,179 45,207" />
<polygon fill="#382e0d" fill-opacity="0.501961" points="54,249 55,187 35,236" />
<polygon fill="#160900" fill-opacity="0.501961" points="200,138 207,117 184,138" />
<polygon fill="#3b280d" fill-opacity="0.501961" points="109,216 98,180 110,198" />
<polygon fill="#473d29" fill-opacity="0.501961" points="98,36 118,-4 92,21" />
<polygon fill="#ebccc3" fill-opacity="0.501961" points="93,148 109,145 95,131" />
<polygon fill="#3d1c00" fill-opacity="0.501961" points="154,181 170,169 152,195" />
<polygon fill="#fcfdff" fill-opacity="0.501961" points="124,152 110,146 145,147" />
<polygon fill="#0d0a00" fill-opacity="0.501961" points="217,230 203,196 189,214" />
<polygon fill="#726440" fill-opacity="0.501961" points="124,146 138,143 119,114" />
<polygon fill="#a87738" fill-opacity="0.501961" points="177,204 170,177 166,218" />
<polygon fill="#bfb895" fill-opacity="0.501961" points="116,225 130,231 128,210" />
<polygon fill="#cedeff" fill-opacity="0.501961" points="119,250 124,246 133,248" />
<polygon fill="#3a1a05" fill-opacity="0.501961" points="179,117 179,112 163,115" />
<polygon fill="#706144" fill-opacity="0.501961" points="193,90 231,102 209,14" />
<polygon fill="#908ba0" fill-opacity="0.501961" points="170,248 163,222 163,240" />
<polygon fill="#180b00" fill-opacity="0.501961" points="228,157 211,126 225,198" />
<polygon fill="#e0eafd" fill-opacity="0.501961" points="183,75 193,78 170,80" />
<polygon fill="#eeffff" fill-opacity="0.501961" points="127,-8 107,38 107,17" />
<polygon fill="#78592c" fill-opacity="0.501961" points="97,155 37,160 99,181" />
<polygon fill="#453f25" fill-opacity="0.501961" points="30,-14 30,86 0,8" />
<polygon fill="#030409" fill-opacity="0.501961" points="210,239 200,230 187,264" />
<polygon fill="#8a7374" fill-opacity="0.501961" points="180,198 187,205 198,183" />
<polygon fill="#070700" fill-opacity="0.501961" points="192,201 188,175 174,170" />
<polygon fill="#8a845f" fill-opacity="0.501961" points="88,186 100,236 75,243" />
<polygon fill="#000005" fill-opacity="0.501961" points="93,100 94,88 87,99" />
<polygon fill="#000024" fill-opacity="0.501961" points="92,271 96,251 135,261" />
<polygon fill="#f0d4de" fill-opacity="0.501961" points="192,152 176,145 155,150" />
<polygon fill="#b3b5c0" fill-opacity="0.501961" points="172,80 152,98 157,106" />
<polygon fill="#000000" fill-opacity="0.501961" points="161,231 161,248 156,243" />
<polygon fill="#31270c" fill-opacity="0.501961" points="200,91 211,117 164,97" />
</g>
</svg>