<svg xmlns="http://www.w3.org/2000/svg" version="1.1" width="1024" height="1024">
<rect x="0" y="0" width="1024" height="1024" fill="#83b1b1" />
<g transform="scale(4.000000) translate(0.5 0.5)">
<polygon fill="#fff0dc" fill-opacity="0.501961" points="271,236 271,65 -16,63" />
<polygon fill="#007aea" fill-opacity="0.501961" points="223,153 -16,142 19,271" />
<polygon fill="#3d5b00" fill-opacity="0.501961" points="271,61 100,4 -16,63" />
<polygon fill="#3a5e00" fill-opacity="0.501961" points="180,63 252,-16 265,61" />
<polygon fill="#008fd9" fill-opacity="0.501961" points="163,271 181,137 -16,174" />
<polygon fill="#ffd8cc" fill-opacity="0.501961" points="196,57 271,252 165,267" />
<polygon fill="#ffe6d0" fill-opacity="0.501961" points="12,148 -16,68 271,71" />
<polygon fill="#336a00" fill-opacity="0.501961" points="-16,16 173,44 -14,66" />
<polygon fill="#51c2ff" fill-opacity="0.501961" points="235,20 118,-16 -16,21" />
<polygon fill="#617200" fill-opacity="0.501961" points="189,63 144,4 76,63" />
<polygon fill="#008dda" fill-opacity="0.501961" points="9,136 -16,241 176,229" />
<polygon fill="#365800" fill-opacity="0.501961" points="239,-16 271,51 216,51" />
<polygon fill="#dad6ce" fill-opacity="0.501961" points="-16,145 -3,60 249,132" />
<polygon fill="#79d2f0" fill-opacity="0.501961" points="134,271 -13,243 185,228" />
<polygon fill="#00688f" fill-opacity="0.501961" points="16,50 -16,20 56,24" />
<polygon fill="#f4e0cd" fill-opacity="0.501961" points="257,271 181,63 271,64" />
<polygon fill="#80aab1" fill-opacity="0.501961" points="86,125 6,104 165,103" />
<polygon fill="#91a600" fill-opacity="0.501961" points="64,35 127,63 -16,62" />
<polygon fill="#5ec9ff" fill-opacity="0.501961" points="156,23 227,-16 224,32" />
<polygon fill="#008391" fill-opacity="0.501961" points="26,148 132,180 175,149" />
<polygon fill="#749300" fill-opacity="0.501961" points="104,63 210,32 271,62" />
<polygon fill="#f2e2d1" fill-opacity="0.501961" points="-15,109 171,111 103,143" />
<polygon fill="#dcc3c0" fill-opacity="0.501961" points="255,271 170,252 188,66" />
<polygon fill="#6bc5ff" fill-opacity="0.501961" points="133,11 13,-16 -16,23" />
<polygon fill="#0899db" fill-opacity="0.501961" points="165,235 177,165 -16,150" />
<polygon fill="#80d6ff" fill-opacity="0.501961" points="123,-14 103,25 123,27" />
<polygon fill="#62bef7" fill-opacity="0.501961" points="251,-16 187,41 148,-1" />
<polygon fill="#4b5e23" fill-opacity="0.501961" points="96,13 125,46 43,47" />
<polygon fill="#417e93" fill-opacity="0.501961" points="151,102 179,109 125,110" />
<polygon fill="#c7faf5" fill-opacity="0.501961" points="50,248 -16,253 15,264" />
<polygon fill="#3f5c22" fill-opacity="0.501961" points="119,50 189,49 136,6" />
<polygon fill="#0581d1" fill-opacity="0.501961" points="152,225 -16,244 -7,196" />
<polygon fill="#436700" fill-opacity="0.501961" points="271,48 217,50 238,-7" />
<polygon fill="#f9e9d2" fill-opacity="0.501961" points="1,63 145,103 -11,102" />
<polygon fill="#b48f50" fill-opacity="0.501961" points="251,103 271,111 251,57" />
<polygon fill="#2990b2" fill-opacity="0.501961" points="31,106 -16,114 2,103" />
<polygon fill="#dae0e0" fill-opacity="0.501961" points="236,248 96,254 168,271" />
<polygon fill="#137d67" fill-opacity="0.501961" points="36,45 -16,41 73,16" />
<polygon fill="#1387d8" fill-opacity="0.501961" points="52,254 140,271 114,249" />
<polygon fill="#0076be" fill-opacity="0.501961" points="168,234 170,210 125,233" />
<polygon fill="#0d8e92" fill-opacity="0.501961" points="63,142 -16,147 25,158" />
<polygon fill="#ccc0b9" fill-opacity="0.501961" points="203,211 271,201 171,112" />
<polygon fill="#26819b" fill-opacity="0.501961" points="137,106 98,104 118,111" />
<polygon fill="#b3955f" fill-opacity="0.501961" points="221,95 217,62 225,73" />
<polygon fill="#f2ece4" fill-opacity="0.501961" points="217,148 267,125 225,67" />
<polygon fill="#e8e6dd" fill-opacity="0.501961" points="0,135 75,133 -7,105" />
<polygon fill="#0070d4" fill-opacity="0.501961" points="14,247 -12,244 -16,257" />
<polygon fill="#308384" fill-opacity="0.501961" points="117,143 181,143 144,164" />
<polygon fill="#96b500" fill-opacity="0.501961" points="2,44 -16,55 31,55" />
<polygon fill="#e0d7c9" fill-opacity="0.501961" points="186,146 58,114 140,108" />
<polygon fill="#e8dbc6" fill-opacity="0.501961" points="229,64 149,105 95,63" />
<polygon fill="#358eaf" fill-opacity="0.501961" points="71,102 95,108 49,109" />
<polygon fill="#94ad0d" fill-opacity="0.501961" points="89,50 129,63 173,51" />
<polygon fill="#899b8e" fill-opacity="0.501961" points="176,83 177,133 185,108" />
<polygon fill="#4aa68d" fill-opacity="0.501961" points="155,24 190,21 168,32" />
<polygon fill="#3fadd7" fill-opacity="0.501961" points="111,242 25,248 70,231" />
<polygon fill="#58712e" fill-opacity="0.501961" points="82,49 38,31 73,16" />
<polygon fill="#aaeae2" fill-opacity="0.501961" points="34,245 44,236 68,239" />
<polygon fill="#0a1808" fill-opacity="0.501961" points="112,48 89,49 97,38" />
<polygon fill="#70c1f6" fill-opacity="0.501961" points="56,24 57,-16 -16,19" />
<polygon fill="#00737c" fill-opacity="0.501961" points="43,40 10,19 -12,43" />
<polygon fill="#73c6f5" fill-opacity="0.501961" points="222,28 235,-16 183,36" />
<polygon fill="#97d3db" fill-opacity="0.501961" points="168,246 126,234 104,248" />
<polygon fill="#436111" fill-opacity="0.501961" points="249,50 174,45 212,31" />
<polygon fill="#3899b8" fill-opacity="0.501961" points="67,109 31,107 50,103" />
<polygon fill="#0190cf" fill-opacity="0.501961" points="167,225 154,154 177,152" />
<polygon fill="#f1dec5" fill-opacity="0.501961" points="118,104 202,103 61,66" />
<polygon fill="#0ea4e0" fill-opacity="0.501961" points="5,209 -11,151 68,156" />
<polygon fill="#2f8f7d" fill-opacity="0.501961" points="106,29 88,13 102,9" />
<polygon fill="#7db6b3" fill-opacity="0.501961" points="98,150 95,136 46,147" />
<polygon fill="#2f6a22" fill-opacity="0.501961" points="132,9 147,4 152,24" />
<polygon fill="#d6d6d3" fill-opacity="0.501961" points="146,235 200,231 240,259" />
<polygon fill="#e2fdec" fill-opacity="0.501961" points="116,263 83,255 119,253" />
<polygon fill="#89ac06" fill-opacity="0.501961" points="211,62 252,50 175,50" />
<polygon fill="#9daa8a" fill-opacity="0.501961" points="198,88 190,80 194,106" />
<polygon fill="#b2c9cf" fill-opacity="0.501961" points="110,126 94,145 145,148" />
<polygon fill="#037391" fill-opacity="0.501961" points="116,149 159,149 144,178" />
<polygon fill="#10808d" fill-opacity="0.501961" points="117,145 51,151 100,162" />
<polygon fill="#0275cb" fill-opacity="0.501961" points="129,246 140,251 112,251" />
<polygon fill="#73c1fe" fill-opacity="0.501961" points="86,-13 134,-7 115,27" />
<polygon fill="#5ec3dc" fill-opacity="0.501961" points="137,240 142,211 123,252" />
<polygon fill="#368faa" fill-opacity="0.501961" points="110,109 99,103 82,106" />
<polygon fill="#67d4e5" fill-opacity="0.501961" points="93,213 85,231 70,241" />
<polygon fill="#62d4e3" fill-opacity="0.501961" points="132,198 120,212 120,226" />
<polygon fill="#3f9378" fill-opacity="0.501961" points="128,9 113,33 132,20" />
<polygon fill="#222811" fill-opacity="0.501961" points="107,39 132,43 145,35" />
<polygon fill="#71dbe0" fill-opacity="0.501961" points="156,230 149,240 155,213" />
<polygon fill="#1ea0e2" fill-opacity="0.501961" points="99,232 108,157 134,163" />
<polygon fill="#0056bb" fill-opacity="0.501961" points="114,242 117,238 103,241" />
<polygon fill="#003cbc" fill-opacity="0.501961" points="68,252 30,261 107,271" />
<polygon fill="#5f9e9f" fill-opacity="0.501961" points="183,141 147,147 175,152" />
<polygon fill="#5cd0e6" fill-opacity="0.501961" points="254,8 271,4 251,-5" />
<polygon fill="#4a6f04" fill-opacity="0.501961" points="225,16 221,51 271,22" />
<polygon fill="#a0b52a" fill-opacity="0.501961" points="87,51 50,55 55,46" />
<polygon fill="#0035ac" fill-opacity="0.501961" points="40,246 53,245 46,243" />
<polygon fill="#6f9703" fill-opacity="0.501961" points="31,42 94,61 7,62" />
<polygon fill="#4b9387" fill-opacity="0.501961" points="86,18 72,29 63,15" />
<polygon fill="#0050c5" fill-opacity="0.501961" points="69,245 78,241 63,242" />
<polygon fill="#e8e9dd" fill-opacity="0.501961" points="225,176 217,80 198,105" />
<polygon fill="#0073cd" fill-opacity="0.501961" points="119,232 135,233 140,188" />
</g>
</svg>