<svg xmlns="http://www.w3.org/2000/svg" version="1.1" width="1024" height="1024">
<rect x="0" y="0" width="1024" height="1024" fill="#606765" />
<g transform="scale(4.000000) translate(0.5 0.5)">
<polygon fill="#e8ffff" fill-opacity="0.501961" points="156,-16 259,51 169,181" />
<polygon fill="#000a18" fill-opacity="0.501961" points="-8,115 271,241 2,271" />
<polygon fill="#005480" fill-opacity="0.501961" points="31,239 184,131 271,215" />
<polygon fill="#cffaff" fill-opacity="0.501961" points="233,146 152,138 196,-16" />
<polygon fill="#b7865f" fill-opacity="0.501961" points="9,163 180,17 -16,-1" />
<polygon fill="#001624" fill-opacity="0.501961" points="64,270 256,143 271,261" />
<polygon fill="#3a99bf" fill-opacity="0.501961" points="162,53 134,203 201,169" />
<polygon fill="#ffffff" fill-opacity="0.501961" points="183,42 271,38 186,100" />
<polygon fill="#784b2a" fill-opacity="0.501961" points="19,154 127,195 175,25" />
<polygon fill="#172021" fill-opacity="0.501961" points="255,75 213,83 220,106" />
<polygon fill="#36afd9" fill-opacity="0.501961" points="55,203 107,203 95,241" />
<polygon fill="#2c1508" fill-opacity="0.501961" points="206,-5 211,33 271,30" />
<polygon fill="#241308" fill-opacity="0.501961" points="130,193 -11,142 -16,216" />
<polygon fill="#b8a08f" fill-opacity="0.501961" points="110,47 152,-16 186,54" />
<polygon fill="#633f28" fill-opacity="0.501961" points="33,-4 126,82 98,-16" />
<polygon fill="#bfced5" fill-opacity="0.501961" points="202,154 147,64 257,125" />
<polygon fill="#ffe7b9" fill-opacity="0.501961" points="271,22 189,-16 271,-13" />
<polygon fill="#97e0ff" fill-opacity="0.501961" points="155,-16 212,-12 184,48" />
<polygon fill="#b9a58a" fill-opacity="0.501961" points="66,128 11,85 79,59" />
<polygon fill="#b28257" fill-opacity="0.501961" points="271,131 226,96 213,154" />
<polygon fill="#006689" fill-opacity="0.501961" points="87,224 228,187 193,149" />
<polygon fill="#5a2f13" fill-opacity="0.501961" points="140,73 180,54 87,54" />
<polygon fill="#351f16" fill-opacity="0.501961" points="16,144 80,271 -16,262" />
<polygon fill="#93cde9" fill-opacity="0.501961" points="255,70 219,78 271,8" />
<polygon fill="#af8a72" fill-opacity="0.501961" points="166,115 86,117 101,142" />
<polygon fill="#322d27" fill-opacity="0.501961" points="113,202 47,142 83,118" />
<polygon fill="#004c6a" fill-opacity="0.501961" points="80,269 177,194 66,239" />
<polygon fill="#100b0d" fill-opacity="0.501961" points="253,211 271,271 190,258" />
<polygon fill="#372a21" fill-opacity="0.501961" points="245,49 212,3 254,16" />
<polygon fill="#ffffff" fill-opacity="0.501961" points="233,66 178,85 187,27" />
<polygon fill="#84c7e8" fill-opacity="0.501961" points="180,60 198,149 148,69" />
<polygon fill="#92745d" fill-opacity="0.501961" points="157,-16 155,66 179,58" />
<polygon fill="#3f0f00" fill-opacity="0.501961" points="143,96 101,112 151,112" />
<polygon fill="#077099" fill-opacity="0.501961" points="160,271 152,245 194,247" />
<polygon fill="#3aa2cf" fill-opacity="0.501961" points="70,196 60,217 98,237" />
<polygon fill="#94846e" fill-opacity="0.501961" points="152,68 165,96 105,105" />
<polygon fill="#d4f0ff" fill-opacity="0.501961" points="176,60 205,143 224,123" />
<polygon fill="#36444b" fill-opacity="0.501961" points="220,94 249,66 263,115" />
<polygon fill="#593520" fill-opacity="0.501961" points="257,140 213,159 271,201" />
<polygon fill="#758a8a" fill-opacity="0.501961" points="200,6 251,45 196,29" />
<polygon fill="#5096b2" fill-opacity="0.501961" points="137,151 161,96 196,183" />
<polygon fill="#b3a69a" fill-opacity="0.501961" points="181,33 114,57 129,8" />
<polygon fill="#7f6d5c" fill-opacity="0.501961" points="74,14 2,-16 -16,184" />
<polygon fill="#623c27" fill-opacity="0.501961" points="82,19 98,-16 156,0" />
<polygon fill="#004d71" fill-opacity="0.501961" points="244,184 271,231 188,179" />
<polygon fill="#a6d1e6" fill-opacity="0.501961" points="271,53 223,79 219,35" />
<polygon fill="#116883" fill-opacity="0.501961" points="127,203 67,199 104,231" />
<polygon fill="#514437" fill-opacity="0.501961" points="132,191 144,177 125,130" />
<polygon fill="#aadcfc" fill-opacity="0.501961" points="167,17 190,46 190,-16" />
<polygon fill="#44332c" fill-opacity="0.501961" points="20,269 66,205 -16,191" />
<polygon fill="#1d252c" fill-opacity="0.501961" points="264,216 156,201 205,269" />
<polygon fill="#896d57" fill-opacity="0.501961" points="74,13 46,61 125,80" />
<polygon fill="#191818" fill-opacity="0.501961" points="127,196 13,202 -8,159" />
<polygon fill="#45413b" fill-opacity="0.501961" points="-16,148 103,146 113,192" />
<polygon fill="#7e492a" fill-opacity="0.501961" points="151,117 132,97 162,99" />
<polygon fill="#0b1014" fill-opacity="0.501961" points="50,225 24,271 71,245" />
<polygon fill="#a79278" fill-opacity="0.501961" points="107,72 13,65 26,123" />
<polygon fill="#006391" fill-opacity="0.501961" points="101,271 61,217 72,249" />
<polygon fill="#2d170c" fill-opacity="0.501961" points="121,67 132,53 156,55" />
<polygon fill="#95a09b" fill-opacity="0.501961" points="225,117 217,80 207,89" />
<polygon fill="#82715e" fill-opacity="0.501961" points="271,115 194,155 252,152" />
<polygon fill="#ffffff" fill-opacity="0.501961" points="224,43 177,58 201,88" />
<polygon fill="#71421d" fill-opacity="0.501961" points="114,26 90,56 107,70" />
<polygon fill="#82694d" fill-opacity="0.501961" points="45,155 -6,123 53,127" />
<polygon fill="#2c2119" fill-opacity="0.501961" points="126,152 140,136 119,139" />
<polygon fill="#6a6a61" fill-opacity="0.501961" points="145,171 141,144 98,176" />
<polygon fill="#66503a" fill-opacity="0.501961" points="167,55 83,92 78,131" />
<polygon fill="#2a799b" fill-opacity="0.501961" points="140,180 197,136 204,186" />
<polygon fill="#537e8f" fill-opacity="0.501961" points="220,80 268,86 271,67" />
<polygon fill="#00435a" fill-opacity="0.501961" points="153,189 223,189 80,248" />
<polygon fill="#9b989e" fill-opacity="0.501961" points="152,114 150,132 134,118" />
<polygon fill="#8d7b6c" fill-opacity="0.501961" points="124,33 168,-9 102,14" />
<polygon fill="#abd3e9" fill-opacity="0.501961" points="216,81 180,130 177,88" />
<polygon fill="#0d2e3d" fill-opacity="0.501961" points="210,158 223,195 246,166" />
<polygon fill="#8c6b50" fill-opacity="0.501961" points="140,46 170,64 183,44" />
<polygon fill="#c4e9fd" fill-opacity="0.501961" points="262,17 257,71 248,52" />
<polygon fill="#9e8468" fill-opacity="0.501961" points="223,6 208,-16 262,18" />
<polygon fill="#8b643f" fill-opacity="0.501961" points="86,151 82,130 151,126" />
<polygon fill="#88b4cc" fill-opacity="0.501961" points="211,36 191,35 197,-16" />
<polygon fill="#48433e" fill-opacity="0.501961" points="271,102 218,79 229,105" />
<polygon fill="#241d19" fill-opacity="0.501961" points="138,176 131,192 97,201" />
<polygon fill="#006185" fill-opacity="0.501961" points="67,198 57,228 69,234" />
<polygon fill="#5c5246" fill-opacity="0.501961" points="248,44 207,20 222,13" />
<polygon fill="#b6a798" fill-opacity="0.501961" points="169,22 113,38 116,58" />
<polygon fill="#c3ad91" fill-opacity="0.501961" points="227,112 241,133 208,147" />
<polygon fill="#4793b0" fill-opacity="0.501961" points="141,176 154,111 179,169" />
<polygon fill="#8d7962" fill-opacity="0.501961" points="133,68 102,73 116,85" />
<polygon fill="#7c6954" fill-opacity="0.501961" points="217,86 222,109 271,118" />
<polygon fill="#4ea4ca" fill-opacity="0.501961" points="69,203 83,233 96,230" />
<polygon fill="#72b7d0" fill-opacity="0.501961" points="168,64 154,66 169,112" />
<polygon fill="#848376" fill-opacity="0.501961" points="164,91 158,114 142,66" />
<polygon fill="#062638" fill-opacity="0.501961" points="69,243 98,245 75,228" />
<polygon fill="#b6a48c" fill-opacity="0.501961" points="54,73 72,96 36,110" />
<polygon fill="#e3f3fd" fill-opacity="0.501961" points="218,118 197,101 210,138" />
<polygon fill="#005c7d" fill-opacity="0.501961" points="109,216 159,183 219,180" />
<polygon fill="#004564" fill-opacity="0.501961" points="251,226 257,200 193,153" />
<polygon fill="#261c19" fill-opacity="0.501961" points="237,24 271,24 209,3" />
<polygon fill="#94acae" fill-opacity="0.501961" points="250,64 249,34 239,76" />
<polygon fill="#6a533d" fill-opacity="0.501961" points="5,105 -16,163 16,144" />
<polygon fill="#5f4838" fill-opacity="0.501961" points="117,64 144,58 138,91" />
</g>
</svg>