<svg xmlns="http://www.w3.org/2000/svg" version="1.1" width="1024" height="1024">
<rect x="0" y="0" width="1024" height="1024" fill="#353a3b" />
<g transform="scale(4.000000) translate(0.5 0.5)">
<polygon fill="#e3f2f8" fill-opacity="0.501961" points="271,77 42,36 44,171" />
<polygon fill="#000000" fill-opacity="0.501961" points="254,271 -16,248 263,112" />
<polygon fill="#000000" fill-opacity="0.501961" points="-16,60 271,12 4,-16" />
<polygon fill="#b4c0c2" fill-opacity="0.501961" points="150,30 -9,118 232,130" />
<polygon fill="#000000" fill-opacity="0.501961" points="271,250 -16,97 -2,271" />
<polygon fill="#000000" fill-opacity="0.501961" points="271,59 -16,7 252,-16" />
<polygon fill="#3b4547" fill-opacity="0.501961" points="164,203 271,63 219,35" />
<polygon fill="#8c989b" fill-opacity="0.501961" points="207,48 81,46 186,159" />
<polygon fill="#465256" fill-opacity="0.501961" points="27,137 145,135 63,231" />
<polygon fill="#000000" fill-opacity="0.501961" points="263,271 257,111 89,271" />
<polygon fill="#000000" fill-opacity="0.501961" points="1,261 101,271 -16,108" />
<polygon fill="#000000" fill-opacity="0.501961" points="250,-16 271,97 236,91" />
<polygon fill="#000000" fill-opacity="0.501961" points="-16,59 3,-16 271,2" />
<polygon fill="#c1cace" fill-opacity="0.501961" points="42,71 190,128 35,132" />
<polygon fill="#4b5355" fill-opacity="0.501961" points="138,63 168,67 151,125" />
<polygon fill="#000000" fill-opacity="0.501961" points="182,50 52,-16 271,27" />
<polygon fill="#6d7c7f" fill-opacity="0.501961" points="43,74 -13,65 86,35" />
<polygon fill="#616d70" fill-opacity="0.501961" points="196,102 187,52 263,45" />
<polygon fill="#ccd6da" fill-opacity="0.501961" points="180,53 193,125 166,126" />
<polygon fill="#252e30" fill-opacity="0.501961" points="46,203 113,234 227,111" />
<polygon fill="#b5c0c5" fill-opacity="0.501961" points="30,115 160,41 52,58" />
<polygon fill="#525e61" fill-opacity="0.501961" points="-10,64 -14,107 67,151" />
<polygon fill="#889293" fill-opacity="0.501961" points="242,97 104,122 125,83" />
<polygon fill="#505b5e" fill-opacity="0.501961" points="161,127 200,137 181,198" />
<polygon fill="#000000" fill-opacity="0.501961" points="267,271 258,152 45,263" />
<polygon fill="#080f0f" fill-opacity="0.501961" points="34,99 47,67 17,94" />
<polygon fill="#d2dbdf" fill-opacity="0.501961" points="88,145 126,73 95,86" />
<polygon fill="#000000" fill-opacity="0.501961" points="153,31 8,-16 94,47" />
<polygon fill="#5f6a6d" fill-opacity="0.501961" points="120,182 65,138 103,131" />
<polygon fill="#000000" fill-opacity="0.501961" points="33,136 -16,244 58,271" />
<polygon fill="#101716" fill-opacity="0.501961" points="4,176 39,123 53,137" />
<polygon fill="#060a08" fill-opacity="0.501961" points="253,141 193,123 196,147" />
<polygon fill="#495257" fill-opacity="0.501961" points="33,151 56,206 84,134" />
<polygon fill="#a5b3b7" fill-opacity="0.501961" points="120,46 182,61 146,35" />
<polygon fill="#6d797b" fill-opacity="0.501961" points="229,109 240,127 201,122" />
<polygon fill="#bcc7cb" fill-opacity="0.501961" points="72,138 59,85 20,110" />
<polygon fill="#000000" fill-opacity="0.501961" points="212,51 270,-2 16,0" />
<polygon fill="#c8d3d6" fill-opacity="0.501961" points="180,136 188,81 196,116" />
<polygon fill="#000000" fill-opacity="0.501961" points="46,50 47,-16 -16,55" />
<polygon fill="#3a4244" fill-opacity="0.501961" points="166,74 140,71 145,88" />
<polygon fill="#4c5755" fill-opacity="0.501961" points="72,30 53,38 92,46" />
<polygon fill="#9eaaae" fill-opacity="0.501961" points="66,121 67,69 113,161" />
<polygon fill="#23292a" fill-opacity="0.501961" points="92,184 160,129 181,198" />
<polygon fill="#a8b3b4" fill-opacity="0.501961" points="111,107 187,120 110,137" />
<polygon fill="#737f82" fill-opacity="0.501961" points="170,50 206,47 222,104" />
<polygon fill="#485255" fill-opacity="0.501961" points="217,42 241,121 239,40" />
<polygon fill="#444d50" fill-opacity="0.501961" points="27,158 83,131 103,171" />
<polygon fill="#5b6467" fill-opacity="0.501961" points="146,97 175,106 125,108" />
<polygon fill="#cad4d8" fill-opacity="0.501961" points="44,123 90,132 53,135" />
<polygon fill="#151b1b" fill-opacity="0.501961" points="250,118 270,86 236,29" />
<polygon fill="#181f20" fill-opacity="0.501961" points="142,223 75,168 65,233" />
<polygon fill="#485051" fill-opacity="0.501961" points="206,79 195,78 197,116" />
<polygon fill="#a8b2b4" fill-opacity="0.501961" points="211,103 213,84 195,91" />
<polygon fill="#0b1010" fill-opacity="0.501961" points="34,82 8,81 37,100" />
<polygon fill="#5a6468" fill-opacity="0.501961" points="49,52 39,83 8,55" />
<polygon fill="#000000" fill-opacity="0.501961" points="5,271 51,199 -16,141" />
<polygon fill="#3c4245" fill-opacity="0.501961" points="146,136 103,136 117,174" />
<polygon fill="#b5c0c3" fill-opacity="0.501961" points="195,84 167,74 177,132" />
<polygon fill="#000000" fill-opacity="0.501961" points="141,2 1,59 -16,-6" />
<polygon fill="#656f72" fill-opacity="0.501961" points="116,106 126,73 137,73" />
<polygon fill="#283231" fill-opacity="0.501961" points="42,149 -16,148 24,162" />
<polygon fill="#687478" fill-opacity="0.501961" points="8,117 36,116 -16,97" />
<polygon fill="#5a6566" fill-opacity="0.501961" points="225,131 253,115 193,119" />
<polygon fill="#1a2121" fill-opacity="0.501961" points="231,125 235,164 194,155" />
<polygon fill="#000000" fill-opacity="0.501961" points="271,186 127,202 236,271" />
<polygon fill="#000000" fill-opacity="0.501961" points="145,152 143,138 161,141" />
<polygon fill="#cfd7db" fill-opacity="0.501961" points="83,131 122,77 102,130" />
<polygon fill="#687378" fill-opacity="0.501961" points="173,126 191,135 192,157" />
<polygon fill="#636d72" fill-opacity="0.501961" points="119,73 109,66 119,62" />
<polygon fill="#4f595d" fill-opacity="0.501961" points="55,217 39,154 61,135" />
<polygon fill="#050605" fill-opacity="0.501961" points="219,51 157,41 139,-11" />
<polygon fill="#000000" fill-opacity="0.501961" points="192,166 271,159 173,271" />
<polygon fill="#141a18" fill-opacity="0.501961" points="190,131 195,118 200,129" />
<polygon fill="#a0acb0" fill-opacity="0.501961" points="127,84 55,49 43,75" />
<polygon fill="#97a1a3" fill-opacity="0.501961" points="124,107 154,133 180,113" />
<polygon fill="#424a4d" fill-opacity="0.501961" points="43,62 -16,71 43,79" />
<polygon fill="#96a1a4" fill-opacity="0.501961" points="68,132 61,119 109,118" />
<polygon fill="#4a5556" fill-opacity="0.501961" points="220,104 232,92 271,101" />
<polygon fill="#758387" fill-opacity="0.501961" points="85,41 70,59 24,56" />
<polygon fill="#626d71" fill-opacity="0.501961" points="237,72 180,64 221,53" />
<polygon fill="#30383a" fill-opacity="0.501961" points="194,166 178,202 163,152" />
<polygon fill="#c4cdd1" fill-opacity="0.501961" points="52,135 63,72 46,69" />
<polygon fill="#394444" fill-opacity="0.501961" points="34,117 34,136 18,132" />
<polygon fill="#939ea3" fill-opacity="0.501961" points="200,50 167,67 127,51" />
<polygon fill="#bac5c9" fill-opacity="0.501961" points="136,60 117,82 129,49" />
<polygon fill="#010100" fill-opacity="0.501961" points="94,46 40,12 131,36" />
<polygon fill="#000000" fill-opacity="0.501961" points="248,-16 271,44 191,32" />
<polygon fill="#8b999c" fill-opacity="0.501961" points="2,76 -11,54 2,62" />
<polygon fill="#30373a" fill-opacity="0.501961" points="84,146 60,209 67,140" />
<polygon fill="#0f1515" fill-opacity="0.501961" points="40,152 -16,142 48,134" />
<polygon fill="#3f4748" fill-opacity="0.501961" points="203,118 195,93 212,115" />
<polygon fill="#5b676b" fill-opacity="0.501961" points="104,127 97,170 84,154" />
<polygon fill="#000000" fill-opacity="0.501961" points="36,165 73,264 -16,155" />
<polygon fill="#838d8f" fill-opacity="0.501961" points="166,101 170,72 114,105" />
<polygon fill="#1e2324" fill-opacity="0.501961" points="230,56 271,53 267,107" />
<polygon fill="#d1dbde" fill-opacity="0.501961" points="190,128 193,109 179,131" />
<polygon fill="#abb5b8" fill-opacity="0.501961" points="134,134 136,77 106,135" />
<polygon fill="#000000" fill-opacity="0.501961" points="10,242 77,271 207,219" />
<polygon fill="#313c3c" fill-opacity="0.501961" points="233,125 239,111 248,139" />
<polygon fill="#363f3f" fill-opacity="0.501961" points="40,50 59,33 85,38" />
</g>
</svg>