<svg xmlns="http://www.w3.org/2000/svg" version="1.1" width="1024" height="1024">
<rect x="0" y="0" width="1024" height="1024" fill="#646464" />
<g transform="scale(4.000000) translate(0.5 0.5)">
<polygon fill="#e9e9e9" fill-opacity="0.501961" points="108,259 96,23 189,142" />
<polygon fill="#000000" fill-opacity="0.501961" points="-16,249 64,271 49,154" />
<polygon fill="#000000" fill-opacity="0.501961" points="268,271 110,253 261,189" />
<polygon fill="#bababa" fill-opacity="0.501961" points="-16,197 -16,44 143,27" />
<polygon fill="#020202" fill-opacity="0.501961" points="232,48 271,-16 1,1" />
<polygon fill="#fbfbfb" fill-opacity="0.501961" points="183,144 97,271 117,163" />
<polygon fill="#040404" fill-opacity="0.501961" points="-16,207 16,271 110,141" />
<polygon fill="#616161" fill-opacity="0.501961" points="271,13 90,86 147,160" />
<polygon fill="#0f0f0f" fill-opacity="0.501961" points="-11,34 176,0 0,-16" />
<polygon fill="#d5d5d5" fill-opacity="0.501961" points="105,14 131,16 86,86" />
<polygon fill="#000000" fill-opacity="0.501961" points="190,113 180,69 220,96" />
<polygon fill="#000000" fill-opacity="0.501961" points="-16,251 102,231 95,271" />
<polygon fill="#000000" fill-opacity="0.501961" points="253,271 122,256 271,215" />
<polygon fill="#898989" fill-opacity="0.501961" points="121,183 50,261 60,185" />
<polygon fill="#cecece" fill-opacity="0.501961" points="10,138 65,46 19,54" />
<polygon fill="#505050" fill-opacity="0.501961" points="108,195 123,150 -16,147" />
<polygon fill="#ffffff" fill-opacity="0.501961" points="2,179 27,164 -11,154" />
<polygon fill="#9c9c9c" fill-opacity="0.501961" points="160,12 158,138 183,60" />
<polygon fill="#616161" fill-opacity="0.501961" points="21,118 40,184 111,5" />
<polygon fill="#000000" fill-opacity="0.501961" points="198,186 145,254 167,263" />
<polygon fill="#090909" fill-opacity="0.501961" points="258,256 271,216 197,152" />
<polygon fill="#9c9c9c" fill-opacity="0.501961" points="191,196 183,117 152,232" />
<polygon fill="#7c7c7c" fill-opacity="0.501961" points="184,224 215,237 235,124" />
<polygon fill="#979797" fill-opacity="0.501961" points="271,109 234,65 165,59" />
<polygon fill="#050505" fill-opacity="0.501961" points="269,-3 142,-6 203,27" />
<polygon fill="#eeeeee" fill-opacity="0.501961" points="147,201 186,123 131,167" />
<polygon fill="#d3d3d3" fill-opacity="0.501961" points="140,141 141,106 117,82" />
<polygon fill="#5d5d5d" fill-opacity="0.501961" points="122,8 134,98 185,28" />
<polygon fill="#0c0c0c" fill-opacity="0.501961" points="82,187 84,136 105,143" />
<polygon fill="#484848" fill-opacity="0.501961" points="17,85 -16,110 -6,173" />
<polygon fill="#adadad" fill-opacity="0.501961" points="39,43 -16,61 136,90" />
<polygon fill="#464646" fill-opacity="0.501961" points="46,12 91,68 102,10" />
<polygon fill="#4a4a4a" fill-opacity="0.501961" points="179,150 199,189 229,68" />
<polygon fill="#8d8d8d" fill-opacity="0.501961" points="243,145 264,208 189,138" />
<polygon fill="#1a1a1a" fill-opacity="0.501961" points="125,115 110,117 116,92" />
<polygon fill="#000000" fill-opacity="0.501961" points="184,271 206,209 212,271" />
<polygon fill="#d3d3d3" fill-opacity="0.501961" points="117,123 116,160 92,102" />
<polygon fill="#1d1d1d" fill-opacity="0.501961" points="23,109 36,130 41,112" />
<polygon fill="#010101" fill-opacity="0.501961" points="47,269 -16,262 61,168" />
<polygon fill="#eaeaea" fill-opacity="0.501961" points="11,99 24,138 11,144" />
<polygon fill="#909090" fill-opacity="0.501961" points="119,150 79,249 68,212" />
<polygon fill="#898989" fill-opacity="0.501961" points="102,231 104,271 123,239" />
<polygon fill="#ebebeb" fill-opacity="0.501961" points="18,102 32,95 48,113" />
<polygon fill="#1c1c1c" fill-opacity="0.501961" points="123,73 155,65 128,84" />
<polygon fill="#4d4d4d" fill-opacity="0.501961" points="-14,185 -4,222 56,161" />
<polygon fill="#000000" fill-opacity="0.501961" points="183,116 204,104 191,82" />
<polygon fill="#cbcbcb" fill-opacity="0.501961" points="63,101 27,92 46,73" />
<polygon fill="#adadad" fill-opacity="0.501961" points="104,13 107,110 134,40" />
<polygon fill="#363636" fill-opacity="0.501961" points="181,59 167,19 271,14" />
<polygon fill="#000000" fill-opacity="0.501961" points="77,271 97,215 97,270" />
<polygon fill="#bfbfbf" fill-opacity="0.501961" points="98,63 70,88 148,64" />
<polygon fill="#616161" fill-opacity="0.501961" points="80,115 43,73 112,95" />
<polygon fill="#0e0e0e" fill-opacity="0.501961" points="33,158 11,160 -3,150" />
<polygon fill="#acacac" fill-opacity="0.501961" points="144,80 171,99 169,124" />
<polygon fill="#aeaeae" fill-opacity="0.501961" points="157,17 176,61 172,31" />
<polygon fill="#cdcdcd" fill-opacity="0.501961" points="51,127 43,111 38,138" />
<polygon fill="#010101" fill-opacity="0.501961" points="17,146 35,149 41,143" />
<polygon fill="#2f2f2f" fill-opacity="0.501961" points="145,213 106,265 147,251" />
<polygon fill="#414141" fill-opacity="0.501961" points="206,80 213,133 247,127" />
<polygon fill="#080808" fill-opacity="0.501961" points="171,104 180,103 173,81" />
<polygon fill="#424242" fill-opacity="0.501961" points="70,209 49,196 86,136" />
<polygon fill="#737373" fill-opacity="0.501961" points="73,164 102,80 34,174" />
<polygon fill="#9c9c9c" fill-opacity="0.501961" points="195,199 191,240 212,185" />
<polygon fill="#000000" fill-opacity="0.501961" points="259,190 271,260 212,271" />
<polygon fill="#444444" fill-opacity="0.501961" points="51,89 58,110 40,83" />
<polygon fill="#555555" fill-opacity="0.501961" points="182,124 119,151 155,147" />
<polygon fill="#2e2e2e" fill-opacity="0.501961" points="150,47 176,60 134,60" />
<polygon fill="#383838" fill-opacity="0.501961" points="205,158 247,195 228,244" />
<polygon fill="#d0d0d0" fill-opacity="0.501961" points="17,164 32,156 23,171" />
<polygon fill="#9f9f9f" fill-opacity="0.501961" points="-16,50 81,46 13,99" />
<polygon fill="#4d4d4d" fill-opacity="0.501961" points="108,145 100,131 77,164" />
<polygon fill="#4d4d4d" fill-opacity="0.501961" points="72,130 43,98 64,164" />
<polygon fill="#bfbfbf" fill-opacity="0.501961" points="2,145 13,155 13,129" />
<polygon fill="#1c1c1c" fill-opacity="0.501961" points="170,65 200,78 207,105" />
<polygon fill="#c5c5c5" fill-opacity="0.501961" points="185,118 153,157 180,155" />
<polygon fill="#515151" fill-opacity="0.501961" points="56,246 109,195 84,248" />
<polygon fill="#6e6e6e" fill-opacity="0.501961" points="211,101 229,22 247,36" />
<polygon fill="#575757" fill-opacity="0.501961" points="111,132 131,140 132,130" />
<polygon fill="#000000" fill-opacity="0.501961" points="199,173 189,175 196,183" />
<polygon fill="#040404" fill-opacity="0.501961" points="64,96 72,82 67,79" />
<polygon fill="#202020" fill-opacity="0.501961" points="159,233 171,258 200,185" />
<polygon fill="#c2c2c2" fill-opacity="0.501961" points="73,81 69,99 88,74" />
<polygon fill="#2a2a2a" fill-opacity="0.501961" points="23,252 9,188 37,154" />
<polygon fill="#3d3d3d" fill-opacity="0.501961" points="271,-9 243,30 250,73" />
<polygon fill="#8a8a8a" fill-opacity="0.501961" points="179,116 101,161 136,159" />
<polygon fill="#6a6a6a" fill-opacity="0.501961" points="186,83 151,66 189,107" />
<polygon fill="#222222" fill-opacity="0.501961" points="91,92 107,93 107,101" />
<polygon fill="#c0c0c0" fill-opacity="0.501961" points="140,88 107,80 104,94" />
<polygon fill="#888888" fill-opacity="0.501961" points="264,80 222,66 237,111" />
<polygon fill="#767676" fill-opacity="0.501961" points="37,22 67,19 91,73" />
<polygon fill="#2a2a2a" fill-opacity="0.501961" points="80,26 127,5 4,6" />
<polygon fill="#3b3b3b" fill-opacity="0.501961" points="185,150 205,175 185,118" />
<polygon fill="#000000" fill-opacity="0.501961" points="8,154 2,144 -16,147" />
<polygon fill="#f1f1f1" fill-opacity="0.501961" points="121,164 152,153 129,201" />
<polygon fill="#7d7d7d" fill-opacity="0.501961" points="129,65 139,44 102,66" />
<polygon fill="#7e7e7e" fill-opacity="0.501961" points="218,185 214,238 201,174" />
<polygon fill="#bebebe" fill-opacity="0.501961" points="124,188 102,215 123,148" />
<polygon fill="#b1b1b1" fill-opacity="0.501961" points="95,117 125,129 98,94" />
<polygon fill="#000000" fill-opacity="0.501961" points="-16,252 45,233 71,270" />
<polygon fill="#646464" fill-opacity="0.501961" points="134,225 174,173 149,250" />
</g>
</svg>