<svg xmlns="http://www.w3.org/2000/svg" version="1.1" width="1024" height="1024">
<rect x="0" y="0" width="1024" height="1024" fill="#0d0d0d" />
<g transform="scale(4.000000) translate(0.5 0.5)">
<polygon fill="#ffffff" fill-opacity="0.501961" points="77,59 116,212 130,69" />
<polygon fill="#dadada" fill-opacity="0.501961" points="112,169 102,229 64,266" />
<polygon fill="#ffffff" fill-opacity="0.501961" points="125,171 125,87 94,157" />
<polygon fill="#000000" fill-opacity="0.501961" points="192,-16 271,254 82,264" />
<polygon fill="#e7e7e7" fill-opacity="0.501961" points="84,79 109,149 103,52" />
<polygon fill="#000000" fill-opacity="0.501961" points="112,-4 28,271 -16,0" />
<polygon fill="#000000" fill-opacity="0.501961" points="54,271 102,132 29,-16" />
<polygon fill="#000000" fill-opacity="0.501961" points="271,7 127,-16 129,218" />
<polygon fill="#010101" fill-opacity="0.501961" points="117,105 100,87 120,89" />
<polygon fill="#000000" fill-opacity="0.501961" points="252,-16 108,191 266,271" />
<polygon fill="#707070" fill-opacity="0.501961" points="112,194 55,271 86,266" />
<polygon fill="#d3d3d3" fill-opacity="0.501961" points="127,115 126,161 93,148" />
<polygon fill="#c3c3c3" fill-opacity="0.501961" points="95,57 83,103 112,60" />
<polygon fill="#030303" fill-opacity="0.501961" points="31,95 102,143 92,102" />
<polygon fill="#000000" fill-opacity="0.501961" points="-16,190 77,241 110,168" />
<polygon fill="#b0b0b0" fill-opacity="0.501961" points="110,98 85,102 79,72" />
<polygon fill="#000000" fill-opacity="0.501961" points="206,-16 63,80 -16,2" />
<polygon fill="#d8d8d8" fill-opacity="0.501961" points="97,158 116,173 109,106" />
<polygon fill="#494949" fill-opacity="0.501961" points="102,55 129,60 119,80" />
<polygon fill="#b5b5b5" fill-opacity="0.501961" points="110,169 89,222 107,203" />
<polygon fill="#1d1d1d" fill-opacity="0.501961" points="128,188 93,252 110,177" />
<polygon fill="#000000" fill-opacity="0.501961" points="-16,271 6,-16 71,249" />
<polygon fill="#848484" fill-opacity="0.501961" points="115,144 118,99 104,107" />
<polygon fill="#4c4c4c" fill-opacity="0.501961" points="128,106 123,125 130,146" />
<polygon fill="#000000" fill-opacity="0.501961" points="115,271 271,254 114,175" />
<polygon fill="#2d2d2d" fill-opacity="0.501961" points="87,72 83,91 89,83" />
<polygon fill="#000000" fill-opacity="0.501961" points="64,256 86,150 109,170" />
<polygon fill="#000000" fill-opacity="0.501961" points="133,110 271,-8 117,4" />
<polygon fill="#d8d8d8" fill-opacity="0.501961" points="99,165 123,105 123,164" />
<polygon fill="#333333" fill-opacity="0.501961" points="132,164 119,178 129,133" />
<polygon fill="#dbdbdb" fill-opacity="0.501961" points="90,66 89,96 103,118" />
<polygon fill="#b7b7b7" fill-opacity="0.501961" points="119,97 124,70 128,101" />
<polygon fill="#060606" fill-opacity="0.501961" points="96,164 41,79 90,103" />
<polygon fill="#b6b6b6" fill-opacity="0.501961" points="97,218 98,200 85,229" />
<polygon fill="#606060" fill-opacity="0.501961" points="96,88 115,106 106,86" />
<polygon fill="#aeaeae" fill-opacity="0.501961" points="108,59 91,65 110,83" />
<polygon fill="#3b3b3b" fill-opacity="0.501961" points="110,101 120,73 118,103" />
<polygon fill="#020202" fill-opacity="0.501961" points="92,107 101,138 59,194" />
<polygon fill="#dcdcdc" fill-opacity="0.501961" points="95,150 114,124 102,163" />
<polygon fill="#797979" fill-opacity="0.501961" points="126,57 127,68 122,72" />
<polygon fill="#bdbdbd" fill-opacity="0.501961" points="103,197 105,178 118,163" />
<polygon fill="#040404" fill-opacity="0.501961" points="90,33 20,43 86,72" />
<polygon fill="#4f4f4f" fill-opacity="0.501961" points="111,211 93,232 110,184" />
<polygon fill="#575757" fill-opacity="0.501961" points="123,118 129,113 128,97" />
<polygon fill="#000000" fill-opacity="0.501961" points="120,62 -13,-16 217,-16" />
<polygon fill="#d6d6d6" fill-opacity="0.501961" points="99,110 83,93 106,95" />
<polygon fill="#343434" fill-opacity="0.501961" points="98,48 123,66 115,71" />
<polygon fill="#020202" fill-opacity="0.501961" points="79,134 107,174 100,194" />
<polygon fill="#b6b6b6" fill-opacity="0.501961" points="99,55 108,87 90,66" />
<polygon fill="#2c2c2c" fill-opacity="0.501961" points="87,241 107,217 88,271" />
<polygon fill="#010101" fill-opacity="0.501961" points="98,15 265,271 256,-16" />
<polygon fill="#f4f4f4" fill-opacity="0.501961" points="123,143 119,118 114,164" />
<polygon fill="#c0c0c0" fill-opacity="0.501961" points="117,129 108,146 92,103" />
<polygon fill="#626262" fill-opacity="0.501961" points="94,234 81,264 45,271" />
<polygon fill="#000000" fill-opacity="0.501961" points="-16,266 -8,114 71,263" />
<polygon fill="#8d8d8d" fill-opacity="0.501961" points="117,128 108,108 116,109" />
<polygon fill="#020202" fill-opacity="0.501961" points="202,-1 106,215 248,201" />
<polygon fill="#b9b9b9" fill-opacity="0.501961" points="81,86 88,102 91,97" />
<polygon fill="#898989" fill-opacity="0.501961" points="72,247 97,214 84,246" />
<polygon fill="#1c1c1c" fill-opacity="0.501961" points="101,53 81,71 81,51" />
<polygon fill="#000000" fill-opacity="0.501961" points="115,92 110,96 108,90" />
<polygon fill="#010101" fill-opacity="0.501961" points="108,170 81,232 39,117" />
<polygon fill="#0a0a0a" fill-opacity="0.501961" points="96,151 71,41 68,100" />
<polygon fill="#d0d0d0" fill-opacity="0.501961" points="101,88 96,65 88,72" />
<polygon fill="#0c0c0c" fill-opacity="0.501961" points="127,135 129,99 138,140" />
<polygon fill="#101010" fill-opacity="0.501961" points="126,66 129,98 135,81" />
<polygon fill="#c5c5c5" fill-opacity="0.501961" points="104,187 95,207 102,204" />
<polygon fill="#767676" fill-opacity="0.501961" points="122,160 121,168 113,176" />
<polygon fill="#757575" fill-opacity="0.501961" points="127,62 117,89 108,87" />
<polygon fill="#757575" fill-opacity="0.501961" points="98,58 109,59 116,77" />
<polygon fill="#bdbdbd" fill-opacity="0.501961" points="114,170 98,160 114,152" />
<polygon fill="#bbbbbb" fill-opacity="0.501961" points="125,93 123,73 119,96" />
<polygon fill="#9e9e9e" fill-opacity="0.501961" points="116,142 115,127 109,137" />
<polygon fill="#afafaf" fill-opacity="0.501961" points="102,111 110,126 107,93" />
<polygon fill="#111111" fill-opacity="0.501961" points="91,105 102,137 87,133" />
<polygon fill="#020202" fill-opacity="0.501961" points="-3,271 1,-16 83,58" />
<polygon fill="#a7a7a7" fill-opacity="0.501961" points="107,174 105,181 114,175" />
<polygon fill="#363636" fill-opacity="0.501961" points="84,88 87,83 80,84" />
<polygon fill="#494949" fill-opacity="0.501961" points="115,105 103,96 116,101" />
<polygon fill="#191919" fill-opacity="0.501961" points="111,190 128,169 109,213" />
<polygon fill="#5d5d5d" fill-opacity="0.501961" points="81,85 90,87 88,77" />
<polygon fill="#010101" fill-opacity="0.501961" points="262,-16 254,271 93,252" />
<polygon fill="#414141" fill-opacity="0.501961" points="121,64 120,74 104,58" />
<polygon fill="#020202" fill-opacity="0.501961" points="131,172 271,174 129,-1" />
<polygon fill="#9b9b9b" fill-opacity="0.501961" points="80,235 97,204 101,215" />
<polygon fill="#8d8d8d" fill-opacity="0.501961" points="127,107 125,116 122,101" />
<polygon fill="#8e8e8e" fill-opacity="0.501961" points="89,79 88,65 91,71" />
<polygon fill="#686868" fill-opacity="0.501961" points="115,77 121,66 122,85" />
<polygon fill="#000000" fill-opacity="0.501961" points="27,271 94,206 74,245" />
<polygon fill="#6a6a6a" fill-opacity="0.501961" points="126,103 129,96 125,85" />
<polygon fill="#d0d0d0" fill-opacity="0.501961" points="125,131 119,116 124,117" />
<polygon fill="#a9a9a9" fill-opacity="0.501961" points="109,86 106,61 96,61" />
<polygon fill="#787878" fill-opacity="0.501961" points="117,125 113,124 116,112" />
<polygon fill="#adadad" fill-opacity="0.501961" points="104,112 116,108 109,120" />
<polygon fill="#b8b8b8" fill-opacity="0.501961" points="121,69 126,77 121,73" />
<polygon fill="#0a0a0a" fill-opacity="0.501961" points="81,35 81,52 108,53" />
<polygon fill="#d5d5d5" fill-opacity="0.501961" points="116,112 124,98 122,116" />
<polygon fill="#686868" fill-opacity="0.501961" points="60,271 86,271 77,240" />
<polygon fill="#474747" fill-opacity="0.501961" points="110,180 107,196 122,168" />
<polygon fill="#2d2d2d" fill-opacity="0.501961" points="115,89 113,104 119,100" />
</g>
</svg>