<svg xmlns="http://www.w3.org/2000/svg" version="1.1" width="1024" height="1024">
<rect x="0" y="0" width="1024" height="1024" fill="#717171" />
<g transform="scale(4.000000) translate(0.5 0.5)">
<polygon fill="#000000" fill-opacity="0.501961" points="253,97 92,169 148,-16" />
<polygon fill="#dcdcdc" fill-opacity="0.501961" points="25,271 125,208 11,-16" />
<polygon fill="#ffffff" fill-opacity="0.501961" points="241,90 176,183 271,182" />
<polygon fill="#000000" fill-opacity="0.501961" points="255,271 99,171 271,194" />
<polygon fill="#d3d3d3" fill-opacity="0.501961" points="-2,-16 114,8 -3,110" />
<polygon fill="#020202" fill-opacity="0.501961" points="57,66 224,30 140,-16" />
<polygon fill="#cdcdcd" fill-opacity="0.501961" points="254,106 271,-8 190,-13" />
<polygon fill="#404040" fill-opacity="0.501961" points="120,68 231,256 112,260" />
<polygon fill="#ffffff" fill-opacity="0.501961" points="197,151 232,110 166,143" />
<polygon fill="#b9b9b9" fill-opacity="0.501961" points="-16,142 46,234 119,53" />
<polygon fill="#000000" fill-opacity="0.501961" points="238,67 92,110 103,157" />
<polygon fill="#ffffff" fill-opacity="0.501961" points="129,132 141,159 157,135" />
<polygon fill="#000000" fill-opacity="0.501961" points="9,271 22,190 -16,188" />
<polygon fill="#cbcbcb" fill-opacity="0.501961" points="131,91 75,121 115,57" />
<polygon fill="#4a4a4a" fill-opacity="0.501961" points="-11,88 68,59 74,97" />
<polygon fill="#d3d3d3" fill-opacity="0.501961" points="78,93 118,206 79,271" />
<polygon fill="#020202" fill-opacity="0.501961" points="140,87 90,122 120,200" />
<polygon fill="#121212" fill-opacity="0.501961" points="209,123 215,13 83,39" />
<polygon fill="#e3e3e3" fill-opacity="0.501961" points="60,80 123,62 83,59" />
<polygon fill="#d0d0d0" fill-opacity="0.501961" points="241,25 250,-16 112,-16" />
<polygon fill="#0b0b0b" fill-opacity="0.501961" points="262,245 268,182 167,204" />
<polygon fill="#979797" fill-opacity="0.501961" points="182,218 190,271 217,219" />
<polygon fill="#d3d3d3" fill-opacity="0.501961" points="30,151 -1,110 -16,205" />
<polygon fill="#a7a7a7" fill-opacity="0.501961" points="144,0 123,25 108,2" />
<polygon fill="#262626" fill-opacity="0.501961" points="119,206 85,263 171,214" />
<polygon fill="#959595" fill-opacity="0.501961" points="188,173 132,214 236,174" />
<polygon fill="#181818" fill-opacity="0.501961" points="180,22 155,143 247,100" />
<polygon fill="#363636" fill-opacity="0.501961" points="6,112 35,89 11,130" />
<polygon fill="#b7b7b7" fill-opacity="0.501961" points="10,1 95,-16 23,96" />
<polygon fill="#fbfbfb" fill-opacity="0.501961" points="144,172 123,174 131,163" />
<polygon fill="#000000" fill-opacity="0.501961" points="174,151 136,166 158,143" />
<polygon fill="#d2d2d2" fill-opacity="0.501961" points="209,178 271,121 183,126" />
<polygon fill="#474747" fill-opacity="0.501961" points="59,71 24,91 111,81" />
<polygon fill="#969696" fill-opacity="0.501961" points="75,85 15,271 78,258" />
<polygon fill="#868686" fill-opacity="0.501961" points="207,40 250,116 229,0" />
<polygon fill="#000000" fill-opacity="0.501961" points="130,42 94,28 76,64" />
<polygon fill="#040404" fill-opacity="0.501961" points="110,164 140,165 128,129" />
<polygon fill="#3e3e3e" fill-opacity="0.501961" points="94,16 183,130 152,43" />
<polygon fill="#b9b9b9" fill-opacity="0.501961" points="124,200 81,161 74,271" />
<polygon fill="#090909" fill-opacity="0.501961" points="220,217 217,259 263,253" />
<polygon fill="#383838" fill-opacity="0.501961" points="222,79 262,130 271,110" />
<polygon fill="#363636" fill-opacity="0.501961" points="195,152 143,172 169,196" />
<polygon fill="#828282" fill-opacity="0.501961" points="-4,2 22,46 29,7" />
<polygon fill="#ffffff" fill-opacity="0.501961" points="165,211 159,212 162,202" />
<polygon fill="#c4c4c4" fill-opacity="0.501961" points="120,55 60,74 113,77" />
<polygon fill="#000000" fill-opacity="0.501961" points="136,181 125,199 105,160" />
<polygon fill="#1f1f1f" fill-opacity="0.501961" points="123,60 187,136 160,139" />
<polygon fill="#cbcbcb" fill-opacity="0.501961" points="271,164 240,100 178,146" />
<polygon fill="#e1e1e1" fill-opacity="0.501961" points="132,134 150,132 140,157" />
<polygon fill="#373737" fill-opacity="0.501961" points="118,-16 186,32 223,22" />
<polygon fill="#cacaca" fill-opacity="0.501961" points="242,-8 228,50 247,86" />
<polygon fill="#c2c2c2" fill-opacity="0.501961" points="120,207 102,154 80,151" />
<polygon fill="#030303" fill-opacity="0.501961" points="71,47 148,29 104,59" />
<polygon fill="#a1a1a1" fill-opacity="0.501961" points="175,220 147,228 127,250" />
<polygon fill="#f2f2f2" fill-opacity="0.501961" points="191,150 174,150 160,140" />
<polygon fill="#717171" fill-opacity="0.501961" points="271,62 246,63 246,-10" />
<polygon fill="#9a9a9a" fill-opacity="0.501961" points="120,92 -16,86 77,126" />
<polygon fill="#c0c0c0" fill-opacity="0.501961" points="-16,62 17,80 89,-16" />
<polygon fill="#acacac" fill-opacity="0.501961" points="146,131 159,141 142,158" />
<polygon fill="#363636" fill-opacity="0.501961" points="30,94 54,65 82,60" />
<polygon fill="#282828" fill-opacity="0.501961" points="167,233 182,200 180,271" />
<polygon fill="#555555" fill-opacity="0.501961" points="109,74 77,81 135,84" />
<polygon fill="#e4e4e4" fill-opacity="0.501961" points="191,-16 191,12 209,14" />
<polygon fill="#a9a9a9" fill-opacity="0.501961" points="187,159 271,183 179,186" />
<polygon fill="#000000" fill-opacity="0.501961" points="195,158 177,163 192,151" />
<polygon fill="#1f1f1f" fill-opacity="0.501961" points="17,248 19,205 -12,271" />
<polygon fill="#b4b4b4" fill-opacity="0.501961" points="32,93 67,185 -11,185" />
<polygon fill="#121212" fill-opacity="0.501961" points="235,100 147,110 212,121" />
<polygon fill="#9d9d9d" fill-opacity="0.501961" points="210,37 239,72 234,-10" />
<polygon fill="#b2b2b2" fill-opacity="0.501961" points="135,197 147,200 143,211" />
<polygon fill="#424242" fill-opacity="0.501961" points="150,138 151,192 182,198" />
<polygon fill="#373737" fill-opacity="0.501961" points="102,6 83,-12 86,5" />
<polygon fill="#848484" fill-opacity="0.501961" points="177,220 215,247 215,228" />
<polygon fill="#202020" fill-opacity="0.501961" points="150,65 115,51 157,139" />
<polygon fill="#b6b6b6" fill-opacity="0.501961" points="19,-16 97,27 38,73" />
<polygon fill="#000000" fill-opacity="0.501961" points="150,226 181,210 158,215" />
<polygon fill="#a9a9a9" fill-opacity="0.501961" points="182,187 188,197 179,203" />
<polygon fill="#cacaca" fill-opacity="0.501961" points="116,98 114,81 131,91" />
<polygon fill="#1c1c1c" fill-opacity="0.501961" points="173,137 234,84 214,49" />
<polygon fill="#838383" fill-opacity="0.501961" points="73,47 17,79 12,112" />
<polygon fill="#1f1f1f" fill-opacity="0.501961" points="202,45 217,21 170,4" />
<polygon fill="#1c1c1c" fill-opacity="0.501961" points="127,95 123,196 94,139" />
<polygon fill="#c5c5c5" fill-opacity="0.501961" points="271,152 237,97 191,174" />
<polygon fill="#1d1d1d" fill-opacity="0.501961" points="134,250 115,235 96,246" />
<polygon fill="#5f5f5f" fill-opacity="0.501961" points="184,6 158,9 142,-7" />
<polygon fill="#aaaaaa" fill-opacity="0.501961" points="20,208 18,122 80,271" />
<polygon fill="#cecece" fill-opacity="0.501961" points="75,112 95,108 89,127" />
<polygon fill="#656565" fill-opacity="0.501961" points="160,208 159,157 177,151" />
<polygon fill="#434343" fill-opacity="0.501961" points="245,76 251,82 271,75" />
<polygon fill="#dedede" fill-opacity="0.501961" points="165,271 139,252 73,271" />
<polygon fill="#1b1b1b" fill-opacity="0.501961" points="243,249 181,187 256,202" />
<polygon fill="#c6c6c6" fill-opacity="0.501961" points="19,143 -16,155 -16,76" />
<polygon fill="#000000" fill-opacity="0.501961" points="181,155 183,151 168,152" />
<polygon fill="#a4a4a4" fill-opacity="0.501961" points="98,253 91,271 122,247" />
<polygon fill="#1c1c1c" fill-opacity="0.501961" points="134,162 147,156 158,178" />
<polygon fill="#828282" fill-opacity="0.501961" points="39,258 17,248 42,211" />
<polygon fill="#555555" fill-opacity="0.501961" points="120,33 141,13 91,19" />
<polygon fill="#bdbdbd" fill-opacity="0.501961" points="59,77 116,57 123,75" />
<polygon fill="#8a8a8a" fill-opacity="0.501961" points="44,172 8,174 -16,159" />
<polygon fill="#3a3a3a" fill-opacity="0.501961" points="154,41 123,42 183,137" />
</g>
</svg>