<svg xmlns="http://www.w3.org/2000/svg" version="1.1" width="1024" height="1024">
<rect x="0" y="0" width="1024" height="1024" fill="#719c3b" />
<g transform="scale(4.000000) translate(0.5 0.5)">
<polygon fill="#d6afed" fill-opacity="0.501961" points="-16,232 208,224 125,64" />
<polygon fill="#228200" fill-opacity="0.501961" points="248,271 130,10 271,24" />
<polygon fill="#5fb500" fill-opacity="0.501961" points="13,-16 216,-11 86,169" />
<polygon fill="#369800" fill-opacity="0.501961" points="74,201 271,253 78,271" />
<polygon fill="#add5cc" fill-opacity="0.501961" points="90,83 119,122 228,78" />
<polygon fill="#e6d8ff" fill-opacity="0.501961" points="-16,197 109,173 18,251" />
<polygon fill="#357a00" fill-opacity="0.501961" points="-11,199 111,38 -16,22" />
<polygon fill="#95da00" fill-opacity="0.501961" points="-16,3 271,-13 182,48" />
<polygon fill="#003600" fill-opacity="0.501961" points="193,199 192,147 271,193" />
<polygon fill="#ffffff" fill-opacity="0.501961" points="172,138 145,180 135,134" />
<polygon fill="#d2141b" fill-opacity="0.501961" points="175,185 104,178 112,151" />
<polygon fill="#92de00" fill-opacity="0.501961" points="51,271 159,234 20,229" />
<polygon fill="#c1707e" fill-opacity="0.501961" points="78,172 31,58 32,169" />
<polygon fill="#910015" fill-opacity="0.501961" points="136,188 190,169 191,140" />
<polygon fill="#a898e5" fill-opacity="0.501961" points="162,234 62,184 197,173" />
<polygon fill="#1b6b00" fill-opacity="0.501961" points="271,227 243,271 115,230" />
<polygon fill="#960000" fill-opacity="0.501961" points="17,154 47,134 48,167" />
<polygon fill="#489300" fill-opacity="0.501961" points="56,31 264,90 271,5" />
<polygon fill="#cbd7ff" fill-opacity="0.501961" points="72,231 19,223 23,163" />
<polygon fill="#53981d" fill-opacity="0.501961" points="216,135 43,130 124,104" />
<polygon fill="#919676" fill-opacity="0.501961" points="262,207 172,238 182,196" />
<polygon fill="#306900" fill-opacity="0.501961" points="81,170 102,154 80,81" />
<polygon fill="#9fcda9" fill-opacity="0.501961" points="231,101 217,76 169,71" />
<polygon fill="#ff6fa3" fill-opacity="0.501961" points="38,78 24,48 28,14" />
<polygon fill="#3c7500" fill-opacity="0.501961" points="62,223 113,225 85,196" />
<polygon fill="#1d7200" fill-opacity="0.501961" points="271,218 221,167 247,24" />
<polygon fill="#b3eb00" fill-opacity="0.501961" points="-16,2 46,35 116,-16" />
<polygon fill="#9bb491" fill-opacity="0.501961" points="78,100 18,101 80,170" />
<polygon fill="#ffada8" fill-opacity="0.501961" points="151,180 88,133 137,146" />
<polygon fill="#328d00" fill-opacity="0.501961" points="20,47 -16,185 21,192" />
<polygon fill="#ffffff" fill-opacity="0.501961" points="44,206 2,237 -16,209" />
<polygon fill="#daeeff" fill-opacity="0.501961" points="147,100 95,88 97,103" />
<polygon fill="#309200" fill-opacity="0.501961" points="34,97 17,-10 -16,115" />
<polygon fill="#8d0800" fill-opacity="0.501961" points="143,183 174,162 164,187" />
<polygon fill="#358a00" fill-opacity="0.501961" points="32,34 47,116 127,69" />
<polygon fill="#4c5b00" fill-opacity="0.501961" points="28,227 -1,245 44,234" />
<polygon fill="#b4d6cb" fill-opacity="0.501961" points="184,105 184,86 121,104" />
<polygon fill="#cdfbcc" fill-opacity="0.501961" points="110,227 64,224 77,235" />
<polygon fill="#639551" fill-opacity="0.501961" points="120,82 85,49 191,50" />
<polygon fill="#dbcaf2" fill-opacity="0.501961" points="52,140 79,141 56,167" />
<polygon fill="#ff4021" fill-opacity="0.501961" points="111,148 113,176 141,145" />
<polygon fill="#8ad800" fill-opacity="0.501961" points="256,28 266,-10 118,-2" />
<polygon fill="#3a8a00" fill-opacity="0.501961" points="183,87 196,193 232,101" />
<polygon fill="#775f01" fill-opacity="0.501961" points="194,219 228,210 182,204" />
<polygon fill="#b6bbef" fill-opacity="0.501961" points="193,169 113,217 178,208" />
<polygon fill="#c7e2ff" fill-opacity="0.501961" points="215,161 211,150 223,153" />
<polygon fill="#618f11" fill-opacity="0.501961" points="48,109 -14,139 45,138" />
<polygon fill="#4c8d0e" fill-opacity="0.501961" points="140,80 220,84 150,60" />
<polygon fill="#f3f2ff" fill-opacity="0.501961" points="135,180 143,132 159,159" />
<polygon fill="#5e8f15" fill-opacity="0.501961" points="107,93 168,94 142,83" />
<polygon fill="#308400" fill-opacity="0.501961" points="264,111 188,3 171,40" />
<polygon fill="#e5ffff" fill-opacity="0.501961" points="100,165 109,135 120,142" />
<polygon fill="#90d808" fill-opacity="0.501961" points="-16,257 149,271 92,229" />
<polygon fill="#2b7b00" fill-opacity="0.501961" points="174,269 165,209 195,260" />
<polygon fill="#eac4a4" fill-opacity="0.501961" points="234,202 194,198 228,211" />
<polygon fill="#fe569f" fill-opacity="0.501961" points="29,15 25,30 20,11" />
<polygon fill="#901f12" fill-opacity="0.501961" points="50,163 23,165 21,127" />
<polygon fill="#b49cc8" fill-opacity="0.501961" points="39,176 103,165 97,204" />
<polygon fill="#1a5000" fill-opacity="0.501961" points="189,195 240,139 248,203" />
<polygon fill="#ffffff" fill-opacity="0.501961" points="30,241 30,247 16,246" />
<polygon fill="#97ccaa" fill-opacity="0.501961" points="118,113 122,146 153,126" />
<polygon fill="#9a6032" fill-opacity="0.501961" points="3,207 -16,197 25,197" />
<polygon fill="#ff8194" fill-opacity="0.501961" points="32,78 38,100 38,70" />
<polygon fill="#922215" fill-opacity="0.501961" points="112,157 135,176 105,180" />
<polygon fill="#307c00" fill-opacity="0.501961" points="121,254 255,271 271,209" />
<polygon fill="#d5f5ff" fill-opacity="0.501961" points="65,119 56,124 46,116" />
<polygon fill="#6ca83c" fill-opacity="0.501961" points="172,237 140,210 134,236" />
<polygon fill="#82c0ed" fill-opacity="0.501961" points="180,223 209,221 179,212" />
<polygon fill="#547000" fill-opacity="0.501961" points="139,44 156,-16 136,12" />
<polygon fill="#9ccaf3" fill-opacity="0.501961" points="204,77 183,79 182,72" />
<polygon fill="#539a07" fill-opacity="0.501961" points="147,136 197,89 244,106" />
<polygon fill="#7cc50b" fill-opacity="0.501961" points="103,263 102,197 116,216" />
<polygon fill="#3e8e00" fill-opacity="0.501961" points="-3,163 -14,-16 27,41" />
<polygon fill="#b56d65" fill-opacity="0.501961" points="64,208 49,202 40,212" />
<polygon fill="#9ccb7d" fill-opacity="0.501961" points="235,93 219,104 211,75" />
<polygon fill="#c8d5ff" fill-opacity="0.501961" points="84,175 72,213 51,219" />
<polygon fill="#d4e3da" fill-opacity="0.501961" points="34,256 43,251 39,243" />
<polygon fill="#acd289" fill-opacity="0.501961" points="98,141 91,118 88,140" />
<polygon fill="#92b58e" fill-opacity="0.501961" points="183,51 174,48 187,76" />
<polygon fill="#7fbe00" fill-opacity="0.501961" points="59,222 92,224 67,214" />
<polygon fill="#86c700" fill-opacity="0.501961" points="31,36 141,25 116,-16" />
<polygon fill="#2d7f00" fill-opacity="0.501961" points="43,34 126,46 48,65" />
<polygon fill="#b3e2e1" fill-opacity="0.501961" points="43,110 55,106 66,109" />
<polygon fill="#ae87b4" fill-opacity="0.501961" points="104,214 76,190 98,174" />
<polygon fill="#316300" fill-opacity="0.501961" points="111,219 78,200 72,215" />
<polygon fill="#b9b2ea" fill-opacity="0.501961" points="21,163 20,201 43,193" />
<polygon fill="#7d7582" fill-opacity="0.501961" points="24,163 42,162 42,189" />
<polygon fill="#4f9908" fill-opacity="0.501961" points="115,134 50,111 86,108" />
<polygon fill="#86cc00" fill-opacity="0.501961" points="18,27 -16,9 26,-4" />
<polygon fill="#a8ec00" fill-opacity="0.501961" points="196,-16 201,28 245,-16" />
<polygon fill="#b0bdc2" fill-opacity="0.501961" points="166,148 138,131 192,143" />
<polygon fill="#3c5a00" fill-opacity="0.501961" points="100,159 80,133 80,166" />
<polygon fill="#495800" fill-opacity="0.501961" points="53,132 54,124 68,139" />
<polygon fill="#59a500" fill-opacity="0.501961" points="271,-13 186,36 255,52" />
<polygon fill="#a6eb00" fill-opacity="0.501961" points="193,-16 169,34 163,0" />
<polygon fill="#f3938a" fill-opacity="0.501961" points="138,169 140,179 174,164" />
<polygon fill="#196c00" fill-opacity="0.501961" points="18,190 5,191 18,149" />
<polygon fill="#b5d6c8" fill-opacity="0.501961" points="134,90 122,82 157,81" />
<polygon fill="#88aa63" fill-opacity="0.501961" points="106,53 92,54 95,92" />
<polygon fill="#3f8f00" fill-opacity="0.501961" points="266,79 168,124 271,164" />
</g>
</svg>