<svg xmlns="http://www.w3.org/2000/svg" version="1.1" width="1024" height="1024">
<rect x="0" y="0" width="1024" height="1024" fill="#252629" />
<g transform="scale(4.000000) translate(0.5 0.5)">
<polygon fill="#6f6055" fill-opacity="0.501961" points="193,236 14,-16 219,94" />
<polygon fill="#000000" fill-opacity="0.501961" points="140,84 -16,241 162,271" />
<polygon fill="#717b7d" fill-opacity="0.501961" points="106,-16 149,94 68,88" />
<polygon fill="#000000" fill-opacity="0.501961" points="-16,147 192,165 8,271" />
<polygon fill="#030000" fill-opacity="0.501961" points="223,271 271,109 183,197" />
<polygon fill="#72868a" fill-opacity="0.501961" points="152,205 173,163 207,271" />
<polygon fill="#3c5b77" fill-opacity="0.501961" points="124,-16 235,6 144,43" />
<polygon fill="#00040d" fill-opacity="0.501961" points="142,79 167,-5 172,151" />
<polygon fill="#17303d" fill-opacity="0.501961" points="-16,154 99,70 169,167" />
<polygon fill="#854424" fill-opacity="0.501961" points="197,62 233,164 164,181" />
<polygon fill="#e3ad7a" fill-opacity="0.501961" points="149,136 174,165 144,90" />
<polygon fill="#8fc1db" fill-opacity="0.501961" points="179,93 173,122 162,88" />
<polygon fill="#515b69" fill-opacity="0.501961" points="97,-16 46,75 25,9" />
<polygon fill="#13486b" fill-opacity="0.501961" points="163,168 201,271 154,244" />
<polygon fill="#87aabc" fill-opacity="0.501961" points="137,69 105,81 121,106" />
<polygon fill="#181d22" fill-opacity="0.501961" points="107,-9 87,100 115,72" />
<polygon fill="#120206" fill-opacity="0.501961" points="202,23 235,264 259,128" />
<polygon fill="#ffc49f" fill-opacity="0.501961" points="204,86 196,69 192,98" />
<polygon fill="#2f6b93" fill-opacity="0.501961" points="271,160 254,260 246,183" />
<polygon fill="#000000" fill-opacity="0.501961" points="200,134 187,102 202,97" />
<polygon fill="#000000" fill-opacity="0.501961" points="159,226 37,134 -16,271" />
<polygon fill="#8c9fab" fill-opacity="0.501961" points="73,83 91,27 93,84" />
<polygon fill="#d6965f" fill-opacity="0.501961" points="185,181 165,158 184,219" />
<polygon fill="#000000" fill-opacity="0.501961" points="25,-16 26,77 -16,14" />
<polygon fill="#857367" fill-opacity="0.501961" points="133,44 99,80 113,6" />
<polygon fill="#d58956" fill-opacity="0.501961" points="199,185 209,128 194,147" />
<polygon fill="#0a1016" fill-opacity="0.501961" points="154,101 207,42 132,49" />
<polygon fill="#060a0a" fill-opacity="0.501961" points="66,100 52,78 88,19" />
<polygon fill="#12100e" fill-opacity="0.501961" points="168,161 196,127 191,173" />
<polygon fill="#020002" fill-opacity="0.501961" points="213,271 181,187 233,188" />
<polygon fill="#5d7b94" fill-opacity="0.501961" points="131,12 153,34 162,0" />
<polygon fill="#26373f" fill-opacity="0.501961" points="90,161 -16,80 119,91" />
<polygon fill="#b8672e" fill-opacity="0.501961" points="184,109 173,148 184,165" />
<polygon fill="#000109" fill-opacity="0.501961" points="169,176 148,139 107,245" />
<polygon fill="#000a11" fill-opacity="0.501961" points="147,117 120,119 134,77" />
<polygon fill="#010000" fill-opacity="0.501961" points="152,98 174,159 175,123" />
<polygon fill="#558caa" fill-opacity="0.501961" points="167,207 175,172 150,201" />
<polygon fill="#e1a46a" fill-opacity="0.501961" points="137,60 124,40 137,83" />
<polygon fill="#000000" fill-opacity="0.501961" points="210,8 238,-16 198,44" />
<polygon fill="#ffcc83" fill-opacity="0.501961" points="202,102 208,101 211,113" />
<polygon fill="#000000" fill-opacity="0.501961" points="105,77 122,61 130,65" />
<polygon fill="#533b2e" fill-opacity="0.501961" points="126,132 158,141 146,106" />
<polygon fill="#654b3d" fill-opacity="0.501961" points="29,64 68,61 82,10" />
<polygon fill="#d9b081" fill-opacity="0.501961" points="156,110 150,119 139,84" />
<polygon fill="#0d232f" fill-opacity="0.501961" points="137,209 181,213 184,238" />
<polygon fill="#a95d51" fill-opacity="0.501961" points="183,187 209,182 180,170" />
<polygon fill="#d88448" fill-opacity="0.501961" points="195,227 196,250 183,214" />
<polygon fill="#000000" fill-opacity="0.501961" points="110,5 103,45 100,17" />
<polygon fill="#02040b" fill-opacity="0.501961" points="111,-11 139,25 144,77" />
<polygon fill="#818082" fill-opacity="0.501961" points="74,64 100,54 92,17" />
<polygon fill="#665f57" fill-opacity="0.501961" points="97,131 81,126 97,99" />
<polygon fill="#5e2d1d" fill-opacity="0.501961" points="199,77 220,95 222,144" />
<polygon fill="#475464" fill-opacity="0.501961" points="208,24 169,13 163,39" />
<polygon fill="#000000" fill-opacity="0.501961" points="-13,269 -8,177 165,188" />
<polygon fill="#314a58" fill-opacity="0.501961" points="180,99 154,86 197,68" />
<polygon fill="#6f2700" fill-opacity="0.501961" points="180,94 194,97 173,135" />
<polygon fill="#00131b" fill-opacity="0.501961" points="143,101 136,79 108,126" />
<polygon fill="#594f49" fill-opacity="0.501961" points="134,18 157,29 148,56" />
<polygon fill="#da8e5b" fill-opacity="0.501961" points="117,2 116,20 108,-5" />
<polygon fill="#000000" fill-opacity="0.501961" points="176,-7 160,40 163,-10" />
<polygon fill="#f5b57d" fill-opacity="0.501961" points="126,32 119,30 129,50" />
<polygon fill="#8198a1" fill-opacity="0.501961" points="139,76 122,101 121,66" />
<polygon fill="#000108" fill-opacity="0.501961" points="247,114 200,78 224,59" />
<polygon fill="#123044" fill-opacity="0.501961" points="132,271 123,232 61,271" />
<polygon fill="#1c2d39" fill-opacity="0.501961" points="-16,96 62,58 32,176" />
<polygon fill="#0e1d23" fill-opacity="0.501961" points="126,142 95,56 90,94" />
<polygon fill="#49403c" fill-opacity="0.501961" points="106,35 120,22 132,75" />
<polygon fill="#454f52" fill-opacity="0.501961" points="50,140 24,106 71,127" />
<polygon fill="#0e0c0e" fill-opacity="0.501961" points="191,180 240,271 252,201" />
<polygon fill="#2a506b" fill-opacity="0.501961" points="271,218 245,268 255,147" />
<polygon fill="#456784" fill-opacity="0.501961" points="61,1 22,28 65,18" />
<polygon fill="#091522" fill-opacity="0.501961" points="263,-16 233,-16 239,95" />
<polygon fill="#3c1e1e" fill-opacity="0.501961" points="238,181 199,189 221,105" />
<polygon fill="#eea27d" fill-opacity="0.501961" points="193,98 203,92 198,70" />
<polygon fill="#163a56" fill-opacity="0.501961" points="244,-16 210,22 238,25" />
<polygon fill="#1f3c56" fill-opacity="0.501961" points="27,0 71,-7 26,28" />
<polygon fill="#276791" fill-opacity="0.501961" points="160,147 150,143 144,123" />
<polygon fill="#a97c57" fill-opacity="0.501961" points="250,108 271,111 252,116" />
<polygon fill="#06040c" fill-opacity="0.501961" points="183,136 191,175 194,141" />
<polygon fill="#091d2a" fill-opacity="0.501961" points="22,136 80,169 163,158" />
<polygon fill="#ab6334" fill-opacity="0.501961" points="194,138 177,131 182,104" />
<polygon fill="#3a2a20" fill-opacity="0.501961" points="70,15 95,27 58,53" />
<polygon fill="#1c2125" fill-opacity="0.501961" points="203,80 132,53 143,79" />
<polygon fill="#314c63" fill-opacity="0.501961" points="156,239 194,271 185,220" />
<polygon fill="#c1662c" fill-opacity="0.501961" points="195,244 202,248 201,271" />
<polygon fill="#e5b885" fill-opacity="0.501961" points="151,119 161,130 160,142" />
<polygon fill="#040000" fill-opacity="0.501961" points="202,127 185,90 200,104" />
<polygon fill="#000000" fill-opacity="0.501961" points="151,248 58,212 134,168" />
<polygon fill="#5f7682" fill-opacity="0.501961" points="165,98 167,84 193,88" />
<polygon fill="#201f23" fill-opacity="0.501961" points="182,42 158,31 153,118" />
<polygon fill="#000002" fill-opacity="0.501961" points="189,62 209,30 155,76" />
<polygon fill="#7d452f" fill-opacity="0.501961" points="212,128 213,94 226,140" />
<polygon fill="#0b0c0d" fill-opacity="0.501961" points="90,-13 102,17 86,16" />
<polygon fill="#001020" fill-opacity="0.501961" points="-1,127 -16,178 40,180" />
<polygon fill="#c2d3dd" fill-opacity="0.501961" points="123,92 120,82 130,87" />
<polygon fill="#6c7a82" fill-opacity="0.501961" points="104,52 105,74 127,50" />
<polygon fill="#0d0000" fill-opacity="0.501961" points="255,162 232,199 241,105" />
<polygon fill="#000008" fill-opacity="0.501961" points="117,17 133,13 119,-16" />
<polygon fill="#3c302c" fill-opacity="0.501961" points="28,59 58,36 29,23" />
<polygon fill="#628cae" fill-opacity="0.501961" points="234,159 232,156 229,164" />
</g>
</svg>