<svg xmlns="http://www.w3.org/2000/svg" version="1.1" width="1024" height="1024">
<rect x="0" y="0" width="1024" height="1024" fill="#c8d9da" />
<g transform="scale(4.000000) translate(0.5 0.5)">
<polygon fill="#667788" fill-opacity="0.501961" points="54,183 188,214 14,222" />
<polygon fill="#ffffff" fill-opacity="0.501961" points="250,271 271,202 3,250" />
<polygon fill="#000350" fill-opacity="0.501961" points="91,194 68,227 86,225" />
<polygon fill="#000030" fill-opacity="0.501961" points="32,224 41,198 22,218" />
<polygon fill="#cdffff" fill-opacity="0.501961" points="168,96 134,224 119,88" />
<polygon fill="#a6bdbc" fill-opacity="0.501961" points="146,229 271,173 -16,165" />
<polygon fill="#fef6f3" fill-opacity="0.501961" points="52,209 140,271 -16,256" />
<polygon fill="#000043" fill-opacity="0.501961" points="55,203 65,214 70,201" />
<polygon fill="#fff9f6" fill-opacity="0.501961" points="127,271 112,212 82,212" />
<polygon fill="#000e58" fill-opacity="0.501961" points="84,195 85,213 99,202" />
<polygon fill="#bbcdcc" fill-opacity="0.501961" points="143,193 -16,130 -12,204" />
<polygon fill="#000355" fill-opacity="0.501961" points="32,202 43,207 27,223" />
<polygon fill="#948681" fill-opacity="0.501961" points="159,225 167,200 116,221" />
<polygon fill="#d0ffff" fill-opacity="0.501961" points="117,136 147,219 159,88" />
<polygon fill="#99c8c5" fill-opacity="0.501961" points="172,51 166,150 146,53" />
<polygon fill="#94cfcc" fill-opacity="0.501961" points="118,164 105,97 127,45" />
<polygon fill="#f8f2f0" fill-opacity="0.501961" points="180,210 270,254 79,266" />
<polygon fill="#b6c7c7" fill-opacity="0.501961" points="264,151 159,153 262,221" />
<polygon fill="#cfdad4" fill-opacity="0.501961" points="80,213 53,222 82,197" />
<polygon fill="#cfe2e1" fill-opacity="0.501961" points="-16,-4 14,159 198,-3" />
<polygon fill="#b9cece" fill-opacity="0.501961" points="9,153 47,211 119,150" />
<polygon fill="#549d9a" fill-opacity="0.501961" points="163,212 159,187 150,212" />
<polygon fill="#001051" fill-opacity="0.501961" points="74,213 72,225 85,222" />
<polygon fill="#639891" fill-opacity="0.501961" points="121,181 131,215 118,215" />
<polygon fill="#95e3e0" fill-opacity="0.501961" points="123,206 144,209 117,134" />
<polygon fill="#f0edec" fill-opacity="0.501961" points="31,271 20,212 -16,229" />
<polygon fill="#f0eceb" fill-opacity="0.501961" points="142,231 78,244 89,214" />
<polygon fill="#d2e4e3" fill-opacity="0.501961" points="271,145 181,6 166,151" />
<polygon fill="#dbdedd" fill-opacity="0.501961" points="255,193 264,233 161,215" />
<polygon fill="#b6cac9" fill-opacity="0.501961" points="172,49 111,96 107,50" />
<polygon fill="#25376d" fill-opacity="0.501961" points="19,217 44,205 35,201" />
<polygon fill="#cffaf9" fill-opacity="0.501961" points="165,88 117,96 134,216" />
<polygon fill="#b7c4c3" fill-opacity="0.501961" points="94,179 76,215 54,180" />
<polygon fill="#97d0ce" fill-opacity="0.501961" points="165,197 142,215 164,130" />
<polygon fill="#cdd1d2" fill-opacity="0.501961" points="11,183 31,210 -5,217" />
<polygon fill="#d2e4e4" fill-opacity="0.501961" points="113,154 106,71 35,145" />
<polygon fill="#d7dedd" fill-opacity="0.501961" points="1,233 77,229 65,212" />
<polygon fill="#bec7c3" fill-opacity="0.501961" points="115,217 113,175 92,210" />
<polygon fill="#071f5b" fill-opacity="0.501961" points="59,211 57,200 68,202" />
<polygon fill="#c7d3d0" fill-opacity="0.501961" points="44,193 42,229 65,186" />
<polygon fill="#85c5c2" fill-opacity="0.501961" points="168,125 159,83 171,85" />
<polygon fill="#b5bcbd" fill-opacity="0.501961" points="156,225 228,184 178,190" />
<polygon fill="#000c50" fill-opacity="0.501961" points="23,219 33,221 24,212" />
<polygon fill="#85b9b6" fill-opacity="0.501961" points="121,181 124,163 114,143" />
<polygon fill="#09205b" fill-opacity="0.501961" points="83,205 95,204 91,195" />
<polygon fill="#c4f2f2" fill-opacity="0.501961" points="164,117 136,179 152,197" />
<polygon fill="#b5c6c7" fill-opacity="0.501961" points="111,198 -3,187 -16,146" />
<polygon fill="#af9896" fill-opacity="0.501961" points="115,207 169,221 119,224" />
<polygon fill="#cfd8d8" fill-opacity="0.501961" points="36,214 37,234 79,211" />
<polygon fill="#98e0dc" fill-opacity="0.501961" points="138,82 166,90 112,90" />
<polygon fill="#b8c8c7" fill-opacity="0.501961" points="40,178 82,214 70,173" />
<polygon fill="#c4d0d0" fill-opacity="0.501961" points="162,158 162,205 199,171" />
<polygon fill="#263f7a" fill-opacity="0.501961" points="80,205 88,214 97,197" />
<polygon fill="#efeaea" fill-opacity="0.501961" points="122,250 201,223 39,232" />
<polygon fill="#647e7b" fill-opacity="0.501961" points="120,202 116,211 132,214" />
<polygon fill="#82c9c7" fill-opacity="0.501961" points="119,113 110,91 114,139" />
<polygon fill="#b7e9e8" fill-opacity="0.501961" points="114,103 126,182 132,135" />
<polygon fill="#b3c1bf" fill-opacity="0.501961" points="123,190 112,217 81,181" />
<polygon fill="#092462" fill-opacity="0.501961" points="79,225 87,217 73,220" />
<polygon fill="#dce5e3" fill-opacity="0.501961" points="81,213 97,224 122,217" />
<polygon fill="#90d4d1" fill-opacity="0.501961" points="131,209 120,188 157,206" />
<polygon fill="#f1e2de" fill-opacity="0.501961" points="136,217 130,219 136,210" />
<polygon fill="#052060" fill-opacity="0.501961" points="38,213 34,203 41,210" />
<polygon fill="#ddffff" fill-opacity="0.501961" points="127,134 148,90 146,180" />
<polygon fill="#c2d4d4" fill-opacity="0.501961" points="156,45 93,84 162,83" />
<polygon fill="#bdd0d1" fill-opacity="0.501961" points="120,201 40,152 116,156" />
<polygon fill="#e4e8e8" fill-opacity="0.501961" points="265,233 199,209 133,234" />
<polygon fill="#cfd6d5" fill-opacity="0.501961" points="43,188 -16,232 18,220" />
<polygon fill="#0b225b" fill-opacity="0.501961" points="72,219 86,220 77,213" />
<polygon fill="#001957" fill-opacity="0.501961" points="60,201 65,210 68,206" />
<polygon fill="#eaebeb" fill-opacity="0.501961" points="-5,230 104,225 5,271" />
<polygon fill="#9e8281" fill-opacity="0.501961" points="145,208 143,222 132,224" />
<polygon fill="#b8e9eb" fill-opacity="0.501961" points="157,149 151,84 166,101" />
<polygon fill="#ecf6f7" fill-opacity="0.501961" points="76,50 94,44 113,49" />
<polygon fill="#cbdddd" fill-opacity="0.501961" points="172,-8 271,91 170,90" />
<polygon fill="#182f67" fill-opacity="0.501961" points="34,202 42,204 26,223" />
<polygon fill="#a3bcbc" fill-opacity="0.501961" points="108,97 110,51 117,80" />
<polygon fill="#cad3d4" fill-opacity="0.501961" points="30,210 -16,213 27,194" />
<polygon fill="#b1b3b1" fill-opacity="0.501961" points="171,85 169,53 163,79" />
<polygon fill="#708786" fill-opacity="0.501961" points="165,211 158,192 159,214" />
<polygon fill="#bac8c8" fill-opacity="0.501961" points="271,188 254,150 151,220" />
<polygon fill="#bac8c8" fill-opacity="0.501961" points="36,220 50,210 78,213" />
<polygon fill="#cadcdc" fill-opacity="0.501961" points="81,150 11,-16 -16,153" />
<polygon fill="#c8cdcb" fill-opacity="0.501961" points="105,220 127,218 115,214" />
<polygon fill="#85c1bd" fill-opacity="0.501961" points="110,108 117,86 109,83" />
<polygon fill="#bccbcb" fill-opacity="0.501961" points="56,211 55,180 -4,173" />
<polygon fill="#acbab9" fill-opacity="0.501961" points="78,208 62,197 93,187" />
<polygon fill="#93c1bf" fill-opacity="0.501961" points="156,159 160,182 165,143" />
<polygon fill="#f5f5f5" fill-opacity="0.501961" points="172,271 87,241 271,247" />
<polygon fill="#c2f4f4" fill-opacity="0.501961" points="160,90 113,89 129,101" />
<polygon fill="#b2bdbe" fill-opacity="0.501961" points="165,213 220,186 161,197" />
<polygon fill="#ccdede" fill-opacity="0.501961" points="174,-14 196,48 86,48" />
<polygon fill="#a8b7b4" fill-opacity="0.501961" points="95,209 96,190 110,203" />
<polygon fill="#192b63" fill-opacity="0.501961" points="41,211 31,204 41,202" />
<polygon fill="#14255f" fill-opacity="0.501961" points="22,214 27,223 30,217" />
<polygon fill="#dcdfdf" fill-opacity="0.501961" points="23,237 70,227 -16,218" />
<polygon fill="#7d8e8c" fill-opacity="0.501961" points="149,216 165,208 148,208" />
<polygon fill="#1d2f64" fill-opacity="0.501961" points="30,205 37,201 44,207" />
<polygon fill="#a0a9aa" fill-opacity="0.501961" points="171,60 169,50 163,50" />
<polygon fill="#7fb3b2" fill-opacity="0.501961" points="126,191 120,171 121,205" />
</g>
</svg>