<svg xmlns="http://www.w3.org/2000/svg" version="1.1" width="1024" height="1024">
<rect x="0" y="0" width="1024" height="1024" fill="#2a4c82" />
<g transform="scale(4.000000) translate(0.5 0.5)">
<polygon fill="#ffffff" fill-opacity="0.501961" points="139,57 271,189 93,182" />
<polygon fill="#000000" fill-opacity="0.501961" points="-15,271 14,157 271,244" />
<polygon fill="#000000" fill-opacity="0.501961" points="-16,180 248,271 271,191" />
<polygon fill="#ffffff" fill-opacity="0.501961" points="204,104 127,158 225,191" />
<polygon fill="#003ba5" fill-opacity="0.501961" points="-8,198 271,0 0,-16" />
<polygon fill="#2c75ce" fill-opacity="0.501961" points="137,185 107,92 -16,177" />
<polygon fill="#3c82dd" fill-opacity="0.501961" points="271,33 249,202 181,63" />
<polygon fill="#000012" fill-opacity="0.501961" points="271,262 -16,253 173,174" />
<polygon fill="#fcfaf1" fill-opacity="0.501961" points="212,190 130,81 106,121" />
<polygon fill="#0f50a3" fill-opacity="0.501961" points="80,65 200,114 271,9" />
<polygon fill="#000005" fill-opacity="0.501961" points="101,271 71,164 -16,230" />
<polygon fill="#000322" fill-opacity="0.501961" points="271,170 253,271 101,271" />
<polygon fill="#002578" fill-opacity="0.501961" points="215,-12 -14,100 -12,-16" />
<polygon fill="#fffff4" fill-opacity="0.501961" points="142,164 209,114 208,189" />
<polygon fill="#000011" fill-opacity="0.501961" points="110,193 -16,176 4,271" />
<polygon fill="#578dcf" fill-opacity="0.501961" points="233,87 215,174 271,163" />
<polygon fill="#326cbb" fill-opacity="0.501961" points="105,116 138,161 -16,182" />
<polygon fill="#dbdbdc" fill-opacity="0.501961" points="159,186 183,106 123,183" />
<polygon fill="#000c28" fill-opacity="0.501961" points="48,271 168,176 271,232" />
<polygon fill="#91a9c7" fill-opacity="0.501961" points="124,145 184,103 92,122" />
<polygon fill="#fffffd" fill-opacity="0.501961" points="127,114 119,90 155,96" />
<polygon fill="#d8e1e5" fill-opacity="0.501961" points="187,187 229,188 271,155" />
<polygon fill="#0a4f9f" fill-opacity="0.501961" points="66,37 -16,167 123,109" />
<polygon fill="#2157a4" fill-opacity="0.501961" points="271,15 236,108 92,80" />
<polygon fill="#00000e" fill-opacity="0.501961" points="170,173 134,208 209,205" />
<polygon fill="#000012" fill-opacity="0.501961" points="239,194 270,161 253,271" />
<polygon fill="#2b68b5" fill-opacity="0.501961" points="108,121 132,185 83,179" />
<polygon fill="#4579bf" fill-opacity="0.501961" points="195,96 244,186 257,79" />
<polygon fill="#fffff7" fill-opacity="0.501961" points="217,132 214,168 142,135" />
<polygon fill="#f8f2eb" fill-opacity="0.501961" points="186,185 134,138 236,189" />
<polygon fill="#2a69c6" fill-opacity="0.501961" points="1,178 -16,113 52,181" />
<polygon fill="#000722" fill-opacity="0.501961" points="237,191 -3,271 -16,178" />
<polygon fill="#000005" fill-opacity="0.501961" points="86,186 46,186 64,168" />
<polygon fill="#d6d5d6" fill-opacity="0.501961" points="189,159 133,141 153,185" />
<polygon fill="#031433" fill-opacity="0.501961" points="68,242 107,189 271,244" />
<polygon fill="#99b9d8" fill-opacity="0.501961" points="271,107 237,190 271,165" />
<polygon fill="#fef7ee" fill-opacity="0.501961" points="125,120 102,113 115,124" />
<polygon fill="#033d8f" fill-opacity="0.501961" points="-16,135 2,49 247,-15" />
<polygon fill="#00267b" fill-opacity="0.501961" points="139,-7 -4,60 -16,-5" />
<polygon fill="#3068b4" fill-opacity="0.501961" points="171,100 234,125 175,68" />
<polygon fill="#fefdf9" fill-opacity="0.501961" points="218,163 180,107 205,116" />
<polygon fill="#1b56a7" fill-opacity="0.501961" points="131,82 55,165 -14,145" />
<polygon fill="#dededf" fill-opacity="0.501961" points="108,126 94,131 96,122" />
<polygon fill="#134c94" fill-opacity="0.501961" points="193,12 48,78 173,92" />
<polygon fill="#fffdf5" fill-opacity="0.501961" points="163,163 188,185 237,176" />
<polygon fill="#3b72bd" fill-opacity="0.501961" points="134,142 58,160 88,183" />
<polygon fill="#bac5d4" fill-opacity="0.501961" points="172,102 153,139 196,118" />
<polygon fill="#b3bbc9" fill-opacity="0.501961" points="134,152 129,169 177,173" />
<polygon fill="#7997c1" fill-opacity="0.501961" points="171,88 169,115 116,143" />
<polygon fill="#031330" fill-opacity="0.501961" points="199,261 189,188 254,191" />
<polygon fill="#4d85c7" fill-opacity="0.501961" points="214,149 271,110 228,173" />
<polygon fill="#c4c9d1" fill-opacity="0.501961" points="202,164 206,145 179,162" />
<polygon fill="#b8c3d1" fill-opacity="0.501961" points="212,173 208,188 240,189" />
<polygon fill="#fefbf2" fill-opacity="0.501961" points="138,89 117,97 143,113" />
<polygon fill="#000317" fill-opacity="0.501961" points="-13,209 -9,271 222,254" />
<polygon fill="#000312" fill-opacity="0.501961" points="206,214 170,173 143,222" />
<polygon fill="#356fc4" fill-opacity="0.501961" points="-11,177 82,157 44,181" />
<polygon fill="#5f90c7" fill-opacity="0.501961" points="263,170 239,189 229,180" />
<polygon fill="#1e569d" fill-opacity="0.501961" points="72,117 120,73 118,114" />
<polygon fill="#fffffd" fill-opacity="0.501961" points="176,176 220,161 192,188" />
<polygon fill="#aebbd1" fill-opacity="0.501961" points="199,114 156,128 118,110" />
<polygon fill="#d3d5d9" fill-opacity="0.501961" points="134,185 138,178 158,186" />
<polygon fill="#5a81ba" fill-opacity="0.501961" points="153,110 164,110 144,91" />
<polygon fill="#00000f" fill-opacity="0.501961" points="104,204 -14,176 -16,210" />
<polygon fill="#0c1d35" fill-opacity="0.501961" points="152,187 112,245 112,184" />
<polygon fill="#3e6da8" fill-opacity="0.501961" points="90,113 110,128 105,106" />
<polygon fill="#4f84c6" fill-opacity="0.501961" points="216,175 227,133 271,140" />
<polygon fill="#2e63ad" fill-opacity="0.501961" points="196,113 158,86 271,68" />
<polygon fill="#000016" fill-opacity="0.501961" points="271,149 236,211 271,215" />
<polygon fill="#ffffff" fill-opacity="0.501961" points="260,163 271,152 253,151" />
<polygon fill="#2963ab" fill-opacity="0.501961" points="132,151 126,169 76,123" />
<polygon fill="#f3eee8" fill-opacity="0.501961" points="149,123 195,169 140,147" />
<polygon fill="#2055a1" fill-opacity="0.501961" points="125,69 271,40 158,97" />
<polygon fill="#fffffe" fill-opacity="0.501961" points="184,153 201,112 213,141" />
<polygon fill="#5e89bc" fill-opacity="0.501961" points="211,189 215,176 211,180" />
<polygon fill="#000823" fill-opacity="0.501961" points="6,190 73,175 100,197" />
<polygon fill="#255ea5" fill-opacity="0.501961" points="169,106 156,94 158,83" />
<polygon fill="#95aac4" fill-opacity="0.501961" points="140,140 114,139 114,126" />
<polygon fill="#3f7bc5" fill-opacity="0.501961" points="133,183 83,183 61,160" />
<polygon fill="#fffffc" fill-opacity="0.501961" points="219,158 216,166 193,155" />
<polygon fill="#0a4ba0" fill-opacity="0.501961" points="-16,104 117,105 -16,146" />
<polygon fill="#0c3f8c" fill-opacity="0.501961" points="31,80 271,-1 154,-5" />
<polygon fill="#fefcf5" fill-opacity="0.501961" points="132,111 127,89 148,98" />
<polygon fill="#021333" fill-opacity="0.501961" points="200,189 271,230 186,251" />
<polygon fill="#386ab5" fill-opacity="0.501961" points="238,122 259,78 179,106" />
<polygon fill="#7193c0" fill-opacity="0.501961" points="200,148 202,156 206,155" />
<polygon fill="#001738" fill-opacity="0.501961" points="163,180 183,201 146,195" />
<polygon fill="#5388c5" fill-opacity="0.501961" points="247,154 241,184 207,116" />
<polygon fill="#00000b" fill-opacity="0.501961" points="73,181 66,165 59,186" />
<polygon fill="#00060f" fill-opacity="0.501961" points="181,193 169,170 170,191" />
<polygon fill="#041432" fill-opacity="0.501961" points="154,217 148,245 64,241" />
<polygon fill="#d5dae5" fill-opacity="0.501961" points="246,171 250,164 260,172" />
<polygon fill="#003586" fill-opacity="0.501961" points="-11,34 165,-13 -16,93" />
<polygon fill="#eae9e5" fill-opacity="0.501961" points="202,177 235,171 227,184" />
<polygon fill="#1c589f" fill-opacity="0.501961" points="108,149 108,126 114,127" />
<polygon fill="#dcdbd9" fill-opacity="0.501961" points="166,148 173,170 155,185" />
<polygon fill="#b4bfd0" fill-opacity="0.501961" points="128,179 137,139 153,180" />
<polygon fill="#e3e9f0" fill-opacity="0.501961" points="150,94 149,100 159,99" />
<polygon fill="#000003" fill-opacity="0.501961" points="-16,251 -16,231 51,253" />
<polygon fill="#fffff6" fill-opacity="0.501961" points="201,188 187,185 212,162" />
</g>
</svg>