<svg xmlns="http://www.w3.org/2000/svg" version="1.1" width="1024" height="1024">
<rect x="0" y="0" width="1024" height="1024" fill="#2c0202" />
<g transform="scale(4.000000) translate(0.5 0.5)">
<polygon fill="#ec0308" fill-opacity="0.501961" points="56,3 123,108 46,112" />
<polygon fill="#7b0504" fill-opacity="0.501961" points="252,87 165,157 124,6" />
<polygon fill="#000302" fill-opacity="0.501961" points="-16,86 271,180 -9,248" />
<polygon fill="#ac0407" fill-opacity="0.501961" points="127,75 90,136 40,47" />
<polygon fill="#000000" fill-opacity="0.501961" points="117,88 106,259 161,129" />
<polygon fill="#000302" fill-opacity="0.501961" points="-16,3 52,-13 15,246" />
<polygon fill="#010403" fill-opacity="0.501961" points="254,271 271,94 169,165" />
<polygon fill="#5a0100" fill-opacity="0.501961" points="83,81 171,90 47,-11" />
<polygon fill="#7a0209" fill-opacity="0.501961" points="149,271 201,245 147,211" />
<polygon fill="#010303" fill-opacity="0.501961" points="258,-16 147,7 260,81" />
<polygon fill="#6a0505" fill-opacity="0.501961" points="208,36 157,202 161,33" />
<polygon fill="#4e0406" fill-opacity="0.501961" points="110,271 59,271 88,141" />
<polygon fill="#a0050b" fill-opacity="0.501961" points="120,250 138,265 125,207" />
<polygon fill="#8c0b0d" fill-opacity="0.501961" points="130,76 144,114 180,111" />
<polygon fill="#a20104" fill-opacity="0.501961" points="43,38 78,16 76,131" />
<polygon fill="#000000" fill-opacity="0.501961" points="161,207 131,80 87,155" />
<polygon fill="#2f0101" fill-opacity="0.501961" points="179,61 188,168 234,60" />
<polygon fill="#1c0000" fill-opacity="0.501961" points="174,-11 72,63 114,65" />
<polygon fill="#4b0000" fill-opacity="0.501961" points="142,22 158,-16 31,21" />
<polygon fill="#ba0713" fill-opacity="0.501961" points="116,107 118,81 73,121" />
<polygon fill="#450100" fill-opacity="0.501961" points="80,99 94,151 56,109" />
<polygon fill="#000101" fill-opacity="0.501961" points="157,117 138,261 116,98" />
<polygon fill="#000000" fill-opacity="0.501961" points="99,116 135,97 89,214" />
<polygon fill="#0b0403" fill-opacity="0.501961" points="0,271 87,198 3,-16" />
<polygon fill="#cc0409" fill-opacity="0.501961" points="91,80 60,61 51,95" />
<polygon fill="#680302" fill-opacity="0.501961" points="191,151 152,176 166,136" />
<polygon fill="#620504" fill-opacity="0.501961" points="200,128 151,22 111,73" />
<polygon fill="#0b0302" fill-opacity="0.501961" points="-2,51 -16,7 104,-16" />
<polygon fill="#8e0d0d" fill-opacity="0.501961" points="170,94 153,111 164,143" />
<polygon fill="#150202" fill-opacity="0.501961" points="258,190 217,105 130,215" />
<polygon fill="#960607" fill-opacity="0.501961" points="73,72 92,135 116,75" />
<polygon fill="#4e0403" fill-opacity="0.501961" points="227,120 271,78 119,54" />
<polygon fill="#510100" fill-opacity="0.501961" points="36,58 55,7 49,101" />
<polygon fill="#020000" fill-opacity="0.501961" points="167,35 147,20 176,-16" />
<polygon fill="#6c0906" fill-opacity="0.501961" points="92,189 81,176 91,148" />
<polygon fill="#270507" fill-opacity="0.501961" points="14,271 108,214 68,180" />
<polygon fill="#750201" fill-opacity="0.501961" points="178,30 125,37 185,64" />
<polygon fill="#000000" fill-opacity="0.501961" points="101,115 160,159 159,135" />
<polygon fill="#600000" fill-opacity="0.501961" points="104,72 70,64 78,7" />
<polygon fill="#3c0306" fill-opacity="0.501961" points="147,220 165,189 224,271" />
<polygon fill="#0e0000" fill-opacity="0.501961" points="271,68 189,70 220,50" />
<polygon fill="#ff2b3d" fill-opacity="0.501961" points="139,103 143,102 140,107" />
<polygon fill="#b8010c" fill-opacity="0.501961" points="47,43 69,33 51,59" />
<polygon fill="#000101" fill-opacity="0.501961" points="91,167 125,87 118,264" />
<polygon fill="#170000" fill-opacity="0.501961" points="131,10 94,34 118,69" />
<polygon fill="#d4051d" fill-opacity="0.501961" points="120,85 104,103 112,108" />
<polygon fill="#400100" fill-opacity="0.501961" points="126,53 153,72 124,-16" />
<polygon fill="#570205" fill-opacity="0.501961" points="81,260 108,264 104,215" />
<polygon fill="#6d0206" fill-opacity="0.501961" points="151,271 220,271 148,229" />
<polygon fill="#420202" fill-opacity="0.501961" points="218,35 188,153 186,55" />
<polygon fill="#060102" fill-opacity="0.501961" points="75,125 -16,159 87,157" />
<polygon fill="#0c0403" fill-opacity="0.501961" points="271,144 256,261 191,129" />
<polygon fill="#1b0405" fill-opacity="0.501961" points="148,174 238,259 233,180" />
<polygon fill="#0a0202" fill-opacity="0.501961" points="46,73 -16,39 2,271" />
<polygon fill="#590000" fill-opacity="0.501961" points="93,11 51,36 50,13" />
<polygon fill="#720502" fill-opacity="0.501961" points="157,179 168,146 154,165" />
<polygon fill="#000200" fill-opacity="0.501961" points="122,83 113,128 138,98" />
<polygon fill="#000100" fill-opacity="0.501961" points="98,120 92,147 136,93" />
<polygon fill="#0f0302" fill-opacity="0.501961" points="132,257 143,202 148,251" />
<polygon fill="#6e0809" fill-opacity="0.501961" points="121,79 171,90 182,124" />
<polygon fill="#660303" fill-opacity="0.501961" points="249,103 236,68 220,85" />
<polygon fill="#360100" fill-opacity="0.501961" points="152,82 144,102 143,80" />
<polygon fill="#000001" fill-opacity="0.501961" points="130,190 161,155 157,125" />
<polygon fill="#730302" fill-opacity="0.501961" points="43,105 81,98 88,121" />
<polygon fill="#100404" fill-opacity="0.501961" points="-2,256 34,95 43,271" />
<polygon fill="#170302" fill-opacity="0.501961" points="126,206 79,184 117,234" />
<polygon fill="#000000" fill-opacity="0.501961" points="155,208 117,100 151,113" />
<polygon fill="#1a0404" fill-opacity="0.501961" points="210,-16 183,38 236,42" />
<polygon fill="#900505" fill-opacity="0.501961" points="103,87 93,139 81,94" />
<polygon fill="#160102" fill-opacity="0.501961" points="155,-16 207,-6 160,38" />
<polygon fill="#460301" fill-opacity="0.501961" points="189,161 169,134 189,110" />
<polygon fill="#400000" fill-opacity="0.501961" points="74,-16 110,26 94,63" />
<polygon fill="#1f0201" fill-opacity="0.501961" points="34,74 64,-12 39,-14" />
<polygon fill="#ec2435" fill-opacity="0.501961" points="144,108 139,101 139,107" />
<polygon fill="#970305" fill-opacity="0.501961" points="55,108 76,102 48,80" />
<polygon fill="#530403" fill-opacity="0.501961" points="115,76 133,33 146,81" />
<polygon fill="#3c0100" fill-opacity="0.501961" points="45,13 84,1 51,27" />
<polygon fill="#3b050a" fill-opacity="0.501961" points="228,271 167,271 198,213" />
<polygon fill="#4f0202" fill-opacity="0.501961" points="85,102 70,119 53,112" />
<polygon fill="#100302" fill-opacity="0.501961" points="251,-16 210,55 263,83" />
<polygon fill="#390100" fill-opacity="0.501961" points="127,65 81,52 107,72" />
<polygon fill="#630303" fill-opacity="0.501961" points="190,38 209,53 143,76" />
<polygon fill="#120000" fill-opacity="0.501961" points="108,46 113,28 156,20" />
<polygon fill="#c10408" fill-opacity="0.501961" points="73,62 51,79 82,94" />
<polygon fill="#7a0303" fill-opacity="0.501961" points="168,48 140,46 150,27" />
<polygon fill="#8c050b" fill-opacity="0.501961" points="142,86 135,74 138,99" />
<polygon fill="#600201" fill-opacity="0.501961" points="53,93 45,106 48,69" />
<polygon fill="#a00910" fill-opacity="0.501961" points="162,151 161,138 165,146" />
<polygon fill="#140503" fill-opacity="0.501961" points="105,269 115,209 122,255" />
<polygon fill="#320406" fill-opacity="0.501961" points="57,215 52,262 106,212" />
<polygon fill="#4d0103" fill-opacity="0.501961" points="145,26 121,0 146,-12" />
<polygon fill="#2d0301" fill-opacity="0.501961" points="186,139 201,113 266,109" />
<polygon fill="#4f0405" fill-opacity="0.501961" points="181,114 243,115 177,78" />
<polygon fill="#700407" fill-opacity="0.501961" points="132,262 117,268 128,211" />
<polygon fill="#ba0614" fill-opacity="0.501961" points="115,105 115,81 95,115" />
<polygon fill="#670705" fill-opacity="0.501961" points="141,103 163,59 157,118" />
<polygon fill="#730100" fill-opacity="0.501961" points="56,61 49,81 49,52" />
<polygon fill="#000000" fill-opacity="0.501961" points="125,105 100,114 108,200" />
<polygon fill="#870406" fill-opacity="0.501961" points="127,81 68,64 101,89" />
<polygon fill="#090302" fill-opacity="0.501961" points="-16,218 89,138 39,110" />
</g>
</svg>