<svg xmlns="http://www.w3.org/2000/svg" version="1.1" width="1024" height="1024">
<rect x="0" y="0" width="1024" height="1024" fill="#917a66" />
<g transform="scale(4.000000) translate(0.5 0.5)">
<polygon fill="#fffbeb" fill-opacity="0.501961" points="16,33 172,44 198,209" />
<polygon fill="#000000" fill-opacity="0.501961" points="270,-16 -16,9 234,54" />
<polygon fill="#ffffff" fill-opacity="0.501961" points="6,208 -16,271 226,251" />
<polygon fill="#620e00" fill-opacity="0.501961" points="5,192 167,233 147,108" />
<polygon fill="#000000" fill-opacity="0.501961" points="172,40 14,-16 -16,27" />
<polygon fill="#fff298" fill-opacity="0.501961" points="271,182 158,184 208,98" />
<polygon fill="#ffffff" fill-opacity="0.501961" points="75,271 -16,236 68,188" />
<polygon fill="#eaf0f3" fill-opacity="0.501961" points="24,97 271,52 65,35" />
<polygon fill="#000000" fill-opacity="0.501961" points="79,131 -16,100 12,158" />
<polygon fill="#320500" fill-opacity="0.501961" points="215,271 225,147 271,248" />
<polygon fill="#150300" fill-opacity="0.501961" points="255,72 170,66 261,129" />
<polygon fill="#0f0400" fill-opacity="0.501961" points="36,-8 -16,93 38,86" />
<polygon fill="#ffffff" fill-opacity="0.501961" points="50,151 -16,161 7,190" />
<polygon fill="#cf8354" fill-opacity="0.501961" points="99,174 129,61 36,94" />
<polygon fill="#000a06" fill-opacity="0.501961" points="227,219 131,208 177,239" />
<polygon fill="#3f1000" fill-opacity="0.501961" points="78,228 74,144 117,233" />
<polygon fill="#230e00" fill-opacity="0.501961" points="179,61 206,124 178,126" />
<polygon fill="#fffef5" fill-opacity="0.501961" points="-2,261 137,226 256,271" />
<polygon fill="#ffd57d" fill-opacity="0.501961" points="249,107 177,221 145,143" />
<polygon fill="#fffffd" fill-opacity="0.501961" points="194,65 271,68 231,44" />
<polygon fill="#221716" fill-opacity="0.501961" points="-16,195 98,161 13,216" />
<polygon fill="#ffffff" fill-opacity="0.501961" points="61,86 3,110 -16,96" />
<polygon fill="#3979b7" fill-opacity="0.501961" points="143,107 77,65 132,67" />
<polygon fill="#ffffff" fill-opacity="0.501961" points="253,149 261,192 232,184" />
<polygon fill="#280600" fill-opacity="0.501961" points="226,137 271,96 258,153" />
<polygon fill="#1b0000" fill-opacity="0.501961" points="211,179 271,206 193,198" />
<polygon fill="#391b00" fill-opacity="0.501961" points="-16,119 53,96 55,142" />
<polygon fill="#000000" fill-opacity="0.501961" points="-16,0 8,32 120,-2" />
<polygon fill="#fbf8f8" fill-opacity="0.501961" points="175,48 119,52 174,137" />
<polygon fill="#fffffe" fill-opacity="0.501961" points="184,241 213,228 211,258" />
<polygon fill="#202929" fill-opacity="0.501961" points="271,48 98,36 264,-6" />
<polygon fill="#c5dcef" fill-opacity="0.501961" points="44,33 3,47 -7,32" />
<polygon fill="#cd8a12" fill-opacity="0.501961" points="207,152 237,167 245,113" />
<polygon fill="#ffffff" fill-opacity="0.501961" points="62,149 40,152 65,136" />
<polygon fill="#e2701a" fill-opacity="0.501961" points="150,192 85,189 124,219" />
<polygon fill="#fafbf4" fill-opacity="0.501961" points="-16,226 66,193 71,221" />
<polygon fill="#fff9c9" fill-opacity="0.501961" points="198,98 209,125 244,113" />
<polygon fill="#4c2516" fill-opacity="0.501961" points="152,180 28,198 44,155" />
<polygon fill="#c55429" fill-opacity="0.501961" points="54,156 129,116 166,157" />
<polygon fill="#e2c6c4" fill-opacity="0.501961" points="140,122 65,121 78,96" />
<polygon fill="#ffd039" fill-opacity="0.501961" points="216,208 163,181 175,210" />
<polygon fill="#432d11" fill-opacity="0.501961" points="190,99 181,63 271,92" />
<polygon fill="#fcf3d5" fill-opacity="0.501961" points="158,173 225,153 214,182" />
<polygon fill="#f1ece7" fill-opacity="0.501961" points="40,102 89,51 42,35" />
<polygon fill="#aa4e00" fill-opacity="0.501961" points="107,97 90,79 83,100" />
<polygon fill="#0e2221" fill-opacity="0.501961" points="178,237 158,191 127,218" />
<polygon fill="#ff8e00" fill-opacity="0.501961" points="50,94 62,79 65,135" />
<polygon fill="#e1d3d3" fill-opacity="0.501961" points="148,97 221,146 167,148" />
<polygon fill="#a4756c" fill-opacity="0.501961" points="154,95 94,85 150,120" />
<polygon fill="#00040b" fill-opacity="0.501961" points="-16,25 96,33 12,-16" />
<polygon fill="#885631" fill-opacity="0.501961" points="266,201 163,217 271,236" />
<polygon fill="#ece5dd" fill-opacity="0.501961" points="77,43 234,52 135,74" />
<polygon fill="#f5a60f" fill-opacity="0.501961" points="170,158 220,156 237,137" />
<polygon fill="#1e160a" fill-opacity="0.501961" points="18,159 70,132 -3,134" />
<polygon fill="#371b17" fill-opacity="0.501961" points="186,189 255,191 271,215" />
<polygon fill="#3d2b19" fill-opacity="0.501961" points="83,-16 71,31 257,46" />
<polygon fill="#ebe5df" fill-opacity="0.501961" points="-2,214 1,271 163,244" />
<polygon fill="#462d13" fill-opacity="0.501961" points="-16,98 -16,29 44,81" />
<polygon fill="#ffd7cd" fill-opacity="0.501961" points="-11,151 31,162 20,186" />
<polygon fill="#dc7956" fill-opacity="0.501961" points="68,93 63,151 112,133" />
<polygon fill="#53331a" fill-opacity="0.501961" points="70,204 72,223 104,231" />
<polygon fill="#4d351d" fill-opacity="0.501961" points="197,94 241,113 271,89" />
<polygon fill="#ffefff" fill-opacity="0.501961" points="235,181 238,161 271,192" />
<polygon fill="#2e270a" fill-opacity="0.501961" points="221,229 271,243 215,271" />
<polygon fill="#503934" fill-opacity="0.501961" points="77,185 56,149 -10,220" />
<polygon fill="#e2f7f7" fill-opacity="0.501961" points="80,88 85,109 66,81" />
<polygon fill="#e4e0d7" fill-opacity="0.501961" points="271,48 247,69 171,51" />
<polygon fill="#93b9d6" fill-opacity="0.501961" points="81,82 124,64 87,55" />
<polygon fill="#00110d" fill-opacity="0.501961" points="245,120 271,153 243,145" />
<polygon fill="#171f26" fill-opacity="0.501961" points="138,223 181,239 211,221" />
<polygon fill="#896142" fill-opacity="0.501961" points="104,232 127,229 153,181" />
<polygon fill="#621706" fill-opacity="0.501961" points="226,155 237,160 225,191" />
<polygon fill="#f5f2ec" fill-opacity="0.501961" points="148,131 171,122 166,51" />
<polygon fill="#dfdde1" fill-opacity="0.501961" points="95,115 116,103 139,119" />
<polygon fill="#394b56" fill-opacity="0.501961" points="212,25 211,-9 271,53" />
<polygon fill="#ce6c00" fill-opacity="0.501961" points="55,91 75,99 65,81" />
<polygon fill="#3f6b93" fill-opacity="0.501961" points="118,66 142,84 105,82" />
<polygon fill="#4c3829" fill-opacity="0.501961" points="181,126 204,126 186,67" />
<polygon fill="#ffffff" fill-opacity="0.501961" points="63,139 50,146 67,150" />
<polygon fill="#a44927" fill-opacity="0.501961" points="70,162 63,129 160,172" />
<polygon fill="#5e5f55" fill-opacity="0.501961" points="179,46 127,41 160,35" />
<polygon fill="#513517" fill-opacity="0.501961" points="-16,113 47,101 63,131" />
<polygon fill="#47201a" fill-opacity="0.501961" points="246,201 200,202 192,185" />
<polygon fill="#c8a39a" fill-opacity="0.501961" points="33,161 -16,194 32,180" />
<polygon fill="#ffbd25" fill-opacity="0.501961" points="154,158 194,157 149,145" />
<polygon fill="#e2dace" fill-opacity="0.501961" points="16,271 62,215 105,244" />
<polygon fill="#6c2b0e" fill-opacity="0.501961" points="108,157 61,195 151,183" />
<polygon fill="#a8a33d" fill-opacity="0.501961" points="223,145 255,107 211,134" />
<polygon fill="#cfb69e" fill-opacity="0.501961" points="145,152 154,125 207,120" />
<polygon fill="#f8bc9a" fill-opacity="0.501961" points="144,165 145,175 152,172" />
<polygon fill="#ca9f64" fill-opacity="0.501961" points="186,222 161,181 166,216" />
<polygon fill="#bea6a0" fill-opacity="0.501961" points="156,109 121,90 58,115" />
<polygon fill="#644e34" fill-opacity="0.501961" points="209,65 179,97 178,64" />
<polygon fill="#fbecda" fill-opacity="0.501961" points="41,98 -12,105 21,91" />
<polygon fill="#e6cfde" fill-opacity="0.501961" points="238,172 271,166 245,147" />
<polygon fill="#eee1b9" fill-opacity="0.501961" points="150,160 203,158 192,191" />
<polygon fill="#593a1f" fill-opacity="0.501961" points="35,41 -16,47 40,84" />
<polygon fill="#8d462c" fill-opacity="0.501961" points="138,213 122,135 151,106" />
<polygon fill="#cb5700" fill-opacity="0.501961" points="129,214 107,179 96,205" />
<polygon fill="#361d17" fill-opacity="0.501961" points="-16,185 -16,222 28,200" />
</g>
</svg>