<svg xmlns="http://www.w3.org/2000/svg" version="1.1" width="1024" height="1024">
<rect x="0" y="0" width="1024" height="1024" fill="#615e63" />
<g transform="scale(4.000000) translate(0.5 0.5)">
<polygon fill="#e0ffff" fill-opacity="0.501961" points="58,271 -16,246 91,117" />
<polygon fill="#ffb688" fill-opacity="0.501961" points="105,159 144,6 198,163" />
<polygon fill="#000002" fill-opacity="0.501961" points="271,250 118,271 161,154" />
<polygon fill="#001537" fill-opacity="0.501961" points="188,-7 19,148 -16,30" />
<polygon fill="#000000" fill-opacity="0.501961" points="271,102 235,25 160,60" />
<polygon fill="#9cb7d8" fill-opacity="0.501961" points="-10,186 -16,116 154,223" />
<polygon fill="#ffffed" fill-opacity="0.501961" points="218,126 191,110 220,70" />
<polygon fill="#04040f" fill-opacity="0.501961" points="83,162 271,182 123,207" />
<polygon fill="#efccae" fill-opacity="0.501961" points="271,33 174,24 175,-16" />
<polygon fill="#ffebbb" fill-opacity="0.501961" points="190,237 211,210 176,213" />
<polygon fill="#170000" fill-opacity="0.501961" points="211,46 176,63 179,170" />
<polygon fill="#cde2fe" fill-opacity="0.501961" points="-16,252 107,228 100,271" />
<polygon fill="#000015" fill-opacity="0.501961" points="93,194 68,203 70,271" />
<polygon fill="#e89e64" fill-opacity="0.501961" points="271,172 171,163 271,107" />
<polygon fill="#ffecc9" fill-opacity="0.501961" points="136,66 148,160 165,61" />
<polygon fill="#190c10" fill-opacity="0.501961" points="205,202 234,271 238,90" />
<polygon fill="#a7c0d1" fill-opacity="0.501961" points="112,-16 -16,2 94,20" />
<polygon fill="#4f6684" fill-opacity="0.501961" points="141,140 40,82 -10,173" />
<polygon fill="#b5c8e0" fill-opacity="0.501961" points="-16,192 91,138 87,188" />
<polygon fill="#16263c" fill-opacity="0.501961" points="-16,41 134,12 107,114" />
<polygon fill="#ffd29d" fill-opacity="0.501961" points="123,206 139,230 153,211" />
<polygon fill="#00000f" fill-opacity="0.501961" points="271,58 217,32 238,118" />
<polygon fill="#090000" fill-opacity="0.501961" points="176,122 217,146 229,124" />
<polygon fill="#5878a3" fill-opacity="0.501961" points="50,197 -16,178 5,235" />
<polygon fill="#a77a65" fill-opacity="0.501961" points="128,4 178,26 177,98" />
<polygon fill="#ffe1bc" fill-opacity="0.501961" points="206,137 214,171 191,169" />
<polygon fill="#b88a64" fill-opacity="0.501961" points="226,129 257,271 271,103" />
<polygon fill="#000518" fill-opacity="0.501961" points="164,170 120,160 188,271" />
<polygon fill="#d7cfca" fill-opacity="0.501961" points="218,74 237,103 196,117" />
<polygon fill="#ffc890" fill-opacity="0.501961" points="116,73 120,112 130,55" />
<polygon fill="#d8ddee" fill-opacity="0.501961" points="-16,242 50,220 91,271" />
<polygon fill="#b6c9e5" fill-opacity="0.501961" points="92,184 92,264 109,201" />
<polygon fill="#8a9db1" fill-opacity="0.501961" points="175,155 46,132 34,173" />
<polygon fill="#484e61" fill-opacity="0.501961" points="100,52 82,3 41,9" />
<polygon fill="#001328" fill-opacity="0.501961" points="80,189 95,219 62,246" />
<polygon fill="#030a1c" fill-opacity="0.501961" points="185,84 271,70 162,56" />
<polygon fill="#000419" fill-opacity="0.501961" points="232,-11 238,16 219,11" />
<polygon fill="#404a5d" fill-opacity="0.501961" points="-16,136 57,62 131,134" />
<polygon fill="#000311" fill-opacity="0.501961" points="124,217 214,271 137,271" />
<polygon fill="#312c31" fill-opacity="0.501961" points="271,211 226,163 132,208" />
<polygon fill="#93402f" fill-opacity="0.501961" points="212,146 156,104 158,142" />
<polygon fill="#dbcdbc" fill-opacity="0.501961" points="219,23 221,-16 190,25" />
<polygon fill="#26405e" fill-opacity="0.501961" points="2,196 31,224 11,225" />
<polygon fill="#f6dbc4" fill-opacity="0.501961" points="209,79 211,129 193,103" />
<polygon fill="#0a0b16" fill-opacity="0.501961" points="114,199 99,148 89,177" />
<polygon fill="#a95530" fill-opacity="0.501961" points="129,65 151,103 126,104" />
<polygon fill="#ffdbbd" fill-opacity="0.501961" points="175,80 144,58 133,96" />
<polygon fill="#d8d0cd" fill-opacity="0.501961" points="115,164 147,151 87,158" />
<polygon fill="#895131" fill-opacity="0.501961" points="131,47 171,30 124,83" />
<polygon fill="#d0956b" fill-opacity="0.501961" points="207,10 253,19 271,60" />
<polygon fill="#001325" fill-opacity="0.501961" points="180,18 158,-4 156,23" />
<polygon fill="#ddc0a0" fill-opacity="0.501961" points="265,141 243,115 253,186" />
<polygon fill="#ffe8c7" fill-opacity="0.501961" points="190,232 201,218 178,218" />
<polygon fill="#6b9ebc" fill-opacity="0.501961" points="136,3 159,20 144,35" />
<polygon fill="#e89463" fill-opacity="0.501961" points="171,137 165,57 181,101" />
<polygon fill="#0e192b" fill-opacity="0.501961" points="12,14 -16,92 49,55" />
<polygon fill="#000001" fill-opacity="0.501961" points="108,153 94,146 90,158" />
<polygon fill="#c8ae94" fill-opacity="0.501961" points="128,130 185,156 138,161" />
<polygon fill="#000514" fill-opacity="0.501961" points="120,158 168,175 124,186" />
<polygon fill="#000c1f" fill-opacity="0.501961" points="228,198 217,266 261,271" />
<polygon fill="#6a4b49" fill-opacity="0.501961" points="211,28 223,72 173,24" />
<polygon fill="#020610" fill-opacity="0.501961" points="138,137 144,152 144,143" />
<polygon fill="#715244" fill-opacity="0.501961" points="117,159 111,120 140,121" />
<polygon fill="#5f7f9a" fill-opacity="0.501961" points="170,14 218,12 170,-16" />
<polygon fill="#81563b" fill-opacity="0.501961" points="245,85 271,78 263,161" />
<polygon fill="#a1b5c3" fill-opacity="0.501961" points="-16,5 40,-16 40,16" />
<polygon fill="#354356" fill-opacity="0.501961" points="-16,104 40,171 30,56" />
<polygon fill="#978d7f" fill-opacity="0.501961" points="271,270 241,180 244,237" />
<polygon fill="#b1c4d4" fill-opacity="0.501961" points="107,225 72,244 85,271" />
<polygon fill="#fee4c6" fill-opacity="0.501961" points="120,111 119,78 129,89" />
<polygon fill="#948982" fill-opacity="0.501961" points="235,111 219,93 211,128" />
<polygon fill="#806557" fill-opacity="0.501961" points="211,185 175,173 214,167" />
<polygon fill="#140d12" fill-opacity="0.501961" points="236,123 234,82 252,100" />
<polygon fill="#8b5f30" fill-opacity="0.501961" points="108,260 121,200 132,243" />
<polygon fill="#a4b8d5" fill-opacity="0.501961" points="11,187 34,232 65,223" />
<polygon fill="#ceb6a4" fill-opacity="0.501961" points="115,160 123,186 114,172" />
<polygon fill="#172a3e" fill-opacity="0.501961" points="103,98 105,2 146,-6" />
<polygon fill="#c0ccdd" fill-opacity="0.501961" points="92,185 48,202 81,154" />
<polygon fill="#753f29" fill-opacity="0.501961" points="234,25 262,51 210,28" />
<polygon fill="#93573a" fill-opacity="0.501961" points="217,142 240,124 249,195" />
<polygon fill="#0f0820" fill-opacity="0.501961" points="167,33 150,50 152,39" />
<polygon fill="#e7c8a8" fill-opacity="0.501961" points="151,224 120,202 140,228" />
<polygon fill="#dfd5c6" fill-opacity="0.501961" points="125,160 134,128 142,157" />
<polygon fill="#c7d4d9" fill-opacity="0.501961" points="59,1 99,-16 100,6" />
<polygon fill="#160c14" fill-opacity="0.501961" points="224,138 190,114 193,137" />
<polygon fill="#70869f" fill-opacity="0.501961" points="-10,162 65,128 122,145" />
<polygon fill="#a4b1c4" fill-opacity="0.501961" points="158,153 155,171 136,153" />
<polygon fill="#cad4e3" fill-opacity="0.501961" points="21,262 2,211 -16,248" />
<polygon fill="#6a2e35" fill-opacity="0.501961" points="169,118 159,93 157,125" />
<polygon fill="#ffbf99" fill-opacity="0.501961" points="176,124 150,134 142,122" />
<polygon fill="#000a1b" fill-opacity="0.501961" points="142,260 160,207 202,267" />
<polygon fill="#441a18" fill-opacity="0.501961" points="173,156 183,122 184,150" />
<polygon fill="#00000e" fill-opacity="0.501961" points="236,112 208,136 233,126" />
<polygon fill="#18293d" fill-opacity="0.501961" points="93,202 83,241 63,215" />
<polygon fill="#5d463b" fill-opacity="0.501961" points="187,240 209,209 218,215" />
<polygon fill="#8b4323" fill-opacity="0.501961" points="135,72 126,84 137,115" />
<polygon fill="#bf845f" fill-opacity="0.501961" points="160,58 185,40 173,19" />
<polygon fill="#f1bd90" fill-opacity="0.501961" points="203,29 181,16 236,18" />
<polygon fill="#566379" fill-opacity="0.501961" points="66,97 20,144 111,136" />
<polygon fill="#26161d" fill-opacity="0.501961" points="173,54 196,35 192,125" />
</g>
</svg>