<svg xmlns="http://www.w3.org/2000/svg" version="1.1" width="1024" height="1024">
<rect x="0" y="0" width="1024" height="1024" fill="#677d99" />
<g transform="scale(4.000000) translate(0.5 0.5)">
<polygon fill="#1f190e" fill-opacity="0.501961" points="271,152 33,271 125,102" />
<polygon fill="#a8d9ff" fill-opacity="0.501961" points="-16,10 271,106 7,143" />
<polygon fill="#292319" fill-opacity="0.501961" points="182,206 -7,217 182,271" />
<polygon fill="#fffff4" fill-opacity="0.501961" points="44,123 -16,210 48,210" />
<polygon fill="#181311" fill-opacity="0.501961" points="135,90 153,166 37,192" />
<polygon fill="#5592ee" fill-opacity="0.501961" points="245,-16 263,100 -16,37" />
<polygon fill="#e6e7e1" fill-opacity="0.501961" points="115,180 118,222 161,192" />
<polygon fill="#e9feff" fill-opacity="0.501961" points="72,84 -16,120 127,128" />
<polygon fill="#000011" fill-opacity="0.501961" points="256,196 256,119 193,155" />
<polygon fill="#c6e9f9" fill-opacity="0.501961" points="233,55 147,114 271,113" />
<polygon fill="#000000" fill-opacity="0.501961" points="170,94 120,113 127,138" />
<polygon fill="#ffffff" fill-opacity="0.501961" points="17,248 -16,226 39,224" />
<polygon fill="#446ebd" fill-opacity="0.501961" points="271,1 -16,80 1,-16" />
<polygon fill="#110800" fill-opacity="0.501961" points="211,271 207,172 194,226" />
<polygon fill="#000000" fill-opacity="0.501961" points="38,138 1,134 -16,164" />
<polygon fill="#b4a9a5" fill-opacity="0.501961" points="77,258 87,159 63,201" />
<polygon fill="#25292c" fill-opacity="0.501961" points="170,219 2,249 134,263" />
<polygon fill="#130200" fill-opacity="0.501961" points="265,211 227,209 221,185" />
<polygon fill="#cbc0b0" fill-opacity="0.501961" points="212,271 209,194 256,238" />
<polygon fill="#000000" fill-opacity="0.501961" points="145,133 141,113 92,97" />
<polygon fill="#818585" fill-opacity="0.501961" points="196,174 202,227 101,216" />
<polygon fill="#dbd8d7" fill-opacity="0.501961" points="73,155 -8,219 -2,159" />
<polygon fill="#00153f" fill-opacity="0.501961" points="256,119 170,134 211,114" />
<polygon fill="#000000" fill-opacity="0.501961" points="14,211 58,220 -16,226" />
<polygon fill="#00020e" fill-opacity="0.501961" points="40,185 63,197 94,142" />
<polygon fill="#848a90" fill-opacity="0.501961" points="109,155 192,135 197,158" />
<polygon fill="#040f19" fill-opacity="0.501961" points="61,213 137,131 105,204" />
<polygon fill="#cfb3a1" fill-opacity="0.501961" points="229,170 187,158 245,197" />
<polygon fill="#adb7b6" fill-opacity="0.501961" points="98,258 116,244 106,216" />
<polygon fill="#fbfffb" fill-opacity="0.501961" points="51,136 112,110 123,126" />
<polygon fill="#000000" fill-opacity="0.501961" points="127,91 160,126 121,103" />
<polygon fill="#c4c8ca" fill-opacity="0.501961" points="200,247 200,197 179,182" />
<polygon fill="#e2efea" fill-opacity="0.501961" points="160,125 232,107 156,104" />
<polygon fill="#7ab2e7" fill-opacity="0.501961" points="214,38 271,90 18,95" />
<polygon fill="#121518" fill-opacity="0.501961" points="39,220 78,209 42,260" />
<polygon fill="#cfd4d2" fill-opacity="0.501961" points="109,200 147,166 144,200" />
<polygon fill="#cebbb0" fill-opacity="0.501961" points="88,152 81,181 108,133" />
<polygon fill="#dce1ec" fill-opacity="0.501961" points="52,263 58,243 52,222" />
<polygon fill="#09121b" fill-opacity="0.501961" points="174,162 157,198 135,144" />
<polygon fill="#f0e5e0" fill-opacity="0.501961" points="2,209 85,210 36,196" />
<polygon fill="#000000" fill-opacity="0.501961" points="271,250 253,208 252,260" />
<polygon fill="#dad4d3" fill-opacity="0.501961" points="-13,245 38,246 37,225" />
<polygon fill="#000209" fill-opacity="0.501961" points="120,245 158,212 141,267" />
<polygon fill="#464d55" fill-opacity="0.501961" points="47,160 25,158 53,138" />
<polygon fill="#adb2b7" fill-opacity="0.501961" points="176,253 175,188 165,227" />
<polygon fill="#fbffff" fill-opacity="0.501961" points="150,142 155,154 151,164" />
<polygon fill="#99abc0" fill-opacity="0.501961" points="78,271 82,199 69,230" />
<polygon fill="#161c2e" fill-opacity="0.501961" points="249,247 220,217 229,236" />
<polygon fill="#000001" fill-opacity="0.501961" points="174,204 181,180 182,230" />
<polygon fill="#313b43" fill-opacity="0.501961" points="77,193 87,237 184,225" />
<polygon fill="#ffffff" fill-opacity="0.501961" points="142,160 128,154 133,146" />
<polygon fill="#fffff2" fill-opacity="0.501961" points="27,132 63,128 61,144" />
<polygon fill="#021127" fill-opacity="0.501961" points="225,175 197,159 226,126" />
<polygon fill="#5380aa" fill-opacity="0.501961" points="76,129 49,123 101,120" />
<polygon fill="#91a5b8" fill-opacity="0.501961" points="140,118 154,106 148,135" />
<polygon fill="#000716" fill-opacity="0.501961" points="228,248 208,221 222,232" />
<polygon fill="#0e1519" fill-opacity="0.501961" points="190,161 209,180 207,220" />
<polygon fill="#6495d3" fill-opacity="0.501961" points="270,68 -16,78 117,17" />
<polygon fill="#91c2ee" fill-opacity="0.501961" points="-16,68 161,85 -12,115" />
<polygon fill="#000000" fill-opacity="0.501961" points="105,105 84,92 95,94" />
<polygon fill="#060b13" fill-opacity="0.501961" points="72,203 60,271 55,235" />
<polygon fill="#2f3331" fill-opacity="0.501961" points="253,231 239,202 208,190" />
<polygon fill="#dfe0de" fill-opacity="0.501961" points="250,253 229,244 223,225" />
<polygon fill="#727680" fill-opacity="0.501961" points="-15,191 15,159 17,181" />
<polygon fill="#dfe1de" fill-opacity="0.501961" points="253,248 209,202 235,215" />
<polygon fill="#bc9e89" fill-opacity="0.501961" points="71,216 91,154 54,211" />
<polygon fill="#000000" fill-opacity="0.501961" points="271,246 225,257 234,271" />
<polygon fill="#000000" fill-opacity="0.501961" points="150,174 140,118 124,126" />
<polygon fill="#a8afb7" fill-opacity="0.501961" points="176,227 175,173 166,196" />
<polygon fill="#a0a09c" fill-opacity="0.501961" points="235,179 230,171 264,166" />
<polygon fill="#01080c" fill-opacity="0.501961" points="185,160 175,150 176,193" />
<polygon fill="#868890" fill-opacity="0.501961" points="46,169 54,193 16,202" />
<polygon fill="#f0e3d6" fill-opacity="0.501961" points="29,251 -16,254 63,270" />
<polygon fill="#ffffff" fill-opacity="0.501961" points="230,134 236,129 228,125" />
<polygon fill="#6f8090" fill-opacity="0.501961" points="107,136 110,162 121,141" />
<polygon fill="#010208" fill-opacity="0.501961" points="142,124 115,170 127,93" />
<polygon fill="#ffffff" fill-opacity="0.501961" points="56,132 85,135 97,125" />
<polygon fill="#a1abbc" fill-opacity="0.501961" points="90,204 91,235 95,219" />
<polygon fill="#090607" fill-opacity="0.501961" points="155,108 172,92 136,109" />
<polygon fill="#5378ba" fill-opacity="0.501961" points="-16,23 271,57 247,-16" />
<polygon fill="#101720" fill-opacity="0.501961" points="200,215 223,255 204,237" />
<polygon fill="#0c1e3b" fill-opacity="0.501961" points="160,117 143,108 147,122" />
<polygon fill="#cdd1d4" fill-opacity="0.501961" points="168,149 168,158 194,140" />
<polygon fill="#a2aab0" fill-opacity="0.501961" points="181,165 194,185 183,220" />
<polygon fill="#030e1b" fill-opacity="0.501961" points="85,194 90,207 74,233" />
<polygon fill="#0d1218" fill-opacity="0.501961" points="159,226 169,244 166,195" />
<polygon fill="#202e3d" fill-opacity="0.501961" points="86,161 101,135 69,135" />
<polygon fill="#acd2e7" fill-opacity="0.501961" points="200,83 142,112 250,104" />
<polygon fill="#1e2634" fill-opacity="0.501961" points="84,221 70,265 102,255" />
<polygon fill="#ffffff" fill-opacity="0.501961" points="228,255 221,240 210,236" />
<polygon fill="#bcc1c5" fill-opacity="0.501961" points="162,192 157,207 164,225" />
<polygon fill="#5c605e" fill-opacity="0.501961" points="107,200 160,200 134,235" />
<polygon fill="#213b5f" fill-opacity="0.501961" points="203,144 151,133 219,112" />
<polygon fill="#1d2833" fill-opacity="0.501961" points="66,216 138,155 83,179" />
<polygon fill="#1d2135" fill-opacity="0.501961" points="-2,130 9,159 21,139" />
<polygon fill="#d3e1e7" fill-opacity="0.501961" points="109,118 -16,124 2,94" />
<polygon fill="#050000" fill-opacity="0.501961" points="70,213 46,226 19,217" />
<polygon fill="#717679" fill-opacity="0.501961" points="88,139 74,156 30,136" />
<polygon fill="#dbcfc2" fill-opacity="0.501961" points="190,271 188,233 208,271" />
<polygon fill="#edf8ff" fill-opacity="0.501961" points="206,145 201,145 194,154" />
</g>
</svg>