<svg xmlns="http://www.w3.org/2000/svg" version="1.1" width="1024" height="1024">
<rect x="0" y="0" width="1024" height="1024" fill="#d8d0ca" />
<g transform="scale(4.000000) translate(0.5 0.5)">
<polygon fill="#180000" fill-opacity="0.501961" points="191,9 103,-16 51,123" />
<polygon fill="#ffffff" fill-opacity="0.501961" points="168,-12 271,2 239,271" />
<polygon fill="#ffffff" fill-opacity="0.501961" points="-16,-2 20,271 89,0" />
<polygon fill="#261300" fill-opacity="0.501961" points="123,-16 108,92 54,68" />
<polygon fill="#000000" fill-opacity="0.501961" points="143,34 174,54 174,-16" />
<polygon fill="#bea797" fill-opacity="0.501961" points="224,271 139,-12 52,252" />
<polygon fill="#ffffff" fill-opacity="0.501961" points="30,-16 66,271 -16,248" />
<polygon fill="#ffffff" fill-opacity="0.501961" points="223,271 271,9 174,-14" />
<polygon fill="#b29e8c" fill-opacity="0.501961" points="64,271 54,46 95,132" />
<polygon fill="#ffffff" fill-opacity="0.501961" points="-16,187 -16,5 112,-16" />
<polygon fill="#ffffff" fill-opacity="0.501961" points="190,176 255,271 255,-16" />
<polygon fill="#ffffff" fill-opacity="0.501961" points="-16,249 60,271 46,-16" />
<polygon fill="#3e1e02" fill-opacity="0.501961" points="95,26 161,23 183,50" />
<polygon fill="#f5a471" fill-opacity="0.501961" points="155,0 146,51 106,-16" />
<polygon fill="#cfbeb2" fill-opacity="0.501961" points="196,221 200,52 119,48" />
<polygon fill="#ffffff" fill-opacity="0.501961" points="183,-16 226,102 172,34" />
<polygon fill="#c1b0a1" fill-opacity="0.501961" points="51,98 66,21 88,183" />
<polygon fill="#352715" fill-opacity="0.501961" points="105,-16 74,103 129,33" />
<polygon fill="#9a7e69" fill-opacity="0.501961" points="78,166 64,258 90,271" />
<polygon fill="#ffffff" fill-opacity="0.501961" points="271,233 193,38 218,271" />
<polygon fill="#00081a" fill-opacity="0.501961" points="176,271 192,271 193,241" />
<polygon fill="#ffffff" fill-opacity="0.501961" points="-11,121 -15,-16 101,8" />
<polygon fill="#d0c1b6" fill-opacity="0.501961" points="206,222 53,106 188,56" />
<polygon fill="#7f7164" fill-opacity="0.501961" points="81,197 79,115 68,153" />
<polygon fill="#ffffff" fill-opacity="0.501961" points="271,-16 254,271 174,-8" />
<polygon fill="#453525" fill-opacity="0.501961" points="80,101 71,41 120,9" />
<polygon fill="#20180d" fill-opacity="0.501961" points="148,32 179,54 162,-5" />
<polygon fill="#dac9c0" fill-opacity="0.501961" points="162,42 154,142 112,57" />
<polygon fill="#ffffff" fill-opacity="0.501961" points="68,271 -16,256 9,-16" />
<polygon fill="#b5ada5" fill-opacity="0.501961" points="110,264 215,239 107,196" />
<polygon fill="#bfb0a3" fill-opacity="0.501961" points="195,175 157,150 196,62" />
<polygon fill="#cbb9a9" fill-opacity="0.501961" points="59,106 76,33 57,50" />
<polygon fill="#d4c6bc" fill-opacity="0.501961" points="139,74 79,98 85,250" />
<polygon fill="#5c4530" fill-opacity="0.501961" points="68,60 78,98 120,76" />
<polygon fill="#ffffff" fill-opacity="0.501961" points="226,271 195,150 271,-15" />
<polygon fill="#b88764" fill-opacity="0.501961" points="174,54 118,44 140,31" />
<polygon fill="#ffffff" fill-opacity="0.501961" points="209,271 196,265 193,233" />
<polygon fill="#220e00" fill-opacity="0.501961" points="128,-16 176,7 175,-9" />
<polygon fill="#eaa781" fill-opacity="0.501961" points="155,15 163,-16 88,-16" />
<polygon fill="#ffffff" fill-opacity="0.501961" points="96,15 102,-16 24,13" />
<polygon fill="#c8beb3" fill-opacity="0.501961" points="72,173 80,233 62,246" />
<polygon fill="#301402" fill-opacity="0.501961" points="81,271 133,271 85,251" />
<polygon fill="#8d8378" fill-opacity="0.501961" points="193,215 206,237 204,259" />
<polygon fill="#bea390" fill-opacity="0.501961" points="127,79 95,84 73,108" />
<polygon fill="#5b5950" fill-opacity="0.501961" points="83,220 76,206 80,184" />
<polygon fill="#ffffff" fill-opacity="0.501961" points="183,-16 173,31 218,101" />
<polygon fill="#dccfc7" fill-opacity="0.501961" points="170,129 191,57 127,104" />
<polygon fill="#b2a092" fill-opacity="0.501961" points="162,150 180,167 182,106" />
<polygon fill="#c8b7ab" fill-opacity="0.501961" points="81,237 66,97 53,173" />
<polygon fill="#403123" fill-opacity="0.501961" points="80,96 117,72 88,24" />
<polygon fill="#ffffff" fill-opacity="0.501961" points="51,1 -16,239 54,271" />
<polygon fill="#c2b2a6" fill-opacity="0.501961" points="91,112 53,99 57,160" />
<polygon fill="#7b5738" fill-opacity="0.501961" points="115,50 133,27 155,20" />
<polygon fill="#d4cdc5" fill-opacity="0.501961" points="196,238 175,263 179,168" />
<polygon fill="#ffffff" fill-opacity="0.501961" points="214,271 253,67 271,250" />
<polygon fill="#705a46" fill-opacity="0.501961" points="109,12 104,-12 98,15" />
<polygon fill="#d6ccc3" fill-opacity="0.501961" points="82,233 112,271 83,159" />
<polygon fill="#ffffff" fill-opacity="0.501961" points="-5,112 -16,0 104,-5" />
<polygon fill="#9c816e" fill-opacity="0.501961" points="77,73 65,70 72,89" />
<polygon fill="#8a7a6d" fill-opacity="0.501961" points="69,126 73,114 75,142" />
<polygon fill="#cfbaad" fill-opacity="0.501961" points="125,43 177,56 112,81" />
<polygon fill="#ffffff" fill-opacity="0.501961" points="271,-2 217,141 175,-12" />
<polygon fill="#433b2e" fill-opacity="0.501961" points="181,53 170,43 181,46" />
<polygon fill="#b4775d" fill-opacity="0.501961" points="155,11 119,10 123,21" />
<polygon fill="#3d2d1f" fill-opacity="0.501961" points="106,72 113,-11 124,30" />
<polygon fill="#bdb0a5" fill-opacity="0.501961" points="190,211 219,271 215,233" />
<polygon fill="#ca8660" fill-opacity="0.501961" points="82,236 63,252 87,271" />
<polygon fill="#ffffff" fill-opacity="0.501961" points="21,39 85,32 89,-3" />
<polygon fill="#a79b8b" fill-opacity="0.501961" points="151,184 166,176 180,182" />
<polygon fill="#6d5441" fill-opacity="0.501961" points="96,51 109,50 120,78" />
<polygon fill="#b6815e" fill-opacity="0.501961" points="147,28 113,50 154,44" />
<polygon fill="#403428" fill-opacity="0.501961" points="118,8 88,21 77,72" />
<polygon fill="#7e6551" fill-opacity="0.501961" points="83,39 84,52 72,59" />
<polygon fill="#ffffff" fill-opacity="0.501961" points="195,241 204,260 192,271" />
<polygon fill="#211a13" fill-opacity="0.501961" points="88,51 76,60 102,76" />
<polygon fill="#ffffff" fill-opacity="0.501961" points="271,165 197,123 211,225" />
<polygon fill="#d0c2b5" fill-opacity="0.501961" points="59,47 69,65 72,35" />
<polygon fill="#bfb1a7" fill-opacity="0.501961" points="152,269 101,196 97,117" />
<polygon fill="#d4c3bb" fill-opacity="0.501961" points="83,189 156,43 83,111" />
<polygon fill="#cdbfb4" fill-opacity="0.501961" points="202,176 168,142 207,214" />
<polygon fill="#ffffff" fill-opacity="0.501961" points="217,96 254,-16 172,27" />
<polygon fill="#1b1814" fill-opacity="0.501961" points="170,1 149,22 156,43" />
<polygon fill="#e0dad2" fill-opacity="0.501961" points="178,170 158,148 171,178" />
<polygon fill="#7b7166" fill-opacity="0.501961" points="76,214 81,205 83,233" />
<polygon fill="#ffffff" fill-opacity="0.501961" points="-16,-5 -4,243 79,-16" />
<polygon fill="#c5af9e" fill-opacity="0.501961" points="115,80 125,87 111,67" />
<polygon fill="#d3c4b9" fill-opacity="0.501961" points="192,58 177,126 199,135" />
<polygon fill="#736557" fill-opacity="0.501961" points="80,170 74,145 73,163" />
<polygon fill="#d9a07e" fill-opacity="0.501961" points="155,15 136,27 147,-16" />
<polygon fill="#c9b7ab" fill-opacity="0.501961" points="70,84 53,108 71,168" />
<polygon fill="#231609" fill-opacity="0.501961" points="117,15 121,29 132,32" />
<polygon fill="#9a887c" fill-opacity="0.501961" points="175,56 180,50 166,51" />
<polygon fill="#ffffff" fill-opacity="0.501961" points="64,271 -16,258 52,166" />
<polygon fill="#294853" fill-opacity="0.501961" points="191,271 193,245 187,251" />
<polygon fill="#675442" fill-opacity="0.501961" points="106,12 91,27 105,-4" />
<polygon fill="#bdab9b" fill-opacity="0.501961" points="83,251 77,211 57,227" />
<polygon fill="#8e887e" fill-opacity="0.501961" points="201,251 208,244 196,233" />
<polygon fill="#968674" fill-opacity="0.501961" points="174,162 164,148 173,153" />
<polygon fill="#ffffff" fill-opacity="0.501961" points="96,-16 98,12 41,47" />
<polygon fill="#775c49" fill-opacity="0.501961" points="68,69 87,77 72,65" />
</g>
</svg>