<svg xmlns="http://www.w3.org/2000/svg" version="1.1" width="1024" height="1024">
<rect x="0" y="0" width="1024" height="1024" fill="#c9c5bd" />
<g transform="scale(4.000000) translate(0.5 0.5)">
<polygon fill="#220200" fill-opacity="0.501961" points="46,172 181,147 90,100" />
<polygon fill="#ffffff" fill-opacity="0.501961" points="23,-16 255,111 -16,98" />
<polygon fill="#000000" fill-opacity="0.501961" points="160,-16 107,1 155,21" />
<polygon fill="#797781" fill-opacity="0.501961" points="129,168 53,270 -16,153" />
<polygon fill="#fffff2" fill-opacity="0.501961" points="263,37 -16,-8 117,126" />
<polygon fill="#462400" fill-opacity="0.501961" points="32,125 168,137 95,160" />
<polygon fill="#ffffff" fill-opacity="0.501961" points="233,218 62,251 215,271" />
<polygon fill="#443009" fill-opacity="0.501961" points="262,-7 248,28 211,19" />
<polygon fill="#300000" fill-opacity="0.501961" points="-16,86 1,142 19,136" />
<polygon fill="#1e1d21" fill-opacity="0.501961" points="212,67 195,85 256,76" />
<polygon fill="#000001" fill-opacity="0.501961" points="173,156 140,120 134,156" />
<polygon fill="#eef0e6" fill-opacity="0.501961" points="271,160 161,169 178,56" />
<polygon fill="#000003" fill-opacity="0.501961" points="124,-16 125,25 159,3" />
<polygon fill="#1b1827" fill-opacity="0.501961" points="244,230 241,209 221,262" />
<polygon fill="#ffffff" fill-opacity="0.501961" points="-3,150 71,163 64,144" />
<polygon fill="#ffffff" fill-opacity="0.501961" points="157,167 89,163 124,154" />
<polygon fill="#f1f0e6" fill-opacity="0.501961" points="83,62 217,-16 119,145" />
<polygon fill="#100a00" fill-opacity="0.501961" points="22,167 53,163 -8,154" />
<polygon fill="#945b02" fill-opacity="0.501961" points="107,109 80,91 92,156" />
<polygon fill="#ffffff" fill-opacity="0.501961" points="12,271 -16,206 30,220" />
<polygon fill="#b3b1b9" fill-opacity="0.501961" points="92,238 271,207 10,161" />
<polygon fill="#464843" fill-opacity="0.501961" points="60,227 30,224 21,252" />
<polygon fill="#f8f7f0" fill-opacity="0.501961" points="183,-16 271,85 149,30" />
<polygon fill="#0f1214" fill-opacity="0.501961" points="266,86 259,98 237,75" />
<polygon fill="#252d36" fill-opacity="0.501961" points="122,129 155,117 168,159" />
<polygon fill="#f6efd5" fill-opacity="0.501961" points="-12,-16 90,114 18,139" />
<polygon fill="#38281e" fill-opacity="0.501961" points="96,154 39,120 89,173" />
<polygon fill="#19191b" fill-opacity="0.501961" points="239,123 265,109 264,125" />
<polygon fill="#cdccc4" fill-opacity="0.501961" points="173,69 133,122 266,114" />
<polygon fill="#fff2af" fill-opacity="0.501961" points="237,27 243,-16 211,-16" />
<polygon fill="#471400" fill-opacity="0.501961" points="-16,142 7,123 15,141" />
<polygon fill="#787471" fill-opacity="0.501961" points="85,167 131,181 177,169" />
<polygon fill="#070210" fill-opacity="0.501961" points="156,-16 75,-16 157,19" />
<polygon fill="#211e1f" fill-opacity="0.501961" points="222,77 198,74 207,86" />
<polygon fill="#fbfbf3" fill-opacity="0.501961" points="230,271 226,228 69,243" />
<polygon fill="#504e42" fill-opacity="0.501961" points="72,158 30,168 110,171" />
<polygon fill="#04050c" fill-opacity="0.501961" points="214,16 224,11 224,27" />
<polygon fill="#fffffe" fill-opacity="0.501961" points="127,158 200,157 165,169" />
<polygon fill="#d1d1cc" fill-opacity="0.501961" points="129,15 183,21 123,37" />
<polygon fill="#c7c5c6" fill-opacity="0.501961" points="83,174 216,173 79,211" />
<polygon fill="#ffffff" fill-opacity="0.501961" points="232,256 271,255 269,213" />
<polygon fill="#eeefdb" fill-opacity="0.501961" points="117,153 73,166 149,165" />
<polygon fill="#edeee7" fill-opacity="0.501961" points="153,124 170,151 203,144" />
<polygon fill="#75481e" fill-opacity="0.501961" points="129,156 63,141 96,103" />
<polygon fill="#3b2300" fill-opacity="0.501961" points="242,28 244,-16 251,12" />
<polygon fill="#cdbe93" fill-opacity="0.501961" points="57,132 3,105 88,120" />
<polygon fill="#aaa7ad" fill-opacity="0.501961" points="201,226 123,239 22,186" />
<polygon fill="#2c292e" fill-opacity="0.501961" points="185,79 177,74 175,80" />
<polygon fill="#f2f0e7" fill-opacity="0.501961" points="-16,-4 122,7 27,120" />
<polygon fill="#efefe4" fill-opacity="0.501961" points="160,76 271,58 158,-9" />
<polygon fill="#00011c" fill-opacity="0.501961" points="78,149 112,150 80,162" />
<polygon fill="#fffff4" fill-opacity="0.501961" points="246,144 176,167 260,163" />
<polygon fill="#f8f9e7" fill-opacity="0.501961" points="22,153 70,148 65,162" />
<polygon fill="#141621" fill-opacity="0.501961" points="135,121 146,156 168,152" />
<polygon fill="#f0f0ea" fill-opacity="0.501961" points="165,241 82,234 60,271" />
<polygon fill="#94908f" fill-opacity="0.501961" points="221,133 213,156 204,153" />
<polygon fill="#bdbdb8" fill-opacity="0.501961" points="252,71 207,126 243,125" />
<polygon fill="#e8e7dd" fill-opacity="0.501961" points="79,65 198,84 114,126" />
<polygon fill="#ede8d3" fill-opacity="0.501961" points="79,-1 82,48 119,-16" />
<polygon fill="#9b969d" fill-opacity="0.501961" points="70,172 4,210 -16,157" />
<polygon fill="#a98215" fill-opacity="0.501961" points="72,6 95,-16 61,-7" />
<polygon fill="#b2b2ac" fill-opacity="0.501961" points="74,251 8,270 35,237" />
<polygon fill="#fffff0" fill-opacity="0.501961" points="27,146 -16,138 25,158" />
<polygon fill="#9d9c9a" fill-opacity="0.501961" points="179,116 164,141 174,99" />
<polygon fill="#9a6a2b" fill-opacity="0.501961" points="70,155 89,103 99,140" />
<polygon fill="#916019" fill-opacity="0.501961" points="16,127 -12,100 11,143" />
<polygon fill="#9ca3ad" fill-opacity="0.501961" points="247,39 257,-16 271,53" />
<polygon fill="#36170d" fill-opacity="0.501961" points="42,127 58,141 71,136" />
<polygon fill="#403d41" fill-opacity="0.501961" points="244,221 233,248 237,212" />
<polygon fill="#91723e" fill-opacity="0.501961" points="129,129 137,156 109,135" />
<polygon fill="#888888" fill-opacity="0.501961" points="231,107 226,86 214,87" />
<polygon fill="#11141a" fill-opacity="0.501961" points="130,27 123,25 127,20" />
<polygon fill="#423e35" fill-opacity="0.501961" points="47,162 74,172 99,166" />
<polygon fill="#0c0704" fill-opacity="0.501961" points="122,-16 123,5 110,5" />
<polygon fill="#fcfcf4" fill-opacity="0.501961" points="27,225 -16,199 2,269" />
<polygon fill="#514f4f" fill-opacity="0.501961" points="224,68 236,70 217,82" />
<polygon fill="#ebe9e1" fill-opacity="0.501961" points="250,-16 159,-14 164,52" />
<polygon fill="#eae9e0" fill-opacity="0.501961" points="147,124 44,72 154,70" />
<polygon fill="#bc9b89" fill-opacity="0.501961" points="12,103 -6,130 22,111" />
<polygon fill="#f1f1e9" fill-opacity="0.501961" points="236,82 243,111 223,80" />
<polygon fill="#4e2c1e" fill-opacity="0.501961" points="115,155 89,114 100,106" />
<polygon fill="#9d9995" fill-opacity="0.501961" points="183,178 204,167 148,167" />
<polygon fill="#363323" fill-opacity="0.501961" points="47,226 33,227 60,237" />
<polygon fill="#f1f0e5" fill-opacity="0.501961" points="218,150 176,92 201,82" />
<polygon fill="#d3ccba" fill-opacity="0.501961" points="60,152 15,89 30,142" />
<polygon fill="#afabaf" fill-opacity="0.501961" points="51,242 211,209 60,200" />
<polygon fill="#23252b" fill-opacity="0.501961" points="161,135 131,119 136,155" />
<polygon fill="#8e8b92" fill-opacity="0.501961" points="222,251 230,266 236,219" />
<polygon fill="#000000" fill-opacity="0.501961" points="251,82 250,88 271,87" />
<polygon fill="#d7d5d4" fill-opacity="0.501961" points="266,191 228,220 201,209" />
<polygon fill="#f2d47f" fill-opacity="0.501961" points="222,11 237,14 257,-16" />
<polygon fill="#f0eedd" fill-opacity="0.501961" points="8,271 50,245 52,268" />
<polygon fill="#3e392b" fill-opacity="0.501961" points="-15,147 -16,159 28,163" />
<polygon fill="#cdccd0" fill-opacity="0.501961" points="233,257 261,223 258,178" />
<polygon fill="#dbbf5a" fill-opacity="0.501961" points="90,113 70,88 87,96" />
<polygon fill="#0d0a20" fill-opacity="0.501961" points="153,19 143,17 154,-14" />
<polygon fill="#fffffc" fill-opacity="0.501961" points="182,145 165,142 178,160" />
<polygon fill="#dad9d4" fill-opacity="0.501961" points="129,32 145,17 129,16" />
<polygon fill="#fafced" fill-opacity="0.501961" points="139,155 153,168 102,159" />
<polygon fill="#9a9cad" fill-opacity="0.501961" points="243,28 222,27 235,14" />
</g>
</svg>