<svg xmlns="http://www.w3.org/2000/svg" version="1.1" width="1024" height="1024">
<rect x="0" y="0" width="1024" height="1024" fill="#8e847d" />
<g transform="scale(4.000000) translate(0.5 0.5)">
<polygon fill="#eddba1" fill-opacity="0.501961" points="68,120 -16,-1 271,0" />
<polygon fill="#4d4864" fill-opacity="0.501961" points="-16,210 217,60 208,271" />
<polygon fill="#fbd89a" fill-opacity="0.501961" points="215,163 253,-16 267,150" />
<polygon fill="#495368" fill-opacity="0.501961" points="5,271 -16,120 104,117" />
<polygon fill="#362a4c" fill-opacity="0.501961" points="222,110 189,271 148,126" />
<polygon fill="#98928c" fill-opacity="0.501961" points="237,18 57,271 125,30" />
<polygon fill="#e0cb93" fill-opacity="0.501961" points="76,-16 -16,53 132,96" />
<polygon fill="#b99e8c" fill-opacity="0.501961" points="76,171 141,200 149,146" />
<polygon fill="#735f69" fill-opacity="0.501961" points="220,53 267,66 238,-4" />
<polygon fill="#ac967b" fill-opacity="0.501961" points="39,-1 -16,103 70,116" />
<polygon fill="#4a5369" fill-opacity="0.501961" points="271,201 140,264 252,158" />
<polygon fill="#fce2a3" fill-opacity="0.501961" points="271,78 233,116 222,54" />
<polygon fill="#b19787" fill-opacity="0.501961" points="152,215 48,225 150,244" />
<polygon fill="#5f606c" fill-opacity="0.501961" points="-16,255 16,111 121,271" />
<polygon fill="#dec89d" fill-opacity="0.501961" points="180,-4 242,-9 207,74" />
<polygon fill="#ffffb5" fill-opacity="0.501961" points="217,103 214,95 193,117" />
<polygon fill="#6c6876" fill-opacity="0.501961" points="22,103 102,77 31,78" />
<polygon fill="#f3e7ae" fill-opacity="0.501961" points="100,61 26,-16 105,21" />
<polygon fill="#423b53" fill-opacity="0.501961" points="219,224 163,164 152,242" />
<polygon fill="#857c87" fill-opacity="0.501961" points="109,33 217,69 193,25" />
<polygon fill="#564d65" fill-opacity="0.501961" points="113,125 245,146 204,112" />
<polygon fill="#cfb581" fill-opacity="0.501961" points="5,-16 41,55 -10,150" />
<polygon fill="#f7d191" fill-opacity="0.501961" points="113,102 56,101 67,77" />
<polygon fill="#7b7d7e" fill-opacity="0.501961" points="139,126 62,99 31,196" />
<polygon fill="#474876" fill-opacity="0.501961" points="110,13 104,-8 56,-16" />
<polygon fill="#fff9cd" fill-opacity="0.501961" points="199,75 185,66 172,74" />
<polygon fill="#5f465d" fill-opacity="0.501961" points="213,113 188,71 170,88" />
<polygon fill="#efe5b1" fill-opacity="0.501961" points="239,26 261,-16 253,34" />
<polygon fill="#5c5b6f" fill-opacity="0.501961" points="147,229 271,236 171,271" />
<polygon fill="#8c8a88" fill-opacity="0.501961" points="160,3 133,63 84,92" />
<polygon fill="#eeecaa" fill-opacity="0.501961" points="178,54 146,63 138,45" />
<polygon fill="#989a83" fill-opacity="0.501961" points="212,152 239,222 210,214" />
<polygon fill="#523b5a" fill-opacity="0.501961" points="249,-16 226,33 246,11" />
<polygon fill="#827172" fill-opacity="0.501961" points="52,63 30,29 38,-11" />
<polygon fill="#e4eab7" fill-opacity="0.501961" points="110,20 149,15 115,-16" />
<polygon fill="#6b6c7b" fill-opacity="0.501961" points="115,124 163,169 149,62" />
<polygon fill="#d5ada7" fill-opacity="0.501961" points="202,114 188,115 203,93" />
<polygon fill="#c5a588" fill-opacity="0.501961" points="135,144 108,145 76,190" />
<polygon fill="#897a83" fill-opacity="0.501961" points="248,77 224,90 235,68" />
<polygon fill="#9f9283" fill-opacity="0.501961" points="82,250 136,222 59,218" />
<polygon fill="#ffe1a1" fill-opacity="0.501961" points="236,33 243,53 231,46" />
<polygon fill="#848297" fill-opacity="0.501961" points="188,15 154,-16 119,-1" />
<polygon fill="#e4da96" fill-opacity="0.501961" points="63,62 44,78 6,48" />
<polygon fill="#5b5677" fill-opacity="0.501961" points="80,76 86,87 105,79" />
<polygon fill="#fff1a3" fill-opacity="0.501961" points="193,36 196,45 224,34" />
<polygon fill="#847664" fill-opacity="0.501961" points="13,6 37,-3 -5,31" />
<polygon fill="#504e65" fill-opacity="0.501961" points="78,252 150,230 124,251" />
<polygon fill="#ffcd8b" fill-opacity="0.501961" points="0,108 25,87 21,106" />
<polygon fill="#877875" fill-opacity="0.501961" points="6,72 40,86 1,102" />
<polygon fill="#635d78" fill-opacity="0.501961" points="60,34 64,43 73,31" />
<polygon fill="#a09279" fill-opacity="0.501961" points="105,18 82,31 134,38" />
<polygon fill="#54576a" fill-opacity="0.501961" points="-16,208 35,75 23,227" />
<polygon fill="#fdfdb0" fill-opacity="0.501961" points="212,17 182,8 176,-14" />
<polygon fill="#ffffff" fill-opacity="0.501961" points="45,4 59,9 64,-1" />
<polygon fill="#d9c58f" fill-opacity="0.501961" points="44,28 6,20 33,-1" />
<polygon fill="#5c657b" fill-opacity="0.501961" points="57,193 109,218 137,194" />
<polygon fill="#d4cda3" fill-opacity="0.501961" points="145,41 132,49 144,12" />
<polygon fill="#ffffe4" fill-opacity="0.501961" points="20,1 -4,-16 -14,3" />
<polygon fill="#f1d697" fill-opacity="0.501961" points="77,76 109,26 59,46" />
<polygon fill="#ffeeaf" fill-opacity="0.501961" points="209,108 208,96 221,97" />
<polygon fill="#494157" fill-opacity="0.501961" points="212,229 151,214 208,144" />
<polygon fill="#fff8b0" fill-opacity="0.501961" points="132,93 113,93 119,80" />
<polygon fill="#604d60" fill-opacity="0.501961" points="229,52 235,15 212,61" />
<polygon fill="#ffffb6" fill-opacity="0.501961" points="163,42 176,43 162,36" />
<polygon fill="#433d5f" fill-opacity="0.501961" points="216,139 225,116 215,106" />
<polygon fill="#ffe8a3" fill-opacity="0.501961" points="246,61 222,63 223,71" />
<polygon fill="#f5efa6" fill-opacity="0.501961" points="134,60 131,71 145,72" />
<polygon fill="#a69288" fill-opacity="0.501961" points="226,19 208,6 197,38" />
<polygon fill="#414c6f" fill-opacity="0.501961" points="9,65 22,60 12,58" />
<polygon fill="#556178" fill-opacity="0.501961" points="208,184 271,168 254,215" />
<polygon fill="#a79291" fill-opacity="0.501961" points="151,269 150,232 108,271" />
<polygon fill="#4d425c" fill-opacity="0.501961" points="116,28 103,19 105,12" />
<polygon fill="#6b6275" fill-opacity="0.501961" points="129,45 142,24 118,38" />
<polygon fill="#fff2a1" fill-opacity="0.501961" points="271,61 233,111 232,91" />
<polygon fill="#36364c" fill-opacity="0.501961" points="41,-16 16,5 77,-14" />
<polygon fill="#79748a" fill-opacity="0.501961" points="219,87 175,32 172,56" />
<polygon fill="#b7ab8c" fill-opacity="0.501961" points="238,145 218,134 211,173" />
<polygon fill="#817572" fill-opacity="0.501961" points="35,58 46,26 50,63" />
<polygon fill="#52475d" fill-opacity="0.501961" points="137,151 228,134 166,113" />
<polygon fill="#895b70" fill-opacity="0.501961" points="165,143 140,178 144,239" />
<polygon fill="#5d5264" fill-opacity="0.501961" points="259,51 240,61 228,55" />
<polygon fill="#a99281" fill-opacity="0.501961" points="29,101 62,90 88,132" />
<polygon fill="#e6d999" fill-opacity="0.501961" points="116,29 96,79 120,52" />
<polygon fill="#ece39c" fill-opacity="0.501961" points="11,64 25,79 3,70" />
<polygon fill="#e9e49d" fill-opacity="0.501961" points="151,24 174,25 162,8" />
<polygon fill="#dfd6af" fill-opacity="0.501961" points="180,71 171,69 169,88" />
<polygon fill="#9da5ac" fill-opacity="0.501961" points="206,237 208,256 214,226" />
<polygon fill="#6b6b73" fill-opacity="0.501961" points="54,97 22,154 -16,130" />
<polygon fill="#73636b" fill-opacity="0.501961" points="-16,226 95,233 -8,271" />
<polygon fill="#736f7a" fill-opacity="0.501961" points="135,50 139,60 104,51" />
<polygon fill="#f6e9ac" fill-opacity="0.501961" points="50,36 48,22 78,30" />
<polygon fill="#e7de97" fill-opacity="0.501961" points="20,43 -5,60 43,44" />
<polygon fill="#5a4d62" fill-opacity="0.501961" points="182,74 170,92 217,77" />
<polygon fill="#d0c99d" fill-opacity="0.501961" points="161,-1 110,21 127,33" />
<polygon fill="#8a7d80" fill-opacity="0.501961" points="132,70 138,106 206,117" />
<polygon fill="#dad28d" fill-opacity="0.501961" points="162,73 145,47 141,63" />
<polygon fill="#605f72" fill-opacity="0.501961" points="104,76 104,89 97,83" />
<polygon fill="#867e85" fill-opacity="0.501961" points="162,35 125,10 162,54" />
<polygon fill="#ffffd3" fill-opacity="0.501961" points="182,67 178,72 194,73" />
<polygon fill="#825a6b" fill-opacity="0.501961" points="212,79 228,77 207,50" />
</g>
</svg>