<svg xmlns="http://www.w3.org/2000/svg" version="1.1" width="1024" height="1024">
<rect x="0" y="0" width="1024" height="1024" fill="#99895f" />
<g transform="scale(4.000000) translate(0.5 0.5)">
<polygon fill="#4e0000" fill-opacity="0.501961" points="271,258 103,188 123,88" />
<polygon fill="#e3c0ba" fill-opacity="0.501961" points="-16,81 45,-16 271,128" />
<polygon fill="#009f00" fill-opacity="0.501961" points="11,192 138,253 -16,271" />
<polygon fill="#003e87" fill-opacity="0.501961" points="271,251 243,157 178,271" />
<polygon fill="#e7b315" fill-opacity="0.501961" points="90,148 -11,229 1,6" />
<polygon fill="#4c0000" fill-opacity="0.501961" points="29,81 -4,166 22,228" />
<polygon fill="#eec9a9" fill-opacity="0.501961" points="189,-16 194,167 271,16" />
<polygon fill="#9b0700" fill-opacity="0.501961" points="209,230 93,155 237,139" />
<polygon fill="#4fe3c7" fill-opacity="0.501961" points="173,271 76,224 96,164" />
<polygon fill="#242a5b" fill-opacity="0.501961" points="180,157 158,68 187,-16" />
<polygon fill="#dfffff" fill-opacity="0.501961" points="169,94 144,73 149,152" />
<polygon fill="#ffffff" fill-opacity="0.501961" points="55,128 43,159 39,101" />
<polygon fill="#f3d24f" fill-opacity="0.501961" points="81,213 105,88 16,176" />
<polygon fill="#780017" fill-opacity="0.501961" points="177,89 146,178 193,165" />
<polygon fill="#cea1a5" fill-opacity="0.501961" points="58,-16 178,-8 156,88" />
<polygon fill="#690000" fill-opacity="0.501961" points="115,208 103,105 150,110" />
<polygon fill="#003743" fill-opacity="0.501961" points="166,269 251,205 271,255" />
<polygon fill="#6bab32" fill-opacity="0.501961" points="218,163 162,217 33,222" />
<polygon fill="#fffe54" fill-opacity="0.501961" points="-4,158 -16,3 35,28" />
<polygon fill="#e5bf81" fill-opacity="0.501961" points="193,13 170,93 271,109" />
<polygon fill="#00000a" fill-opacity="0.501961" points="14,-16 20,17 -11,2" />
<polygon fill="#faffff" fill-opacity="0.501961" points="8,93 8,121 -16,101" />
<polygon fill="#b3a3b2" fill-opacity="0.501961" points="22,101 26,-16 54,97" />
<polygon fill="#289b00" fill-opacity="0.501961" points="-16,220 21,271 127,239" />
<polygon fill="#aaa3d0" fill-opacity="0.501961" points="238,91 188,88 195,172" />
<polygon fill="#00628c" fill-opacity="0.501961" points="166,80 174,-16 200,-13" />
<polygon fill="#8ce8a9" fill-opacity="0.501961" points="78,156 51,230 31,210" />
<polygon fill="#8b0500" fill-opacity="0.501961" points="184,238 228,190 235,110" />
<polygon fill="#3e9367" fill-opacity="0.501961" points="108,195 216,232 175,264" />
<polygon fill="#ffe800" fill-opacity="0.501961" points="26,124 52,166 24,197" />
<polygon fill="#2e0000" fill-opacity="0.501961" points="-6,139 35,101 38,121" />
<polygon fill="#767d00" fill-opacity="0.501961" points="194,29 230,7 231,35" />
<polygon fill="#76bce7" fill-opacity="0.501961" points="95,136 113,204 85,211" />
<polygon fill="#b82800" fill-opacity="0.501961" points="196,234 204,195 100,157" />
<polygon fill="#b2ae95" fill-opacity="0.501961" points="268,42 218,83 248,186" />
<polygon fill="#c1a6c6" fill-opacity="0.501961" points="80,93 107,89 95,150" />
<polygon fill="#624f00" fill-opacity="0.501961" points="54,174 27,224 -8,229" />
<polygon fill="#2cb5e8" fill-opacity="0.501961" points="215,216 214,241 191,239" />
<polygon fill="#efffff" fill-opacity="0.501961" points="70,121 62,104 66,139" />
<polygon fill="#e6d100" fill-opacity="0.501961" points="28,111 -6,66 18,26" />
<polygon fill="#98a754" fill-opacity="0.501961" points="192,167 225,193 168,188" />
<polygon fill="#b3cdf6" fill-opacity="0.501961" points="150,59 123,106 174,118" />
<polygon fill="#a41639" fill-opacity="0.501961" points="181,155 191,92 153,119" />
<polygon fill="#ff8f00" fill-opacity="0.501961" points="83,202 59,211 90,162" />
<polygon fill="#380000" fill-opacity="0.501961" points="146,172 142,90 122,150" />
<polygon fill="#925124" fill-opacity="0.501961" points="86,117 20,91 70,90" />
<polygon fill="#f4ffff" fill-opacity="0.501961" points="45,154 38,111 50,108" />
<polygon fill="#b66732" fill-opacity="0.501961" points="224,69 188,78 224,95" />
<polygon fill="#bfceb8" fill-opacity="0.501961" points="181,270 129,254 119,213" />
<polygon fill="#b80000" fill-opacity="0.501961" points="115,195 103,148 150,171" />
<polygon fill="#9d0000" fill-opacity="0.501961" points="188,161 233,158 224,186" />
<polygon fill="#2d0000" fill-opacity="0.501961" points="23,204 21,143 10,167" />
<polygon fill="#dc7c00" fill-opacity="0.501961" points="21,227 8,173 5,221" />
<polygon fill="#8e4a64" fill-opacity="0.501961" points="207,161 226,154 207,100" />
<polygon fill="#688c0a" fill-opacity="0.501961" points="147,183 195,237 111,192" />
<polygon fill="#3076a9" fill-opacity="0.501961" points="263,210 234,145 231,224" />
<polygon fill="#ffffff" fill-opacity="0.501961" points="138,80 164,88 165,120" />
<polygon fill="#00395b" fill-opacity="0.501961" points="202,271 220,204 271,232" />
<polygon fill="#003c59" fill-opacity="0.501961" points="157,80 180,42 167,90" />
<polygon fill="#ffffff" fill-opacity="0.501961" points="25,34 -5,13 18,20" />
<polygon fill="#ffe34e" fill-opacity="0.501961" points="200,80 179,53 230,39" />
<polygon fill="#bf978d" fill-opacity="0.501961" points="10,103 165,73 91,-16" />
<polygon fill="#cb9100" fill-opacity="0.501961" points="49,94 77,165 55,147" />
<polygon fill="#f59a98" fill-opacity="0.501961" points="266,26 235,105 217,44" />
<polygon fill="#e5ffe6" fill-opacity="0.501961" points="191,14 215,19 222,3" />
<polygon fill="#e5ead2" fill-opacity="0.501961" points="146,28 154,-3 155,58" />
<polygon fill="#006000" fill-opacity="0.501961" points="192,243 246,251 189,271" />
<polygon fill="#9f9a37" fill-opacity="0.501961" points="82,129 128,130 85,167" />
<polygon fill="#5d0819" fill-opacity="0.501961" points="176,127 187,175 126,160" />
<polygon fill="#9d9ce4" fill-opacity="0.501961" points="165,162 162,150 172,153" />
<polygon fill="#4cbb50" fill-opacity="0.501961" points="34,224 88,206 108,242" />
<polygon fill="#dbf2c9" fill-opacity="0.501961" points="241,154 253,133 231,140" />
<polygon fill="#b491c7" fill-opacity="0.501961" points="148,109 170,111 153,149" />
<polygon fill="#faffff" fill-opacity="0.501961" points="189,98 206,96 196,112" />
<polygon fill="#fdc100" fill-opacity="0.501961" points="35,114 45,178 21,153" />
<polygon fill="#f1fbff" fill-opacity="0.501961" points="-16,109 7,90 7,120" />
<polygon fill="#000036" fill-opacity="0.501961" points="17,19 -16,-16 17,-11" />
<polygon fill="#312210" fill-opacity="0.501961" points="157,227 192,234 205,222" />
<polygon fill="#0e8e0b" fill-opacity="0.501961" points="124,242 120,271 25,247" />
<polygon fill="#ac6400" fill-opacity="0.501961" points="77,99 63,89 70,127" />
<polygon fill="#b48faf" fill-opacity="0.501961" points="187,111 182,142 214,159" />
<polygon fill="#9a9200" fill-opacity="0.501961" points="76,231 56,226 52,254" />
<polygon fill="#a6abae" fill-opacity="0.501961" points="193,239 169,271 172,232" />
<polygon fill="#cba896" fill-opacity="0.501961" points="12,-16 55,108 81,-4" />
<polygon fill="#4c0000" fill-opacity="0.501961" points="170,108 186,113 168,87" />
<polygon fill="#f2aea8" fill-opacity="0.501961" points="227,-16 271,8 229,12" />
<polygon fill="#f8ffff" fill-opacity="0.501961" points="211,99 218,93 220,125" />
<polygon fill="#5b5b5b" fill-opacity="0.501961" points="25,84 59,99 35,103" />
<polygon fill="#788f59" fill-opacity="0.501961" points="188,217 121,269 157,207" />
<polygon fill="#cea305" fill-opacity="0.501961" points="10,112 44,105 10,96" />
<polygon fill="#848a93" fill-opacity="0.501961" points="150,-5 195,-15 166,52" />
<polygon fill="#f7ffff" fill-opacity="0.501961" points="41,140 46,105 54,141" />
<polygon fill="#940000" fill-opacity="0.501961" points="163,195 202,226 225,190" />
<polygon fill="#5e2c00" fill-opacity="0.501961" points="61,129 61,118 48,107" />
<polygon fill="#ffdeb0" fill-opacity="0.501961" points="182,255 172,271 129,247" />
<polygon fill="#211d00" fill-opacity="0.501961" points="42,188 19,222 18,205" />
<polygon fill="#c98b70" fill-opacity="0.501961" points="65,13 149,18 150,59" />
<polygon fill="#ffdf8f" fill-opacity="0.501961" points="49,139 58,164 39,164" />
<polygon fill="#ffffad" fill-opacity="0.501961" points="20,93 32,62 26,35" />
<polygon fill="#280802" fill-opacity="0.501961" points="14,138 13,117 42,106" />
</g>
</svg>