<svg xmlns="http://www.w3.org/2000/svg" version="1.1" width="1024" height="1024">
<rect x="0" y="0" width="1024" height="1024" fill="#5b6538" />
<g transform="scale(4.000000) translate(0.5 0.5)">
<polygon fill="#ffff55" fill-opacity="0.501961" points="253,154 74,271 33,112" />
<polygon fill="#000026" fill-opacity="0.501961" points="1,-16 271,68 -9,134" />
<polygon fill="#e7f75a" fill-opacity="0.501961" points="217,271 119,95 47,244" />
<polygon fill="#000000" fill-opacity="0.501961" points="-16,235 53,209 5,16" />
<polygon fill="#000023" fill-opacity="0.501961" points="132,96 256,155 256,-16" />
<polygon fill="#000000" fill-opacity="0.501961" points="216,164 271,180 177,238" />
<polygon fill="#cedb31" fill-opacity="0.501961" points="67,111 188,115 183,243" />
<polygon fill="#ffff68" fill-opacity="0.501961" points="238,233 271,184 186,248" />
<polygon fill="#00000c" fill-opacity="0.501961" points="193,159 271,137 242,63" />
<polygon fill="#000000" fill-opacity="0.501961" points="52,228 -16,176 25,73" />
<polygon fill="#3f4f6c" fill-opacity="0.501961" points="-16,23 234,-16 235,62" />
<polygon fill="#02101c" fill-opacity="0.501961" points="118,38 202,116 -16,100" />
<polygon fill="#ffff90" fill-opacity="0.501961" points="271,189 252,156 220,150" />
<polygon fill="#e9f569" fill-opacity="0.501961" points="177,162 105,240 37,143" />
<polygon fill="#97a11d" fill-opacity="0.501961" points="57,114 214,138 99,153" />
<polygon fill="#000000" fill-opacity="0.501961" points="267,184 225,164 182,213" />
<polygon fill="#b0bdba" fill-opacity="0.501961" points="118,103 135,89 123,69" />
<polygon fill="#ffff94" fill-opacity="0.501961" points="218,151 187,175 251,158" />
<polygon fill="#656778" fill-opacity="0.501961" points="108,251 -16,208 2,265" />
<polygon fill="#c0cd28" fill-opacity="0.501961" points="118,108 204,128 189,189" />
<polygon fill="#fdff4a" fill-opacity="0.501961" points="271,200 242,225 267,124" />
<polygon fill="#c0d146" fill-opacity="0.501961" points="167,236 60,271 45,160" />
<polygon fill="#000000" fill-opacity="0.501961" points="-16,99 -16,147 74,108" />
<polygon fill="#4c4b76" fill-opacity="0.501961" points="265,214 271,271 191,254" />
<polygon fill="#000000" fill-opacity="0.501961" points="271,138 217,127 196,156" />
<polygon fill="#384650" fill-opacity="0.501961" points="-16,54 50,-16 226,36" />
<polygon fill="#0d0a23" fill-opacity="0.501961" points="190,189 245,202 192,235" />
<polygon fill="#000000" fill-opacity="0.501961" points="-14,207 1,47 50,193" />
<polygon fill="#ffff88" fill-opacity="0.501961" points="205,163 207,191 189,182" />
<polygon fill="#6f7585" fill-opacity="0.501961" points="221,-1 119,27 109,-16" />
<polygon fill="#e5f65e" fill-opacity="0.501961" points="123,122 95,109 52,119" />
<polygon fill="#1f3136" fill-opacity="0.501961" points="184,120 271,106 182,21" />
<polygon fill="#cfe058" fill-opacity="0.501961" points="177,246 215,245 257,200" />
<polygon fill="#000000" fill-opacity="0.501961" points="212,171 199,213 249,168" />
<polygon fill="#36364d" fill-opacity="0.501961" points="61,248 -16,212 45,205" />
<polygon fill="#000c12" fill-opacity="0.501961" points="266,110 267,162 174,113" />
<polygon fill="#969e27" fill-opacity="0.501961" points="119,112 178,148 56,148" />
<polygon fill="#fcff63" fill-opacity="0.501961" points="259,159 234,153 261,187" />
<polygon fill="#a2af1b" fill-opacity="0.501961" points="129,151 28,140 47,119" />
<polygon fill="#000100" fill-opacity="0.501961" points="139,96 204,64 140,65" />
<polygon fill="#6c7c84" fill-opacity="0.501961" points="198,74 182,97 183,81" />
<polygon fill="#02080c" fill-opacity="0.501961" points="135,36 15,81 110,77" />
<polygon fill="#000000" fill-opacity="0.501961" points="237,210 208,176 249,170" />
<polygon fill="#404d53" fill-opacity="0.501961" points="147,7 183,20 110,100" />
<polygon fill="#9dab03" fill-opacity="0.501961" points="197,154 182,228 179,188" />
<polygon fill="#e3ee76" fill-opacity="0.501961" points="67,171 115,222 155,163" />
<polygon fill="#000011" fill-opacity="0.501961" points="165,112 126,111 123,94" />
<polygon fill="#51544f" fill-opacity="0.501961" points="182,241 183,217 236,212" />
<polygon fill="#a2b7cd" fill-opacity="0.501961" points="258,41 245,40 251,34" />
<polygon fill="#313d43" fill-opacity="0.501961" points="66,113 88,74 93,111" />
<polygon fill="#38444d" fill-opacity="0.501961" points="59,71 152,-9 30,-8" />
<polygon fill="#000000" fill-opacity="0.501961" points="187,223 191,188 206,195" />
<polygon fill="#00040e" fill-opacity="0.501961" points="201,159 237,129 196,146" />
<polygon fill="#000000" fill-opacity="0.501961" points="-16,210 21,101 44,169" />
<polygon fill="#00010a" fill-opacity="0.501961" points="23,123 45,94 75,112" />
<polygon fill="#9ba852" fill-opacity="0.501961" points="54,217 170,269 55,252" />
<polygon fill="#b8c528" fill-opacity="0.501961" points="176,230 203,132 171,112" />
<polygon fill="#2f3061" fill-opacity="0.501961" points="114,119 127,116 114,111" />
<polygon fill="#f9ff71" fill-opacity="0.501961" points="204,192 196,186 207,166" />
<polygon fill="#d4e03f" fill-opacity="0.501961" points="83,155 77,215 32,133" />
<polygon fill="#364349" fill-opacity="0.501961" points="271,-15 195,14 193,85" />
<polygon fill="#ffffff" fill-opacity="0.501961" points="124,26 118,23 125,21" />
<polygon fill="#c1cf4d" fill-opacity="0.501961" points="137,141 124,114 179,116" />
<polygon fill="#303334" fill-opacity="0.501961" points="232,234 271,201 263,237" />
<polygon fill="#0b1d2a" fill-opacity="0.501961" points="-16,22 40,26 13,-16" />
<polygon fill="#1f2c35" fill-opacity="0.501961" points="143,89 234,135 262,87" />
<polygon fill="#00070a" fill-opacity="0.501961" points="220,51 228,35 243,39" />
<polygon fill="#bfafb8" fill-opacity="0.501961" points="92,101 86,103 86,94" />
<polygon fill="#b2bdcc" fill-opacity="0.501961" points="121,96 125,85 135,86" />
<polygon fill="#838991" fill-opacity="0.501961" points="151,5 192,13 180,-16" />
<polygon fill="#f1ff84" fill-opacity="0.501961" points="235,152 199,181 195,166" />
<polygon fill="#ccdd35" fill-opacity="0.501961" points="246,150 221,149 258,162" />
<polygon fill="#d3e24a" fill-opacity="0.501961" points="177,155 164,232 118,228" />
<polygon fill="#0d1a23" fill-opacity="0.501961" points="91,96 48,53 -6,107" />
<polygon fill="#d3d43d" fill-opacity="0.501961" points="156,165 102,160 199,141" />
<polygon fill="#979e50" fill-opacity="0.501961" points="153,271 184,205 188,257" />
<polygon fill="#454d00" fill-opacity="0.501961" points="45,152 46,166 32,137" />
<polygon fill="#00050f" fill-opacity="0.501961" points="117,98 114,112 92,101" />
<polygon fill="#000000" fill-opacity="0.501961" points="253,189 236,203 238,167" />
<polygon fill="#000702" fill-opacity="0.501961" points="212,63 271,65 215,80" />
<polygon fill="#adbec1" fill-opacity="0.501961" points="178,45 187,50 181,51" />
<polygon fill="#919609" fill-opacity="0.501961" points="129,137 86,148 163,150" />
<polygon fill="#000000" fill-opacity="0.501961" points="257,67 269,172 244,147" />
<polygon fill="#d3e54d" fill-opacity="0.501961" points="265,204 264,174 217,240" />
<polygon fill="#fffff0" fill-opacity="0.501961" points="49,157 48,164 56,167" />
<polygon fill="#656869" fill-opacity="0.501961" points="227,236 153,271 271,265" />
<polygon fill="#354147" fill-opacity="0.501961" points="-16,38 91,-16 117,55" />
<polygon fill="#e5e985" fill-opacity="0.501961" points="81,169 117,151 89,150" />
<polygon fill="#666875" fill-opacity="0.501961" points="-16,251 41,232 82,271" />
<polygon fill="#acb8c9" fill-opacity="0.501961" points="63,56 65,60 70,57" />
<polygon fill="#000000" fill-opacity="0.501961" points="67,70 102,41 77,88" />
<polygon fill="#d1de57" fill-opacity="0.501961" points="118,112 107,130 90,111" />
<polygon fill="#000400" fill-opacity="0.501961" points="192,73 162,93 173,51" />
<polygon fill="#b0b40f" fill-opacity="0.501961" points="54,159 51,149 86,157" />
<polygon fill="#333540" fill-opacity="0.501961" points="7,195 -16,240 53,224" />
<polygon fill="#000000" fill-opacity="0.501961" points="238,166 252,175 215,170" />
<polygon fill="#ecf4a0" fill-opacity="0.501961" points="59,147 43,151 45,140" />
<polygon fill="#45535d" fill-opacity="0.501961" points="237,105 249,74 249,97" />
<polygon fill="#000000" fill-opacity="0.501961" points="114,84 102,55 103,92" />
<polygon fill="#000000" fill-opacity="0.501961" points="203,150 259,129 262,147" />
</g>
</svg>