<svg xmlns="http://www.w3.org/2000/svg" version="1.1" width="1024" height="1024">
<rect x="0" y="0" width="1024" height="1024" fill="#1b443a" />
<g transform="scale(4.000000) translate(0.5 0.5)">
<polygon fill="#6bffb0" fill-opacity="0.501961" points="55,189 238,160 123,37" />
<polygon fill="#01000b" fill-opacity="0.501961" points="-16,258 117,271 4,-16" />
<polygon fill="#080016" fill-opacity="0.501961" points="271,16 -16,-16 34,92" />
<polygon fill="#000008" fill-opacity="0.501961" points="239,104 163,263 271,253" />
<polygon fill="#4dde89" fill-opacity="0.501961" points="126,62 88,208 216,185" />
<polygon fill="#5cb398" fill-opacity="0.501961" points="59,162 191,69 90,71" />
<polygon fill="#100d26" fill-opacity="0.501961" points="271,187 129,-1 270,-3" />
<polygon fill="#04000f" fill-opacity="0.501961" points="160,271 193,203 -16,243" />
<polygon fill="#50aa8f" fill-opacity="0.501961" points="219,123 186,202 154,54" />
<polygon fill="#00a147" fill-opacity="0.501961" points="147,113 186,203 109,214" />
<polygon fill="#00744a" fill-opacity="0.501961" points="50,135 94,152 116,87" />
<polygon fill="#a5bcbb" fill-opacity="0.501961" points="142,67 159,118 88,87" />
<polygon fill="#00d736" fill-opacity="0.501961" points="58,140 75,189 113,213" />
<polygon fill="#006c48" fill-opacity="0.501961" points="149,84 207,93 192,140" />
<polygon fill="#8fbbb4" fill-opacity="0.501961" points="125,205 83,184 66,129" />
<polygon fill="#c4cddb" fill-opacity="0.501961" points="131,178 102,134 101,161" />
<polygon fill="#bbcfcd" fill-opacity="0.501961" points="203,113 187,188 211,144" />
<polygon fill="#00bd32" fill-opacity="0.501961" points="222,145 202,190 213,102" />
<polygon fill="#00b237" fill-opacity="0.501961" points="179,69 148,54 97,69" />
<polygon fill="#28e15a" fill-opacity="0.501961" points="147,182 178,104 94,124" />
<polygon fill="#0c101d" fill-opacity="0.501961" points="189,270 16,141 -16,255" />
<polygon fill="#005f4a" fill-opacity="0.501961" points="179,167 168,213 95,177" />
<polygon fill="#9cd4ba" fill-opacity="0.501961" points="189,143 161,173 165,120" />
<polygon fill="#0d0d1e" fill-opacity="0.501961" points="234,130 271,256 164,260" />
<polygon fill="#121726" fill-opacity="0.501961" points="-16,4 110,-15 26,236" />
<polygon fill="#121d2a" fill-opacity="0.501961" points="271,59 236,-16 35,60" />
<polygon fill="#00b339" fill-opacity="0.501961" points="88,73 129,61 73,98" />
<polygon fill="#00b333" fill-opacity="0.501961" points="197,196 165,206 218,161" />
<polygon fill="#009e39" fill-opacity="0.501961" points="65,170 82,95 58,140" />
<polygon fill="#9ebdba" fill-opacity="0.501961" points="179,82 103,81 146,68" />
<polygon fill="#6ad680" fill-opacity="0.501961" points="143,156 160,138 92,131" />
<polygon fill="#00a92d" fill-opacity="0.501961" points="110,213 152,214 69,184" />
<polygon fill="#19715e" fill-opacity="0.501961" points="96,90 119,93 87,157" />
<polygon fill="#008d38" fill-opacity="0.501961" points="186,101 175,62 219,117" />
<polygon fill="#90bbb0" fill-opacity="0.501961" points="206,163 207,122 176,196" />
<polygon fill="#009704" fill-opacity="0.501961" points="126,159 115,141 143,159" />
<polygon fill="#00cd3b" fill-opacity="0.501961" points="126,129 164,131 136,112" />
<polygon fill="#96e9b7" fill-opacity="0.501961" points="157,113 134,91 111,112" />
<polygon fill="#97c2b4" fill-opacity="0.501961" points="72,161 72,129 97,190" />
<polygon fill="#9cc6bd" fill-opacity="0.501961" points="139,173 118,175 100,150" />
<polygon fill="#6cab98" fill-opacity="0.501961" points="105,75 83,97 90,124" />
<polygon fill="#011010" fill-opacity="0.501961" points="120,227 62,171 51,189" />
<polygon fill="#468a7d" fill-opacity="0.501961" points="103,189 127,175 75,141" />
<polygon fill="#418a79" fill-opacity="0.501961" points="184,81 180,121 134,81" />
<polygon fill="#00a42d" fill-opacity="0.501961" points="105,209 67,156 80,194" />
<polygon fill="#101b25" fill-opacity="0.501961" points="219,182 267,208 220,35" />
<polygon fill="#09b76d" fill-opacity="0.501961" points="149,202 164,168 133,164" />
<polygon fill="#00b155" fill-opacity="0.501961" points="157,59 118,65 188,75" />
<polygon fill="#15232f" fill-opacity="0.501961" points="121,-5 76,83 198,9" />
<polygon fill="#273749" fill-opacity="0.501961" points="271,153 271,39 227,121" />
<polygon fill="#004a3d" fill-opacity="0.501961" points="81,150 87,125 98,146" />
<polygon fill="#182634" fill-opacity="0.501961" points="-16,82 57,116 66,207" />
<polygon fill="#0c1720" fill-opacity="0.501961" points="224,117 251,23 191,87" />
<polygon fill="#00a83f" fill-opacity="0.501961" points="213,174 181,205 219,138" />
<polygon fill="#578b81" fill-opacity="0.501961" points="194,169 171,167 203,108" />
<polygon fill="#004239" fill-opacity="0.501961" points="180,121 194,134 195,114" />
<polygon fill="#004b40" fill-opacity="0.501961" points="156,173 174,189 185,167" />
<polygon fill="#09121b" fill-opacity="0.501961" points="44,89 93,54 54,139" />
<polygon fill="#009900" fill-opacity="0.501961" points="120,146 118,127 115,135" />
<polygon fill="#009400" fill-opacity="0.501961" points="133,157 148,159 158,150" />
<polygon fill="#13202b" fill-opacity="0.501961" points="242,88 271,5 105,42" />
<polygon fill="#0d161f" fill-opacity="0.501961" points="154,203 271,232 80,271" />
<polygon fill="#006f2e" fill-opacity="0.501961" points="84,115 76,85 66,137" />
<polygon fill="#3bee8c" fill-opacity="0.501961" points="143,164 172,141 158,167" />
<polygon fill="#00a546" fill-opacity="0.501961" points="218,152 220,119 201,101" />
<polygon fill="#70b3a1" fill-opacity="0.501961" points="137,203 85,178 104,198" />
<polygon fill="#0b594a" fill-opacity="0.501961" points="172,100 164,82 151,94" />
<polygon fill="#00b24a" fill-opacity="0.501961" points="60,156 86,190 63,133" />
<polygon fill="#73b1a4" fill-opacity="0.501961" points="201,108 191,107 212,133" />
<polygon fill="#1fa671" fill-opacity="0.501961" points="67,133 96,105 110,129" />
<polygon fill="#006a35" fill-opacity="0.501961" points="112,177 184,206 135,208" />
<polygon fill="#00a949" fill-opacity="0.501961" points="151,61 81,82 113,62" />
<polygon fill="#9fc1ba" fill-opacity="0.501961" points="179,159 181,122 164,165" />
<polygon fill="#5ff097" fill-opacity="0.501961" points="159,110 133,104 171,127" />
<polygon fill="#6dfb9f" fill-opacity="0.501961" points="112,122 111,136 129,108" />
<polygon fill="#101d27" fill-opacity="0.501961" points="177,224 223,246 235,145" />
<polygon fill="#81afa4" fill-opacity="0.501961" points="115,111 164,70 110,74" />
<polygon fill="#16ed7b" fill-opacity="0.501961" points="110,148 120,163 151,167" />
<polygon fill="#77dc89" fill-opacity="0.501961" points="135,157 128,126 120,141" />
<polygon fill="#233749" fill-opacity="0.501961" points="267,-16 271,19 218,26" />
<polygon fill="#00cd4a" fill-opacity="0.501961" points="160,126 125,119 140,139" />
<polygon fill="#0e1720" fill-opacity="0.501961" points="-16,254 100,261 56,145" />
<polygon fill="#2fb67c" fill-opacity="0.501961" points="171,131 185,94 158,106" />
<polygon fill="#759f9d" fill-opacity="0.501961" points="77,126 83,156 70,143" />
<polygon fill="#88b9ae" fill-opacity="0.501961" points="195,182 171,195 201,161" />
<polygon fill="#0e1924" fill-opacity="0.501961" points="94,58 127,40 180,58" />
<polygon fill="#78aba6" fill-opacity="0.501961" points="108,138 97,153 99,126" />
<polygon fill="#109169" fill-opacity="0.501961" points="146,199 115,209 167,164" />
<polygon fill="#a4ccc2" fill-opacity="0.501961" points="156,103 136,91 116,108" />
<polygon fill="#007d2b" fill-opacity="0.501961" points="142,216 120,216 169,187" />
<polygon fill="#8cbbb1" fill-opacity="0.501961" points="137,68 87,96 106,75" />
<polygon fill="#a7dbc5" fill-opacity="0.501961" points="126,170 102,142 107,165" />
<polygon fill="#009544" fill-opacity="0.501961" points="194,85 154,65 185,70" />
<polygon fill="#03100f" fill-opacity="0.501961" points="97,221 140,223 83,201" />
<polygon fill="#79ada1" fill-opacity="0.501961" points="177,78 148,69 182,92" />
<polygon fill="#00a000" fill-opacity="0.501961" points="155,153 162,133 163,143" />
<polygon fill="#5eea8c" fill-opacity="0.501961" points="156,156 170,147 173,123" />
<polygon fill="#0b1318" fill-opacity="0.501961" points="-16,80 2,-16 48,34" />
<polygon fill="#00ab51" fill-opacity="0.501961" points="207,98 213,158 219,129" />
<polygon fill="#009440" fill-opacity="0.501961" points="76,104 77,87 105,65" />
</g>
</svg>