<svg xmlns="http://www.w3.org/2000/svg" version="1.1" width="1024" height="1024">
<rect x="0" y="0" width="1024" height="1024" fill="#877f6f" />
<g transform="scale(4.000000) translate(0.5 0.5)">
<polygon fill="#1b0000" fill-opacity="0.501961" points="271,251 214,67 161,271" />
<polygon fill="#ffffff" fill-opacity="0.501961" points="-16,68 179,30 6,-16" />
<polygon fill="#000000" fill-opacity="0.501961" points="148,10 72,85 188,76" />
<polygon fill="#feffff" fill-opacity="0.501961" points="123,161 -16,164 104,108" />
<polygon fill="#f2ffe9" fill-opacity="0.501961" points="137,35 252,-16 271,79" />
<polygon fill="#fdffff" fill-opacity="0.501961" points="-16,9 100,59 114,-16" />
<polygon fill="#200000" fill-opacity="0.501961" points="254,271 168,248 271,126" />
<polygon fill="#000000" fill-opacity="0.501961" points="101,128 128,100 184,126" />
<polygon fill="#000000" fill-opacity="0.501961" points="85,64 220,91 147,34" />
<polygon fill="#1c1100" fill-opacity="0.501961" points="71,128 53,39 36,133" />
<polygon fill="#7e592c" fill-opacity="0.501961" points="215,194 271,81 205,17" />
<polygon fill="#dedacd" fill-opacity="0.501961" points="192,92 131,71 76,116" />
<polygon fill="#1b272e" fill-opacity="0.501961" points="93,158 -7,224 -7,172" />
<polygon fill="#bfbeb3" fill-opacity="0.501961" points="92,230 155,131 -16,239" />
<polygon fill="#2b0000" fill-opacity="0.501961" points="152,42 133,-10 189,-16" />
<polygon fill="#f2ffff" fill-opacity="0.501961" points="16,135 124,146 -16,170" />
<polygon fill="#f4fff7" fill-opacity="0.501961" points="158,36 200,73 201,-16" />
<polygon fill="#e9e6dd" fill-opacity="0.501961" points="252,169 242,133 211,156" />
<polygon fill="#f5fcf2" fill-opacity="0.501961" points="11,62 13,110 45,105" />
<polygon fill="#330100" fill-opacity="0.501961" points="271,182 243,271 176,144" />
<polygon fill="#ffffff" fill-opacity="0.501961" points="18,-16 41,37 -16,44" />
<polygon fill="#dcedf3" fill-opacity="0.501961" points="169,225 131,247 166,269" />
<polygon fill="#fffff1" fill-opacity="0.501961" points="271,-5 222,0 222,64" />
<polygon fill="#250500" fill-opacity="0.501961" points="123,250 77,229 87,271" />
<polygon fill="#000000" fill-opacity="0.501961" points="177,55 71,99 120,42" />
<polygon fill="#683f1c" fill-opacity="0.501961" points="227,138 154,148 172,242" />
<polygon fill="#e5dcbb" fill-opacity="0.501961" points="147,17 92,50 148,36" />
<polygon fill="#88906c" fill-opacity="0.501961" points="84,149 91,45 33,34" />
<polygon fill="#c1b9a9" fill-opacity="0.501961" points="212,134 170,148 191,87" />
<polygon fill="#955121" fill-opacity="0.501961" points="134,50 138,-15 110,17" />
<polygon fill="#813d13" fill-opacity="0.501961" points="271,116 215,149 192,68" />
<polygon fill="#43545a" fill-opacity="0.501961" points="-16,223 66,194 12,161" />
<polygon fill="#d0d6d2" fill-opacity="0.501961" points="98,146 87,94 121,76" />
<polygon fill="#1f0d00" fill-opacity="0.501961" points="51,114 5,107 -10,122" />
<polygon fill="#c0bbab" fill-opacity="0.501961" points="95,202 102,170 33,179" />
<polygon fill="#150000" fill-opacity="0.501961" points="18,166 84,166 29,181" />
<polygon fill="#c3cfd2" fill-opacity="0.501961" points="159,142 111,124 54,165" />
<polygon fill="#edffff" fill-opacity="0.501961" points="88,-16 120,36 89,65" />
<polygon fill="#3c5130" fill-opacity="0.501961" points="229,34 247,48 244,85" />
<polygon fill="#ecfbec" fill-opacity="0.501961" points="11,182 24,175 8,167" />
<polygon fill="#000000" fill-opacity="0.501961" points="189,94 125,36 182,58" />
<polygon fill="#000000" fill-opacity="0.501961" points="153,106 107,116 168,131" />
<polygon fill="#001611" fill-opacity="0.501961" points="213,50 222,25 205,32" />
<polygon fill="#cde8cb" fill-opacity="0.501961" points="70,97 91,-16 52,-16" />
<polygon fill="#515151" fill-opacity="0.501961" points="100,202 99,242 172,194" />
<polygon fill="#050000" fill-opacity="0.501961" points="18,136 -12,117 -13,144" />
<polygon fill="#def2f9" fill-opacity="0.501961" points="59,165 -16,160 7,139" />
<polygon fill="#fffdf3" fill-opacity="0.501961" points="209,10 190,75 178,45" />
<polygon fill="#a2a37f" fill-opacity="0.501961" points="-1,47 54,39 25,96" />
<polygon fill="#938f78" fill-opacity="0.501961" points="193,165 148,157 190,200" />
<polygon fill="#ffffff" fill-opacity="0.501961" points="40,41 8,-16 -16,36" />
<polygon fill="#3d2d19" fill-opacity="0.501961" points="60,133 58,42 39,87" />
<polygon fill="#c6e4f2" fill-opacity="0.501961" points="96,237 73,221 94,205" />
<polygon fill="#0a0b04" fill-opacity="0.501961" points="129,39 84,80 194,70" />
<polygon fill="#260000" fill-opacity="0.501961" points="176,268 168,215 232,263" />
<polygon fill="#9fb9b5" fill-opacity="0.501961" points="177,12 237,70 161,28" />
<polygon fill="#110000" fill-opacity="0.501961" points="43,170 77,173 86,160" />
<polygon fill="#b8af9f" fill-opacity="0.501961" points="160,77 176,119 103,83" />
<polygon fill="#555043" fill-opacity="0.501961" points="85,129 84,76 67,126" />
<polygon fill="#383018" fill-opacity="0.501961" points="-12,64 9,61 8,91" />
<polygon fill="#986637" fill-opacity="0.501961" points="191,156 222,77 271,89" />
<polygon fill="#5e5947" fill-opacity="0.501961" points="181,104 183,138 150,132" />
<polygon fill="#3c1100" fill-opacity="0.501961" points="169,20 187,-16 130,18" />
<polygon fill="#0c0901" fill-opacity="0.501961" points="33,204 63,196 58,189" />
<polygon fill="#a49e8f" fill-opacity="0.501961" points="114,208 36,178 175,160" />
<polygon fill="#743418" fill-opacity="0.501961" points="164,145 125,162 214,156" />
<polygon fill="#d5f0ed" fill-opacity="0.501961" points="245,68 271,88 271,7" />
<polygon fill="#e6f6fc" fill-opacity="0.501961" points="65,129 95,153 35,166" />
<polygon fill="#361200" fill-opacity="0.501961" points="257,130 260,108 227,134" />
<polygon fill="#ced7ca" fill-opacity="0.501961" points="-16,110 34,84 41,108" />
<polygon fill="#c9c3b2" fill-opacity="0.501961" points="-12,221 23,225 66,199" />
<polygon fill="#e7e9de" fill-opacity="0.501961" points="194,90 178,116 197,110" />
<polygon fill="#000000" fill-opacity="0.501961" points="94,63 82,96 118,76" />
<polygon fill="#331000" fill-opacity="0.501961" points="225,271 193,159 271,171" />
<polygon fill="#92714d" fill-opacity="0.501961" points="75,214 -15,271 84,271" />
<polygon fill="#605137" fill-opacity="0.501961" points="217,247 144,196 191,181" />
<polygon fill="#cdc999" fill-opacity="0.501961" points="205,-13 244,45 175,6" />
<polygon fill="#7c8a8d" fill-opacity="0.501961" points="114,220 168,210 133,271" />
<polygon fill="#e9d1c5" fill-opacity="0.501961" points="248,131 231,144 239,165" />
<polygon fill="#332400" fill-opacity="0.501961" points="249,32 271,53 271,20" />
<polygon fill="#464a48" fill-opacity="0.501961" points="150,233 151,194 132,229" />
<polygon fill="#622109" fill-opacity="0.501961" points="193,86 200,67 216,120" />
<polygon fill="#260f0a" fill-opacity="0.501961" points="65,120 46,137 43,102" />
<polygon fill="#6d8390" fill-opacity="0.501961" points="-4,215 -16,196 44,195" />
<polygon fill="#edfffd" fill-opacity="0.501961" points="125,39 100,15 107,49" />
<polygon fill="#fffced" fill-opacity="0.501961" points="271,4 244,25 185,18" />
<polygon fill="#111007" fill-opacity="0.501961" points="248,82 226,74 256,76" />
<polygon fill="#31311c" fill-opacity="0.501961" points="159,82 160,89 170,86" />
<polygon fill="#bd9875" fill-opacity="0.501961" points="122,-16 107,18 131,42" />
<polygon fill="#5d5d4c" fill-opacity="0.501961" points="102,134 107,118 117,134" />
<polygon fill="#bbdfe4" fill-opacity="0.501961" points="157,205 150,211 169,217" />
<polygon fill="#e1effd" fill-opacity="0.501961" points="146,271 164,271 169,223" />
<polygon fill="#fffffa" fill-opacity="0.501961" points="198,34 170,45 195,69" />
<polygon fill="#2b1c0d" fill-opacity="0.501961" points="170,118 187,90 184,105" />
<polygon fill="#7a6c65" fill-opacity="0.501961" points="120,186 120,151 135,138" />
<polygon fill="#0d0e07" fill-opacity="0.501961" points="124,57 175,50 190,91" />
<polygon fill="#f0fef9" fill-opacity="0.501961" points="76,48 51,-16 49,39" />
<polygon fill="#ffffff" fill-opacity="0.501961" points="79,-11 114,-15 105,18" />
<polygon fill="#b0c0a1" fill-opacity="0.501961" points="90,69 107,42 77,39" />
<polygon fill="#b0b2ac" fill-opacity="0.501961" points="178,141 119,156 167,129" />
</g>
</svg>