<svg xmlns="http://www.w3.org/2000/svg" version="1.1" width="1024" height="1024">
<rect x="0" y="0" width="1024" height="1024" fill="#292d32" />
<g transform="scale(4.000000) translate(0.5 0.5)">
<polygon fill="#7b8693" fill-opacity="0.501961" points="145,34 221,215 -16,30" />
<polygon fill="#000000" fill-opacity="0.501961" points="-16,-16 59,47 271,9" />
<polygon fill="#a5b1c6" fill-opacity="0.501961" points="157,162 106,198 140,239" />
<polygon fill="#d0e1f1" fill-opacity="0.501961" points="12,16 -16,38 41,92" />
<polygon fill="#000000" fill-opacity="0.501961" points="271,2 249,271 161,-16" />
<polygon fill="#c8d6e3" fill-opacity="0.501961" points="35,122 91,113 94,132" />
<polygon fill="#020504" fill-opacity="0.501961" points="147,271 6,68 -1,271" />
<polygon fill="#a0a9b6" fill-opacity="0.501961" points="179,129 87,34 86,85" />
<polygon fill="#000000" fill-opacity="0.501961" points="127,90 157,53 168,98" />
<polygon fill="#565f66" fill-opacity="0.501961" points="126,167 94,223 -1,252" />
<polygon fill="#000000" fill-opacity="0.501961" points="182,70 174,188 233,64" />
<polygon fill="#0a0b08" fill-opacity="0.501961" points="36,89 76,73 148,150" />
<polygon fill="#9ca8c2" fill-opacity="0.501961" points="177,35 68,58 105,31" />
<polygon fill="#8893a5" fill-opacity="0.501961" points="195,214 151,193 207,169" />
<polygon fill="#000000" fill-opacity="0.501961" points="267,216 258,271 87,255" />
<polygon fill="#03080d" fill-opacity="0.501961" points="48,46 -16,72 75,65" />
<polygon fill="#798799" fill-opacity="0.501961" points="170,78 168,28 195,60" />
<polygon fill="#bfcbe7" fill-opacity="0.501961" points="175,96 171,132 141,106" />
<polygon fill="#eefcff" fill-opacity="0.501961" points="26,40 -14,53 6,17" />
<polygon fill="#0f1211" fill-opacity="0.501961" points="135,113 160,143 67,192" />
<polygon fill="#000000" fill-opacity="0.501961" points="156,-16 182,34 -5,17" />
<polygon fill="#b1bccc" fill-opacity="0.501961" points="116,150 119,109 107,109" />
<polygon fill="#8c9fb5" fill-opacity="0.501961" points="39,252 29,226 11,238" />
<polygon fill="#0e1111" fill-opacity="0.501961" points="129,79 91,157 98,90" />
<polygon fill="#a6b0b9" fill-opacity="0.501961" points="65,74 32,87 89,36" />
<polygon fill="#030504" fill-opacity="0.501961" points="103,69 176,83 123,57" />
<polygon fill="#c1cbe2" fill-opacity="0.501961" points="140,220 138,201 166,230" />
<polygon fill="#e8f3f9" fill-opacity="0.501961" points="88,87 87,74 133,77" />
<polygon fill="#0c0e0d" fill-opacity="0.501961" points="128,220 75,115 102,249" />
<polygon fill="#c1d0f1" fill-opacity="0.501961" points="204,166 206,197 194,208" />
<polygon fill="#9ba8b3" fill-opacity="0.501961" points="37,218 80,231 52,234" />
<polygon fill="#000000" fill-opacity="0.501961" points="70,63 101,53 63,82" />
<polygon fill="#000000" fill-opacity="0.501961" points="6,195 51,260 20,146" />
<polygon fill="#91a4b5" fill-opacity="0.501961" points="11,12 55,47 31,40" />
<polygon fill="#6d809f" fill-opacity="0.501961" points="194,162 226,121 225,140" />
<polygon fill="#ffffff" fill-opacity="0.501961" points="251,157 253,145 269,156" />
<polygon fill="#c8d6da" fill-opacity="0.501961" points="41,96 34,63 31,91" />
<polygon fill="#adbdd8" fill-opacity="0.501961" points="208,226 216,200 218,225" />
<polygon fill="#000000" fill-opacity="0.501961" points="271,124 259,21 207,202" />
<polygon fill="#000000" fill-opacity="0.501961" points="7,118 60,71 61,94" />
<polygon fill="#feffff" fill-opacity="0.501961" points="103,44 98,70 111,60" />
<polygon fill="#d3e0e3" fill-opacity="0.501961" points="1,206 -16,195 2,174" />
<polygon fill="#f8ffff" fill-opacity="0.501961" points="168,152 176,158 167,169" />
<polygon fill="#1c2024" fill-opacity="0.501961" points="148,177 157,158 217,211" />
<polygon fill="#69727f" fill-opacity="0.501961" points="59,226 112,189 137,199" />
<polygon fill="#92a7ba" fill-opacity="0.501961" points="236,71 237,93 245,94" />
<polygon fill="#9fabb4" fill-opacity="0.501961" points="79,84 76,70 61,96" />
<polygon fill="#485662" fill-opacity="0.501961" points="169,35 208,28 222,51" />
<polygon fill="#000000" fill-opacity="0.501961" points="58,228 6,194 72,204" />
<polygon fill="#000000" fill-opacity="0.501961" points="179,67 151,51 148,106" />
<polygon fill="#ced8e7" fill-opacity="0.501961" points="169,210 178,179 178,198" />
<polygon fill="#f5ffff" fill-opacity="0.501961" points="144,71 153,52 145,55" />
<polygon fill="#000000" fill-opacity="0.501961" points="129,88 140,78 130,113" />
<polygon fill="#7b868f" fill-opacity="0.501961" points="65,188 72,217 53,184" />
<polygon fill="#4e5a5e" fill-opacity="0.501961" points="244,184 209,181 240,210" />
<polygon fill="#bcc9e2" fill-opacity="0.501961" points="145,146 143,180 151,168" />
<polygon fill="#cdd7f3" fill-opacity="0.501961" points="141,212 140,193 155,182" />
<polygon fill="#bfc8de" fill-opacity="0.501961" points="10,75 10,62 20,74" />
<polygon fill="#171b1c" fill-opacity="0.501961" points="219,136 164,101 188,160" />
<polygon fill="#000000" fill-opacity="0.501961" points="72,37 208,0 -13,-2" />
<polygon fill="#ecf4ff" fill-opacity="0.501961" points="95,128 86,113 86,136" />
<polygon fill="#ffffff" fill-opacity="0.501961" points="129,116 120,108 121,97" />
<polygon fill="#131617" fill-opacity="0.501961" points="163,157 102,120 150,126" />
<polygon fill="#000000" fill-opacity="0.501961" points="117,204 -11,271 107,268" />
<polygon fill="#bec9db" fill-opacity="0.501961" points="126,58 115,48 141,50" />
<polygon fill="#000000" fill-opacity="0.501961" points="-16,119 29,116 27,73" />
<polygon fill="#8a989e" fill-opacity="0.501961" points="24,133 18,128 6,148" />
<polygon fill="#c0cbd7" fill-opacity="0.501961" points="115,92 101,76 111,104" />
<polygon fill="#ffffff" fill-opacity="0.501961" points="51,81 45,72 52,69" />
<polygon fill="#c3def0" fill-opacity="0.501961" points="35,103 41,109 44,100" />
<polygon fill="#b8c9d5" fill-opacity="0.501961" points="55,122 50,136 44,118" />
<polygon fill="#000000" fill-opacity="0.501961" points="80,-16 266,-12 271,51" />
<polygon fill="#131619" fill-opacity="0.501961" points="93,144 110,101 99,74" />
<polygon fill="#353b43" fill-opacity="0.501961" points="81,80 104,22 100,63" />
<polygon fill="#000000" fill-opacity="0.501961" points="77,144 101,152 84,223" />
<polygon fill="#7b88a4" fill-opacity="0.501961" points="159,94 176,84 164,150" />
<polygon fill="#ffffff" fill-opacity="0.501961" points="39,176 32,176 35,172" />
<polygon fill="#000000" fill-opacity="0.501961" points="-6,271 -2,217 27,255" />
<polygon fill="#c6d3de" fill-opacity="0.501961" points="7,85 -7,85 3,96" />
<polygon fill="#000506" fill-opacity="0.501961" points="209,203 204,157 231,183" />
<polygon fill="#000000" fill-opacity="0.501961" points="71,224 -16,115 15,213" />
<polygon fill="#dfebf8" fill-opacity="0.501961" points="148,116 135,99 168,113" />
<polygon fill="#deeaff" fill-opacity="0.501961" points="35,239 24,225 31,243" />
<polygon fill="#ffffff" fill-opacity="0.501961" points="77,132 69,120 73,120" />
<polygon fill="#394e61" fill-opacity="0.501961" points="28,58 7,36 34,45" />
<polygon fill="#6f7680" fill-opacity="0.501961" points="184,222 203,182 195,135" />
<polygon fill="#000007" fill-opacity="0.501961" points="12,47 4,68 -16,68" />
<polygon fill="#d2ddf8" fill-opacity="0.501961" points="116,177 121,176 119,163" />
<polygon fill="#cad5dc" fill-opacity="0.501961" points="60,54 90,43 95,55" />
<polygon fill="#ffffff" fill-opacity="0.501961" points="67,74 62,61 67,65" />
<polygon fill="#7e89a1" fill-opacity="0.501961" points="145,120 134,143 141,103" />
<polygon fill="#000027" fill-opacity="0.501961" points="1,20 6,30 9,28" />
<polygon fill="#949fae" fill-opacity="0.501961" points="60,148 70,160 64,141" />
<polygon fill="#141916" fill-opacity="0.501961" points="161,237 152,165 171,205" />
<polygon fill="#000b21" fill-opacity="0.501961" points="11,23 31,39 7,-1" />
<polygon fill="#c0c8ec" fill-opacity="0.501961" points="182,112 178,106 171,117" />
<polygon fill="#636c74" fill-opacity="0.501961" points="167,226 170,206 187,247" />
<polygon fill="#88959b" fill-opacity="0.501961" points="69,39 25,27 42,39" />
<polygon fill="#515b6a" fill-opacity="0.501961" points="64,106 74,146 45,106" />
<polygon fill="#000000" fill-opacity="0.501961" points="114,85 129,88 115,96" />
</g>
</svg>