<svg xmlns="http://www.w3.org/2000/svg" version="1.1" width="1024" height="1024">
<rect x="0" y="0" width="1024" height="1024" fill="#0767cc" />
<g transform="scale(4.000000) translate(0.5 0.5)">
<polygon fill="#00006e" fill-opacity="0.501961" points="163,255 211,162 230,262" />
<polygon fill="#52ffff" fill-opacity="0.501961" points="96,221 128,271 167,242" />
<polygon fill="#00087e" fill-opacity="0.501961" points="86,232 -16,221 7,166" />
<polygon fill="#09b0ff" fill-opacity="0.501961" points="181,177 187,79 94,-16" />
<polygon fill="#0dccff" fill-opacity="0.501961" points="-16,34 97,26 50,62" />
<polygon fill="#1fd3ff" fill-opacity="0.501961" points="271,189 195,160 240,211" />
<polygon fill="#40ffff" fill-opacity="0.501961" points="184,172 177,226 160,201" />
<polygon fill="#001991" fill-opacity="0.501961" points="132,192 198,138 136,238" />
<polygon fill="#33e1ff" fill-opacity="0.501961" points="33,207 64,181 26,237" />
<polygon fill="#59ffff" fill-opacity="0.501961" points="27,70 57,78 62,104" />
<polygon fill="#001e9f" fill-opacity="0.501961" points="160,63 103,143 146,142" />
<polygon fill="#0031af" fill-opacity="0.501961" points="-16,123 89,176 12,36" />
<polygon fill="#87ffff" fill-opacity="0.501961" points="236,249 240,229 220,232" />
<polygon fill="#04a8ff" fill-opacity="0.501961" points="152,113 191,116 103,226" />
<polygon fill="#20f6ff" fill-opacity="0.501961" points="228,26 233,-16 203,39" />
<polygon fill="#00004c" fill-opacity="0.501961" points="197,146 178,159 219,165" />
<polygon fill="#000063" fill-opacity="0.501961" points="215,32 246,51 243,21" />
<polygon fill="#31f7ff" fill-opacity="0.501961" points="-10,176 12,133 16,164" />
<polygon fill="#a9ffff" fill-opacity="0.501961" points="138,270 156,233 132,241" />
<polygon fill="#002ca4" fill-opacity="0.501961" points="103,84 111,37 31,68" />
<polygon fill="#13b9ff" fill-opacity="0.501961" points="244,81 184,76 237,109" />
<polygon fill="#ffffff" fill-opacity="0.501961" points="54,192 72,168 66,183" />
<polygon fill="#032b95" fill-opacity="0.501961" points="271,217 255,72 233,139" />
<polygon fill="#00005a" fill-opacity="0.501961" points="212,271 271,254 171,231" />
<polygon fill="#00005c" fill-opacity="0.501961" points="271,259 264,204 237,218" />
<polygon fill="#001c8f" fill-opacity="0.501961" points="22,237 -16,267 24,132" />
<polygon fill="#018dff" fill-opacity="0.501961" points="184,234 202,194 206,236" />
<polygon fill="#001888" fill-opacity="0.501961" points="42,-9 45,28 5,23" />
<polygon fill="#15aaf9" fill-opacity="0.501961" points="96,146 119,99 56,122" />
<polygon fill="#000483" fill-opacity="0.501961" points="233,112 199,90 191,111" />
<polygon fill="#0081fb" fill-opacity="0.501961" points="108,181 77,236 155,222" />
<polygon fill="#afffff" fill-opacity="0.501961" points="29,246 42,247 43,237" />
<polygon fill="#43ffff" fill-opacity="0.501961" points="54,102 43,106 39,124" />
<polygon fill="#001189" fill-opacity="0.501961" points="42,156 14,160 56,192" />
<polygon fill="#00004d" fill-opacity="0.501961" points="171,219 135,228 147,235" />
<polygon fill="#000384" fill-opacity="0.501961" points="137,159 101,154 70,174" />
<polygon fill="#39f5ff" fill-opacity="0.501961" points="215,159 225,202 236,176" />
<polygon fill="#12b3f9" fill-opacity="0.501961" points="145,48 115,105 186,58" />
<polygon fill="#109ef3" fill-opacity="0.501961" points="109,51 180,13 114,80" />
<polygon fill="#0ac0ff" fill-opacity="0.501961" points="191,174 162,187 183,224" />
<polygon fill="#028fef" fill-opacity="0.501961" points="150,19 115,-16 -16,52" />
<polygon fill="#0032a7" fill-opacity="0.501961" points="239,54 179,32 129,51" />
<polygon fill="#000d7d" fill-opacity="0.501961" points="233,205 220,230 192,175" />
<polygon fill="#000f83" fill-opacity="0.501961" points="0,92 -16,49 27,49" />
<polygon fill="#46e7ff" fill-opacity="0.501961" points="240,242 225,266 230,214" />
<polygon fill="#000055" fill-opacity="0.501961" points="73,232 48,205 37,225" />
<polygon fill="#15cbff" fill-opacity="0.501961" points="31,61 80,51 76,16" />
<polygon fill="#015acb" fill-opacity="0.501961" points="108,116 153,73 165,129" />
<polygon fill="#1af2ff" fill-opacity="0.501961" points="107,91 116,74 85,94" />
<polygon fill="#10c7ff" fill-opacity="0.501961" points="113,145 154,144 187,169" />
<polygon fill="#009cff" fill-opacity="0.501961" points="255,6 271,57 232,85" />
<polygon fill="#000173" fill-opacity="0.501961" points="146,139 108,142 124,119" />
<polygon fill="#44ffff" fill-opacity="0.501961" points="187,5 179,-16 202,2" />
<polygon fill="#00068f" fill-opacity="0.501961" points="86,197 92,217 59,193" />
<polygon fill="#ffffff" fill-opacity="0.501961" points="169,225 169,217 176,218" />
<polygon fill="#0025a1" fill-opacity="0.501961" points="148,161 171,157 152,231" />
<polygon fill="#0fa4f8" fill-opacity="0.501961" points="209,70 220,43 237,123" />
<polygon fill="#00005b" fill-opacity="0.501961" points="198,6 229,-3 215,8" />
<polygon fill="#00118c" fill-opacity="0.501961" points="67,250 103,241 109,254" />
<polygon fill="#0fa1f9" fill-opacity="0.501961" points="148,31 195,12 216,36" />
<polygon fill="#00005a" fill-opacity="0.501961" points="134,73 107,85 127,68" />
<polygon fill="#08b5ff" fill-opacity="0.501961" points="99,166 155,183 141,165" />
<polygon fill="#002da6" fill-opacity="0.501961" points="164,225 119,203 174,212" />
<polygon fill="#40e6ff" fill-opacity="0.501961" points="235,117 229,131 250,109" />
<polygon fill="#1ccdff" fill-opacity="0.501961" points="26,204 45,212 13,209" />
<polygon fill="#25c8fb" fill-opacity="0.501961" points="140,98 203,104 168,90" />
<polygon fill="#42edff" fill-opacity="0.501961" points="50,83 29,80 56,65" />
<polygon fill="#a5ffff" fill-opacity="0.501961" points="157,203 165,197 180,204" />
<polygon fill="#0040c1" fill-opacity="0.501961" points="35,148 39,210 99,124" />
<polygon fill="#b2ffff" fill-opacity="0.501961" points="164,24 154,27 155,34" />
<polygon fill="#027ff0" fill-opacity="0.501961" points="37,74 37,33 -16,5" />
<polygon fill="#00b2ff" fill-opacity="0.501961" points="140,233 104,234 123,271" />
<polygon fill="#00005d" fill-opacity="0.501961" points="132,199 158,198 147,182" />
<polygon fill="#0038ae" fill-opacity="0.501961" points="2,132 31,80 56,89" />
<polygon fill="#000058" fill-opacity="0.501961" points="59,64 78,57 57,54" />
<polygon fill="#000084" fill-opacity="0.501961" points="58,190 70,178 86,184" />
<polygon fill="#b5ffff" fill-opacity="0.501961" points="68,179 77,166 59,181" />
<polygon fill="#0fa0f2" fill-opacity="0.501961" points="25,127 -7,110 37,120" />
<polygon fill="#004dd0" fill-opacity="0.501961" points="216,169 147,136 203,185" />
<polygon fill="#0035ac" fill-opacity="0.501961" points="127,31 81,29 81,46" />
<polygon fill="#73ffff" fill-opacity="0.501961" points="14,159 -4,160 17,149" />
<polygon fill="#2ef2ff" fill-opacity="0.501961" points="143,49 159,50 146,65" />
<polygon fill="#001795" fill-opacity="0.501961" points="138,40 169,14 155,13" />
<polygon fill="#45e8ff" fill-opacity="0.501961" points="68,101 57,102 55,77" />
<polygon fill="#00269e" fill-opacity="0.501961" points="55,118 81,104 69,89" />
<polygon fill="#010042" fill-opacity="0.501961" points="20,212 -14,234 -16,203" />
<polygon fill="#90ffff" fill-opacity="0.501961" points="55,199 49,195 65,178" />
<polygon fill="#000686" fill-opacity="0.501961" points="213,69 184,62 195,73" />
<polygon fill="#00003c" fill-opacity="0.501961" points="12,237 -16,257 11,248" />
<polygon fill="#00b1ff" fill-opacity="0.501961" points="77,165 96,141 109,148" />
<polygon fill="#00001b" fill-opacity="0.501961" points="227,57 235,54 222,49" />
<polygon fill="#000061" fill-opacity="0.501961" points="217,162 186,143 184,157" />
<polygon fill="#03abff" fill-opacity="0.501961" points="4,225 -9,232 21,233" />
<polygon fill="#09b7ff" fill-opacity="0.501961" points="111,65 126,24 152,17" />
<polygon fill="#000079" fill-opacity="0.501961" points="112,64 112,74 89,86" />
<polygon fill="#00065f" fill-opacity="0.501961" points="26,-3 30,16 48,13" />
<polygon fill="#17daff" fill-opacity="0.501961" points="158,9 173,12 171,-3" />
<polygon fill="#006ee4" fill-opacity="0.501961" points="182,86 261,110 189,65" />
<polygon fill="#108ce7" fill-opacity="0.501961" points="73,104 46,141 126,116" />
<polygon fill="#017dfc" fill-opacity="0.501961" points="42,271 42,224 71,241" />
</g>
</svg>