<svg xmlns="http://www.w3.org/2000/svg" version="1.1" width="1024" height="1024">
<rect x="0" y="0" width="1024" height="1024" fill="#949b9f" />
<g transform="scale(4.000000) translate(0.5 0.5)">
<polygon fill="#1f0000" fill-opacity="0.501961" points="-16,192 7,271 271,246" />
<polygon fill="#e4fbff" fill-opacity="0.501961" points="70,60 271,165 253,-16" />
<polygon fill="#562d0f" fill-opacity="0.501961" points="236,192 271,271 56,238" />
<polygon fill="#c0d3de" fill-opacity="0.501961" points="138,231 207,70 43,98" />
<polygon fill="#312304" fill-opacity="0.501961" points="34,246 -16,225 3,106" />
<polygon fill="#b8c6b8" fill-opacity="0.501961" points="44,250 32,188 74,266" />
<polygon fill="#999181" fill-opacity="0.501961" points="-8,196 -2,151 139,224" />
<polygon fill="#342100" fill-opacity="0.501961" points="83,208 -16,227 200,259" />
<polygon fill="#97a1a6" fill-opacity="0.501961" points="271,122 239,222 87,111" />
<polygon fill="#8a3217" fill-opacity="0.501961" points="178,243 198,187 132,227" />
<polygon fill="#bcd8e6" fill-opacity="0.501961" points="235,254 240,240 208,234" />
<polygon fill="#708ca5" fill-opacity="0.501961" points="-16,4 148,-16 18,124" />
<polygon fill="#000000" fill-opacity="0.501961" points="150,243 195,236 201,271" />
<polygon fill="#000000" fill-opacity="0.501961" points="-12,101 -1,155 14,134" />
<polygon fill="#99b2c8" fill-opacity="0.501961" points="96,-16 63,68 267,-16" />
<polygon fill="#b7cedd" fill-opacity="0.501961" points="82,118 188,193 128,224" />
<polygon fill="#aebcc4" fill-opacity="0.501961" points="56,230 33,195 49,251" />
<polygon fill="#7c7c7e" fill-opacity="0.501961" points="180,182 266,194 202,259" />
<polygon fill="#5f5949" fill-opacity="0.501961" points="189,150 161,126 126,122" />
<polygon fill="#bfd0e1" fill-opacity="0.501961" points="127,50 271,-9 251,176" />
<polygon fill="#170100" fill-opacity="0.501961" points="34,207 35,242 -16,207" />
<polygon fill="#000000" fill-opacity="0.501961" points="26,132 31,142 18,140" />
<polygon fill="#7f8784" fill-opacity="0.501961" points="136,140 56,114 95,103" />
<polygon fill="#bbbfb9" fill-opacity="0.501961" points="143,226 69,178 79,211" />
<polygon fill="#433d2f" fill-opacity="0.501961" points="182,177 158,168 196,201" />
<polygon fill="#d5e6ee" fill-opacity="0.501961" points="108,96 17,125 68,91" />
<polygon fill="#ebf1f6" fill-opacity="0.501961" points="85,63 140,54 156,96" />
<polygon fill="#837866" fill-opacity="0.501961" points="32,206 33,170 117,216" />
<polygon fill="#412119" fill-opacity="0.501961" points="240,243 259,271 260,212" />
<polygon fill="#bcd0e0" fill-opacity="0.501961" points="8,97 -16,83 21,142" />
<polygon fill="#bdc6ca" fill-opacity="0.501961" points="175,166 213,210 218,194" />
<polygon fill="#cbdce3" fill-opacity="0.501961" points="163,169 48,132 114,129" />
<polygon fill="#6a6453" fill-opacity="0.501961" points="157,161 139,135 114,130" />
<polygon fill="#7a662f" fill-opacity="0.501961" points="96,268 157,254 47,237" />
<polygon fill="#2c1100" fill-opacity="0.501961" points="112,222 46,208 56,227" />
<polygon fill="#acb7c3" fill-opacity="0.501961" points="2,173 -4,194 23,192" />
<polygon fill="#777e7f" fill-opacity="0.501961" points="79,67 14,106 -13,57" />
<polygon fill="#7b6426" fill-opacity="0.501961" points="21,271 -16,231 52,244" />
<polygon fill="#a6b2b9" fill-opacity="0.501961" points="184,106 97,75 142,147" />
<polygon fill="#ddfaff" fill-opacity="0.501961" points="199,271 208,250 198,251" />
<polygon fill="#acb9c0" fill-opacity="0.501961" points="-10,157 59,173 52,154" />
<polygon fill="#592e21" fill-opacity="0.501961" points="209,201 217,244 201,215" />
<polygon fill="#666255" fill-opacity="0.501961" points="213,173 190,145 173,145" />
<polygon fill="#83452b" fill-opacity="0.501961" points="141,222 187,198 152,256" />
<polygon fill="#c8d3d6" fill-opacity="0.501961" points="69,251 75,271 40,235" />
<polygon fill="#898c81" fill-opacity="0.501961" points="22,242 49,227 72,231" />
<polygon fill="#000001" fill-opacity="0.501961" points="169,238 202,241 145,271" />
<polygon fill="#bed0de" fill-opacity="0.501961" points="20,187 27,179 38,212" />
<polygon fill="#500c00" fill-opacity="0.501961" points="247,178 271,188 267,167" />
<polygon fill="#c1d4de" fill-opacity="0.501961" points="239,216 256,220 231,200" />
<polygon fill="#a3b8c7" fill-opacity="0.501961" points="271,72 196,124 253,175" />
<polygon fill="#aeaa9c" fill-opacity="0.501961" points="127,262 95,248 139,254" />
<polygon fill="#9fb0bd" fill-opacity="0.501961" points="77,200 180,147 158,204" />
<polygon fill="#e4eef2" fill-opacity="0.501961" points="105,91 110,110 71,91" />
<polygon fill="#b5c3cb" fill-opacity="0.501961" points="217,177 219,159 271,195" />
<polygon fill="#a4b8c3" fill-opacity="0.501961" points="9,128 51,98 75,140" />
<polygon fill="#421e00" fill-opacity="0.501961" points="92,223 63,245 50,239" />
<polygon fill="#606156" fill-opacity="0.501961" points="125,123 136,118 160,133" />
<polygon fill="#4e372b" fill-opacity="0.501961" points="167,146 156,139 152,144" />
<polygon fill="#b1c3d4" fill-opacity="0.501961" points="109,38 271,18 222,-16" />
<polygon fill="#bdb7be" fill-opacity="0.501961" points="199,237 188,215 187,227" />
<polygon fill="#271600" fill-opacity="0.501961" points="10,205 48,230 -15,236" />
<polygon fill="#d6e0e5" fill-opacity="0.501961" points="227,63 115,103 214,95" />
<polygon fill="#c8e0eb" fill-opacity="0.501961" points="168,183 180,185 188,202" />
<polygon fill="#43312b" fill-opacity="0.501961" points="240,210 241,201 256,210" />
<polygon fill="#402600" fill-opacity="0.501961" points="128,223 44,208 135,253" />
<polygon fill="#798182" fill-opacity="0.501961" points="34,131 62,125 73,107" />
<polygon fill="#52534a" fill-opacity="0.501961" points="24,155 35,163 49,164" />
<polygon fill="#7d6942" fill-opacity="0.501961" points="31,206 14,191 -11,203" />
<polygon fill="#000000" fill-opacity="0.501961" points="29,134 26,144 24,136" />
<polygon fill="#758386" fill-opacity="0.501961" points="115,96 51,73 93,75" />
<polygon fill="#d0e0e4" fill-opacity="0.501961" points="63,229 69,226 66,234" />
<polygon fill="#c9d9e1" fill-opacity="0.501961" points="118,120 140,141 156,139" />
<polygon fill="#c8d2d7" fill-opacity="0.501961" points="73,176 89,196 55,177" />
<polygon fill="#889bad" fill-opacity="0.501961" points="168,-16 96,55 -16,-12" />
<polygon fill="#c6d3db" fill-opacity="0.501961" points="121,86 143,124 160,118" />
<polygon fill="#9aa7b0" fill-opacity="0.501961" points="198,153 199,122 121,83" />
<polygon fill="#000616" fill-opacity="0.501961" points="9,149 10,125 -16,119" />
<polygon fill="#4c4b43" fill-opacity="0.501961" points="21,114 24,127 13,110" />
<polygon fill="#914129" fill-opacity="0.501961" points="199,234 151,236 160,209" />
<polygon fill="#72736b" fill-opacity="0.501961" points="197,140 212,145 193,119" />
<polygon fill="#503028" fill-opacity="0.501961" points="224,220 240,207 228,210" />
<polygon fill="#757e7a" fill-opacity="0.501961" points="83,155 97,186 113,191" />
<polygon fill="#70869d" fill-opacity="0.501961" points="-5,-16 37,30 -2,103" />
<polygon fill="#b7c4c7" fill-opacity="0.501961" points="206,166 164,143 154,154" />
<polygon fill="#36342a" fill-opacity="0.501961" points="11,174 0,166 11,163" />
<polygon fill="#a2aeb3" fill-opacity="0.501961" points="119,135 91,117 122,105" />
<polygon fill="#77736f" fill-opacity="0.501961" points="235,200 202,161 210,192" />
<polygon fill="#b6bfc5" fill-opacity="0.501961" points="123,219 81,158 97,204" />
<polygon fill="#2e0200" fill-opacity="0.501961" points="199,200 209,200 196,204" />
<polygon fill="#bfd2da" fill-opacity="0.501961" points="228,246 232,242 212,237" />
<polygon fill="#878b90" fill-opacity="0.501961" points="235,264 226,250 254,210" />
<polygon fill="#798e7c" fill-opacity="0.501961" points="153,233 156,246 141,226" />
<polygon fill="#cfd9dc" fill-opacity="0.501961" points="39,238 59,246 40,230" />
<polygon fill="#573f36" fill-opacity="0.501961" points="234,247 257,220 254,269" />
<polygon fill="#583a09" fill-opacity="0.501961" points="79,223 149,250 57,243" />
<polygon fill="#3d3213" fill-opacity="0.501961" points="117,220 149,232 153,262" />
<polygon fill="#574036" fill-opacity="0.501961" points="149,145 154,141 153,150" />
<polygon fill="#484031" fill-opacity="0.501961" points="121,206 115,201 114,209" />
<polygon fill="#b4c6d0" fill-opacity="0.501961" points="30,148 88,125 54,124" />
</g>
</svg>