<svg xmlns="http://www.w3.org/2000/svg" version="1.1" width="1024" height="1024">
<rect x="0" y="0" width="1024" height="1024" fill="#72756b" />
<g transform="scale(4.000000) translate(0.5 0.5)">
<polygon fill="#d5fbff" fill-opacity="0.501961" points="132,115 271,255 -16,254" />
<polygon fill="#221100" fill-opacity="0.501961" points="271,3 1,170 -1,-16" />
<polygon fill="#433008" fill-opacity="0.501961" points="-16,-15 271,-16 271,177" />
<polygon fill="#a6caeb" fill-opacity="0.501961" points="-16,186 271,174 233,271" />
<polygon fill="#d8ffff" fill-opacity="0.501961" points="-15,166 50,177 -5,263" />
<polygon fill="#a78a3b" fill-opacity="0.501961" points="27,109 196,42 147,144" />
<polygon fill="#001b86" fill-opacity="0.501961" points="186,153 174,213 157,125" />
<polygon fill="#15161a" fill-opacity="0.501961" points="63,145 -1,159 92,192" />
<polygon fill="#469ef5" fill-opacity="0.501961" points="75,149 61,96 32,132" />
<polygon fill="#c9d9da" fill-opacity="0.501961" points="271,249 203,138 183,167" />
<polygon fill="#c0d7ec" fill-opacity="0.501961" points="194,249 13,247 -13,190" />
<polygon fill="#000000" fill-opacity="0.501961" points="53,200 59,167 43,197" />
<polygon fill="#d0e3e7" fill-opacity="0.501961" points="248,159 271,242 229,187" />
<polygon fill="#fff9db" fill-opacity="0.501961" points="159,139 95,142 139,162" />
<polygon fill="#000000" fill-opacity="0.501961" points="57,158 85,199 83,180" />
<polygon fill="#211313" fill-opacity="0.501961" points="225,114 234,176 217,177" />
<polygon fill="#3a301d" fill-opacity="0.501961" points="178,-16 271,4 175,141" />
<polygon fill="#2a2b20" fill-opacity="0.501961" points="-16,175 2,-16 51,120" />
<polygon fill="#423728" fill-opacity="0.501961" points="86,93 100,127 56,179" />
<polygon fill="#053d6d" fill-opacity="0.501961" points="173,143 165,198 186,199" />
<polygon fill="#000042" fill-opacity="0.501961" points="165,149 149,161 158,166" />
<polygon fill="#d0b994" fill-opacity="0.501961" points="234,175 232,119 243,136" />
<polygon fill="#b0c1cb" fill-opacity="0.501961" points="33,220 49,185 39,138" />
<polygon fill="#be9548" fill-opacity="0.501961" points="156,139 155,79 104,140" />
<polygon fill="#cdf1ff" fill-opacity="0.501961" points="56,193 75,187 62,172" />
<polygon fill="#91b0c6" fill-opacity="0.501961" points="214,185 271,238 52,240" />
<polygon fill="#a18d63" fill-opacity="0.501961" points="187,151 222,177 215,92" />
<polygon fill="#33261f" fill-opacity="0.501961" points="239,176 271,85 251,-12" />
<polygon fill="#338ce7" fill-opacity="0.501961" points="48,144 70,107 63,152" />
<polygon fill="#5f4c2c" fill-opacity="0.501961" points="35,110 141,68 64,9" />
<polygon fill="#e0e7d8" fill-opacity="0.501961" points="188,147 210,142 171,138" />
<polygon fill="#55461c" fill-opacity="0.501961" points="168,123 198,28 200,146" />
<polygon fill="#e3c07e" fill-opacity="0.501961" points="115,118 99,132 100,88" />
<polygon fill="#fffff0" fill-opacity="0.501961" points="162,247 91,249 126,238" />
<polygon fill="#bfb7a7" fill-opacity="0.501961" points="72,157 97,198 161,152" />
<polygon fill="#bd9b3f" fill-opacity="0.501961" points="72,68 73,123 84,81" />
<polygon fill="#90b4d1" fill-opacity="0.501961" points="-1,236 94,239 10,176" />
<polygon fill="#6689b2" fill-opacity="0.501961" points="271,245 144,252 224,271" />
<polygon fill="#fffad6" fill-opacity="0.501961" points="212,248 174,244 229,235" />
<polygon fill="#403522" fill-opacity="0.501961" points="64,26 73,117 -3,27" />
<polygon fill="#175dc3" fill-opacity="0.501961" points="167,128 158,154 190,151" />
<polygon fill="#fffff2" fill-opacity="0.501961" points="264,191 223,179 217,191" />
<polygon fill="#494936" fill-opacity="0.501961" points="137,140 149,130 138,87" />
<polygon fill="#0f1014" fill-opacity="0.501961" points="251,142 262,172 251,180" />
<polygon fill="#ffffe8" fill-opacity="0.501961" points="196,172 207,165 182,164" />
<polygon fill="#fff7db" fill-opacity="0.501961" points="14,250 -16,235 58,243" />
<polygon fill="#806e27" fill-opacity="0.501961" points="119,132 101,62 141,77" />
<polygon fill="#ccd0c1" fill-opacity="0.501961" points="163,181 124,193 172,151" />
<polygon fill="#a6c0b2" fill-opacity="0.501961" points="73,146 61,126 77,113" />
<polygon fill="#ffd24f" fill-opacity="0.501961" points="136,101 122,123 137,144" />
<polygon fill="#ffc769" fill-opacity="0.501961" points="173,112 161,121 160,103" />
<polygon fill="#f1cb4e" fill-opacity="0.501961" points="88,108 95,94 91,122" />
<polygon fill="#281f1a" fill-opacity="0.501961" points="43,168 59,177 46,133" />
<polygon fill="#e0d4be" fill-opacity="0.501961" points="87,139 121,154 92,159" />
<polygon fill="#332f2c" fill-opacity="0.501961" points="35,75 37,173 5,168" />
<polygon fill="#aac9d8" fill-opacity="0.501961" points="122,174 14,223 222,229" />
<polygon fill="#32230c" fill-opacity="0.501961" points="79,195 71,199 90,197" />
<polygon fill="#6395d8" fill-opacity="0.501961" points="33,130 30,121 57,131" />
<polygon fill="#729bd0" fill-opacity="0.501961" points="-16,247 51,271 128,252" />
<polygon fill="#fdf8e5" fill-opacity="0.501961" points="45,250 58,237 102,246" />
<polygon fill="#505924" fill-opacity="0.501961" points="153,199 185,196 180,188" />
<polygon fill="#f0e8a1" fill-opacity="0.501961" points="169,75 163,60 161,70" />
<polygon fill="#353230" fill-opacity="0.501961" points="209,156 215,140 215,172" />
<polygon fill="#2e2a2e" fill-opacity="0.501961" points="233,96 217,54 220,146" />
<polygon fill="#423a32" fill-opacity="0.501961" points="77,117 99,150 77,84" />
<polygon fill="#ffdb76" fill-opacity="0.501961" points="215,144 221,145 216,123" />
<polygon fill="#c1dbea" fill-opacity="0.501961" points="-16,167 47,177 16,195" />
<polygon fill="#dedfb2" fill-opacity="0.501961" points="36,144 42,140 39,157" />
<polygon fill="#fff6d7" fill-opacity="0.501961" points="-14,203 10,220 41,222" />
<polygon fill="#fffbdb" fill-opacity="0.501961" points="175,250 148,242 205,240" />
<polygon fill="#d0d4c6" fill-opacity="0.501961" points="210,142 199,141 213,175" />
<polygon fill="#bfddea" fill-opacity="0.501961" points="104,184 172,193 164,175" />
<polygon fill="#8ba4b9" fill-opacity="0.501961" points="271,178 271,238 203,239" />
<polygon fill="#1e1a1a" fill-opacity="0.501961" points="86,152 78,120 74,155" />
<polygon fill="#3463ae" fill-opacity="0.501961" points="60,114 49,156 66,149" />
<polygon fill="#876c44" fill-opacity="0.501961" points="51,119 38,125 40,84" />
<polygon fill="#866a46" fill-opacity="0.501961" points="229,116 243,159 242,102" />
<polygon fill="#1e1b1e" fill-opacity="0.501961" points="57,193 45,199 56,163" />
<polygon fill="#715c32" fill-opacity="0.501961" points="197,103 220,75 196,150" />
<polygon fill="#7cefff" fill-opacity="0.501961" points="67,115 68,140 60,119" />
<polygon fill="#56522a" fill-opacity="0.501961" points="166,19 132,18 118,117" />
<polygon fill="#1a1825" fill-opacity="0.501961" points="98,101 97,122 92,100" />
<polygon fill="#a46b35" fill-opacity="0.501961" points="18,37 11,27 18,8" />
<polygon fill="#7da5c6" fill-opacity="0.501961" points="-16,193 29,213 81,198" />
<polygon fill="#212721" fill-opacity="0.501961" points="-11,4 94,-16 124,14" />
<polygon fill="#c8a439" fill-opacity="0.501961" points="127,74 112,68 109,88" />
<polygon fill="#a3a299" fill-opacity="0.501961" points="143,155 165,177 73,166" />
<polygon fill="#87d1f7" fill-opacity="0.501961" points="60,116 62,102 49,109" />
<polygon fill="#f3e1be" fill-opacity="0.501961" points="149,122 146,158 158,144" />
<polygon fill="#fbf9e4" fill-opacity="0.501961" points="184,140 190,140 190,155" />
<polygon fill="#2e2e28" fill-opacity="0.501961" points="271,51 271,-14 135,-8" />
<polygon fill="#91afc4" fill-opacity="0.501961" points="107,227 56,243 161,240" />
<polygon fill="#181113" fill-opacity="0.501961" points="95,146 93,132 99,118" />
<polygon fill="#3e3a28" fill-opacity="0.501961" points="108,18 56,71 183,56" />
<polygon fill="#1a1914" fill-opacity="0.501961" points="74,185 90,187 62,158" />
<polygon fill="#c3d2d3" fill-opacity="0.501961" points="48,187 48,170 0,184" />
<polygon fill="#131a17" fill-opacity="0.501961" points="71,146 54,158 49,193" />
<polygon fill="#3b3f41" fill-opacity="0.501961" points="119,137 117,125 126,127" />
<polygon fill="#003e9f" fill-opacity="0.501961" points="165,175 183,144 177,184" />
<polygon fill="#dad0b2" fill-opacity="0.501961" points="130,182 145,164 83,174" />
</g>
</svg>