<svg xmlns="http://www.w3.org/2000/svg" version="1.1" width="1024" height="1024">
<rect x="0" y="0" width="1024" height="1024" fill="#7d704c" />
<g transform="scale(4.000000) translate(0.5 0.5)">
<polygon fill="#fff651" fill-opacity="0.501961" points="122,54 83,180 271,186" />
<polygon fill="#00000f" fill-opacity="0.501961" points="264,185 271,256 -2,229" />
<polygon fill="#000e34" fill-opacity="0.501961" points="20,89 260,39 -16,23" />
<polygon fill="#fffb58" fill-opacity="0.501961" points="124,134 37,214 103,213" />
<polygon fill="#ffe864" fill-opacity="0.501961" points="147,108 75,71 271,75" />
<polygon fill="#000000" fill-opacity="0.501961" points="118,166 154,173 94,245" />
<polygon fill="#ffd252" fill-opacity="0.501961" points="131,128 271,127 163,204" />
<polygon fill="#070001" fill-opacity="0.501961" points="187,200 164,154 187,161" />
<polygon fill="#110944" fill-opacity="0.501961" points="154,120 109,133 116,88" />
<polygon fill="#050000" fill-opacity="0.501961" points="91,110 39,179 88,172" />
<polygon fill="#aa9eae" fill-opacity="0.501961" points="132,-16 7,26 271,17" />
<polygon fill="#d2bcbc" fill-opacity="0.501961" points="271,152 203,67 266,65" />
<polygon fill="#00000b" fill-opacity="0.501961" points="-16,211 -16,252 69,215" />
<polygon fill="#000000" fill-opacity="0.501961" points="253,241 271,206 144,210" />
<polygon fill="#ffed57" fill-opacity="0.501961" points="46,126 -16,157 14,173" />
<polygon fill="#afbcc9" fill-opacity="0.501961" points="115,212 129,229 151,196" />
<polygon fill="#ffec68" fill-opacity="0.501961" points="94,176 170,93 205,144" />
<polygon fill="#224d9b" fill-opacity="0.501961" points="271,191 193,205 168,182" />
<polygon fill="#8f7f79" fill-opacity="0.501961" points="144,243 271,241 241,271" />
<polygon fill="#161426" fill-opacity="0.501961" points="196,128 214,97 176,97" />
<polygon fill="#000004" fill-opacity="0.501961" points="176,241 84,239 216,196" />
<polygon fill="#000003" fill-opacity="0.501961" points="150,173 166,216 125,165" />
<polygon fill="#8a7e7e" fill-opacity="0.501961" points="7,-16 190,25 -16,34" />
<polygon fill="#0b203e" fill-opacity="0.501961" points="107,38 42,108 38,39" />
<polygon fill="#000002" fill-opacity="0.501961" points="-16,162 13,175 -10,233" />
<polygon fill="#ffdf5a" fill-opacity="0.501961" points="148,140 94,124 91,198" />
<polygon fill="#241b00" fill-opacity="0.501961" points="38,144 72,164 42,202" />
<polygon fill="#fffe77" fill-opacity="0.501961" points="169,209 140,158 165,156" />
<polygon fill="#353b4a" fill-opacity="0.501961" points="91,137 46,109 109,83" />
<polygon fill="#ffd03c" fill-opacity="0.501961" points="105,94 234,97 155,70" />
<polygon fill="#3e373a" fill-opacity="0.501961" points="271,53 241,23 123,69" />
<polygon fill="#60545a" fill-opacity="0.501961" points="45,214 -7,271 140,252" />
<polygon fill="#fff559" fill-opacity="0.501961" points="68,81 110,68 128,82" />
<polygon fill="#6f7585" fill-opacity="0.501961" points="-16,33 54,112 6,148" />
<polygon fill="#d3f0ff" fill-opacity="0.501961" points="20,209 -12,198 18,200" />
<polygon fill="#f2bb2f" fill-opacity="0.501961" points="229,125 271,187 182,183" />
<polygon fill="#5d4c45" fill-opacity="0.501961" points="157,130 134,97 108,132" />
<polygon fill="#ab9129" fill-opacity="0.501961" points="36,88 43,218 12,182" />
<polygon fill="#ffe249" fill-opacity="0.501961" points="103,214 34,212 106,192" />
<polygon fill="#9e9391" fill-opacity="0.501961" points="250,30 271,-16 89,3" />
<polygon fill="#c19a51" fill-opacity="0.501961" points="69,159 22,129 70,129" />
<polygon fill="#010304" fill-opacity="0.501961" points="33,238 22,197 5,238" />
<polygon fill="#de9e63" fill-opacity="0.501961" points="61,214 63,174 101,171" />
<polygon fill="#000000" fill-opacity="0.501961" points="126,239 112,216 63,214" />
<polygon fill="#640007" fill-opacity="0.501961" points="166,156 187,159 184,190" />
<polygon fill="#ffe365" fill-opacity="0.501961" points="172,87 203,183 130,86" />
<polygon fill="#132b3d" fill-opacity="0.501961" points="48,79 112,39 133,65" />
<polygon fill="#000000" fill-opacity="0.501961" points="271,247 188,210 269,209" />
<polygon fill="#736765" fill-opacity="0.501961" points="175,230 218,220 223,232" />
<polygon fill="#433329" fill-opacity="0.501961" points="48,201 34,170 71,200" />
<polygon fill="#fff967" fill-opacity="0.501961" points="17,147 12,172 -16,153" />
<polygon fill="#ffee72" fill-opacity="0.501961" points="120,84 107,76 104,126" />
<polygon fill="#ffe466" fill-opacity="0.501961" points="184,182 131,158 162,189" />
<polygon fill="#2f2522" fill-opacity="0.501961" points="110,181 139,226 131,165" />
<polygon fill="#4d4842" fill-opacity="0.501961" points="171,72 270,30 9,23" />
<polygon fill="#bac5d2" fill-opacity="0.501961" points="149,214 131,199 152,199" />
<polygon fill="#91807a" fill-opacity="0.501961" points="225,90 166,70 271,54" />
<polygon fill="#9c8233" fill-opacity="0.501961" points="229,161 271,192 248,126" />
<polygon fill="#ffd954" fill-opacity="0.501961" points="210,185 150,126 228,126" />
<polygon fill="#203353" fill-opacity="0.501961" points="46,46 25,118 16,87" />
<polygon fill="#edf1f4" fill-opacity="0.501961" points="120,203 127,223 119,215" />
<polygon fill="#fff35e" fill-opacity="0.501961" points="162,205 174,207 153,181" />
<polygon fill="#bcb384" fill-opacity="0.501961" points="37,84 40,129 24,134" />
<polygon fill="#ffd44f" fill-opacity="0.501961" points="97,72 57,97 73,77" />
<polygon fill="#99918f" fill-opacity="0.501961" points="-16,19 14,-16 136,5" />
<polygon fill="#20478c" fill-opacity="0.501961" points="175,186 271,186 223,200" />
<polygon fill="#6a8dc5" fill-opacity="0.501961" points="171,187 192,193 166,199" />
<polygon fill="#d0bea1" fill-opacity="0.501961" points="271,80 219,84 261,125" />
<polygon fill="#000000" fill-opacity="0.501961" points="23,194 21,203 16,184" />
<polygon fill="#483920" fill-opacity="0.501961" points="198,210 247,196 166,197" />
<polygon fill="#ffdb56" fill-opacity="0.501961" points="90,143 99,213 126,135" />
<polygon fill="#010000" fill-opacity="0.501961" points="70,171 88,161 71,134" />
<polygon fill="#ffde43" fill-opacity="0.501961" points="45,214 39,201 89,207" />
<polygon fill="#544940" fill-opacity="0.501961" points="86,218 25,238 94,239" />
<polygon fill="#69626d" fill-opacity="0.501961" points="250,128 215,97 194,124" />
<polygon fill="#000000" fill-opacity="0.501961" points="165,207 238,211 140,236" />
<polygon fill="#ffd24f" fill-opacity="0.501961" points="127,167 176,152 84,124" />
<polygon fill="#3e567e" fill-opacity="0.501961" points="-14,221 12,182 7,228" />
<polygon fill="#595957" fill-opacity="0.501961" points="121,232 156,196 145,226" />
<polygon fill="#5d4f32" fill-opacity="0.501961" points="16,154 31,129 28,151" />
<polygon fill="#000007" fill-opacity="0.501961" points="13,194 10,172 -16,166" />
<polygon fill="#ab9789" fill-opacity="0.501961" points="204,120 234,122 209,103" />
<polygon fill="#6b7164" fill-opacity="0.501961" points="110,83 72,84 38,116" />
<polygon fill="#130c0f" fill-opacity="0.501961" points="152,181 107,190 135,168" />
<polygon fill="#594e1c" fill-opacity="0.501961" points="247,158 223,160 249,166" />
<polygon fill="#b58e63" fill-opacity="0.501961" points="91,201 91,167 56,202" />
<polygon fill="#a68368" fill-opacity="0.501961" points="101,138 99,115 90,147" />
<polygon fill="#a28117" fill-opacity="0.501961" points="41,212 26,213 18,160" />
<polygon fill="#3f000c" fill-opacity="0.501961" points="192,174 180,180 179,157" />
<polygon fill="#12110f" fill-opacity="0.501961" points="36,163 68,152 39,152" />
<polygon fill="#4069a6" fill-opacity="0.501961" points="252,198 271,185 216,195" />
<polygon fill="#000000" fill-opacity="0.501961" points="27,214 43,215 12,238" />
<polygon fill="#3f4f6b" fill-opacity="0.501961" points="144,108 115,111 128,95" />
<polygon fill="#444649" fill-opacity="0.501961" points="110,82 99,121 52,126" />
<polygon fill="#ffda5f" fill-opacity="0.501961" points="96,74 146,75 165,119" />
<polygon fill="#6f6463" fill-opacity="0.501961" points="-16,267 101,254 -13,235" />
<polygon fill="#ffe47d" fill-opacity="0.501961" points="144,140 167,113 197,156" />
<polygon fill="#000305" fill-opacity="0.501961" points="95,217 92,238 160,240" />
<polygon fill="#4d3319" fill-opacity="0.501961" points="111,117 112,132 136,131" />
<polygon fill="#7b6e69" fill-opacity="0.501961" points="159,27 271,32 233,7" />
</g>
</svg>