<svg xmlns="http://www.w3.org/2000/svg" viewBox="0 0 500 500"><filter id="c"><feGaussianBlur stdDeviation="55" /></filter><path fill="#6a5b3f" d="M0 0h500v500H0z"/><g filter='url(#c)' fill-opacity='.5'><ellipse fill="#bba37c" fill-opacity=".5" rx="1" ry="1" transform="rotate(95.7 -2 234.5) scale(248.36615 96.11993)"/><path fill="#26201a" fill-opacity=".5" d="M522.5 503l2-447.3-248.1 474.6z"/><path fill="#fcc3ac" fill-opacity=".5" d="M186.5 272.5H417v39H186.5z"/><path fill="#faffff" fill-opacity=".5" d="M247.4-18.8L188 183.9l-16.8-54.8L242-30.3z"/><ellipse fill="#2d260d" fill-opacity=".5" rx="1" ry="1" transform="matrix(-53.93734 -60.00035 300.66719 -270.28488 111.5 1)"/><ellipse fill="#363110" fill-opacity=".5" rx="1" ry="1" transform="matrix(14.89493 201.08001 -102.17452 7.56854 9.8 390)"/><ellipse fill="#261c0d" fill-opacity=".5" rx="1" ry="1" transform="rotate(-88.8 259.7 -214.5) scale(120.59469 47.71221)"/><ellipse fill="#3c301a" fill-opacity=".5" rx="1" ry="1" transform="rotate(124.6 118 88.7) scale(80.34304 24.73256)"/></g></svg>