<svg xmlns="http://www.w3.org/2000/svg" viewBox="0 0 500 500"><filter id="b"><feGaussianBlur stdDeviation="12" /></filter><path fill="#949b9f" d="M0 0h500v500H0z"/><g filter="url(#b)" transform="translate(1 1) scale(1.95313)" fill-opacity=".5"><ellipse fill="#2c0000" rx="1" ry="1" transform="rotate(-175.1 76.4 119.3) scale(255 31.44661)"/><ellipse fill="#d1e5f2" rx="1" ry="1" transform="matrix(-118.82008 57.55169 -34.18143 -70.5703 186 85.6)"/><ellipse fill="#c2dae6" rx="1" ry="1" transform="matrix(34.72162 1.33387 -.76384 19.88321 125.6 204.2)"/><ellipse fill="#150000" cx="8" cy="218" rx="29" ry="23"/><path d="M-16 173l48.9-45-11.6 20.8-36.6-63.6z"/><path fill="#838480" d="M214 125l32 146-144-157z"/><ellipse fill="#362200" rx="1" ry="1" transform="matrix(-5.70455 18.20179 -81.47197 -25.53382 127.9 244.5)"/><path fill="#784429" d="M89 263l159-43-62-29z"/></g></svg>