<svg xmlns="http://www.w3.org/2000/svg" viewBox="0 0 500 500"><filter id="b"><feGaussianBlur stdDeviation="12" /></filter><path fill="#787e82" d="M0 0h500v500H0z"/><g filter="url(#b)" transform="translate(1 1) scale(1.95313)" fill-opacity=".5"><ellipse fill="#eef2ff" rx="1" ry="1" transform="matrix(9.57043 36.22262 -150.12365 39.66438 115.4 127.8)"/><ellipse fill="#011611" cx="220" cy="190" rx="44" ry="71"/><ellipse fill="#102a2e" rx="1" ry="1" transform="matrix(-68.74374 -14.23614 10.71667 -51.74885 44.4 234)"/><ellipse rx="1" ry="1" transform="matrix(-39.05099 4.28638 -2.03718 -18.5597 193.7 57.2)"/><ellipse fill="#060300" cx="140" cy="104" rx="11" ry="39"/><path fill="#cad4e4" d="M163 80L94 271 253 58z"/><ellipse fill="#ffdaaf" rx="1" ry="1" transform="matrix(24.37278 37.50442 -19.00549 12.35099 215.8 8.3)"/><ellipse fill="#383621" rx="1" ry="1" transform="matrix(-75.23844 -63.11158 17.15278 -20.44868 26.7 11.3)"/></g></svg>