<svg xmlns="http://www.w3.org/2000/svg" viewBox="0 0 500 500"><filter id="b"><feGaussianBlur stdDeviation="12" /></filter><path fill="#956b6b" d="M0 0h500v500H0z"/><g filter="url(#b)" transform="translate(1 1) scale(1.95313)" fill-opacity=".5"><ellipse fill="#ffdfee" rx="1" ry="1" transform="rotate(116.1 99 91.5) scale(55.12087 255.00002)"/><ellipse rx="1" ry="1" transform="rotate(-40.2 327.6 38.2) scale(58.28502 239.1749)"/><ellipse fill="#1c0f00" rx="1" ry="1" transform="matrix(34.01246 32.27662 -175.53042 184.97047 236.3 203.7)"/><ellipse fill="#ffe5ff" cx="33" cy="55" rx="25" ry="57"/><ellipse fill="#c00016" rx="1" ry="1" transform="matrix(-.15828 -22.67152 67.89149 -.47398 152 55.9)"/><path fill="#fff100" d="M119.5 132l53.2 9.3-14.2 80.8-53.2-9.4z"/><ellipse fill="#ffff6e" rx="1" ry="1" transform="matrix(1.14923 13.1358 -22.03173 1.92753 35.6 233.5)"/><ellipse fill="#daf1bf" rx="1" ry="1" transform="matrix(-11.37278 15.09218 -22.93257 -17.28093 211.6 149.7)"/></g></svg>