<svg xmlns="http://www.w3.org/2000/svg" viewBox="0 0 500 500"><filter id="b"><feGaussianBlur stdDeviation="12" /></filter><path fill="#a2c8ec" d="M0 0h500v500H0z"/><g filter="url(#b)" transform="translate(1 1) scale(1.95313)" fill-opacity=".5"><ellipse fill="#4b8fcd" rx="1" ry="1" transform="matrix(-1.80505 31.30518 -254.5772 -14.67883 101.4 211.9)"/><ellipse fill="#def3ff" rx="1" ry="1" transform="matrix(177.97011 30.65188 -10.00677 58.10102 48 65.9)"/><ellipse fill="#89b7e4" cx="201" cy="178" rx="255" ry="23"/><ellipse fill="#b5d3f4" rx="1" ry="1" transform="matrix(-115.59082 41.3875 -16.02612 -44.7592 189.6 92.3)"/><ellipse fill="#d9f1ff" rx="1" ry="1" transform="matrix(-5.20676 30.78424 -67.02064 -11.3357 58.8 61.3)"/><ellipse fill="#d5e2fa" rx="1" ry="1" transform="matrix(-128.15373 -3.13388 .1536 -6.28108 80 253.1)"/><ellipse fill="#6199d2" rx="1" ry="1" transform="matrix(-.0614 11.7275 -52.33904 -.27405 248 0)"/><ellipse fill="#5695cf" cx="209" cy="230" rx="130" ry="10"/></g></svg>