<svg xmlns="http://www.w3.org/2000/svg" viewBox="0 0 500 500"><filter id="b"><feGaussianBlur stdDeviation="12" /></filter><path fill="#8e9a9e" d="M0 0h500v500H0z"/><g filter="url(#b)" transform="translate(1 1) scale(1.95313)" fill-opacity=".5"><ellipse fill="#002540" rx="1" ry="1" transform="matrix(-119.05622 29.2459 -20.70392 -84.28292 168.6 218.5)"/><path fill="#fff" d="M2-16l118 91L-8 271z"/><ellipse fill="#fff" rx="1" ry="1" transform="matrix(-57.2736 37.55868 -47.23136 -72.02356 255 52.2)"/><path fill="#b57c59" d="M88 0h100v163H88z"/><ellipse fill="#fffcfa" rx="1" ry="1" transform="matrix(8.31648 114.61074 -44.32061 3.21603 30.1 69.6)"/><path fill="#035677" d="M175.5 73.3l91.5 92 .8 105.7-79.4-9.4z"/><ellipse fill="#fffcfa" cx="225" cy="38" rx="44" ry="72"/><path fill="#0e0000" d="M77-16l88 12-94 23z"/></g></svg>