<svg xmlns="http://www.w3.org/2000/svg" viewBox="0 0 500 500"><filter id="c"><feGaussianBlur stdDeviation="55" /></filter><path fill="#616a82" d="M0 0h500v500H0z"/><g filter='url(#c)' fill-opacity='.5'><path fill="#001" fill-opacity=".5" d="M530.3 331L-30.3 487.4l521.5 43z"/><path fill="#edffff" fill-opacity=".5" d="M649.2 83.4l-79.1 137L169-11.1l79.2-137z"/><ellipse fill="#fff" fill-opacity=".5" rx="1" ry="1" transform="matrix(54.95332 9.55063 -18.24953 105.00584 1.3 393.8)"/><ellipse fill="#fff" fill-opacity=".5" rx="1" ry="1" transform="matrix(-46.4441 -43.74173 197.84024 -210.0628 51.8 5.7)"/><ellipse fill="#f4cfdc" fill-opacity=".5" rx="1" ry="1" transform="matrix(-60.40795 3.16585 -6.344 -121.05069 269.2 329.5)"/><ellipse fill-opacity=".5" rx="1" ry="1" transform="matrix(6.59917 82.02003 -60.59459 4.87532 102.2 243.8)"/><ellipse fill-opacity=".5" rx="1" ry="1" transform="rotate(133.8 133.6 199) scale(33.19386 139.50028)"/><path fill="#000017" fill-opacity=".5" d="M290 428.7l236.4 101.6-84-271.5z"/></g></svg>