<svg xmlns="http://www.w3.org/2000/svg" viewBox="0 0 500 500"><filter id="b"><feGaussianBlur stdDeviation="12" /></filter><path fill="#72756b" d="M0 0h500v500H0z"/><g filter="url(#b)" transform="translate(1 1) scale(1.95313)" fill-opacity=".5"><ellipse fill="#d0fcff" rx="1" ry="1" transform="rotate(86.5 -70.8 169.1) scale(64.03333 197.35146)"/><path fill="#2d1500" d="M251.4-14.2l2.1 122-255 4.4-2-122z"/><ellipse fill="#131012" rx="1" ry="1" transform="matrix(61.49125 45.83417 -11.79428 15.82324 22.5 143)"/><ellipse fill="#e8cc8b" rx="1" ry="1" transform="rotate(24.4 -243.1 367.2) scale(30.28075 53.10077)"/><ellipse fill="#4e3d19" cx="242" cy="75" rx="80" ry="80"/><ellipse fill="#002e9a" rx="1" ry="1" transform="matrix(5.9376 38.3357 -8.39851 1.3008 172.8 165)"/><ellipse fill="#8a722c" cx="134" cy="98" rx="67" ry="37"/><ellipse fill="#e6eff1" rx="1" ry="1" transform="matrix(-1.47077 -11.9785 37.70018 -4.629 124.2 150.7)"/></g></svg>