<svg xmlns="http://www.w3.org/2000/svg" viewBox="0 0 500 500"><filter id="b"><feGaussianBlur stdDeviation="12" /></filter><path fill="#817961" d="M0 0h500v500H0z"/><g filter="url(#b)" transform="translate(1 1) scale(1.95313)" fill-opacity=".5"><path d="M71-16l131 76-94 162z"/><ellipse fill="#f4fff7" rx="1" ry="1" transform="matrix(-54.1682 -10.1373 35.78139 -191.19614 234.3 115)"/><ellipse fill="#200" rx="1" ry="1" transform="rotate(130.4 25.8 16.7) scale(55.494 163.67182)"/><ellipse fill="#fff" rx="1" ry="1" transform="matrix(3.80868 109.06635 -33.65641 1.1753 231.2 0)"/><ellipse fill="#e4eae3" cx="152" cy="177" rx="21" ry="45"/><ellipse fill="#d6d8bf" rx="1" ry="1" transform="matrix(45.6327 -19.93644 13.84379 31.68718 57 130)"/><ellipse fill="#170000" cx="117" cy="252" rx="17" ry="239"/><ellipse fill="#fff" rx="1" ry="1" transform="matrix(10.8978 18.3426 -11.93794 7.09263 154.1 5.6)"/></g></svg>