<svg xmlns="http://www.w3.org/2000/svg" viewBox="0 0 500 500"><filter id="c"><feGaussianBlur stdDeviation="55" /></filter><path fill="#6f6c6b" d="M0 0h500v500H0z"/><g filter='url(#c)' fill-opacity='.5'><ellipse fill="#fffcf7" fill-opacity=".5" rx="1" ry="1" transform="matrix(68.49852 -84.86467 194.9085 157.3204 245 92)"/><ellipse fill-opacity=".5" rx="1" ry="1" transform="matrix(-47.67241 153.70015 -279.11895 -86.57294 213.7 420.8)"/><ellipse fill="#fcddd7" fill-opacity=".5" rx="1" ry="1" transform="matrix(60.86858 24.3457 -45.99143 114.98679 13.5 157.3)"/><path fill-opacity=".5" d="M163 143.6L53.8 157.2l125 373z"/><ellipse fill="#ec9999" fill-opacity=".5" rx="1" ry="1" transform="matrix(75.13028 41.30322 -22.35017 40.6548 266.3 325.8)"/><ellipse fill="#e8d1cb" fill-opacity=".5" rx="1" ry="1" transform="rotate(19.3 -146.9 1349.8) scale(98.57078 203.00392)"/><ellipse fill="#25160a" fill-opacity=".5" rx="1" ry="1" transform="matrix(16.35558 12.3083 -51.28012 68.1423 233.6 186.7)"/><ellipse fill="#000e0e" fill-opacity=".5" rx="1" ry="1" transform="matrix(-61.25627 -307.81833 13.11522 -2.60995 496.4 413.3)"/></g></svg>