<svg xmlns="http://www.w3.org/2000/svg" viewBox="0 0 500 500"><filter id="b"><feGaussianBlur stdDeviation="12" /></filter><path fill="#5f8c93" d="M0 0h500v500H0z"/><g filter="url(#b)" transform="translate(1 1) scale(1.95313)" fill-opacity=".5"><ellipse fill="#0f0000" rx="1" ry="1" transform="rotate(174.2 92.5 20.6) scale(187.46859 36.44669)"/><ellipse fill="#61f2ff" rx="1" ry="1" transform="matrix(-167.16334 34.00977 -11.15402 -54.82375 90.1 209.7)"/><ellipse fill="#edfbff" cx="177" cy="80" rx="199" ry="11"/><ellipse fill="#020000" rx="1" ry="1" transform="matrix(2.8858 24.28337 -87.841 10.43891 230.8 44.2)"/><path fill="#70a0dd" d="M143.2 51.5L93.6 12.8l25.2-32.3 49.6 38.7z"/><ellipse fill="#674829" cx="227" cy="112" rx="236" ry="15"/><ellipse fill="#4f2b00" rx="1" ry="1" transform="matrix(.51681 -38.28758 18.97073 .25607 242.6 250.5)"/><ellipse fill="#e5be9b" rx="1" ry="1" transform="rotate(177.5 25 69.3) scale(137.28687 10.92159)"/></g></svg>