<svg xmlns="http://www.w3.org/2000/svg" viewBox="0 0 500 500"><filter id="b"><feGaussianBlur stdDeviation="12" /></filter><path fill="#636363" d="M0 0h500v500H0z"/><g filter="url(#b)" transform="translate(1 1) scale(1.95313)" fill-opacity=".5"><ellipse fill="#191919" rx="1" ry="1" transform="matrix(-103.07602 -7.62299 3.82767 -51.75674 143.1 68.8)"/><ellipse fill="#949494" cx="163" cy="197" rx="84" ry="84"/><ellipse fill="#d4d4d4" rx="1" ry="1" transform="rotate(15.1 97.4 734.6) scale(71.98945 23.74245)"/><ellipse fill="#a8a8a8" cx="35" cy="158" rx="45" ry="24"/><ellipse fill="#b0b0b0" rx="1" ry="1" transform="matrix(29.18072 8.22483 -10.53062 37.36142 255 144)"/><ellipse fill="#060606" rx="1" ry="1" transform="matrix(-49.98352 -7.82721 1.77837 -11.35646 254.8 233.2)"/><ellipse fill="#2d2d2d" rx="1" ry="1" transform="matrix(-55.40983 69.16277 -11.5571 -9.25899 37.3 233.9)"/><path fill="#272727" d="M6 144L88 3 56 123z"/></g></svg>