<svg xmlns="http://www.w3.org/2000/svg" viewBox="0 0 500 500"><filter id="b"><feGaussianBlur stdDeviation="12" /></filter><path fill="#74716c" d="M0 0h500v500H0z"/><g filter="url(#b)" transform="translate(1 1) scale(1.95313)" fill-opacity=".5"><ellipse rx="1" ry="1" transform="matrix(42.8444 -2.607 5.36215 88.12375 59 170.6)"/><ellipse fill="#fff3d1" rx="1" ry="1" transform="matrix(-17.23914 43.1386 -134.92779 -53.92013 212.6 88)"/><ellipse fill="#000001" rx="1" ry="1" transform="rotate(49.5 -142.5 178.6) scale(26.60412 76.19783)"/><ellipse rx="1" ry="1" transform="matrix(-15.5029 41.2448 -15.57572 -5.85453 69.8 19.7)"/><ellipse fill="#f1eef5" cx="164" cy="160" rx="29" ry="17"/><ellipse rx="1" ry="1" transform="matrix(1.18543 -29.5147 14.09417 .56608 233 212)"/><ellipse rx="1" ry="1" transform="matrix(15.27725 17.20718 -67.91252 60.29556 27.8 249.4)"/><path fill="#080c13" d="M147 109h49v30h-49z"/></g></svg>