<svg xmlns="http://www.w3.org/2000/svg" viewBox="0 0 500 500"><filter id="b"><feGaussianBlur stdDeviation="12" /></filter><path fill="#bfbfbf" d="M0 0h500v500H0z"/><g filter="url(#b)" transform="translate(1 1) scale(1.95313)" fill-opacity=".5"><ellipse rx="1" ry="1" transform="matrix(-153.19321 -8.56483 1.10777 -19.81384 72.6 173.2)"/><path d="M145 154l21 117 18-161z"/><ellipse fill="#fff" rx="1" ry="1" transform="matrix(-13.43274 -85.7797 230.73799 -36.1326 126.3 45.2)"/><ellipse fill="#070707" cx="37" cy="173" rx="106" ry="19"/><path d="M135.3 246l41.3-30.7-9.4-4.8-33.4 15.2z"/><path fill="#111" d="M28.7 248l-32.1-7.5 4.7-20.4 32.1 7.4z"/><ellipse fill="#f3f3f3" rx="1" ry="1" transform="rotate(64.4 -3.7 250.5) scale(35.08433 43.49974)"/><path fill="#1b1b1b" d="M147.2 179.2l160 5.6-.4 10-160-5.6z"/></g></svg>