<svg xmlns="http://www.w3.org/2000/svg" viewBox="0 0 500 500"><filter id="b"><feGaussianBlur stdDeviation="12" /></filter><path fill="#0d0d0d" d="M0 0h500v500H0z"/><g filter="url(#b)" transform="translate(1 1) scale(1.95313)" fill-opacity=".5"><ellipse fill="#fff" rx="1" ry="1" transform="rotate(83 -11.8 118.1) scale(60.71432 20.03159)"/><ellipse fill="#d8d8d8" rx="1" ry="1" transform="matrix(5.3942 2.10016 -30.5672 78.51074 94.8 218.8)"/><path d="M19-16l85 148L5 271z"/><path fill="#cbcbcb" d="M131.1 69.2l-55.5 3L95.1 113l20.5 74z"/><path fill="#262626" d="M119.6 105.2l-13.5 5.2 6.4-57.8 8-1z"/><path fill="#efefef" d="M125.9 151.7l-4.4-43.2-29 46.4 19.8 17.7z"/><ellipse cx="215" cy="227" rx="113" ry="113"/><ellipse cx="197" cy="60" rx="73" ry="73"/></g></svg>