<svg xmlns="http://www.w3.org/2000/svg" viewBox="0 0 500 500"><filter id="b"><feGaussianBlur stdDeviation="12" /></filter><path fill="#4c4e4d" d="M0 0h500v500H0z"/><g filter="url(#b)" transform="translate(1 1) scale(1.95313)" fill-opacity=".5"><ellipse fill="#cec7bd" rx="1" ry="1" transform="matrix(31.43502 -3.61668 11.7139 101.81347 22.4 162.9)"/><ellipse fill="#d7a997" rx="1" ry="1" transform="matrix(-21.057 -2.1778 9.30977 -90.01542 158.8 211.2)"/><ellipse fill="#200000" cx="227" cy="213" rx="49" ry="49"/><ellipse fill="#008573" rx="1" ry="1" transform="rotate(109.8 98.7 120.8) scale(70.00611 58.13308)"/><ellipse fill="#1f0000" rx="1" ry="1" transform="rotate(94.4 -46.5 153) scale(92.73455 30.68256)"/><ellipse fill="#d98465" rx="1" ry="1" transform="rotate(177.7 67.8 54.3) scale(27.22246 33.38676)"/><ellipse fill="#00102a" rx="1" ry="1" transform="matrix(12.37903 -15.21208 23.53665 19.15325 57.4 183.4)"/><ellipse fill="#0d170b" rx="1" ry="1" transform="rotate(38.2 7.6 200) scale(93.55137 22.63301)"/></g></svg>