<svg xmlns="http://www.w3.org/2000/svg" viewBox="0 0 500 500"><filter id="b"><feGaussianBlur stdDeviation="12" /></filter><path fill="#849586" d="M0 0h500v500H0z"/><g filter="url(#b)" transform="translate(1 1) scale(1.95313)" fill-opacity=".5"><ellipse fill="#003638" rx="1" ry="1" transform="matrix(-107.97893 142.99469 -22.68513 -17.13012 47.6 128)"/><ellipse fill="#e7d5ba" rx="1" ry="1" transform="matrix(-27.41818 63.25318 -81.79598 -35.45588 144.5 171.7)"/><ellipse fill="#002e38" rx="1" ry="1" transform="matrix(-84.75907 62.29268 -5.75108 -7.82526 236.5 14.8)"/><ellipse fill="#dfcdb3" cx="243" cy="138" rx="26" ry="80"/><path fill="#003d47" d="M168 0h88v15h-88z"/><ellipse fill="#001f40" rx="1" ry="1" transform="matrix(-25.7786 79.33836 -13.60494 -4.42051 0 5)"/><ellipse fill="#003d3b" rx="1" ry="1" transform="matrix(28.5356 -26.3206 7.49443 8.12512 45 171)"/><ellipse fill="#e1d1b8" rx="1" ry="1" transform="matrix(27.54486 -27.35323 12.36826 12.45491 159.8 97.7)"/></g></svg>