<svg xmlns="http://www.w3.org/2000/svg" viewBox="0 0 500 500"><filter id="b"><feGaussianBlur stdDeviation="12" /></filter><path fill="#2c0202" d="M0 0h500v500H0z"/><g filter="url(#b)" transform="translate(1 1) scale(1.95313)" fill-opacity=".5"><ellipse fill="#d90307" rx="1" ry="1" transform="matrix(-23.194 -44.41916 29.18482 -15.2392 78.6 77.6)"/><ellipse fill="#7b0505" rx="1" ry="1" transform="matrix(33.33418 -29.18187 36.83707 42.07865 172.2 78.1)"/><ellipse fill="#000302" rx="1" ry="1" transform="rotate(-177.6 25.1 82.4) scale(255 52.29415)"/><ellipse fill="#000402" rx="1" ry="1" transform="matrix(33.1533 1.0998 -6.7257 202.74366 15.1 136.6)"/><path fill="#800807" d="M159 89h29v74h-29z"/><ellipse fill="#a60407" rx="1" ry="1" transform="matrix(-20.65189 17.08255 -21.5919 -26.10346 78 97.2)"/><ellipse fill="#5c0000" rx="1" ry="1" transform="matrix(-34.45798 -38.69393 10.99701 -9.79313 89.1 49.8)"/><ellipse cx="126" cy="140" rx="34" ry="34"/></g></svg>