<svg xmlns="http://www.w3.org/2000/svg" viewBox="0 0 500 500"><filter id="b"><feGaussianBlur stdDeviation="12" /></filter><path fill="#7e725a" d="M0 0h500v500H0z"/><g filter="url(#b)" transform="translate(1 1) scale(1.95313)" fill-opacity=".5"><ellipse fill="#e1daad" rx="1" ry="1" transform="matrix(-39.41072 41.75307 -62.26864 -58.77538 154 26.1)"/><ellipse rx="1" ry="1" transform="rotate(104 -31.9 104.7) scale(20.08694 123.19562)"/><ellipse fill="#edffff" rx="1" ry="1" transform="matrix(14.96015 -7.8876 22.62532 42.91273 84.2 231.4)"/><ellipse fill="#120003" rx="1" ry="1" transform="matrix(.58564 -25.56758 69.69688 1.59645 27.6 25)"/><ellipse fill="#100000" cx="11" cy="230" rx="33" ry="29"/><ellipse fill="#fff" cx="200" cy="240" rx="21" ry="18"/><ellipse fill="#e8b5a7" rx="1" ry="1" transform="rotate(-123.2 49.8 30) scale(38.43142 23.22531)"/><path d="M187 170.1L166 190l-43-46 21.2-19.8z"/></g></svg>