<svg xmlns="http://www.w3.org/2000/svg" viewBox="0 0 500 500"><filter id="b"><feGaussianBlur stdDeviation="12" /></filter><path fill="#958b94" d="M0 0h500v500H0z"/><g filter="url(#b)" transform="translate(1 1) scale(1.95313)" fill-opacity=".5"><ellipse cx="167" cy="169" rx="92" ry="106"/><ellipse fill="#fff" rx="1" ry="1" transform="rotate(-169 18.9 65.5) scale(57.57922 241.76276)"/><ellipse fill="#fff" rx="1" ry="1" transform="rotate(39.6 60 343.5) scale(70.60569 46.3457)"/><ellipse fill="#00000a" rx="1" ry="1" transform="matrix(26.24814 -96.6092 42.51889 11.55213 171.2 162.9)"/><path fill="#fff" d="M214 154h26v65h-26z"/><ellipse fill="#fff" rx="1" ry="1" transform="matrix(48.75743 9.73916 -49.70499 248.83954 44.8 70.8)"/><ellipse fill="#cf47c1" rx="1" ry="1" transform="matrix(-4.6843 90.50937 -13.2386 -.68516 117 145.3)"/><path fill="#000004" d="M82 87h22v118H82z"/></g></svg>