<svg xmlns="http://www.w3.org/2000/svg" viewBox="0 0 500 500"><filter id="b"><feGaussianBlur stdDeviation="12" /></filter><path fill="#7d704c" d="M0 0h500v500H0z"/><g filter="url(#b)" transform="translate(1 1) scale(1.95313)" fill-opacity=".5"><ellipse fill="#ffe05a" rx="1" ry="1" transform="rotate(-85 166 -41.1) scale(58.44649 101.04793)"/><ellipse cx="228" cy="227" rx="255" ry="18"/><ellipse fill="#071435" rx="1" ry="1" transform="matrix(-1.04076 -21.54574 178.46678 -8.62078 84.5 51.7)"/><path fill="#ffff58" d="M134.8 135.1L93 220.5l-27.9-13.6 41.7-85.4z"/><ellipse fill="#00001a" rx="1" ry="1" transform="matrix(4.00091 24.6758 -79.67252 12.91803 220.3 216.3)"/><path fill="#080205" d="M35 189l51-23 23-84z"/><path fill="#312d4b" d="M238 126.6l-53 1.8-1-33 53-1.8z"/><ellipse fill="#ffef58" rx="1" ry="1" transform="rotate(133.3 60.6 101.8) scale(16.50277 86.16653)"/></g></svg>