<svg xmlns="http://www.w3.org/2000/svg" viewBox="0 0 500 500"><filter id="b"><feGaussianBlur stdDeviation="12" /></filter><path fill="#a78052" d="M0 0h500v500H0z"/><g filter="url(#b)" transform="translate(1 1) scale(1.95313)" fill-opacity=".5"><ellipse fill="#ab0200" rx="1" ry="1" transform="rotate(173.2 73.4 118.7) scale(152.86089 43.84496)"/><ellipse fill="#a4b6d2" rx="1" ry="1" transform="matrix(-84.55491 -87.42263 35.81608 -34.6412 143.2 81.6)"/><ellipse fill="#f9df00" cx="22" cy="120" rx="80" ry="80"/><ellipse fill="#ffc100" rx="1" ry="1" transform="matrix(5.76217 -52.69776 27.2157 2.97587 148 218.6)"/><ellipse fill="#00306d" rx="1" ry="1" transform="matrix(-15.52374 1.30357 -3.3905 -40.37634 230.3 41)"/><ellipse fill="#150700" rx="1" ry="1" transform="matrix(25.95157 30.86013 -13.76794 11.57804 86 215.3)"/><ellipse fill="#900000" cx="234" cy="250" rx="62" ry="62"/><path fill="#c8f8ff" d="M61 132.5l-5.2 37.6-18.9-2.6 5.3-37.6z"/></g></svg>