<svg xmlns="http://www.w3.org/2000/svg" viewBox="0 0 500 500"><filter id="b"><feGaussianBlur stdDeviation="12" /></filter><path fill="#677d99" d="M0 0h500v500H0z"/><g filter="url(#b)" transform="translate(1 1) scale(1.95313)" fill-opacity=".5"><ellipse fill="#1b140f" cx="203" cy="158" rx="144" ry="36"/><ellipse fill="#add6fc" rx="1" ry="1" transform="matrix(97.01912 -92.71842 34.3299 35.92228 42.3 118.1)"/><path fill="#2a1e0d" d="M34.4 241.9l30-71 125.2 53.2-30 71z"/><ellipse fill="#a1deff" rx="1" ry="1" transform="rotate(91.2 59.9 138.5) scale(37.34694 72.17174)"/><ellipse fill="#457ddb" rx="1" ry="1" transform="matrix(-1.4887 -66.84451 247.81565 -5.51912 119.8 9.7)"/><path d="M115 163l42-41-31-34z"/><ellipse fill="#ffffef" rx="1" ry="1" transform="matrix(-1.28289 10.63154 -72.53038 -8.75212 0 199.6)"/><ellipse fill="#030000" rx="1" ry="1" transform="matrix(-1.68682 -10.9755 30.8599 -4.74283 0 146.5)"/></g></svg>