<svg xmlns="http://www.w3.org/2000/svg" viewBox="0 0 500 500"><filter id="b"><feGaussianBlur stdDeviation="12" /></filter><path fill="#4f8488" d="M0 0h500v500H0z"/><g filter="url(#b)" transform="translate(1 1) scale(1.95313)" fill-opacity=".5"><ellipse fill="#0cf" rx="1" ry="1" transform="matrix(-206.0268 -9.71598 3.02207 -64.0829 210 185.7)"/><ellipse fill="#843600" rx="1" ry="1" transform="matrix(243.78258 -71.80506 25.01392 84.9238 74.7 45)"/><ellipse fill="#fff6aa" rx="1" ry="1" transform="rotate(82.3 -45.6 55.6) scale(17.27594 152.04149)"/><ellipse fill="#ffd48d" rx="1" ry="1" transform="matrix(-171.68334 -38.07993 6.16098 -27.77675 70.9 249)"/><ellipse fill="#ffdf98" rx="1" ry="1" transform="matrix(-.25346 14.52057 -81.69438 -1.42598 241.2 71)"/><ellipse fill="#0a0f00" cx="118" cy="1" rx="222" ry="27"/><path fill="#0bf" d="M271.3 166.2l-16.5 93.5-192-33.9 16.4-93.5z"/><ellipse fill="#0063ca" rx="1" ry="1" transform="rotate(165.4 32.1 88.7) scale(122.12383 29.19087)"/></g></svg>