<svg xmlns="http://www.w3.org/2000/svg" viewBox="0 0 500 500"><filter id="b"><feGaussianBlur stdDeviation="12" /></filter><path fill="#615e63" d="M0 0h500v500H0z"/><g filter="url(#b)" transform="translate(1 1) scale(1.95313)" fill-opacity=".5"><ellipse fill="#d7f9ff" rx="1" ry="1" transform="matrix(48.55364 -85.34445 26.72905 15.20653 34.7 226)"/><ellipse fill="#ffc890" rx="1" ry="1" transform="matrix(-30.88022 2.32987 -4.32202 -57.2844 147.3 108.5)"/><ellipse fill="#010006" rx="1" ry="1" transform="matrix(-58.543 -43.23168 28.5543 -38.66735 181.2 220)"/><ellipse fill="#000e2f" rx="1" ry="1" transform="matrix(-77.11757 23.2906 -12.273 -40.63713 54 58)"/><ellipse cx="227" cy="63" rx="59" ry="23"/><ellipse fill="#fff7e4" rx="1" ry="1" transform="matrix(-15.6345 -3.64164 5.56763 -23.90327 213.3 102.3)"/><ellipse fill="#cee2fb" rx="1" ry="1" transform="rotate(178.1 31.3 124.2) scale(48.52266 10.68576)"/><ellipse fill="#ffdca5" cx="214" cy="21" rx="39" ry="8"/></g></svg>