<svg xmlns="http://www.w3.org/2000/svg" viewBox="0 0 500 500"><filter id="b"><feGaussianBlur stdDeviation="12" /></filter><path fill="#c4cb9d" d="M0 0h500v500H0z"/><g filter="url(#b)" transform="translate(1 1) scale(1.95313)" fill-opacity=".5"><ellipse fill="#537800" rx="1" ry="1" transform="matrix(29.11393 -79.12935 63.28855 23.28565 112.6 128)"/><ellipse fill="#fdffff" rx="1" ry="1" transform="rotate(166.7 -1.7 83.9) scale(39.99847 255.00001)"/><ellipse fill="#f4f5ff" rx="1" ry="1" transform="matrix(.15677 -175.30527 36.31075 .03247 233.5 132.8)"/><ellipse fill="#ffab00" cx="165" rx="50" ry="28"/><ellipse fill="#fcc90f" rx="1" ry="1" transform="rotate(-34.7 406.6 -153) scale(24.11316 75.32789)"/><ellipse fill="#fbdb00" rx="1" ry="1" transform="rotate(140.3 17.8 31.4) scale(12.23974 68.88584)"/><ellipse fill="#fff" rx="1" ry="1" transform="matrix(-50.57929 -21.12245 9.51953 -22.79522 82.6 16.8)"/><ellipse fill="#f9feff" rx="1" ry="1" transform="matrix(-194.68034 -74.82912 13.24743 -34.46539 58.2 247.7)"/></g></svg>