<svg xmlns="http://www.w3.org/2000/svg" viewBox="0 0 500 500"><filter id="c"><feGaussianBlur stdDeviation="55" /></filter><path fill="#324351" d="M0 0h500v500H0z"/><g filter='url(#c)' fill-opacity='.5'><path fill="#cecabd" fill-opacity=".5" d="M11.1 38.5L27.8-97.2 522-36.5 505.4 99.2z"/><ellipse fill-opacity=".5" rx="1" ry="1" transform="matrix(78.33512 58.2267 -98.61221 132.66763 415.9 342.2)"/><ellipse fill="#000018" fill-opacity=".5" rx="1" ry="1" transform="matrix(-1.72951 -66.2997 333.36146 -8.69616 60.4 262.6)"/><path fill="#dbfbff" fill-opacity=".5" d="M205.5 423.9l51.2 36.7 9.8 25.6 13-83.3z"/><ellipse fill="#226c8e" fill-opacity=".5" rx="1" ry="1" transform="matrix(-17.15158 -64.46037 167.27233 -44.50772 152.6 390.5)"/><ellipse fill="#cbd4ca" fill-opacity=".5" rx="1" ry="1" transform="matrix(-10.93733 47.37478 -148.49761 -34.28338 393.9 .9)"/><ellipse fill="#99927e" fill-opacity=".5" rx="1" ry="1" transform="matrix(24.35246 -33.90559 41.16871 29.56915 25.4 62.6)"/><ellipse fill="#515466" fill-opacity=".5" rx="1" ry="1" transform="matrix(-169.68226 -60.08764 16.46317 -46.49055 348.5 98.3)"/></g></svg>