<svg xmlns="http://www.w3.org/2000/svg" viewBox="0 0 500 500"><filter id="b"><feGaussianBlur stdDeviation="12" /></filter><path fill="#99895f" d="M0 0h500v500H0z"/><g filter="url(#b)" transform="translate(1 1) scale(1.95313)" fill-opacity=".5"><ellipse fill="#3d000a" rx="1" ry="1" transform="rotate(133.9 51.7 137.3) scale(45.72131 114.3016)"/><ellipse fill="#e3b799" cx="52" cy="14" rx="117" ry="117"/><ellipse fill="#00ae00" rx="1" ry="1" transform="matrix(4.85508 -28.17974 68.74813 11.8446 58 243.4)"/><ellipse fill="#f2c9aa" rx="1" ry="1" transform="matrix(19.80717 -84.11244 38.77788 9.13159 224.2 47.2)"/><ellipse fill="#006a9e" rx="1" ry="1" transform="matrix(-107.07926 147.75532 -24.18278 -17.52542 233 235.2)"/><ellipse fill="#ffe22e" rx="1" ry="1" transform="matrix(8.5752 50.0463 -33.16513 5.68268 56 163)"/><ellipse fill="#7e6200" cx="22" cy="190" rx="20" ry="108"/><ellipse fill="#d3f0ff" rx="1" ry="1" transform="matrix(1.0215 -40.77334 10.38713 .26023 155.2 102.4)"/></g></svg>