<svg xmlns="http://www.w3.org/2000/svg" viewBox="0 0 500 500"><filter id="b"><feGaussianBlur stdDeviation="12" /></filter><path fill="#d3d3d7" d="M0 0h500v500H0z"/><g filter="url(#b)" transform="translate(1 1) scale(1.95313)" fill-opacity=".5"><ellipse fill="#5b5a45" rx="1" ry="1" transform="matrix(-.80781 -25.70505 17.89098 -.56225 124 106.1)"/><ellipse fill="#830000" cx="111" cy="189" rx="5" ry="43"/><ellipse fill="#67685c" cx="221" cy="92" rx="16" ry="36"/><path fill="#720004" d="M195 216.5l18-109.2-4.7 89.3 10 21.8z"/><path fill="#72766a" d="M78 106L35 77l48-29z"/><ellipse fill="#f8ffff" rx="1" ry="1" transform="matrix(-3.2827 -31.76602 253.64922 -26.2121 106 19.6)"/><path fill="#fafcff" d="M7.6 63.8l88.6 71.8-37.8 46.6-88.6-71.8z"/><path fill="#0f2c0d" d="M130.2 80.9l-27.7 11.5 25.4 8.4 8-5.4z"/></g></svg>