<svg xmlns="http://www.w3.org/2000/svg" viewBox="0 0 500 500"><filter id="b"><feGaussianBlur stdDeviation="12" /></filter><path fill="#917a66" d="M0 0h500v500H0z"/><g filter="url(#b)" transform="translate(1 1) scale(1.95313)" fill-opacity=".5"><ellipse rx="1" ry="1" transform="matrix(-1.84812 25.70736 -254.34359 -18.28491 136 15.1)"/><path fill="#fffaeb" d="M16 32l182 177-26-166z"/><ellipse fill="#fff" rx="1" ry="1" transform="matrix(164.9716 18.99551 -2.3578 20.47702 58.8 239)"/><path fill="#741100" d="M64 133.4l85.6-15.1L168 222.6l-85.6 15.1z"/><ellipse rx="1" ry="1" transform="matrix(29.29894 -7.96238 6.53908 24.06167 28.5 128.7)"/><ellipse fill="#fff58d" rx="1" ry="1" transform="matrix(-21.24235 -14.43629 32.24863 -47.45242 196.1 155.5)"/><ellipse fill="#fff" cx="224" cy="57" rx="185" ry="10"/><ellipse fill="#381000" rx="1" ry="1" transform="rotate(-131.4 170 57.4) scale(47.45063 29.11825)"/></g></svg>