<svg xmlns="http://www.w3.org/2000/svg" viewBox="0 0 500 500"><filter id="b"><feGaussianBlur stdDeviation="12" /></filter><path fill="#353a3b" d="M0 0h500v500H0z"/><g filter="url(#b)" transform="translate(1 1) scale(1.95313)" fill-opacity=".5"><ellipse fill="#f3ffff" rx="1" ry="1" transform="matrix(98.0741 -9.5839 4.75238 48.63218 121 92.6)"/><path d="M263.4 306L9 323.6-1.4 176.1 253 158.3z"/><ellipse rx="1" ry="1" transform="rotate(-.9 1180.8 -7082) scale(255 28.06156)"/><ellipse fill="#c2ced6" rx="1" ry="1" transform="matrix(-13.95099 -45.39859 36.44771 -11.20038 79.8 88.5)"/><ellipse rx="1" ry="1" transform="matrix(96.88358 -102.81035 36.49818 34.39415 204 216.7)"/><ellipse cy="210" rx="55" ry="55"/><path fill="#000102" d="M37 104l-3.7 3.9 14.9-37.6-43 18.9z"/><ellipse fill="#616f72" rx="1" ry="1" transform="matrix(-24.2338 4.93042 -8.41835 -41.37754 215.7 88.9)"/></g></svg>