<svg xmlns="http://www.w3.org/2000/svg" viewBox="0 0 500 500"><filter id="b"><feGaussianBlur stdDeviation="12" /></filter><path fill="#929aa7" d="M0 0h500v500H0z"/><g filter="url(#b)" transform="translate(1 1) scale(1.95313)" fill-opacity=".5"><ellipse rx="1" ry="1" transform="matrix(254.7965 -10.18556 .98054 24.52874 125.9 249.8)"/><ellipse fill="#fff" rx="1" ry="1" transform="matrix(98.79303 -12.36458 3.74758 29.94314 120.1 29)"/><ellipse fill="#f8f0e2" rx="1" ry="1" transform="matrix(8.46495 -46.5796 27.01261 4.90902 95.9 151.7)"/><ellipse fill="#e7ded7" cx="237" cy="159" rx="45" ry="45"/><ellipse fill="#444348" rx="1" ry="1" transform="matrix(150.13992 37.43596 -8.81393 35.34898 36.6 220)"/><ellipse fill="ivory" rx="1" ry="1" transform="matrix(4.01856 20.1109 -35.39166 7.07195 20.4 152.9)"/><path fill="#000400" d="M88 271l-104-23 157-7z"/><ellipse fill="#3d648e" rx="1" ry="1" transform="matrix(-2.41737 -14.62082 62.70773 -10.36795 124.6 80.4)"/></g></svg>