<svg xmlns="http://www.w3.org/2000/svg" viewBox="0 0 500 500"><filter id="b"><feGaussianBlur stdDeviation="12" /></filter><path fill="#a39f93" d="M0 0h500v500H0z"/><g filter="url(#b)" transform="translate(1 1) scale(1.95313)" fill-opacity=".5"><ellipse fill="#47392a" rx="1" ry="1" transform="matrix(-89.93137 -86.84571 23.69287 -24.53469 199 172)"/><ellipse fill="#fff" cx="140" cy="220" rx="55" ry="55"/><ellipse fill="#fdfbf1" rx="1" ry="1" transform="matrix(78.01356 -107.37645 27.31686 19.84686 28 105.1)"/><path fill="#080000" d="M44 79l46 140 13-80z"/><ellipse fill="#3d433f" rx="1" ry="1" transform="rotate(66.1 101.3 170.3) scale(52.75906 29.69184)"/><path fill="#fff5cf" d="M177 53l55 40-65 61z"/><ellipse fill="#0c0000" rx="1" ry="1" transform="matrix(-17.09833 -3.48507 6.79831 -33.35367 202.1 157.6)"/><path fill="#fffffc" d="M15 133l-31-63 129-10z"/></g></svg>