<svg xmlns="http://www.w3.org/2000/svg" viewBox="0 0 500 500"><filter id="b"><feGaussianBlur stdDeviation="12" /></filter><path fill="#efd0ea" d="M0 0h500v500H0z"/><g filter="url(#b)" transform="translate(1 1) scale(1.95313)" fill-opacity=".5"><ellipse fill="#cd8cc8" rx="1" ry="1" transform="matrix(253.82603 -24.44067 2.32978 24.1957 158.8 247.4)"/><ellipse fill="#fff" rx="1" ry="1" transform="matrix(-56.49584 -7.43782 15.6967 -119.2283 242.4 64.5)"/><path fill="#82427e" d="M125 142l-26-42 53 33z"/><ellipse fill="#fbedfa" rx="1" ry="1" transform="rotate(40.8 -162.6 134.7) scale(91.32577 57.1776)"/><ellipse fill="#daa0d3" cx="137" cy="100" rx="27" ry="29"/><ellipse fill="#be73b6" rx="1" ry="1" transform="matrix(-39.67509 6.0003 -2.16868 -14.3397 236 247)"/><ellipse fill="#80517d" rx="1" ry="1" transform="matrix(3.1361 1.61173 -9.73924 18.95051 145.6 124.1)"/><ellipse fill="#fae0f6" cx="188" cy="155" rx="49" ry="49"/></g></svg>