<svg xmlns="http://www.w3.org/2000/svg" viewBox="0 0 500 500"><filter id="b"><feGaussianBlur stdDeviation="12" /></filter><path fill="#717171" d="M0 0h500v500H0z"/><g filter="url(#b)" transform="translate(1 1) scale(1.95313)" fill-opacity=".5"><ellipse rx="1" ry="1" transform="rotate(-101.2 114 -35) scale(66.56998 54.94127)"/><ellipse fill="#e2e2e2" cx="49" cy="163" rx="54" ry="54"/><ellipse fill="#fbfbfb" rx="1" ry="1" transform="matrix(2.36953 34.187 -57.54703 3.98863 232 150)"/><ellipse fill="#131313" rx="1" ry="1" transform="matrix(96.55577 44.4107 -14.80594 32.19043 204.8 210.4)"/><ellipse fill="#e0e0e0" rx="1" ry="1" transform="rotate(138.6 9.6 24.2) scale(160.59864 35.83077)"/><ellipse rx="1" ry="1" transform="rotate(-172.3 62.7 61.6) scale(23.2371 30.34418)"/><ellipse fill="#c4c4c4" cx="67" cy="208" rx="49" ry="49"/><ellipse fill="#c7c7c7" rx="1" ry="1" transform="matrix(27.95044 -15.65561 54.80202 97.83971 239 22.3)"/></g></svg>