<svg xmlns="http://www.w3.org/2000/svg" viewBox="0 0 500 500"><filter id="c"><feGaussianBlur stdDeviation="55" /></filter><path fill="#855152" d="M0 0h500v500H0z"/><g filter='url(#c)' fill-opacity='.5'><path fill="#ff7a84" fill-opacity=".5" d="M530.3 92.8L186.5 403.3-30.3 159.2z"/><ellipse fill-opacity=".5" rx="1" ry="1" transform="matrix(14.94906 73.15117 -284.7861 58.19845 112.4 479.9)"/><ellipse fill="#ffe7e8" fill-opacity=".5" rx="1" ry="1" transform="matrix(143.09636 21.13063 -4.443 30.0879 234.5 177.8)"/><ellipse fill="#db0610" fill-opacity=".5" rx="1" ry="1" transform="matrix(12.85069 53.94154 -283.11369 67.4472 47.4 303.1)"/><ellipse fill="#3d858a" fill-opacity=".5" rx="1" ry="1" transform="rotate(-66.8 520 -151.4) scale(193.77172 76.60575)"/><ellipse fill="#003127" fill-opacity=".5" rx="1" ry="1" transform="matrix(2.38999 -34.98278 215.59508 14.72924 71.4 109.6)"/><ellipse fill="#ff1f25" fill-opacity=".5" rx="1" ry="1" transform="matrix(20.91006 -72.0927 60.44948 17.53302 336.9 301.7)"/><path fill="#0f0000" fill-opacity=".5" d="M415 247l88-19.5L335 126z"/></g></svg>