<svg xmlns="http://www.w3.org/2000/svg" viewBox="0 0 500 500"><filter id="b"><feGaussianBlur stdDeviation="12" /></filter><path fill="#5b6538" d="M0 0h500v500H0z"/><g filter="url(#b)" transform="translate(1 1) scale(1.95313)" fill-opacity=".5"><ellipse fill="#ffff52" rx="1" ry="1" transform="rotate(-48.1 271 -44.6) scale(78.42399 76.54698)"/><ellipse fill="#000030" rx="1" ry="1" transform="matrix(254.85289 8.66058 -1.88042 55.33463 53.8 60)"/><ellipse rx="1" ry="1" transform="matrix(-28.92148 8.30458 -25.34026 -88.24988 10.5 146)"/><ellipse fill="#f7ff66" cx="117" cy="195" rx="50" ry="50"/><ellipse rx="1" ry="1" transform="matrix(-13.35947 -17.03797 31.13057 -24.40948 217.3 198.3)"/><ellipse fill="#000010" rx="1" ry="1" transform="matrix(-78.81416 -45.87094 11.51175 -19.77916 211.5 111.5)"/><ellipse fill="#f3fe6c" rx="1" ry="1" transform="matrix(-77.32622 53.94351 -5.57179 -7.98697 203 243.2)"/><ellipse fill="#ffff6a" rx="1" ry="1" transform="matrix(-40.96896 6.30897 -1.29956 -8.43905 229 160)"/></g></svg>