<svg xmlns="http://www.w3.org/2000/svg" viewBox="0 0 500 500"><filter id="c"><feGaussianBlur stdDeviation="55" /></filter><path fill="#9fa5b0" d="M0 0h500v500H0z"/><g filter='url(#c)' fill-opacity='.5'><ellipse fill="#091021" fill-opacity=".5" rx="1" ry="1" transform="matrix(-57.5896 -19.69326 83.96634 -245.54529 70 290.5)"/><ellipse fill="#e1eaf6" fill-opacity=".5" rx="1" ry="1" transform="matrix(-147.2068 475.79497 -93.5125 -28.93195 267.1 252.6)"/><path fill="#2d3544" fill-opacity=".5" d="M24.4 176.8h152.4v142.5H24.4z"/><path fill="#f9fdff" fill-opacity=".5" d="M85 342.8l46.8 187.5 150.4-209z"/><ellipse fill="#d3c9ca" fill-opacity=".5" rx="1" ry="1" transform="rotate(163.2 11.4 59.3) scale(55.42533 86.11864)"/><ellipse fill="#def0fb" fill-opacity=".5" rx="1" ry="1" transform="matrix(-6.76395 -97.02468 36.99443 -2.57902 198.6 64.2)"/><path fill="#000007" fill-opacity=".5" d="M108.4 24.4h48.8v33.2h-48.8z"/><ellipse fill="#38405a" fill-opacity=".5" rx="1" ry="1" transform="matrix(-26.51502 79.70382 -25.88463 -8.61102 68.9 499)"/></g></svg>