<svg xmlns="http://www.w3.org/2000/svg" viewBox="0 0 500 500"><filter id="b"><feGaussianBlur stdDeviation="12" /></filter><path fill="#606765" d="M0 0h500v500H0z"/><g filter="url(#b)" transform="translate(1 1) scale(1.95313)" fill-opacity=".5"><ellipse fill="#f4ffff" rx="1" ry="1" transform="matrix(-40.0531 8.47927 -16.15482 -76.30972 194.3 72.5)"/><ellipse fill="#000c21" rx="1" ry="1" transform="matrix(-10.74421 57.53244 -250.66637 -46.81208 97.2 218.6)"/><ellipse fill="#faffff" rx="1" ry="1" transform="rotate(-106 131.2 -50.5) scale(22.5495 48.8717)"/><ellipse fill="#a1714d" rx="1" ry="1" transform="rotate(-130.8 51.7 10.2) scale(92.39323 100.2624)"/><ellipse fill="#28a9de" rx="1" ry="1" transform="matrix(-30.62305 -1.92013 2.96662 -47.31286 170.3 156.3)"/><ellipse fill="#0392c1" cx="95" cy="218" rx="39" ry="19"/><ellipse fill="#002a3e" rx="1" ry="1" transform="matrix(153.04455 -83.3399 20.98858 38.54323 196 220.8)"/><ellipse fill="#36332c" rx="1" ry="1" transform="matrix(-21.17478 -12.41132 8.91324 -15.20675 237.3 96.8)"/></g></svg>