<svg xmlns="http://www.w3.org/2000/svg" viewBox="0 0 500 500"><filter id="c"><feGaussianBlur stdDeviation="55" /></filter><path fill="#938c82" d="M0 0h500v500H0z"/><g filter='url(#c)' fill-opacity='.5'><ellipse fill="#020000" fill-opacity=".5" rx="1" ry="1" transform="matrix(89.3265 -1.21165 .80026 58.99714 499 93.4)"/><ellipse fill="#ffebdc" fill-opacity=".5" rx="1" ry="1" transform="rotate(-128.5 302.7 15.9) scale(153.31552 64.46063)"/><ellipse fill="#4d1d05" fill-opacity=".5" rx="1" ry="1" transform="rotate(122 60.2 258.6) scale(123.67753 40.02871)"/><ellipse fill="#526735" fill-opacity=".5" rx="1" ry="1" transform="rotate(13.1 -89 1243.8) scale(167.4739 39.95364)"/><path fill="#fff9ef" fill-opacity=".5" d="M308.3 173.9l57.7-50.1-40.6 133-58.3 54.9z"/><ellipse fill="#cac9cd" fill-opacity=".5" rx="1" ry="1" transform="rotate(52.2 -367.3 540.8) scale(58.47607 191.20655)"/><path fill="#211006" fill-opacity=".5" d="M530.3 108.4l-91.8 82 50.8-220.7z"/><ellipse fill="#cd8767" fill-opacity=".5" rx="1" ry="1" transform="matrix(-64.71465 -163.85162 43.92823 -17.34984 482 422)"/></g></svg>