<svg xmlns="http://www.w3.org/2000/svg" viewBox="0 0 500 500"><filter id="b"><feGaussianBlur stdDeviation="12" /></filter><path fill="#6b8797" d="M0 0h500v500H0z"/><g filter="url(#b)" transform="translate(1 1) scale(1.95313)" fill-opacity=".5"><ellipse fill="#b7e0fd" rx="1" ry="1" transform="matrix(60.23887 -48.4333 34.61317 43.0501 55.7 208.7)"/><ellipse fill="#413d29" rx="1" ry="1" transform="rotate(-51.3 268.4 -91.5) scale(51.16121 34.77069)"/><ellipse fill="#4e5a54" cx="234" cy="120" rx="71" ry="135"/><ellipse fill="#85b9de" rx="1" ry="1" transform="matrix(33.15776 42.37967 -84.61045 66.19904 36.7 44.8)"/><ellipse fill="#00193d" rx="1" ry="1" transform="matrix(-33.12785 .37778 -.22451 -19.68725 80.4 109.4)"/><path fill="#191300" d="M164.6 227.7l-28-1.5 2.8-53.9 28 1.5z"/><ellipse fill="#2a4f6c" rx="1" ry="1" transform="rotate(169.5 25.2 33.7) scale(12.04437 26.0807)"/><ellipse fill="#aad0e8" rx="1" ry="1" transform="matrix(71.4972 43.8245 -10.8214 17.6545 15.9 180.5)"/></g></svg>