<svg xmlns="http://www.w3.org/2000/svg" viewBox="0 0 500 500"><filter id="c"><feGaussianBlur stdDeviation="55" /></filter><path fill="#b1b1b1" d="M0 0h500v500H0z"/><g filter='url(#c)' fill-opacity='.5'><ellipse fill="#070707" fill-opacity=".5" rx="1" ry="1" transform="rotate(5 -4254.7 4830.6) scale(106.5772 259.33037)"/><ellipse fill="#fcfcfc" fill-opacity=".5" rx="1" ry="1" transform="matrix(32.30896 270.95111 -170.9505 20.38461 129.6 279.2)"/><ellipse fill="#e5e5e5" fill-opacity=".5" rx="1" ry="1" transform="rotate(-96.3 313.5 -77) scale(153.62413 31.36044)"/><path fill="#242424" fill-opacity=".5" d="M563 568.4L310.4 542l19.2-182.6 252.5 26.5z"/><ellipse fill="#e8e8e8" fill-opacity=".5" rx="1" ry="1" transform="matrix(59.52042 15.66659 -28.70484 109.05528 304.4 152.5)"/><ellipse fill="#1c1c1c" fill-opacity=".5" rx="1" ry="1" transform="matrix(-112.03887 58.98645 -5.40675 -10.26958 417.8 311.4)"/><ellipse fill="#aeaeae" fill-opacity=".5" rx="1" ry="1" transform="matrix(-4.76006 -42.39255 212.61186 -23.8732 100 190.7)"/><path fill="#f2f2f2" fill-opacity=".5" d="M256.8 456l72.3-269.5-359.4 136.7z"/></g></svg>