<svg xmlns="http://www.w3.org/2000/svg" viewBox="0 0 500 500"><filter id="c"><feGaussianBlur stdDeviation="55" /></filter><path fill="#0767cc" d="M0 0h500v500H0z"/><g filter='url(#c)' fill-opacity='.5'><ellipse fill="#00006e" fill-opacity=".5" rx="1" ry="1" transform="matrix(47.53478 13.41247 -35.81584 126.93394 382 487.4)"/><path fill="#62ffff" fill-opacity=".5" d="M214 514.2l13-67 88.3 17-13 67.2z"/><ellipse fill="#00178d" fill-opacity=".5" rx="1" ry="1" transform="matrix(-20.30463 44.86644 -136.92979 -61.96855 1 385.3)"/><ellipse fill="#09a3f8" fill-opacity=".5" rx="1" ry="1" transform="matrix(-45.50751 19.14325 -56.08656 -133.32946 296 151.5)"/><path fill="#12ebff" fill-opacity=".5" d="M78 122.1l-13.2-43 89.7-27.4 13.1 43z"/><path fill="#27e2ff" fill-opacity=".5" d="M530.3 415L411 292l23.5 91.8z"/><path fill="#2ffcff" fill-opacity=".5" d="M315.4 395.5l45-66.4-2 113.3z"/><path fill="#0032b0" fill-opacity=".5" d="M-30.3 18.6L59.6 415l99.6-111.3z"/></g></svg>