<svg xmlns="http://www.w3.org/2000/svg" viewBox="0 0 500 500"><filter id="b"><feGaussianBlur stdDeviation="12" /></filter><path fill="#646464" d="M0 0h500v500H0z"/><g filter="url(#b)" transform="translate(1 1) scale(1.95313)" fill-opacity=".5"><ellipse fill="#fff" rx="1" ry="1" transform="matrix(-20.37847 -12.70661 37.20999 -59.67622 143.1 177.1)"/><ellipse rx="1" ry="1" transform="matrix(25.93022 6.29717 -17.03732 70.1556 26.3 235.5)"/><ellipse fill="#aeaeae" cx="38" cy="91" rx="135" ry="54"/><ellipse rx="1" ry="1" transform="matrix(14.21154 34.14104 -150.04688 62.45849 200.8 252.1)"/><ellipse rx="1" ry="1" transform="matrix(-254.9407 -5.4989 .30216 -14.00858 141.7 10.7)"/><ellipse fill="#d5d5d5" cx="112" cy="51" rx="16" ry="38"/><ellipse fill="#3b3b3b" rx="1" ry="1" transform="matrix(-27.68334 -1.20868 2.22053 -50.85846 74.7 150.2)"/><ellipse fill="#e4e4e4" rx="1" ry="1" transform="matrix(25.98225 53.54395 -9.70507 4.7094 125.1 159.1)"/></g></svg>