<svg xmlns="http://www.w3.org/2000/svg" viewBox="0 0 500 500"><filter id="b"><feGaussianBlur stdDeviation="12" /></filter><path fill="#9ca7b6" d="M0 0h500v500H0z"/><g filter="url(#b)" transform="translate(1 1) scale(1.95313)" fill-opacity=".5"><ellipse fill="#1e0000" rx="1" ry="1" transform="matrix(-22.706 -89.28496 76.50441 -19.45579 138 216.4)"/><ellipse fill="#fbffff" rx="1" ry="1" transform="rotate(80.7 31.6 88.8) scale(88.0022 248.7423)"/><ellipse fill="#7c0000" rx="1" ry="1" transform="matrix(-61.93056 -41.8243 26.76908 -39.63782 134.5 183)"/><ellipse fill="#1397d9" cx="67" cy="132" rx="19" ry="132"/><ellipse fill="#fff" rx="1" ry="1" transform="matrix(2.60902 -25.24698 44.87452 4.63733 29 202.6)"/><ellipse fill="#bf0000" rx="1" ry="1" transform="matrix(-62.72258 2.62886 -.90422 -21.57393 141.3 157.2)"/><path fill="#fff" d="M311.4 65.3l-178.6 44.5-24.2-97 178.6-44.6z"/><ellipse fill="#003976" rx="1" ry="1" transform="matrix(-.35255 16.27443 -185.37573 -4.0158 91 255)"/></g></svg>