<svg xmlns="http://www.w3.org/2000/svg" viewBox="0 0 500 500"><filter id="b"><feGaussianBlur stdDeviation="12" /></filter><path fill="#8e847d" d="M0 0h500v500H0z"/><g filter="url(#b)" transform="translate(1 1) scale(1.95313)" fill-opacity=".5"><ellipse fill="#e6d6a0" cx="84" rx="150" ry="99"/><ellipse fill="#2b1f4c" rx="1" ry="1" transform="matrix(32.31595 2.37314 -7.52688 102.49662 179.3 177.5)"/><ellipse fill="#414b65" rx="1" ry="1" transform="matrix(31.4656 -81.4809 56.87467 21.96338 19.5 197.9)"/><ellipse fill="#ffe69e" cx="244" cy="110" rx="20" ry="51"/><ellipse fill="#867f86" rx="1" ry="1" transform="matrix(45.29682 34.94311 -23.56014 30.54105 165.9 71.8)"/><path fill="#fee8a3" d="M112.1 63.4L76.8 80l-39-83.3L73.3-20z"/><ellipse fill="#394d70" rx="1" ry="1" transform="matrix(25.31332 -16.62774 13.49012 20.53674 254.6 188.8)"/><path fill="#ffffb8" d="M249-.7l22.6 8.2L261 36.7l-22.6-8.2z"/></g></svg>