<svg xmlns="http://www.w3.org/2000/svg" viewBox="0 0 500 500"><filter id="b"><feGaussianBlur stdDeviation="12" /></filter><path fill="#5b6365" d="M0 0h500v500H0z"/><g filter="url(#b)" transform="translate(1 1) scale(1.95313)" fill-opacity=".5"><ellipse fill="#d6e8ed" rx="1" ry="1" transform="matrix(-232.26704 10.95344 -2.81586 -59.71022 118 116)"/><ellipse rx="1" ry="1" transform="rotate(-91.1 71.2 -45) scale(33.23161 211.03614)"/><ellipse rx="1" ry="1" transform="rotate(70.5 -100.1 230) scale(50.02263 255.00001)"/><ellipse rx="1" ry="1" transform="rotate(178.1 62.4 8.6) scale(249.60318 38.43976)"/><ellipse fill="#acc4d0" rx="1" ry="1" transform="rotate(95 -11 162.5) scale(17.51995 30.13406)"/><ellipse fill="#84949a" rx="1" ry="1" transform="matrix(140.30278 -44.73954 11.8279 37.0922 33.5 172.5)"/><ellipse cx="188" cy="255" rx="168" ry="24"/><ellipse fill="#12110d" cx="98" cy="217" rx="35" ry="24"/></g></svg>