<svg xmlns="http://www.w3.org/2000/svg" viewBox="0 0 500 500"><filter id="b"><feGaussianBlur stdDeviation="12" /></filter><path fill="#2a4c82" d="M0 0h500v500H0z"/><g filter="url(#b)" transform="translate(1 1) scale(1.95313)" fill-opacity=".5"><ellipse fill="#fff" rx="1" ry="1" transform="matrix(-83.26856 -23.71967 11.78444 -41.3696 186.6 143)"/><ellipse rx="1" ry="1" transform="matrix(252.1974 8.71152 -1.57231 45.51821 108.8 228.4)"/><path fill="#fffff8" d="M124.6 186.3l-1.2-69 90-1.6 1.2 69z"/><ellipse fill="#165ec2" rx="1" ry="1" transform="rotate(-30.6 335.6 -394.4) scale(38.97849 149.67244)"/><ellipse cx="59" cy="236" rx="60" ry="60"/><path fill="#000008" d="M116.3 225.5l54.6-53.8L271 263.8l-158.7 4.8z"/><ellipse fill="#347fda" rx="1" ry="1" transform="matrix(-40.90435 -18.46902 12.25973 -27.15229 95.9 153.8)"/><ellipse fill="#00329d" cx="51" cy="51" rx="87" ry="87"/></g></svg>