<svg xmlns="http://www.w3.org/2000/svg" viewBox="0 0 500 500"><filter id="b"><feGaussianBlur stdDeviation="12" /></filter><path fill="#1b443a" d="M0 0h500v500H0z"/><g filter="url(#b)" transform="translate(1 1) scale(1.95313)" fill-opacity=".5"><ellipse fill="#61ffaf" rx="1" ry="1" transform="matrix(74.1405 -.99511 .97048 72.30536 142.2 136.7)"/><ellipse fill="#040010" cx="21" cy="44" rx="56" ry="254"/><ellipse fill="#000009" rx="1" ry="1" transform="matrix(157.26056 -20.34206 4.9376 38.17169 181 231.5)"/><ellipse fill="#06051c" rx="1" ry="1" transform="matrix(29.10841 72.40945 -40.17733 16.15118 208.8 46.5)"/><ellipse fill="#36b372" cx="140" cy="139" rx="79" ry="79"/><path fill="#b7ccce" d="M113 71h40v44h-40z"/><ellipse fill="#005d31" rx="1" ry="1" transform="matrix(-33.45626 17.34208 -10.08663 -19.45908 147.6 193.4)"/><ellipse fill="#0e0720" rx="1" ry="1" transform="matrix(6.68449 33.15136 -71.44039 14.4049 110.8 30.4)"/></g></svg>