<svg xmlns="http://www.w3.org/2000/svg" viewBox="0 0 500 500"><filter id="b"><feGaussianBlur stdDeviation="12" /></filter><path fill="#65757f" d="M0 0h500v500H0z"/><g filter="url(#b)" transform="translate(1 1) scale(1.95313)" fill-opacity=".5"><ellipse fill="#dfe3e6" rx="1" ry="1" transform="matrix(60.01491 -12.86752 53.45846 249.3335 22 128.3)"/><ellipse fill="#1f3442" cx="191" cy="32" rx="125" ry="125"/><ellipse fill="#00040e" rx="1" ry="1" transform="matrix(-4.87073 29.10633 -88.83837 -14.86645 189 244)"/><ellipse fill="#4b5f6b" rx="1" ry="1" transform="matrix(10.38894 27.8653 -38.34983 14.29786 54.8 237.8)"/><ellipse fill="#f6f4f4" cx="4" cy="59" rx="29" ry="76"/><ellipse fill="#b9c7cf" rx="1" ry="1" transform="rotate(-93.2 194 -19) scale(79.82368 7.13206)"/><ellipse fill="#000007" rx="1" ry="1" transform="matrix(24.18183 -7.7142 13.7598 43.13307 250 40)"/><ellipse fill="#b5c2ce" rx="1" ry="1" transform="matrix(-93.87688 11.29351 -1.5795 -13.12953 141.8 176.8)"/></g></svg>