<svg xmlns="http://www.w3.org/2000/svg" viewBox="0 0 500 500"><filter id="b"><feGaussianBlur stdDeviation="12" /></filter><path fill="#322e66" d="M0 0h500v500H0z"/><g filter="url(#b)" transform="translate(1 1) scale(1.95313)" fill-opacity=".5"><ellipse fill="#bdc0ff" rx="1" ry="1" transform="matrix(-4.5787 33.42533 -138.91617 -19.02915 155.2 95.6)"/><path d="M271 211l-287 17L97 88z"/><ellipse fill="#c481ff" rx="1" ry="1" transform="rotate(61.9 -42.2 91.2) scale(23.07766 86.01144)"/><ellipse fill="#000017" rx="1" ry="1" transform="rotate(-83 52.4 -59.3) scale(39.28736 255.00003)"/><ellipse fill="#dff" rx="1" ry="1" transform="matrix(9.13716 -29.13299 15.43186 4.84 210.7 111.9)"/><ellipse fill="#000005" cx="4" cy="172" rx="69" ry="52"/><ellipse fill="#fff" cx="164" cy="91" rx="20" ry="21"/><ellipse fill="#000014" rx="1" ry="1" transform="matrix(-32.5151 1.35626 -1.74761 -41.89747 25.2 39)"/></g></svg>