<svg xmlns="http://www.w3.org/2000/svg" version="1.1" width="680" height="1024">
<rect x="0" y="0" width="680" height="1024" fill="#797a78" />
<g transform="scale(4.000000) translate(0.5 0.5)">
<polygon fill="#000000" fill-opacity="0.501961" points="61,158 95,31 166,106" />
<polygon fill="#e0e1df" fill-opacity="0.501961" points="2,-16 -12,99 185,4" />
<polygon fill="#000000" fill-opacity="0.501961" points="67,157 185,260 175,170" />
<polygon fill="#cccecb" fill-opacity="0.501961" points="28,251 -16,27 83,174" />
<polygon fill="#000000" fill-opacity="0.501961" points="36,90 83,38 150,59" />
<polygon fill="#ffffff" fill-opacity="0.501961" points="185,173 112,139 161,110" />
<polygon fill="#d3d5d3" fill-opacity="0.501961" points="182,8 184,132 109,7" />
<polygon fill="#4c4e4b" fill-opacity="0.501961" points="91,110 57,268 184,271" />
<polygon fill="#050705" fill-opacity="0.501961" points="12,166 12,271 -16,178" />
<polygon fill="#010501" fill-opacity="0.501961" points="149,119 55,137 138,49" />
</g>
</svg>