<svg xmlns="http://www.w3.org/2000/svg" version="1.1" width="752" height="1024">
<rect x="0" y="0" width="752" height="1024" fill="#e9e5d8" />
<g transform="scale(4.000000) translate(0.5 0.5)">
<polygon fill="#917120" fill-opacity="0.501961" points="164,120 58,264 33,119" />
<polygon fill="#000000" fill-opacity="0.501961" points="130,271 151,184 107,264" />
<polygon fill="#090000" fill-opacity="0.501961" points="149,196 138,134 156,128" />
<polygon fill="#ffffff" fill-opacity="0.501961" points="187,-16 -16,12 188,155" />
<polygon fill="#390a00" fill-opacity="0.501961" points="42,128 38,163 105,158" />
<polygon fill="#fffd9a" fill-opacity="0.501961" points="73,234 165,187 49,150" />
<polygon fill="#000000" fill-opacity="0.501961" points="50,203 64,255 83,247" />
<polygon fill="#ffffff" fill-opacity="0.501961" points="30,-16 46,271 -16,190" />
<polygon fill="#ffffff" fill-opacity="0.501961" points="142,180 145,146 31,185" />
<polygon fill="#e59d00" fill-opacity="0.501961" points="123,202 50,189 155,179" />
</g>
</svg>