<svg xmlns="http://www.w3.org/2000/svg" version="1.1" width="1024" height="748">
<rect x="0" y="0" width="1024" height="748" fill="#716750" />
<g transform="scale(4.000000) translate(0.5 0.5)">
<polygon fill="#d7c99c" fill-opacity="0.501961" points="271,88 148,-16 39,69" />
<polygon fill="#270e0c" fill-opacity="0.501961" points="95,133 1,-16 -1,202" />
<polygon fill="#efffff" fill-opacity="0.501961" points="85,132 61,187 131,202" />
<polygon fill="#000000" fill-opacity="0.501961" points="114,18 -10,-16 3,45" />
<polygon fill="#000000" fill-opacity="0.501961" points="13,96 174,131 98,142" />
<polygon fill="#fffffc" fill-opacity="0.501961" points="190,202 196,159 157,166" />
<polygon fill="#d2cea6" fill-opacity="0.501961" points="242,39 129,57 82,-15" />
<polygon fill="#1d2402" fill-opacity="0.501961" points="263,67 271,175 210,126" />
<polygon fill="#9c7569" fill-opacity="0.501961" points="121,17 -14,68 130,121" />
<polygon fill="#b18a6d" fill-opacity="0.501961" points="13,102 22,150 85,141" />
</g>
</svg>