<svg xmlns="http://www.w3.org/2000/svg" version="1.1" width="1024" height="676">
<rect x="0" y="0" width="1024" height="676" fill="#e2e7d4" />
<g transform="scale(4.000000) translate(0.5 0.5)">
<polygon fill="#71851c" fill-opacity="0.501961" points="217,161 69,112 126,29" />
<polygon fill="#7a9000" fill-opacity="0.501961" points="50,-12 121,73 116,131" />
<polygon fill="#ffffff" fill-opacity="0.501961" points="266,153 66,-16 271,-13" />
<polygon fill="#ffffff" fill-opacity="0.501961" points="-16,166 109,180 11,-16" />
<polygon fill="#d4cb8d" fill-opacity="0.501961" points="156,43 232,150 93,160" />
<polygon fill="#316850" fill-opacity="0.501961" points="139,79 109,39 83,136" />
<polygon fill="#fade00" fill-opacity="0.501961" points="47,-14 89,65 75,4" />
<polygon fill="#ffffff" fill-opacity="0.501961" points="-16,159 91,182 41,-16" />
<polygon fill="#ffffff" fill-opacity="0.501961" points="94,50 255,0 64,-16" />
<polygon fill="#8da3d6" fill-opacity="0.501961" points="72,122 163,140 132,184" />
</g>
</svg>