<svg xmlns="http://www.w3.org/2000/svg" version="1.1" width="1024" height="676">
<rect x="0" y="0" width="1024" height="676" fill="#1f2427" />
<g transform="scale(4.000000) translate(0.5 0.5)">
<polygon fill="#737e8a" fill-opacity="0.501961" points="157,167 166,23 21,14" />
<polygon fill="#000000" fill-opacity="0.501961" points="108,-16 271,1 250,184" />
<polygon fill="#e8ffff" fill-opacity="0.501961" points="32,77 30,112 47,120" />
<polygon fill="#abbbcd" fill-opacity="0.501961" points="72,22 24,60 37,8" />
<polygon fill="#000000" fill-opacity="0.501961" points="-16,160 8,-16 44,184" />
<polygon fill="#929eb3" fill-opacity="0.501961" points="188,151 175,98 156,130" />
<polygon fill="#aeb9c7" fill-opacity="0.501961" points="99,53 113,33 160,83" />
<polygon fill="#0f1212" fill-opacity="0.501961" points="47,159 40,36 149,91" />
<polygon fill="#000000" fill-opacity="0.501961" points="76,25 210,4 25,-16" />
<polygon fill="#ffffff" fill-opacity="0.501961" points="216,107 215,139 221,126" />
</g>
</svg>