<svg xmlns="http://www.w3.org/2000/svg" version="1.1" width="1024" height="680">
<rect x="0" y="0" width="1024" height="680" fill="#bfbfbf" />
<g transform="scale(4.000000) translate(0.5 0.5)">
<polygon fill="#020202" fill-opacity="0.501961" points="30,163 187,107 -16,96" />
<polygon fill="#ffffff" fill-opacity="0.501961" points="-16,-3 119,104 271,2" />
<polygon fill="#000000" fill-opacity="0.501961" points="140,98 152,177 166,77" />
<polygon fill="#ffffff" fill-opacity="0.501961" points="62,151 2,126 133,127" />
<polygon fill="#fefefe" fill-opacity="0.501961" points="271,116 159,112 246,-16" />
<polygon fill="#000000" fill-opacity="0.501961" points="136,121 36,97 -16,126" />
<polygon fill="#2a2a2a" fill-opacity="0.501961" points="226,125 152,130 109,101" />
<polygon fill="#f9f9f9" fill-opacity="0.501961" points="0,87 102,91 -16,-1" />
<polygon fill="#000000" fill-opacity="0.501961" points="131,148 162,138 134,163" />
<polygon fill="#373737" fill-opacity="0.501961" points="64,161 6,164 22,128" />
</g>
</svg>