<svg xmlns="http://www.w3.org/2000/svg" version="1.1" width="680" height="1024">
<rect x="0" y="0" width="680" height="1024" fill="#09adc9" />
<g transform="scale(4.000000) translate(0.5 0.5)">
<polygon fill="#ffffff" fill-opacity="0.501961" points="121,61 164,99 185,0" />
<polygon fill="#00a278" fill-opacity="0.501961" points="-16,4 72,-16 76,189" />
<polygon fill="#00f4ff" fill-opacity="0.501961" points="185,-6 103,92 79,-2" />
<polygon fill="#005eaf" fill-opacity="0.501961" points="-16,270 185,244 11,206" />
<polygon fill="#d5ffff" fill-opacity="0.501961" points="153,102 185,16 129,55" />
<polygon fill="#0093f8" fill-opacity="0.501961" points="185,246 -16,205 -16,114" />
<polygon fill="#05e8e6" fill-opacity="0.501961" points="185,113 11,82 134,67" />
<polygon fill="#03c5ff" fill-opacity="0.501961" points="148,207 55,207 139,159" />
<polygon fill="#00b1a4" fill-opacity="0.501961" points="49,189 176,153 55,38" />
<polygon fill="#008786" fill-opacity="0.501961" points="1,2 19,120 -16,129" />
</g>
</svg>