<svg xmlns="http://www.w3.org/2000/svg" version="1.1" width="1024" height="743">
<rect x="0" y="0" width="1024" height="743" fill="#c7d9d9" />
<g transform="scale(4.000000) translate(0.5 0.5)">
<polygon fill="#67798a" fill-opacity="0.501961" points="77,133 42,162 170,154" />
<polygon fill="#fffefc" fill-opacity="0.501961" points="33,183 243,143 271,201" />
<polygon fill="#000b56" fill-opacity="0.501961" points="105,145 86,157 92,166" />
<polygon fill="#b1c8c6" fill-opacity="0.501961" points="271,98 244,157 37,136" />
<polygon fill="#c9ffff" fill-opacity="0.501961" points="133,164 120,62 158,69" />
<polygon fill="#000033" fill-opacity="0.501961" points="61,159 64,144 49,161" />
<polygon fill="#fcf4f3" fill-opacity="0.501961" points="-16,156 145,168 9,201" />
<polygon fill="#a6b2ac" fill-opacity="0.501961" points="87,154 206,132 145,165" />
<polygon fill="#aec4c3" fill-opacity="0.501961" points="-16,114 73,150 128,110" />
<polygon fill="#000d52" fill-opacity="0.501961" points="81,143 76,151 86,156" />
</g>
</svg>