<svg xmlns="http://www.w3.org/2000/svg" version="1.1" width="684" height="1024">
<rect x="0" y="0" width="684" height="1024" fill="#c0beb4" />
<g transform="scale(4.000000) translate(0.5 0.5)">
<polygon fill="#120c00" fill-opacity="0.501961" points="-16,-3 186,0 92,50" />
<polygon fill="#220000" fill-opacity="0.501961" points="61,111 117,138 32,158" />
<polygon fill="#fffffa" fill-opacity="0.501961" points="42,7 182,144 -16,102" />
<polygon fill="#fffffa" fill-opacity="0.501961" points="103,10 121,166 146,20" />
<polygon fill="#ffffff" fill-opacity="0.501961" points="-16,262 186,255 146,178" />
<polygon fill="#010000" fill-opacity="0.501961" points="107,55 92,-16 72,46" />
<polygon fill="#42340e" fill-opacity="0.501961" points="186,8 164,63 138,-14" />
<polygon fill="#000000" fill-opacity="0.501961" points="114,0 10,-16 -9,14" />
<polygon fill="#7e7c7d" fill-opacity="0.501961" points="29,121 69,153 8,271" />
<polygon fill="#140f02" fill-opacity="0.501961" points="41,147 113,145 101,124" />
</g>
</svg>