<svg xmlns="http://www.w3.org/2000/svg" version="1.1" width="1024" height="572">
<rect x="0" y="0" width="1024" height="572" fill="#969463" />
<g transform="scale(4.000000) translate(0.5 0.5)">
<polygon fill="#320116" fill-opacity="0.501961" points="264,158 118,118 117,47" />
<polygon fill="#e3c2a3" fill-opacity="0.501961" points="271,60 93,-16 -16,58" />
<polygon fill="#098d00" fill-opacity="0.501961" points="29,158 -16,99 138,137" />
<polygon fill="#f8d02f" fill-opacity="0.501961" points="45,-16 111,115 20,71" />
<polygon fill="#007752" fill-opacity="0.501961" points="244,158 149,139 271,80" />
<polygon fill="#530000" fill-opacity="0.501961" points="66,126 76,42 56,85" />
<polygon fill="#13255b" fill-opacity="0.501961" points="145,38 157,76 161,-9" />
<polygon fill="#b01900" fill-opacity="0.501961" points="190,87 107,85 170,128" />
<polygon fill="#5edfd2" fill-opacity="0.501961" points="148,147 102,125 109,87" />
<polygon fill="#deb5a0" fill-opacity="0.501961" points="164,-16 166,90 239,-10" />
</g>
</svg>