<svg xmlns="http://www.w3.org/2000/svg" version="1.1" width="1024" height="764">
<rect x="0" y="0" width="1024" height="764" fill="#636363" />
<g transform="scale(4.000000) translate(0.5 0.5)">
<polygon fill="#000000" fill-opacity="0.501961" points="259,156 56,164 91,114" />
<polygon fill="#ffffff" fill-opacity="0.501961" points="-12,119 53,160 27,100" />
<polygon fill="#ffffff" fill-opacity="0.501961" points="81,121 12,198 -11,181" />
<polygon fill="#ffffff" fill-opacity="0.501961" points="271,58 271,-1 213,19" />
<polygon fill="#ffffff" fill-opacity="0.501961" points="271,135 215,112 271,195" />
<polygon fill="#000000" fill-opacity="0.501961" points="163,206 227,108 191,102" />
<polygon fill="#050505" fill-opacity="0.501961" points="88,47 2,113 9,34" />
<polygon fill="#ffffff" fill-opacity="0.501961" points="45,206 91,160 113,174" />
<polygon fill="#ffffff" fill-opacity="0.501961" points="140,124 115,117 121,139" />
<polygon fill="#ffffff" fill-opacity="0.501961" points="180,-16 164,23 184,43" />
</g>
</svg>