<svg xmlns="http://www.w3.org/2000/svg" version="1.1" width="1024" height="680">
<rect x="0" y="0" width="1024" height="680" fill="#d6dee4" />
<g transform="scale(4.000000) translate(0.5 0.5)">
<polygon fill="#5393b2" fill-opacity="0.501961" points="28,182 113,180 92,73" />
<polygon fill="#fff9f8" fill-opacity="0.501961" points="251,-16 230,136 36,19" />
<polygon fill="#a3c0da" fill-opacity="0.501961" points="-16,63 6,185 118,108" />
<polygon fill="#3e719d" fill-opacity="0.501961" points="104,160 52,185 56,148" />
<polygon fill="#e0c8ca" fill-opacity="0.501961" points="82,-8 80,112 135,32" />
<polygon fill="#efeef0" fill-opacity="0.501961" points="255,115 109,83 116,185" />
<polygon fill="#b2b1c6" fill-opacity="0.501961" points="210,143 271,120 249,185" />
<polygon fill="#e5f4f2" fill-opacity="0.501961" points="75,-11 10,3 43,140" />
<polygon fill="#b4c8cb" fill-opacity="0.501961" points="111,180 108,70 50,61" />
<polygon fill="#fbfcfb" fill-opacity="0.501961" points="123,-16 228,12 184,98" />
</g>
</svg>