<svg xmlns="http://www.w3.org/2000/svg" version="1.1" width="1024" height="692">
<rect x="0" y="0" width="1024" height="692" fill="#586161" />
<g transform="scale(4.000000) translate(0.5 0.5)">
<polygon fill="#dbeef2" fill-opacity="0.501961" points="271,37 134,140 -16,42" />
<polygon fill="#000000" fill-opacity="0.501961" points="-16,40 271,29 74,-16" />
<polygon fill="#000000" fill-opacity="0.501961" points="267,91 -10,188 262,173" />
<polygon fill="#000000" fill-opacity="0.501961" points="271,-16 232,45 12,1" />
<polygon fill="#9cabb2" fill-opacity="0.501961" points="-4,169 103,120 -16,43" />
<polygon fill="#000000" fill-opacity="0.501961" points="-1,44 -1,-16 224,3" />
<polygon fill="#b3c2c3" fill-opacity="0.501961" points="271,35 248,108 4,41" />
<polygon fill="#000000" fill-opacity="0.501961" points="44,188 271,169 102,128" />
<polygon fill="#000000" fill-opacity="0.501961" points="244,-16 61,35 271,33" />
<polygon fill="#566469" fill-opacity="0.501961" points="261,138 153,158 85,106" />
</g>
</svg>