<svg xmlns="http://www.w3.org/2000/svg" version="1.1" width="1024" height="604">
<rect x="0" y="0" width="1024" height="604" fill="#5b605b" />
<g transform="scale(4.000000) translate(0.5 0.5)">
<polygon fill="#cff8ff" fill-opacity="0.501961" points="267,20 150,-16 139,100" />
<polygon fill="#000e1b" fill-opacity="0.501961" points="271,145 18,66 -15,166" />
<polygon fill="#ffffff" fill-opacity="0.501961" points="232,72 254,17 271,94" />
<polygon fill="#b88b64" fill-opacity="0.501961" points="56,95 156,13 45,-3" />
<polygon fill="#392618" fill-opacity="0.501961" points="269,166 178,50 226,41" />
<polygon fill="#efffff" fill-opacity="0.501961" points="164,-16 191,90 154,75" />
<polygon fill="#050000" fill-opacity="0.501961" points="195,24 151,-16 208,13" />
<polygon fill="#006691" fill-opacity="0.501961" points="207,119 74,141 156,72" />
<polygon fill="#250c00" fill-opacity="0.501961" points="43,-16 25,84 -16,6" />
<polygon fill="#f2ffff" fill-opacity="0.501961" points="162,51 161,23 266,22" />
</g>
</svg>