<svg xmlns="http://www.w3.org/2000/svg" version="1.1" width="1024" height="680">
<rect x="0" y="0" width="1024" height="680" fill="#b5b5b5" />
<g transform="scale(4.000000) translate(0.5 0.5)">
<polygon fill="#0d0d0d" fill-opacity="0.501961" points="133,162 264,185 182,19" />
<polygon fill="#fefefe" fill-opacity="0.501961" points="-16,121 155,11 139,185" />
<polygon fill="#ffffff" fill-opacity="0.501961" points="210,34 245,177 271,18" />
<polygon fill="#e5e5e5" fill-opacity="0.501961" points="195,133 197,16 158,27" />
<polygon fill="#ffffff" fill-opacity="0.501961" points="17,8 133,43 -16,54" />
<polygon fill="#202020" fill-opacity="0.501961" points="149,184 147,88 252,185" />
<polygon fill="#272727" fill-opacity="0.501961" points="234,120 207,185 200,50" />
<polygon fill="#2a2a2a" fill-opacity="0.501961" points="165,143 150,89 177,42" />
<polygon fill="#fefefe" fill-opacity="0.501961" points="199,125 178,117 201,102" />
<polygon fill="#cccccc" fill-opacity="0.501961" points="-7,114 221,30 69,2" />
</g>
</svg>